<?xml version="1.0" encoding="UTF-8" standalone="no"?>
<!DOCTYPE svg PUBLIC "-//W3C//DTD SVG 1.1//EN" "http://www.w3.org/Graphics/SVG/1.1/DTD/svg11.dtd">
<svg width="100%" height="100%" viewBox="0 0 801 437" version="1.1" xmlns="http://www.w3.org/2000/svg" xmlns:xlink="http://www.w3.org/1999/xlink" xml:space="preserve" xmlns:serif="http://www.serif.com/" style="fill-rule:evenodd;clip-rule:evenodd;stroke-linecap:round;stroke-linejoin:round;stroke-miterlimit:1.5;">
    <g transform="matrix(1,0,0,1,-10720,-1880)">
        <g id="_022" serif:id="022" transform="matrix(0.99185,0,0,0.964777,8979.22,1888.47)">
            <rect x="1755.48" y="-8.417" width="806.573" height="452.321" style="fill:none;"/>
            <g transform="matrix(3.33161,-1.557e-15,2.53131e-14,3.4251,-13133.2,-2131.11)">
                <circle cx="4528.27" cy="676.018" r="4.889" style="fill:rgb(197,207,238);"/>
                <path d="M4528.27,671.128C4530.97,671.128 4533.16,673.319 4533.16,676.018C4533.16,678.716 4530.97,680.907 4528.27,680.907C4525.57,680.907 4523.38,678.716 4523.38,676.018C4523.38,673.319 4525.57,671.128 4528.27,671.128ZM4528.27,671.431C4530.8,671.431 4532.85,673.486 4532.85,676.018C4532.85,678.549 4530.8,680.604 4528.27,680.604C4525.73,680.604 4523.68,678.549 4523.68,676.018C4523.68,673.486 4525.73,671.431 4528.27,671.431Z" style="fill:rgb(138,147,201);"/>
            </g>
            <g transform="matrix(3.33161,-1.557e-15,2.53131e-14,3.4251,-13133.2,-2064.26)">
                <circle cx="4528.27" cy="676.018" r="4.889" style="fill:rgb(197,207,238);"/>
                <path d="M4528.27,671.128C4530.97,671.128 4533.16,673.319 4533.16,676.018C4533.16,678.716 4530.97,680.907 4528.27,680.907C4525.57,680.907 4523.38,678.716 4523.38,676.018C4523.38,673.319 4525.57,671.128 4528.27,671.128ZM4528.27,671.431C4530.8,671.431 4532.85,673.486 4532.85,676.018C4532.85,678.549 4530.8,680.604 4528.27,680.604C4525.73,680.604 4523.68,678.549 4523.68,676.018C4523.68,673.486 4525.73,671.431 4528.27,671.431Z" style="fill:rgb(138,147,201);"/>
            </g>
            <g transform="matrix(3.33161,-1.557e-15,2.53131e-14,3.4251,-13133.2,-1997.4)">
                <circle cx="4528.27" cy="676.018" r="4.889" style="fill:rgb(197,207,238);"/>
                <path d="M4528.27,671.128C4530.97,671.128 4533.16,673.319 4533.16,676.018C4533.16,678.716 4530.97,680.907 4528.27,680.907C4525.57,680.907 4523.38,678.716 4523.38,676.018C4523.38,673.319 4525.57,671.128 4528.27,671.128ZM4528.27,671.431C4530.8,671.431 4532.85,673.486 4532.85,676.018C4532.85,678.549 4530.8,680.604 4528.27,680.604C4525.73,680.604 4523.68,678.549 4523.68,676.018C4523.68,673.486 4525.73,671.431 4528.27,671.431Z" style="fill:rgb(138,147,201);"/>
            </g>
            <g transform="matrix(3.33161,-1.557e-15,2.53131e-14,3.4251,-13133.2,-2197.97)">
                <circle cx="4528.27" cy="676.018" r="4.889" style="fill:rgb(197,207,238);"/>
                <path d="M4528.27,671.128C4530.97,671.128 4533.16,673.319 4533.16,676.018C4533.16,678.716 4530.97,680.907 4528.27,680.907C4525.57,680.907 4523.38,678.716 4523.38,676.018C4523.38,673.319 4525.57,671.128 4528.27,671.128ZM4528.27,671.431C4530.8,671.431 4532.85,673.486 4532.85,676.018C4532.85,678.549 4530.8,680.604 4528.27,680.604C4525.73,680.604 4523.68,678.549 4523.68,676.018C4523.68,673.486 4525.73,671.431 4528.27,671.431Z" style="fill:rgb(138,147,201);"/>
            </g>
            <g transform="matrix(6.65031,-3.10796e-15,5.05281e-14,6.83693,-27898,-4404.14)">
                <circle cx="4528.27" cy="676.018" r="4.889" style="fill:rgb(231,173,173);"/>
                <path d="M4528.27,671.128C4530.97,671.128 4533.16,673.319 4533.16,676.018C4533.16,678.716 4530.97,680.907 4528.27,680.907C4525.57,680.907 4523.38,678.716 4523.38,676.018C4523.38,673.319 4525.57,671.128 4528.27,671.128ZM4528.27,671.28C4530.88,671.28 4533,673.403 4533,676.018C4533,678.632 4530.88,680.755 4528.27,680.755C4525.65,680.755 4523.53,678.632 4523.53,676.018C4523.53,673.403 4525.65,671.28 4528.27,671.28Z" style="fill:rgb(201,138,138);"/>
            </g>
            <g transform="matrix(-0.502112,0.868754,-0.175517,-0.030079,2064.15,100.78)">
                <g transform="matrix(-0.180961,-5.22659,1.08557,-3.10557,-59.2769,1930.49)">
                    <path d="M276.387,117.298L285.387,121.798L276.387,126.298L276.387,117.298Z" style="fill:rgb(46,112,183);"/>
                    <path d="M215.821,121.798L278.187,121.798" style="fill:none;stroke:rgb(46,112,183);stroke-width:3px;"/>
                </g>
            </g>
            <g transform="matrix(-0.502112,0.868754,-0.175517,-0.030079,2064.15,167.635)">
                <g transform="matrix(-0.180961,-5.22659,1.08557,-3.10557,-129.296,2130.8)">
                    <path d="M276.387,181.798L285.387,186.298L276.387,190.798L276.387,181.798Z" style="fill:rgb(46,112,183);"/>
                    <path d="M215.821,186.298L278.187,186.298" style="fill:none;stroke:rgb(46,112,183);stroke-width:3px;"/>
                </g>
            </g>
            <g transform="matrix(-0.502112,0.868754,-0.175517,-0.030079,2063.01,234.49)">
                <g transform="matrix(-0.180961,-5.22659,1.08557,-3.10557,-199.52,2325.21)">
                    <path d="M275.259,246.298L284.259,250.798L275.259,255.298L275.259,246.298Z" style="fill:rgb(46,112,183);"/>
                    <path d="M214.692,250.798L277.059,250.798" style="fill:none;stroke:rgb(46,112,183);stroke-width:3px;"/>
                </g>
            </g>
            <g transform="matrix(-0.502112,0.868754,-0.175517,-0.030079,2345.41,201.063)">
                <g transform="matrix(-0.180961,-5.22659,1.08557,-3.10557,-113.824,3688.99)">
                    <path d="M555.352,214.048L564.352,218.548L555.352,223.048L555.352,214.048Z" style="fill:rgb(46,112,183);"/>
                    <path d="M494.786,218.548L557.152,218.548" style="fill:none;stroke:rgb(46,112,183);stroke-width:3px;"/>
                </g>
            </g>
            <g transform="matrix(6.65031,-3.10796e-15,5.05281e-14,6.83693,-27752.8,-4404.14)">
                <circle cx="4528.27" cy="676.018" r="4.889" style="fill:rgb(231,173,173);"/>
                <path d="M4528.27,671.128C4530.97,671.128 4533.16,673.319 4533.16,676.018C4533.16,678.716 4530.97,680.907 4528.27,680.907C4525.57,680.907 4523.38,678.716 4523.38,676.018C4523.38,673.319 4525.57,671.128 4528.27,671.128ZM4528.27,671.28C4530.88,671.28 4533,673.403 4533,676.018C4533,678.632 4530.88,680.755 4528.27,680.755C4525.65,680.755 4523.53,678.632 4523.53,676.018C4523.53,673.403 4525.65,671.28 4528.27,671.28Z" style="fill:rgb(201,138,138);"/>
            </g>
            <g transform="matrix(-0.502112,0.868754,-0.175517,-0.030079,2490.66,201.063)">
                <g transform="matrix(-0.180961,-5.22659,1.08557,-3.10557,-87.754,4441.97)">
                    <path d="M699.419,214.048L708.419,218.548L699.419,223.048L699.419,214.048Z" style="fill:rgb(46,112,183);"/>
                    <path d="M638.852,218.548L701.219,218.548" style="fill:none;stroke:rgb(46,112,183);stroke-width:3px;"/>
                </g>
            </g>
            <g transform="matrix(-0.502112,0.868754,-0.175517,-0.030079,2063.05,301.345)">
                <g transform="matrix(-0.180961,-5.22659,1.08557,-3.10557,-269.534,2525.7)">
                    <path d="M275.292,310.798L284.292,315.298L275.292,319.798L275.292,310.798Z" style="fill:rgb(46,112,183);"/>
                    <path d="M214.726,315.298L277.092,315.298" style="fill:none;stroke:rgb(46,112,183);stroke-width:3px;"/>
                </g>
            </g>
            <g transform="matrix(-0.502112,0.868754,-0.175517,-0.030079,2215.38,100.78)">
                <g transform="matrix(-0.180961,-5.22659,1.08557,-3.10557,-32.1328,2714.48)">
                    <path d="M429.726,182.795L432.643,192.425L423.189,188.98L429.726,182.795Z" style="fill:rgb(46,112,183);"/>
                    <path d="M365.821,121.798C365.821,121.798 412.228,170.848 427.694,187.195" style="fill:none;stroke:rgb(46,112,183);stroke-width:3px;"/>
                </g>
            </g>
            <g transform="matrix(-0.502112,0.868754,-0.175517,-0.030079,2215.38,167.635)">
                <g transform="matrix(-0.180961,-5.22659,1.08557,-3.10557,-102.152,2914.79)">
                    <path d="M418.288,199.977L425.286,207.208L415.303,208.468L418.288,199.977Z" style="fill:rgb(46,112,183);"/>
                    <path d="M365.821,186.298C365.821,186.298 402.891,199.333 418.494,204.82" style="fill:none;stroke:rgb(46,112,183);stroke-width:3px;"/>
                </g>
            </g>
            <g transform="matrix(-0.502112,0.868754,-0.175517,-0.030079,2214.24,234.49)">
                <g transform="matrix(-0.180961,-5.22659,1.08557,-3.10557,-172.376,3109.2)">
                    <path d="M415.308,228.453L425.286,229.751L418.261,236.955L415.308,228.453Z" style="fill:rgb(46,112,183);"/>
                    <path d="M364.692,250.798C364.692,250.798 402.657,237.611 418.485,232.113" style="fill:none;stroke:rgb(46,112,183);stroke-width:3px;"/>
                </g>
            </g>
            <g transform="matrix(-0.502112,0.868754,-0.175517,-0.030079,2214.28,301.345)">
                <g transform="matrix(-0.180961,-5.22659,1.08557,-3.10557,-242.389,3309.68)">
                    <path d="M423.165,247.878L432.643,244.498L429.66,254.108L423.165,247.878Z" style="fill:rgb(46,112,183);"/>
                    <path d="M364.726,315.298C364.726,315.298 411.984,266.034 427.659,249.694" style="fill:none;stroke:rgb(46,112,183);stroke-width:3px;"/>
                </g>
            </g>
            <g transform="matrix(1.00822,0,0,1.67726,-9017.04,-3766.5)">
                <rect x="10972" y="2301.91" width="73" height="27.5" style="fill:rgb(255,241,169);"/>
                <path d="M11045,2301.91L10972,2301.91L10972,2329.41L11045,2329.41L11045,2301.91ZM11044,2302.52L11044,2328.79C11044,2328.79 10973,2328.79 10973,2328.79C10973,2328.79 10973,2302.52 10973,2302.52L11044,2302.52Z" style="fill:rgb(209,195,106);"/>
            </g>
            <g transform="matrix(1.00822,0,0,1.67726,-9017.04,-3699.64)">
                <rect x="10972" y="2301.91" width="73" height="27.5" style="fill:rgb(255,241,169);"/>
                <path d="M11045,2301.91L10972,2301.91L10972,2329.41L11045,2329.41L11045,2301.91ZM11044,2302.52L11044,2328.79C11044,2328.79 10973,2328.79 10973,2328.79C10973,2328.79 10973,2302.52 10973,2302.52L11044,2302.52Z" style="fill:rgb(209,195,106);"/>
            </g>
            <g transform="matrix(1.00822,0,0,1.67726,-9017.04,-3632.79)">
                <rect x="10972" y="2301.91" width="73" height="27.5" style="fill:rgb(255,241,169);"/>
                <path d="M11045,2301.91L10972,2301.91L10972,2329.41L11045,2329.41L11045,2301.91ZM11044,2302.52L11044,2328.79C11044,2328.79 10973,2328.79 10973,2328.79C10973,2328.79 10973,2302.52 10973,2302.52L11044,2302.52Z" style="fill:rgb(209,195,106);"/>
            </g>
            <g transform="matrix(1.00822,0,0,1.67726,-9017.04,-3565.93)">
                <rect x="10972" y="2301.91" width="73" height="27.5" style="fill:rgb(255,241,169);"/>
                <path d="M11045,2301.91L10972,2301.91L10972,2329.41L11045,2329.41L11045,2301.91ZM11044,2302.52L11044,2328.79C11044,2328.79 10973,2328.79 10973,2328.79C10973,2328.79 10973,2302.52 10973,2302.52L11044,2302.52Z" style="fill:rgb(209,195,106);"/>
            </g>
            <g transform="matrix(0.841347,0,0,1.00149,-7239.63,-1882.8)">
                <path d="M10907,2042L10897.8,2042C10893.3,2042 10889.1,2043.53 10885.9,2046.24C10882.8,2048.96 10881,2052.65 10881,2056.49C10881,2073.82 10881,2102.51 10881,2118.71C10881,2121.91 10879.5,2124.99 10876.9,2127.26C10874.3,2129.53 10870.7,2130.8 10867,2130.8C10867,2130.8 10867,2130.8 10867,2130.8L10867,2130.8C10870.7,2130.8 10874.3,2132.07 10876.9,2134.34C10879.5,2136.61 10881,2139.68 10881,2142.89C10881,2159.08 10881,2187.78 10881,2205.11C10881,2208.95 10882.8,2212.64 10885.9,2215.35C10889.1,2218.07 10893.3,2219.6 10897.8,2219.6L10907,2219.6" style="fill:none;stroke:rgb(104,114,125);stroke-width:2.22px;"/>
            </g>
        </g>
    </g>
</svg>
