<svg id="Слой_1" data-name="Слой 1" xmlns="http://www.w3.org/2000/svg" viewBox="0 0 562 425">
  <defs>
    <style>
      .cls-1, .cls-5 {
        fill: #fff;
      }

      .cls-1, .cls-2, .cls-3, .cls-5 {
        stroke: #000;
        stroke-miterlimit: 10;
      }

      .cls-1, .cls-2, .cls-3 {
        stroke-width: 4px;
      }

      .cls-2, .cls-3 {
        fill: none;
      }

      .cls-2 {
        stroke-linecap: square;
      }

      .cls-4 {
        fill: #29abe2;
      }

      .cls-5 {
        stroke-width: 2px;
      }
    </style>
  </defs>
  <title>five</title>
  <rect class="cls-1" x="114" y="26" width="55" height="106"/>
  <rect class="cls-1" x="383.25" y="163" width="55" height="106"/>
  <rect class="cls-1" x="114" y="163" width="55" height="106"/>
  <rect class="cls-1" x="114" y="300" width="55" height="106"/>
  <rect class="cls-1" x="247.92" y="94.5" width="55" height="106"/>
  <line class="cls-2" x1="169" y1="79" x2="198.33" y2="79"/>
  <line class="cls-2" x1="169" y1="216" x2="198.33" y2="216"/>
  <line class="cls-2" x1="198.33" y1="79" x2="198.33" y2="121.67"/>
  <line class="cls-2" x1="198.33" y1="216" x2="198.33" y2="173.33"/>
  <line class="cls-2" x1="198.33" y1="121.67" x2="245.92" y2="121.67"/>
  <line class="cls-2" x1="198.33" y1="173.33" x2="245.92" y2="173.33"/>
  <line class="cls-2" x1="169" y1="216" x2="198.33" y2="216"/>
  <line class="cls-2" x1="438.25" y1="216" x2="504.33" y2="216"/>
  <line class="cls-2" x1="304.92" y1="147.5" x2="334.25" y2="147.5"/>
  <line class="cls-2" x1="334.25" y1="147.5" x2="334.25" y2="190.17"/>
  <line class="cls-2" x1="334.25" y1="284.5" x2="334.25" y2="241.83"/>
  <line class="cls-2" x1="334.25" y1="190.17" x2="381.83" y2="190.17"/>
  <line class="cls-2" x1="334.25" y1="241.83" x2="381.83" y2="241.83"/>
  <line class="cls-2" x1="304.92" y1="284.5" x2="334.25" y2="284.5"/>
  <line class="cls-2" x1="169" y1="353" x2="198.33" y2="353"/>
  <line class="cls-2" x1="198.33" y1="216" x2="198.33" y2="258.67"/>
  <line class="cls-2" x1="198.33" y1="353" x2="198.33" y2="310.33"/>
  <line class="cls-2" x1="198.33" y1="258.67" x2="245.92" y2="258.67"/>
  <line class="cls-2" x1="198.33" y1="310.33" x2="245.92" y2="310.33"/>
  <line class="cls-3" x1="40" y1="53.17" x2="114" y2="53.17"/>
  <line class="cls-3" x1="40" y1="104.83" x2="114" y2="104.83"/>
  <line class="cls-3" x1="40" y1="190.17" x2="114" y2="190.17"/>
  <line class="cls-3" x1="40" y1="241.83" x2="114" y2="241.83"/>
  <path d="M121.1,47.8a5.57,5.57,0,0,1,1-3.26,10.67,10.67,0,0,1,3.53-2.86,16.9,16.9,0,0,1-1.64-2,6.93,6.93,0,0,1-.69-1.44,4.81,4.81,0,0,1-.25-1.56,4.13,4.13,0,0,1,1.39-3.31,5.76,5.76,0,0,1,3.87-1.19,5.21,5.21,0,0,1,3.61,1.18,4.2,4.2,0,0,1,1.32,3.29,4.55,4.55,0,0,1-1,2.8,10.91,10.91,0,0,1-3.19,2.6l5.76,5.54a6.82,6.82,0,0,0,1.27-2.06,17.67,17.67,0,0,0,.8-2.58h2.38a13.52,13.52,0,0,1-2.9,6.15l4.23,4.12h-3.24l-2.62-2.52a10.05,10.05,0,0,1-7.25,2.8,6.84,6.84,0,0,1-4.72-1.5A5.28,5.28,0,0,1,121.1,47.8Zm6.46,3.54a7.81,7.81,0,0,0,5.66-2.18l-6.19-6a13.64,13.64,0,0,0-2.22,1.59,4.19,4.19,0,0,0-1,1.35,4.11,4.11,0,0,0-.31,1.64,3.33,3.33,0,0,0,1.1,2.63A4.26,4.26,0,0,0,127.56,51.34Zm-2.19-14.75a3.68,3.68,0,0,0,.51,1.86,11.31,11.31,0,0,0,1.74,2.13,9.2,9.2,0,0,0,2.54-2,3.23,3.23,0,0,0,.72-2.07,2.33,2.33,0,0,0-.73-1.78,2.72,2.72,0,0,0-1.95-.69,3,3,0,0,0-2,.68A2.29,2.29,0,0,0,125.36,36.58Z"/>
  <path d="M262.71,121.67h-2.29V106.91q0-1.84.11-3.48-0.3.3-.67,0.62t-3.37,2.76l-1.25-1.61,5.48-4.23h2v20.7Z"/>
  <line class="cls-3" x1="40" y1="327.83" x2="114" y2="327.83"/>
  <line class="cls-3" x1="40" y1="379.5" x2="114" y2="379.5"/>
  <path d="M129.63,190.17h-2.29V175.41q0-1.84.11-3.48c-0.2.2-.42,0.41-0.67,0.62s-1.37,1.14-3.37,2.76l-1.25-1.61,5.48-4.23h2v20.7Z"/>
  <path d="M121.1,322.8a5.57,5.57,0,0,1,1-3.26,10.67,10.67,0,0,1,3.53-2.86,16.9,16.9,0,0,1-1.64-2,6.93,6.93,0,0,1-.69-1.44,4.81,4.81,0,0,1-.25-1.56,4.13,4.13,0,0,1,1.39-3.31,5.76,5.76,0,0,1,3.87-1.19,5.21,5.21,0,0,1,3.61,1.18,4.2,4.2,0,0,1,1.32,3.29,4.55,4.55,0,0,1-1,2.8,10.91,10.91,0,0,1-3.19,2.6l5.76,5.54a6.82,6.82,0,0,0,1.27-2.06,17.67,17.67,0,0,0,.8-2.58h2.38a13.52,13.52,0,0,1-2.9,6.15l4.23,4.12h-3.24l-2.62-2.52a10.05,10.05,0,0,1-7.25,2.8,6.84,6.84,0,0,1-4.72-1.5A5.28,5.28,0,0,1,121.1,322.8Zm6.46,3.54a7.81,7.81,0,0,0,5.66-2.18l-6.19-6a13.64,13.64,0,0,0-2.22,1.59,4.19,4.19,0,0,0-1,1.35,4.11,4.11,0,0,0-.31,1.64,3.33,3.33,0,0,0,1.1,2.63A4.26,4.26,0,0,0,127.56,326.34Zm-2.19-14.75a3.68,3.68,0,0,0,.51,1.86,11.31,11.31,0,0,0,1.74,2.13,9.2,9.2,0,0,0,2.54-2,3.23,3.23,0,0,0,.72-2.07,2.33,2.33,0,0,0-.73-1.78,2.72,2.72,0,0,0-1.95-.69,3,3,0,0,0-2,.68A2.29,2.29,0,0,0,125.36,311.58Z"/>
  <rect class="cls-4" x="202.29" y="40" width="30.67" height="38.33" rx="6.67" ry="6.67"/>
  <rect class="cls-4" x="339.5" y="104.83" width="30.67" height="38.33" rx="6.67" ry="6.67"/>
  <rect class="cls-4" x="510.5" y="196.83" width="30.67" height="38.33" rx="6.67" ry="6.67"/>
  <rect class="cls-4" x="339.5" y="289.5" width="30.67" height="38.33" rx="6.67" ry="6.67"/>
  <rect class="cls-4" x="207.29" y="196.83" width="30.67" height="38.33" rx="6.67" ry="6.67"/>
  <rect class="cls-4" x="202.29" y="353.67" width="30.67" height="38.33" rx="6.67" ry="6.67"/>
  <circle class="cls-5" cx="438.25" cy="216" r="8.5"/>
  <circle class="cls-5" cx="302.92" cy="147.5" r="8.5"/>
  <circle class="cls-5" cx="169" cy="353.67" r="8.5"/>
  <rect class="cls-1" x="247.92" y="231.5" width="55" height="106"/>
  <path d="M262.71,258.67h-2.29V243.91q0-1.84.11-3.48-0.3.3-.67,0.62t-3.37,2.76l-1.25-1.61,5.48-4.23h2v20.7Z"/>
  <path d="M389.68,184.8a5.57,5.57,0,0,1,1-3.26,10.67,10.67,0,0,1,3.53-2.86,17,17,0,0,1-1.64-2,7,7,0,0,1-.69-1.44,4.81,4.81,0,0,1-.26-1.56,4.13,4.13,0,0,1,1.39-3.31,5.75,5.75,0,0,1,3.87-1.19,5.21,5.21,0,0,1,3.61,1.18,4.2,4.2,0,0,1,1.32,3.29,4.55,4.55,0,0,1-1,2.8,10.94,10.94,0,0,1-3.19,2.6l5.76,5.54a6.82,6.82,0,0,0,1.27-2.06,17.67,17.67,0,0,0,.8-2.58h2.38A13.53,13.53,0,0,1,405,186l4.23,4.12H406l-2.62-2.52a10.05,10.05,0,0,1-7.25,2.8,6.85,6.85,0,0,1-4.72-1.5A5.28,5.28,0,0,1,389.68,184.8Zm6.46,3.54a7.81,7.81,0,0,0,5.66-2.18l-6.19-6a13.66,13.66,0,0,0-2.22,1.59,4.2,4.2,0,0,0-1,1.35,4.11,4.11,0,0,0-.31,1.64,3.33,3.33,0,0,0,1.1,2.63A4.25,4.25,0,0,0,396.14,188.34Zm-2.2-14.75a3.68,3.68,0,0,0,.51,1.86,11.28,11.28,0,0,0,1.74,2.13,9.21,9.21,0,0,0,2.54-2,3.23,3.23,0,0,0,.72-2.07,2.33,2.33,0,0,0-.73-1.78,2.72,2.72,0,0,0-1.95-.69,3,3,0,0,0-2,.68A2.29,2.29,0,0,0,393.95,173.58Z"/>
</svg>
