<svg id="Слой_1" data-name="Слой 1" xmlns="http://www.w3.org/2000/svg" viewBox="0 0 446 341">
  <defs>
    <style>
      .cls-1, .cls-5 {
        fill: #fff;
      }

      .cls-1, .cls-2, .cls-3, .cls-5 {
        stroke: #000;
        stroke-miterlimit: 10;
      }

      .cls-1, .cls-2, .cls-3 {
        stroke-width: 4px;
      }

      .cls-2, .cls-3 {
        fill: none;
      }

      .cls-2 {
        stroke-linecap: square;
      }

      .cls-4 {
        fill: #29abe2;
      }

      .cls-5 {
        stroke-width: 2px;
      }
    </style>
  </defs>
  <title>chetyre</title>
  <rect class="cls-1" x="146" y="49" width="55" height="106"/>
  <rect class="cls-1" x="146" y="186" width="55" height="106"/>
  <rect class="cls-1" x="258.33" y="117.5" width="55" height="106"/>
  <line class="cls-2" x1="201" y1="102" x2="230.33" y2="102"/>
  <line class="cls-2" x1="201" y1="239" x2="230.33" y2="239"/>
  <line class="cls-2" x1="230.33" y1="102" x2="230.33" y2="144.67"/>
  <line class="cls-2" x1="230.33" y1="239" x2="230.33" y2="196.33"/>
  <line class="cls-2" x1="230.33" y1="144.67" x2="257" y2="144.67"/>
  <line class="cls-2" x1="230.33" y1="196.33" x2="257" y2="196.33"/>
  <line class="cls-3" x1="72" y1="76.17" x2="146" y2="76.17"/>
  <line class="cls-3" x1="72" y1="127.83" x2="146" y2="127.83"/>
  <line class="cls-3" x1="72" y1="213.17" x2="146" y2="213.17"/>
  <line class="cls-3" x1="313.33" y1="170.5" x2="369" y2="170.5"/>
  <line class="cls-3" x1="72" y1="264.83" x2="146" y2="264.83"/>
  <path d="M153.1,70.8a5.57,5.57,0,0,1,1-3.26,10.67,10.67,0,0,1,3.53-2.86,17,17,0,0,1-1.64-2,7,7,0,0,1-.69-1.44,4.81,4.81,0,0,1-.25-1.56,4.13,4.13,0,0,1,1.39-3.31,5.76,5.76,0,0,1,3.87-1.19,5.21,5.21,0,0,1,3.61,1.18,4.2,4.2,0,0,1,1.32,3.29,4.55,4.55,0,0,1-1,2.8,10.91,10.91,0,0,1-3.19,2.6l5.76,5.54a6.83,6.83,0,0,0,1.27-2.06,17.65,17.65,0,0,0,.8-2.58h2.38a13.53,13.53,0,0,1-2.9,6.15l4.23,4.12h-3.24l-2.62-2.52a10.05,10.05,0,0,1-7.25,2.8,6.84,6.84,0,0,1-4.72-1.5A5.28,5.28,0,0,1,153.1,70.8Zm6.46,3.54a7.81,7.81,0,0,0,5.66-2.18l-6.19-6a13.65,13.65,0,0,0-2.22,1.59,4.19,4.19,0,0,0-1,1.35,4.1,4.1,0,0,0-.31,1.64,3.33,3.33,0,0,0,1.1,2.63A4.26,4.26,0,0,0,159.56,74.34Zm-2.19-14.75a3.67,3.67,0,0,0,.51,1.86,11.31,11.31,0,0,0,1.74,2.13,9.2,9.2,0,0,0,2.54-2,3.23,3.23,0,0,0,.72-2.07,2.33,2.33,0,0,0-.73-1.78,2.73,2.73,0,0,0-1.95-.69,3,3,0,0,0-2,.68A2.29,2.29,0,0,0,157.36,59.58Z"/>
  <path d="M275.63,144.67h-2.29V129.91q0-1.84.11-3.48c-0.2.2-.42,0.41-0.67,0.62s-1.37,1.14-3.37,2.76l-1.25-1.61,5.48-4.23h2v20.7Z"/>
  <path d="M153.1,207.8a5.57,5.57,0,0,1,1-3.26,10.67,10.67,0,0,1,3.53-2.86,16.9,16.9,0,0,1-1.64-2,6.93,6.93,0,0,1-.69-1.44,4.81,4.81,0,0,1-.25-1.56,4.13,4.13,0,0,1,1.39-3.31,5.76,5.76,0,0,1,3.87-1.19,5.21,5.21,0,0,1,3.61,1.18,4.2,4.2,0,0,1,1.32,3.29,4.55,4.55,0,0,1-1,2.8,10.91,10.91,0,0,1-3.19,2.6l5.76,5.54a6.82,6.82,0,0,0,1.27-2.06,17.67,17.67,0,0,0,.8-2.58h2.38a13.52,13.52,0,0,1-2.9,6.15l4.23,4.12h-3.24l-2.62-2.52a10.05,10.05,0,0,1-7.25,2.8,6.84,6.84,0,0,1-4.72-1.5A5.28,5.28,0,0,1,153.1,207.8Zm6.46,3.54a7.81,7.81,0,0,0,5.66-2.18l-6.19-6a13.64,13.64,0,0,0-2.22,1.59,4.19,4.19,0,0,0-1,1.35,4.11,4.11,0,0,0-.31,1.64,3.33,3.33,0,0,0,1.1,2.63A4.26,4.26,0,0,0,159.56,211.34Zm-2.19-14.75a3.68,3.68,0,0,0,.51,1.86,11.31,11.31,0,0,0,1.74,2.13,9.2,9.2,0,0,0,2.54-2,3.23,3.23,0,0,0,.72-2.07,2.33,2.33,0,0,0-.73-1.78,2.72,2.72,0,0,0-1.95-.69,3,3,0,0,0-2,.68A2.29,2.29,0,0,0,157.36,196.58Z"/>
  <rect class="cls-4" x="230.33" y="58" width="30.67" height="38.33" rx="6.67" ry="6.67"/>
  <rect class="cls-4" x="230.33" y="243.67" width="30.67" height="38.33" rx="6.67" ry="6.67"/>
  <rect class="cls-4" x="374" y="151.33" width="30.67" height="38.33" rx="6.67" ry="6.67"/>
  <circle class="cls-5" cx="201" cy="102" r="8.5"/>
  <circle class="cls-5" cx="313.33" cy="170.5" r="8.5"/>
  <circle class="cls-5" cx="201" cy="239" r="8.5"/>
</svg>
