<?xml version="1.0" encoding="UTF-8" standalone="no"?>
<!DOCTYPE svg PUBLIC "-//W3C//DTD SVG 1.1//EN" "http://www.w3.org/Graphics/SVG/1.1/DTD/svg11.dtd">
<svg width="100%" height="100%" viewBox="0 0 161 151" version="1.1" xmlns="http://www.w3.org/2000/svg" xmlns:xlink="http://www.w3.org/1999/xlink" xml:space="preserve" xmlns:serif="http://www.serif.com/" style="fill-rule:evenodd;clip-rule:evenodd;stroke-linejoin:round;stroke-miterlimit:2;">
    <g transform="matrix(1,0,0,1,-4898,-404)">
        <g id="_007_a04" serif:id="007_a04" transform="matrix(1.23077,0,0,1,1762.86,-50.2083)">
            <rect x="2547.91" y="454.279" width="130" height="150" style="fill:none;"/>
            <g transform="matrix(-0.409453,0.995236,-0.702018,-0.566145,4152.14,-2052.34)">
                <path d="M2884.58,508.835L2850.23,527.47C2850.05,527.566 2849.99,527.814 2850.1,528.025C2850.21,528.235 2850.45,528.327 2850.63,528.231L2885.51,510.607C2885.94,510.383 2886.08,509.805 2885.82,509.316C2885.56,508.827 2885.01,508.611 2884.58,508.835Z" style="fill:rgb(164,164,164);"/>
            </g>
            <g transform="matrix(-0.405296,0.866702,-0.704195,-0.498826,4141.25,-1715.82)">
                <path d="M2885.99,510.058L2905.53,453.857C2905.61,453.634 2905.49,453.387 2905.27,453.307C2905.04,453.227 2904.8,453.344 2904.72,453.567L2884.11,509.384C2883.92,509.903 2884.19,510.476 2884.71,510.662C2885.23,510.849 2885.8,510.578 2885.99,510.058Z" style="fill:rgb(164,164,164);"/>
            </g>
            <g transform="matrix(-0.405296,0.866702,-0.704195,-0.498826,4903.87,-3083)">
                <circle cx="4528.27" cy="676.018" r="4.889" style="fill:rgb(255,241,169);"/>
                <path d="M4528.27,671.128C4530.97,671.128 4533.16,673.319 4533.16,676.018C4533.16,678.716 4530.97,680.907 4528.27,680.907C4525.57,680.907 4523.38,678.716 4523.38,676.018C4523.38,673.319 4525.57,671.128 4528.27,671.128ZM4528.27,672.128C4530.41,672.128 4532.16,673.871 4532.16,676.018C4532.16,678.164 4530.41,679.907 4528.27,679.907C4526.12,679.907 4524.38,678.164 4524.38,676.018C4524.38,673.871 4526.12,672.128 4528.27,672.128Z" style="fill:rgb(209,195,106);"/>
            </g>
            <g transform="matrix(-0.405296,0.866702,-0.704195,-0.498826,4893.02,-3079.4)">
                <circle cx="4528.27" cy="676.018" r="4.889" style="fill:rgb(255,241,169);"/>
                <path d="M4528.27,671.128C4530.97,671.128 4533.16,673.319 4533.16,676.018C4533.16,678.716 4530.97,680.907 4528.27,680.907C4525.57,680.907 4523.38,678.716 4523.38,676.018C4523.38,673.319 4525.57,671.128 4528.27,671.128ZM4528.27,672.128C4530.41,672.128 4532.16,673.871 4532.16,676.018C4532.16,678.164 4530.41,679.907 4528.27,679.907C4526.12,679.907 4524.38,678.164 4524.38,676.018C4524.38,673.871 4526.12,672.128 4528.27,672.128Z" style="fill:rgb(209,195,106);"/>
            </g>
            <g transform="matrix(-0.405296,0.866702,-0.704195,-0.498826,4903.35,-3072.09)">
                <circle cx="4528.27" cy="676.018" r="4.889" style="fill:rgb(255,241,169);"/>
                <path d="M4528.27,671.128C4530.97,671.128 4533.16,673.319 4533.16,676.018C4533.16,678.716 4530.97,680.907 4528.27,680.907C4525.57,680.907 4523.38,678.716 4523.38,676.018C4523.38,673.319 4525.57,671.128 4528.27,671.128ZM4528.27,672.128C4530.41,672.128 4532.16,673.871 4532.16,676.018C4532.16,678.164 4530.41,679.907 4528.27,679.907C4526.12,679.907 4524.38,678.164 4524.38,676.018C4524.38,673.871 4526.12,672.128 4528.27,672.128Z" style="fill:rgb(209,195,106);"/>
            </g>
            <g transform="matrix(-0.405296,0.866702,-0.704195,-0.498826,4914.72,-3086.6)">
                <circle cx="4528.27" cy="676.018" r="4.889" style="fill:rgb(255,241,169);"/>
                <path d="M4528.27,671.128C4530.97,671.128 4533.16,673.319 4533.16,676.018C4533.16,678.716 4530.97,680.907 4528.27,680.907C4525.57,680.907 4523.38,678.716 4523.38,676.018C4523.38,673.319 4525.57,671.128 4528.27,671.128ZM4528.27,672.128C4530.41,672.128 4532.16,673.871 4532.16,676.018C4532.16,678.164 4530.41,679.907 4528.27,679.907C4526.12,679.907 4524.38,678.164 4524.38,676.018C4524.38,673.871 4526.12,672.128 4528.27,672.128Z" style="fill:rgb(209,195,106);"/>
            </g>
            <g transform="matrix(-0.405296,0.866702,-0.704195,-0.498826,4906.37,-3098.15)">
                <circle cx="4528.27" cy="676.018" r="4.889" style="fill:rgb(255,241,169);"/>
                <path d="M4528.27,671.128C4530.97,671.128 4533.16,673.319 4533.16,676.018C4533.16,678.716 4530.97,680.907 4528.27,680.907C4525.57,680.907 4523.38,678.716 4523.38,676.018C4523.38,673.319 4525.57,671.128 4528.27,671.128ZM4528.27,672.128C4530.41,672.128 4532.16,673.871 4532.16,676.018C4532.16,678.164 4530.41,679.907 4528.27,679.907C4526.12,679.907 4524.38,678.164 4524.38,676.018C4524.38,673.871 4526.12,672.128 4528.27,672.128Z" style="fill:rgb(209,195,106);"/>
            </g>
            <g transform="matrix(-0.405296,0.866702,-0.704195,-0.498826,4902.72,-3056.1)">
                <circle cx="4528.27" cy="676.018" r="4.889" style="fill:rgb(255,241,169);"/>
                <path d="M4528.27,671.128C4530.97,671.128 4533.16,673.319 4533.16,676.018C4533.16,678.716 4530.97,680.907 4528.27,680.907C4525.57,680.907 4523.38,678.716 4523.38,676.018C4523.38,673.319 4525.57,671.128 4528.27,671.128ZM4528.27,672.128C4530.41,672.128 4532.16,673.871 4532.16,676.018C4532.16,678.164 4530.41,679.907 4528.27,679.907C4526.12,679.907 4524.38,678.164 4524.38,676.018C4524.38,673.871 4526.12,672.128 4528.27,672.128Z" style="fill:rgb(209,195,106);"/>
            </g>
            <g transform="matrix(-0.405296,0.866702,-0.704195,-0.498826,4888.15,-3046.23)">
                <circle cx="4528.27" cy="676.018" r="4.889" style="fill:rgb(255,241,169);"/>
                <path d="M4528.27,671.128C4530.97,671.128 4533.16,673.319 4533.16,676.018C4533.16,678.716 4530.97,680.907 4528.27,680.907C4525.57,680.907 4523.38,678.716 4523.38,676.018C4523.38,673.319 4525.57,671.128 4528.27,671.128ZM4528.27,672.128C4530.41,672.128 4532.16,673.871 4532.16,676.018C4532.16,678.164 4530.41,679.907 4528.27,679.907C4526.12,679.907 4524.38,678.164 4524.38,676.018C4524.38,673.871 4526.12,672.128 4528.27,672.128Z" style="fill:rgb(209,195,106);"/>
            </g>
            <g transform="matrix(-0.405296,0.866702,-0.704195,-0.498826,4894.82,-3063.66)">
                <circle cx="4528.27" cy="676.018" r="4.889" style="fill:rgb(255,241,169);"/>
                <path d="M4528.27,671.128C4530.97,671.128 4533.16,673.319 4533.16,676.018C4533.16,678.716 4530.97,680.907 4528.27,680.907C4525.57,680.907 4523.38,678.716 4523.38,676.018C4523.38,673.319 4525.57,671.128 4528.27,671.128ZM4528.27,672.128C4530.41,672.128 4532.16,673.871 4532.16,676.018C4532.16,678.164 4530.41,679.907 4528.27,679.907C4526.12,679.907 4524.38,678.164 4524.38,676.018C4524.38,673.871 4526.12,672.128 4528.27,672.128Z" style="fill:rgb(209,195,106);"/>
            </g>
            <g transform="matrix(-0.405296,0.866702,-0.704195,-0.498826,4913.68,-3064.77)">
                <circle cx="4528.27" cy="676.018" r="4.889" style="fill:rgb(255,241,169);"/>
                <path d="M4528.27,671.128C4530.97,671.128 4533.16,673.319 4533.16,676.018C4533.16,678.716 4530.97,680.907 4528.27,680.907C4525.57,680.907 4523.38,678.716 4523.38,676.018C4523.38,673.319 4525.57,671.128 4528.27,671.128ZM4528.27,672.128C4530.41,672.128 4532.16,673.871 4532.16,676.018C4532.16,678.164 4530.41,679.907 4528.27,679.907C4526.12,679.907 4524.38,678.164 4524.38,676.018C4524.38,673.871 4526.12,672.128 4528.27,672.128Z" style="fill:rgb(209,195,106);"/>
            </g>
            <g transform="matrix(-0.405296,0.866702,-0.704195,-0.498826,4943.77,-3089.25)">
                <circle cx="4528.27" cy="676.018" r="4.889" style="fill:rgb(209,235,206);"/>
                <path d="M4528.27,671.128C4530.97,671.128 4533.16,673.319 4533.16,676.018C4533.16,678.716 4530.97,680.907 4528.27,680.907C4525.57,680.907 4523.38,678.716 4523.38,676.018C4523.38,673.319 4525.57,671.128 4528.27,671.128ZM4528.27,672.128C4530.41,672.128 4532.16,673.871 4532.16,676.018C4532.16,678.164 4530.41,679.907 4528.27,679.907C4526.12,679.907 4524.38,678.164 4524.38,676.018C4524.38,673.871 4526.12,672.128 4528.27,672.128Z" style="fill:rgb(171,195,161);"/>
            </g>
            <g transform="matrix(-0.405296,0.866702,-0.704195,-0.498826,4956.83,-3080)">
                <circle cx="4528.27" cy="676.018" r="4.889" style="fill:rgb(209,235,206);"/>
                <path d="M4528.27,671.128C4530.97,671.128 4533.16,673.319 4533.16,676.018C4533.16,678.716 4530.97,680.907 4528.27,680.907C4525.57,680.907 4523.38,678.716 4523.38,676.018C4523.38,673.319 4525.57,671.128 4528.27,671.128ZM4528.27,672.128C4530.41,672.128 4532.16,673.871 4532.16,676.018C4532.16,678.164 4530.41,679.907 4528.27,679.907C4526.12,679.907 4524.38,678.164 4524.38,676.018C4524.38,673.871 4526.12,672.128 4528.27,672.128Z" style="fill:rgb(171,195,161);"/>
            </g>
            <g transform="matrix(-0.405296,0.866702,-0.704195,-0.498826,4960.34,-3060.6)">
                <circle cx="4528.27" cy="676.018" r="4.889" style="fill:rgb(209,235,206);"/>
                <path d="M4528.27,671.128C4530.97,671.128 4533.16,673.319 4533.16,676.018C4533.16,678.716 4530.97,680.907 4528.27,680.907C4525.57,680.907 4523.38,678.716 4523.38,676.018C4523.38,673.319 4525.57,671.128 4528.27,671.128ZM4528.27,672.128C4530.41,672.128 4532.16,673.871 4532.16,676.018C4532.16,678.164 4530.41,679.907 4528.27,679.907C4526.12,679.907 4524.38,678.164 4524.38,676.018C4524.38,673.871 4526.12,672.128 4528.27,672.128Z" style="fill:rgb(171,195,161);"/>
            </g>
            <g transform="matrix(-0.405296,0.866702,-0.704195,-0.498826,4958.33,-3040.09)">
                <circle cx="4528.27" cy="676.018" r="4.889" style="fill:rgb(209,235,206);"/>
                <path d="M4528.27,671.128C4530.97,671.128 4533.16,673.319 4533.16,676.018C4533.16,678.716 4530.97,680.907 4528.27,680.907C4525.57,680.907 4523.38,678.716 4523.38,676.018C4523.38,673.319 4525.57,671.128 4528.27,671.128ZM4528.27,672.128C4530.41,672.128 4532.16,673.871 4532.16,676.018C4532.16,678.164 4530.41,679.907 4528.27,679.907C4526.12,679.907 4524.38,678.164 4524.38,676.018C4524.38,673.871 4526.12,672.128 4528.27,672.128Z" style="fill:rgb(171,195,161);"/>
            </g>
            <g transform="matrix(-0.405296,0.866702,-0.704195,-0.498826,4945.09,-3045.84)">
                <circle cx="4528.27" cy="676.018" r="4.889" style="fill:rgb(209,235,206);"/>
                <path d="M4528.27,671.128C4530.97,671.128 4533.16,673.319 4533.16,676.018C4533.16,678.716 4530.97,680.907 4528.27,680.907C4525.57,680.907 4523.38,678.716 4523.38,676.018C4523.38,673.319 4525.57,671.128 4528.27,671.128ZM4528.27,672.128C4530.41,672.128 4532.16,673.871 4532.16,676.018C4532.16,678.164 4530.41,679.907 4528.27,679.907C4526.12,679.907 4524.38,678.164 4524.38,676.018C4524.38,673.871 4526.12,672.128 4528.27,672.128Z" style="fill:rgb(171,195,161);"/>
            </g>
            <g transform="matrix(-0.405296,0.866702,-0.704195,-0.498826,4947.44,-3069.73)">
                <circle cx="4528.27" cy="676.018" r="4.889" style="fill:rgb(209,235,206);"/>
                <path d="M4528.27,671.128C4530.97,671.128 4533.16,673.319 4533.16,676.018C4533.16,678.716 4530.97,680.907 4528.27,680.907C4525.57,680.907 4523.38,678.716 4523.38,676.018C4523.38,673.319 4525.57,671.128 4528.27,671.128ZM4528.27,672.128C4530.41,672.128 4532.16,673.871 4532.16,676.018C4532.16,678.164 4530.41,679.907 4528.27,679.907C4526.12,679.907 4524.38,678.164 4524.38,676.018C4524.38,673.871 4526.12,672.128 4528.27,672.128Z" style="fill:rgb(171,195,161);"/>
            </g>
            <g transform="matrix(-0.405296,0.866702,-0.704195,-0.498826,4950.37,-3056.38)">
                <circle cx="4528.27" cy="676.018" r="4.889" style="fill:rgb(209,235,206);"/>
                <path d="M4528.27,671.128C4530.97,671.128 4533.16,673.319 4533.16,676.018C4533.16,678.716 4530.97,680.907 4528.27,680.907C4525.57,680.907 4523.38,678.716 4523.38,676.018C4523.38,673.319 4525.57,671.128 4528.27,671.128ZM4528.27,672.128C4530.41,672.128 4532.16,673.871 4532.16,676.018C4532.16,678.164 4530.41,679.907 4528.27,679.907C4526.12,679.907 4524.38,678.164 4524.38,676.018C4524.38,673.871 4526.12,672.128 4528.27,672.128Z" style="fill:rgb(171,195,161);"/>
            </g>
            <g transform="matrix(-0.405296,0.866702,-0.704195,-0.498826,4942.54,-3078.84)">
                <circle cx="4528.27" cy="676.018" r="4.889" style="fill:rgb(209,235,206);"/>
                <path d="M4528.27,671.128C4530.97,671.128 4533.16,673.319 4533.16,676.018C4533.16,678.716 4530.97,680.907 4528.27,680.907C4525.57,680.907 4523.38,678.716 4523.38,676.018C4523.38,673.319 4525.57,671.128 4528.27,671.128ZM4528.27,672.128C4530.41,672.128 4532.16,673.871 4532.16,676.018C4532.16,678.164 4530.41,679.907 4528.27,679.907C4526.12,679.907 4524.38,678.164 4524.38,676.018C4524.38,673.871 4526.12,672.128 4528.27,672.128Z" style="fill:rgb(171,195,161);"/>
            </g>
            <g transform="matrix(-0.405296,0.866702,-0.704195,-0.498826,4938.77,-3058.95)">
                <circle cx="4528.27" cy="676.018" r="4.889" style="fill:rgb(209,235,206);"/>
                <path d="M4528.27,671.128C4530.97,671.128 4533.16,673.319 4533.16,676.018C4533.16,678.716 4530.97,680.907 4528.27,680.907C4525.57,680.907 4523.38,678.716 4523.38,676.018C4523.38,673.319 4525.57,671.128 4528.27,671.128ZM4528.27,672.128C4530.41,672.128 4532.16,673.871 4532.16,676.018C4532.16,678.164 4530.41,679.907 4528.27,679.907C4526.12,679.907 4524.38,678.164 4524.38,676.018C4524.38,673.871 4526.12,672.128 4528.27,672.128Z" style="fill:rgb(171,195,161);"/>
            </g>
            <g transform="matrix(-0.740787,0.410772,-0.333752,-0.911738,6198.26,-662.426)">
                <circle cx="4528.27" cy="676.018" r="4.889" style="fill:rgb(238,212,197);"/>
                <path d="M4528.27,671.128C4530.97,671.128 4533.16,673.319 4533.16,676.018C4533.16,678.716 4530.97,680.907 4528.27,680.907C4525.57,680.907 4523.38,678.716 4523.38,676.018C4523.38,673.319 4525.57,671.128 4528.27,671.128ZM4528.27,672.128C4530.41,672.128 4532.16,673.871 4532.16,676.018C4532.16,678.164 4530.41,679.907 4528.27,679.907C4526.12,679.907 4524.38,678.164 4524.38,676.018C4524.38,673.871 4526.12,672.128 4528.27,672.128Z" style="fill:rgb(201,138,147);"/>
            </g>
            <g transform="matrix(-0.740787,0.410772,-0.333752,-0.911738,6185.47,-673.566)">
                <circle cx="4528.27" cy="676.018" r="4.889" style="fill:rgb(238,212,197);"/>
                <path d="M4528.27,671.128C4530.97,671.128 4533.16,673.319 4533.16,676.018C4533.16,678.716 4530.97,680.907 4528.27,680.907C4525.57,680.907 4523.38,678.716 4523.38,676.018C4523.38,673.319 4525.57,671.128 4528.27,671.128ZM4528.27,672.128C4530.41,672.128 4532.16,673.871 4532.16,676.018C4532.16,678.164 4530.41,679.907 4528.27,679.907C4526.12,679.907 4524.38,678.164 4524.38,676.018C4524.38,673.871 4526.12,672.128 4528.27,672.128Z" style="fill:rgb(201,138,147);"/>
            </g>
            <g transform="matrix(-0.740787,0.410772,-0.333752,-0.911738,6186.1,-659.94)">
                <circle cx="4528.27" cy="676.018" r="4.889" style="fill:rgb(238,212,197);"/>
                <path d="M4528.27,671.128C4530.97,671.128 4533.16,673.319 4533.16,676.018C4533.16,678.716 4530.97,680.907 4528.27,680.907C4525.57,680.907 4523.38,678.716 4523.38,676.018C4523.38,673.319 4525.57,671.128 4528.27,671.128ZM4528.27,672.128C4530.41,672.128 4532.16,673.871 4532.16,676.018C4532.16,678.164 4530.41,679.907 4528.27,679.907C4526.12,679.907 4524.38,678.164 4524.38,676.018C4524.38,673.871 4526.12,672.128 4528.27,672.128Z" style="fill:rgb(201,138,147);"/>
            </g>
            <g transform="matrix(-0.740787,0.410772,-0.333752,-0.911738,6175.59,-664.838)">
                <circle cx="4528.27" cy="676.018" r="4.889" style="fill:rgb(238,212,197);"/>
                <path d="M4528.27,671.128C4530.97,671.128 4533.16,673.319 4533.16,676.018C4533.16,678.716 4530.97,680.907 4528.27,680.907C4525.57,680.907 4523.38,678.716 4523.38,676.018C4523.38,673.319 4525.57,671.128 4528.27,671.128ZM4528.27,672.128C4530.41,672.128 4532.16,673.871 4532.16,676.018C4532.16,678.164 4530.41,679.907 4528.27,679.907C4526.12,679.907 4524.38,678.164 4524.38,676.018C4524.38,673.871 4526.12,672.128 4528.27,672.128Z" style="fill:rgb(201,138,147);"/>
            </g>
            <g transform="matrix(-0.740787,0.410772,-0.333752,-0.911738,6173.97,-681.168)">
                <circle cx="4528.27" cy="676.018" r="4.889" style="fill:rgb(238,212,197);"/>
                <path d="M4528.27,671.128C4530.97,671.128 4533.16,673.319 4533.16,676.018C4533.16,678.716 4530.97,680.907 4528.27,680.907C4525.57,680.907 4523.38,678.716 4523.38,676.018C4523.38,673.319 4525.57,671.128 4528.27,671.128ZM4528.27,672.128C4530.41,672.128 4532.16,673.871 4532.16,676.018C4532.16,678.164 4530.41,679.907 4528.27,679.907C4526.12,679.907 4524.38,678.164 4524.38,676.018C4524.38,673.871 4526.12,672.128 4528.27,672.128Z" style="fill:rgb(201,138,147);"/>
            </g>
            <g transform="matrix(-0.740787,0.410772,-0.333752,-0.911738,6187.16,-692.74)">
                <circle cx="4528.27" cy="676.018" r="4.889" style="fill:rgb(238,212,197);"/>
                <path d="M4528.27,671.128C4530.97,671.128 4533.16,673.319 4533.16,676.018C4533.16,678.716 4530.97,680.907 4528.27,680.907C4525.57,680.907 4523.38,678.716 4523.38,676.018C4523.38,673.319 4525.57,671.128 4528.27,671.128ZM4528.27,672.128C4530.41,672.128 4532.16,673.871 4532.16,676.018C4532.16,678.164 4530.41,679.907 4528.27,679.907C4526.12,679.907 4524.38,678.164 4524.38,676.018C4524.38,673.871 4526.12,672.128 4528.27,672.128Z" style="fill:rgb(201,138,147);"/>
            </g>
            <g transform="matrix(-0.740787,0.410772,-0.333752,-0.911738,6207.49,-673.728)">
                <circle cx="4528.27" cy="676.018" r="4.889" style="fill:rgb(238,212,197);"/>
                <path d="M4528.27,671.128C4530.97,671.128 4533.16,673.319 4533.16,676.018C4533.16,678.716 4530.97,680.907 4528.27,680.907C4525.57,680.907 4523.38,678.716 4523.38,676.018C4523.38,673.319 4525.57,671.128 4528.27,671.128ZM4528.27,672.128C4530.41,672.128 4532.16,673.871 4532.16,676.018C4532.16,678.164 4530.41,679.907 4528.27,679.907C4526.12,679.907 4524.38,678.164 4524.38,676.018C4524.38,673.871 4526.12,672.128 4528.27,672.128Z" style="fill:rgb(201,138,147);"/>
            </g>
            <g transform="matrix(-0.740787,0.410772,-0.333752,-0.911738,6194.54,-684.496)">
                <circle cx="4528.27" cy="676.018" r="4.889" style="fill:rgb(238,212,197);"/>
                <path d="M4528.27,671.128C4530.97,671.128 4533.16,673.319 4533.16,676.018C4533.16,678.716 4530.97,680.907 4528.27,680.907C4525.57,680.907 4523.38,678.716 4523.38,676.018C4523.38,673.319 4525.57,671.128 4528.27,671.128ZM4528.27,672.128C4530.41,672.128 4532.16,673.871 4532.16,676.018C4532.16,678.164 4530.41,679.907 4528.27,679.907C4526.12,679.907 4524.38,678.164 4524.38,676.018C4524.38,673.871 4526.12,672.128 4528.27,672.128Z" style="fill:rgb(201,138,147);"/>
            </g>
            <g transform="matrix(-0.405296,0.866702,-0.704195,-0.498826,4141.25,-1715.82)">
                <path d="M2884.57,510.601L2934.25,536.767C2934.46,536.88 2934.72,536.802 2934.84,536.593C2934.95,536.384 2934.87,536.123 2934.66,536.011L2885.52,508.841C2885.03,508.579 2884.43,508.76 2884.17,509.246C2883.9,509.732 2884.09,510.339 2884.57,510.601Z" style="fill:rgb(164,164,164);"/>
            </g>
        </g>
    </g>
</svg>
