<?xml version="1.0" encoding="UTF-8" standalone="no"?>
<!DOCTYPE svg PUBLIC "-//W3C//DTD SVG 1.1//EN" "http://www.w3.org/Graphics/SVG/1.1/DTD/svg11.dtd">
<svg width="100%" height="100%" viewBox="0 0 381 256" version="1.1" xmlns="http://www.w3.org/2000/svg" xmlns:xlink="http://www.w3.org/1999/xlink" xml:space="preserve" xmlns:serif="http://www.serif.com/" style="fill-rule:evenodd;clip-rule:evenodd;stroke-linecap:round;stroke-linejoin:round;stroke-miterlimit:1.5;">
    <g transform="matrix(1,0,0,1,-11527,-1592)">
        <g id="_021_3" serif:id="021_3" transform="matrix(0.471129,0,0,0.563759,10700.8,1596.89)">
            <rect x="1755.48" y="-8.417" width="806.573" height="452.321" style="fill:none;"/>
            <g transform="matrix(3.97502,-2.26512e-15,2.96982e-14,3.32189,-15922.9,-2060.51)">
                <circle cx="4528.27" cy="676.018" r="4.889" style="fill:none;stroke:black;stroke-width:0.53px;"/>
            </g>
            <g transform="matrix(3.97502,-2.26512e-15,2.96982e-14,3.32189,-15922.9,-1942.69)">
                <circle cx="4528.27" cy="676.018" r="4.889" style="fill:none;stroke:black;stroke-width:0.53px;"/>
            </g>
            <g transform="matrix(3.97502,-2.26512e-15,2.96982e-14,3.32189,-15759.4,-1942.69)">
                <circle cx="4528.27" cy="676.018" r="4.889" style="fill:none;stroke:black;stroke-width:0.53px;"/>
            </g>
            <g transform="matrix(3.97502,-2.26512e-15,2.96982e-14,3.32189,-15759.4,-2060.12)">
                <circle cx="4528.27" cy="676.018" r="4.889" style="fill:none;stroke:black;stroke-width:0.53px;"/>
            </g>
            <g transform="matrix(3.97502,-2.26512e-15,2.96982e-14,3.32189,-15759.4,-2177.55)">
                <circle cx="4528.27" cy="676.018" r="4.889" style="fill:none;stroke:black;stroke-width:0.53px;"/>
            </g>
            <g transform="matrix(3.97502,-2.26512e-15,2.96982e-14,3.32189,-15922.9,-2178.34)">
                <circle cx="4528.27" cy="676.018" r="4.889" style="fill:none;stroke:black;stroke-width:0.53px;"/>
            </g>
            <g transform="matrix(2.12256,0,0,1.77381,-22713,-2832.58)">
                <path d="M11679.3,1785.85L11602.3,1785.85L11679.3,1719.65L11602.3,1653L11679.3,1653.44L11602.3,1719.65L11679.3,1785.85Z" style="fill:none;stroke:black;stroke-width:1px;"/>
            </g>
            <g transform="matrix(2.12256,0,0,1.77381,-22549.6,-2832.58)">
                <path d="M11679.3,1785.85L11602.3,1785.85L11679.3,1719.65L11602.3,1653L11679.3,1653.44L11602.3,1719.65L11679.3,1785.85Z" style="fill:none;stroke:black;stroke-width:1px;"/>
            </g>
            <g transform="matrix(2.12256,0,0,1.77381,-22386.2,-2831.8)">
                <path d="M11679.3,1785.85L11602.3,1785.85L11679.3,1719.65L11602.3,1653L11679.3,1653.44L11602.3,1719.65L11679.3,1785.85Z" style="fill:none;stroke:black;stroke-width:1px;"/>
            </g>
            <g transform="matrix(2.12256,0,0,1.77381,-22713,-2832.58)">
                <path d="M11679.3,1653.44L11602.3,1785.85" style="fill:none;stroke:black;stroke-width:1px;"/>
            </g>
            <g transform="matrix(2.12256,0,0,1.77381,-22549.6,-2832.58)">
                <path d="M11679.3,1653.44L11602.3,1785.85" style="fill:none;stroke:black;stroke-width:1px;"/>
            </g>
            <g transform="matrix(2.12256,0,0,1.77381,-22386.2,-2831.8)">
                <path d="M11679.3,1653.44L11602.3,1785.85" style="fill:none;stroke:black;stroke-width:1px;"/>
            </g>
            <g transform="matrix(2.12256,0,0,1.77381,-22713,-2832.58)">
                <path d="M11602.3,1653L11679.3,1785.85" style="fill:none;stroke:black;stroke-width:1px;"/>
            </g>
            <g transform="matrix(2.12256,0,0,1.77381,-22549.6,-2832.58)">
                <path d="M11602.3,1653L11679.3,1785.85" style="fill:none;stroke:black;stroke-width:1px;"/>
            </g>
            <g transform="matrix(2.12256,0,0,1.77381,-22386.2,-2831.8)">
                <path d="M11602.3,1653L11679.3,1785.85" style="fill:none;stroke:black;stroke-width:1px;"/>
            </g>
            <g transform="matrix(7.01392,-4.88498e-15,5.19584e-14,5.86148,-29847.3,-3862.15)">
                <circle cx="4528.27" cy="676.018" r="4.889" style="fill:rgb(255,241,169);"/>
                <path d="M4528.27,671.128C4530.97,671.128 4533.16,673.319 4533.16,676.018C4533.16,678.716 4530.97,680.907 4528.27,680.907C4525.57,680.907 4523.38,678.716 4523.38,676.018C4523.38,673.319 4525.57,671.128 4528.27,671.128ZM4528.27,671.431C4530.8,671.431 4532.85,673.486 4532.85,676.018C4532.85,678.549 4530.8,680.604 4528.27,680.604C4525.73,680.604 4523.68,678.549 4523.68,676.018C4523.68,673.486 4525.73,671.431 4528.27,671.431Z" style="fill:rgb(209,195,106);"/>
            </g>
            <g transform="matrix(7.01392,-3.9968e-15,5.24025e-14,5.86148,-29847.3,-3744.72)">
                <circle cx="4528.27" cy="676.018" r="4.889" style="fill:rgb(255,241,169);"/>
                <path d="M4528.27,671.128C4530.97,671.128 4533.16,673.319 4533.16,676.018C4533.16,678.716 4530.97,680.907 4528.27,680.907C4525.57,680.907 4523.38,678.716 4523.38,676.018C4523.38,673.319 4525.57,671.128 4528.27,671.128ZM4528.27,671.431C4530.8,671.431 4532.85,673.486 4532.85,676.018C4532.85,678.549 4530.8,680.604 4528.27,680.604C4525.73,680.604 4523.68,678.549 4523.68,676.018C4523.68,673.486 4525.73,671.431 4528.27,671.431Z" style="fill:rgb(209,195,106);"/>
            </g>
            <g transform="matrix(7.01392,-2.66454e-15,5.32907e-14,5.86148,-29847.3,-3627.29)">
                <circle cx="4528.27" cy="676.018" r="4.889" style="fill:rgb(255,241,169);"/>
                <path d="M4528.27,671.128C4530.97,671.128 4533.16,673.319 4533.16,676.018C4533.16,678.716 4530.97,680.907 4528.27,680.907C4525.57,680.907 4523.38,678.716 4523.38,676.018C4523.38,673.319 4525.57,671.128 4528.27,671.128ZM4528.27,671.431C4530.8,671.431 4532.85,673.486 4532.85,676.018C4532.85,678.549 4530.8,680.604 4528.27,680.604C4525.73,680.604 4523.68,678.549 4523.68,676.018C4523.68,673.486 4525.73,671.431 4528.27,671.431Z" style="fill:rgb(209,195,106);"/>
            </g>
            <g transform="matrix(7.01392,-4.88498e-15,5.19584e-14,5.86148,-29683.8,-3862.15)">
                <circle cx="4528.27" cy="676.018" r="4.889" style="fill:rgb(197,207,238);"/>
                <path d="M4528.27,671.128C4530.97,671.128 4533.16,673.319 4533.16,676.018C4533.16,678.716 4530.97,680.907 4528.27,680.907C4525.57,680.907 4523.38,678.716 4523.38,676.018C4523.38,673.319 4525.57,671.128 4528.27,671.128ZM4528.27,671.431C4530.8,671.431 4532.85,673.486 4532.85,676.018C4532.85,678.549 4530.8,680.604 4528.27,680.604C4525.73,680.604 4523.68,678.549 4523.68,676.018C4523.68,673.486 4525.73,671.431 4528.27,671.431Z" style="fill:rgb(138,147,201);"/>
            </g>
            <g transform="matrix(7.01392,-3.9968e-15,5.24025e-14,5.86148,-29683.8,-3744.72)">
                <circle cx="4528.27" cy="676.018" r="4.889" style="fill:rgb(197,207,238);"/>
                <path d="M4528.27,671.128C4530.97,671.128 4533.16,673.319 4533.16,676.018C4533.16,678.716 4530.97,680.907 4528.27,680.907C4525.57,680.907 4523.38,678.716 4523.38,676.018C4523.38,673.319 4525.57,671.128 4528.27,671.128ZM4528.27,671.431C4530.8,671.431 4532.85,673.486 4532.85,676.018C4532.85,678.549 4530.8,680.604 4528.27,680.604C4525.73,680.604 4523.68,678.549 4523.68,676.018C4523.68,673.486 4525.73,671.431 4528.27,671.431Z" style="fill:rgb(138,147,201);"/>
            </g>
            <g transform="matrix(7.01392,-2.66454e-15,5.32907e-14,5.86148,-29683.8,-3627.29)">
                <circle cx="4528.27" cy="676.018" r="4.889" style="fill:rgb(197,207,238);"/>
                <path d="M4528.27,671.128C4530.97,671.128 4533.16,673.319 4533.16,676.018C4533.16,678.716 4530.97,680.907 4528.27,680.907C4525.57,680.907 4523.38,678.716 4523.38,676.018C4523.38,673.319 4525.57,671.128 4528.27,671.128ZM4528.27,671.431C4530.8,671.431 4532.85,673.486 4532.85,676.018C4532.85,678.549 4530.8,680.604 4528.27,680.604C4525.73,680.604 4523.68,678.549 4523.68,676.018C4523.68,673.486 4525.73,671.431 4528.27,671.431Z" style="fill:rgb(138,147,201);"/>
            </g>
            <g transform="matrix(7.01392,-4.88498e-15,5.19584e-14,5.86148,-29520.4,-3862.15)">
                <circle cx="4528.27" cy="676.018" r="4.889" style="fill:rgb(197,207,238);"/>
                <path d="M4528.27,671.128C4530.97,671.128 4533.16,673.319 4533.16,676.018C4533.16,678.716 4530.97,680.907 4528.27,680.907C4525.57,680.907 4523.38,678.716 4523.38,676.018C4523.38,673.319 4525.57,671.128 4528.27,671.128ZM4528.27,671.431C4530.8,671.431 4532.85,673.486 4532.85,676.018C4532.85,678.549 4530.8,680.604 4528.27,680.604C4525.73,680.604 4523.68,678.549 4523.68,676.018C4523.68,673.486 4525.73,671.431 4528.27,671.431Z" style="fill:rgb(138,147,201);"/>
            </g>
            <g transform="matrix(7.01392,-3.9968e-15,5.24025e-14,5.86148,-29520.4,-3744.72)">
                <circle cx="4528.27" cy="676.018" r="4.889" style="fill:rgb(197,207,238);"/>
                <path d="M4528.27,671.128C4530.97,671.128 4533.16,673.319 4533.16,676.018C4533.16,678.716 4530.97,680.907 4528.27,680.907C4525.57,680.907 4523.38,678.716 4523.38,676.018C4523.38,673.319 4525.57,671.128 4528.27,671.128ZM4528.27,671.431C4530.8,671.431 4532.85,673.486 4532.85,676.018C4532.85,678.549 4530.8,680.604 4528.27,680.604C4525.73,680.604 4523.68,678.549 4523.68,676.018C4523.68,673.486 4525.73,671.431 4528.27,671.431Z" style="fill:rgb(138,147,201);"/>
            </g>
            <g transform="matrix(7.01392,-2.66454e-15,5.32907e-14,5.86148,-29520.4,-3627.29)">
                <circle cx="4528.27" cy="676.018" r="4.889" style="fill:rgb(197,207,238);"/>
                <path d="M4528.27,671.128C4530.97,671.128 4533.16,673.319 4533.16,676.018C4533.16,678.716 4530.97,680.907 4528.27,680.907C4525.57,680.907 4523.38,678.716 4523.38,676.018C4523.38,673.319 4525.57,671.128 4528.27,671.128ZM4528.27,671.431C4530.8,671.431 4532.85,673.486 4532.85,676.018C4532.85,678.549 4530.8,680.604 4528.27,680.604C4525.73,680.604 4523.68,678.549 4523.68,676.018C4523.68,673.486 4525.73,671.431 4528.27,671.431Z" style="fill:rgb(138,147,201);"/>
            </g>
            <g transform="matrix(7.01392,-4.88498e-15,5.19584e-14,5.86148,-29357,-3862.15)">
                <circle cx="4528.27" cy="676.018" r="4.889" style="fill:rgb(255,241,169);"/>
                <path d="M4528.27,671.128C4530.97,671.128 4533.16,673.319 4533.16,676.018C4533.16,678.716 4530.97,680.907 4528.27,680.907C4525.57,680.907 4523.38,678.716 4523.38,676.018C4523.38,673.319 4525.57,671.128 4528.27,671.128ZM4528.27,671.431C4530.8,671.431 4532.85,673.486 4532.85,676.018C4532.85,678.549 4530.8,680.604 4528.27,680.604C4525.73,680.604 4523.68,678.549 4523.68,676.018C4523.68,673.486 4525.73,671.431 4528.27,671.431Z" style="fill:rgb(209,195,106);"/>
            </g>
            <g transform="matrix(7.01392,-3.9968e-15,5.24025e-14,5.86148,-29357,-3744.72)">
                <circle cx="4528.27" cy="676.018" r="4.889" style="fill:rgb(255,241,169);"/>
                <path d="M4528.27,671.128C4530.97,671.128 4533.16,673.319 4533.16,676.018C4533.16,678.716 4530.97,680.907 4528.27,680.907C4525.57,680.907 4523.38,678.716 4523.38,676.018C4523.38,673.319 4525.57,671.128 4528.27,671.128ZM4528.27,671.431C4530.8,671.431 4532.85,673.486 4532.85,676.018C4532.85,678.549 4530.8,680.604 4528.27,680.604C4525.73,680.604 4523.68,678.549 4523.68,676.018C4523.68,673.486 4525.73,671.431 4528.27,671.431Z" style="fill:rgb(209,195,106);"/>
            </g>
            <g transform="matrix(7.01392,-2.66454e-15,5.32907e-14,5.86148,-29357,-3627.29)">
                <circle cx="4528.27" cy="676.018" r="4.889" style="fill:rgb(255,241,169);"/>
                <path d="M4528.27,671.128C4530.97,671.128 4533.16,673.319 4533.16,676.018C4533.16,678.716 4530.97,680.907 4528.27,680.907C4525.57,680.907 4523.38,678.716 4523.38,676.018C4523.38,673.319 4525.57,671.128 4528.27,671.128ZM4528.27,671.431C4530.8,671.431 4532.85,673.486 4532.85,676.018C4532.85,678.549 4530.8,680.604 4528.27,680.604C4525.73,680.604 4523.68,678.549 4523.68,676.018C4523.68,673.486 4525.73,671.431 4528.27,671.431Z" style="fill:rgb(209,195,106);"/>
            </g>
        </g>
    </g>
</svg>
