<?xml version="1.0" encoding="UTF-8" standalone="no"?>
<!DOCTYPE svg PUBLIC "-//W3C//DTD SVG 1.1//EN" "http://www.w3.org/Graphics/SVG/1.1/DTD/svg11.dtd">
<svg width="100%" height="100%" viewBox="0 0 130 150" version="1.1" xmlns="http://www.w3.org/2000/svg" xmlns:xlink="http://www.w3.org/1999/xlink" xml:space="preserve" xmlns:serif="http://www.serif.com/" style="fill-rule:evenodd;clip-rule:evenodd;stroke-linejoin:round;stroke-miterlimit:2;">
    <g transform="matrix(1,0,0,1,-2847,-454)">
        <g id="_004_a03" serif:id="004_a03" transform="matrix(1,0,0,1,299.095,-0.27909)">
            <rect x="2547.91" y="454.279" width="130" height="150" style="fill:none;"/>
            <g transform="matrix(1.23023,0,0,1.23023,-769.924,-170.842)">
                <circle cx="2720.33" cy="547.701" r="2.845" style="fill:rgb(52,116,185);"/>
            </g>
            <g transform="matrix(1.23023,0,0,1.23023,-755.789,-177.962)">
                <circle cx="2720.33" cy="547.701" r="2.845" style="fill:rgb(52,116,185);"/>
            </g>
            <g transform="matrix(1.23023,0,0,1.23023,-748.668,-160.905)">
                <circle cx="2720.33" cy="547.701" r="2.845" style="fill:rgb(52,116,185);"/>
            </g>
            <g transform="matrix(1.23023,0,0,1.23023,-759.349,-149.857)">
                <circle cx="2720.33" cy="547.701" r="2.845" style="fill:rgb(52,116,185);"/>
            </g>
            <g transform="matrix(1.23023,0,0,1.23023,-773.484,-153.784)">
                <circle cx="2720.33" cy="547.701" r="2.845" style="fill:rgb(52,116,185);"/>
            </g>
            <g transform="matrix(1,0,0,1,-301.274,3.16985)">
                <path d="M2884.08,509.47L2879.86,528.061C2879.8,528.29 2879.94,528.525 2880.17,528.585C2880.39,528.644 2880.63,528.506 2880.69,528.276L2886.01,509.971C2886.15,509.437 2885.83,508.891 2885.3,508.753C2884.76,508.615 2884.22,508.936 2884.08,509.47Z" style="fill:rgb(164,164,164);"/>
            </g>
            <g transform="matrix(1,0,0,1,-301.274,3.16985)">
                <path d="M2885.22,508.736L2865.25,505.798C2865.02,505.756 2864.8,505.913 2864.76,506.146C2864.72,506.38 2864.87,506.603 2865.11,506.644L2884.87,510.706C2885.42,510.802 2885.93,510.438 2886.03,509.894C2886.13,509.351 2885.76,508.832 2885.22,508.736Z" style="fill:rgb(164,164,164);"/>
            </g>
            <g transform="matrix(1,0,0,1,-301.274,3.16985)">
                <path d="M2886.05,509.721L2885.48,481.922C2885.48,481.684 2885.28,481.492 2885.05,481.492C2884.81,481.492 2884.62,481.684 2884.62,481.922L2884.05,509.721C2884.05,510.273 2884.49,510.721 2885.05,510.721C2885.6,510.721 2886.05,510.273 2886.05,509.721Z" style="fill:rgb(164,164,164);"/>
            </g>
            <g transform="matrix(1,0,0,1,-301.274,3.16985)">
                <path d="M2885.64,510.523L2908.25,492.955C2908.44,492.814 2908.48,492.544 2908.34,492.354C2908.2,492.164 2907.93,492.124 2907.74,492.266L2884.45,508.919C2884.01,509.249 2883.91,509.876 2884.24,510.319C2884.57,510.761 2885.2,510.853 2885.64,510.523Z" style="fill:rgb(164,164,164);"/>
            </g>
            <g transform="matrix(1,0,0,1,-301.274,3.16985)">
                <path d="M2884.52,510.573L2904.9,522.419C2905.1,522.543 2905.37,522.48 2905.49,522.278C2905.61,522.075 2905.55,521.81 2905.35,521.686L2885.57,508.869C2885.1,508.58 2884.48,508.727 2884.19,509.198C2883.91,509.668 2884.05,510.284 2884.52,510.573Z" style="fill:rgb(164,164,164);"/>
            </g>
            <g transform="matrix(1,0,0,1,-245.902,9.68092)">
                <path d="M2884.05,509.721L2884.62,528.991C2884.62,529.228 2884.81,529.421 2885.05,529.421C2885.28,529.421 2885.48,529.228 2885.48,528.991L2886.05,509.721C2886.05,509.169 2885.6,508.721 2885.05,508.721C2884.49,508.721 2884.05,509.169 2884.05,509.721Z" style="fill:rgb(164,164,164);"/>
            </g>
            <g transform="matrix(1,0,0,1,-245.902,9.68092)">
                <path d="M2884.85,508.741L2865.39,513.321C2865.16,513.368 2865.01,513.596 2865.06,513.828C2865.11,514.061 2865.34,514.211 2865.57,514.163L2885.25,510.7C2885.79,510.589 2886.14,510.06 2886.03,509.52C2885.91,508.979 2885.39,508.63 2884.85,508.741Z" style="fill:rgb(164,164,164);"/>
            </g>
            <g transform="matrix(1,0,0,1,-245.902,9.68092)">
                <path d="M2886.03,509.926L2891.18,482.503C2891.23,482.271 2891.08,482.043 2890.85,481.994C2890.61,481.946 2890.39,482.095 2890.34,482.327L2884.07,509.516C2883.95,510.056 2884.3,510.587 2884.84,510.7C2885.38,510.813 2885.91,510.466 2886.03,509.926Z" style="fill:rgb(164,164,164);"/>
            </g>
            <g transform="matrix(1,0,0,1,-245.902,9.68092)">
                <path d="M2885.8,509.063L2868.44,490.067C2868.28,489.888 2868.01,489.87 2867.83,490.026C2867.65,490.182 2867.63,490.454 2867.79,490.633L2884.29,510.379C2884.66,510.795 2885.29,510.837 2885.7,510.474C2886.12,510.111 2886.16,509.478 2885.8,509.063Z" style="fill:rgb(164,164,164);"/>
            </g>
            <g transform="matrix(1,0,0,1,-245.902,9.68092)">
                <path d="M2884.87,510.706L2907.73,514.165C2907.97,514.206 2908.19,514.05 2908.23,513.817C2908.27,513.583 2908.12,513.36 2907.88,513.318L2885.22,508.736C2884.68,508.64 2884.16,509.003 2884.06,509.547C2883.97,510.09 2884.33,510.61 2884.87,510.706Z" style="fill:rgb(164,164,164);"/>
            </g>
            <g transform="matrix(1,0,0,1,-282.912,46.9971)">
                <path d="M2884.23,509.142L2872.79,526.22C2872.66,526.414 2872.7,526.682 2872.89,526.82C2873.09,526.957 2873.36,526.912 2873.49,526.719L2885.86,510.3C2886.18,509.85 2886.08,509.226 2885.62,508.906C2885.18,508.586 2884.55,508.692 2884.23,509.142Z" style="fill:rgb(164,164,164);"/>
            </g>
            <g transform="matrix(1,0,0,1,-282.912,46.9971)">
                <path d="M2885.32,508.76L2864.89,503.486C2864.66,503.42 2864.42,503.552 2864.36,503.78C2864.29,504.008 2864.42,504.246 2864.65,504.312L2884.77,510.682C2885.3,510.834 2885.86,510.527 2886.01,509.997C2886.16,509.466 2885.85,508.912 2885.32,508.76Z" style="fill:rgb(164,164,164);"/>
            </g>
            <g transform="matrix(1,0,0,1,-282.912,46.9971)">
                <path d="M2886.04,509.627L2883.51,488.859C2883.49,488.623 2883.28,488.449 2883.04,488.471C2882.8,488.494 2882.63,488.703 2882.65,488.94L2884.05,509.815C2884.1,510.364 2884.59,510.768 2885.14,510.717C2885.69,510.665 2886.09,510.176 2886.04,509.627Z" style="fill:rgb(164,164,164);"/>
            </g>
            <g transform="matrix(1,0,0,1,-282.912,46.9971)">
                <path d="M2885.55,510.586L2905.34,498.448C2905.54,498.329 2905.61,498.066 2905.49,497.861C2905.38,497.656 2905.11,497.586 2904.91,497.705L2884.54,508.856C2884.07,509.133 2883.9,509.745 2884.18,510.223C2884.46,510.7 2885.07,510.863 2885.55,510.586Z" style="fill:rgb(164,164,164);"/>
            </g>
            <g transform="matrix(1,0,0,1,-282.912,46.9971)">
                <path d="M2884.33,510.413L2899.19,525.076C2899.36,525.247 2899.63,525.252 2899.8,525.088C2899.97,524.924 2899.98,524.651 2899.81,524.48L2885.77,509.028C2885.39,508.63 2884.75,508.617 2884.35,509C2883.95,509.382 2883.94,510.015 2884.33,510.413Z" style="fill:rgb(164,164,164);"/>
            </g>
            <g transform="matrix(1.23023,0,0,1.23023,-752.229,-127.216)">
                <circle cx="2720.33" cy="547.701" r="2.845" style="fill:rgb(52,116,185);"/>
            </g>
            <g transform="matrix(1.23023,0,0,1.23023,-738.582,-130.776)">
                <circle cx="2720.33" cy="547.701" r="2.845" style="fill:rgb(52,116,185);"/>
            </g>
            <g transform="matrix(1.23023,0,0,1.23023,-731.901,-116.67)">
                <circle cx="2720.33" cy="547.701" r="2.845" style="fill:rgb(52,116,185);"/>
            </g>
            <g transform="matrix(1.23023,0,0,1.23023,-745.108,-105.168)">
                <circle cx="2720.33" cy="547.701" r="2.845" style="fill:rgb(52,116,185);"/>
            </g>
            <g transform="matrix(1.23023,0,0,1.23023,-757.37,-113.11)">
                <circle cx="2720.33" cy="547.701" r="2.845" style="fill:rgb(52,116,185);"/>
            </g>
            <g transform="matrix(1.23023,0,0,1.23023,-711.179,-168.025)">
                <circle cx="2720.33" cy="547.701" r="2.845" style="fill:rgb(52,116,185);"/>
            </g>
            <g transform="matrix(1.23023,0,0,1.23023,-698.186,-160.905)">
                <circle cx="2720.33" cy="547.701" r="2.845" style="fill:rgb(52,116,185);"/>
            </g>
            <g transform="matrix(1.23023,0,0,1.23023,-698.186,-146.856)">
                <circle cx="2720.33" cy="547.701" r="2.845" style="fill:rgb(52,116,185);"/>
            </g>
            <g transform="matrix(1.23023,0,0,1.23023,-714.739,-146.856)">
                <circle cx="2720.33" cy="547.701" r="2.845" style="fill:rgb(52,116,185);"/>
            </g>
            <g transform="matrix(1.23023,0,0,1.23023,-718.299,-157.44)">
                <circle cx="2720.33" cy="547.701" r="2.845" style="fill:rgb(52,116,185);"/>
            </g>
        </g>
    </g>
</svg>
