<?xml version="1.0" encoding="UTF-8" standalone="no"?>
<!DOCTYPE svg PUBLIC "-//W3C//DTD SVG 1.1//EN" "http://www.w3.org/Graphics/SVG/1.1/DTD/svg11.dtd">
<svg width="100%" height="100%" viewBox="0 0 251 351" version="1.1" xmlns="http://www.w3.org/2000/svg" xmlns:xlink="http://www.w3.org/1999/xlink" xml:space="preserve" xmlns:serif="http://www.serif.com/" style="fill-rule:evenodd;clip-rule:evenodd;stroke-linecap:round;stroke-linejoin:round;stroke-miterlimit:1.5;">
    <g transform="matrix(1,0,0,1,-8105,-1687)">
        <g id="_016_a02" serif:id="016_a02" transform="matrix(1.92308,0,0,2.33333,3205.65,627.863)">
            <rect x="2547.91" y="454.279" width="130" height="150" style="fill:none;"/>
            <g transform="matrix(-0.43584,-0.129819,0.0150902,-0.045379,2579.6,536.296)">
                <g transform="matrix(-1.08557,3.10557,-0.297522,-8.59313,123.852,1461.07)">
                    <path d="M49.814,170.348L45.314,179.348L40.814,170.348L49.814,170.348Z" style="fill:rgb(46,112,183);"/>
                    <path d="M45.314,137.036L45.314,172.148" style="fill:none;stroke:rgb(46,112,183);stroke-width:3px;"/>
                </g>
            </g>
            <g transform="matrix(-0.43584,-0.129819,0.0150902,-0.045379,2606.98,536.296)">
                <g transform="matrix(-1.08557,3.10557,-0.297522,-8.59313,181.025,1297.51)">
                    <path d="M102.481,170.348L97.981,179.348L93.481,170.348L102.481,170.348Z" style="fill:rgb(46,112,183);"/>
                    <path d="M97.981,137.036L97.981,172.148" style="fill:none;stroke:rgb(46,112,183);stroke-width:3px;"/>
                </g>
            </g>
            <g transform="matrix(-0.43584,-0.129819,0.0150902,-0.045379,2634.37,536.296)">
                <g transform="matrix(-1.08557,3.10557,-0.297522,-8.59313,238.199,1133.95)">
                    <path d="M155.147,170.348L150.647,179.348L146.147,170.348L155.147,170.348Z" style="fill:rgb(46,112,183);"/>
                    <path d="M150.647,137.036L150.647,172.148" style="fill:none;stroke:rgb(46,112,183);stroke-width:3px;"/>
                </g>
            </g>
            <g transform="matrix(1,0,0,1,55.6311,12.4286)">
                <g transform="matrix(0.52,0,0,0.494686,-1513.86,-386.878)">
                    <path d="M7854.3,1835L7854.3,1856.23" style="fill:none;stroke:rgb(75,68,69);stroke-width:0.93px;"/>
                </g>
                <g transform="matrix(0.52,0,0,0.428571,-1525.3,-268.987)">
                    <path d="M7876.3,1856.23L7864,1856.23L7864,1867.51" style="fill:none;stroke:rgb(75,68,69);stroke-width:1px;"/>
                </g>
                <g transform="matrix(-0.52,0,0,0.428571,6666.04,-268.987)">
                    <path d="M7876.3,1856.23L7864,1856.23L7864,1867.51" style="fill:none;stroke:rgb(75,68,69);stroke-width:1px;"/>
                </g>
                <g transform="matrix(0.52,-1.18952e-17,5.32907e-17,0.428571,215.671,231.148)">
                    <circle cx="4528.27" cy="676.018" r="4.889" style="fill:rgb(209,235,206);"/>
                    <path d="M4528.27,671.128C4530.97,671.128 4533.16,673.319 4533.16,676.018C4533.16,678.716 4530.97,680.907 4528.27,680.907C4525.57,680.907 4523.38,678.716 4523.38,676.018C4523.38,673.319 4525.57,671.128 4528.27,671.128ZM4528.27,672.128C4530.41,672.128 4532.16,673.871 4532.16,676.018C4532.16,678.164 4530.41,679.907 4528.27,679.907C4526.12,679.907 4524.38,678.164 4524.38,676.018C4524.38,673.871 4526.12,672.128 4528.27,672.128Z" style="fill:rgb(171,195,161);"/>
                </g>
                <g transform="matrix(0.52,-1.18952e-17,5.32907e-17,0.428571,215.671,241.653)">
                    <circle cx="4528.27" cy="676.018" r="4.889" style="fill:rgb(209,235,206);"/>
                    <path d="M4528.27,671.128C4530.97,671.128 4533.16,673.319 4533.16,676.018C4533.16,678.716 4530.97,680.907 4528.27,680.907C4525.57,680.907 4523.38,678.716 4523.38,676.018C4523.38,673.319 4525.57,671.128 4528.27,671.128ZM4528.27,672.128C4530.41,672.128 4532.16,673.871 4532.16,676.018C4532.16,678.164 4530.41,679.907 4528.27,679.907C4526.12,679.907 4524.38,678.164 4524.38,676.018C4524.38,673.871 4526.12,672.128 4528.27,672.128Z" style="fill:rgb(171,195,161);"/>
                </g>
                <g transform="matrix(0.52,-1.18952e-17,5.32907e-17,0.428571,209.278,241.653)">
                    <circle cx="4528.27" cy="676.018" r="4.889" style="fill:rgb(209,235,206);"/>
                    <path d="M4528.27,671.128C4530.97,671.128 4533.16,673.319 4533.16,676.018C4533.16,678.716 4530.97,680.907 4528.27,680.907C4525.57,680.907 4523.38,678.716 4523.38,676.018C4523.38,673.319 4525.57,671.128 4528.27,671.128ZM4528.27,672.128C4530.41,672.128 4532.16,673.871 4532.16,676.018C4532.16,678.164 4530.41,679.907 4528.27,679.907C4526.12,679.907 4524.38,678.164 4524.38,676.018C4524.38,673.871 4526.12,672.128 4528.27,672.128Z" style="fill:rgb(171,195,161);"/>
                </g>
                <g transform="matrix(0.52,-1.18952e-17,5.32907e-17,0.428571,222.064,241.653)">
                    <circle cx="4528.27" cy="676.018" r="4.889" style="fill:rgb(209,235,206);"/>
                    <path d="M4528.27,671.128C4530.97,671.128 4533.16,673.319 4533.16,676.018C4533.16,678.716 4530.97,680.907 4528.27,680.907C4525.57,680.907 4523.38,678.716 4523.38,676.018C4523.38,673.319 4525.57,671.128 4528.27,671.128ZM4528.27,672.128C4530.41,672.128 4532.16,673.871 4532.16,676.018C4532.16,678.164 4530.41,679.907 4528.27,679.907C4526.12,679.907 4524.38,678.164 4524.38,676.018C4524.38,673.871 4526.12,672.128 4528.27,672.128Z" style="fill:rgb(171,195,161);"/>
                </g>
            </g>
            <g>
                <g transform="matrix(0.139597,0,0,0.201681,1517.39,157.385)">
                    <rect x="7867" y="1719" width="149" height="85" style="fill:white;stroke:rgb(75,68,69);stroke-width:2.61px;"/>
                </g>
                <g transform="matrix(0.52,-1.18952e-17,5.32907e-17,0.428571,264.949,217.649)">
                    <circle cx="4528.27" cy="676.018" r="4.889" style="fill:rgb(209,235,206);"/>
                    <path d="M4528.27,671.128C4530.97,671.128 4533.16,673.319 4533.16,676.018C4533.16,678.716 4530.97,680.907 4528.27,680.907C4525.57,680.907 4523.38,678.716 4523.38,676.018C4523.38,673.319 4525.57,671.128 4528.27,671.128ZM4528.27,672.128C4530.41,672.128 4532.16,673.871 4532.16,676.018C4532.16,678.164 4530.41,679.907 4528.27,679.907C4526.12,679.907 4524.38,678.164 4524.38,676.018C4524.38,673.871 4526.12,672.128 4528.27,672.128Z" style="fill:rgb(171,195,161);"/>
                </g>
                <g transform="matrix(0.52,-1.18952e-17,5.32907e-17,0.428571,265.572,226.671)">
                    <circle cx="4528.27" cy="676.018" r="4.889" style="fill:rgb(209,235,206);"/>
                    <path d="M4528.27,671.128C4530.97,671.128 4533.16,673.319 4533.16,676.018C4533.16,678.716 4530.97,680.907 4528.27,680.907C4525.57,680.907 4523.38,678.716 4523.38,676.018C4523.38,673.319 4525.57,671.128 4528.27,671.128ZM4528.27,672.128C4530.41,672.128 4532.16,673.871 4532.16,676.018C4532.16,678.164 4530.41,679.907 4528.27,679.907C4526.12,679.907 4524.38,678.164 4524.38,676.018C4524.38,673.871 4526.12,672.128 4528.27,672.128Z" style="fill:rgb(171,195,161);"/>
                </g>
                <g transform="matrix(0.52,-1.18952e-17,5.32907e-17,0.428571,272.325,218.997)">
                    <circle cx="4528.27" cy="676.018" r="4.889" style="fill:rgb(209,235,206);"/>
                    <path d="M4528.27,671.128C4530.97,671.128 4533.16,673.319 4533.16,676.018C4533.16,678.716 4530.97,680.907 4528.27,680.907C4525.57,680.907 4523.38,678.716 4523.38,676.018C4523.38,673.319 4525.57,671.128 4528.27,671.128ZM4528.27,672.128C4530.41,672.128 4532.16,673.871 4532.16,676.018C4532.16,678.164 4530.41,679.907 4528.27,679.907C4526.12,679.907 4524.38,678.164 4524.38,676.018C4524.38,673.871 4526.12,672.128 4528.27,672.128Z" style="fill:rgb(171,195,161);"/>
                </g>
            </g>
            <g transform="matrix(-0.43584,-0.129819,0.0150902,-0.045379,2661.76,536.296)">
                <g transform="matrix(-1.08557,3.10557,-0.297522,-8.59313,295.372,970.393)">
                    <path d="M207.814,170.348L203.314,179.348L198.814,170.348L207.814,170.348Z" style="fill:rgb(46,112,183);"/>
                    <path d="M203.314,137.036L203.314,172.148" style="fill:none;stroke:rgb(46,112,183);stroke-width:3px;"/>
                </g>
            </g>
            <g transform="matrix(-0.43584,-0.129819,0.0150902,-0.045379,2579.6,508.554)">
                <g transform="matrix(-1.08557,3.10557,-0.297522,-8.59313,104.593,904.836)">
                    <path d="M49.814,105.618L45.314,114.618L40.814,105.618L49.814,105.618Z" style="fill:rgb(46,112,183);"/>
                    <path d="M45.314,72.305L45.314,107.418" style="fill:none;stroke:rgb(46,112,183);stroke-width:3px;"/>
                </g>
            </g>
            <g transform="matrix(-0.43584,-0.129773,0.0150902,-0.045363,2579.6,560.403)">
                <g transform="matrix(-1.08557,3.10557,-0.297626,-8.59615,140.613,1945.19)">
                    <path d="M102.189,248.111L107.946,256.364L97.89,256.018L102.189,248.111Z" style="fill:rgb(46,112,183);"/>
                    <path d="M45.314,222.305C45.314,222.305 85.715,244.275 101.621,252.925" style="fill:none;stroke:rgb(46,112,183);stroke-width:3px;"/>
                </g>
            </g>
            <g transform="matrix(-0.43584,-0.129819,0.0150902,-0.045379,2606.98,508.554)">
                <g transform="matrix(-1.08557,3.10557,-0.297522,-8.59313,161.767,741.276)">
                    <path d="M102.481,105.618L97.981,114.618L93.481,105.618L102.481,105.618Z" style="fill:rgb(46,112,183);"/>
                    <path d="M97.981,72.305L97.981,107.418" style="fill:none;stroke:rgb(46,112,183);stroke-width:3px;"/>
                </g>
            </g>
            <g transform="matrix(-0.43584,-0.129773,0.0150902,-0.045363,2606.98,560.403)">
                <g transform="matrix(-1.08557,3.10557,-0.297626,-8.59615,197.787,1781.63)">
                    <path d="M114.769,240.668L115.724,250.685L107.138,245.44L114.769,240.668Z" style="fill:rgb(46,112,183);"/>
                    <path d="M97.981,222.305C97.981,222.305 106.693,236.239 111.907,244.58" style="fill:none;stroke:rgb(46,112,183);stroke-width:3px;"/>
                </g>
            </g>
            <g transform="matrix(-0.43584,-0.129819,0.0150902,-0.045379,2634.37,508.554)">
                <g transform="matrix(-1.08557,3.10557,-0.297522,-8.59313,218.94,577.716)">
                    <path d="M155.147,105.618L150.647,114.618L146.147,105.618L155.147,105.618Z" style="fill:rgb(46,112,183);"/>
                    <path d="M150.647,72.305L150.647,107.418" style="fill:none;stroke:rgb(46,112,183);stroke-width:3px;"/>
                </g>
            </g>
            <g transform="matrix(-0.43584,-0.129773,0.0150902,-0.045363,2634.37,560.403)">
                <g transform="matrix(-1.08557,3.10557,-0.297626,-8.59615,254.961,1618.07)">
                    <path d="M138.288,246.433L129.304,250.964L131.07,241.058L138.288,246.433Z" style="fill:rgb(46,112,183);"/>
                    <path d="M150.647,222.305C150.647,222.305 139.838,236.819 133.604,245.189" style="fill:none;stroke:rgb(46,112,183);stroke-width:3px;"/>
                </g>
            </g>
            <g transform="matrix(-0.43584,-0.129819,0.0150902,-0.045379,2661.76,508.554)">
                <g transform="matrix(-1.08557,3.10557,-0.297522,-8.59313,276.114,414.156)">
                    <path d="M207.814,105.618L203.314,114.618L198.814,105.618L207.814,105.618Z" style="fill:rgb(46,112,183);"/>
                    <path d="M203.314,72.305L203.314,107.418" style="fill:none;stroke:rgb(46,112,183);stroke-width:3px;"/>
                </g>
            </g>
            <g transform="matrix(-0.43584,-0.129773,0.0150902,-0.045363,2661.76,560.403)">
                <g transform="matrix(-1.08557,3.10557,-0.297626,-8.59615,312.134,1454.51)">
                    <path d="M146.368,256.125L136.305,256.168L142.308,248.093L146.368,256.125Z" style="fill:rgb(46,112,183);"/>
                    <path d="M203.314,222.305C203.314,222.305 159.504,244.445 142.732,252.921" style="fill:none;stroke:rgb(46,112,183);stroke-width:3px;"/>
                </g>
            </g>
            <g transform="matrix(0.71299,0,0,0.428571,-3049.3,-278.792)">
                <rect x="7867" y="1719" width="149" height="85" style="fill:white;stroke:rgb(75,68,69);stroke-width:0.83px;"/>
            </g>
            <g transform="matrix(0.52,-1.18952e-17,5.32907e-17,0.428571,238.264,176.532)">
                <circle cx="4528.27" cy="676.018" r="4.889" style="fill:rgb(209,235,206);"/>
                <path d="M4528.27,671.128C4530.97,671.128 4533.16,673.319 4533.16,676.018C4533.16,678.716 4530.97,680.907 4528.27,680.907C4525.57,680.907 4523.38,678.716 4523.38,676.018C4523.38,673.319 4525.57,671.128 4528.27,671.128ZM4528.27,672.128C4530.41,672.128 4532.16,673.871 4532.16,676.018C4532.16,678.164 4530.41,679.907 4528.27,679.907C4526.12,679.907 4524.38,678.164 4524.38,676.018C4524.38,673.871 4526.12,672.128 4528.27,672.128Z" style="fill:rgb(171,195,161);"/>
            </g>
            <g transform="matrix(0.52,-1.18952e-17,5.32907e-17,0.428571,215.447,173.806)">
                <circle cx="4528.27" cy="676.018" r="4.889" style="fill:rgb(209,235,206);"/>
                <path d="M4528.27,671.128C4530.97,671.128 4533.16,673.319 4533.16,676.018C4533.16,678.716 4530.97,680.907 4528.27,680.907C4525.57,680.907 4523.38,678.716 4523.38,676.018C4523.38,673.319 4525.57,671.128 4528.27,671.128ZM4528.27,672.128C4530.41,672.128 4532.16,673.871 4532.16,676.018C4532.16,678.164 4530.41,679.907 4528.27,679.907C4526.12,679.907 4524.38,678.164 4524.38,676.018C4524.38,673.871 4526.12,672.128 4528.27,672.128Z" style="fill:rgb(171,195,161);"/>
            </g>
            <g transform="matrix(0.52,-1.18952e-17,5.32907e-17,0.428571,232.602,188.51)">
                <circle cx="4528.27" cy="676.018" r="4.889" style="fill:rgb(209,235,206);"/>
                <path d="M4528.27,671.128C4530.97,671.128 4533.16,673.319 4533.16,676.018C4533.16,678.716 4530.97,680.907 4528.27,680.907C4525.57,680.907 4523.38,678.716 4523.38,676.018C4523.38,673.319 4525.57,671.128 4528.27,671.128ZM4528.27,672.128C4530.41,672.128 4532.16,673.871 4532.16,676.018C4532.16,678.164 4530.41,679.907 4528.27,679.907C4526.12,679.907 4524.38,678.164 4524.38,676.018C4524.38,673.871 4526.12,672.128 4528.27,672.128Z" style="fill:rgb(171,195,161);"/>
            </g>
            <g transform="matrix(0.52,-1.18952e-17,5.32907e-17,0.428571,224.802,199.653)">
                <circle cx="4528.27" cy="676.018" r="4.889" style="fill:rgb(209,235,206);"/>
                <path d="M4528.27,671.128C4530.97,671.128 4533.16,673.319 4533.16,676.018C4533.16,678.716 4530.97,680.907 4528.27,680.907C4525.57,680.907 4523.38,678.716 4523.38,676.018C4523.38,673.319 4525.57,671.128 4528.27,671.128ZM4528.27,672.128C4530.41,672.128 4532.16,673.871 4532.16,676.018C4532.16,678.164 4530.41,679.907 4528.27,679.907C4526.12,679.907 4524.38,678.164 4524.38,676.018C4524.38,673.871 4526.12,672.128 4528.27,672.128Z" style="fill:rgb(171,195,161);"/>
            </g>
            <g transform="matrix(0.52,-1.18952e-17,5.32907e-17,0.428571,213.322,193.96)">
                <circle cx="4528.27" cy="676.018" r="4.889" style="fill:rgb(209,235,206);"/>
                <path d="M4528.27,671.128C4530.97,671.128 4533.16,673.319 4533.16,676.018C4533.16,678.716 4530.97,680.907 4528.27,680.907C4525.57,680.907 4523.38,678.716 4523.38,676.018C4523.38,673.319 4525.57,671.128 4528.27,671.128ZM4528.27,672.128C4530.41,672.128 4532.16,673.871 4532.16,676.018C4532.16,678.164 4530.41,679.907 4528.27,679.907C4526.12,679.907 4524.38,678.164 4524.38,676.018C4524.38,673.871 4526.12,672.128 4528.27,672.128Z" style="fill:rgb(171,195,161);"/>
            </g>
            <g transform="matrix(0.52,-1.18952e-17,5.32907e-17,0.428571,223.343,183.669)">
                <circle cx="4528.27" cy="676.018" r="4.889" style="fill:rgb(209,235,206);"/>
                <path d="M4528.27,671.128C4530.97,671.128 4533.16,673.319 4533.16,676.018C4533.16,678.716 4530.97,680.907 4528.27,680.907C4525.57,680.907 4523.38,678.716 4523.38,676.018C4523.38,673.319 4525.57,671.128 4528.27,671.128ZM4528.27,672.128C4530.41,672.128 4532.16,673.871 4532.16,676.018C4532.16,678.164 4530.41,679.907 4528.27,679.907C4526.12,679.907 4524.38,678.164 4524.38,676.018C4524.38,673.871 4526.12,672.128 4528.27,672.128Z" style="fill:rgb(171,195,161);"/>
            </g>
            <g transform="matrix(0.52,-1.18952e-17,5.32907e-17,0.428571,235.567,196.535)">
                <circle cx="4528.27" cy="676.018" r="4.889" style="fill:rgb(209,235,206);"/>
                <path d="M4528.27,671.128C4530.97,671.128 4533.16,673.319 4533.16,676.018C4533.16,678.716 4530.97,680.907 4528.27,680.907C4525.57,680.907 4523.38,678.716 4523.38,676.018C4523.38,673.319 4525.57,671.128 4528.27,671.128ZM4528.27,672.128C4530.41,672.128 4532.16,673.871 4532.16,676.018C4532.16,678.164 4530.41,679.907 4528.27,679.907C4526.12,679.907 4524.38,678.164 4524.38,676.018C4524.38,673.871 4526.12,672.128 4528.27,672.128Z" style="fill:rgb(171,195,161);"/>
            </g>
            <g transform="matrix(0.52,-1.18952e-17,5.32907e-17,0.428571,240.981,187.229)">
                <circle cx="4528.27" cy="676.018" r="4.889" style="fill:rgb(209,235,206);"/>
                <path d="M4528.27,671.128C4530.97,671.128 4533.16,673.319 4533.16,676.018C4533.16,678.716 4530.97,680.907 4528.27,680.907C4525.57,680.907 4523.38,678.716 4523.38,676.018C4523.38,673.319 4525.57,671.128 4528.27,671.128ZM4528.27,672.128C4530.41,672.128 4532.16,673.871 4532.16,676.018C4532.16,678.164 4530.41,679.907 4528.27,679.907C4526.12,679.907 4524.38,678.164 4524.38,676.018C4524.38,673.871 4526.12,672.128 4528.27,672.128Z" style="fill:rgb(171,195,161);"/>
            </g>
            <g transform="matrix(0.52,-1.18952e-17,5.32907e-17,0.428571,251.346,197.857)">
                <circle cx="4528.27" cy="676.018" r="4.889" style="fill:rgb(209,235,206);"/>
                <path d="M4528.27,671.128C4530.97,671.128 4533.16,673.319 4533.16,676.018C4533.16,678.716 4530.97,680.907 4528.27,680.907C4525.57,680.907 4523.38,678.716 4523.38,676.018C4523.38,673.319 4525.57,671.128 4528.27,671.128ZM4528.27,672.128C4530.41,672.128 4532.16,673.871 4532.16,676.018C4532.16,678.164 4530.41,679.907 4528.27,679.907C4526.12,679.907 4524.38,678.164 4524.38,676.018C4524.38,673.871 4526.12,672.128 4528.27,672.128Z" style="fill:rgb(171,195,161);"/>
            </g>
            <g transform="matrix(0.52,-1.18952e-17,5.32907e-17,0.428571,256.877,188.271)">
                <circle cx="4528.27" cy="676.018" r="4.889" style="fill:rgb(209,235,206);"/>
                <path d="M4528.27,671.128C4530.97,671.128 4533.16,673.319 4533.16,676.018C4533.16,678.716 4530.97,680.907 4528.27,680.907C4525.57,680.907 4523.38,678.716 4523.38,676.018C4523.38,673.319 4525.57,671.128 4528.27,671.128ZM4528.27,672.128C4530.41,672.128 4532.16,673.871 4532.16,676.018C4532.16,678.164 4530.41,679.907 4528.27,679.907C4526.12,679.907 4524.38,678.164 4524.38,676.018C4524.38,673.871 4526.12,672.128 4528.27,672.128Z" style="fill:rgb(171,195,161);"/>
            </g>
            <g transform="matrix(0.52,-1.18952e-17,5.32907e-17,0.428571,273.197,199.129)">
                <circle cx="4528.27" cy="676.018" r="4.889" style="fill:rgb(209,235,206);"/>
                <path d="M4528.27,671.128C4530.97,671.128 4533.16,673.319 4533.16,676.018C4533.16,678.716 4530.97,680.907 4528.27,680.907C4525.57,680.907 4523.38,678.716 4523.38,676.018C4523.38,673.319 4525.57,671.128 4528.27,671.128ZM4528.27,672.128C4530.41,672.128 4532.16,673.871 4532.16,676.018C4532.16,678.164 4530.41,679.907 4528.27,679.907C4526.12,679.907 4524.38,678.164 4524.38,676.018C4524.38,673.871 4526.12,672.128 4528.27,672.128Z" style="fill:rgb(171,195,161);"/>
            </g>
            <g transform="matrix(0.52,-1.18952e-17,5.32907e-17,0.428571,278.09,190.318)">
                <circle cx="4528.27" cy="676.018" r="4.889" style="fill:rgb(209,235,206);"/>
                <path d="M4528.27,671.128C4530.97,671.128 4533.16,673.319 4533.16,676.018C4533.16,678.716 4530.97,680.907 4528.27,680.907C4525.57,680.907 4523.38,678.716 4523.38,676.018C4523.38,673.319 4525.57,671.128 4528.27,671.128ZM4528.27,672.128C4530.41,672.128 4532.16,673.871 4532.16,676.018C4532.16,678.164 4530.41,679.907 4528.27,679.907C4526.12,679.907 4524.38,678.164 4524.38,676.018C4524.38,673.871 4526.12,672.128 4528.27,672.128Z" style="fill:rgb(171,195,161);"/>
            </g>
            <g transform="matrix(0.52,-1.18952e-17,5.32907e-17,0.428571,285.194,196.481)">
                <circle cx="4528.27" cy="676.018" r="4.889" style="fill:rgb(209,235,206);"/>
                <path d="M4528.27,671.128C4530.97,671.128 4533.16,673.319 4533.16,676.018C4533.16,678.716 4530.97,680.907 4528.27,680.907C4525.57,680.907 4523.38,678.716 4523.38,676.018C4523.38,673.319 4525.57,671.128 4528.27,671.128ZM4528.27,672.128C4530.41,672.128 4532.16,673.871 4532.16,676.018C4532.16,678.164 4530.41,679.907 4528.27,679.907C4526.12,679.907 4524.38,678.164 4524.38,676.018C4524.38,673.871 4526.12,672.128 4528.27,672.128Z" style="fill:rgb(171,195,161);"/>
            </g>
            <g transform="matrix(0.52,-1.18952e-17,5.32907e-17,0.428571,289.598,186.322)">
                <circle cx="4528.27" cy="676.018" r="4.889" style="fill:rgb(209,235,206);"/>
                <path d="M4528.27,671.128C4530.97,671.128 4533.16,673.319 4533.16,676.018C4533.16,678.716 4530.97,680.907 4528.27,680.907C4525.57,680.907 4523.38,678.716 4523.38,676.018C4523.38,673.319 4525.57,671.128 4528.27,671.128ZM4528.27,672.128C4530.41,672.128 4532.16,673.871 4532.16,676.018C4532.16,678.164 4530.41,679.907 4528.27,679.907C4526.12,679.907 4524.38,678.164 4524.38,676.018C4524.38,673.871 4526.12,672.128 4528.27,672.128Z" style="fill:rgb(171,195,161);"/>
            </g>
            <g transform="matrix(0.52,-1.18952e-17,5.32907e-17,0.428571,296.906,195.106)">
                <circle cx="4528.27" cy="676.018" r="4.889" style="fill:rgb(209,235,206);"/>
                <path d="M4528.27,671.128C4530.97,671.128 4533.16,673.319 4533.16,676.018C4533.16,678.716 4530.97,680.907 4528.27,680.907C4525.57,680.907 4523.38,678.716 4523.38,676.018C4523.38,673.319 4525.57,671.128 4528.27,671.128ZM4528.27,672.128C4530.41,672.128 4532.16,673.871 4532.16,676.018C4532.16,678.164 4530.41,679.907 4528.27,679.907C4526.12,679.907 4524.38,678.164 4524.38,676.018C4524.38,673.871 4526.12,672.128 4528.27,672.128Z" style="fill:rgb(171,195,161);"/>
            </g>
            <g transform="matrix(0.52,-1.18952e-17,5.32907e-17,0.428571,295.939,187.647)">
                <circle cx="4528.27" cy="676.018" r="4.889" style="fill:rgb(209,235,206);"/>
                <path d="M4528.27,671.128C4530.97,671.128 4533.16,673.319 4533.16,676.018C4533.16,678.716 4530.97,680.907 4528.27,680.907C4525.57,680.907 4523.38,678.716 4523.38,676.018C4523.38,673.319 4525.57,671.128 4528.27,671.128ZM4528.27,672.128C4530.41,672.128 4532.16,673.871 4532.16,676.018C4532.16,678.164 4530.41,679.907 4528.27,679.907C4526.12,679.907 4524.38,678.164 4524.38,676.018C4524.38,673.871 4526.12,672.128 4528.27,672.128Z" style="fill:rgb(171,195,161);"/>
            </g>
            <g transform="matrix(0.52,-1.18952e-17,5.32907e-17,0.428571,302.185,178.911)">
                <circle cx="4528.27" cy="676.018" r="4.889" style="fill:rgb(209,235,206);"/>
                <path d="M4528.27,671.128C4530.97,671.128 4533.16,673.319 4533.16,676.018C4533.16,678.716 4530.97,680.907 4528.27,680.907C4525.57,680.907 4523.38,678.716 4523.38,676.018C4523.38,673.319 4525.57,671.128 4528.27,671.128ZM4528.27,672.128C4530.41,672.128 4532.16,673.871 4532.16,676.018C4532.16,678.164 4530.41,679.907 4528.27,679.907C4526.12,679.907 4524.38,678.164 4524.38,676.018C4524.38,673.871 4526.12,672.128 4528.27,672.128Z" style="fill:rgb(171,195,161);"/>
            </g>
            <g transform="matrix(0.52,-1.18952e-17,5.32907e-17,0.428571,283.16,179.448)">
                <circle cx="4528.27" cy="676.018" r="4.889" style="fill:rgb(209,235,206);"/>
                <path d="M4528.27,671.128C4530.97,671.128 4533.16,673.319 4533.16,676.018C4533.16,678.716 4530.97,680.907 4528.27,680.907C4525.57,680.907 4523.38,678.716 4523.38,676.018C4523.38,673.319 4525.57,671.128 4528.27,671.128ZM4528.27,672.128C4530.41,672.128 4532.16,673.871 4532.16,676.018C4532.16,678.164 4530.41,679.907 4528.27,679.907C4526.12,679.907 4524.38,678.164 4524.38,676.018C4524.38,673.871 4526.12,672.128 4528.27,672.128Z" style="fill:rgb(171,195,161);"/>
            </g>
            <g transform="matrix(0.52,-1.18952e-17,5.32907e-17,0.428571,268.69,176.216)">
                <circle cx="4528.27" cy="676.018" r="4.889" style="fill:rgb(209,235,206);"/>
                <path d="M4528.27,671.128C4530.97,671.128 4533.16,673.319 4533.16,676.018C4533.16,678.716 4530.97,680.907 4528.27,680.907C4525.57,680.907 4523.38,678.716 4523.38,676.018C4523.38,673.319 4525.57,671.128 4528.27,671.128ZM4528.27,672.128C4530.41,672.128 4532.16,673.871 4532.16,676.018C4532.16,678.164 4530.41,679.907 4528.27,679.907C4526.12,679.907 4524.38,678.164 4524.38,676.018C4524.38,673.871 4526.12,672.128 4528.27,672.128Z" style="fill:rgb(171,195,161);"/>
            </g>
            <g transform="matrix(0.52,-1.18952e-17,5.32907e-17,0.428571,267.503,189.539)">
                <circle cx="4528.27" cy="676.018" r="4.889" style="fill:rgb(209,235,206);"/>
                <path d="M4528.27,671.128C4530.97,671.128 4533.16,673.319 4533.16,676.018C4533.16,678.716 4530.97,680.907 4528.27,680.907C4525.57,680.907 4523.38,678.716 4523.38,676.018C4523.38,673.319 4525.57,671.128 4528.27,671.128ZM4528.27,672.128C4530.41,672.128 4532.16,673.871 4532.16,676.018C4532.16,678.164 4530.41,679.907 4528.27,679.907C4526.12,679.907 4524.38,678.164 4524.38,676.018C4524.38,673.871 4526.12,672.128 4528.27,672.128Z" style="fill:rgb(171,195,161);"/>
            </g>
            <g transform="matrix(0.52,-1.18952e-17,5.32907e-17,0.428571,263.767,196.318)">
                <circle cx="4528.27" cy="676.018" r="4.889" style="fill:rgb(209,235,206);"/>
                <path d="M4528.27,671.128C4530.97,671.128 4533.16,673.319 4533.16,676.018C4533.16,678.716 4530.97,680.907 4528.27,680.907C4525.57,680.907 4523.38,678.716 4523.38,676.018C4523.38,673.319 4525.57,671.128 4528.27,671.128ZM4528.27,672.128C4530.41,672.128 4532.16,673.871 4532.16,676.018C4532.16,678.164 4530.41,679.907 4528.27,679.907C4526.12,679.907 4524.38,678.164 4524.38,676.018C4524.38,673.871 4526.12,672.128 4528.27,672.128Z" style="fill:rgb(171,195,161);"/>
            </g>
            <g transform="matrix(0.52,-1.18952e-17,5.32907e-17,0.428571,256.759,179.982)">
                <circle cx="4528.27" cy="676.018" r="4.889" style="fill:rgb(209,235,206);"/>
                <path d="M4528.27,671.128C4530.97,671.128 4533.16,673.319 4533.16,676.018C4533.16,678.716 4530.97,680.907 4528.27,680.907C4525.57,680.907 4523.38,678.716 4523.38,676.018C4523.38,673.319 4525.57,671.128 4528.27,671.128ZM4528.27,672.128C4530.41,672.128 4532.16,673.871 4532.16,676.018C4532.16,678.164 4530.41,679.907 4528.27,679.907C4526.12,679.907 4524.38,678.164 4524.38,676.018C4524.38,673.871 4526.12,672.128 4528.27,672.128Z" style="fill:rgb(171,195,161);"/>
            </g>
            <g transform="matrix(0.52,-1.18952e-17,5.32907e-17,0.428571,270.946,184.89)">
                <circle cx="4528.27" cy="676.018" r="4.889" style="fill:rgb(209,235,206);"/>
                <path d="M4528.27,671.128C4530.97,671.128 4533.16,673.319 4533.16,676.018C4533.16,678.716 4530.97,680.907 4528.27,680.907C4525.57,680.907 4523.38,678.716 4523.38,676.018C4523.38,673.319 4525.57,671.128 4528.27,671.128ZM4528.27,672.128C4530.41,672.128 4532.16,673.871 4532.16,676.018C4532.16,678.164 4530.41,679.907 4528.27,679.907C4526.12,679.907 4524.38,678.164 4524.38,676.018C4524.38,673.871 4526.12,672.128 4528.27,672.128Z" style="fill:rgb(171,195,161);"/>
            </g>
            <g transform="matrix(0.52,-1.18952e-17,5.32907e-17,0.428571,275.974,173.464)">
                <circle cx="4528.27" cy="676.018" r="4.889" style="fill:rgb(209,235,206);"/>
                <path d="M4528.27,671.128C4530.97,671.128 4533.16,673.319 4533.16,676.018C4533.16,678.716 4530.97,680.907 4528.27,680.907C4525.57,680.907 4523.38,678.716 4523.38,676.018C4523.38,673.319 4525.57,671.128 4528.27,671.128ZM4528.27,672.128C4530.41,672.128 4532.16,673.871 4532.16,676.018C4532.16,678.164 4530.41,679.907 4528.27,679.907C4526.12,679.907 4524.38,678.164 4524.38,676.018C4524.38,673.871 4526.12,672.128 4528.27,672.128Z" style="fill:rgb(171,195,161);"/>
            </g>
            <g transform="matrix(0.52,-1.18952e-17,5.32907e-17,0.428571,296.255,173.656)">
                <circle cx="4528.27" cy="676.018" r="4.889" style="fill:rgb(209,235,206);"/>
                <path d="M4528.27,671.128C4530.97,671.128 4533.16,673.319 4533.16,676.018C4533.16,678.716 4530.97,680.907 4528.27,680.907C4525.57,680.907 4523.38,678.716 4523.38,676.018C4523.38,673.319 4525.57,671.128 4528.27,671.128ZM4528.27,672.128C4530.41,672.128 4532.16,673.871 4532.16,676.018C4532.16,678.164 4530.41,679.907 4528.27,679.907C4526.12,679.907 4524.38,678.164 4524.38,676.018C4524.38,673.871 4526.12,672.128 4528.27,672.128Z" style="fill:rgb(171,195,161);"/>
            </g>
            <g transform="matrix(0.52,-1.18952e-17,5.32907e-17,0.428571,306.088,200.196)">
                <circle cx="4528.27" cy="676.018" r="4.889" style="fill:rgb(209,235,206);"/>
                <path d="M4528.27,671.128C4530.97,671.128 4533.16,673.319 4533.16,676.018C4533.16,678.716 4530.97,680.907 4528.27,680.907C4525.57,680.907 4523.38,678.716 4523.38,676.018C4523.38,673.319 4525.57,671.128 4528.27,671.128ZM4528.27,672.128C4530.41,672.128 4532.16,673.871 4532.16,676.018C4532.16,678.164 4530.41,679.907 4528.27,679.907C4526.12,679.907 4524.38,678.164 4524.38,676.018C4524.38,673.871 4526.12,672.128 4528.27,672.128Z" style="fill:rgb(171,195,161);"/>
            </g>
            <g transform="matrix(0.52,-1.18952e-17,5.32907e-17,0.428571,293.95,200.079)">
                <circle cx="4528.27" cy="676.018" r="4.889" style="fill:rgb(209,235,206);"/>
                <path d="M4528.27,671.128C4530.97,671.128 4533.16,673.319 4533.16,676.018C4533.16,678.716 4530.97,680.907 4528.27,680.907C4525.57,680.907 4523.38,678.716 4523.38,676.018C4523.38,673.319 4525.57,671.128 4528.27,671.128ZM4528.27,672.128C4530.41,672.128 4532.16,673.871 4532.16,676.018C4532.16,678.164 4530.41,679.907 4528.27,679.907C4526.12,679.907 4524.38,678.164 4524.38,676.018C4524.38,673.871 4526.12,672.128 4528.27,672.128Z" style="fill:rgb(171,195,161);"/>
            </g>
            <g transform="matrix(0.52,-1.18952e-17,5.32907e-17,0.428571,304.366,191.716)">
                <circle cx="4528.27" cy="676.018" r="4.889" style="fill:rgb(209,235,206);"/>
                <path d="M4528.27,671.128C4530.97,671.128 4533.16,673.319 4533.16,676.018C4533.16,678.716 4530.97,680.907 4528.27,680.907C4525.57,680.907 4523.38,678.716 4523.38,676.018C4523.38,673.319 4525.57,671.128 4528.27,671.128ZM4528.27,672.128C4530.41,672.128 4532.16,673.871 4532.16,676.018C4532.16,678.164 4530.41,679.907 4528.27,679.907C4526.12,679.907 4524.38,678.164 4524.38,676.018C4524.38,673.871 4526.12,672.128 4528.27,672.128Z" style="fill:rgb(171,195,161);"/>
            </g>
            <g transform="matrix(0.52,-1.18952e-17,5.32907e-17,0.428571,306.651,172.311)">
                <circle cx="4528.27" cy="676.018" r="4.889" style="fill:rgb(209,235,206);"/>
                <path d="M4528.27,671.128C4530.97,671.128 4533.16,673.319 4533.16,676.018C4533.16,678.716 4530.97,680.907 4528.27,680.907C4525.57,680.907 4523.38,678.716 4523.38,676.018C4523.38,673.319 4525.57,671.128 4528.27,671.128ZM4528.27,672.128C4530.41,672.128 4532.16,673.871 4532.16,676.018C4532.16,678.164 4530.41,679.907 4528.27,679.907C4526.12,679.907 4524.38,678.164 4524.38,676.018C4524.38,673.871 4526.12,672.128 4528.27,672.128Z" style="fill:rgb(171,195,161);"/>
            </g>
            <g transform="matrix(0.52,-1.18952e-17,5.32907e-17,0.428571,302.16,184.102)">
                <circle cx="4528.27" cy="676.018" r="4.889" style="fill:rgb(209,235,206);"/>
                <path d="M4528.27,671.128C4530.97,671.128 4533.16,673.319 4533.16,676.018C4533.16,678.716 4530.97,680.907 4528.27,680.907C4525.57,680.907 4523.38,678.716 4523.38,676.018C4523.38,673.319 4525.57,671.128 4528.27,671.128ZM4528.27,672.128C4530.41,672.128 4532.16,673.871 4532.16,676.018C4532.16,678.164 4530.41,679.907 4528.27,679.907C4526.12,679.907 4524.38,678.164 4524.38,676.018C4524.38,673.871 4526.12,672.128 4528.27,672.128Z" style="fill:rgb(171,195,161);"/>
            </g>
            <g transform="matrix(0.52,-1.18952e-17,5.32907e-17,0.428571,287.398,172.812)">
                <circle cx="4528.27" cy="676.018" r="4.889" style="fill:rgb(209,235,206);"/>
                <path d="M4528.27,671.128C4530.97,671.128 4533.16,673.319 4533.16,676.018C4533.16,678.716 4530.97,680.907 4528.27,680.907C4525.57,680.907 4523.38,678.716 4523.38,676.018C4523.38,673.319 4525.57,671.128 4528.27,671.128ZM4528.27,672.128C4530.41,672.128 4532.16,673.871 4532.16,676.018C4532.16,678.164 4530.41,679.907 4528.27,679.907C4526.12,679.907 4524.38,678.164 4524.38,676.018C4524.38,673.871 4526.12,672.128 4528.27,672.128Z" style="fill:rgb(171,195,161);"/>
            </g>
            <g transform="matrix(0.52,-1.18952e-17,5.32907e-17,0.428571,250.165,171.506)">
                <circle cx="4528.27" cy="676.018" r="4.889" style="fill:rgb(209,235,206);"/>
                <path d="M4528.27,671.128C4530.97,671.128 4533.16,673.319 4533.16,676.018C4533.16,678.716 4530.97,680.907 4528.27,680.907C4525.57,680.907 4523.38,678.716 4523.38,676.018C4523.38,673.319 4525.57,671.128 4528.27,671.128ZM4528.27,672.128C4530.41,672.128 4532.16,673.871 4532.16,676.018C4532.16,678.164 4530.41,679.907 4528.27,679.907C4526.12,679.907 4524.38,678.164 4524.38,676.018C4524.38,673.871 4526.12,672.128 4528.27,672.128Z" style="fill:rgb(171,195,161);"/>
            </g>
            <g transform="matrix(0.52,-1.18952e-17,5.32907e-17,0.428571,249.171,185.82)">
                <circle cx="4528.27" cy="676.018" r="4.889" style="fill:rgb(209,235,206);"/>
                <path d="M4528.27,671.128C4530.97,671.128 4533.16,673.319 4533.16,676.018C4533.16,678.716 4530.97,680.907 4528.27,680.907C4525.57,680.907 4523.38,678.716 4523.38,676.018C4523.38,673.319 4525.57,671.128 4528.27,671.128ZM4528.27,672.128C4530.41,672.128 4532.16,673.871 4532.16,676.018C4532.16,678.164 4530.41,679.907 4528.27,679.907C4526.12,679.907 4524.38,678.164 4524.38,676.018C4524.38,673.871 4526.12,672.128 4528.27,672.128Z" style="fill:rgb(171,195,161);"/>
            </g>
            <g transform="matrix(0.52,-1.18952e-17,5.32907e-17,0.428571,260.147,173.517)">
                <circle cx="4528.27" cy="676.018" r="4.889" style="fill:rgb(209,235,206);"/>
                <path d="M4528.27,671.128C4530.97,671.128 4533.16,673.319 4533.16,676.018C4533.16,678.716 4530.97,680.907 4528.27,680.907C4525.57,680.907 4523.38,678.716 4523.38,676.018C4523.38,673.319 4525.57,671.128 4528.27,671.128ZM4528.27,672.128C4530.41,672.128 4532.16,673.871 4532.16,676.018C4532.16,678.164 4530.41,679.907 4528.27,679.907C4526.12,679.907 4524.38,678.164 4524.38,676.018C4524.38,673.871 4526.12,672.128 4528.27,672.128Z" style="fill:rgb(171,195,161);"/>
            </g>
            <g transform="matrix(0.52,-1.18952e-17,5.32907e-17,0.428571,241.123,201.224)">
                <circle cx="4528.27" cy="676.018" r="4.889" style="fill:rgb(209,235,206);"/>
                <path d="M4528.27,671.128C4530.97,671.128 4533.16,673.319 4533.16,676.018C4533.16,678.716 4530.97,680.907 4528.27,680.907C4525.57,680.907 4523.38,678.716 4523.38,676.018C4523.38,673.319 4525.57,671.128 4528.27,671.128ZM4528.27,672.128C4530.41,672.128 4532.16,673.871 4532.16,676.018C4532.16,678.164 4530.41,679.907 4528.27,679.907C4526.12,679.907 4524.38,678.164 4524.38,676.018C4524.38,673.871 4526.12,672.128 4528.27,672.128Z" style="fill:rgb(171,195,161);"/>
            </g>
            <g transform="matrix(0.52,-1.18952e-17,5.32907e-17,0.428571,210.792,180.19)">
                <circle cx="4528.27" cy="676.018" r="4.889" style="fill:rgb(209,235,206);"/>
                <path d="M4528.27,671.128C4530.97,671.128 4533.16,673.319 4533.16,676.018C4533.16,678.716 4530.97,680.907 4528.27,680.907C4525.57,680.907 4523.38,678.716 4523.38,676.018C4523.38,673.319 4525.57,671.128 4528.27,671.128ZM4528.27,672.128C4530.41,672.128 4532.16,673.871 4532.16,676.018C4532.16,678.164 4530.41,679.907 4528.27,679.907C4526.12,679.907 4524.38,678.164 4524.38,676.018C4524.38,673.871 4526.12,672.128 4528.27,672.128Z" style="fill:rgb(171,195,161);"/>
            </g>
            <g transform="matrix(0.52,-1.18952e-17,5.32907e-17,0.428571,228.975,174.627)">
                <circle cx="4528.27" cy="676.018" r="4.889" style="fill:rgb(209,235,206);"/>
                <path d="M4528.27,671.128C4530.97,671.128 4533.16,673.319 4533.16,676.018C4533.16,678.716 4530.97,680.907 4528.27,680.907C4525.57,680.907 4523.38,678.716 4523.38,676.018C4523.38,673.319 4525.57,671.128 4528.27,671.128ZM4528.27,672.128C4530.41,672.128 4532.16,673.871 4532.16,676.018C4532.16,678.164 4530.41,679.907 4528.27,679.907C4526.12,679.907 4524.38,678.164 4524.38,676.018C4524.38,673.871 4526.12,672.128 4528.27,672.128Z" style="fill:rgb(171,195,161);"/>
            </g>
            <g transform="matrix(0.52,-1.18952e-17,5.32907e-17,0.428571,211.452,201.035)">
                <circle cx="4528.27" cy="676.018" r="4.889" style="fill:rgb(209,235,206);"/>
                <path d="M4528.27,671.128C4530.97,671.128 4533.16,673.319 4533.16,676.018C4533.16,678.716 4530.97,680.907 4528.27,680.907C4525.57,680.907 4523.38,678.716 4523.38,676.018C4523.38,673.319 4525.57,671.128 4528.27,671.128ZM4528.27,672.128C4530.41,672.128 4532.16,673.871 4532.16,676.018C4532.16,678.164 4530.41,679.907 4528.27,679.907C4526.12,679.907 4524.38,678.164 4524.38,676.018C4524.38,673.871 4526.12,672.128 4528.27,672.128Z" style="fill:rgb(171,195,161);"/>
            </g>
            <g transform="matrix(0.71299,0,0,0.428571,-3049.3,-278.792)">
                <rect x="7867" y="1719" width="149" height="85" style="fill:none;stroke:rgb(75,68,69);stroke-width:0.83px;"/>
            </g>
            <g transform="matrix(1,0,0,1,0.857742,12.4286)">
                <g transform="matrix(0.52,0,0,0.494686,-1513.86,-386.878)">
                    <path d="M7854.3,1835L7854.3,1856.23" style="fill:none;stroke:rgb(75,68,69);stroke-width:0.93px;"/>
                </g>
                <g transform="matrix(0.52,0,0,0.428571,-1525.3,-268.987)">
                    <path d="M7876.3,1856.23L7864,1856.23L7864,1867.51" style="fill:none;stroke:rgb(75,68,69);stroke-width:1px;"/>
                </g>
                <g transform="matrix(-0.52,0,0,0.428571,6666.04,-268.987)">
                    <path d="M7876.3,1856.23L7864,1856.23L7864,1867.51" style="fill:none;stroke:rgb(75,68,69);stroke-width:1px;"/>
                </g>
                <g transform="matrix(0.52,-1.18952e-17,5.32907e-17,0.428571,215.671,231.148)">
                    <circle cx="4528.27" cy="676.018" r="4.889" style="fill:rgb(209,235,206);"/>
                    <path d="M4528.27,671.128C4530.97,671.128 4533.16,673.319 4533.16,676.018C4533.16,678.716 4530.97,680.907 4528.27,680.907C4525.57,680.907 4523.38,678.716 4523.38,676.018C4523.38,673.319 4525.57,671.128 4528.27,671.128ZM4528.27,672.128C4530.41,672.128 4532.16,673.871 4532.16,676.018C4532.16,678.164 4530.41,679.907 4528.27,679.907C4526.12,679.907 4524.38,678.164 4524.38,676.018C4524.38,673.871 4526.12,672.128 4528.27,672.128Z" style="fill:rgb(171,195,161);"/>
                </g>
                <g transform="matrix(0.52,-1.18952e-17,5.32907e-17,0.428571,215.671,241.653)">
                    <circle cx="4528.27" cy="676.018" r="4.889" style="fill:rgb(209,235,206);"/>
                    <path d="M4528.27,671.128C4530.97,671.128 4533.16,673.319 4533.16,676.018C4533.16,678.716 4530.97,680.907 4528.27,680.907C4525.57,680.907 4523.38,678.716 4523.38,676.018C4523.38,673.319 4525.57,671.128 4528.27,671.128ZM4528.27,672.128C4530.41,672.128 4532.16,673.871 4532.16,676.018C4532.16,678.164 4530.41,679.907 4528.27,679.907C4526.12,679.907 4524.38,678.164 4524.38,676.018C4524.38,673.871 4526.12,672.128 4528.27,672.128Z" style="fill:rgb(171,195,161);"/>
                </g>
                <g transform="matrix(0.52,-1.18952e-17,5.32907e-17,0.428571,209.278,241.653)">
                    <circle cx="4528.27" cy="676.018" r="4.889" style="fill:rgb(209,235,206);"/>
                    <path d="M4528.27,671.128C4530.97,671.128 4533.16,673.319 4533.16,676.018C4533.16,678.716 4530.97,680.907 4528.27,680.907C4525.57,680.907 4523.38,678.716 4523.38,676.018C4523.38,673.319 4525.57,671.128 4528.27,671.128ZM4528.27,672.128C4530.41,672.128 4532.16,673.871 4532.16,676.018C4532.16,678.164 4530.41,679.907 4528.27,679.907C4526.12,679.907 4524.38,678.164 4524.38,676.018C4524.38,673.871 4526.12,672.128 4528.27,672.128Z" style="fill:rgb(171,195,161);"/>
                </g>
                <g transform="matrix(0.52,-1.18952e-17,5.32907e-17,0.428571,222.064,241.653)">
                    <circle cx="4528.27" cy="676.018" r="4.889" style="fill:rgb(209,235,206);"/>
                    <path d="M4528.27,671.128C4530.97,671.128 4533.16,673.319 4533.16,676.018C4533.16,678.716 4530.97,680.907 4528.27,680.907C4525.57,680.907 4523.38,678.716 4523.38,676.018C4523.38,673.319 4525.57,671.128 4528.27,671.128ZM4528.27,672.128C4530.41,672.128 4532.16,673.871 4532.16,676.018C4532.16,678.164 4530.41,679.907 4528.27,679.907C4526.12,679.907 4524.38,678.164 4524.38,676.018C4524.38,673.871 4526.12,672.128 4528.27,672.128Z" style="fill:rgb(171,195,161);"/>
                </g>
            </g>
            <g transform="matrix(1,0,0,1,28.2444,12.4286)">
                <g transform="matrix(0.52,0,0,0.494686,-1513.86,-386.878)">
                    <path d="M7854.3,1835L7854.3,1856.23" style="fill:none;stroke:rgb(75,68,69);stroke-width:0.93px;"/>
                </g>
                <g transform="matrix(0.52,0,0,0.428571,-1525.3,-268.987)">
                    <path d="M7876.3,1856.23L7864,1856.23L7864,1867.51" style="fill:none;stroke:rgb(75,68,69);stroke-width:1px;"/>
                </g>
                <g transform="matrix(-0.52,0,0,0.428571,6666.04,-268.987)">
                    <path d="M7876.3,1856.23L7864,1856.23L7864,1867.51" style="fill:none;stroke:rgb(75,68,69);stroke-width:1px;"/>
                </g>
                <g transform="matrix(0.52,-1.18952e-17,5.32907e-17,0.428571,215.671,231.148)">
                    <circle cx="4528.27" cy="676.018" r="4.889" style="fill:rgb(209,235,206);"/>
                    <path d="M4528.27,671.128C4530.97,671.128 4533.16,673.319 4533.16,676.018C4533.16,678.716 4530.97,680.907 4528.27,680.907C4525.57,680.907 4523.38,678.716 4523.38,676.018C4523.38,673.319 4525.57,671.128 4528.27,671.128ZM4528.27,672.128C4530.41,672.128 4532.16,673.871 4532.16,676.018C4532.16,678.164 4530.41,679.907 4528.27,679.907C4526.12,679.907 4524.38,678.164 4524.38,676.018C4524.38,673.871 4526.12,672.128 4528.27,672.128Z" style="fill:rgb(171,195,161);"/>
                </g>
                <g transform="matrix(0.52,-1.18952e-17,5.32907e-17,0.428571,215.671,241.653)">
                    <circle cx="4528.27" cy="676.018" r="4.889" style="fill:rgb(209,235,206);"/>
                    <path d="M4528.27,671.128C4530.97,671.128 4533.16,673.319 4533.16,676.018C4533.16,678.716 4530.97,680.907 4528.27,680.907C4525.57,680.907 4523.38,678.716 4523.38,676.018C4523.38,673.319 4525.57,671.128 4528.27,671.128ZM4528.27,672.128C4530.41,672.128 4532.16,673.871 4532.16,676.018C4532.16,678.164 4530.41,679.907 4528.27,679.907C4526.12,679.907 4524.38,678.164 4524.38,676.018C4524.38,673.871 4526.12,672.128 4528.27,672.128Z" style="fill:rgb(171,195,161);"/>
                </g>
                <g transform="matrix(0.52,-1.18952e-17,5.32907e-17,0.428571,209.278,241.653)">
                    <circle cx="4528.27" cy="676.018" r="4.889" style="fill:rgb(209,235,206);"/>
                    <path d="M4528.27,671.128C4530.97,671.128 4533.16,673.319 4533.16,676.018C4533.16,678.716 4530.97,680.907 4528.27,680.907C4525.57,680.907 4523.38,678.716 4523.38,676.018C4523.38,673.319 4525.57,671.128 4528.27,671.128ZM4528.27,672.128C4530.41,672.128 4532.16,673.871 4532.16,676.018C4532.16,678.164 4530.41,679.907 4528.27,679.907C4526.12,679.907 4524.38,678.164 4524.38,676.018C4524.38,673.871 4526.12,672.128 4528.27,672.128Z" style="fill:rgb(171,195,161);"/>
                </g>
                <g transform="matrix(0.52,-1.18952e-17,5.32907e-17,0.428571,222.064,241.653)">
                    <circle cx="4528.27" cy="676.018" r="4.889" style="fill:rgb(209,235,206);"/>
                    <path d="M4528.27,671.128C4530.97,671.128 4533.16,673.319 4533.16,676.018C4533.16,678.716 4530.97,680.907 4528.27,680.907C4525.57,680.907 4523.38,678.716 4523.38,676.018C4523.38,673.319 4525.57,671.128 4528.27,671.128ZM4528.27,672.128C4530.41,672.128 4532.16,673.871 4532.16,676.018C4532.16,678.164 4530.41,679.907 4528.27,679.907C4526.12,679.907 4524.38,678.164 4524.38,676.018C4524.38,673.871 4526.12,672.128 4528.27,672.128Z" style="fill:rgb(171,195,161);"/>
                </g>
            </g>
            <g transform="matrix(1,0,0,1,83.0177,12.4286)">
                <g transform="matrix(0.52,0,0,0.494686,-1513.86,-386.878)">
                    <path d="M7854.3,1835L7854.3,1856.23" style="fill:none;stroke:rgb(75,68,69);stroke-width:0.93px;"/>
                </g>
                <g transform="matrix(0.52,0,0,0.428571,-1525.3,-268.987)">
                    <path d="M7876.3,1856.23L7864,1856.23L7864,1867.51" style="fill:none;stroke:rgb(75,68,69);stroke-width:1px;"/>
                </g>
                <g transform="matrix(-0.52,0,0,0.428571,6666.04,-268.987)">
                    <path d="M7876.3,1856.23L7864,1856.23L7864,1867.51" style="fill:none;stroke:rgb(75,68,69);stroke-width:1px;"/>
                </g>
                <g transform="matrix(0.52,-1.18952e-17,5.32907e-17,0.428571,215.671,231.148)">
                    <circle cx="4528.27" cy="676.018" r="4.889" style="fill:rgb(209,235,206);"/>
                    <path d="M4528.27,671.128C4530.97,671.128 4533.16,673.319 4533.16,676.018C4533.16,678.716 4530.97,680.907 4528.27,680.907C4525.57,680.907 4523.38,678.716 4523.38,676.018C4523.38,673.319 4525.57,671.128 4528.27,671.128ZM4528.27,672.128C4530.41,672.128 4532.16,673.871 4532.16,676.018C4532.16,678.164 4530.41,679.907 4528.27,679.907C4526.12,679.907 4524.38,678.164 4524.38,676.018C4524.38,673.871 4526.12,672.128 4528.27,672.128Z" style="fill:rgb(171,195,161);"/>
                </g>
                <g transform="matrix(0.52,-1.18952e-17,5.32907e-17,0.428571,215.671,241.653)">
                    <circle cx="4528.27" cy="676.018" r="4.889" style="fill:rgb(209,235,206);"/>
                    <path d="M4528.27,671.128C4530.97,671.128 4533.16,673.319 4533.16,676.018C4533.16,678.716 4530.97,680.907 4528.27,680.907C4525.57,680.907 4523.38,678.716 4523.38,676.018C4523.38,673.319 4525.57,671.128 4528.27,671.128ZM4528.27,672.128C4530.41,672.128 4532.16,673.871 4532.16,676.018C4532.16,678.164 4530.41,679.907 4528.27,679.907C4526.12,679.907 4524.38,678.164 4524.38,676.018C4524.38,673.871 4526.12,672.128 4528.27,672.128Z" style="fill:rgb(171,195,161);"/>
                </g>
                <g transform="matrix(0.52,-1.18952e-17,5.32907e-17,0.428571,209.278,241.653)">
                    <circle cx="4528.27" cy="676.018" r="4.889" style="fill:rgb(209,235,206);"/>
                    <path d="M4528.27,671.128C4530.97,671.128 4533.16,673.319 4533.16,676.018C4533.16,678.716 4530.97,680.907 4528.27,680.907C4525.57,680.907 4523.38,678.716 4523.38,676.018C4523.38,673.319 4525.57,671.128 4528.27,671.128ZM4528.27,672.128C4530.41,672.128 4532.16,673.871 4532.16,676.018C4532.16,678.164 4530.41,679.907 4528.27,679.907C4526.12,679.907 4524.38,678.164 4524.38,676.018C4524.38,673.871 4526.12,672.128 4528.27,672.128Z" style="fill:rgb(171,195,161);"/>
                </g>
                <g transform="matrix(0.52,-1.18952e-17,5.32907e-17,0.428571,222.064,241.653)">
                    <circle cx="4528.27" cy="676.018" r="4.889" style="fill:rgb(209,235,206);"/>
                    <path d="M4528.27,671.128C4530.97,671.128 4533.16,673.319 4533.16,676.018C4533.16,678.716 4530.97,680.907 4528.27,680.907C4525.57,680.907 4523.38,678.716 4523.38,676.018C4523.38,673.319 4525.57,671.128 4528.27,671.128ZM4528.27,672.128C4530.41,672.128 4532.16,673.871 4532.16,676.018C4532.16,678.164 4530.41,679.907 4528.27,679.907C4526.12,679.907 4524.38,678.164 4524.38,676.018C4524.38,673.871 4526.12,672.128 4528.27,672.128Z" style="fill:rgb(171,195,161);"/>
                </g>
            </g>
            <g transform="matrix(1,0,0,1,0.317648,15.8571)">
                <g transform="matrix(1,0,0,1,-0.566566,-1.13687e-13)">
                    <g transform="matrix(0.52,0,0,0.267106,-1473.44,63.0741)">
                        <path d="M7854.3,1835L7854.3,1856.23" style="fill:none;stroke:rgb(75,68,69);stroke-width:1.2px;"/>
                    </g>
                    <g transform="matrix(0.993918,0,0,0.428571,-5217.6,-236.643)">
                        <path d="M7876.3,1856.23L7864,1856.23L7864,1867.51" style="fill:none;stroke:rgb(75,68,69);stroke-width:0.66px;"/>
                    </g>
                    <g transform="matrix(-0.993918,0,0,0.428571,10439.2,-236.643)">
                        <path d="M7876.3,1856.23L7864,1856.23L7864,1867.51" style="fill:none;stroke:rgb(75,68,69);stroke-width:0.66px;"/>
                    </g>
                    <g transform="matrix(0.52,-1.18952e-17,5.32907e-17,0.428571,256.095,263.492)">
                        <circle cx="4528.27" cy="676.018" r="4.889" style="fill:rgb(209,235,206);"/>
                        <path d="M4528.27,671.128C4530.97,671.128 4533.16,673.319 4533.16,676.018C4533.16,678.716 4530.97,680.907 4528.27,680.907C4525.57,680.907 4523.38,678.716 4523.38,676.018C4523.38,673.319 4525.57,671.128 4528.27,671.128ZM4528.27,672.128C4530.41,672.128 4532.16,673.871 4532.16,676.018C4532.16,678.164 4530.41,679.907 4528.27,679.907C4526.12,679.907 4524.38,678.164 4524.38,676.018C4524.38,673.871 4526.12,672.128 4528.27,672.128Z" style="fill:rgb(171,195,161);"/>
                    </g>
                </g>
                <g transform="matrix(0.361702,0,0,1,1647.28,21.0084)">
                    <g transform="matrix(0.52,0,0,0.267106,-1473.44,63.0741)">
                        <path d="M7854.3,1835L7854.3,1856.23" style="fill:none;stroke:rgb(75,68,69);stroke-width:1.96px;"/>
                    </g>
                    <g transform="matrix(0.993918,0,0,0.23853,-5217.6,116.119)">
                        <path d="M7876.3,1856.23L7864,1856.23L7864,1867.51" style="fill:none;stroke:rgb(75,68,69);stroke-width:1.59px;"/>
                    </g>
                    <g transform="matrix(-0.993918,0,0,0.23853,10439.2,116.119)">
                        <path d="M7876.3,1856.23L7864,1856.23L7864,1867.51" style="fill:none;stroke:rgb(75,68,69);stroke-width:1.59px;"/>
                    </g>
                </g>
                <g transform="matrix(0.361702,0,0,1,1660.28,21.0084)">
                    <g transform="matrix(0.52,0,0,0.267106,-1473.44,63.0741)">
                        <path d="M7854.3,1835L7854.3,1856.23" style="fill:none;stroke:rgb(75,68,69);stroke-width:1.96px;"/>
                    </g>
                    <g transform="matrix(0.993918,0,0,0.23853,-5217.6,116.119)">
                        <path d="M7876.3,1856.23L7864,1856.23L7864,1867.51" style="fill:none;stroke:rgb(75,68,69);stroke-width:1.59px;"/>
                    </g>
                    <g transform="matrix(-0.993918,0,0,0.23853,10439.2,116.119)">
                        <path d="M7876.3,1856.23L7864,1856.23L7864,1867.51" style="fill:none;stroke:rgb(75,68,69);stroke-width:1.59px;"/>
                    </g>
                </g>
                <g transform="matrix(0.361702,0,0,1,1671.72,21.0084)">
                    <g transform="matrix(0.52,0,0,0.267106,-1473.44,63.0741)">
                        <path d="M7854.3,1835L7854.3,1856.23" style="fill:none;stroke:rgb(75,68,69);stroke-width:1.96px;"/>
                    </g>
                    <g transform="matrix(0.993918,0,0,0.23853,-5217.6,116.119)">
                        <path d="M7876.3,1856.23L7864,1856.23L7864,1867.51" style="fill:none;stroke:rgb(75,68,69);stroke-width:1.59px;"/>
                    </g>
                    <g transform="matrix(-0.993918,0,0,0.23853,10439.2,116.119)">
                        <path d="M7876.3,1856.23L7864,1856.23L7864,1867.51" style="fill:none;stroke:rgb(75,68,69);stroke-width:1.59px;"/>
                    </g>
                </g>
                <g transform="matrix(0.361702,0,0,1,1684.72,21.0084)">
                    <g transform="matrix(0.52,0,0,0.267106,-1473.44,63.0741)">
                        <path d="M7854.3,1835L7854.3,1856.23" style="fill:none;stroke:rgb(75,68,69);stroke-width:1.96px;"/>
                    </g>
                    <g transform="matrix(0.993918,0,0,0.23853,-5217.6,116.119)">
                        <path d="M7876.3,1856.23L7864,1856.23L7864,1867.51" style="fill:none;stroke:rgb(75,68,69);stroke-width:1.59px;"/>
                    </g>
                    <g transform="matrix(-0.993918,0,0,0.23853,10439.2,116.119)">
                        <path d="M7876.3,1856.23L7864,1856.23L7864,1867.51" style="fill:none;stroke:rgb(75,68,69);stroke-width:1.59px;"/>
                    </g>
                </g>
                <g transform="matrix(1,0,0,1,52.0777,42.8482)">
                    <g transform="matrix(0.52,0,0,0.267106,-1513.86,30.7301)">
                        <path d="M7854.3,1835L7854.3,1856.23" style="fill:none;stroke:rgb(75,68,69);stroke-width:1.2px;"/>
                    </g>
                    <g transform="matrix(0.52,0,0,0.428571,-1525.3,-268.987)">
                        <path d="M7876.3,1856.23L7864,1856.23L7864,1867.51" style="fill:none;stroke:rgb(75,68,69);stroke-width:1px;"/>
                    </g>
                    <g transform="matrix(-0.52,0,0,0.428571,6666.04,-268.987)">
                        <path d="M7876.3,1856.23L7864,1856.23L7864,1867.51" style="fill:none;stroke:rgb(75,68,69);stroke-width:1px;"/>
                    </g>
                    <g transform="matrix(0.52,-1.18952e-17,5.32907e-17,0.428571,215.671,231.148)">
                        <circle cx="4528.27" cy="676.018" r="4.889" style="fill:rgb(209,235,206);"/>
                        <path d="M4528.27,671.128C4530.97,671.128 4533.16,673.319 4533.16,676.018C4533.16,678.716 4530.97,680.907 4528.27,680.907C4525.57,680.907 4523.38,678.716 4523.38,676.018C4523.38,673.319 4525.57,671.128 4528.27,671.128ZM4528.27,672.128C4530.41,672.128 4532.16,673.871 4532.16,676.018C4532.16,678.164 4530.41,679.907 4528.27,679.907C4526.12,679.907 4524.38,678.164 4524.38,676.018C4524.38,673.871 4526.12,672.128 4528.27,672.128Z" style="fill:rgb(171,195,161);"/>
                    </g>
                    <g transform="matrix(0.52,-1.18952e-17,5.32907e-17,0.428571,209.278,241.653)">
                        <circle cx="4528.27" cy="676.018" r="4.889" style="fill:rgb(209,235,206);"/>
                        <path d="M4528.27,671.128C4530.97,671.128 4533.16,673.319 4533.16,676.018C4533.16,678.716 4530.97,680.907 4528.27,680.907C4525.57,680.907 4523.38,678.716 4523.38,676.018C4523.38,673.319 4525.57,671.128 4528.27,671.128ZM4528.27,672.128C4530.41,672.128 4532.16,673.871 4532.16,676.018C4532.16,678.164 4530.41,679.907 4528.27,679.907C4526.12,679.907 4524.38,678.164 4524.38,676.018C4524.38,673.871 4526.12,672.128 4528.27,672.128Z" style="fill:rgb(171,195,161);"/>
                    </g>
                    <g transform="matrix(0.52,-1.18952e-17,5.32907e-17,0.428571,222.064,241.653)">
                        <circle cx="4528.27" cy="676.018" r="4.889" style="fill:rgb(209,235,206);"/>
                        <path d="M4528.27,671.128C4530.97,671.128 4533.16,673.319 4533.16,676.018C4533.16,678.716 4530.97,680.907 4528.27,680.907C4525.57,680.907 4523.38,678.716 4523.38,676.018C4523.38,673.319 4525.57,671.128 4528.27,671.128ZM4528.27,672.128C4530.41,672.128 4532.16,673.871 4532.16,676.018C4532.16,678.164 4530.41,679.907 4528.27,679.907C4526.12,679.907 4524.38,678.164 4524.38,676.018C4524.38,673.871 4526.12,672.128 4528.27,672.128Z" style="fill:rgb(171,195,161);"/>
                    </g>
                </g>
                <g transform="matrix(1,0,0,1,27.6377,42.8482)">
                    <g transform="matrix(0.52,0,0,0.267106,-1513.86,30.7301)">
                        <path d="M7854.3,1835L7854.3,1856.23" style="fill:none;stroke:rgb(75,68,69);stroke-width:1.2px;"/>
                    </g>
                    <g transform="matrix(0.52,0,0,0.428571,-1525.3,-268.987)">
                        <path d="M7876.3,1856.23L7864,1856.23L7864,1867.51" style="fill:none;stroke:rgb(75,68,69);stroke-width:1px;"/>
                    </g>
                    <g transform="matrix(-0.52,0,0,0.428571,6666.04,-268.987)">
                        <path d="M7876.3,1856.23L7864,1856.23L7864,1867.51" style="fill:none;stroke:rgb(75,68,69);stroke-width:1px;"/>
                    </g>
                    <g transform="matrix(0.52,-1.18952e-17,5.32907e-17,0.428571,215.671,231.148)">
                        <circle cx="4528.27" cy="676.018" r="4.889" style="fill:rgb(209,235,206);"/>
                        <path d="M4528.27,671.128C4530.97,671.128 4533.16,673.319 4533.16,676.018C4533.16,678.716 4530.97,680.907 4528.27,680.907C4525.57,680.907 4523.38,678.716 4523.38,676.018C4523.38,673.319 4525.57,671.128 4528.27,671.128ZM4528.27,672.128C4530.41,672.128 4532.16,673.871 4532.16,676.018C4532.16,678.164 4530.41,679.907 4528.27,679.907C4526.12,679.907 4524.38,678.164 4524.38,676.018C4524.38,673.871 4526.12,672.128 4528.27,672.128Z" style="fill:rgb(171,195,161);"/>
                    </g>
                    <g transform="matrix(0.52,-1.18952e-17,5.32907e-17,0.428571,209.278,241.653)">
                        <circle cx="4528.27" cy="676.018" r="4.889" style="fill:rgb(209,235,206);"/>
                        <path d="M4528.27,671.128C4530.97,671.128 4533.16,673.319 4533.16,676.018C4533.16,678.716 4530.97,680.907 4528.27,680.907C4525.57,680.907 4523.38,678.716 4523.38,676.018C4523.38,673.319 4525.57,671.128 4528.27,671.128ZM4528.27,672.128C4530.41,672.128 4532.16,673.871 4532.16,676.018C4532.16,678.164 4530.41,679.907 4528.27,679.907C4526.12,679.907 4524.38,678.164 4524.38,676.018C4524.38,673.871 4526.12,672.128 4528.27,672.128Z" style="fill:rgb(171,195,161);"/>
                    </g>
                    <g transform="matrix(0.52,-1.18952e-17,5.32907e-17,0.428571,222.064,241.653)">
                        <circle cx="4528.27" cy="676.018" r="4.889" style="fill:rgb(209,235,206);"/>
                        <path d="M4528.27,671.128C4530.97,671.128 4533.16,673.319 4533.16,676.018C4533.16,678.716 4530.97,680.907 4528.27,680.907C4525.57,680.907 4523.38,678.716 4523.38,676.018C4523.38,673.319 4525.57,671.128 4528.27,671.128ZM4528.27,672.128C4530.41,672.128 4532.16,673.871 4532.16,676.018C4532.16,678.164 4530.41,679.907 4528.27,679.907C4526.12,679.907 4524.38,678.164 4524.38,676.018C4524.38,673.871 4526.12,672.128 4528.27,672.128Z" style="fill:rgb(171,195,161);"/>
                    </g>
                </g>
            </g>
            <g>
                <g transform="matrix(0.139597,0,0,0.201681,1462.62,157.385)">
                    <rect x="7867" y="1719" width="149" height="85" style="fill:white;stroke:rgb(75,68,69);stroke-width:2.61px;"/>
                </g>
                <g transform="matrix(0.52,-1.18952e-17,5.32907e-17,0.428571,210.78,219.246)">
                    <circle cx="4528.27" cy="676.018" r="4.889" style="fill:rgb(209,235,206);"/>
                    <path d="M4528.27,671.128C4530.97,671.128 4533.16,673.319 4533.16,676.018C4533.16,678.716 4530.97,680.907 4528.27,680.907C4525.57,680.907 4523.38,678.716 4523.38,676.018C4523.38,673.319 4525.57,671.128 4528.27,671.128ZM4528.27,672.128C4530.41,672.128 4532.16,673.871 4532.16,676.018C4532.16,678.164 4530.41,679.907 4528.27,679.907C4526.12,679.907 4524.38,678.164 4524.38,676.018C4524.38,673.871 4526.12,672.128 4528.27,672.128Z" style="fill:rgb(171,195,161);"/>
                </g>
                <g transform="matrix(0.52,-1.18952e-17,5.32907e-17,0.428571,220.287,222.686)">
                    <circle cx="4528.27" cy="676.018" r="4.889" style="fill:rgb(209,235,206);"/>
                    <path d="M4528.27,671.128C4530.97,671.128 4533.16,673.319 4533.16,676.018C4533.16,678.716 4530.97,680.907 4528.27,680.907C4525.57,680.907 4523.38,678.716 4523.38,676.018C4523.38,673.319 4525.57,671.128 4528.27,671.128ZM4528.27,672.128C4530.41,672.128 4532.16,673.871 4532.16,676.018C4532.16,678.164 4530.41,679.907 4528.27,679.907C4526.12,679.907 4524.38,678.164 4524.38,676.018C4524.38,673.871 4526.12,672.128 4528.27,672.128Z" style="fill:rgb(171,195,161);"/>
                </g>
                <g transform="matrix(0.52,-1.18952e-17,5.32907e-17,0.428571,213.902,227.137)">
                    <circle cx="4528.27" cy="676.018" r="4.889" style="fill:rgb(209,235,206);"/>
                    <path d="M4528.27,671.128C4530.97,671.128 4533.16,673.319 4533.16,676.018C4533.16,678.716 4530.97,680.907 4528.27,680.907C4525.57,680.907 4523.38,678.716 4523.38,676.018C4523.38,673.319 4525.57,671.128 4528.27,671.128ZM4528.27,672.128C4530.41,672.128 4532.16,673.871 4532.16,676.018C4532.16,678.164 4530.41,679.907 4528.27,679.907C4526.12,679.907 4524.38,678.164 4524.38,676.018C4524.38,673.871 4526.12,672.128 4528.27,672.128Z" style="fill:rgb(171,195,161);"/>
                </g>
            </g>
            <g>
                <g transform="matrix(0.139597,0,0,0.201681,1490,157.385)">
                    <rect x="7867" y="1719" width="149" height="85" style="fill:white;stroke:rgb(75,68,69);stroke-width:2.61px;"/>
                </g>
                <g transform="matrix(0.52,-1.18952e-17,5.32907e-17,0.428571,240.611,225.141)">
                    <circle cx="4528.27" cy="676.018" r="4.889" style="fill:rgb(209,235,206);"/>
                    <path d="M4528.27,671.128C4530.97,671.128 4533.16,673.319 4533.16,676.018C4533.16,678.716 4530.97,680.907 4528.27,680.907C4525.57,680.907 4523.38,678.716 4523.38,676.018C4523.38,673.319 4525.57,671.128 4528.27,671.128ZM4528.27,672.128C4530.41,672.128 4532.16,673.871 4532.16,676.018C4532.16,678.164 4530.41,679.907 4528.27,679.907C4526.12,679.907 4524.38,678.164 4524.38,676.018C4524.38,673.871 4526.12,672.128 4528.27,672.128Z" style="fill:rgb(171,195,161);"/>
                </g>
                <g transform="matrix(0.52,-1.18952e-17,5.32907e-17,0.428571,242.264,218.685)">
                    <circle cx="4528.27" cy="676.018" r="4.889" style="fill:rgb(209,235,206);"/>
                    <path d="M4528.27,671.128C4530.97,671.128 4533.16,673.319 4533.16,676.018C4533.16,678.716 4530.97,680.907 4528.27,680.907C4525.57,680.907 4523.38,678.716 4523.38,676.018C4523.38,673.319 4525.57,671.128 4528.27,671.128ZM4528.27,672.128C4530.41,672.128 4532.16,673.871 4532.16,676.018C4532.16,678.164 4530.41,679.907 4528.27,679.907C4526.12,679.907 4524.38,678.164 4524.38,676.018C4524.38,673.871 4526.12,672.128 4528.27,672.128Z" style="fill:rgb(171,195,161);"/>
                </g>
                <g transform="matrix(0.52,-1.18952e-17,5.32907e-17,0.428571,248.489,227.223)">
                    <circle cx="4528.27" cy="676.018" r="4.889" style="fill:rgb(209,235,206);"/>
                    <path d="M4528.27,671.128C4530.97,671.128 4533.16,673.319 4533.16,676.018C4533.16,678.716 4530.97,680.907 4528.27,680.907C4525.57,680.907 4523.38,678.716 4523.38,676.018C4523.38,673.319 4525.57,671.128 4528.27,671.128ZM4528.27,672.128C4530.41,672.128 4532.16,673.871 4532.16,676.018C4532.16,678.164 4530.41,679.907 4528.27,679.907C4526.12,679.907 4524.38,678.164 4524.38,676.018C4524.38,673.871 4526.12,672.128 4528.27,672.128Z" style="fill:rgb(171,195,161);"/>
                </g>
            </g>
            <g>
                <g transform="matrix(0.139597,0,0,0.201681,1544.78,157.385)">
                    <rect x="7867" y="1719" width="149" height="85" style="fill:white;stroke:rgb(75,68,69);stroke-width:2.61px;"/>
                </g>
                <g transform="matrix(0.52,-1.18952e-17,5.32907e-17,0.428571,302.537,226.126)">
                    <circle cx="4528.27" cy="676.018" r="4.889" style="fill:rgb(209,235,206);"/>
                    <path d="M4528.27,671.128C4530.97,671.128 4533.16,673.319 4533.16,676.018C4533.16,678.716 4530.97,680.907 4528.27,680.907C4525.57,680.907 4523.38,678.716 4523.38,676.018C4523.38,673.319 4525.57,671.128 4528.27,671.128ZM4528.27,672.128C4530.41,672.128 4532.16,673.871 4532.16,676.018C4532.16,678.164 4530.41,679.907 4528.27,679.907C4526.12,679.907 4524.38,678.164 4524.38,676.018C4524.38,673.871 4526.12,672.128 4528.27,672.128Z" style="fill:rgb(171,195,161);"/>
                </g>
                <g transform="matrix(0.52,-1.18952e-17,5.32907e-17,0.428571,293.869,222.742)">
                    <circle cx="4528.27" cy="676.018" r="4.889" style="fill:rgb(209,235,206);"/>
                    <path d="M4528.27,671.128C4530.97,671.128 4533.16,673.319 4533.16,676.018C4533.16,678.716 4530.97,680.907 4528.27,680.907C4525.57,680.907 4523.38,678.716 4523.38,676.018C4523.38,673.319 4525.57,671.128 4528.27,671.128ZM4528.27,672.128C4530.41,672.128 4532.16,673.871 4532.16,676.018C4532.16,678.164 4530.41,679.907 4528.27,679.907C4526.12,679.907 4524.38,678.164 4524.38,676.018C4524.38,673.871 4526.12,672.128 4528.27,672.128Z" style="fill:rgb(171,195,161);"/>
                </g>
                <g transform="matrix(0.52,-1.18952e-17,5.32907e-17,0.428571,301.763,219.032)">
                    <circle cx="4528.27" cy="676.018" r="4.889" style="fill:rgb(209,235,206);"/>
                    <path d="M4528.27,671.128C4530.97,671.128 4533.16,673.319 4533.16,676.018C4533.16,678.716 4530.97,680.907 4528.27,680.907C4525.57,680.907 4523.38,678.716 4523.38,676.018C4523.38,673.319 4525.57,671.128 4528.27,671.128ZM4528.27,672.128C4530.41,672.128 4532.16,673.871 4532.16,676.018C4532.16,678.164 4530.41,679.907 4528.27,679.907C4526.12,679.907 4524.38,678.164 4524.38,676.018C4524.38,673.871 4526.12,672.128 4528.27,672.128Z" style="fill:rgb(171,195,161);"/>
                </g>
            </g>
        </g>
    </g>
</svg>
