<svg id="Слой_1" data-name="Слой 1" xmlns="http://www.w3.org/2000/svg" width="1042.7041" height="696.07729" viewBox="0 0 1042.7041 696.07729">
  <title>тц</title>
  <g>
    <line x1="543.91693" y1="108.77818" x2="552.91693" y2="108.77818" fill="none" stroke="#000" stroke-miterlimit="10" stroke-width="7.91426"/>
    <polyline points="125.917 692.778 3.917 692.778 3.917 108.778 517.917 108.778" fill="none" stroke="#000" stroke-miterlimit="10" stroke-width="7.91426"/>
    <polyline points="518.917 570.778 235.917 570.778 235.917 691.778 125.917 691.778" fill="none" stroke="#000" stroke-miterlimit="10" stroke-width="7.91426"/>
    <line x1="553.91693" y1="571.77818" x2="543.91693" y2="571.77818" fill="none" stroke="#000" stroke-miterlimit="10" stroke-width="7.91426"/>
    <polyline points="578.917 108.778 1038.917 108.778 1038.917 422.778 971.49 423.778 816.917 423.778 816.917 571.778 578.917 571.778" fill="none" stroke="#000" stroke-miterlimit="10" stroke-width="7.91426"/>
    <line x1="361.91693" y1="491.77818" x2="361.91693" y2="571.77818" fill="none" stroke="#000" stroke-miterlimit="10" stroke-width="3.95713"/>
    <line x1="361.91693" y1="299.77818" x2="361.91693" y2="465.77818" fill="none" stroke="#000" stroke-miterlimit="10" stroke-width="3.95713"/>
    <line x1="361.91693" y1="108.77818" x2="361.91693" y2="257.77818" fill="none" stroke="#000" stroke-miterlimit="10" stroke-width="3.95713"/>
    <line x1="383.91693" y1="228.77818" x2="361.91693" y2="228.77818" fill="none" stroke="#000" stroke-miterlimit="10" stroke-width="3.95713"/>
    <polyline points="430.917 107.778 430.917 228.778 408.917 228.778" fill="none" stroke="#000" stroke-miterlimit="10" stroke-width="3.95713"/>
    <line x1="361.91693" y1="452.77818" x2="3.91693" y2="452.77818" fill="none" stroke="#000" stroke-miterlimit="10" stroke-width="3.95713"/>
    <line x1="116.91693" y1="465.77818" x2="116.91693" y2="450.77818" fill="none" stroke="#000" stroke-miterlimit="10" stroke-width="3.95713"/>
    <line x1="116.91693" y1="611.77818" x2="116.91693" y2="491.77818" fill="none" stroke="#000" stroke-miterlimit="10" stroke-width="3.95713"/>
    <line x1="116.91693" y1="690.77818" x2="116.91693" y2="637.77818" fill="none" stroke="#000" stroke-miterlimit="10" stroke-width="3.95713"/>
    <line x1="116.91693" y1="575.77818" x2="3.91693" y2="575.77818" fill="none" stroke="#000" stroke-miterlimit="10" stroke-width="3.95713"/>
    <line x1="116.91693" y1="691.77818" x2="3.91693" y2="691.77818" fill="none" stroke="#000" stroke-miterlimit="10" stroke-width="3.95713"/>
    <line x1="699.91693" y1="459.77818" x2="699.91693" y2="571.77818" fill="none" stroke="#000" stroke-miterlimit="10" stroke-width="3.95713"/>
    <line x1="699.91693" y1="222.77818" x2="699.91693" y2="433.77818" fill="none" stroke="#000" stroke-miterlimit="10" stroke-width="3.95713"/>
    <line x1="911.91693" y1="222.77818" x2="1038.91693" y2="222.77818" fill="none" stroke="#000" stroke-miterlimit="10" stroke-width="3.95713"/>
    <line x1="699.91693" y1="222.77818" x2="875.91693" y2="222.77818" fill="none" stroke="#000" stroke-miterlimit="10" stroke-width="3.95713"/>
    <line x1="1038.91693" y1="422.77818" x2="699.91693" y2="422.77818" fill="none" stroke="#000" stroke-miterlimit="10" stroke-width="3.95713"/>
    <line x1="984.91693" y1="186.77818" x2="984.91693" y2="222.77818" fill="none" stroke="#000" stroke-miterlimit="10" stroke-width="3.95713"/>
    <polyline points="984.917 108.778 984.917 147.025 984.917 160.778" fill="none" stroke="#000" stroke-miterlimit="10" stroke-width="3.95713"/>
    <line x1="1038.91693" y1="315.77818" x2="923.91693" y2="315.77818" fill="none" stroke="#000" stroke-miterlimit="10" stroke-width="3.95713"/>
    <line x1="496.91693" y1="-0.22182" x2="496.91693" y2="108.77818" fill="none" stroke="#000" stroke-miterlimit="10" stroke-width="3.95713"/>
    <line x1="599.91693" y1="-0.22182" x2="599.91693" y2="108.77818" fill="none" stroke="#000" stroke-miterlimit="10" stroke-width="3.95713"/>
    <line x1="235.91693" y1="465.77818" x2="235.91693" y2="452.77818" fill="none" stroke="#000" stroke-miterlimit="10" stroke-width="3.95713"/>
    <line x1="235.91693" y1="602.77818" x2="235.91693" y2="491.77818" fill="none" stroke="#000" stroke-miterlimit="10" stroke-width="3.95713"/>
    <line x1="816.91693" y1="160.77818" x2="816.91693" y2="108.77818" fill="none" stroke="#000" stroke-miterlimit="10" stroke-width="3.95713"/>
    <line x1="923.91693" y1="263.77818" x2="923.91693" y2="386.77818" fill="none" stroke="#000" stroke-miterlimit="10" stroke-width="3.95713"/>
    <line x1="923.91693" y1="222.77818" x2="923.91693" y2="237.77818" fill="none" stroke="#000" stroke-miterlimit="10" stroke-width="3.95713"/>
    <line x1="923.91693" y1="407.77818" x2="923.91693" y2="422.77818" fill="none" stroke="#000" stroke-miterlimit="10" stroke-width="3.95713"/>
    <line x1="599.91693" y1="1.77818" x2="496.91693" y2="1.77818" fill="none" stroke="#000" stroke-miterlimit="10" stroke-width="1.97857"/>
    <line x1="599.91693" y1="9.77818" x2="496.91693" y2="9.77818" fill="none" stroke="#000" stroke-miterlimit="10" stroke-width="1.97857"/>
    <line x1="599.91693" y1="24.77818" x2="496.91693" y2="24.77818" fill="none" stroke="#000" stroke-miterlimit="10" stroke-width="1.97857"/>
    <line x1="599.91693" y1="39.77818" x2="496.91693" y2="39.77818" fill="none" stroke="#000" stroke-miterlimit="10" stroke-width="1.97857"/>
    <line x1="599.91693" y1="16.77818" x2="496.91693" y2="16.77818" fill="none" stroke="#000" stroke-miterlimit="10" stroke-width="1.97857"/>
    <line x1="599.91693" y1="31.77818" x2="496.91693" y2="31.77818" fill="none" stroke="#000" stroke-miterlimit="10" stroke-width="1.97857"/>
    <line x1="599.91693" y1="46.77818" x2="496.91693" y2="46.77818" fill="none" stroke="#000" stroke-miterlimit="10" stroke-width="1.97857"/>
    <line x1="599.91693" y1="54.77818" x2="496.91693" y2="54.77818" fill="none" stroke="#000" stroke-miterlimit="10" stroke-width="1.97857"/>
    <line x1="600.91693" y1="692.77818" x2="600.91693" y2="571.77818" fill="none" stroke="#000" stroke-miterlimit="10" stroke-width="3.95713"/>
    <line x1="497.91693" y1="692.77818" x2="497.91693" y2="571.77818" fill="none" stroke="#000" stroke-miterlimit="10" stroke-width="3.95713"/>
    <line x1="497.91693" y1="690.77818" x2="600.91693" y2="690.77818" fill="none" stroke="#000" stroke-miterlimit="10" stroke-width="1.97857"/>
    <line x1="497.91693" y1="682.77818" x2="600.91693" y2="682.77818" fill="none" stroke="#000" stroke-miterlimit="10" stroke-width="1.97857"/>
    <line x1="497.91693" y1="667.77818" x2="600.91693" y2="667.77818" fill="none" stroke="#000" stroke-miterlimit="10" stroke-width="1.97857"/>
    <line x1="497.91693" y1="652.77818" x2="600.91693" y2="652.77818" fill="none" stroke="#000" stroke-miterlimit="10" stroke-width="1.97857"/>
    <line x1="497.91693" y1="675.77818" x2="600.91693" y2="675.77818" fill="none" stroke="#000" stroke-miterlimit="10" stroke-width="1.97857"/>
    <line x1="497.91693" y1="660.77818" x2="600.91693" y2="660.77818" fill="none" stroke="#000" stroke-miterlimit="10" stroke-width="1.97857"/>
    <line x1="497.91693" y1="645.77818" x2="600.91693" y2="645.77818" fill="none" stroke="#000" stroke-miterlimit="10" stroke-width="1.97857"/>
    <line x1="497.91693" y1="637.77818" x2="600.91693" y2="637.77818" fill="none" stroke="#000" stroke-miterlimit="10" stroke-width="1.97857"/>
    <line x1="740.91693" y1="475.77818" x2="816.91693" y2="475.77818" fill="none" stroke="#000" stroke-miterlimit="10" stroke-width="3.95713"/>
    <line x1="699.91693" y1="475.77818" x2="719.91693" y2="475.77818" fill="none" stroke="#000" stroke-miterlimit="10" stroke-width="3.95713"/>
  </g>
</svg>
