<?xml version="1.0" encoding="UTF-8" standalone="no"?>
<!DOCTYPE svg PUBLIC "-//W3C//DTD SVG 1.1//EN" "http://www.w3.org/Graphics/SVG/1.1/DTD/svg11.dtd">
<svg width="100%" height="100%" viewBox="0 0 251 351" version="1.1" xmlns="http://www.w3.org/2000/svg" xmlns:xlink="http://www.w3.org/1999/xlink" xml:space="preserve" xmlns:serif="http://www.serif.com/" style="fill-rule:evenodd;clip-rule:evenodd;stroke-linecap:round;stroke-linejoin:round;stroke-miterlimit:1.5;">
    <g transform="matrix(1,0,0,1,-7833,-1687)">
        <g id="_016_a01" serif:id="016_a01" transform="matrix(1.92308,0,0,2.33333,2933.28,627.636)">
            <rect x="2547.91" y="454.279" width="130" height="150" style="fill:none;"/>
            <g transform="matrix(-0.43584,-0.129819,0.0150902,-0.045379,2579.6,517.126)">
                <g transform="matrix(-1.08557,3.10557,-0.297522,-8.59313,110.074,1075.89)">
                    <path d="M49.444,125.39L44.944,134.39L40.444,125.39L49.444,125.39Z" style="fill:rgb(46,112,183);"/>
                    <path d="M44.944,92.078L44.944,127.19" style="fill:none;stroke:rgb(46,112,183);stroke-width:3px;"/>
                </g>
            </g>
            <g transform="matrix(-0.43584,-0.129773,0.0150902,-0.045363,2579.6,560.403)">
                <g transform="matrix(-1.08557,3.10557,-0.297626,-8.59615,140.144,1944.38)">
                    <path d="M104.502,246.556L107.576,256.137L98.067,252.848L104.502,246.556Z" style="fill:rgb(46,112,183);"/>
                    <path d="M44.944,192.078C44.944,192.078 87.668,235.775 102.543,250.989" style="fill:none;stroke:rgb(46,112,183);stroke-width:3px;"/>
                </g>
            </g>
            <g transform="matrix(-0.43584,-0.129819,0.0150902,-0.045379,2606.98,517.126)">
                <g transform="matrix(-1.08557,3.10557,-0.297522,-8.59313,167.248,912.333)">
                    <path d="M102.111,125.39L97.611,134.39L93.111,125.39L102.111,125.39Z" style="fill:rgb(46,112,183);"/>
                    <path d="M97.611,92.078L97.611,127.19" style="fill:none;stroke:rgb(46,112,183);stroke-width:3px;"/>
                </g>
            </g>
            <g transform="matrix(-0.43584,-0.129773,0.0150902,-0.045363,2606.98,560.403)">
                <g transform="matrix(-1.08557,3.10557,-0.297626,-8.59615,197.318,1780.82)">
                    <path d="M117.043,240.538L115.355,250.458L108.432,243.155L117.043,240.538Z" style="fill:rgb(46,112,183);"/>
                    <path d="M97.611,192.078C97.611,192.078 108.567,228.125 113.261,243.569" style="fill:none;stroke:rgb(46,112,183);stroke-width:3px;"/>
                </g>
            </g>
            <g transform="matrix(-0.43584,-0.129819,0.0150902,-0.045379,2634.37,517.126)">
                <g transform="matrix(-1.08557,3.10557,-0.297522,-8.59313,224.422,748.773)">
                    <path d="M154.778,125.39L150.278,134.39L145.778,125.39L154.778,125.39Z" style="fill:rgb(46,112,183);"/>
                    <path d="M150.278,92.078L150.278,127.19" style="fill:none;stroke:rgb(46,112,183);stroke-width:3px;"/>
                </g>
            </g>
            <g transform="matrix(-0.43584,-0.129773,0.0150902,-0.045363,2634.37,560.403)">
                <g transform="matrix(-1.08557,3.10557,-0.297626,-8.59615,254.491,1617.26)">
                    <path d="M136.24,243.817L128.934,250.736L127.782,240.74L136.24,243.817Z" style="fill:rgb(46,112,183);"/>
                    <path d="M150.278,192.078C150.278,192.078 137.01,228.541 131.396,243.97" style="fill:none;stroke:rgb(46,112,183);stroke-width:3px;"/>
                </g>
            </g>
            <g transform="matrix(-0.43584,-0.129819,0.0150902,-0.045379,2661.76,517.126)">
                <g transform="matrix(-1.08557,3.10557,-0.297522,-8.59313,281.595,585.213)">
                    <path d="M207.444,125.39L202.944,134.39L198.444,125.39L207.444,125.39Z" style="fill:rgb(46,112,183);"/>
                    <path d="M202.944,92.078L202.944,127.19" style="fill:none;stroke:rgb(46,112,183);stroke-width:3px;"/>
                </g>
            </g>
            <g transform="matrix(-0.43584,-0.129773,0.0150902,-0.045363,2661.76,560.403)">
                <g transform="matrix(-1.08557,3.10557,-0.297626,-8.59615,311.665,1453.7)">
                    <path d="M145.555,252.989L135.936,255.941L139.346,246.474L145.555,252.989Z" style="fill:rgb(46,112,183);"/>
                    <path d="M202.944,192.078C202.944,192.078 156.901,235.96 141.148,250.974" style="fill:none;stroke:rgb(46,112,183);stroke-width:3px;"/>
                </g>
            </g>
            <g transform="matrix(0.71299,0,0,0.428571,-3049.3,-278.792)">
                <rect x="7867" y="1719" width="149" height="85" style="fill:white;stroke:rgb(75,68,69);stroke-width:0.83px;"/>
            </g>
            <g transform="matrix(0.52,-1.18952e-17,5.32907e-17,0.428571,238.264,176.532)">
                <circle cx="4528.27" cy="676.018" r="4.889" style="fill:rgb(209,235,206);"/>
                <path d="M4528.27,671.128C4530.97,671.128 4533.16,673.319 4533.16,676.018C4533.16,678.716 4530.97,680.907 4528.27,680.907C4525.57,680.907 4523.38,678.716 4523.38,676.018C4523.38,673.319 4525.57,671.128 4528.27,671.128ZM4528.27,672.128C4530.41,672.128 4532.16,673.871 4532.16,676.018C4532.16,678.164 4530.41,679.907 4528.27,679.907C4526.12,679.907 4524.38,678.164 4524.38,676.018C4524.38,673.871 4526.12,672.128 4528.27,672.128Z" style="fill:rgb(171,195,161);"/>
            </g>
            <g transform="matrix(0.52,-1.18952e-17,5.32907e-17,0.428571,215.447,173.806)">
                <circle cx="4528.27" cy="676.018" r="4.889" style="fill:rgb(209,235,206);"/>
                <path d="M4528.27,671.128C4530.97,671.128 4533.16,673.319 4533.16,676.018C4533.16,678.716 4530.97,680.907 4528.27,680.907C4525.57,680.907 4523.38,678.716 4523.38,676.018C4523.38,673.319 4525.57,671.128 4528.27,671.128ZM4528.27,672.128C4530.41,672.128 4532.16,673.871 4532.16,676.018C4532.16,678.164 4530.41,679.907 4528.27,679.907C4526.12,679.907 4524.38,678.164 4524.38,676.018C4524.38,673.871 4526.12,672.128 4528.27,672.128Z" style="fill:rgb(171,195,161);"/>
            </g>
            <g transform="matrix(0.52,-1.18952e-17,5.32907e-17,0.428571,232.602,188.51)">
                <circle cx="4528.27" cy="676.018" r="4.889" style="fill:rgb(209,235,206);"/>
                <path d="M4528.27,671.128C4530.97,671.128 4533.16,673.319 4533.16,676.018C4533.16,678.716 4530.97,680.907 4528.27,680.907C4525.57,680.907 4523.38,678.716 4523.38,676.018C4523.38,673.319 4525.57,671.128 4528.27,671.128ZM4528.27,672.128C4530.41,672.128 4532.16,673.871 4532.16,676.018C4532.16,678.164 4530.41,679.907 4528.27,679.907C4526.12,679.907 4524.38,678.164 4524.38,676.018C4524.38,673.871 4526.12,672.128 4528.27,672.128Z" style="fill:rgb(171,195,161);"/>
            </g>
            <g transform="matrix(0.52,-1.18952e-17,5.32907e-17,0.428571,224.802,199.653)">
                <circle cx="4528.27" cy="676.018" r="4.889" style="fill:rgb(209,235,206);"/>
                <path d="M4528.27,671.128C4530.97,671.128 4533.16,673.319 4533.16,676.018C4533.16,678.716 4530.97,680.907 4528.27,680.907C4525.57,680.907 4523.38,678.716 4523.38,676.018C4523.38,673.319 4525.57,671.128 4528.27,671.128ZM4528.27,672.128C4530.41,672.128 4532.16,673.871 4532.16,676.018C4532.16,678.164 4530.41,679.907 4528.27,679.907C4526.12,679.907 4524.38,678.164 4524.38,676.018C4524.38,673.871 4526.12,672.128 4528.27,672.128Z" style="fill:rgb(171,195,161);"/>
            </g>
            <g transform="matrix(0.52,-1.18952e-17,5.32907e-17,0.428571,213.322,193.96)">
                <circle cx="4528.27" cy="676.018" r="4.889" style="fill:rgb(209,235,206);"/>
                <path d="M4528.27,671.128C4530.97,671.128 4533.16,673.319 4533.16,676.018C4533.16,678.716 4530.97,680.907 4528.27,680.907C4525.57,680.907 4523.38,678.716 4523.38,676.018C4523.38,673.319 4525.57,671.128 4528.27,671.128ZM4528.27,672.128C4530.41,672.128 4532.16,673.871 4532.16,676.018C4532.16,678.164 4530.41,679.907 4528.27,679.907C4526.12,679.907 4524.38,678.164 4524.38,676.018C4524.38,673.871 4526.12,672.128 4528.27,672.128Z" style="fill:rgb(171,195,161);"/>
            </g>
            <g transform="matrix(0.52,-1.18952e-17,5.32907e-17,0.428571,223.343,183.669)">
                <circle cx="4528.27" cy="676.018" r="4.889" style="fill:rgb(209,235,206);"/>
                <path d="M4528.27,671.128C4530.97,671.128 4533.16,673.319 4533.16,676.018C4533.16,678.716 4530.97,680.907 4528.27,680.907C4525.57,680.907 4523.38,678.716 4523.38,676.018C4523.38,673.319 4525.57,671.128 4528.27,671.128ZM4528.27,672.128C4530.41,672.128 4532.16,673.871 4532.16,676.018C4532.16,678.164 4530.41,679.907 4528.27,679.907C4526.12,679.907 4524.38,678.164 4524.38,676.018C4524.38,673.871 4526.12,672.128 4528.27,672.128Z" style="fill:rgb(171,195,161);"/>
            </g>
            <g transform="matrix(0.52,-1.18952e-17,5.32907e-17,0.428571,235.567,196.535)">
                <circle cx="4528.27" cy="676.018" r="4.889" style="fill:rgb(209,235,206);"/>
                <path d="M4528.27,671.128C4530.97,671.128 4533.16,673.319 4533.16,676.018C4533.16,678.716 4530.97,680.907 4528.27,680.907C4525.57,680.907 4523.38,678.716 4523.38,676.018C4523.38,673.319 4525.57,671.128 4528.27,671.128ZM4528.27,672.128C4530.41,672.128 4532.16,673.871 4532.16,676.018C4532.16,678.164 4530.41,679.907 4528.27,679.907C4526.12,679.907 4524.38,678.164 4524.38,676.018C4524.38,673.871 4526.12,672.128 4528.27,672.128Z" style="fill:rgb(171,195,161);"/>
            </g>
            <g transform="matrix(0.52,-1.18952e-17,5.32907e-17,0.428571,240.981,187.229)">
                <circle cx="4528.27" cy="676.018" r="4.889" style="fill:rgb(209,235,206);"/>
                <path d="M4528.27,671.128C4530.97,671.128 4533.16,673.319 4533.16,676.018C4533.16,678.716 4530.97,680.907 4528.27,680.907C4525.57,680.907 4523.38,678.716 4523.38,676.018C4523.38,673.319 4525.57,671.128 4528.27,671.128ZM4528.27,672.128C4530.41,672.128 4532.16,673.871 4532.16,676.018C4532.16,678.164 4530.41,679.907 4528.27,679.907C4526.12,679.907 4524.38,678.164 4524.38,676.018C4524.38,673.871 4526.12,672.128 4528.27,672.128Z" style="fill:rgb(171,195,161);"/>
            </g>
            <g transform="matrix(0.52,-1.18952e-17,5.32907e-17,0.428571,251.346,197.857)">
                <circle cx="4528.27" cy="676.018" r="4.889" style="fill:rgb(209,235,206);"/>
                <path d="M4528.27,671.128C4530.97,671.128 4533.16,673.319 4533.16,676.018C4533.16,678.716 4530.97,680.907 4528.27,680.907C4525.57,680.907 4523.38,678.716 4523.38,676.018C4523.38,673.319 4525.57,671.128 4528.27,671.128ZM4528.27,672.128C4530.41,672.128 4532.16,673.871 4532.16,676.018C4532.16,678.164 4530.41,679.907 4528.27,679.907C4526.12,679.907 4524.38,678.164 4524.38,676.018C4524.38,673.871 4526.12,672.128 4528.27,672.128Z" style="fill:rgb(171,195,161);"/>
            </g>
            <g transform="matrix(0.52,-1.18952e-17,5.32907e-17,0.428571,256.877,188.271)">
                <circle cx="4528.27" cy="676.018" r="4.889" style="fill:rgb(209,235,206);"/>
                <path d="M4528.27,671.128C4530.97,671.128 4533.16,673.319 4533.16,676.018C4533.16,678.716 4530.97,680.907 4528.27,680.907C4525.57,680.907 4523.38,678.716 4523.38,676.018C4523.38,673.319 4525.57,671.128 4528.27,671.128ZM4528.27,672.128C4530.41,672.128 4532.16,673.871 4532.16,676.018C4532.16,678.164 4530.41,679.907 4528.27,679.907C4526.12,679.907 4524.38,678.164 4524.38,676.018C4524.38,673.871 4526.12,672.128 4528.27,672.128Z" style="fill:rgb(171,195,161);"/>
            </g>
            <g transform="matrix(0.52,-1.18952e-17,5.32907e-17,0.428571,273.197,199.129)">
                <circle cx="4528.27" cy="676.018" r="4.889" style="fill:rgb(209,235,206);"/>
                <path d="M4528.27,671.128C4530.97,671.128 4533.16,673.319 4533.16,676.018C4533.16,678.716 4530.97,680.907 4528.27,680.907C4525.57,680.907 4523.38,678.716 4523.38,676.018C4523.38,673.319 4525.57,671.128 4528.27,671.128ZM4528.27,672.128C4530.41,672.128 4532.16,673.871 4532.16,676.018C4532.16,678.164 4530.41,679.907 4528.27,679.907C4526.12,679.907 4524.38,678.164 4524.38,676.018C4524.38,673.871 4526.12,672.128 4528.27,672.128Z" style="fill:rgb(171,195,161);"/>
            </g>
            <g transform="matrix(0.52,-1.18952e-17,5.32907e-17,0.428571,278.09,190.318)">
                <circle cx="4528.27" cy="676.018" r="4.889" style="fill:rgb(209,235,206);"/>
                <path d="M4528.27,671.128C4530.97,671.128 4533.16,673.319 4533.16,676.018C4533.16,678.716 4530.97,680.907 4528.27,680.907C4525.57,680.907 4523.38,678.716 4523.38,676.018C4523.38,673.319 4525.57,671.128 4528.27,671.128ZM4528.27,672.128C4530.41,672.128 4532.16,673.871 4532.16,676.018C4532.16,678.164 4530.41,679.907 4528.27,679.907C4526.12,679.907 4524.38,678.164 4524.38,676.018C4524.38,673.871 4526.12,672.128 4528.27,672.128Z" style="fill:rgb(171,195,161);"/>
            </g>
            <g transform="matrix(0.52,-1.18952e-17,5.32907e-17,0.428571,285.194,196.481)">
                <circle cx="4528.27" cy="676.018" r="4.889" style="fill:rgb(209,235,206);"/>
                <path d="M4528.27,671.128C4530.97,671.128 4533.16,673.319 4533.16,676.018C4533.16,678.716 4530.97,680.907 4528.27,680.907C4525.57,680.907 4523.38,678.716 4523.38,676.018C4523.38,673.319 4525.57,671.128 4528.27,671.128ZM4528.27,672.128C4530.41,672.128 4532.16,673.871 4532.16,676.018C4532.16,678.164 4530.41,679.907 4528.27,679.907C4526.12,679.907 4524.38,678.164 4524.38,676.018C4524.38,673.871 4526.12,672.128 4528.27,672.128Z" style="fill:rgb(171,195,161);"/>
            </g>
            <g transform="matrix(0.52,-1.18952e-17,5.32907e-17,0.428571,289.598,186.322)">
                <circle cx="4528.27" cy="676.018" r="4.889" style="fill:rgb(209,235,206);"/>
                <path d="M4528.27,671.128C4530.97,671.128 4533.16,673.319 4533.16,676.018C4533.16,678.716 4530.97,680.907 4528.27,680.907C4525.57,680.907 4523.38,678.716 4523.38,676.018C4523.38,673.319 4525.57,671.128 4528.27,671.128ZM4528.27,672.128C4530.41,672.128 4532.16,673.871 4532.16,676.018C4532.16,678.164 4530.41,679.907 4528.27,679.907C4526.12,679.907 4524.38,678.164 4524.38,676.018C4524.38,673.871 4526.12,672.128 4528.27,672.128Z" style="fill:rgb(171,195,161);"/>
            </g>
            <g transform="matrix(0.52,-1.18952e-17,5.32907e-17,0.428571,296.906,195.106)">
                <circle cx="4528.27" cy="676.018" r="4.889" style="fill:rgb(209,235,206);"/>
                <path d="M4528.27,671.128C4530.97,671.128 4533.16,673.319 4533.16,676.018C4533.16,678.716 4530.97,680.907 4528.27,680.907C4525.57,680.907 4523.38,678.716 4523.38,676.018C4523.38,673.319 4525.57,671.128 4528.27,671.128ZM4528.27,672.128C4530.41,672.128 4532.16,673.871 4532.16,676.018C4532.16,678.164 4530.41,679.907 4528.27,679.907C4526.12,679.907 4524.38,678.164 4524.38,676.018C4524.38,673.871 4526.12,672.128 4528.27,672.128Z" style="fill:rgb(171,195,161);"/>
            </g>
            <g transform="matrix(0.52,-1.18952e-17,5.32907e-17,0.428571,295.939,187.647)">
                <circle cx="4528.27" cy="676.018" r="4.889" style="fill:rgb(209,235,206);"/>
                <path d="M4528.27,671.128C4530.97,671.128 4533.16,673.319 4533.16,676.018C4533.16,678.716 4530.97,680.907 4528.27,680.907C4525.57,680.907 4523.38,678.716 4523.38,676.018C4523.38,673.319 4525.57,671.128 4528.27,671.128ZM4528.27,672.128C4530.41,672.128 4532.16,673.871 4532.16,676.018C4532.16,678.164 4530.41,679.907 4528.27,679.907C4526.12,679.907 4524.38,678.164 4524.38,676.018C4524.38,673.871 4526.12,672.128 4528.27,672.128Z" style="fill:rgb(171,195,161);"/>
            </g>
            <g transform="matrix(0.52,-1.18952e-17,5.32907e-17,0.428571,302.185,178.911)">
                <circle cx="4528.27" cy="676.018" r="4.889" style="fill:rgb(209,235,206);"/>
                <path d="M4528.27,671.128C4530.97,671.128 4533.16,673.319 4533.16,676.018C4533.16,678.716 4530.97,680.907 4528.27,680.907C4525.57,680.907 4523.38,678.716 4523.38,676.018C4523.38,673.319 4525.57,671.128 4528.27,671.128ZM4528.27,672.128C4530.41,672.128 4532.16,673.871 4532.16,676.018C4532.16,678.164 4530.41,679.907 4528.27,679.907C4526.12,679.907 4524.38,678.164 4524.38,676.018C4524.38,673.871 4526.12,672.128 4528.27,672.128Z" style="fill:rgb(171,195,161);"/>
            </g>
            <g transform="matrix(0.52,-1.18952e-17,5.32907e-17,0.428571,283.16,179.448)">
                <circle cx="4528.27" cy="676.018" r="4.889" style="fill:rgb(209,235,206);"/>
                <path d="M4528.27,671.128C4530.97,671.128 4533.16,673.319 4533.16,676.018C4533.16,678.716 4530.97,680.907 4528.27,680.907C4525.57,680.907 4523.38,678.716 4523.38,676.018C4523.38,673.319 4525.57,671.128 4528.27,671.128ZM4528.27,672.128C4530.41,672.128 4532.16,673.871 4532.16,676.018C4532.16,678.164 4530.41,679.907 4528.27,679.907C4526.12,679.907 4524.38,678.164 4524.38,676.018C4524.38,673.871 4526.12,672.128 4528.27,672.128Z" style="fill:rgb(171,195,161);"/>
            </g>
            <g transform="matrix(0.52,-1.18952e-17,5.32907e-17,0.428571,268.69,176.216)">
                <circle cx="4528.27" cy="676.018" r="4.889" style="fill:rgb(209,235,206);"/>
                <path d="M4528.27,671.128C4530.97,671.128 4533.16,673.319 4533.16,676.018C4533.16,678.716 4530.97,680.907 4528.27,680.907C4525.57,680.907 4523.38,678.716 4523.38,676.018C4523.38,673.319 4525.57,671.128 4528.27,671.128ZM4528.27,672.128C4530.41,672.128 4532.16,673.871 4532.16,676.018C4532.16,678.164 4530.41,679.907 4528.27,679.907C4526.12,679.907 4524.38,678.164 4524.38,676.018C4524.38,673.871 4526.12,672.128 4528.27,672.128Z" style="fill:rgb(171,195,161);"/>
            </g>
            <g transform="matrix(0.52,-1.18952e-17,5.32907e-17,0.428571,267.503,189.539)">
                <circle cx="4528.27" cy="676.018" r="4.889" style="fill:rgb(209,235,206);"/>
                <path d="M4528.27,671.128C4530.97,671.128 4533.16,673.319 4533.16,676.018C4533.16,678.716 4530.97,680.907 4528.27,680.907C4525.57,680.907 4523.38,678.716 4523.38,676.018C4523.38,673.319 4525.57,671.128 4528.27,671.128ZM4528.27,672.128C4530.41,672.128 4532.16,673.871 4532.16,676.018C4532.16,678.164 4530.41,679.907 4528.27,679.907C4526.12,679.907 4524.38,678.164 4524.38,676.018C4524.38,673.871 4526.12,672.128 4528.27,672.128Z" style="fill:rgb(171,195,161);"/>
            </g>
            <g transform="matrix(0.52,-1.18952e-17,5.32907e-17,0.428571,263.767,196.318)">
                <circle cx="4528.27" cy="676.018" r="4.889" style="fill:rgb(209,235,206);"/>
                <path d="M4528.27,671.128C4530.97,671.128 4533.16,673.319 4533.16,676.018C4533.16,678.716 4530.97,680.907 4528.27,680.907C4525.57,680.907 4523.38,678.716 4523.38,676.018C4523.38,673.319 4525.57,671.128 4528.27,671.128ZM4528.27,672.128C4530.41,672.128 4532.16,673.871 4532.16,676.018C4532.16,678.164 4530.41,679.907 4528.27,679.907C4526.12,679.907 4524.38,678.164 4524.38,676.018C4524.38,673.871 4526.12,672.128 4528.27,672.128Z" style="fill:rgb(171,195,161);"/>
            </g>
            <g transform="matrix(0.52,-1.18952e-17,5.32907e-17,0.428571,256.759,179.982)">
                <circle cx="4528.27" cy="676.018" r="4.889" style="fill:rgb(209,235,206);"/>
                <path d="M4528.27,671.128C4530.97,671.128 4533.16,673.319 4533.16,676.018C4533.16,678.716 4530.97,680.907 4528.27,680.907C4525.57,680.907 4523.38,678.716 4523.38,676.018C4523.38,673.319 4525.57,671.128 4528.27,671.128ZM4528.27,672.128C4530.41,672.128 4532.16,673.871 4532.16,676.018C4532.16,678.164 4530.41,679.907 4528.27,679.907C4526.12,679.907 4524.38,678.164 4524.38,676.018C4524.38,673.871 4526.12,672.128 4528.27,672.128Z" style="fill:rgb(171,195,161);"/>
            </g>
            <g transform="matrix(0.52,-1.18952e-17,5.32907e-17,0.428571,270.946,184.89)">
                <circle cx="4528.27" cy="676.018" r="4.889" style="fill:rgb(209,235,206);"/>
                <path d="M4528.27,671.128C4530.97,671.128 4533.16,673.319 4533.16,676.018C4533.16,678.716 4530.97,680.907 4528.27,680.907C4525.57,680.907 4523.38,678.716 4523.38,676.018C4523.38,673.319 4525.57,671.128 4528.27,671.128ZM4528.27,672.128C4530.41,672.128 4532.16,673.871 4532.16,676.018C4532.16,678.164 4530.41,679.907 4528.27,679.907C4526.12,679.907 4524.38,678.164 4524.38,676.018C4524.38,673.871 4526.12,672.128 4528.27,672.128Z" style="fill:rgb(171,195,161);"/>
            </g>
            <g transform="matrix(0.52,-1.18952e-17,5.32907e-17,0.428571,275.974,173.464)">
                <circle cx="4528.27" cy="676.018" r="4.889" style="fill:rgb(209,235,206);"/>
                <path d="M4528.27,671.128C4530.97,671.128 4533.16,673.319 4533.16,676.018C4533.16,678.716 4530.97,680.907 4528.27,680.907C4525.57,680.907 4523.38,678.716 4523.38,676.018C4523.38,673.319 4525.57,671.128 4528.27,671.128ZM4528.27,672.128C4530.41,672.128 4532.16,673.871 4532.16,676.018C4532.16,678.164 4530.41,679.907 4528.27,679.907C4526.12,679.907 4524.38,678.164 4524.38,676.018C4524.38,673.871 4526.12,672.128 4528.27,672.128Z" style="fill:rgb(171,195,161);"/>
            </g>
            <g transform="matrix(0.52,-1.18952e-17,5.32907e-17,0.428571,296.255,173.656)">
                <circle cx="4528.27" cy="676.018" r="4.889" style="fill:rgb(209,235,206);"/>
                <path d="M4528.27,671.128C4530.97,671.128 4533.16,673.319 4533.16,676.018C4533.16,678.716 4530.97,680.907 4528.27,680.907C4525.57,680.907 4523.38,678.716 4523.38,676.018C4523.38,673.319 4525.57,671.128 4528.27,671.128ZM4528.27,672.128C4530.41,672.128 4532.16,673.871 4532.16,676.018C4532.16,678.164 4530.41,679.907 4528.27,679.907C4526.12,679.907 4524.38,678.164 4524.38,676.018C4524.38,673.871 4526.12,672.128 4528.27,672.128Z" style="fill:rgb(171,195,161);"/>
            </g>
            <g transform="matrix(0.52,-1.18952e-17,5.32907e-17,0.428571,306.088,200.196)">
                <circle cx="4528.27" cy="676.018" r="4.889" style="fill:rgb(209,235,206);"/>
                <path d="M4528.27,671.128C4530.97,671.128 4533.16,673.319 4533.16,676.018C4533.16,678.716 4530.97,680.907 4528.27,680.907C4525.57,680.907 4523.38,678.716 4523.38,676.018C4523.38,673.319 4525.57,671.128 4528.27,671.128ZM4528.27,672.128C4530.41,672.128 4532.16,673.871 4532.16,676.018C4532.16,678.164 4530.41,679.907 4528.27,679.907C4526.12,679.907 4524.38,678.164 4524.38,676.018C4524.38,673.871 4526.12,672.128 4528.27,672.128Z" style="fill:rgb(171,195,161);"/>
            </g>
            <g transform="matrix(0.52,-1.18952e-17,5.32907e-17,0.428571,293.95,200.079)">
                <circle cx="4528.27" cy="676.018" r="4.889" style="fill:rgb(209,235,206);"/>
                <path d="M4528.27,671.128C4530.97,671.128 4533.16,673.319 4533.16,676.018C4533.16,678.716 4530.97,680.907 4528.27,680.907C4525.57,680.907 4523.38,678.716 4523.38,676.018C4523.38,673.319 4525.57,671.128 4528.27,671.128ZM4528.27,672.128C4530.41,672.128 4532.16,673.871 4532.16,676.018C4532.16,678.164 4530.41,679.907 4528.27,679.907C4526.12,679.907 4524.38,678.164 4524.38,676.018C4524.38,673.871 4526.12,672.128 4528.27,672.128Z" style="fill:rgb(171,195,161);"/>
            </g>
            <g transform="matrix(0.52,-1.18952e-17,5.32907e-17,0.428571,304.366,191.716)">
                <circle cx="4528.27" cy="676.018" r="4.889" style="fill:rgb(209,235,206);"/>
                <path d="M4528.27,671.128C4530.97,671.128 4533.16,673.319 4533.16,676.018C4533.16,678.716 4530.97,680.907 4528.27,680.907C4525.57,680.907 4523.38,678.716 4523.38,676.018C4523.38,673.319 4525.57,671.128 4528.27,671.128ZM4528.27,672.128C4530.41,672.128 4532.16,673.871 4532.16,676.018C4532.16,678.164 4530.41,679.907 4528.27,679.907C4526.12,679.907 4524.38,678.164 4524.38,676.018C4524.38,673.871 4526.12,672.128 4528.27,672.128Z" style="fill:rgb(171,195,161);"/>
            </g>
            <g transform="matrix(0.52,-1.18952e-17,5.32907e-17,0.428571,306.651,172.311)">
                <circle cx="4528.27" cy="676.018" r="4.889" style="fill:rgb(209,235,206);"/>
                <path d="M4528.27,671.128C4530.97,671.128 4533.16,673.319 4533.16,676.018C4533.16,678.716 4530.97,680.907 4528.27,680.907C4525.57,680.907 4523.38,678.716 4523.38,676.018C4523.38,673.319 4525.57,671.128 4528.27,671.128ZM4528.27,672.128C4530.41,672.128 4532.16,673.871 4532.16,676.018C4532.16,678.164 4530.41,679.907 4528.27,679.907C4526.12,679.907 4524.38,678.164 4524.38,676.018C4524.38,673.871 4526.12,672.128 4528.27,672.128Z" style="fill:rgb(171,195,161);"/>
            </g>
            <g transform="matrix(0.52,-1.18952e-17,5.32907e-17,0.428571,302.16,184.102)">
                <circle cx="4528.27" cy="676.018" r="4.889" style="fill:rgb(209,235,206);"/>
                <path d="M4528.27,671.128C4530.97,671.128 4533.16,673.319 4533.16,676.018C4533.16,678.716 4530.97,680.907 4528.27,680.907C4525.57,680.907 4523.38,678.716 4523.38,676.018C4523.38,673.319 4525.57,671.128 4528.27,671.128ZM4528.27,672.128C4530.41,672.128 4532.16,673.871 4532.16,676.018C4532.16,678.164 4530.41,679.907 4528.27,679.907C4526.12,679.907 4524.38,678.164 4524.38,676.018C4524.38,673.871 4526.12,672.128 4528.27,672.128Z" style="fill:rgb(171,195,161);"/>
            </g>
            <g transform="matrix(0.52,-1.18952e-17,5.32907e-17,0.428571,287.398,172.812)">
                <circle cx="4528.27" cy="676.018" r="4.889" style="fill:rgb(209,235,206);"/>
                <path d="M4528.27,671.128C4530.97,671.128 4533.16,673.319 4533.16,676.018C4533.16,678.716 4530.97,680.907 4528.27,680.907C4525.57,680.907 4523.38,678.716 4523.38,676.018C4523.38,673.319 4525.57,671.128 4528.27,671.128ZM4528.27,672.128C4530.41,672.128 4532.16,673.871 4532.16,676.018C4532.16,678.164 4530.41,679.907 4528.27,679.907C4526.12,679.907 4524.38,678.164 4524.38,676.018C4524.38,673.871 4526.12,672.128 4528.27,672.128Z" style="fill:rgb(171,195,161);"/>
            </g>
            <g transform="matrix(0.52,-1.18952e-17,5.32907e-17,0.428571,250.165,171.506)">
                <circle cx="4528.27" cy="676.018" r="4.889" style="fill:rgb(209,235,206);"/>
                <path d="M4528.27,671.128C4530.97,671.128 4533.16,673.319 4533.16,676.018C4533.16,678.716 4530.97,680.907 4528.27,680.907C4525.57,680.907 4523.38,678.716 4523.38,676.018C4523.38,673.319 4525.57,671.128 4528.27,671.128ZM4528.27,672.128C4530.41,672.128 4532.16,673.871 4532.16,676.018C4532.16,678.164 4530.41,679.907 4528.27,679.907C4526.12,679.907 4524.38,678.164 4524.38,676.018C4524.38,673.871 4526.12,672.128 4528.27,672.128Z" style="fill:rgb(171,195,161);"/>
            </g>
            <g transform="matrix(0.52,-1.18952e-17,5.32907e-17,0.428571,249.171,185.82)">
                <circle cx="4528.27" cy="676.018" r="4.889" style="fill:rgb(209,235,206);"/>
                <path d="M4528.27,671.128C4530.97,671.128 4533.16,673.319 4533.16,676.018C4533.16,678.716 4530.97,680.907 4528.27,680.907C4525.57,680.907 4523.38,678.716 4523.38,676.018C4523.38,673.319 4525.57,671.128 4528.27,671.128ZM4528.27,672.128C4530.41,672.128 4532.16,673.871 4532.16,676.018C4532.16,678.164 4530.41,679.907 4528.27,679.907C4526.12,679.907 4524.38,678.164 4524.38,676.018C4524.38,673.871 4526.12,672.128 4528.27,672.128Z" style="fill:rgb(171,195,161);"/>
            </g>
            <g transform="matrix(0.52,-1.18952e-17,5.32907e-17,0.428571,260.147,173.517)">
                <circle cx="4528.27" cy="676.018" r="4.889" style="fill:rgb(209,235,206);"/>
                <path d="M4528.27,671.128C4530.97,671.128 4533.16,673.319 4533.16,676.018C4533.16,678.716 4530.97,680.907 4528.27,680.907C4525.57,680.907 4523.38,678.716 4523.38,676.018C4523.38,673.319 4525.57,671.128 4528.27,671.128ZM4528.27,672.128C4530.41,672.128 4532.16,673.871 4532.16,676.018C4532.16,678.164 4530.41,679.907 4528.27,679.907C4526.12,679.907 4524.38,678.164 4524.38,676.018C4524.38,673.871 4526.12,672.128 4528.27,672.128Z" style="fill:rgb(171,195,161);"/>
            </g>
            <g transform="matrix(0.52,-1.18952e-17,5.32907e-17,0.428571,241.123,201.224)">
                <circle cx="4528.27" cy="676.018" r="4.889" style="fill:rgb(209,235,206);"/>
                <path d="M4528.27,671.128C4530.97,671.128 4533.16,673.319 4533.16,676.018C4533.16,678.716 4530.97,680.907 4528.27,680.907C4525.57,680.907 4523.38,678.716 4523.38,676.018C4523.38,673.319 4525.57,671.128 4528.27,671.128ZM4528.27,672.128C4530.41,672.128 4532.16,673.871 4532.16,676.018C4532.16,678.164 4530.41,679.907 4528.27,679.907C4526.12,679.907 4524.38,678.164 4524.38,676.018C4524.38,673.871 4526.12,672.128 4528.27,672.128Z" style="fill:rgb(171,195,161);"/>
            </g>
            <g transform="matrix(0.52,-1.18952e-17,5.32907e-17,0.428571,210.792,180.19)">
                <circle cx="4528.27" cy="676.018" r="4.889" style="fill:rgb(209,235,206);"/>
                <path d="M4528.27,671.128C4530.97,671.128 4533.16,673.319 4533.16,676.018C4533.16,678.716 4530.97,680.907 4528.27,680.907C4525.57,680.907 4523.38,678.716 4523.38,676.018C4523.38,673.319 4525.57,671.128 4528.27,671.128ZM4528.27,672.128C4530.41,672.128 4532.16,673.871 4532.16,676.018C4532.16,678.164 4530.41,679.907 4528.27,679.907C4526.12,679.907 4524.38,678.164 4524.38,676.018C4524.38,673.871 4526.12,672.128 4528.27,672.128Z" style="fill:rgb(171,195,161);"/>
            </g>
            <g transform="matrix(0.52,-1.18952e-17,5.32907e-17,0.428571,228.975,174.627)">
                <circle cx="4528.27" cy="676.018" r="4.889" style="fill:rgb(209,235,206);"/>
                <path d="M4528.27,671.128C4530.97,671.128 4533.16,673.319 4533.16,676.018C4533.16,678.716 4530.97,680.907 4528.27,680.907C4525.57,680.907 4523.38,678.716 4523.38,676.018C4523.38,673.319 4525.57,671.128 4528.27,671.128ZM4528.27,672.128C4530.41,672.128 4532.16,673.871 4532.16,676.018C4532.16,678.164 4530.41,679.907 4528.27,679.907C4526.12,679.907 4524.38,678.164 4524.38,676.018C4524.38,673.871 4526.12,672.128 4528.27,672.128Z" style="fill:rgb(171,195,161);"/>
            </g>
            <g transform="matrix(0.52,-1.18952e-17,5.32907e-17,0.428571,211.452,201.035)">
                <circle cx="4528.27" cy="676.018" r="4.889" style="fill:rgb(209,235,206);"/>
                <path d="M4528.27,671.128C4530.97,671.128 4533.16,673.319 4533.16,676.018C4533.16,678.716 4530.97,680.907 4528.27,680.907C4525.57,680.907 4523.38,678.716 4523.38,676.018C4523.38,673.319 4525.57,671.128 4528.27,671.128ZM4528.27,672.128C4530.41,672.128 4532.16,673.871 4532.16,676.018C4532.16,678.164 4530.41,679.907 4528.27,679.907C4526.12,679.907 4524.38,678.164 4524.38,676.018C4524.38,673.871 4526.12,672.128 4528.27,672.128Z" style="fill:rgb(171,195,161);"/>
            </g>
            <g transform="matrix(0.71299,0,0,0.428571,-3049.3,-278.792)">
                <rect x="7867" y="1719" width="149" height="85" style="fill:none;stroke:rgb(75,68,69);stroke-width:0.83px;"/>
            </g>
            <g transform="matrix(1,0,0,1,0.857742,-3)">
                <g transform="matrix(0.52,0,0,0.494686,-1513.86,-386.878)">
                    <path d="M7854.3,1835L7854.3,1856.23" style="fill:none;stroke:rgb(75,68,69);stroke-width:0.93px;"/>
                </g>
                <g transform="matrix(0.52,0,0,0.428571,-1525.3,-268.987)">
                    <path d="M7876.3,1856.23L7864,1856.23L7864,1867.51" style="fill:none;stroke:rgb(75,68,69);stroke-width:1px;"/>
                </g>
                <g transform="matrix(-0.52,0,0,0.428571,6666.04,-268.987)">
                    <path d="M7876.3,1856.23L7864,1856.23L7864,1867.51" style="fill:none;stroke:rgb(75,68,69);stroke-width:1px;"/>
                </g>
                <g transform="matrix(0.52,-1.18952e-17,5.32907e-17,0.428571,215.671,231.148)">
                    <circle cx="4528.27" cy="676.018" r="4.889" style="fill:rgb(209,235,206);"/>
                    <path d="M4528.27,671.128C4530.97,671.128 4533.16,673.319 4533.16,676.018C4533.16,678.716 4530.97,680.907 4528.27,680.907C4525.57,680.907 4523.38,678.716 4523.38,676.018C4523.38,673.319 4525.57,671.128 4528.27,671.128ZM4528.27,672.128C4530.41,672.128 4532.16,673.871 4532.16,676.018C4532.16,678.164 4530.41,679.907 4528.27,679.907C4526.12,679.907 4524.38,678.164 4524.38,676.018C4524.38,673.871 4526.12,672.128 4528.27,672.128Z" style="fill:rgb(171,195,161);"/>
                </g>
                <g transform="matrix(0.52,-1.18952e-17,5.32907e-17,0.428571,215.671,241.653)">
                    <circle cx="4528.27" cy="676.018" r="4.889" style="fill:rgb(209,235,206);"/>
                    <path d="M4528.27,671.128C4530.97,671.128 4533.16,673.319 4533.16,676.018C4533.16,678.716 4530.97,680.907 4528.27,680.907C4525.57,680.907 4523.38,678.716 4523.38,676.018C4523.38,673.319 4525.57,671.128 4528.27,671.128ZM4528.27,672.128C4530.41,672.128 4532.16,673.871 4532.16,676.018C4532.16,678.164 4530.41,679.907 4528.27,679.907C4526.12,679.907 4524.38,678.164 4524.38,676.018C4524.38,673.871 4526.12,672.128 4528.27,672.128Z" style="fill:rgb(171,195,161);"/>
                </g>
                <g transform="matrix(0.52,-1.18952e-17,5.32907e-17,0.428571,209.278,241.653)">
                    <circle cx="4528.27" cy="676.018" r="4.889" style="fill:rgb(209,235,206);"/>
                    <path d="M4528.27,671.128C4530.97,671.128 4533.16,673.319 4533.16,676.018C4533.16,678.716 4530.97,680.907 4528.27,680.907C4525.57,680.907 4523.38,678.716 4523.38,676.018C4523.38,673.319 4525.57,671.128 4528.27,671.128ZM4528.27,672.128C4530.41,672.128 4532.16,673.871 4532.16,676.018C4532.16,678.164 4530.41,679.907 4528.27,679.907C4526.12,679.907 4524.38,678.164 4524.38,676.018C4524.38,673.871 4526.12,672.128 4528.27,672.128Z" style="fill:rgb(171,195,161);"/>
                </g>
                <g transform="matrix(0.52,-1.18952e-17,5.32907e-17,0.428571,222.064,241.653)">
                    <circle cx="4528.27" cy="676.018" r="4.889" style="fill:rgb(209,235,206);"/>
                    <path d="M4528.27,671.128C4530.97,671.128 4533.16,673.319 4533.16,676.018C4533.16,678.716 4530.97,680.907 4528.27,680.907C4525.57,680.907 4523.38,678.716 4523.38,676.018C4523.38,673.319 4525.57,671.128 4528.27,671.128ZM4528.27,672.128C4530.41,672.128 4532.16,673.871 4532.16,676.018C4532.16,678.164 4530.41,679.907 4528.27,679.907C4526.12,679.907 4524.38,678.164 4524.38,676.018C4524.38,673.871 4526.12,672.128 4528.27,672.128Z" style="fill:rgb(171,195,161);"/>
                </g>
            </g>
            <g transform="matrix(1,0,0,1,28.2444,-3)">
                <g transform="matrix(0.52,0,0,0.494686,-1513.86,-386.878)">
                    <path d="M7854.3,1835L7854.3,1856.23" style="fill:none;stroke:rgb(75,68,69);stroke-width:0.93px;"/>
                </g>
                <g transform="matrix(0.52,0,0,0.428571,-1525.3,-268.987)">
                    <path d="M7876.3,1856.23L7864,1856.23L7864,1867.51" style="fill:none;stroke:rgb(75,68,69);stroke-width:1px;"/>
                </g>
                <g transform="matrix(-0.52,0,0,0.428571,6666.04,-268.987)">
                    <path d="M7876.3,1856.23L7864,1856.23L7864,1867.51" style="fill:none;stroke:rgb(75,68,69);stroke-width:1px;"/>
                </g>
                <g transform="matrix(0.52,-1.18952e-17,5.32907e-17,0.428571,215.671,231.148)">
                    <circle cx="4528.27" cy="676.018" r="4.889" style="fill:rgb(209,235,206);"/>
                    <path d="M4528.27,671.128C4530.97,671.128 4533.16,673.319 4533.16,676.018C4533.16,678.716 4530.97,680.907 4528.27,680.907C4525.57,680.907 4523.38,678.716 4523.38,676.018C4523.38,673.319 4525.57,671.128 4528.27,671.128ZM4528.27,672.128C4530.41,672.128 4532.16,673.871 4532.16,676.018C4532.16,678.164 4530.41,679.907 4528.27,679.907C4526.12,679.907 4524.38,678.164 4524.38,676.018C4524.38,673.871 4526.12,672.128 4528.27,672.128Z" style="fill:rgb(171,195,161);"/>
                </g>
                <g transform="matrix(0.52,-1.18952e-17,5.32907e-17,0.428571,215.671,241.653)">
                    <circle cx="4528.27" cy="676.018" r="4.889" style="fill:rgb(209,235,206);"/>
                    <path d="M4528.27,671.128C4530.97,671.128 4533.16,673.319 4533.16,676.018C4533.16,678.716 4530.97,680.907 4528.27,680.907C4525.57,680.907 4523.38,678.716 4523.38,676.018C4523.38,673.319 4525.57,671.128 4528.27,671.128ZM4528.27,672.128C4530.41,672.128 4532.16,673.871 4532.16,676.018C4532.16,678.164 4530.41,679.907 4528.27,679.907C4526.12,679.907 4524.38,678.164 4524.38,676.018C4524.38,673.871 4526.12,672.128 4528.27,672.128Z" style="fill:rgb(171,195,161);"/>
                </g>
                <g transform="matrix(0.52,-1.18952e-17,5.32907e-17,0.428571,209.278,241.653)">
                    <circle cx="4528.27" cy="676.018" r="4.889" style="fill:rgb(209,235,206);"/>
                    <path d="M4528.27,671.128C4530.97,671.128 4533.16,673.319 4533.16,676.018C4533.16,678.716 4530.97,680.907 4528.27,680.907C4525.57,680.907 4523.38,678.716 4523.38,676.018C4523.38,673.319 4525.57,671.128 4528.27,671.128ZM4528.27,672.128C4530.41,672.128 4532.16,673.871 4532.16,676.018C4532.16,678.164 4530.41,679.907 4528.27,679.907C4526.12,679.907 4524.38,678.164 4524.38,676.018C4524.38,673.871 4526.12,672.128 4528.27,672.128Z" style="fill:rgb(171,195,161);"/>
                </g>
                <g transform="matrix(0.52,-1.18952e-17,5.32907e-17,0.428571,222.064,241.653)">
                    <circle cx="4528.27" cy="676.018" r="4.889" style="fill:rgb(209,235,206);"/>
                    <path d="M4528.27,671.128C4530.97,671.128 4533.16,673.319 4533.16,676.018C4533.16,678.716 4530.97,680.907 4528.27,680.907C4525.57,680.907 4523.38,678.716 4523.38,676.018C4523.38,673.319 4525.57,671.128 4528.27,671.128ZM4528.27,672.128C4530.41,672.128 4532.16,673.871 4532.16,676.018C4532.16,678.164 4530.41,679.907 4528.27,679.907C4526.12,679.907 4524.38,678.164 4524.38,676.018C4524.38,673.871 4526.12,672.128 4528.27,672.128Z" style="fill:rgb(171,195,161);"/>
                </g>
            </g>
            <g transform="matrix(1,0,0,1,55.6311,-3)">
                <g transform="matrix(0.52,0,0,0.494686,-1513.86,-386.878)">
                    <path d="M7854.3,1835L7854.3,1856.23" style="fill:none;stroke:rgb(75,68,69);stroke-width:0.93px;"/>
                </g>
                <g transform="matrix(0.52,0,0,0.428571,-1525.3,-268.987)">
                    <path d="M7876.3,1856.23L7864,1856.23L7864,1867.51" style="fill:none;stroke:rgb(75,68,69);stroke-width:1px;"/>
                </g>
                <g transform="matrix(-0.52,0,0,0.428571,6666.04,-268.987)">
                    <path d="M7876.3,1856.23L7864,1856.23L7864,1867.51" style="fill:none;stroke:rgb(75,68,69);stroke-width:1px;"/>
                </g>
                <g transform="matrix(0.52,-1.18952e-17,5.32907e-17,0.428571,215.671,231.148)">
                    <circle cx="4528.27" cy="676.018" r="4.889" style="fill:rgb(209,235,206);"/>
                    <path d="M4528.27,671.128C4530.97,671.128 4533.16,673.319 4533.16,676.018C4533.16,678.716 4530.97,680.907 4528.27,680.907C4525.57,680.907 4523.38,678.716 4523.38,676.018C4523.38,673.319 4525.57,671.128 4528.27,671.128ZM4528.27,672.128C4530.41,672.128 4532.16,673.871 4532.16,676.018C4532.16,678.164 4530.41,679.907 4528.27,679.907C4526.12,679.907 4524.38,678.164 4524.38,676.018C4524.38,673.871 4526.12,672.128 4528.27,672.128Z" style="fill:rgb(171,195,161);"/>
                </g>
                <g transform="matrix(0.52,-1.18952e-17,5.32907e-17,0.428571,215.671,241.653)">
                    <circle cx="4528.27" cy="676.018" r="4.889" style="fill:rgb(209,235,206);"/>
                    <path d="M4528.27,671.128C4530.97,671.128 4533.16,673.319 4533.16,676.018C4533.16,678.716 4530.97,680.907 4528.27,680.907C4525.57,680.907 4523.38,678.716 4523.38,676.018C4523.38,673.319 4525.57,671.128 4528.27,671.128ZM4528.27,672.128C4530.41,672.128 4532.16,673.871 4532.16,676.018C4532.16,678.164 4530.41,679.907 4528.27,679.907C4526.12,679.907 4524.38,678.164 4524.38,676.018C4524.38,673.871 4526.12,672.128 4528.27,672.128Z" style="fill:rgb(171,195,161);"/>
                </g>
                <g transform="matrix(0.52,-1.18952e-17,5.32907e-17,0.428571,209.278,241.653)">
                    <circle cx="4528.27" cy="676.018" r="4.889" style="fill:rgb(209,235,206);"/>
                    <path d="M4528.27,671.128C4530.97,671.128 4533.16,673.319 4533.16,676.018C4533.16,678.716 4530.97,680.907 4528.27,680.907C4525.57,680.907 4523.38,678.716 4523.38,676.018C4523.38,673.319 4525.57,671.128 4528.27,671.128ZM4528.27,672.128C4530.41,672.128 4532.16,673.871 4532.16,676.018C4532.16,678.164 4530.41,679.907 4528.27,679.907C4526.12,679.907 4524.38,678.164 4524.38,676.018C4524.38,673.871 4526.12,672.128 4528.27,672.128Z" style="fill:rgb(171,195,161);"/>
                </g>
                <g transform="matrix(0.52,-1.18952e-17,5.32907e-17,0.428571,222.064,241.653)">
                    <circle cx="4528.27" cy="676.018" r="4.889" style="fill:rgb(209,235,206);"/>
                    <path d="M4528.27,671.128C4530.97,671.128 4533.16,673.319 4533.16,676.018C4533.16,678.716 4530.97,680.907 4528.27,680.907C4525.57,680.907 4523.38,678.716 4523.38,676.018C4523.38,673.319 4525.57,671.128 4528.27,671.128ZM4528.27,672.128C4530.41,672.128 4532.16,673.871 4532.16,676.018C4532.16,678.164 4530.41,679.907 4528.27,679.907C4526.12,679.907 4524.38,678.164 4524.38,676.018C4524.38,673.871 4526.12,672.128 4528.27,672.128Z" style="fill:rgb(171,195,161);"/>
                </g>
            </g>
            <g transform="matrix(1,0,0,1,83.0177,-3)">
                <g transform="matrix(0.52,0,0,0.494686,-1513.86,-386.878)">
                    <path d="M7854.3,1835L7854.3,1856.23" style="fill:none;stroke:rgb(75,68,69);stroke-width:0.93px;"/>
                </g>
                <g transform="matrix(0.52,0,0,0.428571,-1525.3,-268.987)">
                    <path d="M7876.3,1856.23L7864,1856.23L7864,1867.51" style="fill:none;stroke:rgb(75,68,69);stroke-width:1px;"/>
                </g>
                <g transform="matrix(-0.52,0,0,0.428571,6666.04,-268.987)">
                    <path d="M7876.3,1856.23L7864,1856.23L7864,1867.51" style="fill:none;stroke:rgb(75,68,69);stroke-width:1px;"/>
                </g>
                <g transform="matrix(0.52,-1.18952e-17,5.32907e-17,0.428571,215.671,231.148)">
                    <circle cx="4528.27" cy="676.018" r="4.889" style="fill:rgb(209,235,206);"/>
                    <path d="M4528.27,671.128C4530.97,671.128 4533.16,673.319 4533.16,676.018C4533.16,678.716 4530.97,680.907 4528.27,680.907C4525.57,680.907 4523.38,678.716 4523.38,676.018C4523.38,673.319 4525.57,671.128 4528.27,671.128ZM4528.27,672.128C4530.41,672.128 4532.16,673.871 4532.16,676.018C4532.16,678.164 4530.41,679.907 4528.27,679.907C4526.12,679.907 4524.38,678.164 4524.38,676.018C4524.38,673.871 4526.12,672.128 4528.27,672.128Z" style="fill:rgb(171,195,161);"/>
                </g>
                <g transform="matrix(0.52,-1.18952e-17,5.32907e-17,0.428571,215.671,241.653)">
                    <circle cx="4528.27" cy="676.018" r="4.889" style="fill:rgb(209,235,206);"/>
                    <path d="M4528.27,671.128C4530.97,671.128 4533.16,673.319 4533.16,676.018C4533.16,678.716 4530.97,680.907 4528.27,680.907C4525.57,680.907 4523.38,678.716 4523.38,676.018C4523.38,673.319 4525.57,671.128 4528.27,671.128ZM4528.27,672.128C4530.41,672.128 4532.16,673.871 4532.16,676.018C4532.16,678.164 4530.41,679.907 4528.27,679.907C4526.12,679.907 4524.38,678.164 4524.38,676.018C4524.38,673.871 4526.12,672.128 4528.27,672.128Z" style="fill:rgb(171,195,161);"/>
                </g>
                <g transform="matrix(0.52,-1.18952e-17,5.32907e-17,0.428571,209.278,241.653)">
                    <circle cx="4528.27" cy="676.018" r="4.889" style="fill:rgb(209,235,206);"/>
                    <path d="M4528.27,671.128C4530.97,671.128 4533.16,673.319 4533.16,676.018C4533.16,678.716 4530.97,680.907 4528.27,680.907C4525.57,680.907 4523.38,678.716 4523.38,676.018C4523.38,673.319 4525.57,671.128 4528.27,671.128ZM4528.27,672.128C4530.41,672.128 4532.16,673.871 4532.16,676.018C4532.16,678.164 4530.41,679.907 4528.27,679.907C4526.12,679.907 4524.38,678.164 4524.38,676.018C4524.38,673.871 4526.12,672.128 4528.27,672.128Z" style="fill:rgb(171,195,161);"/>
                </g>
                <g transform="matrix(0.52,-1.18952e-17,5.32907e-17,0.428571,222.064,241.653)">
                    <circle cx="4528.27" cy="676.018" r="4.889" style="fill:rgb(209,235,206);"/>
                    <path d="M4528.27,671.128C4530.97,671.128 4533.16,673.319 4533.16,676.018C4533.16,678.716 4530.97,680.907 4528.27,680.907C4525.57,680.907 4523.38,678.716 4523.38,676.018C4523.38,673.319 4525.57,671.128 4528.27,671.128ZM4528.27,672.128C4530.41,672.128 4532.16,673.871 4532.16,676.018C4532.16,678.164 4530.41,679.907 4528.27,679.907C4526.12,679.907 4524.38,678.164 4524.38,676.018C4524.38,673.871 4526.12,672.128 4528.27,672.128Z" style="fill:rgb(171,195,161);"/>
                </g>
            </g>
            <g transform="matrix(1,0,0,1,0.857742,15.9546)">
                <g transform="matrix(1,0,0,1,-0.566566,-1.13687e-13)">
                    <g transform="matrix(0.52,0,0,0.267106,-1473.44,63.0741)">
                        <path d="M7854.3,1835L7854.3,1856.23" style="fill:none;stroke:rgb(75,68,69);stroke-width:1.2px;"/>
                    </g>
                    <g transform="matrix(0.993918,0,0,0.428571,-5217.6,-236.643)">
                        <path d="M7876.3,1856.23L7864,1856.23L7864,1867.51" style="fill:none;stroke:rgb(75,68,69);stroke-width:0.66px;"/>
                    </g>
                    <g transform="matrix(-0.993918,0,0,0.428571,10439.2,-236.643)">
                        <path d="M7876.3,1856.23L7864,1856.23L7864,1867.51" style="fill:none;stroke:rgb(75,68,69);stroke-width:0.66px;"/>
                    </g>
                    <g transform="matrix(0.52,-1.18952e-17,5.32907e-17,0.428571,256.095,263.492)">
                        <circle cx="4528.27" cy="676.018" r="4.889" style="fill:rgb(209,235,206);"/>
                        <path d="M4528.27,671.128C4530.97,671.128 4533.16,673.319 4533.16,676.018C4533.16,678.716 4530.97,680.907 4528.27,680.907C4525.57,680.907 4523.38,678.716 4523.38,676.018C4523.38,673.319 4525.57,671.128 4528.27,671.128ZM4528.27,672.128C4530.41,672.128 4532.16,673.871 4532.16,676.018C4532.16,678.164 4530.41,679.907 4528.27,679.907C4526.12,679.907 4524.38,678.164 4524.38,676.018C4524.38,673.871 4526.12,672.128 4528.27,672.128Z" style="fill:rgb(171,195,161);"/>
                    </g>
                </g>
                <g transform="matrix(0.361702,0,0,1,1647.28,21.0084)">
                    <g transform="matrix(0.52,0,0,0.267106,-1473.44,63.0741)">
                        <path d="M7854.3,1835L7854.3,1856.23" style="fill:none;stroke:rgb(75,68,69);stroke-width:1.96px;"/>
                    </g>
                    <g transform="matrix(0.993918,0,0,0.23853,-5217.6,116.119)">
                        <path d="M7876.3,1856.23L7864,1856.23L7864,1867.51" style="fill:none;stroke:rgb(75,68,69);stroke-width:1.59px;"/>
                    </g>
                    <g transform="matrix(-0.993918,0,0,0.23853,10439.2,116.119)">
                        <path d="M7876.3,1856.23L7864,1856.23L7864,1867.51" style="fill:none;stroke:rgb(75,68,69);stroke-width:1.59px;"/>
                    </g>
                </g>
                <g transform="matrix(0.361702,0,0,1,1660.28,21.0084)">
                    <g transform="matrix(0.52,0,0,0.267106,-1473.44,63.0741)">
                        <path d="M7854.3,1835L7854.3,1856.23" style="fill:none;stroke:rgb(75,68,69);stroke-width:1.96px;"/>
                    </g>
                    <g transform="matrix(0.993918,0,0,0.23853,-5217.6,116.119)">
                        <path d="M7876.3,1856.23L7864,1856.23L7864,1867.51" style="fill:none;stroke:rgb(75,68,69);stroke-width:1.59px;"/>
                    </g>
                    <g transform="matrix(-0.993918,0,0,0.23853,10439.2,116.119)">
                        <path d="M7876.3,1856.23L7864,1856.23L7864,1867.51" style="fill:none;stroke:rgb(75,68,69);stroke-width:1.59px;"/>
                    </g>
                </g>
                <g transform="matrix(0.361702,0,0,1,1671.72,21.0084)">
                    <g transform="matrix(0.52,0,0,0.267106,-1473.44,63.0741)">
                        <path d="M7854.3,1835L7854.3,1856.23" style="fill:none;stroke:rgb(75,68,69);stroke-width:1.96px;"/>
                    </g>
                    <g transform="matrix(0.993918,0,0,0.23853,-5217.6,116.119)">
                        <path d="M7876.3,1856.23L7864,1856.23L7864,1867.51" style="fill:none;stroke:rgb(75,68,69);stroke-width:1.59px;"/>
                    </g>
                    <g transform="matrix(-0.993918,0,0,0.23853,10439.2,116.119)">
                        <path d="M7876.3,1856.23L7864,1856.23L7864,1867.51" style="fill:none;stroke:rgb(75,68,69);stroke-width:1.59px;"/>
                    </g>
                </g>
                <g transform="matrix(0.361702,0,0,1,1684.72,21.0084)">
                    <g transform="matrix(0.52,0,0,0.267106,-1473.44,63.0741)">
                        <path d="M7854.3,1835L7854.3,1856.23" style="fill:none;stroke:rgb(75,68,69);stroke-width:1.96px;"/>
                    </g>
                    <g transform="matrix(0.993918,0,0,0.23853,-5217.6,116.119)">
                        <path d="M7876.3,1856.23L7864,1856.23L7864,1867.51" style="fill:none;stroke:rgb(75,68,69);stroke-width:1.59px;"/>
                    </g>
                    <g transform="matrix(-0.993918,0,0,0.23853,10439.2,116.119)">
                        <path d="M7876.3,1856.23L7864,1856.23L7864,1867.51" style="fill:none;stroke:rgb(75,68,69);stroke-width:1.59px;"/>
                    </g>
                </g>
                <g transform="matrix(1,0,0,1,52.0777,42.8482)">
                    <g transform="matrix(0.52,0,0,0.267106,-1513.86,30.7301)">
                        <path d="M7854.3,1835L7854.3,1856.23" style="fill:none;stroke:rgb(75,68,69);stroke-width:1.2px;"/>
                    </g>
                    <g transform="matrix(0.52,0,0,0.428571,-1525.3,-268.987)">
                        <path d="M7876.3,1856.23L7864,1856.23L7864,1867.51" style="fill:none;stroke:rgb(75,68,69);stroke-width:1px;"/>
                    </g>
                    <g transform="matrix(-0.52,0,0,0.428571,6666.04,-268.987)">
                        <path d="M7876.3,1856.23L7864,1856.23L7864,1867.51" style="fill:none;stroke:rgb(75,68,69);stroke-width:1px;"/>
                    </g>
                    <g transform="matrix(0.52,-1.18952e-17,5.32907e-17,0.428571,215.671,231.148)">
                        <circle cx="4528.27" cy="676.018" r="4.889" style="fill:rgb(209,235,206);"/>
                        <path d="M4528.27,671.128C4530.97,671.128 4533.16,673.319 4533.16,676.018C4533.16,678.716 4530.97,680.907 4528.27,680.907C4525.57,680.907 4523.38,678.716 4523.38,676.018C4523.38,673.319 4525.57,671.128 4528.27,671.128ZM4528.27,672.128C4530.41,672.128 4532.16,673.871 4532.16,676.018C4532.16,678.164 4530.41,679.907 4528.27,679.907C4526.12,679.907 4524.38,678.164 4524.38,676.018C4524.38,673.871 4526.12,672.128 4528.27,672.128Z" style="fill:rgb(171,195,161);"/>
                    </g>
                    <g transform="matrix(0.52,-1.18952e-17,5.32907e-17,0.428571,209.278,241.653)">
                        <circle cx="4528.27" cy="676.018" r="4.889" style="fill:rgb(209,235,206);"/>
                        <path d="M4528.27,671.128C4530.97,671.128 4533.16,673.319 4533.16,676.018C4533.16,678.716 4530.97,680.907 4528.27,680.907C4525.57,680.907 4523.38,678.716 4523.38,676.018C4523.38,673.319 4525.57,671.128 4528.27,671.128ZM4528.27,672.128C4530.41,672.128 4532.16,673.871 4532.16,676.018C4532.16,678.164 4530.41,679.907 4528.27,679.907C4526.12,679.907 4524.38,678.164 4524.38,676.018C4524.38,673.871 4526.12,672.128 4528.27,672.128Z" style="fill:rgb(171,195,161);"/>
                    </g>
                    <g transform="matrix(0.52,-1.18952e-17,5.32907e-17,0.428571,222.064,241.653)">
                        <circle cx="4528.27" cy="676.018" r="4.889" style="fill:rgb(209,235,206);"/>
                        <path d="M4528.27,671.128C4530.97,671.128 4533.16,673.319 4533.16,676.018C4533.16,678.716 4530.97,680.907 4528.27,680.907C4525.57,680.907 4523.38,678.716 4523.38,676.018C4523.38,673.319 4525.57,671.128 4528.27,671.128ZM4528.27,672.128C4530.41,672.128 4532.16,673.871 4532.16,676.018C4532.16,678.164 4530.41,679.907 4528.27,679.907C4526.12,679.907 4524.38,678.164 4524.38,676.018C4524.38,673.871 4526.12,672.128 4528.27,672.128Z" style="fill:rgb(171,195,161);"/>
                    </g>
                </g>
                <g transform="matrix(1,0,0,1,27.6377,42.8482)">
                    <g transform="matrix(0.52,0,0,0.267106,-1513.86,30.7301)">
                        <path d="M7854.3,1835L7854.3,1856.23" style="fill:none;stroke:rgb(75,68,69);stroke-width:1.2px;"/>
                    </g>
                    <g transform="matrix(0.52,0,0,0.428571,-1525.3,-268.987)">
                        <path d="M7876.3,1856.23L7864,1856.23L7864,1867.51" style="fill:none;stroke:rgb(75,68,69);stroke-width:1px;"/>
                    </g>
                    <g transform="matrix(-0.52,0,0,0.428571,6666.04,-268.987)">
                        <path d="M7876.3,1856.23L7864,1856.23L7864,1867.51" style="fill:none;stroke:rgb(75,68,69);stroke-width:1px;"/>
                    </g>
                    <g transform="matrix(0.52,-1.18952e-17,5.32907e-17,0.428571,215.671,231.148)">
                        <circle cx="4528.27" cy="676.018" r="4.889" style="fill:rgb(209,235,206);"/>
                        <path d="M4528.27,671.128C4530.97,671.128 4533.16,673.319 4533.16,676.018C4533.16,678.716 4530.97,680.907 4528.27,680.907C4525.57,680.907 4523.38,678.716 4523.38,676.018C4523.38,673.319 4525.57,671.128 4528.27,671.128ZM4528.27,672.128C4530.41,672.128 4532.16,673.871 4532.16,676.018C4532.16,678.164 4530.41,679.907 4528.27,679.907C4526.12,679.907 4524.38,678.164 4524.38,676.018C4524.38,673.871 4526.12,672.128 4528.27,672.128Z" style="fill:rgb(171,195,161);"/>
                    </g>
                    <g transform="matrix(0.52,-1.18952e-17,5.32907e-17,0.428571,209.278,241.653)">
                        <circle cx="4528.27" cy="676.018" r="4.889" style="fill:rgb(209,235,206);"/>
                        <path d="M4528.27,671.128C4530.97,671.128 4533.16,673.319 4533.16,676.018C4533.16,678.716 4530.97,680.907 4528.27,680.907C4525.57,680.907 4523.38,678.716 4523.38,676.018C4523.38,673.319 4525.57,671.128 4528.27,671.128ZM4528.27,672.128C4530.41,672.128 4532.16,673.871 4532.16,676.018C4532.16,678.164 4530.41,679.907 4528.27,679.907C4526.12,679.907 4524.38,678.164 4524.38,676.018C4524.38,673.871 4526.12,672.128 4528.27,672.128Z" style="fill:rgb(171,195,161);"/>
                    </g>
                    <g transform="matrix(0.52,-1.18952e-17,5.32907e-17,0.428571,222.064,241.653)">
                        <circle cx="4528.27" cy="676.018" r="4.889" style="fill:rgb(209,235,206);"/>
                        <path d="M4528.27,671.128C4530.97,671.128 4533.16,673.319 4533.16,676.018C4533.16,678.716 4530.97,680.907 4528.27,680.907C4525.57,680.907 4523.38,678.716 4523.38,676.018C4523.38,673.319 4525.57,671.128 4528.27,671.128ZM4528.27,672.128C4530.41,672.128 4532.16,673.871 4532.16,676.018C4532.16,678.164 4530.41,679.907 4528.27,679.907C4526.12,679.907 4524.38,678.164 4524.38,676.018C4524.38,673.871 4526.12,672.128 4528.27,672.128Z" style="fill:rgb(171,195,161);"/>
                    </g>
                </g>
            </g>
        </g>
    </g>
</svg>
