<?xml version="1.0" encoding="UTF-8" standalone="no"?>
<!DOCTYPE svg PUBLIC "-//W3C//DTD SVG 1.1//EN" "http://www.w3.org/Graphics/SVG/1.1/DTD/svg11.dtd">
<svg width="100%" height="100%" viewBox="0 0 251 351" version="1.1" xmlns="http://www.w3.org/2000/svg" xmlns:xlink="http://www.w3.org/1999/xlink" xml:space="preserve" xmlns:serif="http://www.serif.com/" style="fill-rule:evenodd;clip-rule:evenodd;stroke-linecap:round;stroke-linejoin:round;stroke-miterlimit:1.5;">
    <g transform="matrix(1,0,0,1,-8382,-1687)">
        <g id="_016_a03" serif:id="016_a03" transform="matrix(1.92308,0,0,2.33333,3482.95,627.863)">
            <rect x="2547.91" y="454.279" width="130" height="150" style="fill:none;"/>
            <g transform="matrix(-0.43584,-0.129819,0.0150902,-0.045379,2579.6,508.554)">
                <g transform="matrix(-1.08557,3.10557,-0.297522,-8.59313,104.918,903.908)">
                    <path d="M32.417,154.115L29.354,160.083L26.417,154.052L32.417,154.115Z" style="fill:rgb(46,112,183);"/>
                    <path d="M45.613,72.305L45.613,93.462C45.613,123.414 30.389,110.077 29.404,155.284" style="fill:none;stroke:rgb(46,112,183);stroke-width:2px;"/>
                </g>
            </g>
            <g transform="matrix(-0.43584,-0.129819,0.0150902,-0.045379,2606.98,508.554)">
                <g transform="matrix(-1.08557,3.10557,-0.297522,-8.59313,162.091,740.348)">
                    <path d="M105.233,184.148L98.577,184.981L101.904,179.156L105.233,184.148Z" style="fill:rgb(46,112,183);"/>
                    <path d="M98.28,72.305L98.28,93.462C98.28,102.797 118.762,103.942 118.762,121.679C118.762,139.415 118.762,156.942 118.762,161.679C118.762,170.025 108.482,178.209 102.57,182.318" style="fill:none;stroke:rgb(46,112,183);stroke-width:2px;"/>
                </g>
            </g>
            <g transform="matrix(-0.43584,-0.129819,0.0150902,-0.045379,2634.37,508.554)">
                <g transform="matrix(-1.08557,3.10557,-0.297522,-8.59313,219.265,576.788)">
                    <path d="M167.608,208.284L160.91,208.658L164.63,203.075L167.608,208.284Z" style="fill:rgb(46,112,183);"/>
                    <path d="M150.946,72.305L150.946,93.462C151.196,111.509 183.572,118.307 183.325,143.466L183.2,183.466C182.584,194.885 175.178,200.395 165.077,206.275" style="fill:none;stroke:rgb(46,112,183);stroke-width:2px;"/>
                </g>
            </g>
            <g transform="matrix(-0.43584,-0.129819,0.0150902,-0.045379,2659.84,508.72)">
                <g transform="matrix(-1.08557,3.10557,-0.297522,-8.59313,272.559,427.967)">
                    <path d="M228.598,230.234L221.934,231.003L225.317,225.21L228.598,230.234Z" style="fill:rgb(46,112,183);"/>
                    <path d="M203.613,72.691L203.613,93.847C201.747,128.65 242.304,132.839 243.033,166.411L242.893,207.154C242.818,215.238 234.099,222.821 225.953,228.378" style="fill:none;stroke:rgb(46,112,183);stroke-width:2px;"/>
                </g>
            </g>
            <g transform="matrix(0.71299,0,0,0.428571,-3049.3,-278.792)">
                <rect x="7867" y="1719" width="149" height="85" style="fill:white;stroke:rgb(75,68,69);stroke-width:0.83px;"/>
            </g>
            <g transform="matrix(0.52,-1.18952e-17,5.32907e-17,0.428571,238.264,176.532)">
                <circle cx="4528.27" cy="676.018" r="4.889" style="fill:rgb(209,235,206);"/>
                <path d="M4528.27,671.128C4530.97,671.128 4533.16,673.319 4533.16,676.018C4533.16,678.716 4530.97,680.907 4528.27,680.907C4525.57,680.907 4523.38,678.716 4523.38,676.018C4523.38,673.319 4525.57,671.128 4528.27,671.128ZM4528.27,672.128C4530.41,672.128 4532.16,673.871 4532.16,676.018C4532.16,678.164 4530.41,679.907 4528.27,679.907C4526.12,679.907 4524.38,678.164 4524.38,676.018C4524.38,673.871 4526.12,672.128 4528.27,672.128Z" style="fill:rgb(171,195,161);"/>
            </g>
            <g transform="matrix(0.52,-1.18952e-17,5.32907e-17,0.428571,215.447,173.806)">
                <circle cx="4528.27" cy="676.018" r="4.889" style="fill:rgb(209,235,206);"/>
                <path d="M4528.27,671.128C4530.97,671.128 4533.16,673.319 4533.16,676.018C4533.16,678.716 4530.97,680.907 4528.27,680.907C4525.57,680.907 4523.38,678.716 4523.38,676.018C4523.38,673.319 4525.57,671.128 4528.27,671.128ZM4528.27,672.128C4530.41,672.128 4532.16,673.871 4532.16,676.018C4532.16,678.164 4530.41,679.907 4528.27,679.907C4526.12,679.907 4524.38,678.164 4524.38,676.018C4524.38,673.871 4526.12,672.128 4528.27,672.128Z" style="fill:rgb(171,195,161);"/>
            </g>
            <g transform="matrix(0.52,-1.18952e-17,5.32907e-17,0.428571,232.602,188.51)">
                <circle cx="4528.27" cy="676.018" r="4.889" style="fill:rgb(209,235,206);"/>
                <path d="M4528.27,671.128C4530.97,671.128 4533.16,673.319 4533.16,676.018C4533.16,678.716 4530.97,680.907 4528.27,680.907C4525.57,680.907 4523.38,678.716 4523.38,676.018C4523.38,673.319 4525.57,671.128 4528.27,671.128ZM4528.27,672.128C4530.41,672.128 4532.16,673.871 4532.16,676.018C4532.16,678.164 4530.41,679.907 4528.27,679.907C4526.12,679.907 4524.38,678.164 4524.38,676.018C4524.38,673.871 4526.12,672.128 4528.27,672.128Z" style="fill:rgb(171,195,161);"/>
            </g>
            <g transform="matrix(0.52,-1.18952e-17,5.32907e-17,0.428571,224.802,199.653)">
                <circle cx="4528.27" cy="676.018" r="4.889" style="fill:rgb(209,235,206);"/>
                <path d="M4528.27,671.128C4530.97,671.128 4533.16,673.319 4533.16,676.018C4533.16,678.716 4530.97,680.907 4528.27,680.907C4525.57,680.907 4523.38,678.716 4523.38,676.018C4523.38,673.319 4525.57,671.128 4528.27,671.128ZM4528.27,672.128C4530.41,672.128 4532.16,673.871 4532.16,676.018C4532.16,678.164 4530.41,679.907 4528.27,679.907C4526.12,679.907 4524.38,678.164 4524.38,676.018C4524.38,673.871 4526.12,672.128 4528.27,672.128Z" style="fill:rgb(171,195,161);"/>
            </g>
            <g transform="matrix(0.52,-1.18952e-17,5.32907e-17,0.428571,213.322,193.96)">
                <circle cx="4528.27" cy="676.018" r="4.889" style="fill:rgb(209,235,206);"/>
                <path d="M4528.27,671.128C4530.97,671.128 4533.16,673.319 4533.16,676.018C4533.16,678.716 4530.97,680.907 4528.27,680.907C4525.57,680.907 4523.38,678.716 4523.38,676.018C4523.38,673.319 4525.57,671.128 4528.27,671.128ZM4528.27,672.128C4530.41,672.128 4532.16,673.871 4532.16,676.018C4532.16,678.164 4530.41,679.907 4528.27,679.907C4526.12,679.907 4524.38,678.164 4524.38,676.018C4524.38,673.871 4526.12,672.128 4528.27,672.128Z" style="fill:rgb(171,195,161);"/>
            </g>
            <g transform="matrix(0.52,-1.18952e-17,5.32907e-17,0.428571,223.343,183.669)">
                <circle cx="4528.27" cy="676.018" r="4.889" style="fill:rgb(209,235,206);"/>
                <path d="M4528.27,671.128C4530.97,671.128 4533.16,673.319 4533.16,676.018C4533.16,678.716 4530.97,680.907 4528.27,680.907C4525.57,680.907 4523.38,678.716 4523.38,676.018C4523.38,673.319 4525.57,671.128 4528.27,671.128ZM4528.27,672.128C4530.41,672.128 4532.16,673.871 4532.16,676.018C4532.16,678.164 4530.41,679.907 4528.27,679.907C4526.12,679.907 4524.38,678.164 4524.38,676.018C4524.38,673.871 4526.12,672.128 4528.27,672.128Z" style="fill:rgb(171,195,161);"/>
            </g>
            <g transform="matrix(0.52,-1.18952e-17,5.32907e-17,0.428571,235.567,196.535)">
                <circle cx="4528.27" cy="676.018" r="4.889" style="fill:rgb(209,235,206);"/>
                <path d="M4528.27,671.128C4530.97,671.128 4533.16,673.319 4533.16,676.018C4533.16,678.716 4530.97,680.907 4528.27,680.907C4525.57,680.907 4523.38,678.716 4523.38,676.018C4523.38,673.319 4525.57,671.128 4528.27,671.128ZM4528.27,672.128C4530.41,672.128 4532.16,673.871 4532.16,676.018C4532.16,678.164 4530.41,679.907 4528.27,679.907C4526.12,679.907 4524.38,678.164 4524.38,676.018C4524.38,673.871 4526.12,672.128 4528.27,672.128Z" style="fill:rgb(171,195,161);"/>
            </g>
            <g transform="matrix(0.52,-1.18952e-17,5.32907e-17,0.428571,240.981,187.229)">
                <circle cx="4528.27" cy="676.018" r="4.889" style="fill:rgb(209,235,206);"/>
                <path d="M4528.27,671.128C4530.97,671.128 4533.16,673.319 4533.16,676.018C4533.16,678.716 4530.97,680.907 4528.27,680.907C4525.57,680.907 4523.38,678.716 4523.38,676.018C4523.38,673.319 4525.57,671.128 4528.27,671.128ZM4528.27,672.128C4530.41,672.128 4532.16,673.871 4532.16,676.018C4532.16,678.164 4530.41,679.907 4528.27,679.907C4526.12,679.907 4524.38,678.164 4524.38,676.018C4524.38,673.871 4526.12,672.128 4528.27,672.128Z" style="fill:rgb(171,195,161);"/>
            </g>
            <g transform="matrix(0.52,-1.18952e-17,5.32907e-17,0.428571,251.346,197.857)">
                <circle cx="4528.27" cy="676.018" r="4.889" style="fill:rgb(209,235,206);"/>
                <path d="M4528.27,671.128C4530.97,671.128 4533.16,673.319 4533.16,676.018C4533.16,678.716 4530.97,680.907 4528.27,680.907C4525.57,680.907 4523.38,678.716 4523.38,676.018C4523.38,673.319 4525.57,671.128 4528.27,671.128ZM4528.27,672.128C4530.41,672.128 4532.16,673.871 4532.16,676.018C4532.16,678.164 4530.41,679.907 4528.27,679.907C4526.12,679.907 4524.38,678.164 4524.38,676.018C4524.38,673.871 4526.12,672.128 4528.27,672.128Z" style="fill:rgb(171,195,161);"/>
            </g>
            <g transform="matrix(0.52,-1.18952e-17,5.32907e-17,0.428571,256.877,188.271)">
                <circle cx="4528.27" cy="676.018" r="4.889" style="fill:rgb(209,235,206);"/>
                <path d="M4528.27,671.128C4530.97,671.128 4533.16,673.319 4533.16,676.018C4533.16,678.716 4530.97,680.907 4528.27,680.907C4525.57,680.907 4523.38,678.716 4523.38,676.018C4523.38,673.319 4525.57,671.128 4528.27,671.128ZM4528.27,672.128C4530.41,672.128 4532.16,673.871 4532.16,676.018C4532.16,678.164 4530.41,679.907 4528.27,679.907C4526.12,679.907 4524.38,678.164 4524.38,676.018C4524.38,673.871 4526.12,672.128 4528.27,672.128Z" style="fill:rgb(171,195,161);"/>
            </g>
            <g transform="matrix(0.52,-1.18952e-17,5.32907e-17,0.428571,273.197,199.129)">
                <circle cx="4528.27" cy="676.018" r="4.889" style="fill:rgb(209,235,206);"/>
                <path d="M4528.27,671.128C4530.97,671.128 4533.16,673.319 4533.16,676.018C4533.16,678.716 4530.97,680.907 4528.27,680.907C4525.57,680.907 4523.38,678.716 4523.38,676.018C4523.38,673.319 4525.57,671.128 4528.27,671.128ZM4528.27,672.128C4530.41,672.128 4532.16,673.871 4532.16,676.018C4532.16,678.164 4530.41,679.907 4528.27,679.907C4526.12,679.907 4524.38,678.164 4524.38,676.018C4524.38,673.871 4526.12,672.128 4528.27,672.128Z" style="fill:rgb(171,195,161);"/>
            </g>
            <g transform="matrix(0.52,-1.18952e-17,5.32907e-17,0.428571,278.09,190.318)">
                <circle cx="4528.27" cy="676.018" r="4.889" style="fill:rgb(209,235,206);"/>
                <path d="M4528.27,671.128C4530.97,671.128 4533.16,673.319 4533.16,676.018C4533.16,678.716 4530.97,680.907 4528.27,680.907C4525.57,680.907 4523.38,678.716 4523.38,676.018C4523.38,673.319 4525.57,671.128 4528.27,671.128ZM4528.27,672.128C4530.41,672.128 4532.16,673.871 4532.16,676.018C4532.16,678.164 4530.41,679.907 4528.27,679.907C4526.12,679.907 4524.38,678.164 4524.38,676.018C4524.38,673.871 4526.12,672.128 4528.27,672.128Z" style="fill:rgb(171,195,161);"/>
            </g>
            <g transform="matrix(0.52,-1.18952e-17,5.32907e-17,0.428571,285.194,196.481)">
                <circle cx="4528.27" cy="676.018" r="4.889" style="fill:rgb(209,235,206);"/>
                <path d="M4528.27,671.128C4530.97,671.128 4533.16,673.319 4533.16,676.018C4533.16,678.716 4530.97,680.907 4528.27,680.907C4525.57,680.907 4523.38,678.716 4523.38,676.018C4523.38,673.319 4525.57,671.128 4528.27,671.128ZM4528.27,672.128C4530.41,672.128 4532.16,673.871 4532.16,676.018C4532.16,678.164 4530.41,679.907 4528.27,679.907C4526.12,679.907 4524.38,678.164 4524.38,676.018C4524.38,673.871 4526.12,672.128 4528.27,672.128Z" style="fill:rgb(171,195,161);"/>
            </g>
            <g transform="matrix(0.52,-1.18952e-17,5.32907e-17,0.428571,289.598,186.322)">
                <circle cx="4528.27" cy="676.018" r="4.889" style="fill:rgb(209,235,206);"/>
                <path d="M4528.27,671.128C4530.97,671.128 4533.16,673.319 4533.16,676.018C4533.16,678.716 4530.97,680.907 4528.27,680.907C4525.57,680.907 4523.38,678.716 4523.38,676.018C4523.38,673.319 4525.57,671.128 4528.27,671.128ZM4528.27,672.128C4530.41,672.128 4532.16,673.871 4532.16,676.018C4532.16,678.164 4530.41,679.907 4528.27,679.907C4526.12,679.907 4524.38,678.164 4524.38,676.018C4524.38,673.871 4526.12,672.128 4528.27,672.128Z" style="fill:rgb(171,195,161);"/>
            </g>
            <g transform="matrix(0.52,-1.18952e-17,5.32907e-17,0.428571,296.906,195.106)">
                <circle cx="4528.27" cy="676.018" r="4.889" style="fill:rgb(209,235,206);"/>
                <path d="M4528.27,671.128C4530.97,671.128 4533.16,673.319 4533.16,676.018C4533.16,678.716 4530.97,680.907 4528.27,680.907C4525.57,680.907 4523.38,678.716 4523.38,676.018C4523.38,673.319 4525.57,671.128 4528.27,671.128ZM4528.27,672.128C4530.41,672.128 4532.16,673.871 4532.16,676.018C4532.16,678.164 4530.41,679.907 4528.27,679.907C4526.12,679.907 4524.38,678.164 4524.38,676.018C4524.38,673.871 4526.12,672.128 4528.27,672.128Z" style="fill:rgb(171,195,161);"/>
            </g>
            <g transform="matrix(0.52,-1.18952e-17,5.32907e-17,0.428571,295.939,187.647)">
                <circle cx="4528.27" cy="676.018" r="4.889" style="fill:rgb(209,235,206);"/>
                <path d="M4528.27,671.128C4530.97,671.128 4533.16,673.319 4533.16,676.018C4533.16,678.716 4530.97,680.907 4528.27,680.907C4525.57,680.907 4523.38,678.716 4523.38,676.018C4523.38,673.319 4525.57,671.128 4528.27,671.128ZM4528.27,672.128C4530.41,672.128 4532.16,673.871 4532.16,676.018C4532.16,678.164 4530.41,679.907 4528.27,679.907C4526.12,679.907 4524.38,678.164 4524.38,676.018C4524.38,673.871 4526.12,672.128 4528.27,672.128Z" style="fill:rgb(171,195,161);"/>
            </g>
            <g transform="matrix(0.52,-1.18952e-17,5.32907e-17,0.428571,302.185,178.911)">
                <circle cx="4528.27" cy="676.018" r="4.889" style="fill:rgb(209,235,206);"/>
                <path d="M4528.27,671.128C4530.97,671.128 4533.16,673.319 4533.16,676.018C4533.16,678.716 4530.97,680.907 4528.27,680.907C4525.57,680.907 4523.38,678.716 4523.38,676.018C4523.38,673.319 4525.57,671.128 4528.27,671.128ZM4528.27,672.128C4530.41,672.128 4532.16,673.871 4532.16,676.018C4532.16,678.164 4530.41,679.907 4528.27,679.907C4526.12,679.907 4524.38,678.164 4524.38,676.018C4524.38,673.871 4526.12,672.128 4528.27,672.128Z" style="fill:rgb(171,195,161);"/>
            </g>
            <g transform="matrix(0.52,-1.18952e-17,5.32907e-17,0.428571,283.16,179.448)">
                <circle cx="4528.27" cy="676.018" r="4.889" style="fill:rgb(209,235,206);"/>
                <path d="M4528.27,671.128C4530.97,671.128 4533.16,673.319 4533.16,676.018C4533.16,678.716 4530.97,680.907 4528.27,680.907C4525.57,680.907 4523.38,678.716 4523.38,676.018C4523.38,673.319 4525.57,671.128 4528.27,671.128ZM4528.27,672.128C4530.41,672.128 4532.16,673.871 4532.16,676.018C4532.16,678.164 4530.41,679.907 4528.27,679.907C4526.12,679.907 4524.38,678.164 4524.38,676.018C4524.38,673.871 4526.12,672.128 4528.27,672.128Z" style="fill:rgb(171,195,161);"/>
            </g>
            <g transform="matrix(0.52,-1.18952e-17,5.32907e-17,0.428571,268.69,176.216)">
                <circle cx="4528.27" cy="676.018" r="4.889" style="fill:rgb(209,235,206);"/>
                <path d="M4528.27,671.128C4530.97,671.128 4533.16,673.319 4533.16,676.018C4533.16,678.716 4530.97,680.907 4528.27,680.907C4525.57,680.907 4523.38,678.716 4523.38,676.018C4523.38,673.319 4525.57,671.128 4528.27,671.128ZM4528.27,672.128C4530.41,672.128 4532.16,673.871 4532.16,676.018C4532.16,678.164 4530.41,679.907 4528.27,679.907C4526.12,679.907 4524.38,678.164 4524.38,676.018C4524.38,673.871 4526.12,672.128 4528.27,672.128Z" style="fill:rgb(171,195,161);"/>
            </g>
            <g transform="matrix(0.52,-1.18952e-17,5.32907e-17,0.428571,267.503,189.539)">
                <circle cx="4528.27" cy="676.018" r="4.889" style="fill:rgb(209,235,206);"/>
                <path d="M4528.27,671.128C4530.97,671.128 4533.16,673.319 4533.16,676.018C4533.16,678.716 4530.97,680.907 4528.27,680.907C4525.57,680.907 4523.38,678.716 4523.38,676.018C4523.38,673.319 4525.57,671.128 4528.27,671.128ZM4528.27,672.128C4530.41,672.128 4532.16,673.871 4532.16,676.018C4532.16,678.164 4530.41,679.907 4528.27,679.907C4526.12,679.907 4524.38,678.164 4524.38,676.018C4524.38,673.871 4526.12,672.128 4528.27,672.128Z" style="fill:rgb(171,195,161);"/>
            </g>
            <g transform="matrix(0.52,-1.18952e-17,5.32907e-17,0.428571,263.767,196.318)">
                <circle cx="4528.27" cy="676.018" r="4.889" style="fill:rgb(209,235,206);"/>
                <path d="M4528.27,671.128C4530.97,671.128 4533.16,673.319 4533.16,676.018C4533.16,678.716 4530.97,680.907 4528.27,680.907C4525.57,680.907 4523.38,678.716 4523.38,676.018C4523.38,673.319 4525.57,671.128 4528.27,671.128ZM4528.27,672.128C4530.41,672.128 4532.16,673.871 4532.16,676.018C4532.16,678.164 4530.41,679.907 4528.27,679.907C4526.12,679.907 4524.38,678.164 4524.38,676.018C4524.38,673.871 4526.12,672.128 4528.27,672.128Z" style="fill:rgb(171,195,161);"/>
            </g>
            <g transform="matrix(0.52,-1.18952e-17,5.32907e-17,0.428571,256.759,179.982)">
                <circle cx="4528.27" cy="676.018" r="4.889" style="fill:rgb(209,235,206);"/>
                <path d="M4528.27,671.128C4530.97,671.128 4533.16,673.319 4533.16,676.018C4533.16,678.716 4530.97,680.907 4528.27,680.907C4525.57,680.907 4523.38,678.716 4523.38,676.018C4523.38,673.319 4525.57,671.128 4528.27,671.128ZM4528.27,672.128C4530.41,672.128 4532.16,673.871 4532.16,676.018C4532.16,678.164 4530.41,679.907 4528.27,679.907C4526.12,679.907 4524.38,678.164 4524.38,676.018C4524.38,673.871 4526.12,672.128 4528.27,672.128Z" style="fill:rgb(171,195,161);"/>
            </g>
            <g transform="matrix(0.52,-1.18952e-17,5.32907e-17,0.428571,270.946,184.89)">
                <circle cx="4528.27" cy="676.018" r="4.889" style="fill:rgb(209,235,206);"/>
                <path d="M4528.27,671.128C4530.97,671.128 4533.16,673.319 4533.16,676.018C4533.16,678.716 4530.97,680.907 4528.27,680.907C4525.57,680.907 4523.38,678.716 4523.38,676.018C4523.38,673.319 4525.57,671.128 4528.27,671.128ZM4528.27,672.128C4530.41,672.128 4532.16,673.871 4532.16,676.018C4532.16,678.164 4530.41,679.907 4528.27,679.907C4526.12,679.907 4524.38,678.164 4524.38,676.018C4524.38,673.871 4526.12,672.128 4528.27,672.128Z" style="fill:rgb(171,195,161);"/>
            </g>
            <g transform="matrix(0.52,-1.18952e-17,5.32907e-17,0.428571,275.974,173.464)">
                <circle cx="4528.27" cy="676.018" r="4.889" style="fill:rgb(209,235,206);"/>
                <path d="M4528.27,671.128C4530.97,671.128 4533.16,673.319 4533.16,676.018C4533.16,678.716 4530.97,680.907 4528.27,680.907C4525.57,680.907 4523.38,678.716 4523.38,676.018C4523.38,673.319 4525.57,671.128 4528.27,671.128ZM4528.27,672.128C4530.41,672.128 4532.16,673.871 4532.16,676.018C4532.16,678.164 4530.41,679.907 4528.27,679.907C4526.12,679.907 4524.38,678.164 4524.38,676.018C4524.38,673.871 4526.12,672.128 4528.27,672.128Z" style="fill:rgb(171,195,161);"/>
            </g>
            <g transform="matrix(0.52,-1.18952e-17,5.32907e-17,0.428571,296.255,173.656)">
                <circle cx="4528.27" cy="676.018" r="4.889" style="fill:rgb(209,235,206);"/>
                <path d="M4528.27,671.128C4530.97,671.128 4533.16,673.319 4533.16,676.018C4533.16,678.716 4530.97,680.907 4528.27,680.907C4525.57,680.907 4523.38,678.716 4523.38,676.018C4523.38,673.319 4525.57,671.128 4528.27,671.128ZM4528.27,672.128C4530.41,672.128 4532.16,673.871 4532.16,676.018C4532.16,678.164 4530.41,679.907 4528.27,679.907C4526.12,679.907 4524.38,678.164 4524.38,676.018C4524.38,673.871 4526.12,672.128 4528.27,672.128Z" style="fill:rgb(171,195,161);"/>
            </g>
            <g transform="matrix(0.52,-1.18952e-17,5.32907e-17,0.428571,306.088,200.196)">
                <circle cx="4528.27" cy="676.018" r="4.889" style="fill:rgb(209,235,206);"/>
                <path d="M4528.27,671.128C4530.97,671.128 4533.16,673.319 4533.16,676.018C4533.16,678.716 4530.97,680.907 4528.27,680.907C4525.57,680.907 4523.38,678.716 4523.38,676.018C4523.38,673.319 4525.57,671.128 4528.27,671.128ZM4528.27,672.128C4530.41,672.128 4532.16,673.871 4532.16,676.018C4532.16,678.164 4530.41,679.907 4528.27,679.907C4526.12,679.907 4524.38,678.164 4524.38,676.018C4524.38,673.871 4526.12,672.128 4528.27,672.128Z" style="fill:rgb(171,195,161);"/>
            </g>
            <g transform="matrix(0.52,-1.18952e-17,5.32907e-17,0.428571,293.95,200.079)">
                <circle cx="4528.27" cy="676.018" r="4.889" style="fill:rgb(209,235,206);"/>
                <path d="M4528.27,671.128C4530.97,671.128 4533.16,673.319 4533.16,676.018C4533.16,678.716 4530.97,680.907 4528.27,680.907C4525.57,680.907 4523.38,678.716 4523.38,676.018C4523.38,673.319 4525.57,671.128 4528.27,671.128ZM4528.27,672.128C4530.41,672.128 4532.16,673.871 4532.16,676.018C4532.16,678.164 4530.41,679.907 4528.27,679.907C4526.12,679.907 4524.38,678.164 4524.38,676.018C4524.38,673.871 4526.12,672.128 4528.27,672.128Z" style="fill:rgb(171,195,161);"/>
            </g>
            <g transform="matrix(0.52,-1.18952e-17,5.32907e-17,0.428571,304.366,191.716)">
                <circle cx="4528.27" cy="676.018" r="4.889" style="fill:rgb(209,235,206);"/>
                <path d="M4528.27,671.128C4530.97,671.128 4533.16,673.319 4533.16,676.018C4533.16,678.716 4530.97,680.907 4528.27,680.907C4525.57,680.907 4523.38,678.716 4523.38,676.018C4523.38,673.319 4525.57,671.128 4528.27,671.128ZM4528.27,672.128C4530.41,672.128 4532.16,673.871 4532.16,676.018C4532.16,678.164 4530.41,679.907 4528.27,679.907C4526.12,679.907 4524.38,678.164 4524.38,676.018C4524.38,673.871 4526.12,672.128 4528.27,672.128Z" style="fill:rgb(171,195,161);"/>
            </g>
            <g transform="matrix(0.52,-1.18952e-17,5.32907e-17,0.428571,306.651,172.311)">
                <circle cx="4528.27" cy="676.018" r="4.889" style="fill:rgb(209,235,206);"/>
                <path d="M4528.27,671.128C4530.97,671.128 4533.16,673.319 4533.16,676.018C4533.16,678.716 4530.97,680.907 4528.27,680.907C4525.57,680.907 4523.38,678.716 4523.38,676.018C4523.38,673.319 4525.57,671.128 4528.27,671.128ZM4528.27,672.128C4530.41,672.128 4532.16,673.871 4532.16,676.018C4532.16,678.164 4530.41,679.907 4528.27,679.907C4526.12,679.907 4524.38,678.164 4524.38,676.018C4524.38,673.871 4526.12,672.128 4528.27,672.128Z" style="fill:rgb(171,195,161);"/>
            </g>
            <g transform="matrix(0.52,-1.18952e-17,5.32907e-17,0.428571,302.16,184.102)">
                <circle cx="4528.27" cy="676.018" r="4.889" style="fill:rgb(209,235,206);"/>
                <path d="M4528.27,671.128C4530.97,671.128 4533.16,673.319 4533.16,676.018C4533.16,678.716 4530.97,680.907 4528.27,680.907C4525.57,680.907 4523.38,678.716 4523.38,676.018C4523.38,673.319 4525.57,671.128 4528.27,671.128ZM4528.27,672.128C4530.41,672.128 4532.16,673.871 4532.16,676.018C4532.16,678.164 4530.41,679.907 4528.27,679.907C4526.12,679.907 4524.38,678.164 4524.38,676.018C4524.38,673.871 4526.12,672.128 4528.27,672.128Z" style="fill:rgb(171,195,161);"/>
            </g>
            <g transform="matrix(0.52,-1.18952e-17,5.32907e-17,0.428571,287.398,172.812)">
                <circle cx="4528.27" cy="676.018" r="4.889" style="fill:rgb(209,235,206);"/>
                <path d="M4528.27,671.128C4530.97,671.128 4533.16,673.319 4533.16,676.018C4533.16,678.716 4530.97,680.907 4528.27,680.907C4525.57,680.907 4523.38,678.716 4523.38,676.018C4523.38,673.319 4525.57,671.128 4528.27,671.128ZM4528.27,672.128C4530.41,672.128 4532.16,673.871 4532.16,676.018C4532.16,678.164 4530.41,679.907 4528.27,679.907C4526.12,679.907 4524.38,678.164 4524.38,676.018C4524.38,673.871 4526.12,672.128 4528.27,672.128Z" style="fill:rgb(171,195,161);"/>
            </g>
            <g transform="matrix(0.52,-1.18952e-17,5.32907e-17,0.428571,250.165,171.506)">
                <circle cx="4528.27" cy="676.018" r="4.889" style="fill:rgb(209,235,206);"/>
                <path d="M4528.27,671.128C4530.97,671.128 4533.16,673.319 4533.16,676.018C4533.16,678.716 4530.97,680.907 4528.27,680.907C4525.57,680.907 4523.38,678.716 4523.38,676.018C4523.38,673.319 4525.57,671.128 4528.27,671.128ZM4528.27,672.128C4530.41,672.128 4532.16,673.871 4532.16,676.018C4532.16,678.164 4530.41,679.907 4528.27,679.907C4526.12,679.907 4524.38,678.164 4524.38,676.018C4524.38,673.871 4526.12,672.128 4528.27,672.128Z" style="fill:rgb(171,195,161);"/>
            </g>
            <g transform="matrix(0.52,-1.18952e-17,5.32907e-17,0.428571,249.171,185.82)">
                <circle cx="4528.27" cy="676.018" r="4.889" style="fill:rgb(209,235,206);"/>
                <path d="M4528.27,671.128C4530.97,671.128 4533.16,673.319 4533.16,676.018C4533.16,678.716 4530.97,680.907 4528.27,680.907C4525.57,680.907 4523.38,678.716 4523.38,676.018C4523.38,673.319 4525.57,671.128 4528.27,671.128ZM4528.27,672.128C4530.41,672.128 4532.16,673.871 4532.16,676.018C4532.16,678.164 4530.41,679.907 4528.27,679.907C4526.12,679.907 4524.38,678.164 4524.38,676.018C4524.38,673.871 4526.12,672.128 4528.27,672.128Z" style="fill:rgb(171,195,161);"/>
            </g>
            <g transform="matrix(0.52,-1.18952e-17,5.32907e-17,0.428571,260.147,173.517)">
                <circle cx="4528.27" cy="676.018" r="4.889" style="fill:rgb(209,235,206);"/>
                <path d="M4528.27,671.128C4530.97,671.128 4533.16,673.319 4533.16,676.018C4533.16,678.716 4530.97,680.907 4528.27,680.907C4525.57,680.907 4523.38,678.716 4523.38,676.018C4523.38,673.319 4525.57,671.128 4528.27,671.128ZM4528.27,672.128C4530.41,672.128 4532.16,673.871 4532.16,676.018C4532.16,678.164 4530.41,679.907 4528.27,679.907C4526.12,679.907 4524.38,678.164 4524.38,676.018C4524.38,673.871 4526.12,672.128 4528.27,672.128Z" style="fill:rgb(171,195,161);"/>
            </g>
            <g transform="matrix(0.52,-1.18952e-17,5.32907e-17,0.428571,241.123,201.224)">
                <circle cx="4528.27" cy="676.018" r="4.889" style="fill:rgb(209,235,206);"/>
                <path d="M4528.27,671.128C4530.97,671.128 4533.16,673.319 4533.16,676.018C4533.16,678.716 4530.97,680.907 4528.27,680.907C4525.57,680.907 4523.38,678.716 4523.38,676.018C4523.38,673.319 4525.57,671.128 4528.27,671.128ZM4528.27,672.128C4530.41,672.128 4532.16,673.871 4532.16,676.018C4532.16,678.164 4530.41,679.907 4528.27,679.907C4526.12,679.907 4524.38,678.164 4524.38,676.018C4524.38,673.871 4526.12,672.128 4528.27,672.128Z" style="fill:rgb(171,195,161);"/>
            </g>
            <g transform="matrix(0.52,-1.18952e-17,5.32907e-17,0.428571,210.792,180.19)">
                <circle cx="4528.27" cy="676.018" r="4.889" style="fill:rgb(209,235,206);"/>
                <path d="M4528.27,671.128C4530.97,671.128 4533.16,673.319 4533.16,676.018C4533.16,678.716 4530.97,680.907 4528.27,680.907C4525.57,680.907 4523.38,678.716 4523.38,676.018C4523.38,673.319 4525.57,671.128 4528.27,671.128ZM4528.27,672.128C4530.41,672.128 4532.16,673.871 4532.16,676.018C4532.16,678.164 4530.41,679.907 4528.27,679.907C4526.12,679.907 4524.38,678.164 4524.38,676.018C4524.38,673.871 4526.12,672.128 4528.27,672.128Z" style="fill:rgb(171,195,161);"/>
            </g>
            <g transform="matrix(0.52,-1.18952e-17,5.32907e-17,0.428571,228.975,174.627)">
                <circle cx="4528.27" cy="676.018" r="4.889" style="fill:rgb(209,235,206);"/>
                <path d="M4528.27,671.128C4530.97,671.128 4533.16,673.319 4533.16,676.018C4533.16,678.716 4530.97,680.907 4528.27,680.907C4525.57,680.907 4523.38,678.716 4523.38,676.018C4523.38,673.319 4525.57,671.128 4528.27,671.128ZM4528.27,672.128C4530.41,672.128 4532.16,673.871 4532.16,676.018C4532.16,678.164 4530.41,679.907 4528.27,679.907C4526.12,679.907 4524.38,678.164 4524.38,676.018C4524.38,673.871 4526.12,672.128 4528.27,672.128Z" style="fill:rgb(171,195,161);"/>
            </g>
            <g transform="matrix(0.52,-1.18952e-17,5.32907e-17,0.428571,211.452,201.035)">
                <circle cx="4528.27" cy="676.018" r="4.889" style="fill:rgb(209,235,206);"/>
                <path d="M4528.27,671.128C4530.97,671.128 4533.16,673.319 4533.16,676.018C4533.16,678.716 4530.97,680.907 4528.27,680.907C4525.57,680.907 4523.38,678.716 4523.38,676.018C4523.38,673.319 4525.57,671.128 4528.27,671.128ZM4528.27,672.128C4530.41,672.128 4532.16,673.871 4532.16,676.018C4532.16,678.164 4530.41,679.907 4528.27,679.907C4526.12,679.907 4524.38,678.164 4524.38,676.018C4524.38,673.871 4526.12,672.128 4528.27,672.128Z" style="fill:rgb(171,195,161);"/>
            </g>
            <g transform="matrix(0.71299,0,0,0.428571,-3049.3,-278.792)">
                <rect x="7867" y="1719" width="149" height="85" style="fill:none;stroke:rgb(75,68,69);stroke-width:0.83px;"/>
            </g>
            <g transform="matrix(1,0,0,1,2.57103,15.8571)">
                <g transform="matrix(1,0,0,1,-0.566566,-1.13687e-13)">
                    <g transform="matrix(0.52,0,0,0.267106,-1473.44,63.0741)">
                        <path d="M7854.3,1835L7854.3,1856.23" style="fill:none;stroke:rgb(75,68,69);stroke-width:1.2px;"/>
                    </g>
                    <g transform="matrix(0.993918,0,0,0.428571,-5217.6,-236.643)">
                        <path d="M7876.3,1856.23L7864,1856.23L7864,1867.51" style="fill:none;stroke:rgb(75,68,69);stroke-width:0.66px;"/>
                    </g>
                    <g transform="matrix(-0.993918,0,0,0.428571,10439.2,-236.643)">
                        <path d="M7876.3,1856.23L7864,1856.23L7864,1867.51" style="fill:none;stroke:rgb(75,68,69);stroke-width:0.66px;"/>
                    </g>
                    <g transform="matrix(0.52,-1.18952e-17,5.32907e-17,0.428571,256.095,263.492)">
                        <circle cx="4528.27" cy="676.018" r="4.889" style="fill:rgb(209,235,206);"/>
                        <path d="M4528.27,671.128C4530.97,671.128 4533.16,673.319 4533.16,676.018C4533.16,678.716 4530.97,680.907 4528.27,680.907C4525.57,680.907 4523.38,678.716 4523.38,676.018C4523.38,673.319 4525.57,671.128 4528.27,671.128ZM4528.27,672.128C4530.41,672.128 4532.16,673.871 4532.16,676.018C4532.16,678.164 4530.41,679.907 4528.27,679.907C4526.12,679.907 4524.38,678.164 4524.38,676.018C4524.38,673.871 4526.12,672.128 4528.27,672.128Z" style="fill:rgb(171,195,161);"/>
                    </g>
                </g>
                <g transform="matrix(0.361702,0,0,1,1647.28,21.0084)">
                    <g transform="matrix(0.52,0,0,0.267106,-1473.44,63.0741)">
                        <path d="M7854.3,1835L7854.3,1856.23" style="fill:none;stroke:rgb(75,68,69);stroke-width:1.96px;"/>
                    </g>
                    <g transform="matrix(0.993918,0,0,0.23853,-5217.6,116.119)">
                        <path d="M7876.3,1856.23L7864,1856.23L7864,1867.51" style="fill:none;stroke:rgb(75,68,69);stroke-width:1.59px;"/>
                    </g>
                    <g transform="matrix(-0.993918,0,0,0.23853,10439.2,116.119)">
                        <path d="M7876.3,1856.23L7864,1856.23L7864,1867.51" style="fill:none;stroke:rgb(75,68,69);stroke-width:1.59px;"/>
                    </g>
                </g>
                <g transform="matrix(0.361702,0,0,1,1660.28,21.0084)">
                    <g transform="matrix(0.52,0,0,0.267106,-1473.44,63.0741)">
                        <path d="M7854.3,1835L7854.3,1856.23" style="fill:none;stroke:rgb(75,68,69);stroke-width:1.96px;"/>
                    </g>
                    <g transform="matrix(0.993918,0,0,0.23853,-5217.6,116.119)">
                        <path d="M7876.3,1856.23L7864,1856.23L7864,1867.51" style="fill:none;stroke:rgb(75,68,69);stroke-width:1.59px;"/>
                    </g>
                    <g transform="matrix(-0.993918,0,0,0.23853,10439.2,116.119)">
                        <path d="M7876.3,1856.23L7864,1856.23L7864,1867.51" style="fill:none;stroke:rgb(75,68,69);stroke-width:1.59px;"/>
                    </g>
                </g>
                <g transform="matrix(0.361702,0,0,1,1671.72,21.0084)">
                    <g transform="matrix(0.52,0,0,0.267106,-1473.44,63.0741)">
                        <path d="M7854.3,1835L7854.3,1856.23" style="fill:none;stroke:rgb(75,68,69);stroke-width:1.96px;"/>
                    </g>
                    <g transform="matrix(0.993918,0,0,0.23853,-5217.6,116.119)">
                        <path d="M7876.3,1856.23L7864,1856.23L7864,1867.51" style="fill:none;stroke:rgb(75,68,69);stroke-width:1.59px;"/>
                    </g>
                    <g transform="matrix(-0.993918,0,0,0.23853,10439.2,116.119)">
                        <path d="M7876.3,1856.23L7864,1856.23L7864,1867.51" style="fill:none;stroke:rgb(75,68,69);stroke-width:1.59px;"/>
                    </g>
                </g>
                <g transform="matrix(0.361702,0,0,1,1684.72,21.0084)">
                    <g transform="matrix(0.52,0,0,0.267106,-1473.44,63.0741)">
                        <path d="M7854.3,1835L7854.3,1856.23" style="fill:none;stroke:rgb(75,68,69);stroke-width:1.96px;"/>
                    </g>
                    <g transform="matrix(0.993918,0,0,0.23853,-5217.6,116.119)">
                        <path d="M7876.3,1856.23L7864,1856.23L7864,1867.51" style="fill:none;stroke:rgb(75,68,69);stroke-width:1.59px;"/>
                    </g>
                    <g transform="matrix(-0.993918,0,0,0.23853,10439.2,116.119)">
                        <path d="M7876.3,1856.23L7864,1856.23L7864,1867.51" style="fill:none;stroke:rgb(75,68,69);stroke-width:1.59px;"/>
                    </g>
                </g>
                <g transform="matrix(1,0,0,1,52.0777,42.8482)">
                    <g transform="matrix(0.52,0,0,0.267106,-1513.86,30.7301)">
                        <path d="M7854.3,1835L7854.3,1856.23" style="fill:none;stroke:rgb(75,68,69);stroke-width:1.2px;"/>
                    </g>
                    <g transform="matrix(0.52,0,0,0.428571,-1525.3,-268.987)">
                        <path d="M7876.3,1856.23L7864,1856.23L7864,1867.51" style="fill:none;stroke:rgb(75,68,69);stroke-width:1px;"/>
                    </g>
                    <g transform="matrix(-0.52,0,0,0.428571,6666.04,-268.987)">
                        <path d="M7876.3,1856.23L7864,1856.23L7864,1867.51" style="fill:none;stroke:rgb(75,68,69);stroke-width:1px;"/>
                    </g>
                    <g transform="matrix(0.52,-1.18952e-17,5.32907e-17,0.428571,215.671,231.148)">
                        <circle cx="4528.27" cy="676.018" r="4.889" style="fill:rgb(209,235,206);"/>
                        <path d="M4528.27,671.128C4530.97,671.128 4533.16,673.319 4533.16,676.018C4533.16,678.716 4530.97,680.907 4528.27,680.907C4525.57,680.907 4523.38,678.716 4523.38,676.018C4523.38,673.319 4525.57,671.128 4528.27,671.128ZM4528.27,672.128C4530.41,672.128 4532.16,673.871 4532.16,676.018C4532.16,678.164 4530.41,679.907 4528.27,679.907C4526.12,679.907 4524.38,678.164 4524.38,676.018C4524.38,673.871 4526.12,672.128 4528.27,672.128Z" style="fill:rgb(171,195,161);"/>
                    </g>
                    <g transform="matrix(0.52,-1.18952e-17,5.32907e-17,0.428571,209.278,241.653)">
                        <circle cx="4528.27" cy="676.018" r="4.889" style="fill:rgb(209,235,206);"/>
                        <path d="M4528.27,671.128C4530.97,671.128 4533.16,673.319 4533.16,676.018C4533.16,678.716 4530.97,680.907 4528.27,680.907C4525.57,680.907 4523.38,678.716 4523.38,676.018C4523.38,673.319 4525.57,671.128 4528.27,671.128ZM4528.27,672.128C4530.41,672.128 4532.16,673.871 4532.16,676.018C4532.16,678.164 4530.41,679.907 4528.27,679.907C4526.12,679.907 4524.38,678.164 4524.38,676.018C4524.38,673.871 4526.12,672.128 4528.27,672.128Z" style="fill:rgb(171,195,161);"/>
                    </g>
                    <g transform="matrix(0.52,-1.18952e-17,5.32907e-17,0.428571,222.064,241.653)">
                        <circle cx="4528.27" cy="676.018" r="4.889" style="fill:rgb(209,235,206);"/>
                        <path d="M4528.27,671.128C4530.97,671.128 4533.16,673.319 4533.16,676.018C4533.16,678.716 4530.97,680.907 4528.27,680.907C4525.57,680.907 4523.38,678.716 4523.38,676.018C4523.38,673.319 4525.57,671.128 4528.27,671.128ZM4528.27,672.128C4530.41,672.128 4532.16,673.871 4532.16,676.018C4532.16,678.164 4530.41,679.907 4528.27,679.907C4526.12,679.907 4524.38,678.164 4524.38,676.018C4524.38,673.871 4526.12,672.128 4528.27,672.128Z" style="fill:rgb(171,195,161);"/>
                    </g>
                </g>
                <g transform="matrix(1,0,0,1,27.6377,42.8482)">
                    <g transform="matrix(0.52,0,0,0.267106,-1513.86,30.7301)">
                        <path d="M7854.3,1835L7854.3,1856.23" style="fill:none;stroke:rgb(75,68,69);stroke-width:1.2px;"/>
                    </g>
                    <g transform="matrix(0.52,0,0,0.428571,-1525.3,-268.987)">
                        <path d="M7876.3,1856.23L7864,1856.23L7864,1867.51" style="fill:none;stroke:rgb(75,68,69);stroke-width:1px;"/>
                    </g>
                    <g transform="matrix(-0.52,0,0,0.428571,6666.04,-268.987)">
                        <path d="M7876.3,1856.23L7864,1856.23L7864,1867.51" style="fill:none;stroke:rgb(75,68,69);stroke-width:1px;"/>
                    </g>
                    <g transform="matrix(0.52,-1.18952e-17,5.32907e-17,0.428571,215.671,231.148)">
                        <circle cx="4528.27" cy="676.018" r="4.889" style="fill:rgb(209,235,206);"/>
                        <path d="M4528.27,671.128C4530.97,671.128 4533.16,673.319 4533.16,676.018C4533.16,678.716 4530.97,680.907 4528.27,680.907C4525.57,680.907 4523.38,678.716 4523.38,676.018C4523.38,673.319 4525.57,671.128 4528.27,671.128ZM4528.27,672.128C4530.41,672.128 4532.16,673.871 4532.16,676.018C4532.16,678.164 4530.41,679.907 4528.27,679.907C4526.12,679.907 4524.38,678.164 4524.38,676.018C4524.38,673.871 4526.12,672.128 4528.27,672.128Z" style="fill:rgb(171,195,161);"/>
                    </g>
                    <g transform="matrix(0.52,-1.18952e-17,5.32907e-17,0.428571,209.278,241.653)">
                        <circle cx="4528.27" cy="676.018" r="4.889" style="fill:rgb(209,235,206);"/>
                        <path d="M4528.27,671.128C4530.97,671.128 4533.16,673.319 4533.16,676.018C4533.16,678.716 4530.97,680.907 4528.27,680.907C4525.57,680.907 4523.38,678.716 4523.38,676.018C4523.38,673.319 4525.57,671.128 4528.27,671.128ZM4528.27,672.128C4530.41,672.128 4532.16,673.871 4532.16,676.018C4532.16,678.164 4530.41,679.907 4528.27,679.907C4526.12,679.907 4524.38,678.164 4524.38,676.018C4524.38,673.871 4526.12,672.128 4528.27,672.128Z" style="fill:rgb(171,195,161);"/>
                    </g>
                    <g transform="matrix(0.52,-1.18952e-17,5.32907e-17,0.428571,222.064,241.653)">
                        <circle cx="4528.27" cy="676.018" r="4.889" style="fill:rgb(209,235,206);"/>
                        <path d="M4528.27,671.128C4530.97,671.128 4533.16,673.319 4533.16,676.018C4533.16,678.716 4530.97,680.907 4528.27,680.907C4525.57,680.907 4523.38,678.716 4523.38,676.018C4523.38,673.319 4525.57,671.128 4528.27,671.128ZM4528.27,672.128C4530.41,672.128 4532.16,673.871 4532.16,676.018C4532.16,678.164 4530.41,679.907 4528.27,679.907C4526.12,679.907 4524.38,678.164 4524.38,676.018C4524.38,673.871 4526.12,672.128 4528.27,672.128Z" style="fill:rgb(171,195,161);"/>
                    </g>
                </g>
            </g>
            <g transform="matrix(1,0,0,1,-4.82078,2.15514)">
                <g transform="matrix(-0.43584,-0.129819,0.0150902,-0.045379,2606.98,536.296)">
                    <g transform="matrix(-1.08557,3.10557,-0.297522,-8.59313,172.782,1368.59)">
                        <path d="M93.509,175.377L89.009,184.377L84.509,175.377L93.509,175.377Z" style="fill:rgb(46,112,183);"/>
                        <path d="M89.009,142.064L89.009,177.177" style="fill:none;stroke:rgb(46,112,183);stroke-width:3px;"/>
                    </g>
                </g>
                <g transform="matrix(1,0,0,1,28.2444,12.4286)">
                    <g transform="matrix(0.52,0,0,0.494686,-1513.86,-386.878)">
                        <path d="M7854.3,1835L7854.3,1856.23" style="fill:none;stroke:rgb(75,68,69);stroke-width:0.93px;"/>
                    </g>
                    <g transform="matrix(0.52,0,0,0.428571,-1525.3,-268.987)">
                        <path d="M7876.3,1856.23L7864,1856.23L7864,1867.51" style="fill:none;stroke:rgb(75,68,69);stroke-width:1px;"/>
                    </g>
                    <g transform="matrix(-0.52,0,0,0.428571,6666.04,-268.987)">
                        <path d="M7876.3,1856.23L7864,1856.23L7864,1867.51" style="fill:none;stroke:rgb(75,68,69);stroke-width:1px;"/>
                    </g>
                    <g transform="matrix(0.52,-1.18952e-17,5.32907e-17,0.428571,215.671,231.148)">
                        <circle cx="4528.27" cy="676.018" r="4.889" style="fill:rgb(209,235,206);"/>
                        <path d="M4528.27,671.128C4530.97,671.128 4533.16,673.319 4533.16,676.018C4533.16,678.716 4530.97,680.907 4528.27,680.907C4525.57,680.907 4523.38,678.716 4523.38,676.018C4523.38,673.319 4525.57,671.128 4528.27,671.128ZM4528.27,672.128C4530.41,672.128 4532.16,673.871 4532.16,676.018C4532.16,678.164 4530.41,679.907 4528.27,679.907C4526.12,679.907 4524.38,678.164 4524.38,676.018C4524.38,673.871 4526.12,672.128 4528.27,672.128Z" style="fill:rgb(171,195,161);"/>
                    </g>
                    <g transform="matrix(0.52,-1.18952e-17,5.32907e-17,0.428571,215.671,241.653)">
                        <circle cx="4528.27" cy="676.018" r="4.889" style="fill:rgb(209,235,206);"/>
                        <path d="M4528.27,671.128C4530.97,671.128 4533.16,673.319 4533.16,676.018C4533.16,678.716 4530.97,680.907 4528.27,680.907C4525.57,680.907 4523.38,678.716 4523.38,676.018C4523.38,673.319 4525.57,671.128 4528.27,671.128ZM4528.27,672.128C4530.41,672.128 4532.16,673.871 4532.16,676.018C4532.16,678.164 4530.41,679.907 4528.27,679.907C4526.12,679.907 4524.38,678.164 4524.38,676.018C4524.38,673.871 4526.12,672.128 4528.27,672.128Z" style="fill:rgb(171,195,161);"/>
                    </g>
                    <g transform="matrix(0.52,-1.18952e-17,5.32907e-17,0.428571,209.278,241.653)">
                        <circle cx="4528.27" cy="676.018" r="4.889" style="fill:rgb(209,235,206);"/>
                        <path d="M4528.27,671.128C4530.97,671.128 4533.16,673.319 4533.16,676.018C4533.16,678.716 4530.97,680.907 4528.27,680.907C4525.57,680.907 4523.38,678.716 4523.38,676.018C4523.38,673.319 4525.57,671.128 4528.27,671.128ZM4528.27,672.128C4530.41,672.128 4532.16,673.871 4532.16,676.018C4532.16,678.164 4530.41,679.907 4528.27,679.907C4526.12,679.907 4524.38,678.164 4524.38,676.018C4524.38,673.871 4526.12,672.128 4528.27,672.128Z" style="fill:rgb(171,195,161);"/>
                    </g>
                    <g transform="matrix(0.52,-1.18952e-17,5.32907e-17,0.428571,222.064,241.653)">
                        <circle cx="4528.27" cy="676.018" r="4.889" style="fill:rgb(209,235,206);"/>
                        <path d="M4528.27,671.128C4530.97,671.128 4533.16,673.319 4533.16,676.018C4533.16,678.716 4530.97,680.907 4528.27,680.907C4525.57,680.907 4523.38,678.716 4523.38,676.018C4523.38,673.319 4525.57,671.128 4528.27,671.128ZM4528.27,672.128C4530.41,672.128 4532.16,673.871 4532.16,676.018C4532.16,678.164 4530.41,679.907 4528.27,679.907C4526.12,679.907 4524.38,678.164 4524.38,676.018C4524.38,673.871 4526.12,672.128 4528.27,672.128Z" style="fill:rgb(171,195,161);"/>
                    </g>
                </g>
                <g>
                    <g transform="matrix(0.139597,0,0,0.201681,1490,157.385)">
                        <rect x="7867" y="1719" width="149" height="85" style="fill:white;stroke:rgb(75,68,69);stroke-width:2.61px;"/>
                    </g>
                    <g transform="matrix(0.52,-1.18952e-17,5.32907e-17,0.428571,240.611,225.141)">
                        <circle cx="4528.27" cy="676.018" r="4.889" style="fill:rgb(209,235,206);"/>
                        <path d="M4528.27,671.128C4530.97,671.128 4533.16,673.319 4533.16,676.018C4533.16,678.716 4530.97,680.907 4528.27,680.907C4525.57,680.907 4523.38,678.716 4523.38,676.018C4523.38,673.319 4525.57,671.128 4528.27,671.128ZM4528.27,672.128C4530.41,672.128 4532.16,673.871 4532.16,676.018C4532.16,678.164 4530.41,679.907 4528.27,679.907C4526.12,679.907 4524.38,678.164 4524.38,676.018C4524.38,673.871 4526.12,672.128 4528.27,672.128Z" style="fill:rgb(171,195,161);"/>
                    </g>
                    <g transform="matrix(0.52,-1.18952e-17,5.32907e-17,0.428571,242.264,218.685)">
                        <circle cx="4528.27" cy="676.018" r="4.889" style="fill:rgb(209,235,206);"/>
                        <path d="M4528.27,671.128C4530.97,671.128 4533.16,673.319 4533.16,676.018C4533.16,678.716 4530.97,680.907 4528.27,680.907C4525.57,680.907 4523.38,678.716 4523.38,676.018C4523.38,673.319 4525.57,671.128 4528.27,671.128ZM4528.27,672.128C4530.41,672.128 4532.16,673.871 4532.16,676.018C4532.16,678.164 4530.41,679.907 4528.27,679.907C4526.12,679.907 4524.38,678.164 4524.38,676.018C4524.38,673.871 4526.12,672.128 4528.27,672.128Z" style="fill:rgb(171,195,161);"/>
                    </g>
                    <g transform="matrix(0.52,-1.18952e-17,5.32907e-17,0.428571,248.489,227.223)">
                        <circle cx="4528.27" cy="676.018" r="4.889" style="fill:rgb(209,235,206);"/>
                        <path d="M4528.27,671.128C4530.97,671.128 4533.16,673.319 4533.16,676.018C4533.16,678.716 4530.97,680.907 4528.27,680.907C4525.57,680.907 4523.38,678.716 4523.38,676.018C4523.38,673.319 4525.57,671.128 4528.27,671.128ZM4528.27,672.128C4530.41,672.128 4532.16,673.871 4532.16,676.018C4532.16,678.164 4530.41,679.907 4528.27,679.907C4526.12,679.907 4524.38,678.164 4524.38,676.018C4524.38,673.871 4526.12,672.128 4528.27,672.128Z" style="fill:rgb(171,195,161);"/>
                    </g>
                </g>
            </g>
            <g transform="matrix(1,0,0,1,6.27255,0.413029)">
                <g transform="matrix(-0.43584,-0.129819,0.0150902,-0.045379,2661.76,556.96)">
                    <g transform="matrix(-1.08557,3.10557,-0.297522,-8.59313,323.424,1354.62)">
                        <path d="M220.175,219.529L215.675,228.529L211.175,219.529L220.175,219.529Z" style="fill:rgb(46,112,183);"/>
                        <path d="M215.675,186.217L215.675,221.329" style="fill:none;stroke:rgb(46,112,183);stroke-width:3px;"/>
                    </g>
                </g>
                <g transform="matrix(1,0,0,1,83.0177,33.0931)">
                    <g transform="matrix(0.52,0,0,0.494686,-1513.86,-386.878)">
                        <path d="M7854.3,1835L7854.3,1856.23" style="fill:none;stroke:rgb(75,68,69);stroke-width:0.93px;"/>
                    </g>
                    <g transform="matrix(0.52,0,0,0.428571,-1525.3,-268.987)">
                        <path d="M7876.3,1856.23L7864,1856.23L7864,1867.51" style="fill:none;stroke:rgb(75,68,69);stroke-width:1px;"/>
                    </g>
                    <g transform="matrix(-0.52,0,0,0.428571,6666.04,-268.987)">
                        <path d="M7876.3,1856.23L7864,1856.23L7864,1867.51" style="fill:none;stroke:rgb(75,68,69);stroke-width:1px;"/>
                    </g>
                    <g transform="matrix(0.52,-1.18952e-17,5.32907e-17,0.428571,215.671,231.148)">
                        <circle cx="4528.27" cy="676.018" r="4.889" style="fill:rgb(209,235,206);"/>
                        <path d="M4528.27,671.128C4530.97,671.128 4533.16,673.319 4533.16,676.018C4533.16,678.716 4530.97,680.907 4528.27,680.907C4525.57,680.907 4523.38,678.716 4523.38,676.018C4523.38,673.319 4525.57,671.128 4528.27,671.128ZM4528.27,672.128C4530.41,672.128 4532.16,673.871 4532.16,676.018C4532.16,678.164 4530.41,679.907 4528.27,679.907C4526.12,679.907 4524.38,678.164 4524.38,676.018C4524.38,673.871 4526.12,672.128 4528.27,672.128Z" style="fill:rgb(171,195,161);"/>
                    </g>
                    <g transform="matrix(0.52,-1.18952e-17,5.32907e-17,0.428571,215.671,241.653)">
                        <circle cx="4528.27" cy="676.018" r="4.889" style="fill:rgb(209,235,206);"/>
                        <path d="M4528.27,671.128C4530.97,671.128 4533.16,673.319 4533.16,676.018C4533.16,678.716 4530.97,680.907 4528.27,680.907C4525.57,680.907 4523.38,678.716 4523.38,676.018C4523.38,673.319 4525.57,671.128 4528.27,671.128ZM4528.27,672.128C4530.41,672.128 4532.16,673.871 4532.16,676.018C4532.16,678.164 4530.41,679.907 4528.27,679.907C4526.12,679.907 4524.38,678.164 4524.38,676.018C4524.38,673.871 4526.12,672.128 4528.27,672.128Z" style="fill:rgb(171,195,161);"/>
                    </g>
                    <g transform="matrix(0.52,-1.18952e-17,5.32907e-17,0.428571,209.278,241.653)">
                        <circle cx="4528.27" cy="676.018" r="4.889" style="fill:rgb(209,235,206);"/>
                        <path d="M4528.27,671.128C4530.97,671.128 4533.16,673.319 4533.16,676.018C4533.16,678.716 4530.97,680.907 4528.27,680.907C4525.57,680.907 4523.38,678.716 4523.38,676.018C4523.38,673.319 4525.57,671.128 4528.27,671.128ZM4528.27,672.128C4530.41,672.128 4532.16,673.871 4532.16,676.018C4532.16,678.164 4530.41,679.907 4528.27,679.907C4526.12,679.907 4524.38,678.164 4524.38,676.018C4524.38,673.871 4526.12,672.128 4528.27,672.128Z" style="fill:rgb(171,195,161);"/>
                    </g>
                    <g transform="matrix(0.52,-1.18952e-17,5.32907e-17,0.428571,222.064,241.653)">
                        <circle cx="4528.27" cy="676.018" r="4.889" style="fill:rgb(209,235,206);"/>
                        <path d="M4528.27,671.128C4530.97,671.128 4533.16,673.319 4533.16,676.018C4533.16,678.716 4530.97,680.907 4528.27,680.907C4525.57,680.907 4523.38,678.716 4523.38,676.018C4523.38,673.319 4525.57,671.128 4528.27,671.128ZM4528.27,672.128C4530.41,672.128 4532.16,673.871 4532.16,676.018C4532.16,678.164 4530.41,679.907 4528.27,679.907C4526.12,679.907 4524.38,678.164 4524.38,676.018C4524.38,673.871 4526.12,672.128 4528.27,672.128Z" style="fill:rgb(171,195,161);"/>
                    </g>
                </g>
                <g transform="matrix(1,0,0,1,0,20.6646)">
                    <g transform="matrix(0.139597,0,0,0.201681,1544.78,157.385)">
                        <rect x="7867" y="1719" width="149" height="85" style="fill:white;stroke:rgb(75,68,69);stroke-width:2.61px;"/>
                    </g>
                    <g transform="matrix(0.52,-1.18952e-17,5.32907e-17,0.428571,302.537,226.126)">
                        <circle cx="4528.27" cy="676.018" r="4.889" style="fill:rgb(209,235,206);"/>
                        <path d="M4528.27,671.128C4530.97,671.128 4533.16,673.319 4533.16,676.018C4533.16,678.716 4530.97,680.907 4528.27,680.907C4525.57,680.907 4523.38,678.716 4523.38,676.018C4523.38,673.319 4525.57,671.128 4528.27,671.128ZM4528.27,672.128C4530.41,672.128 4532.16,673.871 4532.16,676.018C4532.16,678.164 4530.41,679.907 4528.27,679.907C4526.12,679.907 4524.38,678.164 4524.38,676.018C4524.38,673.871 4526.12,672.128 4528.27,672.128Z" style="fill:rgb(171,195,161);"/>
                    </g>
                    <g transform="matrix(0.52,-1.18952e-17,5.32907e-17,0.428571,293.869,222.742)">
                        <circle cx="4528.27" cy="676.018" r="4.889" style="fill:rgb(209,235,206);"/>
                        <path d="M4528.27,671.128C4530.97,671.128 4533.16,673.319 4533.16,676.018C4533.16,678.716 4530.97,680.907 4528.27,680.907C4525.57,680.907 4523.38,678.716 4523.38,676.018C4523.38,673.319 4525.57,671.128 4528.27,671.128ZM4528.27,672.128C4530.41,672.128 4532.16,673.871 4532.16,676.018C4532.16,678.164 4530.41,679.907 4528.27,679.907C4526.12,679.907 4524.38,678.164 4524.38,676.018C4524.38,673.871 4526.12,672.128 4528.27,672.128Z" style="fill:rgb(171,195,161);"/>
                    </g>
                    <g transform="matrix(0.52,-1.18952e-17,5.32907e-17,0.428571,301.763,219.032)">
                        <circle cx="4528.27" cy="676.018" r="4.889" style="fill:rgb(209,235,206);"/>
                        <path d="M4528.27,671.128C4530.97,671.128 4533.16,673.319 4533.16,676.018C4533.16,678.716 4530.97,680.907 4528.27,680.907C4525.57,680.907 4523.38,678.716 4523.38,676.018C4523.38,673.319 4525.57,671.128 4528.27,671.128ZM4528.27,672.128C4530.41,672.128 4532.16,673.871 4532.16,676.018C4532.16,678.164 4530.41,679.907 4528.27,679.907C4526.12,679.907 4524.38,678.164 4524.38,676.018C4524.38,673.871 4526.12,672.128 4528.27,672.128Z" style="fill:rgb(171,195,161);"/>
                    </g>
                </g>
            </g>
            <g transform="matrix(1,0,0,1,-9.50971,5.24636)">
                <g>
                    <g transform="matrix(0.52,0,0,0.494686,-1513.86,-386.878)">
                        <path d="M7854.3,1835L7854.3,1856.23" style="fill:none;stroke:rgb(75,68,69);stroke-width:0.93px;"/>
                    </g>
                    <g transform="matrix(0.52,0,0,0.428571,-1525.3,-268.987)">
                        <path d="M7876.3,1856.23L7864,1856.23L7864,1867.51" style="fill:none;stroke:rgb(75,68,69);stroke-width:1px;"/>
                    </g>
                    <g transform="matrix(-0.52,0,0,0.428571,6666.04,-268.987)">
                        <path d="M7876.3,1856.23L7864,1856.23L7864,1867.51" style="fill:none;stroke:rgb(75,68,69);stroke-width:1px;"/>
                    </g>
                    <g transform="matrix(0.52,-1.18952e-17,5.32907e-17,0.428571,215.671,231.148)">
                        <circle cx="4528.27" cy="676.018" r="4.889" style="fill:rgb(209,235,206);"/>
                        <path d="M4528.27,671.128C4530.97,671.128 4533.16,673.319 4533.16,676.018C4533.16,678.716 4530.97,680.907 4528.27,680.907C4525.57,680.907 4523.38,678.716 4523.38,676.018C4523.38,673.319 4525.57,671.128 4528.27,671.128ZM4528.27,672.128C4530.41,672.128 4532.16,673.871 4532.16,676.018C4532.16,678.164 4530.41,679.907 4528.27,679.907C4526.12,679.907 4524.38,678.164 4524.38,676.018C4524.38,673.871 4526.12,672.128 4528.27,672.128Z" style="fill:rgb(171,195,161);"/>
                    </g>
                    <g transform="matrix(0.52,-1.18952e-17,5.32907e-17,0.428571,215.671,241.653)">
                        <circle cx="4528.27" cy="676.018" r="4.889" style="fill:rgb(209,235,206);"/>
                        <path d="M4528.27,671.128C4530.97,671.128 4533.16,673.319 4533.16,676.018C4533.16,678.716 4530.97,680.907 4528.27,680.907C4525.57,680.907 4523.38,678.716 4523.38,676.018C4523.38,673.319 4525.57,671.128 4528.27,671.128ZM4528.27,672.128C4530.41,672.128 4532.16,673.871 4532.16,676.018C4532.16,678.164 4530.41,679.907 4528.27,679.907C4526.12,679.907 4524.38,678.164 4524.38,676.018C4524.38,673.871 4526.12,672.128 4528.27,672.128Z" style="fill:rgb(171,195,161);"/>
                    </g>
                    <g transform="matrix(0.52,-1.18952e-17,5.32907e-17,0.428571,209.278,241.653)">
                        <circle cx="4528.27" cy="676.018" r="4.889" style="fill:rgb(209,235,206);"/>
                        <path d="M4528.27,671.128C4530.97,671.128 4533.16,673.319 4533.16,676.018C4533.16,678.716 4530.97,680.907 4528.27,680.907C4525.57,680.907 4523.38,678.716 4523.38,676.018C4523.38,673.319 4525.57,671.128 4528.27,671.128ZM4528.27,672.128C4530.41,672.128 4532.16,673.871 4532.16,676.018C4532.16,678.164 4530.41,679.907 4528.27,679.907C4526.12,679.907 4524.38,678.164 4524.38,676.018C4524.38,673.871 4526.12,672.128 4528.27,672.128Z" style="fill:rgb(171,195,161);"/>
                    </g>
                    <g transform="matrix(0.52,-1.18952e-17,5.32907e-17,0.428571,222.064,241.653)">
                        <circle cx="4528.27" cy="676.018" r="4.889" style="fill:rgb(209,235,206);"/>
                        <path d="M4528.27,671.128C4530.97,671.128 4533.16,673.319 4533.16,676.018C4533.16,678.716 4530.97,680.907 4528.27,680.907C4525.57,680.907 4523.38,678.716 4523.38,676.018C4523.38,673.319 4525.57,671.128 4528.27,671.128ZM4528.27,672.128C4530.41,672.128 4532.16,673.871 4532.16,676.018C4532.16,678.164 4530.41,679.907 4528.27,679.907C4526.12,679.907 4524.38,678.164 4524.38,676.018C4524.38,673.871 4526.12,672.128 4528.27,672.128Z" style="fill:rgb(171,195,161);"/>
                    </g>
                </g>
            </g>
            <g transform="matrix(1,0,0,1,0.725884,11.4925)">
                <g transform="matrix(-0.43584,-0.129819,0.0150902,-0.045379,2634.37,536.296)">
                    <g transform="matrix(-1.08557,3.10557,-0.297522,-8.59313,248.017,1359.12)">
                        <path d="M156.842,197.164L152.342,206.164L147.842,197.164L156.842,197.164Z" style="fill:rgb(46,112,183);"/>
                        <path d="M152.342,163.852L152.342,198.964" style="fill:none;stroke:rgb(46,112,183);stroke-width:3px;"/>
                    </g>
                </g>
                <g transform="matrix(1,0,0,1,55.6311,12.4286)">
                    <g transform="matrix(0.52,0,0,0.494686,-1513.86,-386.878)">
                        <path d="M7854.3,1835L7854.3,1856.23" style="fill:none;stroke:rgb(75,68,69);stroke-width:0.93px;"/>
                    </g>
                    <g transform="matrix(0.52,0,0,0.428571,-1525.3,-268.987)">
                        <path d="M7876.3,1856.23L7864,1856.23L7864,1867.51" style="fill:none;stroke:rgb(75,68,69);stroke-width:1px;"/>
                    </g>
                    <g transform="matrix(-0.52,0,0,0.428571,6666.04,-268.987)">
                        <path d="M7876.3,1856.23L7864,1856.23L7864,1867.51" style="fill:none;stroke:rgb(75,68,69);stroke-width:1px;"/>
                    </g>
                    <g transform="matrix(0.52,-1.18952e-17,5.32907e-17,0.428571,215.671,231.148)">
                        <circle cx="4528.27" cy="676.018" r="4.889" style="fill:rgb(209,235,206);"/>
                        <path d="M4528.27,671.128C4530.97,671.128 4533.16,673.319 4533.16,676.018C4533.16,678.716 4530.97,680.907 4528.27,680.907C4525.57,680.907 4523.38,678.716 4523.38,676.018C4523.38,673.319 4525.57,671.128 4528.27,671.128ZM4528.27,672.128C4530.41,672.128 4532.16,673.871 4532.16,676.018C4532.16,678.164 4530.41,679.907 4528.27,679.907C4526.12,679.907 4524.38,678.164 4524.38,676.018C4524.38,673.871 4526.12,672.128 4528.27,672.128Z" style="fill:rgb(171,195,161);"/>
                    </g>
                    <g transform="matrix(0.52,-1.18952e-17,5.32907e-17,0.428571,215.671,241.653)">
                        <circle cx="4528.27" cy="676.018" r="4.889" style="fill:rgb(209,235,206);"/>
                        <path d="M4528.27,671.128C4530.97,671.128 4533.16,673.319 4533.16,676.018C4533.16,678.716 4530.97,680.907 4528.27,680.907C4525.57,680.907 4523.38,678.716 4523.38,676.018C4523.38,673.319 4525.57,671.128 4528.27,671.128ZM4528.27,672.128C4530.41,672.128 4532.16,673.871 4532.16,676.018C4532.16,678.164 4530.41,679.907 4528.27,679.907C4526.12,679.907 4524.38,678.164 4524.38,676.018C4524.38,673.871 4526.12,672.128 4528.27,672.128Z" style="fill:rgb(171,195,161);"/>
                    </g>
                    <g transform="matrix(0.52,-1.18952e-17,5.32907e-17,0.428571,209.278,241.653)">
                        <circle cx="4528.27" cy="676.018" r="4.889" style="fill:rgb(209,235,206);"/>
                        <path d="M4528.27,671.128C4530.97,671.128 4533.16,673.319 4533.16,676.018C4533.16,678.716 4530.97,680.907 4528.27,680.907C4525.57,680.907 4523.38,678.716 4523.38,676.018C4523.38,673.319 4525.57,671.128 4528.27,671.128ZM4528.27,672.128C4530.41,672.128 4532.16,673.871 4532.16,676.018C4532.16,678.164 4530.41,679.907 4528.27,679.907C4526.12,679.907 4524.38,678.164 4524.38,676.018C4524.38,673.871 4526.12,672.128 4528.27,672.128Z" style="fill:rgb(171,195,161);"/>
                    </g>
                    <g transform="matrix(0.52,-1.18952e-17,5.32907e-17,0.428571,222.064,241.653)">
                        <circle cx="4528.27" cy="676.018" r="4.889" style="fill:rgb(209,235,206);"/>
                        <path d="M4528.27,671.128C4530.97,671.128 4533.16,673.319 4533.16,676.018C4533.16,678.716 4530.97,680.907 4528.27,680.907C4525.57,680.907 4523.38,678.716 4523.38,676.018C4523.38,673.319 4525.57,671.128 4528.27,671.128ZM4528.27,672.128C4530.41,672.128 4532.16,673.871 4532.16,676.018C4532.16,678.164 4530.41,679.907 4528.27,679.907C4526.12,679.907 4524.38,678.164 4524.38,676.018C4524.38,673.871 4526.12,672.128 4528.27,672.128Z" style="fill:rgb(171,195,161);"/>
                    </g>
                </g>
                <g>
                    <g transform="matrix(0.139597,0,0,0.201681,1517.39,157.385)">
                        <rect x="7867" y="1719" width="149" height="85" style="fill:white;stroke:rgb(75,68,69);stroke-width:2.61px;"/>
                    </g>
                    <g transform="matrix(0.52,-1.18952e-17,5.32907e-17,0.428571,264.949,217.649)">
                        <circle cx="4528.27" cy="676.018" r="4.889" style="fill:rgb(209,235,206);"/>
                        <path d="M4528.27,671.128C4530.97,671.128 4533.16,673.319 4533.16,676.018C4533.16,678.716 4530.97,680.907 4528.27,680.907C4525.57,680.907 4523.38,678.716 4523.38,676.018C4523.38,673.319 4525.57,671.128 4528.27,671.128ZM4528.27,672.128C4530.41,672.128 4532.16,673.871 4532.16,676.018C4532.16,678.164 4530.41,679.907 4528.27,679.907C4526.12,679.907 4524.38,678.164 4524.38,676.018C4524.38,673.871 4526.12,672.128 4528.27,672.128Z" style="fill:rgb(171,195,161);"/>
                    </g>
                    <g transform="matrix(0.52,-1.18952e-17,5.32907e-17,0.428571,265.572,226.671)">
                        <circle cx="4528.27" cy="676.018" r="4.889" style="fill:rgb(209,235,206);"/>
                        <path d="M4528.27,671.128C4530.97,671.128 4533.16,673.319 4533.16,676.018C4533.16,678.716 4530.97,680.907 4528.27,680.907C4525.57,680.907 4523.38,678.716 4523.38,676.018C4523.38,673.319 4525.57,671.128 4528.27,671.128ZM4528.27,672.128C4530.41,672.128 4532.16,673.871 4532.16,676.018C4532.16,678.164 4530.41,679.907 4528.27,679.907C4526.12,679.907 4524.38,678.164 4524.38,676.018C4524.38,673.871 4526.12,672.128 4528.27,672.128Z" style="fill:rgb(171,195,161);"/>
                    </g>
                    <g transform="matrix(0.52,-1.18952e-17,5.32907e-17,0.428571,272.325,218.997)">
                        <circle cx="4528.27" cy="676.018" r="4.889" style="fill:rgb(209,235,206);"/>
                        <path d="M4528.27,671.128C4530.97,671.128 4533.16,673.319 4533.16,676.018C4533.16,678.716 4530.97,680.907 4528.27,680.907C4525.57,680.907 4523.38,678.716 4523.38,676.018C4523.38,673.319 4525.57,671.128 4528.27,671.128ZM4528.27,672.128C4530.41,672.128 4532.16,673.871 4532.16,676.018C4532.16,678.164 4530.41,679.907 4528.27,679.907C4526.12,679.907 4524.38,678.164 4524.38,676.018C4524.38,673.871 4526.12,672.128 4528.27,672.128Z" style="fill:rgb(171,195,161);"/>
                    </g>
                </g>
            </g>
            <g transform="matrix(0.138547,0.348853,-0.0352905,0.00243161,2579.98,516.925)">
                <g transform="matrix(0.0999708,-14.3424,1.19579,4.69456,-182.051,205.375)">
                    <path d="M53.959,165.308L64.003,164.705L58.459,173.102L53.959,165.308Z" style="fill:rgb(46,112,183);"/>
                    <path d="M42.681,177.015C42.681,177.015 51.475,171.938 57.768,168.305" style="fill:none;stroke:rgb(46,112,183);stroke-width:3px;"/>
                </g>
            </g>
            <g transform="matrix(0.138547,0.348853,-0.0352905,0.00243161,2613.26,526.782)">
                <g transform="matrix(0.0999708,-14.3424,1.19579,4.69456,-215.953,1015.31)">
                    <path d="M117.959,188.308L128.003,187.705L122.459,196.102L117.959,188.308Z" style="fill:rgb(46,112,183);"/>
                    <path d="M106.681,200.015C106.681,200.015 115.475,194.938 121.768,191.305" style="fill:none;stroke:rgb(46,112,183);stroke-width:3px;"/>
                </g>
            </g>
            <g transform="matrix(0.138547,0.348853,-0.0352905,0.00243161,2646.54,536.64)">
                <g transform="matrix(0.0999708,-14.3424,1.19579,4.69456,-249.854,1825.25)">
                    <path d="M181.959,211.308L192.003,210.705L186.459,219.102L181.959,211.308Z" style="fill:rgb(46,112,183);"/>
                    <path d="M170.681,223.015C170.681,223.015 179.475,217.938 185.768,214.305" style="fill:none;stroke:rgb(46,112,183);stroke-width:3px;"/>
                </g>
            </g>
            <g transform="matrix(0.0909799,-0.398349,0.0805972,-0.00723455,2612.22,577.073)">
                <g transform="matrix(-0.119626,6.58687,-1.09839,1.23988,330.529,-1176.07)">
                    <path d="M147.5,268.228L137.58,266.546L144.878,259.619L147.5,268.228Z" style="fill:rgb(46,112,183);"/>
                    <path d="M196.137,248.707C196.137,248.707 159.945,259.733 144.467,264.448" style="fill:none;stroke:rgb(46,112,183);stroke-width:3px;"/>
                </g>
            </g>
        </g>
    </g>
</svg>
