<?xml version="1.0" encoding="UTF-8" standalone="no"?>
<!DOCTYPE svg PUBLIC "-//W3C//DTD SVG 1.1//EN" "http://www.w3.org/Graphics/SVG/1.1/DTD/svg11.dtd">
<svg width="100%" height="100%" viewBox="0 0 801 437" version="1.1" xmlns="http://www.w3.org/2000/svg" xmlns:xlink="http://www.w3.org/1999/xlink" xml:space="preserve" xmlns:serif="http://www.serif.com/" style="fill-rule:evenodd;clip-rule:evenodd;stroke-linecap:round;stroke-linejoin:round;stroke-miterlimit:1.5;">
    <g transform="matrix(1,0,0,1,-9129,-555)">
        <g id="_018" serif:id="018" transform="matrix(0.99185,0,0,0.964777,7387.92,563.475)">
            <rect x="1755.48" y="-8.417" width="806.573" height="452.321" style="fill:none;"/>
            <g>
                <g transform="matrix(1.12053,0,0,1.03651,-8552.42,-584.913)">
                    <path d="M9849,597L9289,597" style="fill:none;stroke:rgb(155,145,146);stroke-width:0.95px;"/>
                </g>
                <g transform="matrix(1.12053,0,0,1.03651,-8552.42,-531.376)">
                    <path d="M9849,597L9289,597" style="fill:none;stroke:rgb(155,145,146);stroke-width:0.95px;"/>
                </g>
                <g transform="matrix(1.12053,0,0,1.03651,-8552.42,-477.838)">
                    <path d="M9849,597L9289,597" style="fill:none;stroke:rgb(155,145,146);stroke-width:0.95px;"/>
                </g>
                <g transform="matrix(1.12053,0,0,1.03651,-8551.66,-424.3)">
                    <path d="M9849,597L9289,597" style="fill:none;stroke:rgb(155,145,146);stroke-width:0.95px;"/>
                </g>
                <g transform="matrix(1.12053,0,0,1.03651,-8552.42,-370.763)">
                    <path d="M9849,597L9289,597" style="fill:none;stroke:rgb(155,145,146);stroke-width:0.95px;"/>
                </g>
                <g transform="matrix(1.12053,0,0,1.03651,-8552.42,-317.225)">
                    <path d="M9849,597L9289,597" style="fill:none;stroke:rgb(155,145,146);stroke-width:0.95px;"/>
                </g>
                <g transform="matrix(1.12053,0,0,1.03651,-8552.42,-263.688)">
                    <path d="M9849,597L9289,597" style="fill:none;stroke:rgb(155,145,146);stroke-width:0.95px;"/>
                </g>
                <g transform="matrix(6.86129e-17,-0.709611,1.00822,3.90958e-17,1375.31,7000.78)">
                    <path d="M9849,597L9289,597" style="fill:none;stroke:rgb(155,145,146);stroke-width:1.17px;"/>
                </g>
                <g transform="matrix(6.86129e-17,-0.709611,1.00822,3.90958e-17,1496.31,7000.78)">
                    <path d="M9849,597L9289,597" style="fill:none;stroke:rgb(155,145,146);stroke-width:1.17px;"/>
                </g>
                <g transform="matrix(6.86129e-17,-0.709611,1.00822,3.90958e-17,1617.3,7000.78)">
                    <path d="M9849,597L9289,597" style="fill:none;stroke:rgb(155,145,146);stroke-width:1.17px;"/>
                </g>
                <g transform="matrix(6.86129e-17,-0.709611,1.00822,3.90958e-17,1738.3,7000.78)">
                    <path d="M9849,597L9289,597" style="fill:none;stroke:rgb(155,145,146);stroke-width:1.17px;"/>
                </g>
                <g transform="matrix(6.86129e-17,-0.709611,1.00822,3.90958e-17,1859.29,7000.78)">
                    <path d="M9849,597L9289,597" style="fill:none;stroke:rgb(155,145,146);stroke-width:1.17px;"/>
                </g>
                <g transform="matrix(1.00822,0,0,1.03651,-3408.39,-288.181)">
                    <g transform="matrix(1,-0,-0,1,5121.69,269.556)">
                        <path d="M106.766,26.727L100.016,6.477L93.266,26.727L106.766,26.727Z" style="fill:rgb(79,79,79);"/>
                        <path d="M726.122,395.977L746.372,402.727L726.122,409.477L726.122,395.977Z" style="fill:rgb(79,79,79);"/>
                        <path d="M100.016,22.677C100.016,97.116 100.016,402.727 100.016,402.727L730.172,402.727" style="fill:none;stroke:rgb(79,79,79);stroke-width:3px;"/>
                    </g>
                </g>
            </g>
            <g transform="matrix(1,0,0,1,-28.0036,-3.41061e-13)">
                <g transform="matrix(1.00822,0,0,1.03651,1848.9,-268.171)">
                    <text x="30.594px" y="675.57px" style="font-family:'ArialMT', 'Arial', sans-serif;font-size:16px;">0</text>
                </g>
                <g transform="matrix(1.00822,0,0,1.03651,-3408.39,-288.181)">
                    <path d="M5249.48,672.283L5249.48,678.113" style="fill:none;stroke:rgb(79,79,79);stroke-width:3px;"/>
                </g>
            </g>
            <g transform="matrix(1,0,0,1,218.783,0)">
                <g transform="matrix(1.00822,0,0,1.03651,2207.08,-268.171)">
                    <text x="26.145px" y="675.57px" style="font-family:'ArialMT', 'Arial', sans-serif;font-size:16px;">25</text>
                </g>
                <g transform="matrix(1.00822,0,0,1.03651,-3050.21,-288.181)">
                    <path d="M5249.48,672.283L5249.48,678.113" style="fill:none;stroke:rgb(79,79,79);stroke-width:3px;"/>
                </g>
            </g>
            <g transform="matrix(1,0,0,1,169.426,0)">
                <g transform="matrix(1.00822,0,0,1.03651,2135.44,-268.171)">
                    <text x="26.145px" y="675.57px" style="font-family:'ArialMT', 'Arial', sans-serif;font-size:16px;">20</text>
                </g>
                <g transform="matrix(1.00822,0,0,1.03651,-3121.84,-288.181)">
                    <path d="M5249.48,672.283L5249.48,678.113" style="fill:none;stroke:rgb(79,79,79);stroke-width:3px;"/>
                </g>
            </g>
            <g transform="matrix(1,0,0,1,120.068,0)">
                <g transform="matrix(1.00822,0,0,1.03651,2063.81,-268.171)">
                    <text x="26.145px" y="675.57px" style="font-family:'ArialMT', 'Arial', sans-serif;font-size:16px;">15</text>
                </g>
                <g transform="matrix(1.00822,0,0,1.03651,-3193.48,-288.181)">
                    <path d="M5249.48,672.283L5249.48,678.113" style="fill:none;stroke:rgb(79,79,79);stroke-width:3px;"/>
                </g>
            </g>
            <g transform="matrix(1,0,0,1,70.7111,0)">
                <g transform="matrix(1.00822,0,0,1.03651,1992.17,-268.171)">
                    <text x="26.145px" y="675.57px" style="font-family:'ArialMT', 'Arial', sans-serif;font-size:16px;">10</text>
                </g>
                <g transform="matrix(1.00822,0,0,1.03651,-3265.12,-288.181)">
                    <path d="M5249.48,672.283L5249.48,678.113" style="fill:none;stroke:rgb(79,79,79);stroke-width:3px;"/>
                </g>
            </g>
            <g transform="matrix(1,0,0,1,21.3537,0)">
                <g transform="matrix(1.00822,0,0,1.03651,1920.53,-268.171)">
                    <text x="30.594px" y="675.57px" style="font-family:'ArialMT', 'Arial', sans-serif;font-size:16px;">5</text>
                </g>
                <g transform="matrix(1.00822,0,0,1.03651,-3336.75,-288.181)">
                    <path d="M5249.48,672.283L5249.48,678.113" style="fill:none;stroke:rgb(79,79,79);stroke-width:3px;"/>
                </g>
            </g>
            <g transform="matrix(1,0,0,1,0,-53.724)">
                <g transform="matrix(1.00822,0,0,1.03651,1797.6,-285.462)">
                    <text x="26.145px" y="675.57px" style="font-family:'ArialMT', 'Arial', sans-serif;font-size:16px;">18</text>
                </g>
                <g transform="matrix(6.17355e-17,-1.03651,1.00822,6.34679e-17,1172.54,5849.97)">
                    <path d="M5249.48,672.283L5249.48,678.113" style="fill:none;stroke:rgb(79,79,79);stroke-width:3px;"/>
                </g>
            </g>
            <g transform="matrix(1,0,0,1,0.6845,-0.186356)">
                <g transform="matrix(1.00822,0,0,1.03651,1797.6,-285.462)">
                    <text x="26.145px" y="675.57px" style="font-family:'ArialMT', 'Arial', sans-serif;font-size:16px;">17</text>
                </g>
                <g transform="matrix(6.17355e-17,-1.03651,1.00822,6.34679e-17,1172.54,5849.97)">
                    <path d="M5249.48,672.283L5249.48,678.113" style="fill:none;stroke:rgb(79,79,79);stroke-width:3px;"/>
                </g>
            </g>
            <g transform="matrix(1,0,0,1,0,-39.933)">
                <g transform="matrix(1.00822,0,0,1.03651,1797.6,-352.791)">
                    <text x="26.145px" y="675.57px" style="font-family:'ArialMT', 'Arial', sans-serif;font-size:16px;">19</text>
                </g>
                <g transform="matrix(6.17355e-17,-1.03651,1.00822,6.34679e-17,1172.54,5782.64)">
                    <path d="M5249.48,672.283L5249.48,678.113" style="fill:none;stroke:rgb(79,79,79);stroke-width:3px;"/>
                </g>
            </g>
            <g transform="matrix(1,0,0,1,0,-43.7626)">
                <g transform="matrix(1.00822,0,0,1.03651,1797.6,-402.499)">
                    <text x="26.145px" y="675.57px" style="font-family:'ArialMT', 'Arial', sans-serif;font-size:16px;">20</text>
                </g>
                <g transform="matrix(6.17355e-17,-1.03651,1.00822,6.34679e-17,1172.54,5732.93)">
                    <path d="M5249.48,672.283L5249.48,678.113" style="fill:none;stroke:rgb(79,79,79);stroke-width:3px;"/>
                </g>
            </g>
            <g transform="matrix(1,0,0,1,0,-47.5922)">
                <g transform="matrix(1.00822,0,0,1.03651,1797.6,-452.207)">
                    <text x="26.145px" y="675.57px" style="font-family:'ArialMT', 'Arial', sans-serif;font-size:16px;">21</text>
                </g>
                <g transform="matrix(6.17355e-17,-1.03651,1.00822,6.34679e-17,1172.54,5683.22)">
                    <path d="M5249.48,672.283L5249.48,678.113" style="fill:none;stroke:rgb(79,79,79);stroke-width:3px;"/>
                </g>
            </g>
            <g transform="matrix(1,0,0,1,0,-51.4218)">
                <g transform="matrix(1.00822,0,0,1.03651,1797.6,-501.915)">
                    <text x="26.145px" y="675.57px" style="font-family:'ArialMT', 'Arial', sans-serif;font-size:16px;">22</text>
                </g>
                <g transform="matrix(6.17355e-17,-1.03651,1.00822,6.34679e-17,1172.54,5633.52)">
                    <path d="M5249.48,672.283L5249.48,678.113" style="fill:none;stroke:rgb(79,79,79);stroke-width:3px;"/>
                </g>
            </g>
            <g transform="matrix(1,0,0,1,0,-55.2514)">
                <g transform="matrix(1.00822,0,0,1.03651,1797.6,-551.623)">
                    <text x="26.145px" y="675.57px" style="font-family:'ArialMT', 'Arial', sans-serif;font-size:16px;">23</text>
                </g>
                <g transform="matrix(6.17355e-17,-1.03651,1.00822,6.34679e-17,1172.54,5583.81)">
                    <path d="M5249.48,672.283L5249.48,678.113" style="fill:none;stroke:rgb(79,79,79);stroke-width:3px;"/>
                </g>
            </g>
            <g transform="matrix(1,0,0,1,0,-59.081)">
                <g transform="matrix(1.00822,0,0,1.03651,1797.6,-601.331)">
                    <text x="26.145px" y="675.57px" style="font-family:'ArialMT', 'Arial', sans-serif;font-size:16px;">24</text>
                </g>
                <g transform="matrix(6.17355e-17,-1.03651,1.00822,6.34679e-17,1172.54,5534.1)">
                    <path d="M5249.48,672.283L5249.48,678.113" style="fill:none;stroke:rgb(79,79,79);stroke-width:3px;"/>
                </g>
            </g>
            <g transform="matrix(3.33161,0,1.46549e-14,3.4251,-12988.2,-2067.4)">
                <circle cx="4528.27" cy="676.018" r="4.889" style="fill:rgb(220,197,238);"/>
                <path d="M4528.27,671.128C4530.97,671.128 4533.16,673.319 4533.16,676.018C4533.16,678.716 4530.97,680.907 4528.27,680.907C4525.57,680.907 4523.38,678.716 4523.38,676.018C4523.38,673.319 4525.57,671.128 4528.27,671.128ZM4528.27,671.431C4530.8,671.431 4532.85,673.486 4532.85,676.018C4532.85,678.549 4530.8,680.604 4528.27,680.604C4525.73,680.604 4523.68,678.549 4523.68,676.018C4523.68,673.486 4525.73,671.431 4528.27,671.431Z" style="fill:rgb(138,147,201);"/>
            </g>
            <g transform="matrix(3.33161,0,1.46549e-14,3.4251,-12746.2,-2174.47)">
                <circle cx="4528.27" cy="676.018" r="4.889" style="fill:rgb(220,197,238);"/>
                <path d="M4528.27,671.128C4530.97,671.128 4533.16,673.319 4533.16,676.018C4533.16,678.716 4530.97,680.907 4528.27,680.907C4525.57,680.907 4523.38,678.716 4523.38,676.018C4523.38,673.319 4525.57,671.128 4528.27,671.128ZM4528.27,671.431C4530.8,671.431 4532.85,673.486 4532.85,676.018C4532.85,678.549 4530.8,680.604 4528.27,680.604C4525.73,680.604 4523.68,678.549 4523.68,676.018C4523.68,673.486 4525.73,671.431 4528.27,671.431Z" style="fill:rgb(138,147,201);"/>
            </g>
        </g>
    </g>
</svg>
