<?xml version="1.0" encoding="UTF-8" standalone="no"?>
<!DOCTYPE svg PUBLIC "-//W3C//DTD SVG 1.1//EN" "http://www.w3.org/Graphics/SVG/1.1/DTD/svg11.dtd">
<svg width="100%" height="100%" viewBox="0 0 381 301" version="1.1" xmlns="http://www.w3.org/2000/svg" xmlns:xlink="http://www.w3.org/1999/xlink" xml:space="preserve" xmlns:serif="http://www.serif.com/" style="fill-rule:evenodd;clip-rule:evenodd;stroke-linecap:round;stroke-linejoin:round;stroke-miterlimit:1.5;">
    <g transform="matrix(1,0,0,1,-7541,-836)">
        <g id="_014_2" serif:id="014_2" transform="matrix(0.471129,0,0,0.663245,6714.08,841.613)">
            <rect x="1755.48" y="-8.417" width="806.573" height="452.321" style="fill:none;"/>
            <g transform="matrix(4.06236,0.714067,-1.00525,2.88565,-7911.34,-3183.38)">
                <path d="M2535.41,579.359C2613.21,598.112 2646.88,529.569 2677,454" style="fill:none;stroke:rgb(216,116,131);stroke-width:1.52px;"/>
            </g>
            <g transform="matrix(2.05024,0.390231,-0.549359,1.45636,-6621.24,-2462.58)">
                <circle cx="4528.27" cy="676.018" r="4.889" style="fill:rgb(153,184,201);"/>
                <path d="M4528.27,671.128C4530.97,671.128 4533.16,673.319 4533.16,676.018C4533.16,678.716 4530.97,680.907 4528.27,680.907C4525.57,680.907 4523.38,678.716 4523.38,676.018C4523.38,673.319 4525.57,671.128 4528.27,671.128ZM4528.27,672.128C4530.41,672.128 4532.16,673.871 4532.16,676.018C4532.16,678.164 4530.41,679.907 4528.27,679.907C4526.12,679.907 4524.38,678.164 4524.38,676.018C4524.38,673.871 4526.12,672.128 4528.27,672.128Z" style="fill:rgb(87,137,165);"/>
            </g>
            <g transform="matrix(2.05024,0.390231,-0.549359,1.45636,-6827.37,-2353.46)">
                <circle cx="4528.27" cy="676.018" r="4.889" style="fill:rgb(153,184,201);"/>
                <path d="M4528.27,671.128C4530.97,671.128 4533.16,673.319 4533.16,676.018C4533.16,678.716 4530.97,680.907 4528.27,680.907C4525.57,680.907 4523.38,678.716 4523.38,676.018C4523.38,673.319 4525.57,671.128 4528.27,671.128ZM4528.27,672.128C4530.41,672.128 4532.16,673.871 4532.16,676.018C4532.16,678.164 4530.41,679.907 4528.27,679.907C4526.12,679.907 4524.38,678.164 4524.38,676.018C4524.38,673.871 4526.12,672.128 4528.27,672.128Z" style="fill:rgb(87,137,165);"/>
            </g>
            <g transform="matrix(2.05024,0.390231,-0.549359,1.45636,-6610.76,-2433.42)">
                <circle cx="4528.27" cy="676.018" r="4.889" style="fill:rgb(153,184,201);"/>
                <path d="M4528.27,671.128C4530.97,671.128 4533.16,673.319 4533.16,676.018C4533.16,678.716 4530.97,680.907 4528.27,680.907C4525.57,680.907 4523.38,678.716 4523.38,676.018C4523.38,673.319 4525.57,671.128 4528.27,671.128ZM4528.27,672.128C4530.41,672.128 4532.16,673.871 4532.16,676.018C4532.16,678.164 4530.41,679.907 4528.27,679.907C4526.12,679.907 4524.38,678.164 4524.38,676.018C4524.38,673.871 4526.12,672.128 4528.27,672.128L4528.27,672.128Z" style="fill:rgb(87,137,165);"/>
            </g>
            <g transform="matrix(2.05024,0.390231,-0.549359,1.45636,-6593.59,-2490.26)">
                <circle cx="4528.27" cy="676.018" r="4.889" style="fill:rgb(153,184,201);"/>
                <path d="M4528.27,671.128C4530.97,671.128 4533.16,673.319 4533.16,676.018C4533.16,678.716 4530.97,680.907 4528.27,680.907C4525.57,680.907 4523.38,678.716 4523.38,676.018C4523.38,673.319 4525.57,671.128 4528.27,671.128ZM4528.27,672.128C4530.41,672.128 4532.16,673.871 4532.16,676.018C4532.16,678.164 4530.41,679.907 4528.27,679.907C4526.12,679.907 4524.38,678.164 4524.38,676.018C4524.38,673.871 4526.12,672.128 4528.27,672.128Z" style="fill:rgb(87,137,165);"/>
            </g>
            <g transform="matrix(2.05024,0.390231,-0.549359,1.45636,-6551.71,-2548.53)">
                <circle cx="4528.27" cy="676.018" r="4.889" style="fill:rgb(153,184,201);"/>
                <path d="M4528.27,671.128C4530.97,671.128 4533.16,673.319 4533.16,676.018C4533.16,678.716 4530.97,680.907 4528.27,680.907C4525.57,680.907 4523.38,678.716 4523.38,676.018C4523.38,673.319 4525.57,671.128 4528.27,671.128ZM4528.27,672.128C4530.41,672.128 4532.16,673.871 4532.16,676.018C4532.16,678.164 4530.41,679.907 4528.27,679.907C4526.12,679.907 4524.38,678.164 4524.38,676.018C4524.38,673.871 4526.12,672.128 4528.27,672.128L4528.27,672.128Z" style="fill:rgb(87,137,165);"/>
            </g>
            <g transform="matrix(2.05024,0.390231,-0.549359,1.45636,-6620.26,-2627.63)">
                <circle cx="4528.27" cy="676.018" r="4.889" style="fill:rgb(153,184,201);"/>
                <path d="M4528.27,671.128C4530.97,671.128 4533.16,673.319 4533.16,676.018C4533.16,678.716 4530.97,680.907 4528.27,680.907C4525.57,680.907 4523.38,678.716 4523.38,676.018C4523.38,673.319 4525.57,671.128 4528.27,671.128ZM4528.27,672.128C4530.41,672.128 4532.16,673.871 4532.16,676.018C4532.16,678.164 4530.41,679.907 4528.27,679.907C4526.12,679.907 4524.38,678.164 4524.38,676.018C4524.38,673.871 4526.12,672.128 4528.27,672.128L4528.27,672.128Z" style="fill:rgb(87,137,165);"/>
            </g>
            <g transform="matrix(2.05024,0.390231,-0.549359,1.45636,-6934.28,-2441.56)">
                <circle cx="4528.27" cy="676.018" r="4.889" style="fill:rgb(153,184,201);"/>
                <path d="M4528.27,671.128C4530.97,671.128 4533.16,673.319 4533.16,676.018C4533.16,678.716 4530.97,680.907 4528.27,680.907C4525.57,680.907 4523.38,678.716 4523.38,676.018C4523.38,673.319 4525.57,671.128 4528.27,671.128ZM4528.27,672.128C4530.41,672.128 4532.16,673.871 4532.16,676.018C4532.16,678.164 4530.41,679.907 4528.27,679.907C4526.12,679.907 4524.38,678.164 4524.38,676.018C4524.38,673.871 4526.12,672.128 4528.27,672.128Z" style="fill:rgb(87,137,165);"/>
            </g>
            <g transform="matrix(2.05024,0.390231,-0.549359,1.45636,-6579.94,-2674.49)">
                <circle cx="4528.27" cy="676.018" r="4.889" style="fill:rgb(153,184,201);"/>
                <path d="M4528.27,671.128C4530.97,671.128 4533.16,673.319 4533.16,676.018C4533.16,678.716 4530.97,680.907 4528.27,680.907C4525.57,680.907 4523.38,678.716 4523.38,676.018C4523.38,673.319 4525.57,671.128 4528.27,671.128ZM4528.27,672.128C4530.41,672.128 4532.16,673.871 4532.16,676.018C4532.16,678.164 4530.41,679.907 4528.27,679.907C4526.12,679.907 4524.38,678.164 4524.38,676.018C4524.38,673.871 4526.12,672.128 4528.27,672.128Z" style="fill:rgb(87,137,165);"/>
            </g>
            <g transform="matrix(2.05024,0.390231,-0.549359,1.45636,-6760.14,-2426.81)">
                <circle cx="4528.27" cy="676.018" r="4.889" style="fill:rgb(153,184,201);"/>
                <path d="M4528.27,671.128C4530.97,671.128 4533.16,673.319 4533.16,676.018C4533.16,678.716 4530.97,680.907 4528.27,680.907C4525.57,680.907 4523.38,678.716 4523.38,676.018C4523.38,673.319 4525.57,671.128 4528.27,671.128ZM4528.27,672.128C4530.41,672.128 4532.16,673.871 4532.16,676.018C4532.16,678.164 4530.41,679.907 4528.27,679.907C4526.12,679.907 4524.38,678.164 4524.38,676.018C4524.38,673.871 4526.12,672.128 4528.27,672.128L4528.27,672.128Z" style="fill:rgb(87,137,165);"/>
            </g>
            <g transform="matrix(2.05024,0.390231,-0.549359,1.45636,-6652.94,-2399.12)">
                <circle cx="4528.27" cy="676.018" r="4.889" style="fill:rgb(153,184,201);"/>
                <path d="M4528.27,671.128C4530.97,671.128 4533.16,673.319 4533.16,676.018C4533.16,678.716 4530.97,680.907 4528.27,680.907C4525.57,680.907 4523.38,678.716 4523.38,676.018C4523.38,673.319 4525.57,671.128 4528.27,671.128ZM4528.27,672.128C4530.41,672.128 4532.16,673.871 4532.16,676.018C4532.16,678.164 4530.41,679.907 4528.27,679.907C4526.12,679.907 4524.38,678.164 4524.38,676.018C4524.38,673.871 4526.12,672.128 4528.27,672.128L4528.27,672.128Z" style="fill:rgb(87,137,165);"/>
            </g>
            <g transform="matrix(2.05024,0.390231,-0.549359,1.45636,-6723.24,-2502.87)">
                <circle cx="4528.27" cy="676.018" r="4.889" style="fill:rgb(153,184,201);"/>
                <path d="M4528.27,671.128C4530.97,671.128 4533.16,673.319 4533.16,676.018C4533.16,678.716 4530.97,680.907 4528.27,680.907C4525.57,680.907 4523.38,678.716 4523.38,676.018C4523.38,673.319 4525.57,671.128 4528.27,671.128ZM4528.27,672.128C4530.41,672.128 4532.16,673.871 4532.16,676.018C4532.16,678.164 4530.41,679.907 4528.27,679.907C4526.12,679.907 4524.38,678.164 4524.38,676.018C4524.38,673.871 4526.12,672.128 4528.27,672.128L4528.27,672.128Z" style="fill:rgb(87,137,165);"/>
            </g>
            <g transform="matrix(2.05024,0.390231,-0.549359,1.45636,-6439.28,-2711.63)">
                <circle cx="4528.27" cy="676.018" r="4.889" style="fill:rgb(153,184,201);"/>
                <path d="M4528.27,671.128C4530.97,671.128 4533.16,673.319 4533.16,676.018C4533.16,678.716 4530.97,680.907 4528.27,680.907C4525.57,680.907 4523.38,678.716 4523.38,676.018C4523.38,673.319 4525.57,671.128 4528.27,671.128ZM4528.27,672.128C4530.41,672.128 4532.16,673.871 4532.16,676.018C4532.16,678.164 4530.41,679.907 4528.27,679.907C4526.12,679.907 4524.38,678.164 4524.38,676.018C4524.38,673.871 4526.12,672.128 4528.27,672.128L4528.27,672.128Z" style="fill:rgb(87,137,165);"/>
            </g>
            <g transform="matrix(2.05024,0.390231,-0.549359,1.45636,-6459.06,-2692.81)">
                <circle cx="4528.27" cy="676.018" r="4.889" style="fill:rgb(153,184,201);"/>
                <path d="M4528.27,671.128C4530.97,671.128 4533.16,673.319 4533.16,676.018C4533.16,678.716 4530.97,680.907 4528.27,680.907C4525.57,680.907 4523.38,678.716 4523.38,676.018C4523.38,673.319 4525.57,671.128 4528.27,671.128ZM4528.27,672.128C4530.41,672.128 4532.16,673.871 4532.16,676.018C4532.16,678.164 4530.41,679.907 4528.27,679.907C4526.12,679.907 4524.38,678.164 4524.38,676.018C4524.38,673.871 4526.12,672.128 4528.27,672.128L4528.27,672.128Z" style="fill:rgb(87,137,165);"/>
            </g>
            <g transform="matrix(2.05024,0.390231,-0.549359,1.45636,-6469.75,-2714.25)">
                <circle cx="4528.27" cy="676.018" r="4.889" style="fill:rgb(153,184,201);"/>
                <path d="M4528.27,671.128C4530.97,671.128 4533.16,673.319 4533.16,676.018C4533.16,678.716 4530.97,680.907 4528.27,680.907C4525.57,680.907 4523.38,678.716 4523.38,676.018C4523.38,673.319 4525.57,671.128 4528.27,671.128ZM4528.27,672.128C4530.41,672.128 4532.16,673.871 4532.16,676.018C4532.16,678.164 4530.41,679.907 4528.27,679.907C4526.12,679.907 4524.38,678.164 4524.38,676.018C4524.38,673.871 4526.12,672.128 4528.27,672.128Z" style="fill:rgb(87,137,165);"/>
            </g>
            <g transform="matrix(2.05024,0.390231,-0.549359,1.45636,-7097.13,-2478.46)">
                <circle cx="4528.27" cy="676.018" r="4.889" style="fill:rgb(153,184,201);"/>
                <path d="M4528.27,671.128C4530.97,671.128 4533.16,673.319 4533.16,676.018C4533.16,678.716 4530.97,680.907 4528.27,680.907C4525.57,680.907 4523.38,678.716 4523.38,676.018C4523.38,673.319 4525.57,671.128 4528.27,671.128ZM4528.27,672.128C4530.41,672.128 4532.16,673.871 4532.16,676.018C4532.16,678.164 4530.41,679.907 4528.27,679.907C4526.12,679.907 4524.38,678.164 4524.38,676.018C4524.38,673.871 4526.12,672.128 4528.27,672.128L4528.27,672.128Z" style="fill:rgb(87,137,165);"/>
            </g>
            <g transform="matrix(2.05024,0.390231,-0.549359,1.45636,-6973.09,-2399.73)">
                <circle cx="4528.27" cy="676.018" r="4.889" style="fill:rgb(153,184,201);"/>
                <path d="M4528.27,671.128C4530.97,671.128 4533.16,673.319 4533.16,676.018C4533.16,678.716 4530.97,680.907 4528.27,680.907C4525.57,680.907 4523.38,678.716 4523.38,676.018C4523.38,673.319 4525.57,671.128 4528.27,671.128ZM4528.27,672.128C4530.41,672.128 4532.16,673.871 4532.16,676.018C4532.16,678.164 4530.41,679.907 4528.27,679.907C4526.12,679.907 4524.38,678.164 4524.38,676.018C4524.38,673.871 4526.12,672.128 4528.27,672.128L4528.27,672.128Z" style="fill:rgb(87,137,165);"/>
            </g>
            <g transform="matrix(2.05024,0.390231,-0.549359,1.45636,-6881.97,-2401.32)">
                <circle cx="4528.27" cy="676.018" r="4.889" style="fill:rgb(153,184,201);"/>
                <path d="M4528.27,671.128C4530.97,671.128 4533.16,673.319 4533.16,676.018C4533.16,678.716 4530.97,680.907 4528.27,680.907C4525.57,680.907 4523.38,678.716 4523.38,676.018C4523.38,673.319 4525.57,671.128 4528.27,671.128ZM4528.27,672.128C4530.41,672.128 4532.16,673.871 4532.16,676.018C4532.16,678.164 4530.41,679.907 4528.27,679.907C4526.12,679.907 4524.38,678.164 4524.38,676.018C4524.38,673.871 4526.12,672.128 4528.27,672.128Z" style="fill:rgb(87,137,165);"/>
            </g>
            <g transform="matrix(2.05024,0.390231,-0.549359,1.45636,-6806.55,-2400.09)">
                <circle cx="4528.27" cy="676.018" r="4.889" style="fill:rgb(153,184,201);"/>
                <path d="M4528.27,671.128C4530.97,671.128 4533.16,673.319 4533.16,676.018C4533.16,678.716 4530.97,680.907 4528.27,680.907C4525.57,680.907 4523.38,678.716 4523.38,676.018C4523.38,673.319 4525.57,671.128 4528.27,671.128ZM4528.27,672.128C4530.41,672.128 4532.16,673.871 4532.16,676.018C4532.16,678.164 4530.41,679.907 4528.27,679.907C4526.12,679.907 4524.38,678.164 4524.38,676.018C4524.38,673.871 4526.12,672.128 4528.27,672.128L4528.27,672.128Z" style="fill:rgb(87,137,165);"/>
            </g>
            <g transform="matrix(2.05024,0.390231,-0.549359,1.45636,-6721.52,-2401.71)">
                <circle cx="4528.27" cy="676.018" r="4.889" style="fill:rgb(153,184,201);"/>
                <path d="M4528.27,671.128C4530.97,671.128 4533.16,673.319 4533.16,676.018C4533.16,678.716 4530.97,680.907 4528.27,680.907C4525.57,680.907 4523.38,678.716 4523.38,676.018C4523.38,673.319 4525.57,671.128 4528.27,671.128ZM4528.27,672.128C4530.41,672.128 4532.16,673.871 4532.16,676.018C4532.16,678.164 4530.41,679.907 4528.27,679.907C4526.12,679.907 4524.38,678.164 4524.38,676.018C4524.38,673.871 4526.12,672.128 4528.27,672.128L4528.27,672.128Z" style="fill:rgb(87,137,165);"/>
            </g>
            <g transform="matrix(2.05024,0.390231,-0.549359,1.45636,-6899.32,-2387.72)">
                <circle cx="4528.27" cy="676.018" r="4.889" style="fill:rgb(153,184,201);"/>
                <path d="M4528.27,671.128C4530.97,671.128 4533.16,673.319 4533.16,676.018C4533.16,678.716 4530.97,680.907 4528.27,680.907C4525.57,680.907 4523.38,678.716 4523.38,676.018C4523.38,673.319 4525.57,671.128 4528.27,671.128ZM4528.27,672.128C4530.41,672.128 4532.16,673.871 4532.16,676.018C4532.16,678.164 4530.41,679.907 4528.27,679.907C4526.12,679.907 4524.38,678.164 4524.38,676.018C4524.38,673.871 4526.12,672.128 4528.27,672.128L4528.27,672.128Z" style="fill:rgb(87,137,165);"/>
            </g>
            <g transform="matrix(2.05024,0.390231,-0.549359,1.45636,-6527.36,-2681.86)">
                <circle cx="4528.27" cy="676.018" r="4.889" style="fill:rgb(153,184,201);"/>
                <path d="M4528.27,671.128C4530.97,671.128 4533.16,673.319 4533.16,676.018C4533.16,678.716 4530.97,680.907 4528.27,680.907C4525.57,680.907 4523.38,678.716 4523.38,676.018C4523.38,673.319 4525.57,671.128 4528.27,671.128ZM4528.27,672.128C4530.41,672.128 4532.16,673.871 4532.16,676.018C4532.16,678.164 4530.41,679.907 4528.27,679.907C4526.12,679.907 4524.38,678.164 4524.38,676.018C4524.38,673.871 4526.12,672.128 4528.27,672.128L4528.27,672.128Z" style="fill:rgb(87,137,165);"/>
            </g>
            <g transform="matrix(2.05024,0.390231,-0.549359,1.45636,-6766.4,-2404.25)">
                <circle cx="4528.27" cy="676.018" r="4.889" style="fill:rgb(153,184,201);"/>
                <path d="M4528.27,671.128C4530.97,671.128 4533.16,673.319 4533.16,676.018C4533.16,678.716 4530.97,680.907 4528.27,680.907C4525.57,680.907 4523.38,678.716 4523.38,676.018C4523.38,673.319 4525.57,671.128 4528.27,671.128ZM4528.27,672.128C4530.41,672.128 4532.16,673.871 4532.16,676.018C4532.16,678.164 4530.41,679.907 4528.27,679.907C4526.12,679.907 4524.38,678.164 4524.38,676.018C4524.38,673.871 4526.12,672.128 4528.27,672.128L4528.27,672.128Z" style="fill:rgb(87,137,165);"/>
            </g>
            <g transform="matrix(2.05024,0.390231,-0.549359,1.45636,-6537.74,-2620.25)">
                <circle cx="4528.27" cy="676.018" r="4.889" style="fill:rgb(153,184,201);"/>
                <path d="M4528.27,671.128C4530.97,671.128 4533.16,673.319 4533.16,676.018C4533.16,678.716 4530.97,680.907 4528.27,680.907C4525.57,680.907 4523.38,678.716 4523.38,676.018C4523.38,673.319 4525.57,671.128 4528.27,671.128ZM4528.27,672.128C4530.41,672.128 4532.16,673.871 4532.16,676.018C4532.16,678.164 4530.41,679.907 4528.27,679.907C4526.12,679.907 4524.38,678.164 4524.38,676.018C4524.38,673.871 4526.12,672.128 4528.27,672.128L4528.27,672.128Z" style="fill:rgb(87,137,165);"/>
            </g>
            <g transform="matrix(2.05024,0.390231,-0.549359,1.45636,-6431.37,-2605.51)">
                <circle cx="4528.27" cy="676.018" r="4.889" style="fill:rgb(153,184,201);"/>
                <path d="M4528.27,671.128C4530.97,671.128 4533.16,673.319 4533.16,676.018C4533.16,678.716 4530.97,680.907 4528.27,680.907C4525.57,680.907 4523.38,678.716 4523.38,676.018C4523.38,673.319 4525.57,671.128 4528.27,671.128ZM4528.27,672.128C4530.41,672.128 4532.16,673.871 4532.16,676.018C4532.16,678.164 4530.41,679.907 4528.27,679.907C4526.12,679.907 4524.38,678.164 4524.38,676.018C4524.38,673.871 4526.12,672.128 4528.27,672.128Z" style="fill:rgb(87,137,165);"/>
            </g>
            <g transform="matrix(2.05024,0.390231,-0.549359,1.45636,-6675.66,-2461.01)">
                <circle cx="4528.27" cy="676.018" r="4.889" style="fill:rgb(153,184,201);"/>
                <path d="M4528.27,671.128C4530.97,671.128 4533.16,673.319 4533.16,676.018C4533.16,678.716 4530.97,680.907 4528.27,680.907C4525.57,680.907 4523.38,678.716 4523.38,676.018C4523.38,673.319 4525.57,671.128 4528.27,671.128ZM4528.27,672.128C4530.41,672.128 4532.16,673.871 4532.16,676.018C4532.16,678.164 4530.41,679.907 4528.27,679.907C4526.12,679.907 4524.38,678.164 4524.38,676.018C4524.38,673.871 4526.12,672.128 4528.27,672.128L4528.27,672.128Z" style="fill:rgb(87,137,165);"/>
            </g>
            <g transform="matrix(2.05024,0.390231,-0.549359,1.45636,-6805.01,-2461.01)">
                <circle cx="4528.27" cy="676.018" r="4.889" style="fill:rgb(153,184,201);"/>
                <path d="M4528.27,671.128C4530.97,671.128 4533.16,673.319 4533.16,676.018C4533.16,678.716 4530.97,680.907 4528.27,680.907C4525.57,680.907 4523.38,678.716 4523.38,676.018C4523.38,673.319 4525.57,671.128 4528.27,671.128ZM4528.27,672.128C4530.41,672.128 4532.16,673.871 4532.16,676.018C4532.16,678.164 4530.41,679.907 4528.27,679.907C4526.12,679.907 4524.38,678.164 4524.38,676.018C4524.38,673.871 4526.12,672.128 4528.27,672.128L4528.27,672.128Z" style="fill:rgb(87,137,165);"/>
            </g>
            <g transform="matrix(2.05024,0.390231,-0.549359,1.45636,-6976.86,-2466.75)">
                <circle cx="4528.27" cy="676.018" r="4.889" style="fill:rgb(153,184,201);"/>
                <path d="M4528.27,671.128C4530.97,671.128 4533.16,673.319 4533.16,676.018C4533.16,678.716 4530.97,680.907 4528.27,680.907C4525.57,680.907 4523.38,678.716 4523.38,676.018C4523.38,673.319 4525.57,671.128 4528.27,671.128ZM4528.27,672.128C4530.41,672.128 4532.16,673.871 4532.16,676.018C4532.16,678.164 4530.41,679.907 4528.27,679.907C4526.12,679.907 4524.38,678.164 4524.38,676.018C4524.38,673.871 4526.12,672.128 4528.27,672.128L4528.27,672.128Z" style="fill:rgb(87,137,165);"/>
            </g>
            <g transform="matrix(2.05024,0.390231,-0.549359,1.45636,-7000.68,-2435.04)">
                <circle cx="4528.27" cy="676.018" r="4.889" style="fill:rgb(153,184,201);"/>
                <path d="M4528.27,671.128C4530.97,671.128 4533.16,673.319 4533.16,676.018C4533.16,678.716 4530.97,680.907 4528.27,680.907C4525.57,680.907 4523.38,678.716 4523.38,676.018C4523.38,673.319 4525.57,671.128 4528.27,671.128ZM4528.27,672.128C4530.41,672.128 4532.16,673.871 4532.16,676.018C4532.16,678.164 4530.41,679.907 4528.27,679.907C4526.12,679.907 4524.38,678.164 4524.38,676.018C4524.38,673.871 4526.12,672.128 4528.27,672.128Z" style="fill:rgb(87,137,165);"/>
            </g>
            <g transform="matrix(2.05024,0.390231,-0.549359,1.45636,-6829.14,-2500.8)">
                <circle cx="4528.27" cy="676.018" r="4.889" style="fill:rgb(153,184,201);"/>
                <path d="M4528.27,671.128C4530.97,671.128 4533.16,673.319 4533.16,676.018C4533.16,678.716 4530.97,680.907 4528.27,680.907C4525.57,680.907 4523.38,678.716 4523.38,676.018C4523.38,673.319 4525.57,671.128 4528.27,671.128ZM4528.27,672.128C4530.41,672.128 4532.16,673.871 4532.16,676.018C4532.16,678.164 4530.41,679.907 4528.27,679.907C4526.12,679.907 4524.38,678.164 4524.38,676.018C4524.38,673.871 4526.12,672.128 4528.27,672.128Z" style="fill:rgb(87,137,165);"/>
            </g>
            <g transform="matrix(2.05024,0.390231,-0.549359,1.45636,-6940.42,-2401.43)">
                <circle cx="4528.27" cy="676.018" r="4.889" style="fill:rgb(153,184,201);"/>
                <path d="M4528.27,671.128C4530.97,671.128 4533.16,673.319 4533.16,676.018C4533.16,678.716 4530.97,680.907 4528.27,680.907C4525.57,680.907 4523.38,678.716 4523.38,676.018C4523.38,673.319 4525.57,671.128 4528.27,671.128ZM4528.27,672.128C4530.41,672.128 4532.16,673.871 4532.16,676.018C4532.16,678.164 4530.41,679.907 4528.27,679.907C4526.12,679.907 4524.38,678.164 4524.38,676.018C4524.38,673.871 4526.12,672.128 4528.27,672.128L4528.27,672.128Z" style="fill:rgb(87,137,165);"/>
            </g>
            <g transform="matrix(2.05024,0.390231,-0.549359,1.45636,-7055,-2396.88)">
                <circle cx="4528.27" cy="676.018" r="4.889" style="fill:rgb(153,184,201);"/>
                <path d="M4528.27,671.128C4530.97,671.128 4533.16,673.319 4533.16,676.018C4533.16,678.716 4530.97,680.907 4528.27,680.907C4525.57,680.907 4523.38,678.716 4523.38,676.018C4523.38,673.319 4525.57,671.128 4528.27,671.128ZM4528.27,672.128C4530.41,672.128 4532.16,673.871 4532.16,676.018C4532.16,678.164 4530.41,679.907 4528.27,679.907C4526.12,679.907 4524.38,678.164 4524.38,676.018C4524.38,673.871 4526.12,672.128 4528.27,672.128L4528.27,672.128Z" style="fill:rgb(87,137,165);"/>
            </g>
            <g transform="matrix(2.05024,0.390231,-0.549359,1.45636,-6410.61,-2667.12)">
                <circle cx="4528.27" cy="676.018" r="4.889" style="fill:rgb(153,184,201);"/>
                <path d="M4528.27,671.128C4530.97,671.128 4533.16,673.319 4533.16,676.018C4533.16,678.716 4530.97,680.907 4528.27,680.907C4525.57,680.907 4523.38,678.716 4523.38,676.018C4523.38,673.319 4525.57,671.128 4528.27,671.128ZM4528.27,672.128C4530.41,672.128 4532.16,673.871 4532.16,676.018C4532.16,678.164 4530.41,679.907 4528.27,679.907C4526.12,679.907 4524.38,678.164 4524.38,676.018C4524.38,673.871 4526.12,672.128 4528.27,672.128L4528.27,672.128Z" style="fill:rgb(87,137,165);"/>
            </g>
            <g transform="matrix(2.05024,0.390231,-0.549359,1.45636,-6504.26,-2522.25)">
                <circle cx="4528.27" cy="676.018" r="4.889" style="fill:rgb(153,184,201);"/>
                <path d="M4528.27,671.128C4530.97,671.128 4533.16,673.319 4533.16,676.018C4533.16,678.716 4530.97,680.907 4528.27,680.907C4525.57,680.907 4523.38,678.716 4523.38,676.018C4523.38,673.319 4525.57,671.128 4528.27,671.128ZM4528.27,672.128C4530.41,672.128 4532.16,673.871 4532.16,676.018C4532.16,678.164 4530.41,679.907 4528.27,679.907C4526.12,679.907 4524.38,678.164 4524.38,676.018C4524.38,673.871 4526.12,672.128 4528.27,672.128L4528.27,672.128Z" style="fill:rgb(87,137,165);"/>
            </g>
            <g transform="matrix(2.05024,0.390231,-0.549359,1.45636,-6899.32,-2434.13)">
                <circle cx="4528.27" cy="676.018" r="4.889" style="fill:rgb(153,184,201);"/>
                <path d="M4528.27,671.128C4530.97,671.128 4533.16,673.319 4533.16,676.018C4533.16,678.716 4530.97,680.907 4528.27,680.907C4525.57,680.907 4523.38,678.716 4523.38,676.018C4523.38,673.319 4525.57,671.128 4528.27,671.128ZM4528.27,672.128C4530.41,672.128 4532.16,673.871 4532.16,676.018C4532.16,678.164 4530.41,679.907 4528.27,679.907C4526.12,679.907 4524.38,678.164 4524.38,676.018C4524.38,673.871 4526.12,672.128 4528.27,672.128Z" style="fill:rgb(87,137,165);"/>
            </g>
            <g transform="matrix(2.05024,0.390231,-0.549359,1.45636,-6996.45,-2367.41)">
                <circle cx="4528.27" cy="676.018" r="4.889" style="fill:rgb(153,184,201);"/>
                <path d="M4528.27,671.128C4530.97,671.128 4533.16,673.319 4533.16,676.018C4533.16,678.716 4530.97,680.907 4528.27,680.907C4525.57,680.907 4523.38,678.716 4523.38,676.018C4523.38,673.319 4525.57,671.128 4528.27,671.128ZM4528.27,672.128C4530.41,672.128 4532.16,673.871 4532.16,676.018C4532.16,678.164 4530.41,679.907 4528.27,679.907C4526.12,679.907 4524.38,678.164 4524.38,676.018C4524.38,673.871 4526.12,672.128 4528.27,672.128L4528.27,672.128Z" style="fill:rgb(87,137,165);"/>
            </g>
            <g transform="matrix(2.05024,0.390231,-0.549359,1.45636,-6512.13,-2548.53)">
                <circle cx="4528.27" cy="676.018" r="4.889" style="fill:rgb(153,184,201);"/>
                <path d="M4528.27,671.128C4530.97,671.128 4533.16,673.319 4533.16,676.018C4533.16,678.716 4530.97,680.907 4528.27,680.907C4525.57,680.907 4523.38,678.716 4523.38,676.018C4523.38,673.319 4525.57,671.128 4528.27,671.128ZM4528.27,672.128C4530.41,672.128 4532.16,673.871 4532.16,676.018C4532.16,678.164 4530.41,679.907 4528.27,679.907C4526.12,679.907 4524.38,678.164 4524.38,676.018C4524.38,673.871 4526.12,672.128 4528.27,672.128Z" style="fill:rgb(87,137,165);"/>
            </g>
            <g transform="matrix(2.05024,0.390231,-0.549359,1.45636,-6606.58,-2545.78)">
                <circle cx="4528.27" cy="676.018" r="4.889" style="fill:rgb(153,184,201);"/>
                <path d="M4528.27,671.128C4530.97,671.128 4533.16,673.319 4533.16,676.018C4533.16,678.716 4530.97,680.907 4528.27,680.907C4525.57,680.907 4523.38,678.716 4523.38,676.018C4523.38,673.319 4525.57,671.128 4528.27,671.128ZM4528.27,672.128C4530.41,672.128 4532.16,673.871 4532.16,676.018C4532.16,678.164 4530.41,679.907 4528.27,679.907C4526.12,679.907 4524.38,678.164 4524.38,676.018C4524.38,673.871 4526.12,672.128 4528.27,672.128L4528.27,672.128Z" style="fill:rgb(87,137,165);"/>
            </g>
            <g transform="matrix(2.05024,0.390231,-0.549359,1.45636,-6589.07,-2570.64)">
                <circle cx="4528.27" cy="676.018" r="4.889" style="fill:rgb(153,184,201);"/>
                <path d="M4528.27,671.128C4530.97,671.128 4533.16,673.319 4533.16,676.018C4533.16,678.716 4530.97,680.907 4528.27,680.907C4525.57,680.907 4523.38,678.716 4523.38,676.018C4523.38,673.319 4525.57,671.128 4528.27,671.128ZM4528.27,672.128C4530.41,672.128 4532.16,673.871 4532.16,676.018C4532.16,678.164 4530.41,679.907 4528.27,679.907C4526.12,679.907 4524.38,678.164 4524.38,676.018C4524.38,673.871 4526.12,672.128 4528.27,672.128L4528.27,672.128Z" style="fill:rgb(87,137,165);"/>
            </g>
            <g transform="matrix(2.05024,0.390231,-0.549359,1.45636,-6470.62,-2635)">
                <circle cx="4528.27" cy="676.018" r="4.889" style="fill:rgb(153,184,201);"/>
                <path d="M4528.27,671.128C4530.97,671.128 4533.16,673.319 4533.16,676.018C4533.16,678.716 4530.97,680.907 4528.27,680.907C4525.57,680.907 4523.38,678.716 4523.38,676.018C4523.38,673.319 4525.57,671.128 4528.27,671.128ZM4528.27,672.128C4530.41,672.128 4532.16,673.871 4532.16,676.018C4532.16,678.164 4530.41,679.907 4528.27,679.907C4526.12,679.907 4524.38,678.164 4524.38,676.018C4524.38,673.871 4526.12,672.128 4528.27,672.128L4528.27,672.128Z" style="fill:rgb(87,137,165);"/>
            </g>
            <g transform="matrix(2.05024,0.390231,-0.549359,1.45636,-6626.41,-2496.24)">
                <circle cx="4528.27" cy="676.018" r="4.889" style="fill:rgb(153,184,201);"/>
                <path d="M4528.27,671.128C4530.97,671.128 4533.16,673.319 4533.16,676.018C4533.16,678.716 4530.97,680.907 4528.27,680.907C4525.57,680.907 4523.38,678.716 4523.38,676.018C4523.38,673.319 4525.57,671.128 4528.27,671.128ZM4528.27,672.128C4530.41,672.128 4532.16,673.871 4532.16,676.018C4532.16,678.164 4530.41,679.907 4528.27,679.907C4526.12,679.907 4524.38,678.164 4524.38,676.018C4524.38,673.871 4526.12,672.128 4528.27,672.128L4528.27,672.128Z" style="fill:rgb(87,137,165);"/>
            </g>
            <g transform="matrix(2.05024,0.390231,-0.549359,1.45636,-6749.76,-2481.5)">
                <circle cx="4528.27" cy="676.018" r="4.889" style="fill:rgb(153,184,201);"/>
                <path d="M4528.27,671.128C4530.97,671.128 4533.16,673.319 4533.16,676.018C4533.16,678.716 4530.97,680.907 4528.27,680.907C4525.57,680.907 4523.38,678.716 4523.38,676.018C4523.38,673.319 4525.57,671.128 4528.27,671.128ZM4528.27,672.128C4530.41,672.128 4532.16,673.871 4532.16,676.018C4532.16,678.164 4530.41,679.907 4528.27,679.907C4526.12,679.907 4524.38,678.164 4524.38,676.018C4524.38,673.871 4526.12,672.128 4528.27,672.128L4528.27,672.128Z" style="fill:rgb(87,137,165);"/>
            </g>
            <g transform="matrix(2.05024,0.390231,-0.549359,1.45636,-6516.98,-2583.19)">
                <circle cx="4528.27" cy="676.018" r="4.889" style="fill:rgb(153,184,201);"/>
                <path d="M4528.27,671.128C4530.97,671.128 4533.16,673.319 4533.16,676.018C4533.16,678.716 4530.97,680.907 4528.27,680.907C4525.57,680.907 4523.38,678.716 4523.38,676.018C4523.38,673.319 4525.57,671.128 4528.27,671.128ZM4528.27,672.128C4530.41,672.128 4532.16,673.871 4532.16,676.018C4532.16,678.164 4530.41,679.907 4528.27,679.907C4526.12,679.907 4524.38,678.164 4524.38,676.018C4524.38,673.871 4526.12,672.128 4528.27,672.128L4528.27,672.128Z" style="fill:rgb(87,137,165);"/>
            </g>
            <g transform="matrix(2.05024,0.390231,-0.549359,1.45636,-6715.8,-2426.04)">
                <circle cx="4528.27" cy="676.018" r="4.889" style="fill:rgb(153,184,201);"/>
                <path d="M4528.27,671.128C4530.97,671.128 4533.16,673.319 4533.16,676.018C4533.16,678.716 4530.97,680.907 4528.27,680.907C4525.57,680.907 4523.38,678.716 4523.38,676.018C4523.38,673.319 4525.57,671.128 4528.27,671.128ZM4528.27,672.128C4530.41,672.128 4532.16,673.871 4532.16,676.018C4532.16,678.164 4530.41,679.907 4528.27,679.907C4526.12,679.907 4524.38,678.164 4524.38,676.018C4524.38,673.871 4526.12,672.128 4528.27,672.128L4528.27,672.128Z" style="fill:rgb(87,137,165);"/>
            </g>
            <g transform="matrix(2.05024,0.390231,-0.549359,1.45636,-6670.44,-2513.12)">
                <circle cx="4528.27" cy="676.018" r="4.889" style="fill:rgb(153,184,201);"/>
                <path d="M4528.27,671.128C4530.97,671.128 4533.16,673.319 4533.16,676.018C4533.16,678.716 4530.97,680.907 4528.27,680.907C4525.57,680.907 4523.38,678.716 4523.38,676.018C4523.38,673.319 4525.57,671.128 4528.27,671.128ZM4528.27,672.128C4530.41,672.128 4532.16,673.871 4532.16,676.018C4532.16,678.164 4530.41,679.907 4528.27,679.907C4526.12,679.907 4524.38,678.164 4524.38,676.018C4524.38,673.871 4526.12,672.128 4528.27,672.128L4528.27,672.128Z" style="fill:rgb(87,137,165);"/>
            </g>
            <g transform="matrix(2.05024,0.390231,-0.549359,1.45636,-6749.76,-2501.54)">
                <circle cx="4528.27" cy="676.018" r="4.889" style="fill:rgb(153,184,201);"/>
                <path d="M4528.27,671.128C4530.97,671.128 4533.16,673.319 4533.16,676.018C4533.16,678.716 4530.97,680.907 4528.27,680.907C4525.57,680.907 4523.38,678.716 4523.38,676.018C4523.38,673.319 4525.57,671.128 4528.27,671.128ZM4528.27,672.128C4530.41,672.128 4532.16,673.871 4532.16,676.018C4532.16,678.164 4530.41,679.907 4528.27,679.907C4526.12,679.907 4524.38,678.164 4524.38,676.018C4524.38,673.871 4526.12,672.128 4528.27,672.128L4528.27,672.128Z" style="fill:rgb(87,137,165);"/>
            </g>
            <g transform="matrix(2.05024,0.390231,-0.549359,1.45636,-6569.56,-2520.33)">
                <circle cx="4528.27" cy="676.018" r="4.889" style="fill:rgb(153,184,201);"/>
                <path d="M4528.27,671.128C4530.97,671.128 4533.16,673.319 4533.16,676.018C4533.16,678.716 4530.97,680.907 4528.27,680.907C4525.57,680.907 4523.38,678.716 4523.38,676.018C4523.38,673.319 4525.57,671.128 4528.27,671.128ZM4528.27,672.128C4530.41,672.128 4532.16,673.871 4532.16,676.018C4532.16,678.164 4530.41,679.907 4528.27,679.907C4526.12,679.907 4524.38,678.164 4524.38,676.018C4524.38,673.871 4526.12,672.128 4528.27,672.128L4528.27,672.128Z" style="fill:rgb(87,137,165);"/>
            </g>
            <g transform="matrix(2.05024,0.390231,-0.549359,1.45636,-6642.04,-2601.34)">
                <circle cx="4528.27" cy="676.018" r="4.889" style="fill:rgb(153,184,201);"/>
                <path d="M4528.27,671.128C4530.97,671.128 4533.16,673.319 4533.16,676.018C4533.16,678.716 4530.97,680.907 4528.27,680.907C4525.57,680.907 4523.38,678.716 4523.38,676.018C4523.38,673.319 4525.57,671.128 4528.27,671.128ZM4528.27,672.128C4530.41,672.128 4532.16,673.871 4532.16,676.018C4532.16,678.164 4530.41,679.907 4528.27,679.907C4526.12,679.907 4524.38,678.164 4524.38,676.018C4524.38,673.871 4526.12,672.128 4528.27,672.128L4528.27,672.128Z" style="fill:rgb(87,137,165);"/>
            </g>
            <g transform="matrix(2.05024,0.390231,-0.549359,1.45636,-6671.33,-2539.25)">
                <circle cx="4528.27" cy="676.018" r="4.889" style="fill:rgb(153,184,201);"/>
                <path d="M4528.27,671.128C4530.97,671.128 4533.16,673.319 4533.16,676.018C4533.16,678.716 4530.97,680.907 4528.27,680.907C4525.57,680.907 4523.38,678.716 4523.38,676.018C4523.38,673.319 4525.57,671.128 4528.27,671.128ZM4528.27,672.128C4530.41,672.128 4532.16,673.871 4532.16,676.018C4532.16,678.164 4530.41,679.907 4528.27,679.907C4526.12,679.907 4524.38,678.164 4524.38,676.018C4524.38,673.871 4526.12,672.128 4528.27,672.128L4528.27,672.128Z" style="fill:rgb(87,137,165);"/>
            </g>
            <g transform="matrix(2.05024,0.390231,-0.549359,1.45636,-6573.02,-2648.73)">
                <circle cx="4528.27" cy="676.018" r="4.889" style="fill:rgb(153,184,201);"/>
                <path d="M4528.27,671.128C4530.97,671.128 4533.16,673.319 4533.16,676.018C4533.16,678.716 4530.97,680.907 4528.27,680.907C4525.57,680.907 4523.38,678.716 4523.38,676.018C4523.38,673.319 4525.57,671.128 4528.27,671.128ZM4528.27,672.128C4530.41,672.128 4532.16,673.871 4532.16,676.018C4532.16,678.164 4530.41,679.907 4528.27,679.907C4526.12,679.907 4524.38,678.164 4524.38,676.018C4524.38,673.871 4526.12,672.128 4528.27,672.128L4528.27,672.128Z" style="fill:rgb(87,137,165);"/>
            </g>
            <g transform="matrix(2.05024,0.390231,-0.549359,1.45636,-6714.72,-2532.25)">
                <circle cx="4528.27" cy="676.018" r="4.889" style="fill:rgb(153,184,201);"/>
                <path d="M4528.27,671.128C4530.97,671.128 4533.16,673.319 4533.16,676.018C4533.16,678.716 4530.97,680.907 4528.27,680.907C4525.57,680.907 4523.38,678.716 4523.38,676.018C4523.38,673.319 4525.57,671.128 4528.27,671.128ZM4528.27,672.128C4530.41,672.128 4532.16,673.871 4532.16,676.018C4532.16,678.164 4530.41,679.907 4528.27,679.907C4526.12,679.907 4524.38,678.164 4524.38,676.018C4524.38,673.871 4526.12,672.128 4528.27,672.128L4528.27,672.128Z" style="fill:rgb(87,137,165);"/>
            </g>
            <g transform="matrix(2.05024,0.390231,-0.549359,1.45636,-6883.56,-2491.2)">
                <circle cx="4528.27" cy="676.018" r="4.889" style="fill:rgb(153,184,201);"/>
                <path d="M4528.27,671.128C4530.97,671.128 4533.16,673.319 4533.16,676.018C4533.16,678.716 4530.97,680.907 4528.27,680.907C4525.57,680.907 4523.38,678.716 4523.38,676.018C4523.38,673.319 4525.57,671.128 4528.27,671.128ZM4528.27,672.128C4530.41,672.128 4532.16,673.871 4532.16,676.018C4532.16,678.164 4530.41,679.907 4528.27,679.907C4526.12,679.907 4524.38,678.164 4524.38,676.018C4524.38,673.871 4526.12,672.128 4528.27,672.128L4528.27,672.128Z" style="fill:rgb(87,137,165);"/>
            </g>
            <g transform="matrix(2.05024,0.390231,-0.549359,1.45636,-6464.68,-2563.27)">
                <circle cx="4528.27" cy="676.018" r="4.889" style="fill:rgb(153,184,201);"/>
                <path d="M4528.27,671.128C4530.97,671.128 4533.16,673.319 4533.16,676.018C4533.16,678.716 4530.97,680.907 4528.27,680.907C4525.57,680.907 4523.38,678.716 4523.38,676.018C4523.38,673.319 4525.57,671.128 4528.27,671.128ZM4528.27,672.128C4530.41,672.128 4532.16,673.871 4532.16,676.018C4532.16,678.164 4530.41,679.907 4528.27,679.907C4526.12,679.907 4524.38,678.164 4524.38,676.018C4524.38,673.871 4526.12,672.128 4528.27,672.128L4528.27,672.128Z" style="fill:rgb(87,137,165);"/>
            </g>
            <g transform="matrix(2.05024,0.390231,-0.549359,1.45636,-6626.46,-2556.22)">
                <circle cx="4528.27" cy="676.018" r="4.889" style="fill:rgb(153,184,201);"/>
                <path d="M4528.27,671.128C4530.97,671.128 4533.16,673.319 4533.16,676.018C4533.16,678.716 4530.97,680.907 4528.27,680.907C4525.57,680.907 4523.38,678.716 4523.38,676.018C4523.38,673.319 4525.57,671.128 4528.27,671.128ZM4528.27,672.128C4530.41,672.128 4532.16,673.871 4532.16,676.018C4532.16,678.164 4530.41,679.907 4528.27,679.907C4526.12,679.907 4524.38,678.164 4524.38,676.018C4524.38,673.871 4526.12,672.128 4528.27,672.128Z" style="fill:rgb(87,137,165);"/>
            </g>
            <g transform="matrix(2.05024,0.390231,-0.549359,1.45636,-6837.75,-2396.88)">
                <circle cx="4528.27" cy="676.018" r="4.889" style="fill:rgb(153,184,201);"/>
                <path d="M4528.27,671.128C4530.97,671.128 4533.16,673.319 4533.16,676.018C4533.16,678.716 4530.97,680.907 4528.27,680.907C4525.57,680.907 4523.38,678.716 4523.38,676.018C4523.38,673.319 4525.57,671.128 4528.27,671.128ZM4528.27,672.128C4530.41,672.128 4532.16,673.871 4532.16,676.018C4532.16,678.164 4530.41,679.907 4528.27,679.907C4526.12,679.907 4524.38,678.164 4524.38,676.018C4524.38,673.871 4526.12,672.128 4528.27,672.128L4528.27,672.128Z" style="fill:rgb(87,137,165);"/>
            </g>
        </g>
    </g>
</svg>
