<?xml version="1.0" encoding="UTF-8" standalone="no"?>
<!DOCTYPE svg PUBLIC "-//W3C//DTD SVG 1.1//EN" "http://www.w3.org/Graphics/SVG/1.1/DTD/svg11.dtd">
<svg width="100%" height="100%" viewBox="0 0 381 361" version="1.1" xmlns="http://www.w3.org/2000/svg" xmlns:xlink="http://www.w3.org/1999/xlink" xml:space="preserve" xmlns:serif="http://www.serif.com/" style="fill-rule:evenodd;clip-rule:evenodd;stroke-linecap:round;stroke-linejoin:round;stroke-miterlimit:1.5;">
    <g transform="matrix(1,0,0,1,-6894,-274)">
        <g id="_010_3" serif:id="010_3" transform="matrix(0.471129,0,0,0.795894,6067.51,281.114)">
            <rect x="1755.48" y="-8.417" width="806.573" height="452.321" style="fill:none;"/>
            <g transform="matrix(2.29377,0,0,2.02753,-14023.3,-565.522)">
                <path d="M7164.59,374.545L7164.59,400.854" style="fill:none;stroke:rgb(188,188,188);stroke-width:1.46px;"/>
            </g>
            <g transform="matrix(2.29377,0,0,2.02753,-14206.8,-565.522)">
                <path d="M7164.59,374.545L7164.59,400.854" style="fill:none;stroke:rgb(188,188,188);stroke-width:1.46px;"/>
            </g>
            <g transform="matrix(4.53577,0,0,3.46482,-29996.5,-1080.65)">
                <path d="M7084.57,331.706C7084.57,346.834 7124.58,337.997 7124.58,353.126" style="fill:none;stroke:rgb(188,188,188);stroke-width:0.81px;"/>
            </g>
            <g transform="matrix(-4.53577,0,0,3.46482,34271.4,-1080.65)">
                <path d="M7084.57,331.706C7084.57,346.834 7124.58,337.997 7124.58,353.126" style="fill:none;stroke:rgb(188,188,188);stroke-width:0.81px;"/>
            </g>
            <g transform="matrix(2.29377,0,0,2.38157,-13931.5,-647.114)">
                <path d="M7084.57,331.706C7084.57,346.834 7124.58,337.997 7124.58,353.126" style="fill:none;stroke:rgb(188,188,188);stroke-width:1.3px;"/>
            </g>
            <g transform="matrix(2.29377,0,0,2.38157,-14018.9,-491.748)">
                <path d="M7084.57,331.706C7084.57,346.834 7124.58,337.997 7124.58,353.126" style="fill:none;stroke:rgb(188,188,188);stroke-width:1.3px;"/>
            </g>
            <g transform="matrix(2.29377,0,0,2.38157,-14110.7,-542.76)">
                <path d="M7084.57,331.706C7084.57,346.834 7124.58,337.997 7124.58,353.126" style="fill:none;stroke:rgb(188,188,188);stroke-width:1.3px;"/>
            </g>
            <g transform="matrix(2.29377,0,0,2.38157,-14202.4,-593.772)">
                <path d="M7084.57,331.706C7084.57,346.834 7124.58,337.997 7124.58,353.126" style="fill:none;stroke:rgb(188,188,188);stroke-width:1.3px;"/>
            </g>
            <g transform="matrix(2.29377,0,0,2.38157,-14294.2,-647.028)">
                <path d="M7084.57,331.706C7084.57,346.834 7124.58,337.997 7124.58,353.126" style="fill:none;stroke:rgb(188,188,188);stroke-width:1.3px;"/>
            </g>
            <g transform="matrix(-2.29377,0,0,2.38157,18569.3,-647.114)">
                <path d="M7084.57,331.706C7084.57,346.834 7124.58,337.997 7124.58,353.126" style="fill:none;stroke:rgb(188,188,188);stroke-width:1.3px;"/>
            </g>
            <g transform="matrix(-2.29377,0,0,2.38157,18481.9,-491.748)">
                <path d="M7084.57,331.706C7084.57,346.834 7124.58,337.997 7124.58,353.126" style="fill:none;stroke:rgb(188,188,188);stroke-width:1.3px;"/>
            </g>
            <g transform="matrix(-2.29377,0,0,2.38157,18390.1,-542.76)">
                <path d="M7084.57,331.706C7084.57,346.834 7124.58,337.997 7124.58,353.126" style="fill:none;stroke:rgb(188,188,188);stroke-width:1.3px;"/>
            </g>
            <g transform="matrix(-2.29377,0,0,2.38157,18206.6,-647.028)">
                <path d="M7084.57,331.706C7084.57,346.834 7124.58,337.997 7124.58,353.126" style="fill:none;stroke:rgb(188,188,188);stroke-width:1.3px;"/>
            </g>
            <g transform="matrix(-2.29377,0,0,2.38157,18298.3,-593.772)">
                <path d="M7084.57,331.706C7084.57,346.834 7124.58,337.997 7124.58,353.126" style="fill:none;stroke:rgb(188,188,188);stroke-width:1.3px;"/>
            </g>
            <g transform="matrix(-6.39486,1.70548,-2.88112,-3.78543,33042.8,-5095.18)">
                <circle cx="4528.27" cy="676.018" r="4.889" style="fill:rgb(220,197,238);"/>
                <path d="M4528.27,671.128C4530.97,671.128 4533.16,673.319 4533.16,676.018C4533.16,678.716 4530.97,680.907 4528.27,680.907C4525.57,680.907 4523.38,678.716 4523.38,676.018C4523.38,673.319 4525.57,671.128 4528.27,671.128ZM4528.27,671.431C4530.8,671.431 4532.85,673.486 4532.85,676.018C4532.85,678.549 4530.8,680.604 4528.27,680.604C4525.73,680.604 4523.68,678.549 4523.68,676.018C4523.68,673.486 4525.73,671.431 4528.27,671.431Z" style="fill:rgb(138,147,201);"/>
            </g>
            <g transform="matrix(-3.82782,1.02086,-1.72458,-2.26588,20818.2,-2948.09)">
                <circle cx="4528.27" cy="676.018" r="4.889" style="fill:rgb(231,173,173);"/>
                <path d="M4528.27,671.128C4530.97,671.128 4533.16,673.319 4533.16,676.018C4533.16,678.716 4530.97,680.907 4528.27,680.907C4525.57,680.907 4523.38,678.716 4523.38,676.018C4523.38,673.319 4525.57,671.128 4528.27,671.128ZM4528.27,671.634C4530.69,671.634 4532.65,673.598 4532.65,676.018C4532.65,678.437 4530.69,680.401 4528.27,680.401C4525.85,680.401 4523.88,678.437 4523.88,676.018C4523.88,673.598 4525.85,671.634 4528.27,671.634Z" style="fill:rgb(201,138,138);"/>
            </g>
            <g transform="matrix(-3.82782,1.02086,-1.72458,-2.26588,20726.4,-2898.34)">
                <circle cx="4528.27" cy="676.018" r="4.889" style="fill:rgb(238,212,197);"/>
                <path d="M4528.27,671.128C4530.97,671.128 4533.16,673.319 4533.16,676.018C4533.16,678.716 4530.97,680.907 4528.27,680.907C4525.57,680.907 4523.38,678.716 4523.38,676.018C4523.38,673.319 4525.57,671.128 4528.27,671.128ZM4528.27,671.634C4530.69,671.634 4532.65,673.598 4532.65,676.018C4532.65,678.437 4530.69,680.401 4528.27,680.401C4525.85,680.401 4523.88,678.437 4523.88,676.018C4523.88,673.598 4525.85,671.634 4528.27,671.634L4528.27,671.634Z" style="fill:rgb(201,138,147);"/>
            </g>
            <g transform="matrix(-3.82782,1.02086,-1.72458,-2.26588,20909.9,-2898.34)">
                <circle cx="4528.27" cy="676.018" r="4.889" style="fill:rgb(220,197,238);"/>
                <path d="M4528.27,671.128C4530.97,671.128 4533.16,673.319 4533.16,676.018C4533.16,678.716 4530.97,680.907 4528.27,680.907C4525.57,680.907 4523.38,678.716 4523.38,676.018C4523.38,673.319 4525.57,671.128 4528.27,671.128ZM4528.27,671.634C4530.69,671.634 4532.65,673.598 4532.65,676.018C4532.65,678.437 4530.69,680.401 4528.27,680.401C4525.85,680.401 4523.88,678.437 4523.88,676.018C4523.88,673.598 4525.85,671.634 4528.27,671.634Z" style="fill:rgb(138,147,201);"/>
            </g>
            <g transform="matrix(-2.09426,2.15395,-3.63875,-1.2397,14170.4,-8666.84)">
                <circle cx="4528.27" cy="676.018" r="4.889" style="fill:rgb(209,235,206);"/>
                <path d="M4528.27,671.128C4530.97,671.128 4533.16,673.319 4533.16,676.018C4533.16,678.716 4530.97,680.907 4528.27,680.907C4525.57,680.907 4523.38,678.716 4523.38,676.018C4523.38,673.319 4525.57,671.128 4528.27,671.128ZM4528.27,671.634C4530.69,671.634 4532.65,673.598 4532.65,676.018C4532.65,678.437 4530.69,680.401 4528.27,680.401C4525.85,680.401 4523.88,678.437 4523.88,676.018C4523.88,673.598 4525.85,671.634 4528.27,671.634Z" style="fill:rgb(171,195,161);"/>
            </g>
            <g transform="matrix(-2.09426,2.15395,-3.63875,-1.2397,14353.9,-8668.39)">
                <circle cx="4528.27" cy="676.018" r="4.889" style="fill:rgb(209,235,206);"/>
                <path d="M4528.27,671.128C4530.97,671.128 4533.16,673.319 4533.16,676.018C4533.16,678.716 4530.97,680.907 4528.27,680.907C4525.57,680.907 4523.38,678.716 4523.38,676.018C4523.38,673.319 4525.57,671.128 4528.27,671.128ZM4528.27,671.634C4530.69,671.634 4532.65,673.598 4532.65,676.018C4532.65,678.437 4530.69,680.401 4528.27,680.401C4525.85,680.401 4523.88,678.437 4523.88,676.018C4523.88,673.598 4525.85,671.634 4528.27,671.634Z" style="fill:rgb(171,195,161);"/>
            </g>
            <g transform="matrix(-2.09426,2.15395,-3.63875,-1.2397,13993.6,-8616.44)">
                <circle cx="4528.27" cy="676.018" r="4.889" style="fill:rgb(209,235,206);"/>
                <path d="M4528.27,671.128C4530.97,671.128 4533.16,673.319 4533.16,676.018C4533.16,678.716 4530.97,680.907 4528.27,680.907C4525.57,680.907 4523.38,678.716 4523.38,676.018C4523.38,673.319 4525.57,671.128 4528.27,671.128ZM4528.27,671.634C4530.69,671.634 4532.65,673.598 4532.65,676.018C4532.65,678.437 4530.69,680.401 4528.27,680.401C4525.85,680.401 4523.88,678.437 4523.88,676.018C4523.88,673.598 4525.85,671.634 4528.27,671.634Z" style="fill:rgb(171,195,161);"/>
            </g>
            <g transform="matrix(-2.09426,2.15395,-3.63875,-1.2397,13809.3,-8723)">
                <circle cx="4528.27" cy="676.018" r="4.889" style="fill:rgb(209,235,206);"/>
                <path d="M4528.27,671.128C4530.97,671.128 4533.16,673.319 4533.16,676.018C4533.16,678.716 4530.97,680.907 4528.27,680.907C4525.57,680.907 4523.38,678.716 4523.38,676.018C4523.38,673.319 4525.57,671.128 4528.27,671.128ZM4528.27,671.634C4530.69,671.634 4532.65,673.598 4532.65,676.018C4532.65,678.437 4530.69,680.401 4528.27,680.401C4525.85,680.401 4523.88,678.437 4523.88,676.018C4523.88,673.598 4525.85,671.634 4528.27,671.634Z" style="fill:rgb(171,195,161);"/>
            </g>
            <g transform="matrix(-2.09426,2.15395,-3.63875,-1.2397,13899.3,-8668.39)">
                <circle cx="4528.27" cy="676.018" r="4.889" style="fill:rgb(209,235,206);"/>
                <path d="M4528.27,671.128C4530.97,671.128 4533.16,673.319 4533.16,676.018C4533.16,678.716 4530.97,680.907 4528.27,680.907C4525.57,680.907 4523.38,678.716 4523.38,676.018C4523.38,673.319 4525.57,671.128 4528.27,671.128ZM4528.27,671.634C4530.69,671.634 4532.65,673.598 4532.65,676.018C4532.65,678.437 4530.69,680.401 4528.27,680.401C4525.85,680.401 4523.88,678.437 4523.88,676.018C4523.88,673.598 4525.85,671.634 4528.27,671.634Z" style="fill:rgb(171,195,161);"/>
            </g>
            <g transform="matrix(-3.82782,1.02086,-1.72458,-2.26588,20455.3,-2947.12)">
                <circle cx="4528.27" cy="676.018" r="4.889" style="fill:rgb(238,212,197);"/>
                <path d="M4528.27,671.128C4530.97,671.128 4533.16,673.319 4533.16,676.018C4533.16,678.716 4530.97,680.907 4528.27,680.907C4525.57,680.907 4523.38,678.716 4523.38,676.018C4523.38,673.319 4525.57,671.128 4528.27,671.128ZM4528.27,671.634C4530.69,671.634 4532.65,673.598 4532.65,676.018C4532.65,678.437 4530.69,680.401 4528.27,680.401C4525.85,680.401 4523.88,678.437 4523.88,676.018C4523.88,673.598 4525.85,671.634 4528.27,671.634L4528.27,671.634Z" style="fill:rgb(201,138,147);"/>
            </g>
            <g transform="matrix(-3.82782,1.02086,-1.72458,-2.26588,20547.2,-2894.75)">
                <circle cx="4528.27" cy="676.018" r="4.889" style="fill:rgb(238,212,197);"/>
                <path d="M4528.27,671.128C4530.97,671.128 4533.16,673.319 4533.16,676.018C4533.16,678.716 4530.97,680.907 4528.27,680.907C4525.57,680.907 4523.38,678.716 4523.38,676.018C4523.38,673.319 4525.57,671.128 4528.27,671.128ZM4528.27,671.634C4530.69,671.634 4532.65,673.598 4532.65,676.018C4532.65,678.437 4530.69,680.401 4528.27,680.401C4525.85,680.401 4523.88,678.437 4523.88,676.018C4523.88,673.598 4525.85,671.634 4528.27,671.634L4528.27,671.634Z" style="fill:rgb(201,138,147);"/>
            </g>
            <g transform="matrix(-3.82782,1.02086,-1.72458,-2.26588,20636.8,-2842.19)">
                <circle cx="4528.27" cy="676.018" r="4.889" style="fill:rgb(231,173,173);"/>
                <path d="M4528.27,671.128C4530.97,671.128 4533.16,673.319 4533.16,676.018C4533.16,678.716 4530.97,680.907 4528.27,680.907C4525.57,680.907 4523.38,678.716 4523.38,676.018C4523.38,673.319 4525.57,671.128 4528.27,671.128ZM4528.27,671.634C4530.69,671.634 4532.65,673.598 4532.65,676.018C4532.65,678.437 4530.69,680.401 4528.27,680.401C4525.85,680.401 4523.88,678.437 4523.88,676.018C4523.88,673.598 4525.85,671.634 4528.27,671.634L4528.27,671.634Z" style="fill:rgb(201,138,138);"/>
            </g>
            <g transform="matrix(-3.82782,1.02086,-1.72458,-2.26588,20639,-2741.71)">
                <circle cx="4528.27" cy="676.018" r="4.889" style="fill:rgb(231,173,173);"/>
                <path d="M4528.27,671.128C4530.97,671.128 4533.16,673.319 4533.16,676.018C4533.16,678.716 4530.97,680.907 4528.27,680.907C4525.57,680.907 4523.38,678.716 4523.38,676.018C4523.38,673.319 4525.57,671.128 4528.27,671.128ZM4528.27,671.634C4530.69,671.634 4532.65,673.598 4532.65,676.018C4532.65,678.437 4530.69,680.401 4528.27,680.401C4525.85,680.401 4523.88,678.437 4523.88,676.018C4523.88,673.598 4525.85,671.634 4528.27,671.634Z" style="fill:rgb(201,138,138);"/>
            </g>
            <g transform="matrix(-3.82782,1.02086,-1.72458,-2.26588,20822.5,-2741.71)">
                <circle cx="4528.27" cy="676.018" r="4.889" style="fill:rgb(220,197,238);"/>
                <path d="M4528.27,671.128C4530.97,671.128 4533.16,673.319 4533.16,676.018C4533.16,678.716 4530.97,680.907 4528.27,680.907C4525.57,680.907 4523.38,678.716 4523.38,676.018C4523.38,673.319 4525.57,671.128 4528.27,671.128ZM4528.27,671.634C4530.69,671.634 4532.65,673.598 4532.65,676.018C4532.65,678.437 4530.69,680.401 4528.27,680.401C4525.85,680.401 4523.88,678.437 4523.88,676.018C4523.88,673.598 4525.85,671.634 4528.27,671.634Z" style="fill:rgb(138,147,201);"/>
            </g>
            <g transform="matrix(-3.82782,1.02086,-1.72458,-2.26588,20730.8,-2792.72)">
                <circle cx="4528.27" cy="676.018" r="4.889" style="fill:rgb(238,212,197);"/>
                <path d="M4528.27,671.128C4530.97,671.128 4533.16,673.319 4533.16,676.018C4533.16,678.716 4530.97,680.907 4528.27,680.907C4525.57,680.907 4523.38,678.716 4523.38,676.018C4523.38,673.319 4525.57,671.128 4528.27,671.128ZM4528.27,671.634C4530.69,671.634 4532.65,673.598 4532.65,676.018C4532.65,678.437 4530.69,680.401 4528.27,680.401C4525.85,680.401 4523.88,678.437 4523.88,676.018C4523.88,673.598 4525.85,671.634 4528.27,671.634L4528.27,671.634Z" style="fill:rgb(201,138,147);"/>
            </g>
        </g>
    </g>
</svg>
