<?xml version="1.0" encoding="UTF-8" standalone="no"?>
<!DOCTYPE svg PUBLIC "-//W3C//DTD SVG 1.1//EN" "http://www.w3.org/Graphics/SVG/1.1/DTD/svg11.dtd">
<svg width="100%" height="100%" viewBox="0 0 130 150" version="1.1" xmlns="http://www.w3.org/2000/svg" xmlns:xlink="http://www.w3.org/1999/xlink" xml:space="preserve" xmlns:serif="http://www.serif.com/" style="fill-rule:evenodd;clip-rule:evenodd;stroke-linecap:round;stroke-linejoin:round;stroke-miterlimit:1.5;">
    <g transform="matrix(1,0,0,1,-2547,-454)">
        <g id="_004_a01" serif:id="004_a01" transform="matrix(1,0,0,1,-0.905014,-0.27909)">
            <rect x="2547.91" y="454.279" width="130" height="150" style="fill:none;"/>
            <g transform="matrix(0.542897,0,0,0.542897,1183.44,216.477)">
                <path d="M2583.81,564.395C2583.59,564.395 2583.38,564.307 2583.22,564.15C2583.07,563.994 2582.98,563.782 2582.98,563.561L2582.98,557.657C2582.98,557.413 2582.88,557.179 2582.71,557.006C2582.53,556.834 2582.3,556.737 2582.06,556.737C2581.66,556.737 2581.19,556.737 2580.79,556.737C2580.55,556.737 2580.32,556.834 2580.14,557.006C2579.97,557.179 2579.87,557.413 2579.87,557.657C2579.87,559.159 2579.87,562.116 2579.87,563.561C2579.87,563.782 2579.78,563.994 2579.63,564.15C2579.47,564.307 2579.26,564.395 2579.04,564.395L2573.14,564.395C2572.89,564.395 2572.66,564.491 2572.49,564.664C2572.31,564.837 2572.22,565.071 2572.22,565.315C2572.22,565.714 2572.22,566.18 2572.22,566.579C2572.22,566.823 2572.31,567.057 2572.49,567.229C2572.66,567.402 2572.89,567.499 2573.14,567.499C2574.64,567.499 2577.6,567.499 2579.04,567.499C2579.26,567.499 2579.47,567.587 2579.63,567.743C2579.78,567.9 2579.87,568.112 2579.87,568.333L2579.87,574.236C2579.87,574.48 2579.97,574.715 2580.14,574.887C2580.32,575.06 2580.55,575.157 2580.79,575.157C2581.19,575.157 2581.66,575.157 2582.06,575.157C2582.3,575.157 2582.53,575.06 2582.71,574.887C2582.88,574.715 2582.98,574.48 2582.98,574.236C2582.98,572.734 2582.98,569.777 2582.98,568.333C2582.98,568.112 2583.07,567.9 2583.22,567.743C2583.38,567.587 2583.59,567.499 2583.81,567.499L2589.72,567.499C2589.96,567.499 2590.19,567.402 2590.37,567.229C2590.54,567.057 2590.64,566.823 2590.64,566.579C2590.64,566.18 2590.64,565.714 2590.64,565.315C2590.64,565.071 2590.54,564.837 2590.37,564.664C2590.19,564.491 2589.96,564.395 2589.72,564.395C2588.21,564.395 2585.26,564.395 2583.81,564.395Z" style="fill:rgb(52,116,185);"/>
            </g>
            <g transform="matrix(0.542897,0,0,0.542897,1171.91,195.135)">
                <path d="M2583.81,564.395C2583.59,564.395 2583.38,564.307 2583.22,564.15C2583.07,563.994 2582.98,563.782 2582.98,563.561L2582.98,557.657C2582.98,557.413 2582.88,557.179 2582.71,557.006C2582.53,556.834 2582.3,556.737 2582.06,556.737C2581.66,556.737 2581.19,556.737 2580.79,556.737C2580.55,556.737 2580.32,556.834 2580.14,557.006C2579.97,557.179 2579.87,557.413 2579.87,557.657C2579.87,559.159 2579.87,562.116 2579.87,563.561C2579.87,563.782 2579.78,563.994 2579.63,564.15C2579.47,564.307 2579.26,564.395 2579.04,564.395L2573.14,564.395C2572.89,564.395 2572.66,564.491 2572.49,564.664C2572.31,564.837 2572.22,565.071 2572.22,565.315C2572.22,565.714 2572.22,566.18 2572.22,566.579C2572.22,566.823 2572.31,567.057 2572.49,567.229C2572.66,567.402 2572.89,567.499 2573.14,567.499C2574.64,567.499 2577.6,567.499 2579.04,567.499C2579.26,567.499 2579.47,567.587 2579.63,567.743C2579.78,567.9 2579.87,568.112 2579.87,568.333L2579.87,574.236C2579.87,574.48 2579.97,574.715 2580.14,574.887C2580.32,575.06 2580.55,575.157 2580.79,575.157C2581.19,575.157 2581.66,575.157 2582.06,575.157C2582.3,575.157 2582.53,575.06 2582.71,574.887C2582.88,574.715 2582.98,574.48 2582.98,574.236C2582.98,572.734 2582.98,569.777 2582.98,568.333C2582.98,568.112 2583.07,567.9 2583.22,567.743C2583.38,567.587 2583.59,567.499 2583.81,567.499C2585.26,567.499 2588.21,567.499 2589.72,567.499C2589.96,567.499 2590.19,567.402 2590.37,567.229C2590.54,567.057 2590.64,566.823 2590.64,566.579C2590.64,566.18 2590.64,565.714 2590.64,565.315C2590.64,565.071 2590.54,564.837 2590.37,564.664C2590.19,564.491 2589.96,564.395 2589.72,564.395C2588.21,564.395 2585.26,564.395 2583.81,564.395Z" style="fill:rgb(52,116,185);"/>
            </g>
            <g transform="matrix(0.542897,0,0,0.542897,1197.63,201.771)">
                <path d="M2583.81,564.395C2583.59,564.395 2583.38,564.307 2583.22,564.15C2583.07,563.994 2582.98,563.782 2582.98,563.561L2582.98,557.657C2582.98,557.413 2582.88,557.179 2582.71,557.006C2582.53,556.834 2582.3,556.737 2582.06,556.737C2581.66,556.737 2581.19,556.737 2580.79,556.737C2580.55,556.737 2580.32,556.834 2580.14,557.006C2579.97,557.179 2579.87,557.413 2579.87,557.657C2579.87,559.159 2579.87,562.116 2579.87,563.561C2579.87,563.782 2579.78,563.994 2579.63,564.15C2579.47,564.307 2579.26,564.395 2579.04,564.395L2573.14,564.395C2572.89,564.395 2572.66,564.491 2572.49,564.664C2572.31,564.837 2572.22,565.071 2572.22,565.315C2572.22,565.714 2572.22,566.18 2572.22,566.579C2572.22,566.823 2572.31,567.057 2572.49,567.229C2572.66,567.402 2572.89,567.499 2573.14,567.499C2574.64,567.499 2577.6,567.499 2579.04,567.499C2579.26,567.499 2579.47,567.587 2579.63,567.743C2579.78,567.9 2579.87,568.112 2579.87,568.333L2579.87,574.236C2579.87,574.48 2579.97,574.715 2580.14,574.887C2580.32,575.06 2580.55,575.157 2580.79,575.157C2581.19,575.157 2581.66,575.157 2582.06,575.157C2582.3,575.157 2582.53,575.06 2582.71,574.887C2582.88,574.715 2582.98,574.48 2582.98,574.236C2582.98,572.734 2582.98,569.777 2582.98,568.333C2582.98,568.112 2583.07,567.9 2583.22,567.743C2583.38,567.587 2583.59,567.499 2583.81,567.499L2589.72,567.499C2589.96,567.499 2590.19,567.402 2590.37,567.229C2590.54,567.057 2590.64,566.823 2590.64,566.579C2590.64,566.18 2590.64,565.714 2590.64,565.315C2590.64,565.071 2590.54,564.837 2590.37,564.664C2590.19,564.491 2589.96,564.395 2589.72,564.395C2588.21,564.395 2585.26,564.395 2583.81,564.395Z" style="fill:rgb(52,116,185);"/>
            </g>
            <g transform="matrix(0.542897,0,0,0.542897,1184.77,191.771)">
                <path d="M2583.81,564.395C2583.59,564.395 2583.38,564.307 2583.22,564.15C2583.07,563.994 2582.98,563.782 2582.98,563.561L2582.98,557.657C2582.98,557.413 2582.88,557.179 2582.71,557.006C2582.53,556.834 2582.3,556.737 2582.06,556.737C2581.66,556.737 2581.19,556.737 2580.79,556.737C2580.55,556.737 2580.32,556.834 2580.14,557.006C2579.97,557.179 2579.87,557.413 2579.87,557.657C2579.87,559.159 2579.87,562.116 2579.87,563.561C2579.87,563.782 2579.78,563.994 2579.63,564.15C2579.47,564.307 2579.26,564.395 2579.04,564.395L2573.14,564.395C2572.89,564.395 2572.66,564.491 2572.49,564.664C2572.31,564.837 2572.22,565.071 2572.22,565.315C2572.22,565.714 2572.22,566.18 2572.22,566.579C2572.22,566.823 2572.31,567.057 2572.49,567.229C2572.66,567.402 2572.89,567.499 2573.14,567.499C2574.64,567.499 2577.6,567.499 2579.04,567.499C2579.26,567.499 2579.47,567.587 2579.63,567.743C2579.78,567.9 2579.87,568.112 2579.87,568.333L2579.87,574.236C2579.87,574.48 2579.97,574.715 2580.14,574.887C2580.32,575.06 2580.55,575.157 2580.79,575.157C2581.19,575.157 2581.66,575.157 2582.06,575.157C2582.3,575.157 2582.53,575.06 2582.71,574.887C2582.88,574.715 2582.98,574.48 2582.98,574.236C2582.98,572.734 2582.98,569.777 2582.98,568.333C2582.98,568.112 2583.07,567.9 2583.22,567.743C2583.38,567.587 2583.59,567.499 2583.81,567.499L2589.72,567.499C2589.96,567.499 2590.19,567.402 2590.37,567.229C2590.54,567.057 2590.64,566.823 2590.64,566.579C2590.64,566.18 2590.64,565.714 2590.64,565.315C2590.64,565.071 2590.54,564.837 2590.37,564.664C2590.19,564.491 2589.96,564.395 2589.72,564.395C2588.21,564.395 2585.26,564.395 2583.81,564.395Z" style="fill:rgb(52,116,185);"/>
            </g>
            <g transform="matrix(0.542897,0,0,0.542897,1210.11,181.771)">
                <path d="M2583.81,564.395C2583.59,564.395 2583.38,564.307 2583.22,564.15C2583.07,563.994 2582.98,563.782 2582.98,563.561L2582.98,557.657C2582.98,557.413 2582.88,557.179 2582.71,557.006C2582.53,556.834 2582.3,556.737 2582.06,556.737C2581.66,556.737 2581.19,556.737 2580.79,556.737C2580.55,556.737 2580.32,556.834 2580.14,557.006C2579.97,557.179 2579.87,557.413 2579.87,557.657C2579.87,559.159 2579.87,562.116 2579.87,563.561C2579.87,563.782 2579.78,563.994 2579.63,564.15C2579.47,564.307 2579.26,564.395 2579.04,564.395L2573.14,564.395C2572.89,564.395 2572.66,564.491 2572.49,564.664C2572.31,564.837 2572.22,565.071 2572.22,565.315C2572.22,565.714 2572.22,566.18 2572.22,566.579C2572.22,566.823 2572.31,567.057 2572.49,567.229C2572.66,567.402 2572.89,567.499 2573.14,567.499C2574.64,567.499 2577.6,567.499 2579.04,567.499C2579.26,567.499 2579.47,567.587 2579.63,567.743C2579.78,567.9 2579.87,568.112 2579.87,568.333L2579.87,574.236C2579.87,574.48 2579.97,574.715 2580.14,574.887C2580.32,575.06 2580.55,575.157 2580.79,575.157C2581.19,575.157 2581.66,575.157 2582.06,575.157C2582.3,575.157 2582.53,575.06 2582.71,574.887C2582.88,574.715 2582.98,574.48 2582.98,574.236C2582.98,572.734 2582.98,569.777 2582.98,568.333C2582.98,568.112 2583.07,567.9 2583.22,567.743C2583.38,567.587 2583.59,567.499 2583.81,567.499L2589.72,567.499C2589.96,567.499 2590.19,567.402 2590.37,567.229C2590.54,567.057 2590.64,566.823 2590.64,566.579C2590.64,566.18 2590.64,565.714 2590.64,565.315C2590.64,565.071 2590.54,564.837 2590.37,564.664C2590.19,564.491 2589.96,564.395 2589.72,564.395C2588.21,564.395 2585.26,564.395 2583.81,564.395Z" style="fill:rgb(52,116,185);"/>
            </g>
            <g transform="matrix(0.542897,0,0,0.542897,1194.77,171.771)">
                <path d="M2583.81,564.395C2583.59,564.395 2583.38,564.307 2583.22,564.15C2583.07,563.994 2582.98,563.782 2582.98,563.561L2582.98,557.657C2582.98,557.413 2582.88,557.179 2582.71,557.006C2582.53,556.834 2582.3,556.737 2582.06,556.737C2581.66,556.737 2581.19,556.737 2580.79,556.737C2580.55,556.737 2580.32,556.834 2580.14,557.006C2579.97,557.179 2579.87,557.413 2579.87,557.657C2579.87,559.159 2579.87,562.116 2579.87,563.561C2579.87,563.782 2579.78,563.994 2579.63,564.15C2579.47,564.307 2579.26,564.395 2579.04,564.395L2573.14,564.395C2572.89,564.395 2572.66,564.491 2572.49,564.664C2572.31,564.837 2572.22,565.071 2572.22,565.315C2572.22,565.714 2572.22,566.18 2572.22,566.579C2572.22,566.823 2572.31,567.057 2572.49,567.229C2572.66,567.402 2572.89,567.499 2573.14,567.499C2574.64,567.499 2577.6,567.499 2579.04,567.499C2579.26,567.499 2579.47,567.587 2579.63,567.743C2579.78,567.9 2579.87,568.112 2579.87,568.333L2579.87,574.236C2579.87,574.48 2579.97,574.715 2580.14,574.887C2580.32,575.06 2580.55,575.157 2580.79,575.157C2581.19,575.157 2581.66,575.157 2582.06,575.157C2582.3,575.157 2582.53,575.06 2582.71,574.887C2582.88,574.715 2582.98,574.48 2582.98,574.236C2582.98,572.734 2582.98,569.777 2582.98,568.333C2582.98,568.112 2583.07,567.9 2583.22,567.743C2583.38,567.587 2583.59,567.499 2583.81,567.499L2589.72,567.499C2589.96,567.499 2590.19,567.402 2590.37,567.229C2590.54,567.057 2590.64,566.823 2590.64,566.579C2590.64,566.18 2590.64,565.714 2590.64,565.315C2590.64,565.071 2590.54,564.837 2590.37,564.664C2590.19,564.491 2589.96,564.395 2589.72,564.395C2588.21,564.395 2585.26,564.395 2583.81,564.395Z" style="fill:rgb(52,116,185);"/>
            </g>
            <g transform="matrix(0.542897,0,0,0.542897,1170.05,178.863)">
                <path d="M2583.81,564.395C2583.59,564.395 2583.38,564.307 2583.22,564.15C2583.07,563.994 2582.98,563.782 2582.98,563.561L2582.98,557.657C2582.98,557.413 2582.88,557.179 2582.71,557.006C2582.53,556.834 2582.3,556.737 2582.06,556.737C2581.66,556.737 2581.19,556.737 2580.79,556.737C2580.55,556.737 2580.32,556.834 2580.14,557.006C2579.97,557.179 2579.87,557.413 2579.87,557.657C2579.87,559.159 2579.87,562.116 2579.87,563.561C2579.87,563.782 2579.78,563.994 2579.63,564.15C2579.47,564.307 2579.26,564.395 2579.04,564.395L2573.14,564.395C2572.89,564.395 2572.66,564.491 2572.49,564.664C2572.31,564.837 2572.22,565.071 2572.22,565.315C2572.22,565.714 2572.22,566.18 2572.22,566.579C2572.22,566.823 2572.31,567.057 2572.49,567.229C2572.66,567.402 2572.89,567.499 2573.14,567.499C2574.64,567.499 2577.6,567.499 2579.04,567.499C2579.26,567.499 2579.47,567.587 2579.63,567.743C2579.78,567.9 2579.87,568.112 2579.87,568.333L2579.87,574.236C2579.87,574.48 2579.97,574.715 2580.14,574.887C2580.32,575.06 2580.55,575.157 2580.79,575.157C2581.19,575.157 2581.66,575.157 2582.06,575.157C2582.3,575.157 2582.53,575.06 2582.71,574.887C2582.88,574.715 2582.98,574.48 2582.98,574.236C2582.98,572.734 2582.98,569.777 2582.98,568.333C2582.98,568.112 2583.07,567.9 2583.22,567.743C2583.38,567.587 2583.59,567.499 2583.81,567.499L2589.72,567.499C2589.96,567.499 2590.19,567.402 2590.37,567.229C2590.54,567.057 2590.64,566.823 2590.64,566.579C2590.64,566.18 2590.64,565.714 2590.64,565.315C2590.64,565.071 2590.54,564.837 2590.37,564.664C2590.19,564.491 2589.96,564.395 2589.72,564.395C2588.21,564.395 2585.26,564.395 2583.81,564.395Z" style="fill:rgb(52,116,185);"/>
            </g>
            <g transform="matrix(0.542897,0,0,0.542897,1163.42,217.028)">
                <path d="M2583.81,564.395C2583.59,564.395 2583.38,564.307 2583.22,564.15C2583.07,563.994 2582.98,563.782 2582.98,563.561L2582.98,557.657C2582.98,557.413 2582.88,557.179 2582.71,557.006C2582.53,556.834 2582.3,556.737 2582.06,556.737C2581.66,556.737 2581.19,556.737 2580.79,556.737C2580.55,556.737 2580.32,556.834 2580.14,557.006C2579.97,557.179 2579.87,557.413 2579.87,557.657C2579.87,559.159 2579.87,562.116 2579.87,563.561C2579.87,563.782 2579.78,563.994 2579.63,564.15C2579.47,564.307 2579.26,564.395 2579.04,564.395L2573.14,564.395C2572.89,564.395 2572.66,564.491 2572.49,564.664C2572.31,564.837 2572.22,565.071 2572.22,565.315C2572.22,565.714 2572.22,566.18 2572.22,566.579C2572.22,566.823 2572.31,567.057 2572.49,567.229C2572.66,567.402 2572.89,567.499 2573.14,567.499C2574.64,567.499 2577.6,567.499 2579.04,567.499C2579.26,567.499 2579.47,567.587 2579.63,567.743C2579.78,567.9 2579.87,568.112 2579.87,568.333L2579.87,574.236C2579.87,574.48 2579.97,574.715 2580.14,574.887C2580.32,575.06 2580.55,575.157 2580.79,575.157C2581.19,575.157 2581.66,575.157 2582.06,575.157C2582.3,575.157 2582.53,575.06 2582.71,574.887C2582.88,574.715 2582.98,574.48 2582.98,574.236C2582.98,572.734 2582.98,569.777 2582.98,568.333C2582.98,568.112 2583.07,567.9 2583.22,567.743C2583.38,567.587 2583.59,567.499 2583.81,567.499L2589.72,567.499C2589.96,567.499 2590.19,567.402 2590.37,567.229C2590.54,567.057 2590.64,566.823 2590.64,566.579C2590.64,566.18 2590.64,565.714 2590.64,565.315C2590.64,565.071 2590.54,564.837 2590.37,564.664C2590.19,564.491 2589.96,564.395 2589.72,564.395C2588.21,564.395 2585.26,564.395 2583.81,564.395Z" style="fill:rgb(52,116,185);"/>
            </g>
            <g transform="matrix(0.542897,0,0,0.542897,1224.73,166.771)">
                <path d="M2583.81,564.395C2583.59,564.395 2583.38,564.307 2583.22,564.15C2583.07,563.994 2582.98,563.782 2582.98,563.561L2582.98,557.657C2582.98,557.413 2582.88,557.179 2582.71,557.006C2582.53,556.834 2582.3,556.737 2582.06,556.737C2581.66,556.737 2581.19,556.737 2580.79,556.737C2580.55,556.737 2580.32,556.834 2580.14,557.006C2579.97,557.179 2579.87,557.413 2579.87,557.657C2579.87,559.159 2579.87,562.116 2579.87,563.561C2579.87,563.782 2579.78,563.994 2579.63,564.15C2579.47,564.307 2579.26,564.395 2579.04,564.395L2573.14,564.395C2572.89,564.395 2572.66,564.491 2572.49,564.664C2572.31,564.837 2572.22,565.071 2572.22,565.315C2572.22,565.714 2572.22,566.18 2572.22,566.579C2572.22,566.823 2572.31,567.057 2572.49,567.229C2572.66,567.402 2572.89,567.499 2573.14,567.499C2574.64,567.499 2577.6,567.499 2579.04,567.499C2579.26,567.499 2579.47,567.587 2579.63,567.743C2579.78,567.9 2579.87,568.112 2579.87,568.333L2579.87,574.236C2579.87,574.48 2579.97,574.715 2580.14,574.887C2580.32,575.06 2580.55,575.157 2580.79,575.157C2581.19,575.157 2581.66,575.157 2582.06,575.157C2582.3,575.157 2582.53,575.06 2582.71,574.887C2582.88,574.715 2582.98,574.48 2582.98,574.236C2582.98,572.734 2582.98,569.777 2582.98,568.333C2582.98,568.112 2583.07,567.9 2583.22,567.743C2583.38,567.587 2583.59,567.499 2583.81,567.499L2589.72,567.499C2589.96,567.499 2590.19,567.402 2590.37,567.229C2590.54,567.057 2590.64,566.823 2590.64,566.579C2590.64,566.18 2590.64,565.714 2590.64,565.315C2590.64,565.071 2590.54,564.837 2590.37,564.664C2590.19,564.491 2589.96,564.395 2589.72,564.395C2588.21,564.395 2585.26,564.395 2583.81,564.395Z" style="fill:rgb(52,116,185);"/>
            </g>
            <g transform="matrix(0.542897,0,0,0.542897,1181.05,205.115)">
                <path d="M2583.81,564.395C2583.59,564.395 2583.38,564.307 2583.22,564.15C2583.07,563.994 2582.98,563.782 2582.98,563.561L2582.98,557.657C2582.98,557.413 2582.88,557.179 2582.71,557.006C2582.53,556.834 2582.3,556.737 2582.06,556.737C2581.66,556.737 2581.19,556.737 2580.79,556.737C2580.55,556.737 2580.32,556.834 2580.14,557.006C2579.97,557.179 2579.87,557.413 2579.87,557.657C2579.87,559.159 2579.87,562.116 2579.87,563.561C2579.87,563.782 2579.78,563.994 2579.63,564.15C2579.47,564.307 2579.26,564.395 2579.04,564.395L2573.14,564.395C2572.89,564.395 2572.66,564.491 2572.49,564.664C2572.31,564.837 2572.22,565.071 2572.22,565.315C2572.22,565.714 2572.22,566.18 2572.22,566.579C2572.22,566.823 2572.31,567.057 2572.49,567.229C2572.66,567.402 2572.89,567.499 2573.14,567.499C2574.64,567.499 2577.6,567.499 2579.04,567.499C2579.26,567.499 2579.47,567.587 2579.63,567.743C2579.78,567.9 2579.87,568.112 2579.87,568.333L2579.87,574.236C2579.87,574.48 2579.97,574.715 2580.14,574.887C2580.32,575.06 2580.55,575.157 2580.79,575.157C2581.19,575.157 2581.66,575.157 2582.06,575.157C2582.3,575.157 2582.53,575.06 2582.71,574.887C2582.88,574.715 2582.98,574.48 2582.98,574.236C2582.98,572.734 2582.98,569.777 2582.98,568.333C2582.98,568.112 2583.07,567.9 2583.22,567.743C2583.38,567.587 2583.59,567.499 2583.81,567.499L2589.72,567.499C2589.96,567.499 2590.19,567.402 2590.37,567.229C2590.54,567.057 2590.64,566.823 2590.64,566.579C2590.64,566.18 2590.64,565.714 2590.64,565.315C2590.64,565.071 2590.54,564.837 2590.37,564.664C2590.19,564.491 2589.96,564.395 2589.72,564.395C2588.21,564.395 2585.26,564.395 2583.81,564.395Z" style="fill:rgb(52,116,185);"/>
            </g>
            <g transform="matrix(0.542897,0,0,0.542897,1175.05,233.772)">
                <path d="M2583.81,564.395C2583.59,564.395 2583.38,564.307 2583.22,564.15C2583.07,563.994 2582.98,563.782 2582.98,563.561L2582.98,557.657C2582.98,557.413 2582.88,557.179 2582.71,557.006C2582.53,556.834 2582.3,556.737 2582.06,556.737C2581.66,556.737 2581.19,556.737 2580.79,556.737C2580.55,556.737 2580.32,556.834 2580.14,557.006C2579.97,557.179 2579.87,557.413 2579.87,557.657C2579.87,559.159 2579.87,562.116 2579.87,563.561C2579.87,563.782 2579.78,563.994 2579.63,564.15C2579.47,564.307 2579.26,564.395 2579.04,564.395L2573.14,564.395C2572.89,564.395 2572.66,564.491 2572.49,564.664C2572.31,564.837 2572.22,565.071 2572.22,565.315C2572.22,565.714 2572.22,566.18 2572.22,566.579C2572.22,566.823 2572.31,567.057 2572.49,567.229C2572.66,567.402 2572.89,567.499 2573.14,567.499C2574.64,567.499 2577.6,567.499 2579.04,567.499C2579.26,567.499 2579.47,567.587 2579.63,567.743C2579.78,567.9 2579.87,568.112 2579.87,568.333L2579.87,574.236C2579.87,574.48 2579.97,574.715 2580.14,574.887C2580.32,575.06 2580.55,575.157 2580.79,575.157C2581.19,575.157 2581.66,575.157 2582.06,575.157C2582.3,575.157 2582.53,575.06 2582.71,574.887C2582.88,574.715 2582.98,574.48 2582.98,574.236C2582.98,572.734 2582.98,569.777 2582.98,568.333C2582.98,568.112 2583.07,567.9 2583.22,567.743C2583.38,567.587 2583.59,567.499 2583.81,567.499L2589.72,567.499C2589.96,567.499 2590.19,567.402 2590.37,567.229C2590.54,567.057 2590.64,566.823 2590.64,566.579C2590.64,566.18 2590.64,565.714 2590.64,565.315C2590.64,565.071 2590.54,564.837 2590.37,564.664C2590.19,564.491 2589.96,564.395 2589.72,564.395C2588.21,564.395 2585.26,564.395 2583.81,564.395Z" style="fill:rgb(52,116,185);"/>
            </g>
            <g transform="matrix(0.542897,0,0,0.542897,1207.22,250.944)">
                <path d="M2590.64,565.315C2590.64,565.071 2590.54,564.837 2590.37,564.664C2590.19,564.491 2589.96,564.395 2589.72,564.395C2586.57,564.395 2576.28,564.395 2573.14,564.395C2572.89,564.395 2572.66,564.491 2572.49,564.664C2572.31,564.837 2572.22,565.071 2572.22,565.315C2572.22,565.714 2572.22,566.18 2572.22,566.579C2572.22,566.823 2572.31,567.057 2572.49,567.229C2572.66,567.402 2572.89,567.499 2573.14,567.499C2576.28,567.499 2586.57,567.499 2589.72,567.499C2589.96,567.499 2590.19,567.402 2590.37,567.229C2590.54,567.057 2590.64,566.823 2590.64,566.579C2590.64,566.18 2590.64,565.714 2590.64,565.315Z" style="fill:rgb(52,116,185);"/>
            </g>
            <g transform="matrix(0.542897,0,0,0.542897,1224.73,273.132)">
                <path d="M2590.64,565.315C2590.64,565.071 2590.54,564.837 2590.37,564.664C2590.19,564.491 2589.96,564.395 2589.72,564.395C2586.57,564.395 2576.28,564.395 2573.14,564.395C2572.89,564.395 2572.66,564.491 2572.49,564.664C2572.31,564.837 2572.22,565.071 2572.22,565.315C2572.22,565.714 2572.22,566.18 2572.22,566.579C2572.22,566.823 2572.31,567.057 2572.49,567.229C2572.66,567.402 2572.89,567.499 2573.14,567.499C2576.28,567.499 2586.57,567.499 2589.72,567.499C2589.96,567.499 2590.19,567.402 2590.37,567.229C2590.54,567.057 2590.64,566.823 2590.64,566.579C2590.64,566.18 2590.64,565.714 2590.64,565.315Z" style="fill:rgb(52,116,185);"/>
            </g>
            <g transform="matrix(0.542897,0,0,0.542897,1209.87,265.613)">
                <path d="M2590.64,565.315C2590.64,565.071 2590.54,564.837 2590.37,564.664C2590.19,564.491 2589.96,564.395 2589.72,564.395C2586.57,564.395 2576.28,564.395 2573.14,564.395C2572.89,564.395 2572.66,564.491 2572.49,564.664C2572.31,564.837 2572.22,565.071 2572.22,565.315C2572.22,565.714 2572.22,566.18 2572.22,566.579C2572.22,566.823 2572.31,567.057 2572.49,567.229C2572.66,567.402 2572.89,567.499 2573.14,567.499C2576.28,567.499 2586.57,567.499 2589.72,567.499C2589.96,567.499 2590.19,567.402 2590.37,567.229C2590.54,567.057 2590.64,566.823 2590.64,566.579C2590.64,566.18 2590.64,565.714 2590.64,565.315Z" style="fill:rgb(52,116,185);"/>
            </g>
            <g transform="matrix(0.542897,0,0,0.542897,1227.51,222.028)">
                <path d="M2590.64,565.315C2590.64,565.071 2590.54,564.837 2590.37,564.664C2590.19,564.491 2589.96,564.395 2589.72,564.395C2586.57,564.395 2576.28,564.395 2573.14,564.395C2572.89,564.395 2572.66,564.491 2572.49,564.664C2572.31,564.837 2572.22,565.071 2572.22,565.315C2572.22,565.714 2572.22,566.18 2572.22,566.579C2572.22,566.823 2572.31,567.057 2572.49,567.229C2572.66,567.402 2572.89,567.499 2573.14,567.499C2576.28,567.499 2586.57,567.499 2589.72,567.499C2589.96,567.499 2590.19,567.402 2590.37,567.229C2590.54,567.057 2590.64,566.823 2590.64,566.579C2590.64,566.18 2590.64,565.714 2590.64,565.315Z" style="fill:rgb(52,116,185);"/>
            </g>
            <g transform="matrix(0.542897,0,0,0.542897,1229.73,234.614)">
                <path d="M2590.64,565.315C2590.64,565.071 2590.54,564.837 2590.37,564.664C2590.19,564.491 2589.96,564.395 2589.72,564.395C2586.57,564.395 2576.28,564.395 2573.14,564.395C2572.89,564.395 2572.66,564.491 2572.49,564.664C2572.31,564.837 2572.22,565.071 2572.22,565.315C2572.22,565.714 2572.22,566.18 2572.22,566.579C2572.22,566.823 2572.31,567.057 2572.49,567.229C2572.66,567.402 2572.89,567.499 2573.14,567.499C2576.28,567.499 2586.57,567.499 2589.72,567.499C2589.96,567.499 2590.19,567.402 2590.37,567.229C2590.54,567.057 2590.64,566.823 2590.64,566.579C2590.64,566.18 2590.64,565.714 2590.64,565.315Z" style="fill:rgb(52,116,185);"/>
            </g>
            <g transform="matrix(0.542897,0,0,0.542897,1247.4,247.287)">
                <path d="M2590.64,565.315C2590.64,565.071 2590.54,564.837 2590.37,564.664C2590.19,564.491 2589.96,564.395 2589.72,564.395C2586.57,564.395 2576.28,564.395 2573.14,564.395C2572.89,564.395 2572.66,564.491 2572.49,564.664C2572.31,564.837 2572.22,565.071 2572.22,565.315C2572.22,565.714 2572.22,566.18 2572.22,566.579C2572.22,566.823 2572.31,567.057 2572.49,567.229C2572.66,567.402 2572.89,567.499 2573.14,567.499C2576.28,567.499 2586.57,567.499 2589.72,567.499C2589.96,567.499 2590.19,567.402 2590.37,567.229C2590.54,567.057 2590.64,566.823 2590.64,566.579C2590.64,566.18 2590.64,565.714 2590.64,565.315Z" style="fill:rgb(52,116,185);"/>
            </g>
            <g transform="matrix(0.542897,0,0,0.542897,1226.3,261.411)">
                <path d="M2590.64,565.315C2590.64,565.071 2590.54,564.837 2590.37,564.664C2590.19,564.491 2589.96,564.395 2589.72,564.395C2586.57,564.395 2576.28,564.395 2573.14,564.395C2572.89,564.395 2572.66,564.491 2572.49,564.664C2572.31,564.837 2572.22,565.071 2572.22,565.315C2572.22,565.714 2572.22,566.18 2572.22,566.579C2572.22,566.823 2572.31,567.057 2572.49,567.229C2572.66,567.402 2572.89,567.499 2573.14,567.499C2576.28,567.499 2586.57,567.499 2589.72,567.499C2589.96,567.499 2590.19,567.402 2590.37,567.229C2590.54,567.057 2590.64,566.823 2590.64,566.579C2590.64,566.18 2590.64,565.714 2590.64,565.315Z" style="fill:rgb(52,116,185);"/>
            </g>
            <g transform="matrix(0.542897,0,0,0.542897,1244.39,214.845)">
                <path d="M2590.64,565.315C2590.64,565.071 2590.54,564.837 2590.37,564.664C2590.19,564.491 2589.96,564.395 2589.72,564.395C2586.57,564.395 2576.28,564.395 2573.14,564.395C2572.89,564.395 2572.66,564.491 2572.49,564.664C2572.31,564.837 2572.22,565.071 2572.22,565.315C2572.22,565.714 2572.22,566.18 2572.22,566.579C2572.22,566.823 2572.31,567.057 2572.49,567.229C2572.66,567.402 2572.89,567.499 2573.14,567.499C2576.28,567.499 2586.57,567.499 2589.72,567.499C2589.96,567.499 2590.19,567.402 2590.37,567.229C2590.54,567.057 2590.64,566.823 2590.64,566.579C2590.64,566.18 2590.64,565.714 2590.64,565.315Z" style="fill:rgb(52,116,185);"/>
            </g>
            <g transform="matrix(0.542897,0,0,0.542897,1239.73,199.273)">
                <path d="M2590.64,565.315C2590.64,565.071 2590.54,564.837 2590.37,564.664C2590.19,564.491 2589.96,564.395 2589.72,564.395C2586.57,564.395 2576.28,564.395 2573.14,564.395C2572.89,564.395 2572.66,564.491 2572.49,564.664C2572.31,564.837 2572.22,565.071 2572.22,565.315C2572.22,565.714 2572.22,566.18 2572.22,566.579C2572.22,566.823 2572.31,567.057 2572.49,567.229C2572.66,567.402 2572.89,567.499 2573.14,567.499C2576.28,567.499 2586.57,567.499 2589.72,567.499C2589.96,567.499 2590.19,567.402 2590.37,567.229C2590.54,567.057 2590.64,566.823 2590.64,566.579C2590.64,566.18 2590.64,565.714 2590.64,565.315Z" style="fill:rgb(52,116,185);"/>
            </g>
            <g transform="matrix(0.542897,0,0,0.542897,1255.97,197.611)">
                <path d="M2590.64,565.315C2590.64,565.071 2590.54,564.837 2590.37,564.664C2590.19,564.491 2589.96,564.395 2589.72,564.395C2586.57,564.395 2576.28,564.395 2573.14,564.395C2572.89,564.395 2572.66,564.491 2572.49,564.664C2572.31,564.837 2572.22,565.071 2572.22,565.315C2572.22,565.714 2572.22,566.18 2572.22,566.579C2572.22,566.823 2572.31,567.057 2572.49,567.229C2572.66,567.402 2572.89,567.499 2573.14,567.499C2576.28,567.499 2586.57,567.499 2589.72,567.499C2589.96,567.499 2590.19,567.402 2590.37,567.229C2590.54,567.057 2590.64,566.823 2590.64,566.579C2590.64,566.18 2590.64,565.714 2590.64,565.315Z" style="fill:rgb(52,116,185);"/>
            </g>
            <g transform="matrix(0.542897,0,0,0.542897,1264.39,214.845)">
                <path d="M2590.64,565.315C2590.64,565.071 2590.54,564.837 2590.37,564.664C2590.19,564.491 2589.96,564.395 2589.72,564.395C2586.57,564.395 2576.28,564.395 2573.14,564.395C2572.89,564.395 2572.66,564.491 2572.49,564.664C2572.31,564.837 2572.22,565.071 2572.22,565.315C2572.22,565.714 2572.22,566.18 2572.22,566.579C2572.22,566.823 2572.31,567.057 2572.49,567.229C2572.66,567.402 2572.89,567.499 2573.14,567.499C2576.28,567.499 2586.57,567.499 2589.72,567.499C2589.96,567.499 2590.19,567.402 2590.37,567.229C2590.54,567.057 2590.64,566.823 2590.64,566.579C2590.64,566.18 2590.64,565.714 2590.64,565.315Z" style="fill:rgb(52,116,185);"/>
            </g>
            <g transform="matrix(0.542897,0,0,0.542897,1247.4,229.003)">
                <path d="M2590.64,565.315C2590.64,565.071 2590.54,564.837 2590.37,564.664C2590.19,564.491 2589.96,564.395 2589.72,564.395C2586.57,564.395 2576.28,564.395 2573.14,564.395C2572.89,564.395 2572.66,564.491 2572.49,564.664C2572.31,564.837 2572.22,565.071 2572.22,565.315C2572.22,565.714 2572.22,566.18 2572.22,566.579C2572.22,566.823 2572.31,567.057 2572.49,567.229C2572.66,567.402 2572.89,567.499 2573.14,567.499C2576.28,567.499 2586.57,567.499 2589.72,567.499C2589.96,567.499 2590.19,567.402 2590.37,567.229C2590.54,567.057 2590.64,566.823 2590.64,566.579C2590.64,566.18 2590.64,565.714 2590.64,565.315Z" style="fill:rgb(52,116,185);"/>
            </g>
            <g transform="matrix(0.684839,0,0,0.684839,824.105,166.999)">
                <path d="M2547,604L2677,454" style="fill:none;stroke:rgb(31,69,109);stroke-width:2.92px;"/>
            </g>
        </g>
    </g>
</svg>
