<?xml version="1.0" encoding="UTF-8" standalone="no"?>
<!DOCTYPE svg PUBLIC "-//W3C//DTD SVG 1.1//EN" "http://www.w3.org/Graphics/SVG/1.1/DTD/svg11.dtd">
<svg width="100%" height="100%" viewBox="0 0 130 150" version="1.1" xmlns="http://www.w3.org/2000/svg" xmlns:xlink="http://www.w3.org/1999/xlink" xml:space="preserve" xmlns:serif="http://www.serif.com/" style="fill-rule:evenodd;clip-rule:evenodd;stroke-linecap:round;stroke-miterlimit:10;">
    <g transform="matrix(1,0,0,1,-2997,-454)">
        <g id="_004_a04" serif:id="004_a04" transform="matrix(1,0,0,1,449.095,-0.27909)">
            <rect x="2547.91" y="454.279" width="130" height="150" style="fill:none;"/>
            <g transform="matrix(0.702986,0,0,0.702986,669.656,171.186)">
                <circle cx="2720.33" cy="547.701" r="2.845" style="fill:rgb(52,116,185);"/>
            </g>
            <g transform="matrix(0.702986,0,0,0.702986,686.578,161.19)">
                <circle cx="2720.33" cy="547.701" r="2.845" style="fill:rgb(52,116,185);"/>
            </g>
            <g transform="matrix(0.702986,0,0,0.702986,676.786,170.428)">
                <circle cx="2720.33" cy="547.701" r="2.845" style="fill:rgb(52,116,185);"/>
            </g>
            <g transform="matrix(0.702986,0,0,0.702986,668.504,179.386)">
                <circle cx="2720.33" cy="547.701" r="2.845" style="fill:rgb(52,116,185);"/>
            </g>
            <g transform="matrix(0.702986,0,0,0.702986,672.786,166.428)">
                <circle cx="2720.33" cy="547.701" r="2.845" style="fill:rgb(52,116,185);"/>
            </g>
            <g transform="matrix(0.702986,0,0,0.702986,681.682,164.428)">
                <circle cx="2720.33" cy="547.701" r="2.845" style="fill:rgb(52,116,185);"/>
            </g>
            <g transform="matrix(0.702986,0,0,0.702986,680.786,146.253)">
                <circle cx="2720.33" cy="547.701" r="2.845" style="fill:rgb(52,116,185);"/>
            </g>
            <g transform="matrix(0.702986,0,0,0.702986,694.578,174.247)">
                <circle cx="2720.33" cy="547.701" r="2.845" style="fill:rgb(52,116,185);"/>
            </g>
            <g transform="matrix(0.702986,0,0,0.702986,729.939,130.059)">
                <circle cx="2720.33" cy="547.701" r="2.845" style="fill:rgb(52,116,185);"/>
            </g>
            <g transform="matrix(0.702986,0,0,0.702986,678.786,177.386)">
                <circle cx="2720.33" cy="547.701" r="2.845" style="fill:rgb(52,116,185);"/>
            </g>
            <g transform="matrix(0.702986,0,0,0.702986,690.578,166.428)">
                <circle cx="2720.33" cy="547.701" r="2.845" style="fill:rgb(52,116,185);"/>
            </g>
            <g transform="matrix(0.702986,0,0,0.702986,684.699,171.186)">
                <circle cx="2720.33" cy="547.701" r="2.845" style="fill:rgb(52,116,185);"/>
            </g>
            <g transform="matrix(0.702986,0,0,0.702986,676.391,162.011)">
                <circle cx="2720.33" cy="547.701" r="2.845" style="fill:rgb(52,116,185);"/>
            </g>
            <g transform="matrix(0.702986,0,0,0.702986,693.551,162.011)">
                <circle cx="2720.33" cy="547.701" r="2.845" style="fill:rgb(52,116,185);"/>
            </g>
            <g transform="matrix(0.702986,0,0,0.702986,708.03,152.892)">
                <circle cx="2720.33" cy="547.701" r="2.845" style="fill:rgb(52,116,185);"/>
            </g>
            <g transform="matrix(0.702986,0,0,0.702986,716.148,134.253)">
                <circle cx="2720.33" cy="547.701" r="2.845" style="fill:rgb(52,116,185);"/>
            </g>
            <g transform="matrix(0.702986,0,0,0.702986,729.939,115.203)">
                <circle cx="2720.33" cy="547.701" r="2.845" style="fill:rgb(52,116,185);"/>
            </g>
            <g transform="matrix(0.702986,0,0,0.702986,723.248,111.203)">
                <circle cx="2720.33" cy="547.701" r="2.845" style="fill:rgb(52,116,185);"/>
            </g>
            <g transform="matrix(0.702986,0,0,0.702986,723.248,117.203)">
                <circle cx="2720.33" cy="547.701" r="2.845" style="fill:rgb(52,116,185);"/>
            </g>
            <g transform="matrix(0.702986,0,0,0.702986,731.939,105.594)">
                <circle cx="2720.33" cy="547.701" r="2.845" style="fill:rgb(52,116,185);"/>
            </g>
            <g transform="matrix(0.702986,0,0,0.702986,733.939,110.398)">
                <circle cx="2720.33" cy="547.701" r="2.845" style="fill:rgb(52,116,185);"/>
            </g>
            <g transform="matrix(0.702986,0,0,0.702986,719.248,115.203)">
                <circle cx="2720.33" cy="547.701" r="2.845" style="fill:rgb(52,116,185);"/>
            </g>
            <g transform="matrix(0.702986,0,0,0.702986,719.248,123.203)">
                <circle cx="2720.33" cy="547.701" r="2.845" style="fill:rgb(52,116,185);"/>
            </g>
            <g transform="matrix(0.702986,0,0,0.702986,727.248,123.203)">
                <circle cx="2720.33" cy="547.701" r="2.845" style="fill:rgb(52,116,185);"/>
            </g>
            <g transform="matrix(0.702986,0,0,0.702986,723.248,129.297)">
                <circle cx="2720.33" cy="547.701" r="2.845" style="fill:rgb(52,116,185);"/>
            </g>
            <g transform="matrix(0.702986,0,0,0.702986,715.248,129.297)">
                <circle cx="2720.33" cy="547.701" r="2.845" style="fill:rgb(52,116,185);"/>
            </g>
            <g transform="matrix(0.702986,0,0,0.702986,707.248,129.297)">
                <circle cx="2720.33" cy="547.701" r="2.845" style="fill:rgb(52,116,185);"/>
            </g>
            <g transform="matrix(0.702986,0,0,0.702986,684.699,153.598)">
                <circle cx="2720.33" cy="547.701" r="2.845" style="fill:rgb(52,116,185);"/>
            </g>
            <g transform="matrix(0.702986,0,0,0.702986,698.55,153.598)">
                <circle cx="2720.33" cy="547.701" r="2.845" style="fill:rgb(52,116,185);"/>
            </g>
            <g transform="matrix(0.702986,0,0,0.702986,691.551,144.253)">
                <circle cx="2720.33" cy="547.701" r="2.845" style="fill:rgb(52,116,185);"/>
            </g>
            <g transform="matrix(0.702986,0,0,0.702986,693.691,153.058)">
                <circle cx="2720.33" cy="547.701" r="2.845" style="fill:rgb(52,116,185);"/>
            </g>
            <g transform="matrix(0.702986,0,0,0.702986,702.55,146.253)">
                <circle cx="2720.33" cy="547.701" r="2.845" style="fill:rgb(52,116,185);"/>
            </g>
            <g transform="matrix(0.702986,0,0,0.702986,697.691,144.253)">
                <circle cx="2720.33" cy="547.701" r="2.845" style="fill:rgb(52,116,185);"/>
            </g>
            <g transform="matrix(0.702986,0,0,0.702986,697.691,132.375)">
                <circle cx="2720.33" cy="547.701" r="2.845" style="fill:rgb(52,116,185);"/>
            </g>
            <g transform="matrix(0.702986,0,0,0.702986,704.55,134.375)">
                <circle cx="2720.33" cy="547.701" r="2.845" style="fill:rgb(52,116,185);"/>
            </g>
            <g transform="matrix(0.702986,0,0,0.702986,707.41,142.253)">
                <circle cx="2720.33" cy="547.701" r="2.845" style="fill:rgb(52,116,185);"/>
            </g>
            <g transform="matrix(0.702986,0,0,0.702986,688.699,149.598)">
                <circle cx="2720.33" cy="547.701" r="2.845" style="fill:rgb(52,116,185);"/>
            </g>
            <g transform="matrix(0.702986,0,0,0.702986,700.55,136.011)">
                <circle cx="2720.33" cy="547.701" r="2.845" style="fill:rgb(52,116,185);"/>
            </g>
            <g transform="matrix(0.702986,0,0,0.702986,710.03,136.253)">
                <circle cx="2720.33" cy="547.701" r="2.845" style="fill:rgb(52,116,185);"/>
            </g>
            <g transform="matrix(0.702986,0,0,0.702986,716.148,142.253)">
                <circle cx="2720.33" cy="547.701" r="2.845" style="fill:rgb(52,116,185);"/>
            </g>
            <g transform="matrix(0.702986,0,0,0.702986,708.03,157.532)">
                <circle cx="2720.33" cy="547.701" r="2.845" style="fill:rgb(52,116,185);"/>
            </g>
            <g transform="matrix(0.702986,0,0,0.702986,700.55,168.428)">
                <circle cx="2720.33" cy="547.701" r="2.845" style="fill:rgb(52,116,185);"/>
            </g>
            <g transform="matrix(0.702986,0,0,0.702986,723.504,137.373)">
                <circle cx="2720.33" cy="547.701" r="2.845" style="fill:rgb(52,116,185);"/>
            </g>
            <g transform="matrix(0.702986,0,0,0.702986,716.541,160.428)">
                <circle cx="2720.33" cy="547.701" r="2.845" style="fill:rgb(52,116,185);"/>
            </g>
            <g transform="matrix(0.702986,0,0,0.702986,702.55,116.497)">
                <circle cx="2720.33" cy="547.701" r="2.845" style="fill:rgb(52,116,185);"/>
            </g>
            <g transform="matrix(0.702986,0,0,0.702986,683.749,130.059)">
                <circle cx="2720.33" cy="547.701" r="2.845" style="fill:rgb(52,116,185);"/>
            </g>
            <g transform="matrix(0.702986,0,0,0.702986,693.37,126.059)">
                <circle cx="2720.33" cy="547.701" r="2.845" style="fill:rgb(52,116,185);"/>
            </g>
            <g transform="matrix(0.702986,0,0,0.702986,710.345,118.497)">
                <circle cx="2720.33" cy="547.701" r="2.845" style="fill:rgb(52,116,185);"/>
            </g>
            <g transform="matrix(0.702986,0,0,0.702986,700.55,157.532)">
                <circle cx="2720.33" cy="547.701" r="2.845" style="fill:rgb(52,116,185);"/>
            </g>
            <g transform="matrix(0.702986,0,0,0.702986,710.03,148.253)">
                <circle cx="2720.33" cy="547.701" r="2.845" style="fill:rgb(52,116,185);"/>
            </g>
            <g transform="matrix(0.702986,0,0,0.702986,686.578,142.253)">
                <circle cx="2720.33" cy="547.701" r="2.845" style="fill:rgb(52,116,185);"/>
            </g>
            <g transform="matrix(0.702986,0,0,0.702986,691.551,134.011)">
                <circle cx="2720.33" cy="547.701" r="2.845" style="fill:rgb(52,116,185);"/>
            </g>
            <g transform="matrix(0.702986,0,0,0.702986,700.55,140.253)">
                <circle cx="2720.33" cy="547.701" r="2.845" style="fill:rgb(52,116,185);"/>
            </g>
            <g transform="matrix(0.684839,0,0,0.684839,824.105,166.999)">
                <g transform="matrix(1.4602,-0,-0,1.4602,2517.09,419.485)">
                    <path d="M22.346,119.635L21.666,125.001L26.88,123.565" style="fill:none;stroke:rgb(102,185,61);stroke-width:2px;"/>
                    <path d="M103.12,26.435L108.334,24.999L107.654,30.365" style="fill:none;stroke:rgb(102,185,61);stroke-width:2px;"/>
                    <path d="M21.666,125.001C31.421,113.744 98.579,36.256 108.334,24.999" style="fill:none;stroke:rgb(102,185,61);stroke-width:2px;stroke-linejoin:round;stroke-miterlimit:1.5;"/>
                </g>
            </g>
            <g transform="matrix(0.000555431,-0.37098,0.37098,0.000555431,2415.21,1497.99)">
                <g transform="matrix(0.00403578,2.69555,-2.69555,0.00403578,2813.9,353.486)">
                    <path d="M86.062,97.284L91.427,97.973L89.999,92.756" style="fill:none;stroke:rgb(102,185,61);stroke-width:2px;"/>
                    <path d="M40.001,57.244L38.573,52.027L43.938,52.716" style="fill:none;stroke:rgb(102,185,61);stroke-width:2px;"/>
                    <path d="M91.427,97.973C83.78,91.325 46.22,58.675 38.573,52.027" style="fill:none;stroke:rgb(102,185,61);stroke-width:2px;stroke-linejoin:round;stroke-miterlimit:1.5;"/>
                </g>
            </g>
        </g>
    </g>
</svg>
