<?xml version="1.0" encoding="utf-8"?>
<!-- Generator: Adobe Illustrator 23.0.6, SVG Export Plug-In . SVG Version: 6.00 Build 0)  -->
<svg version="1.1" xmlns="http://www.w3.org/2000/svg" xmlns:xlink="http://www.w3.org/1999/xlink" x="0px" y="0px"
	 viewBox="0 0 1366 768" style="enable-background:new 0 0 1366 768;" xml:space="preserve">
<g id="background">
	<g>
		<defs>
			<rect id="SVGID_1_" x="-857" y="-406.4241333" width="705" height="540"/>
		</defs>
		<clipPath id="SVGID_2_">
			<use xlink:href="#SVGID_1_"  style="overflow:visible;"/>
		</clipPath>
		<g style="clip-path:url(#SVGID_2_);">
			
				<image style="overflow:visible;" width="705" height="540" xlink:href="74E483427AE98265.png"  transform="matrix(1 0 0 1 -857 -406.4241333)">
			</image>
		</g>
	</g>
	<line style="fill:none;stroke:#000000;stroke-width:4;stroke-miterlimit:10;" x1="214" y1="350.1875" x2="214" y2="345.5624695"/>
	<polyline style="fill:none;stroke:#000000;stroke-width:4;stroke-miterlimit:10;" points="774,561.5321655 774,623 214,623 
		214,363.1875 	"/>
	<polyline style="fill:none;stroke:#000000;stroke-width:4;stroke-miterlimit:10;" points="448,363.1875 448,506 774,506 
		774,555.0411377 	"/>
	<line style="fill:none;stroke:#000000;stroke-width:4;stroke-miterlimit:10;" x1="448" y1="345.1875" x2="448" y2="350.1875"/>
	<polyline style="fill:none;stroke:#000000;stroke-width:4;stroke-miterlimit:10;" points="774,133.9927521 774,212 448,212 
		448,332.1875 	"/>
	<polyline style="fill:none;stroke:#000000;stroke-width:4;stroke-miterlimit:10;" points="214,332.5624695 214,100 774,100 
		774,126.25 	"/>
	<line style="fill:none;stroke:#000000;stroke-width:2;stroke-miterlimit:10;" x1="407.5" y1="442" x2="448" y2="442"/>
	<line style="fill:none;stroke:#000000;stroke-width:2;stroke-miterlimit:10;" x1="310.8516846" y1="442" x2="394.5" y2="442"/>
	<line style="fill:none;stroke:#000000;stroke-width:2;stroke-miterlimit:10;" x1="214" y1="442" x2="289.5" y2="442"/>
	<line style="fill:none;stroke:#000000;stroke-width:2;stroke-miterlimit:10;" x1="275" y1="431.1875" x2="275" y2="442"/>
	<polyline style="fill:none;stroke:#000000;stroke-width:2;stroke-miterlimit:10;" points="214,407 275,407 275,418.1875 	"/>
	<line style="fill:none;stroke:#000000;stroke-width:2;stroke-miterlimit:10;" x1="388" y1="442" x2="388" y2="623"/>
	<line style="fill:none;stroke:#000000;stroke-width:2;stroke-miterlimit:10;" x1="394.5" y1="566" x2="387" y2="566"/>
	<line style="fill:none;stroke:#000000;stroke-width:2;stroke-miterlimit:10;" x1="427.5" y1="566" x2="407.5" y2="566"/>
	<line style="fill:none;stroke:#000000;stroke-width:2;stroke-miterlimit:10;" x1="468.5" y1="566" x2="440.5" y2="566"/>
	<line style="fill:none;stroke:#000000;stroke-width:2;stroke-miterlimit:10;" x1="516.5" y1="566" x2="481.5" y2="566"/>
	<line style="fill:none;stroke:#000000;stroke-width:2;stroke-miterlimit:10;" x1="546.5" y1="566" x2="529.5" y2="566"/>
	<line style="fill:none;stroke:#000000;stroke-width:2;stroke-miterlimit:10;" x1="577.5" y1="566" x2="559.5" y2="566"/>
	<line style="fill:none;stroke:#000000;stroke-width:2;stroke-miterlimit:10;" x1="606.5" y1="566" x2="590.5" y2="566"/>
	<line style="fill:none;stroke:#000000;stroke-width:2;stroke-miterlimit:10;" x1="637.5" y1="566" x2="619.5" y2="566"/>
	<line style="fill:none;stroke:#000000;stroke-width:2;stroke-miterlimit:10;" x1="673.5" y1="566" x2="650.5" y2="566"/>
	<line style="fill:none;stroke:#000000;stroke-width:2;stroke-miterlimit:10;" x1="704.5" y1="566" x2="686.5" y2="566"/>
	<line style="fill:none;stroke:#000000;stroke-width:2;stroke-miterlimit:10;" x1="732.5" y1="566" x2="717.5" y2="566"/>
	<line style="fill:none;stroke:#000000;stroke-width:2;stroke-miterlimit:10;" x1="755.5" y1="566" x2="745.5" y2="566"/>
	<line style="fill:none;stroke:#000000;stroke-width:2;stroke-miterlimit:10;" x1="774" y1="566" x2="768.5" y2="566"/>
	<line style="fill:none;stroke:#000000;stroke-width:2;stroke-miterlimit:10;" x1="422" y1="566" x2="422" y2="623"/>
	<line style="fill:none;stroke:#000000;stroke-width:2;stroke-miterlimit:10;" x1="450" y1="566" x2="450" y2="623"/>
	<line style="fill:none;stroke:#000000;stroke-width:2;stroke-miterlimit:10;" x1="509" y1="566" x2="509" y2="623"/>
	<line style="fill:none;stroke:#000000;stroke-width:2;stroke-miterlimit:10;" x1="569" y1="566" x2="569" y2="623"/>
	<line style="fill:none;stroke:#000000;stroke-width:2;stroke-miterlimit:10;" x1="598" y1="566" x2="598" y2="623"/>
	<line style="fill:none;stroke:#000000;stroke-width:2;stroke-miterlimit:10;" x1="628" y1="566" x2="628" y2="623"/>
	<line style="fill:none;stroke:#000000;stroke-width:2;stroke-miterlimit:10;" x1="660" y1="566" x2="660" y2="623"/>
	<line style="fill:none;stroke:#000000;stroke-width:2;stroke-miterlimit:10;" x1="694" y1="566" x2="694" y2="623"/>
	<line style="fill:none;stroke:#000000;stroke-width:2;stroke-miterlimit:10;" x1="728" y1="566" x2="728" y2="623"/>
	<polyline style="fill:none;stroke:#000000;stroke-width:2;stroke-miterlimit:10;" points="732.5,551 728,551 728,506 	"/>
	<line style="fill:none;stroke:#000000;stroke-width:2;stroke-miterlimit:10;" x1="755.5" y1="551" x2="745.5" y2="551"/>
	<line style="fill:none;stroke:#000000;stroke-width:2;stroke-miterlimit:10;" x1="774" y1="551" x2="768.5" y2="551"/>
	<line style="fill:none;stroke:#000000;stroke-width:2;stroke-miterlimit:10;" x1="750" y1="566" x2="750" y2="623"/>
	<line style="fill:none;stroke:#000000;stroke-width:2;stroke-miterlimit:10;" x1="750" y1="506" x2="750" y2="551"/>
	<path style="fill:none;stroke:#000000;stroke-width:2;stroke-miterlimit:10;" d="M665,506"/>
	<polyline style="fill:none;stroke:#000000;stroke-width:2;stroke-miterlimit:10;" points="650.5,547 665,547 665,506 	"/>
	<line style="fill:none;stroke:#000000;stroke-width:2;stroke-miterlimit:10;" x1="590.5" y1="547" x2="637.5" y2="547"/>
	<line style="fill:none;stroke:#000000;stroke-width:2;stroke-miterlimit:10;" x1="559.5" y1="547" x2="577.5" y2="547"/>
	<line style="fill:none;stroke:#000000;stroke-width:2;stroke-miterlimit:10;" x1="529.5" y1="547" x2="546.5" y2="547"/>
	<polyline style="fill:none;stroke:#000000;stroke-width:2;stroke-miterlimit:10;" points="505,506 505,547 516.5,547 	"/>
	<line style="fill:none;stroke:#000000;stroke-width:2;stroke-miterlimit:10;" x1="598" y1="547" x2="598" y2="506"/>
	<line style="fill:none;stroke:#000000;stroke-width:2;stroke-miterlimit:10;" x1="569" y1="506" x2="569" y2="547"/>
	<line style="fill:none;stroke:#000000;stroke-width:2;stroke-miterlimit:10;" x1="536" y1="506" x2="536" y2="547"/>
	<g>
		<polyline style="fill:none;stroke:#000000;stroke-width:2;stroke-miterlimit:10;" points="242.5,566 242.5,597 285.5,597 
			285.5,566 		"/>
		<polyline style="fill:none;stroke:#000000;stroke-width:2;stroke-miterlimit:10;" points="316.5,566 316.5,597 359.5,597 
			359.5,566 		"/>
	</g>
	<line style="fill:none;stroke:#000000;stroke-width:2;stroke-miterlimit:10;" x1="391.5" y1="271" x2="448" y2="271"/>
	<line style="fill:none;stroke:#000000;stroke-width:2;stroke-miterlimit:10;" x1="213.9999084" y1="271" x2="378.5" y2="271"/>
	<line style="fill:none;stroke:#000000;stroke-width:2;stroke-miterlimit:10;" x1="272" y1="164.3141327" x2="272" y2="100"/>
	<line style="fill:none;stroke:#000000;stroke-width:2;stroke-miterlimit:10;" x1="272" y1="271" x2="272" y2="175.5193481"/>
	<line style="fill:none;stroke:#000000;stroke-width:2;stroke-miterlimit:10;" x1="373" y1="100" x2="373" y2="271"/>
	<polyline style="fill:none;stroke:#000000;stroke-width:2;stroke-miterlimit:10;" points="246.5,184 319,184 319,198 272,198 	"/>
	<line style="fill:none;stroke:#000000;stroke-width:2;stroke-miterlimit:10;" x1="214" y1="184" x2="233.5" y2="184"/>
	<line style="fill:none;stroke:#000000;stroke-width:2;stroke-miterlimit:10;" x1="253.5" y1="127" x2="272" y2="127"/>
	<polyline style="fill:none;stroke:#000000;stroke-width:2;stroke-miterlimit:10;" points="214,127 233.5,127 240.5,127 	"/>
	<line style="fill:none;stroke:#000000;stroke-width:2;stroke-miterlimit:10;" x1="319" y1="100" x2="319" y2="158"/>
	<line style="fill:none;stroke:#000000;stroke-width:2;stroke-miterlimit:10;" x1="730.5" y1="194" x2="738" y2="194"/>
	<polyline style="fill:none;stroke:#000000;stroke-width:2;stroke-miterlimit:10;" points="696,212.3333282 696,194 717.5,194 	"/>
	<polyline style="fill:none;stroke:#000000;stroke-width:2;stroke-miterlimit:10;" points="738,177.8668671 738,171 774,171 	"/>
	
		<line style="fill:none;stroke:#000000;stroke-width:2;stroke-miterlimit:10;" x1="738" y1="212.3333282" x2="738" y2="186.5980225"/>
	<line style="fill:none;stroke:#000000;stroke-width:2;stroke-miterlimit:10;" x1="135" y1="374" x2="214" y2="374"/>
	<line style="fill:none;stroke:#000000;stroke-width:2;stroke-miterlimit:10;" x1="135" y1="322" x2="214" y2="322"/>
	<line style="fill:none;stroke:#000000;stroke-width:2;stroke-miterlimit:10;" x1="394.5" y1="506" x2="388" y2="506"/>
	<line style="fill:none;stroke:#000000;stroke-width:2;stroke-miterlimit:10;" x1="464.0780945" y1="506" x2="407.5" y2="506"/>
	<line style="fill:none;stroke:#000000;stroke-width:2;stroke-miterlimit:10;" x1="378.5" y1="212" x2="214" y2="212"/>
	<line style="fill:none;stroke:#000000;stroke-width:2;stroke-miterlimit:10;" x1="466.7975464" y1="212" x2="391.5" y2="212"/>
	<line style="fill:none;stroke:#000000;stroke-width:2;stroke-miterlimit:10;" x1="298" y1="152.7812347" x2="298" y2="158"/>
	<line style="fill:none;stroke:#000000;stroke-width:2;stroke-miterlimit:10;" x1="298" y1="100" x2="298" y2="140.1045685"/>
	<line style="fill:none;stroke:#000000;stroke-width:2;stroke-miterlimit:10;" x1="411" y1="100" x2="411" y2="158"/>
	<line style="fill:none;stroke:#000000;stroke-width:2;stroke-miterlimit:10;" x1="446" y1="100" x2="446" y2="158"/>
	
		<line style="fill:none;stroke:#000000;stroke-width:2;stroke-miterlimit:10;" x1="505" y1="174.0635529" x2="505" y2="212.3333282"/>
	<line style="fill:none;stroke:#000000;stroke-width:2;stroke-miterlimit:10;" x1="505" y1="100" x2="505" y2="162.1146851"/>
	<polyline style="fill:none;stroke:#000000;stroke-width:2;stroke-miterlimit:10;" points="679.5,158 690,158 690,171 709,171 
		709,194 	"/>
	<line style="fill:none;stroke:#000000;stroke-width:2;stroke-miterlimit:10;" x1="652.5" y1="158" x2="666.5" y2="158"/>
	<line style="fill:none;stroke:#000000;stroke-width:2;stroke-miterlimit:10;" x1="621.5" y1="158" x2="639.5" y2="158"/>
	<line style="fill:none;stroke:#000000;stroke-width:2;stroke-miterlimit:10;" x1="570.5" y1="158" x2="608.5" y2="158"/>
	<line style="fill:none;stroke:#000000;stroke-width:2;stroke-miterlimit:10;" x1="543.5" y1="158" x2="557.5" y2="158"/>
	<line style="fill:none;stroke:#000000;stroke-width:2;stroke-miterlimit:10;" x1="482.5" y1="158" x2="530.5" y2="158"/>
	<line style="fill:none;stroke:#000000;stroke-width:2;stroke-miterlimit:10;" x1="441.5" y1="158" x2="469.5" y2="158"/>
	<line style="fill:none;stroke:#000000;stroke-width:2;stroke-miterlimit:10;" x1="391.5" y1="158" x2="428.5" y2="158"/>
	<line style="fill:none;stroke:#000000;stroke-width:2;stroke-miterlimit:10;" x1="367.5" y1="158" x2="378.5" y2="158"/>
	<line style="fill:none;stroke:#000000;stroke-width:2;stroke-miterlimit:10;" x1="292.5" y1="158" x2="354.5" y2="158"/>
	<line style="fill:none;stroke:#000000;stroke-width:2;stroke-miterlimit:10;" x1="272" y1="158" x2="279.5" y2="158"/>
	<line style="fill:none;stroke:#000000;stroke-width:2;stroke-miterlimit:10;" x1="738" y1="100" x2="738" y2="137"/>
	<line style="fill:none;stroke:#000000;stroke-width:2;stroke-miterlimit:10;" x1="530.5" y1="137" x2="505" y2="137"/>
	<line style="fill:none;stroke:#000000;stroke-width:2;stroke-miterlimit:10;" x1="557.5" y1="137" x2="543.5" y2="137"/>
	<line style="fill:none;stroke:#000000;stroke-width:2;stroke-miterlimit:10;" x1="608.5" y1="137" x2="570.5" y2="137"/>
	<line style="fill:none;stroke:#000000;stroke-width:2;stroke-miterlimit:10;" x1="639.5" y1="137" x2="621.5" y2="137"/>
	<line style="fill:none;stroke:#000000;stroke-width:2;stroke-miterlimit:10;" x1="666.5" y1="137" x2="652.5" y2="137"/>
	<line style="fill:none;stroke:#000000;stroke-width:2;stroke-miterlimit:10;" x1="692.9287109" y1="137" x2="679.5" y2="137"/>
	<line style="fill:none;stroke:#000000;stroke-width:2;stroke-miterlimit:10;" x1="717.5" y1="137" x2="702.7512817" y2="137"/>
	<line style="fill:none;stroke:#000000;stroke-width:2;stroke-miterlimit:10;" x1="774" y1="137" x2="730.5" y2="137"/>
	<line style="fill:none;stroke:#000000;stroke-width:2;stroke-miterlimit:10;" x1="696" y1="100" x2="696" y2="116"/>
	<polyline style="fill:none;stroke:#000000;stroke-width:2;stroke-miterlimit:10;" points="687,136.5 687,116 709,116 709,136.5 	
		"/>
	<line style="fill:none;stroke:#000000;stroke-width:2;stroke-miterlimit:10;" x1="659" y1="100" x2="659" y2="136.5"/>
	<line style="fill:none;stroke:#000000;stroke-width:2;stroke-miterlimit:10;" x1="628" y1="100" x2="628" y2="136.5"/>
	
		<line style="fill:none;stroke:#000000;stroke-width:2;stroke-miterlimit:10;" x1="578.0720825" y1="100" x2="578.0720825" y2="137"/>
	<line style="fill:none;stroke:#000000;stroke-width:2;stroke-miterlimit:10;" x1="550" y1="100" x2="550" y2="137"/>
	<line style="fill:none;stroke:#000000;stroke-width:2;stroke-miterlimit:10;" x1="751" y1="166" x2="751" y2="171"/>
	<line style="fill:none;stroke:#000000;stroke-width:2;stroke-miterlimit:10;" x1="751" y1="150.145401" x2="751" y2="158"/>
	<line style="fill:none;stroke:#000000;stroke-width:2;stroke-miterlimit:10;" x1="751" y1="137" x2="751" y2="141.6325226"/>
	<line style="fill:none;stroke:#000000;stroke-width:2;stroke-miterlimit:10;" x1="774" y1="154" x2="751" y2="154"/>
	<line style="fill:none;stroke:#000000;stroke-miterlimit:10;" x1="135.9999847" y1="321.75" x2="135.9999847" y2="374"/>
	<line style="fill:none;stroke:#000000;stroke-miterlimit:10;" x1="139.7856903" y1="321.75" x2="139.7856903" y2="374"/>
	<line style="fill:none;stroke:#000000;stroke-miterlimit:10;" x1="147.3571167" y1="321.75" x2="147.3571167" y2="374"/>
	<line style="fill:none;stroke:#000000;stroke-miterlimit:10;" x1="154.9285583" y1="321.75" x2="154.9285583" y2="374"/>
	<line style="fill:none;stroke:#000000;stroke-miterlimit:10;" x1="143.5714111" y1="321.75" x2="143.5714111" y2="374"/>
	<line style="fill:none;stroke:#000000;stroke-miterlimit:10;" x1="151.1428375" y1="321.75" x2="151.1428375" y2="374"/>
	<line style="fill:none;stroke:#000000;stroke-miterlimit:10;" x1="158.7142639" y1="321.75" x2="158.7142639" y2="374"/>
	<line style="fill:none;stroke:#000000;stroke-miterlimit:10;" x1="162.4999847" y1="321.75" x2="162.4999847" y2="374"/>
	
		<line style="fill:none;stroke:#000000;stroke-miterlimit:10;" x1="242.2709503" y1="566.2963257" x2="213.9999084" y2="566.2963257"/>
	
		<line style="fill:none;stroke:#000000;stroke-miterlimit:10;" x1="242.2709503" y1="570.0820923" x2="213.9999084" y2="570.0820923"/>
	
		<line style="fill:none;stroke:#000000;stroke-miterlimit:10;" x1="242.2709503" y1="577.6535034" x2="213.9999084" y2="577.6535034"/>
	
		<line style="fill:none;stroke:#000000;stroke-miterlimit:10;" x1="242.2709503" y1="585.2249146" x2="213.9999084" y2="585.2249146"/>
	
		<line style="fill:none;stroke:#000000;stroke-miterlimit:10;" x1="242.2709503" y1="573.8677979" x2="213.9999084" y2="573.8677979"/>
	
		<line style="fill:none;stroke:#000000;stroke-miterlimit:10;" x1="242.2709503" y1="581.439209" x2="213.9999084" y2="581.439209"/>
	
		<line style="fill:none;stroke:#000000;stroke-miterlimit:10;" x1="242.2709503" y1="589.0106201" x2="213.9999084" y2="589.0106201"/>
	
		<line style="fill:none;stroke:#000000;stroke-miterlimit:10;" x1="242.2709503" y1="592.7963257" x2="213.9999084" y2="592.7963257"/>
	
		<line style="fill:none;stroke:#000000;stroke-miterlimit:10;" x1="388.2709656" y1="566.2963257" x2="359.9999084" y2="566.2963257"/>
	
		<line style="fill:none;stroke:#000000;stroke-miterlimit:10;" x1="388.2709656" y1="570.0820923" x2="359.9999084" y2="570.0820923"/>
	
		<line style="fill:none;stroke:#000000;stroke-miterlimit:10;" x1="388.2709656" y1="577.6535034" x2="359.9999084" y2="577.6535034"/>
	
		<line style="fill:none;stroke:#000000;stroke-miterlimit:10;" x1="388.2709656" y1="585.2249146" x2="359.9999084" y2="585.2249146"/>
	
		<line style="fill:none;stroke:#000000;stroke-miterlimit:10;" x1="388.2709656" y1="573.8677979" x2="359.9999084" y2="573.8677979"/>
	
		<line style="fill:none;stroke:#000000;stroke-miterlimit:10;" x1="388.2709656" y1="581.439209" x2="359.9999084" y2="581.439209"/>
	
		<line style="fill:none;stroke:#000000;stroke-miterlimit:10;" x1="388.2709656" y1="589.0106201" x2="359.9999084" y2="589.0106201"/>
	
		<line style="fill:none;stroke:#000000;stroke-miterlimit:10;" x1="388.2709656" y1="592.7963257" x2="359.9999084" y2="592.7963257"/>
	
		<line style="fill:none;stroke:#000000;stroke-miterlimit:10;" x1="317.0000305" y1="565.8261719" x2="285.5390625" y2="565.8261719"/>
	
		<line style="fill:none;stroke:#000000;stroke-miterlimit:10;" x1="317.0000305" y1="569.6119385" x2="285.5390625" y2="569.6119385"/>
	
		<line style="fill:none;stroke:#000000;stroke-miterlimit:10;" x1="317.0000305" y1="577.1833496" x2="285.5390625" y2="577.1833496"/>
	
		<line style="fill:none;stroke:#000000;stroke-miterlimit:10;" x1="317.0000305" y1="584.7547607" x2="285.5390625" y2="584.7547607"/>
	
		<line style="fill:none;stroke:#000000;stroke-miterlimit:10;" x1="317.0000305" y1="573.397644" x2="285.5390625" y2="573.397644"/>
	
		<line style="fill:none;stroke:#000000;stroke-miterlimit:10;" x1="317.0000305" y1="580.9690552" x2="285.5390625" y2="580.9690552"/>
	
		<line style="fill:none;stroke:#000000;stroke-miterlimit:10;" x1="317.0000305" y1="588.5404663" x2="285.5390625" y2="588.5404663"/>
	
		<line style="fill:none;stroke:#000000;stroke-miterlimit:10;" x1="317.0000305" y1="592.3261719" x2="285.5390625" y2="592.3261719"/>
	<line style="fill:none;stroke:#000000;stroke-miterlimit:10;" x1="333.3265686" y1="596.7939453" x2="333.3265686" y2="623"/>
	<line style="fill:none;stroke:#000000;stroke-miterlimit:10;" x1="337.1123047" y1="596.7939453" x2="337.1123047" y2="623"/>
	<line style="fill:none;stroke:#000000;stroke-miterlimit:10;" x1="344.6837158" y1="596.7939453" x2="344.6837158" y2="623"/>
	<line style="fill:none;stroke:#000000;stroke-miterlimit:10;" x1="352.2551575" y1="596.7939453" x2="352.2551575" y2="623"/>
	<line style="fill:none;stroke:#000000;stroke-miterlimit:10;" x1="340.8980103" y1="596.7939453" x2="340.8980103" y2="623"/>
	<line style="fill:none;stroke:#000000;stroke-miterlimit:10;" x1="348.4694519" y1="596.7939453" x2="348.4694519" y2="623"/>
	<line style="fill:none;stroke:#000000;stroke-miterlimit:10;" x1="356.040863" y1="596.7939453" x2="356.040863" y2="623"/>
	<line style="fill:none;stroke:#000000;stroke-miterlimit:10;" x1="359.8265686" y1="596.7939453" x2="359.8265686" y2="623"/>
	
		<line style="fill:none;stroke:#000000;stroke-miterlimit:10;" x1="242.3265839" y1="597.4214478" x2="242.3265839" y2="623.6274414"/>
	
		<line style="fill:none;stroke:#000000;stroke-miterlimit:10;" x1="246.1122894" y1="597.4214478" x2="246.1122894" y2="623.6274414"/>
	
		<line style="fill:none;stroke:#000000;stroke-miterlimit:10;" x1="253.6837158" y1="597.4214478" x2="253.6837158" y2="623.6274414"/>
	
		<line style="fill:none;stroke:#000000;stroke-miterlimit:10;" x1="261.2551575" y1="597.4214478" x2="261.2551575" y2="623.6274414"/>
	
		<line style="fill:none;stroke:#000000;stroke-miterlimit:10;" x1="249.8980103" y1="597.4214478" x2="249.8980103" y2="623.6274414"/>
	
		<line style="fill:none;stroke:#000000;stroke-miterlimit:10;" x1="257.4694214" y1="597.4214478" x2="257.4694214" y2="623.6274414"/>
	
		<line style="fill:none;stroke:#000000;stroke-miterlimit:10;" x1="265.040863" y1="597.4214478" x2="265.040863" y2="623.6274414"/>
	
		<line style="fill:none;stroke:#000000;stroke-miterlimit:10;" x1="268.8265686" y1="597.4214478" x2="268.8265686" y2="623.6274414"/>
	
		<line style="fill:none;stroke:#000000;stroke-width:2;stroke-miterlimit:10;" x1="527.253479" y1="321.1624451" x2="448.253479" y2="321.1624451"/>
	
		<line style="fill:none;stroke:#000000;stroke-width:2;stroke-miterlimit:10;" x1="527.253479" y1="373.1624451" x2="448.253479" y2="373.1624451"/>
	
		<line style="fill:none;stroke:#000000;stroke-miterlimit:10;" x1="526.253479" y1="373.4124756" x2="526.253479" y2="321.1624756"/>
	
		<line style="fill:none;stroke:#000000;stroke-miterlimit:10;" x1="522.4677734" y1="373.4124756" x2="522.4677734" y2="321.1624756"/>
	
		<line style="fill:none;stroke:#000000;stroke-miterlimit:10;" x1="514.8963623" y1="373.4124756" x2="514.8963623" y2="321.1624756"/>
	
		<line style="fill:none;stroke:#000000;stroke-miterlimit:10;" x1="507.3249207" y1="373.4124756" x2="507.3249207" y2="321.1624756"/>
	
		<line style="fill:none;stroke:#000000;stroke-miterlimit:10;" x1="518.6820679" y1="373.4124756" x2="518.6820679" y2="321.1624756"/>
	
		<line style="fill:none;stroke:#000000;stroke-miterlimit:10;" x1="511.1106262" y1="373.4124756" x2="511.1106262" y2="321.1624756"/>
	
		<line style="fill:none;stroke:#000000;stroke-miterlimit:10;" x1="503.5392151" y1="373.4124756" x2="503.5392151" y2="321.1624756"/>
	
		<line style="fill:none;stroke:#000000;stroke-miterlimit:10;" x1="499.753479" y1="373.4124756" x2="499.753479" y2="321.1624756"/>
	<line style="fill:none;stroke:#000000;stroke-width:2;stroke-miterlimit:10;" x1="428" y1="140" x2="391" y2="140"/>
	<line style="fill:none;stroke:#000000;stroke-width:2;stroke-miterlimit:10;" x1="430" y1="127" x2="393" y2="127"/>
	<line style="fill:none;stroke:#000000;stroke-width:2;stroke-miterlimit:10;" x1="429" y1="114" x2="392" y2="114"/>
	
		<line style="fill:none;stroke:#000000;stroke-width:2;stroke-miterlimit:10;" x1="823" y1="120.744873" x2="773.6264038" y2="120.744873"/>
	
		<line style="fill:none;stroke:#000000;stroke-width:2;stroke-miterlimit:10;" x1="823" y1="141.8983002" x2="773.6264038" y2="141.8983002"/>
	<line style="fill:none;stroke:#000000;stroke-miterlimit:10;" x1="822" y1="142" x2="822" y2="120.7448807"/>
	<line style="fill:none;stroke:#000000;stroke-miterlimit:10;" x1="818.1964111" y1="142" x2="818.1964111" y2="120.7448807"/>
	<line style="fill:none;stroke:#000000;stroke-miterlimit:10;" x1="810.5891724" y1="142" x2="810.5891724" y2="120.7448807"/>
	<line style="fill:none;stroke:#000000;stroke-miterlimit:10;" x1="802.9819336" y1="142" x2="802.9819336" y2="120.7448807"/>
	<line style="fill:none;stroke:#000000;stroke-miterlimit:10;" x1="814.3927612" y1="142" x2="814.3927612" y2="120.7448807"/>
	<line style="fill:none;stroke:#000000;stroke-miterlimit:10;" x1="806.7855225" y1="142" x2="806.7855225" y2="120.7448807"/>
	<line style="fill:none;stroke:#000000;stroke-miterlimit:10;" x1="799.1782837" y1="142" x2="799.1782837" y2="120.7448807"/>
	<line style="fill:none;stroke:#000000;stroke-miterlimit:10;" x1="795.3746948" y1="142" x2="795.3746948" y2="120.7448807"/>
	
		<line style="fill:none;stroke:#000000;stroke-miterlimit:10;" x1="757.8068237" y1="137.0002136" x2="757.8068237" y2="124.908699"/>
	
		<line style="fill:none;stroke:#000000;stroke-miterlimit:10;" x1="754.0032349" y1="137.0002136" x2="754.0032349" y2="124.908699"/>
	<line style="fill:none;stroke:#000000;stroke-miterlimit:10;" x1="750.199585" y1="137.0002136" x2="750.199585" y2="124.908699"/>
	
		<line style="fill:none;stroke:#000000;stroke-miterlimit:10;" x1="758.8068237" y1="113.9999161" x2="758.8068237" y2="99.9086151"/>
	
		<line style="fill:none;stroke:#000000;stroke-miterlimit:10;" x1="755.0031738" y1="113.9999161" x2="755.0031738" y2="99.9086151"/>
	<line style="fill:none;stroke:#000000;stroke-miterlimit:10;" x1="751.199585" y1="113.9999161" x2="751.199585" y2="99.9086151"/>
	<rect x="749.5" y="113.5" style="fill:none;stroke:#000000;stroke-miterlimit:10;" width="10" height="11"/>
	<line style="fill:none;stroke:#000000;stroke-miterlimit:10;" x1="750" y1="113.5399094" x2="738" y2="113.5399094"/>
	<line style="fill:none;stroke:#000000;stroke-miterlimit:10;" x1="750" y1="117.3435287" x2="738" y2="117.3435287"/>
	<line style="fill:none;stroke:#000000;stroke-miterlimit:10;" x1="750" y1="121.1471405" x2="738" y2="121.1471405"/>
	<line style="fill:none;stroke:#000000;stroke-miterlimit:10;" x1="774" y1="116.5399475" x2="760" y2="116.5399475"/>
	<line style="fill:none;stroke:#000000;stroke-miterlimit:10;" x1="774" y1="120.3435669" x2="760" y2="120.3435669"/>
	<line style="fill:none;stroke:#000000;stroke-miterlimit:10;" x1="774" y1="124.1471786" x2="760" y2="124.1471786"/>
	<line style="fill:none;stroke:#000000;stroke-miterlimit:10;" x1="469.7813721" y1="601.9800415" x2="469.7813721" y2="621"/>
	<line style="fill:none;stroke:#000000;stroke-miterlimit:10;" x1="477.3527832" y1="601.9800415" x2="477.3527832" y2="621"/>
	<line style="fill:none;stroke:#000000;stroke-miterlimit:10;" x1="484.9242249" y1="601.9800415" x2="484.9242249" y2="621"/>
	<line style="fill:none;stroke:#000000;stroke-miterlimit:10;" x1="473.5670776" y1="601.9800415" x2="473.5670776" y2="621"/>
	<line style="fill:none;stroke:#000000;stroke-miterlimit:10;" x1="481.1384888" y1="601.9800415" x2="481.1384888" y2="621"/>
	<line style="fill:none;stroke:#000000;stroke-miterlimit:10;" x1="488.7099304" y1="601.9800415" x2="488.7099304" y2="621"/>
	
		<line style="fill:none;stroke:#000000;stroke-miterlimit:10;" x1="489.7356567" y1="600.9542847" x2="508.7556152" y2="600.9542847"/>
	
		<line style="fill:none;stroke:#000000;stroke-miterlimit:10;" x1="489.7356567" y1="593.3828735" x2="508.7556152" y2="593.3828735"/>
	
		<line style="fill:none;stroke:#000000;stroke-miterlimit:10;" x1="489.7356567" y1="585.8114624" x2="508.7556152" y2="585.8114624"/>
	
		<line style="fill:none;stroke:#000000;stroke-miterlimit:10;" x1="489.7356567" y1="597.1685791" x2="508.7556152" y2="597.1685791"/>
	
		<line style="fill:none;stroke:#000000;stroke-miterlimit:10;" x1="489.7356567" y1="589.597168" x2="508.7556152" y2="589.597168"/>
	
		<line style="fill:none;stroke:#000000;stroke-miterlimit:10;" x1="489.7356567" y1="582.0257568" x2="508.7556152" y2="582.0257568"/>
	<line style="fill:none;stroke:#000000;stroke-miterlimit:10;" x1="450.7356567" y1="600.9542847" x2="469" y2="600.9542847"/>
	<line style="fill:none;stroke:#000000;stroke-miterlimit:10;" x1="450.7356567" y1="593.3828735" x2="469" y2="593.3828735"/>
	<line style="fill:none;stroke:#000000;stroke-miterlimit:10;" x1="450.7356567" y1="585.8114624" x2="469" y2="585.8114624"/>
	<line style="fill:none;stroke:#000000;stroke-miterlimit:10;" x1="450.7356567" y1="597.1685791" x2="469" y2="597.1685791"/>
	<line style="fill:none;stroke:#000000;stroke-miterlimit:10;" x1="450.7356567" y1="589.597168" x2="469" y2="589.597168"/>
	<line style="fill:none;stroke:#000000;stroke-miterlimit:10;" x1="450.7356567" y1="582.0257568" x2="469" y2="582.0257568"/>
	<rect x="468.5" y="580.5" style="fill:none;stroke:#000000;stroke-miterlimit:10;" width="21" height="21"/>
	
		<line style="fill:none;stroke:#000000;stroke-width:2;stroke-miterlimit:10;" x1="823.3735352" y1="547.6408691" x2="774" y2="547.6408691"/>
	
		<line style="fill:none;stroke:#000000;stroke-width:2;stroke-miterlimit:10;" x1="823.3735352" y1="568.7943115" x2="774" y2="568.7943115"/>
	
		<line style="fill:none;stroke:#000000;stroke-miterlimit:10;" x1="822.3735962" y1="568.8959961" x2="822.3735962" y2="547.6408691"/>
	
		<line style="fill:none;stroke:#000000;stroke-miterlimit:10;" x1="818.5699463" y1="568.8959961" x2="818.5699463" y2="547.6408691"/>
	
		<line style="fill:none;stroke:#000000;stroke-miterlimit:10;" x1="810.9627075" y1="568.8959961" x2="810.9627075" y2="547.6408691"/>
	
		<line style="fill:none;stroke:#000000;stroke-miterlimit:10;" x1="803.3554688" y1="568.8959961" x2="803.3554688" y2="547.6408691"/>
	
		<line style="fill:none;stroke:#000000;stroke-miterlimit:10;" x1="814.7663574" y1="568.8959961" x2="814.7663574" y2="547.6408691"/>
	
		<line style="fill:none;stroke:#000000;stroke-miterlimit:10;" x1="807.1591187" y1="568.8959961" x2="807.1591187" y2="547.6408691"/>
	
		<line style="fill:none;stroke:#000000;stroke-miterlimit:10;" x1="799.5518799" y1="568.8959961" x2="799.5518799" y2="547.6408691"/>
	
		<line style="fill:none;stroke:#000000;stroke-miterlimit:10;" x1="795.748291" y1="568.8959961" x2="795.748291" y2="547.6408691"/>
	
		<line style="fill:none;stroke:#000000;stroke-width:2;stroke-miterlimit:10;" x1="399.8969421" y1="250.4950867" x2="399.8969421" y2="212"/>
	
		<line style="fill:none;stroke:#000000;stroke-width:2;stroke-miterlimit:10;" x1="399.8969421" y1="271" x2="399.8969421" y2="261.0005493"/>
</g>
<g id="place">
	<g>
		<rect x="233.5" y="498.227356" style="fill:#FFFF00;" width="90" height="48.772644"/>
		<rect x="245.8935852" y="322" style="fill:#FFFF00;" width="91.2187119" height="52"/>
	</g>
</g>
<g id="button">
	<g>
		<g>
			
				<rect x="618.9672852" y="685.8814087" transform="matrix(-1 -4.489976e-11 4.489976e-11 -1 1312.6392822 1410.5114746)" style="fill:#5D745A;" width="74.704689" height="38.7486954"/>
			<g>
				<polygon style="fill:#FFFFFF;" points="639.9104004,717.5305176 640.3449707,710.1799316 640.0056152,709.3605957 
					636.2717285,705.2492676 637.951416,702.8098145 638.0510254,704.9289551 638.9631348,705.8400879 644.9978027,705.5568848 
					644.9978027,704.0412598 640.1638184,703.8146973 640.3933105,699.0217285 636.9274902,696.873291 632.8586426,697.1164551 
					632.1594238,697.388916 628.1154785,701.7883301 629.2692871,702.9406738 633.2717285,699.2619629 635.3034668,699.3469238 
					632.5290527,704.3449707 632.2844238,705.2033691 632.7233887,711.060791 626.791748,711.411377 626.791748,713.1506348 
					634.208252,713.5881348 635.385498,712.4104004 635.5627441,708.8254395 637.776123,710.8361816 638.1721191,717.5305176 				
					"/>
				<path style="fill:#FFFFFF;" d="M640.6838379,697.6733398c-1.7732544,0.4274292-3.3303833-1.1297607-2.902832-2.9030151
					c0.2009277-0.8334961,0.8844604-1.5170288,1.7179565-1.7179565c1.7732544-0.4274902,3.3303833,1.1298218,2.902832,2.9030762
					C642.2008667,696.7889404,641.517334,697.4724121,640.6838379,697.6733398z"/>
			</g>
			
				<rect x="672.0177612" y="692.1468506" transform="matrix(-1 -4.481228e-11 4.481228e-11 -1 1356.2536621 1410.5114746)" style="fill:#FFFFFF;" width="12.2180567" height="26.2178173"/>
			<g>
				
					<rect x="648.5933228" y="704.767395" transform="matrix(0.7259498 -0.6877477 0.6877477 0.7259498 -305.4400024 645.7622681)" style="fill:#FFFFFF;" width="17.9580193" height="2.7500086"/>
				<g>
					<polygon style="fill:#FFFFFF;" points="658.2007446,700.2804565 663.6068115,700.4249878 663.4591064,705.8309937 
						665.8156128,703.5985718 665.9616699,698.1941528 660.557251,698.0480347 					"/>
				</g>
			</g>
		</g>
		<g>
			
				<rect x="501.5136108" y="685.8814087" transform="matrix(-1 -4.489976e-11 4.489976e-11 -1 1077.7319336 1410.5114746)" style="fill:#5D745A;" width="74.704689" height="38.7486954"/>
			<g>
				<polygon style="fill:#FFFFFF;" points="522.456665,717.5305176 522.8912354,710.1799316 522.5518799,709.3605957 
					518.8179932,705.2492676 520.4976807,702.8098145 520.59729,704.9289551 521.5093994,705.8400879 527.5440674,705.5568848 
					527.5440674,704.0412598 522.710083,703.8146973 522.9395752,699.0217285 519.4737549,696.873291 515.4049072,697.1164551 
					514.7056885,697.388916 510.6617737,701.7883301 511.8155823,702.9406738 515.8179932,699.2619629 517.8497314,699.3469238 
					515.0753174,704.3449707 514.8306885,705.2033691 515.2696533,711.060791 509.3380432,711.411377 509.3380432,713.1506348 
					516.7545166,713.5881348 517.9317627,712.4104004 518.1090088,708.8254395 520.3223877,710.8361816 520.7183838,717.5305176 
									"/>
				<path style="fill:#FFFFFF;" d="M523.2301636,697.6733398c-1.7732544,0.4274292-3.3303833-1.1297607-2.9028931-2.9030151
					c0.2009888-0.8334961,0.8845215-1.5170288,1.7179565-1.7179565c1.7733154-0.4274902,3.3304443,1.1298218,2.9028931,2.9030762
					C524.7471924,696.7889404,524.0635986,697.4724121,523.2301636,697.6733398z"/>
			</g>
			
				<rect x="554.5640869" y="692.1468506" transform="matrix(-1 -4.481228e-11 4.481228e-11 -1 1121.3461914 1410.5114746)" style="fill:#FFFFFF;" width="12.2180567" height="26.2178173"/>
			<g>
				<rect x="531.786377" y="703.8810425" style="fill:#FFFFFF;" width="15.9580193" height="2.7500086"/>
				<g>
					<polygon style="fill:#FFFFFF;" points="543.2531128,701.4328003 547.0782471,705.2557373 543.2530518,709.0786133 
						546.4990845,709.0786743 550.3220215,705.2557983 546.4991455,701.4328003 					"/>
				</g>
			</g>
		</g>
		<g>
			
				<rect x="271.3995361" y="685.8814087" transform="matrix(-1 -4.489976e-11 4.489976e-11 -1 617.5037842 1410.5114746)" style="fill:#5D745A;" width="74.704689" height="38.7486954"/>
			<g>
				<polygon style="fill:#FFFFFF;" points="292.3426208,717.5305176 292.7771912,710.1799316 292.4378357,709.3605957 
					288.703949,705.2492676 290.3836365,702.8098145 290.4832458,704.9289551 291.3953552,705.8400879 297.4300232,705.5568848 
					297.4300232,704.0412598 292.5960388,703.8146973 292.825531,699.0217285 289.3597107,696.873291 285.290863,697.1164551 
					284.5916443,697.388916 280.547699,701.7883301 281.7015076,702.9406738 285.703949,699.2619629 287.7356873,699.3469238 
					284.9612732,704.3449707 284.7166443,705.2033691 285.1556091,711.060791 279.2239685,711.411377 279.2239685,713.1506348 
					286.6404724,713.5881348 287.8177185,712.4104004 287.9949646,708.8254395 290.2083435,710.8361816 290.6043396,717.5305176 
									"/>
				<path style="fill:#FFFFFF;" d="M293.1160583,697.6733398c-1.7732544,0.4274292-3.3303528-1.1297607-2.902832-2.9030151
					c0.2009583-0.8334961,0.884491-1.5170288,1.7179565-1.7179565c1.7732849-0.4274902,3.3304138,1.1298218,2.9028625,2.9030762
					C294.6330872,696.7889404,293.9495544,697.4724121,293.1160583,697.6733398z"/>
			</g>
			
				<rect x="324.4500122" y="692.1468506" transform="matrix(-1 -4.481228e-11 4.481228e-11 -1 661.118103 1410.5114746)" style="fill:#FFFFFF;" width="12.2180567" height="26.2178173"/>
			<g>
				
					<rect x="308.6316528" y="696.2402954" transform="matrix(0.7259498 -0.6877477 0.6877477 0.7259498 -400.055542 406.4718323)" style="fill:#FFFFFF;" width="2.7500086" height="17.9580193"/>
				<g>
					<polygon style="fill:#FFFFFF;" points="315.8685913,705.8477173 315.7240601,711.2537842 310.3180542,711.1060791 
						312.5504761,713.4625854 317.954895,713.6086426 318.1010132,708.2042236 					"/>
				</g>
			</g>
		</g>
		<g>
			<rect x="424.8089294" y="685.8814087" style="fill:#5D745A;" width="74.704689" height="38.7486954"/>
			<g>
				<polygon style="fill:#FFFFFF;" points="478.5705566,717.5305176 478.1359863,710.1799316 478.4753418,709.3605957 
					482.2092285,705.2492676 480.529541,702.8098145 480.4299316,704.9289551 479.5178223,705.8400879 473.4831543,705.5568848 
					473.4831543,704.0412598 478.3171387,703.8146973 478.0876465,699.0217285 481.5534668,696.873291 485.6223145,697.1164551 
					486.3215332,697.388916 490.3654785,701.7883301 489.2116699,702.9406738 485.2092285,699.2619629 483.1774902,699.3469238 
					485.9519043,704.3449707 486.1965332,705.2033691 485.7575684,711.060791 491.689209,711.411377 491.689209,713.1506348 
					484.2727051,713.5881348 483.095459,712.4104004 482.9182129,708.8254395 480.704834,710.8361816 480.3088379,717.5305176 				
					"/>
				<path style="fill:#FFFFFF;" d="M477.7970886,697.6733398c1.7732849,0.4274292,3.3303833-1.1297607,2.9028625-2.9030151
					c-0.2009583-0.8334961-0.884491-1.5170288-1.7179565-1.7179565c-1.7732849-0.4274902-3.3304443,1.1298218-2.9028931,2.9030762
					C476.2800598,696.7889404,476.963623,697.4724121,477.7970886,697.6733398z"/>
			</g>
			<rect x="434.2450867" y="692.1468506" style="fill:#FFFFFF;" width="12.2180567" height="26.2178173"/>
			<g>
				
					<rect x="459.5335999" y="697.1633911" transform="matrix(0.6877477 -0.7259498 0.7259498 0.6877477 -368.7041626 555.0911255)" style="fill:#FFFFFF;" width="2.7500086" height="17.9580193"/>
				<g>
					<polygon style="fill:#FFFFFF;" points="460.2802124,700.2804565 454.874115,700.4249878 455.0218201,705.8309937 
						452.6653137,703.5985718 452.5192566,698.1941528 457.9237061,698.0480347 					"/>
				</g>
			</g>
		</g>
		<g>
			<rect x="348.104248" y="685.8814087" style="fill:#5D745A;" width="74.704689" height="38.7486954"/>
			<g>
				<polygon style="fill:#FFFFFF;" points="401.8658752,717.5305176 401.4313049,710.1799316 401.7706604,709.3605957 
					405.5045471,705.2492676 403.8248596,702.8098145 403.7252502,704.9289551 402.8131409,705.8400879 396.7784729,705.5568848 
					396.7784729,704.0412598 401.6124573,703.8146973 401.3829651,699.0217285 404.8487854,696.873291 408.9176331,697.1164551 
					409.6168518,697.388916 413.6607971,701.7883301 412.5069885,702.9406738 408.5045471,699.2619629 406.4728088,699.3469238 
					409.2472229,704.3449707 409.4918518,705.2033691 409.052887,711.060791 414.9845276,711.411377 414.9845276,713.1506348 
					407.5680237,713.5881348 406.3907776,712.4104004 406.2135315,708.8254395 404.0001526,710.8361816 403.6041565,717.5305176 
									"/>
				<path style="fill:#FFFFFF;" d="M401.0924072,697.6733398c1.7732544,0.4274292,3.3303833-1.1297607,2.9028625-2.9030151
					c-0.2009583-0.8334961-0.884491-1.5170288-1.7179871-1.7179565c-1.7732544-0.4274902-3.3304138,1.1298218-2.9028625,2.9030762
					C399.5753784,696.7889404,400.2589417,697.4724121,401.0924072,697.6733398z"/>
			</g>
			<rect x="357.5404053" y="692.1468506" style="fill:#FFFFFF;" width="12.2180567" height="26.2178173"/>
			<g>
				<rect x="376.5781555" y="703.8810425" style="fill:#FFFFFF;" width="15.9580193" height="2.7500086"/>
				<g>
					<polygon style="fill:#FFFFFF;" points="381.069458,701.4328003 377.2442932,705.2557373 381.0694885,709.0786133 
						377.8234558,709.0786743 374.0005493,705.2557983 377.8233948,701.4328003 					"/>
				</g>
			</g>
		</g>
		<g>
			<rect x="194.6948547" y="685.8814087" style="fill:#5D745A;" width="74.704689" height="38.7486954"/>
			<g>
				<polygon style="fill:#FFFFFF;" points="248.4564819,717.5305176 248.0219116,710.1799316 248.3612671,709.3605957 
					252.0951538,705.2492676 250.4154663,702.8098145 250.3158569,704.9289551 249.4037476,705.8400879 243.3690796,705.5568848 
					243.3690796,704.0412598 248.203064,703.8146973 247.9735718,699.0217285 251.4393921,696.873291 255.5082397,697.1164551 
					256.2074585,697.388916 260.2514038,701.7883301 259.0975952,702.9406738 255.0951538,699.2619629 253.0634155,699.3469238 
					255.8378296,704.3449707 256.0824585,705.2033691 255.6434937,711.060791 261.5751343,711.411377 261.5751343,713.1506348 
					254.1586304,713.5881348 252.9813843,712.4104004 252.8041382,708.8254395 250.5907593,710.8361816 250.1947632,717.5305176 
									"/>
				<path style="fill:#FFFFFF;" d="M247.6830292,697.6733398c1.7732544,0.4274292,3.3303833-1.1297607,2.9028473-2.9030151
					c-0.200943-0.8334961-0.8844757-1.5170288-1.7179565-1.7179565c-1.7732849-0.4274902-3.3304291,1.1298218-2.9028778,2.9030762
					C246.1660004,696.7889404,246.8495483,697.4724121,247.6830292,697.6733398z"/>
			</g>
			<rect x="204.1310272" y="692.1468506" style="fill:#FFFFFF;" width="12.2180567" height="26.2178173"/>
			<g>
				
					<rect x="221.8134308" y="703.8442993" transform="matrix(0.6877477 -0.7259498 0.7259498 0.6877477 -439.8883362 387.7500916)" style="fill:#FFFFFF;" width="17.9580193" height="2.7500086"/>
				<g>
					<polygon style="fill:#FFFFFF;" points="224.9304962,705.8477173 225.0750275,711.2537842 230.4810333,711.1060791 
						228.2486115,713.4625854 222.8441925,713.6086426 222.6980743,708.2042236 					"/>
				</g>
			</g>
		</g>
		<g>
			
				<rect x="578.2183228" y="685.8814087" transform="matrix(-1 -8.642211e-11 8.642211e-11 -1 1195.1856689 1410.5114746)" style="fill:#5D745A;" width="38.7490005" height="38.7486954"/>
			<g>
				
					<rect x="588.5842285" y="692.1468506" transform="matrix(-1 -3.045931e-11 3.045931e-11 -1 1194.9049072 1410.5114746)" style="fill:#FFFFFF;" width="17.7365055" height="26.2178173"/>
				<g>
					<polygon style="fill:#FFFFFF;" points="598.9125366,718.6638794 598.5067749,711.8093872 596.8539429,710.3084106 
						596.7025757,713.3738403 595.3480835,714.7293091 587.5150757,714.267395 587.5150757,711.961731 593.4247437,711.6130981 
						593.0043335,706.0056763 593.2636108,705.0964966 595.8290405,700.4597778 594.406189,700.4002075 590.2836304,704.18927 
						588.7230835,702.6306763 593.008728,697.9685669 593.7728882,697.6707153 598.027771,697.4021606 601.7245483,699.6931763 
						601.5009155,704.3630981 606.3207397,704.5886841 606.3207397,706.6765747 599.868103,706.9793091 598.7797241,705.892395 
						598.7167358,704.5466919 597.6766968,706.0574341 601.2860718,710.0310669 601.671814,710.9627075 601.2162476,718.6638794 
											"/>
					<path style="fill:#FFFFFF;" d="M601.1151733,698.0447388c-0.8276367,0-1.5961914-0.3730469-2.1088867-1.0234375
						c-0.5126953-0.6513672-0.6923828-1.4970703-0.4936523-2.3212891c0.2290039-0.9492188,0.9902344-1.7099609,1.9389648-1.9394531
						c0.2197266-0.0527344,0.4428711-0.0791016,0.6630859-0.0791016c0.8271484,0,1.5952148,0.3730469,2.1079102,1.0234375
						s0.6928711,1.4970703,0.4941406,2.3212891c-0.2290039,0.9492188-0.9902344,1.7099609-1.9394531,1.9394531
						C601.5575562,698.0183716,601.3348999,698.0447388,601.1151733,698.0447388z"/>
					<path style="fill:#FFFFFF;" d="M601.7070312,697.6733398c-1.7732544,0.4274292-3.3303833-1.1297607-2.9028931-2.9030151
						c0.2009888-0.8334961,0.8845215-1.5170288,1.7179565-1.7179565c1.7733154-0.4274902,3.3304443,1.1298218,2.9028931,2.9030762
						C603.2240601,696.7889404,602.5404663,697.4724121,601.7070312,697.6733398z"/>
				</g>
				<g>
					<polygon style="fill:#5D745A;" points="600.9335327,718.3640137 601.368103,711.0134277 601.0287476,710.1940918 
						597.2948608,706.0827637 598.9745483,703.6433105 599.0741577,705.7624512 599.9862671,706.673584 606.0209351,706.3903809 
						606.0209351,704.8747559 601.1869507,704.6481934 601.4164429,699.8552246 597.9506226,697.7067871 593.8817749,697.9499512 
						593.1825562,698.2224121 589.1386108,702.6218262 590.2924194,703.7741699 594.2948608,700.095459 596.3265991,700.1804199 
						593.5521851,705.1784668 593.3075562,706.0368652 593.746521,711.8942871 587.8148804,712.244873 587.8148804,713.9841309 
						595.2313843,714.4216309 596.4086304,713.2438965 596.5858765,709.6589355 598.7992554,711.6696777 599.1952515,718.3640137 
											"/>
					<path style="fill:#5D745A;" d="M601.7070312,697.6733398c-1.7732544,0.4274292-3.3303833-1.1297607-2.9028931-2.9030151
						c0.2009888-0.8334961,0.8845215-1.5170288,1.7179565-1.7179565c1.7733154-0.4274902,3.3304443,1.1298218,2.9028931,2.9030762
						C603.2240601,696.7889404,602.5404663,697.4724121,601.7070312,697.6733398z"/>
				</g>
				<polygon style="fill:#FFFFFF;" points="584.8648682,722.553894 602.6013794,722.553894 606.3207397,718.364624 
					588.5842285,718.364624 				"/>
				<polygon style="fill:#5D745A;" points="595.7089844,721.7507324 599.2041626,718.3640137 600.9424438,718.3640137 
					598.277832,721.7507324 				"/>
			</g>
		</g>
		<g>
			<rect x="117.9901657" y="685.8814087" style="fill:#5D745A;" width="74.704689" height="38.7486954"/>
			<g>
				<path style="fill:#FFFFFF;" d="M129.4653168,703.8859863h3.9272461c1.0727539,0,1.8266602,0.0986328,2.262207,0.2939453
					s0.8027344,0.5410156,1.1020508,1.0361328s0.4492188,1.0546875,0.4492188,1.6796875
					c0,0.5771484-0.128418,1.0976562-0.3852539,1.5625c-0.2563477,0.4648438-0.5898438,0.8085938-0.9990234,1.03125
					c0.5810547,0.2070312,1.0361328,0.5605469,1.3647461,1.0605469c0.328125,0.5009766,0.4926758,1.109375,0.4926758,1.8271484
					c0,0.8701172-0.2094727,1.6054688-0.6279297,2.2070312c-0.4189453,0.6005859-0.9135742,0.9716797-1.4848633,1.1132812
					c-0.3969727,0.0976562-1.3183594,0.1464844-2.7651367,0.1464844h-3.3359375V703.8859863z M131.4394379,705.8762207v2.765625
					h1.3046875c0.7832031,0,1.2670898-0.0136719,1.4521484-0.0410156c0.3369141-0.0546875,0.6005859-0.1972656,0.7910156-0.4277344
					c0.1904297-0.2314453,0.2856445-0.5458984,0.2856445-0.9423828c0-0.3535156-0.0776367-0.640625-0.2324219-0.8603516
					c-0.1552734-0.2207031-0.3427734-0.3574219-0.5629883-0.4121094s-0.8520508-0.0820312-1.8964844-0.0820312H131.4394379z
					 M131.4394379,710.6320801v3.1894531h1.8388672c0.8061523,0,1.3237305-0.0419922,1.5522461-0.1259766
					c0.2290039-0.0849609,0.4213867-0.25,0.5761719-0.4970703c0.1552734-0.2460938,0.2333984-0.5595703,0.2333984-0.9394531
					c0-0.390625-0.0834961-0.7119141-0.2495117-0.9638672s-0.3867188-0.4257812-0.6621094-0.5205078
					c-0.2749023-0.0957031-0.8374023-0.1425781-1.6875-0.1425781H131.4394379z"/>
				<path style="fill:#FFFFFF;" d="M139.3925629,715.8439941v-11.9580078h1.9736328v4.7558594h2.8061523
					c1.0439453,0,1.871582,0.3359375,2.4833984,1.0068359c0.6118164,0.671875,0.9179688,1.5566406,0.9179688,2.6552734
					c0,0.8974609-0.2475586,1.7119141-0.7426758,2.4433594c-0.4946289,0.7314453-1.3754883,1.0966797-2.6425781,1.0966797
					H139.3925629z M141.3661957,710.6643066v3.1572266h2.0839844c0.5429688,0,0.9350586-0.0371094,1.1762695-0.1103516
					c0.2416992-0.0732422,0.453125-0.2460938,0.6352539-0.5185547c0.1816406-0.2714844,0.2724609-0.5839844,0.2724609-0.9375
					c0-1.0605469-0.6674805-1.5908203-2.0024414-1.5908203H141.3661957z M149.147934,715.8439941v-11.9580078h1.9736328v11.9580078
					H149.147934z"/>
				<path style="fill:#FFFFFF;" d="M152.0268402,715.8439941l3.3891602-6.2236328l-3.0795898-5.734375h2.3134766
					l1.9433594,3.5771484l1.9526367-3.5771484h2.2900391l-3.0786133,5.7207031l3.3886719,6.2373047h-2.3876953l-2.1767578-4.0527344
					l-2.1811523,4.0527344H152.0268402z"/>
				<path style="fill:#FFFFFF;" d="M161.7494965,709.9387207c0-1.4248047,0.2109375-2.5976562,0.6323242-3.5195312
					s0.972168-1.6083984,1.6518555-2.0595703s1.503418-0.6777344,2.4711914-0.6777344
					c1.4033203,0,2.5463867,0.5361328,3.4301758,1.6074219c0.8833008,1.0712891,1.3251953,2.5966797,1.3251953,4.5761719
					c0,2.0009766-0.4677734,3.5644531-1.402832,4.6894531c-0.8212891,0.9951172-1.9360352,1.4931641-3.3442383,1.4931641
					c-1.4194336,0-2.5395508-0.4921875-3.3603516-1.4765625
					C162.2172699,713.4455566,161.7494965,711.9016113,161.7494965,709.9387207z M163.7890472,709.8566895
					c0,1.3759766,0.2612305,2.4082031,0.7841797,3.0957031c0.5224609,0.6884766,1.1708984,1.0322266,1.9438477,1.0322266
					c0.7788086,0,1.4243164-0.3417969,1.9365234-1.0244141c0.5117188-0.6816406,0.7675781-1.7304688,0.7675781-3.1435547
					c0-1.3867188-0.2490234-2.4121094-0.7475586-3.0751953c-0.4980469-0.6640625-1.1503906-0.9951172-1.956543-0.9951172
					c-0.8056641,0-1.4619141,0.3339844-1.9682617,1.0029297
					C164.0419769,707.4182129,163.7890472,708.4543457,163.7890472,709.8566895z"/>
				<path style="fill:#FFFFFF;" d="M180.3710785,713.8215332h0.8486328v4.6240234h-1.6235352v-2.6015625h-6.190918v2.6015625
					h-1.6230469v-4.6240234h0.815918c0.3208008-0.8378906,0.5678711-1.8496094,0.7421875-3.0351562
					c0.1738281-1.1845703,0.2607422-2.9521484,0.2607422-5.3017578v-1.5986328h6.7700195V713.8215332z M178.3974457,705.9094238
					h-2.9199219c0,3.5253906-0.2695312,6.1630859-0.8076172,7.9121094h3.7275391V705.9094238z"/>
			</g>
			<g>
				<path style="fill:#FFFFFF;" d="M131.7497253,698.5874023h-0.2788239v-1.1686401
					c0.8912048,0.045105,1.3365936-0.3460083,1.3365936-1.1741943c0-0.3018188-0.0865021-0.5419922-0.259964-0.72052
					c-0.1729889-0.1794434-0.4099426-0.2686768-0.7108612-0.2686768c-0.5180664,0-0.8539429,0.322998-1.0080719,0.9680176
					l-1.2473297-0.3569946c0.2562714-1.2561035,1.0158997-1.8845825,2.2788696-1.8845825
					c0.680954,0,1.2280121,0.1867676,1.6421051,0.5603638c0.414093,0.3726807,0.6211395,0.8539429,0.6211395,1.4438477
					c0,0.7324829-0.3492279,1.3214111-1.0471954,1.7667847c0.84198,0.3689575,1.2629852,1.0149536,1.2629852,1.9379272
					c0,0.7058105-0.213028,1.2606812-0.6395416,1.6646118c-0.4260559,0.4039917-1.0287933,0.6055298-1.8077393,0.6055298
					c-0.65979,0-1.1773987-0.1315918-1.5528412-0.3947754s-0.666687-0.7683716-0.8737335-1.515564l1.1737213-0.473938
					c0.1159363,0.4417114,0.266861,0.7380371,0.4527283,0.887085c0.1858826,0.1491089,0.4421692,0.2236328,0.7683716,0.2236328
					c0.3542786,0,0.6367798-0.0957031,0.8475037-0.2871094c0.2107391-0.1914062,0.3156433-0.444458,0.3156433-0.7600708
					c0-0.3303833-0.1113586-0.5880127-0.3340454-0.7739258
					C132.4665527,698.6803589,132.1532288,698.5874023,131.7497253,698.5874023z"/>
				<path style="fill:#FFFFFF;" d="M141.1551056,701.8292847h-1.3844452l-0.5544281-1.7474976h-2.5328522l-0.5231323,1.7474976
					h-1.3577576l2.4638367-7.7158813h1.3526917L141.1551056,701.8292847z M138.8049011,698.7769775l-0.8732605-2.8636475
					l-0.8571777,2.8636475H138.8049011z"/>
				<path style="fill:#FFFFFF;" d="M143.1128387,701.8292847h-1.2735596v-7.7158813h5.0528259v7.7158813h-1.2740173v-6.4110718
					h-2.505249V701.8292847z"/>
				<path style="fill:#FFFFFF;" d="M153.9132385,701.8292847h-1.3844452l-0.5544128-1.7474976h-2.5328522l-0.5231476,1.7474976
					h-1.3577576l2.4638519-7.7158813h1.3526917L153.9132385,701.8292847z M151.5630493,698.7769775l-0.8732758-2.8636475
					l-0.8571625,2.8636475H151.5630493z"/>
				<path style="fill:#FFFFFF;" d="M158.6347961,698.9923096l1.2367554,0.4794312
					c-0.1927795,0.8631592-0.5139313,1.4934692-0.9629974,1.8919067c-0.4490509,0.3984375-1.0020905,0.597229-1.6582031,0.597229
					c-0.8244934,0-1.4930267-0.3175049-2.0051117-0.9523926c-0.589386-0.7333984-0.8843231-1.7235718-0.8843231-2.9685669
					c0-1.315918,0.2967682-2.3456421,0.8903046-3.0900879c0.5162354-0.6450195,1.2100677-0.9680176,2.0810394-0.9680176
					c0.7094727,0,1.3029938,0.2420044,1.7805786,0.7260132c0.3409424,0.3441772,0.5903168,0.8548584,0.7481232,1.5321655
					l-1.26297,0.368042c-0.0809784-0.4177246-0.2415466-0.7379761-0.4826508-0.9606934
					c-0.2406311-0.2226562-0.5245056-0.3339844-0.851181-0.3339844c-0.467926,0-0.84935,0.2033691-1.1442719,0.6100464
					c-0.2953796,0.4076538-0.4430847,1.0794067-0.4430847,2.0161743c0,0.9717407,0.1440125,1.6637573,0.4315796,2.0741577
					s0.6611633,0.6156006,1.1212616,0.6156006c0.3368073,0,0.6280365-0.1306763,0.8737335-0.3920288
					C158.3486176,699.9760132,158.5262146,699.5609741,158.6347961,698.9923096z"/>
				<path style="fill:#FFFFFF;" d="M160.9661255,701.8292847v-7.7158813h1.2735596v3.0366211h2.5107727v-3.0366211h1.2735596
					v7.7158813h-1.2735596v-3.3734741h-2.5107727v3.3734741H160.9661255z"/>
				<path style="fill:#FFFFFF;" d="M167.3665924,701.8292847v-7.7158813h1.2735596v3.0679321h1.8105011
					c0.6740417,0,1.2082214,0.2171631,1.6029968,0.6505737c0.3947601,0.4334106,0.5921478,1.0039673,0.5921478,1.7134399
					c0,0.5787964-0.1601257,1.104248-0.4789734,1.5762939c-0.3193054,0.4720459-0.8879852,0.7076416-1.7055817,0.7076416
					H167.3665924z M168.640152,698.4871216v2.0372925h1.3448792c0.3501434,0,0.6031952-0.0239258,0.7591705-0.0717773
					c0.1555023-0.046936,0.29216-0.1582642,0.4094849-0.3339844c0.1173248-0.1757812,0.1762238-0.3773193,0.1762238-0.6055298
					c0-0.6837158-0.4311218-1.026001-1.2924347-1.026001H168.640152z M173.6612396,701.8292847v-7.7158813h1.2740173v7.7158813
					H173.6612396z"/>
				<path style="fill:#FFFFFF;" d="M176.1614227,701.8292847v-7.7158813h1.2160492v5.1420898l2.5632172-5.1420898h1.2786255
					v7.7158813h-1.2155914v-5.0316772l-2.5599976,5.0316772H176.1614227z M179.4667969,692.065918h0.589386
					c-0.0312958,0.491394-0.1711578,0.8696289-0.4182281,1.1346436c-0.2475433,0.2640991-0.5553436,0.3966064-0.9238892,0.3966064
					s-0.6763458-0.1325073-0.9234161-0.3966064c-0.2475433-0.2650146-0.3887939-0.6432495-0.4237518-1.1346436h0.589386
					c0.0455475,0.505188,0.2981415,0.7582397,0.757782,0.7582397S179.4249268,692.571106,179.4667969,692.065918z"/>
			</g>
		</g>
		<g>
			
				<rect x="705.1611328" y="686.3718262" transform="matrix(-1 -8.642211e-11 8.642211e-11 -1 1449.0712891 1411.4923096)" style="fill:#D4145A;" width="38.7490005" height="38.7486954"/>
			<g>
				<path style="fill:#FFFFFF;" d="M732.1307373,719.0178223c-0.4746094,0.2018433-1.038208,0.4088135-1.6846924,0.5866699
					c-0.2650757,0.0726929-0.5447388,0.1411133-0.8380737,0.2018433c-1.0654907,0.2188721-2.0112915,0.2778931-2.7681274,0.2736206
					c-2.3303223-2.1498413-5.5662231-5.6303711-8.2924805-10.6398926c-2.7484741-5.0531616-3.911499-9.7009277-4.4451294-12.838562
					c0.2026978-0.5609741,0.6054688-1.4571533,1.3981934-2.3474121c0.5361938-0.6028442,1.0963135-1.0270386,1.5657959-1.321228
					c0.2163696-0.1350708,0.4147339-0.2428589,0.5823364-0.3275146c0.6345215,0.7226562,1.4811401,1.8497314,2.1481934,3.3967285
					c0.6763916,1.5709229,0.9124756,2.9810791,0.9988403,3.9465332c-0.1453857,0.0675659-0.3515015,0.1813354-0.5490112,0.3643188
					c-0.0872192,0.0812378-0.171936,0.175293-0.2506104,0.28479c-0.3035889,0.4292603-0.3796997,0.9329834-0.3497314,1.4990845
					c0.1188354,2.2191162,1.8642578,5.3421631,2.1481323,5.8441772c0,0,0.87146,1.5392456,2.0985718,3.0973511
					c0,0,0.6798706,0.8637085,1.9976807,1.7479858c0.1188354,0.0795288,0.227478,0.1154175,0.2565308,0.1248169
					c0.0513306,0.0162964,0.0991821,0.0265503,0.1453857,0.0325317c0.117981,0.0187988,0.2172241,0.0111084,0.2856445,0.005127
					c0.3959351-0.0333862,0.7456665-0.2360229,0.8748169-0.3164062c0.7807617,0.5010986,1.9899292,1.4161377,3.048645,2.9160767
					C731.4431763,716.8842163,731.8998413,718.1635742,732.1307373,719.0178223z"/>
				<path style="fill:#FFFFFF;" d="M734.8995361,716.9724731c-0.0667114,0.1915894-0.1907349,0.4053345-0.6499634,0.7969971
					c-0.7687378,0.6559448-1.5777588,0.9851685-1.5777588,0.9851685s-0.687561-2.133606-1.6290894-3.4693604
					c-1.0586548-1.5-3.048645-2.9161377-3.048645-2.9161377s0.4429932-0.348877,0.7380371-0.5010986
					c1.1364746-0.5875244,2.2781372-0.4276123,2.7732544-0.3250122c1.147644,0.8817139,1.9002075,1.7514038,2.361084,2.361145
					c0.1470947,0.1940918,0.6721802,0.9013062,0.9740601,1.9172363
					C734.9876099,716.3200073,735.0106812,716.6526489,734.8995361,716.9724731z"/>
				<path style="fill:#FFFFFF;" d="M723.8765869,696.859375c-0.0102539,0.5772095-0.1171265,0.8696899-0.1958008,1.039856
					c-0.173584,0.3754272-0.4104614,0.5917969-0.8098145,0.9552002c-0.3061523,0.2788086-0.5618896,0.5071411-0.9740601,0.638855
					c-0.2120972,0.0683594-0.5524292,0.1556396-0.5524292,0.1556396s-0.3223877-2.3756714-0.9988403-3.9465942
					c-0.6669922-1.5469971-2.1481323-3.3966675-2.1481323-3.3966675s0.7294312-0.5841064,1.4580078-0.7756348
					c0.7029419-0.1847534,1.2930298-0.1120605,1.6034546-0.0513306c0.5353394,0.5336304,1.6419067,1.7351074,2.243103,3.3171387
					C723.6439819,695.1704102,723.8945923,695.9246826,723.8765869,696.859375z"/>
			</g>
		</g>
		<g>
			
				<rect x="749.2043457" y="686.3718262" transform="matrix(-1 -8.670366e-11 8.670366e-11 -1 1537.1577148 1411.4923096)" style="fill:#D4145A;" width="38.7490005" height="38.7486954"/>
			<path style="fill:#FFFFFF;" d="M769.2001953,695.2246094v-1.4598389l0.9290161-0.0099487
				c0.5130615,0,0.9290161-0.4158936,0.9290161-0.9290161c0-0.5130615-0.4159546-0.9289551-0.9290161-0.9289551h-0.9290161
				v-0.4846802h-2.8677368v0.4846802h-0.7230225l-4.9317627,3.352417v2.0195923h0.9290161v-1.2925415l4.1293945-2.1744385
				l0.5963745-0.0063477v1.4290771c-1.8302612,0.534668-3.1677246,2.2242432-3.1677246,4.2272339v20.6282959h9.2032471v-20.6282959
				C772.367981,697.4488525,771.0304565,695.7592773,769.2001953,695.2246094z"/>
		</g>
		<g>
			
				<rect x="793.2476196" y="685.7332764" transform="matrix(-1 -8.670366e-11 8.670366e-11 -1 1625.2442627 1410.21521)" style="fill:#D4145A;" width="38.7490005" height="38.7486954"/>
			<g>
				<path style="fill:#FFFFFF;" d="M802.8838501,710.048584L802.8838501,710.048584
					c-0.5349121,0-0.9685059-0.4336548-0.9685059-0.9685059v-16.2590942c0-0.5349121,0.4335938-0.9685669,0.9685059-0.9685669l0,0
					c0.5349121,0,0.9685059,0.4336548,0.9685059,0.9685669v16.2590942
					C803.852356,709.6149292,803.4187622,710.048584,802.8838501,710.048584z"/>
				<path style="fill:#FFFFFF;" d="M801.2841797,713.7984619h-1.9370728v-20.977478
					c0-0.5349121,0.4335938-0.9685669,0.9685059-0.9685669l0,0c0.5349121,0,0.9685669,0.4336548,0.9685669,0.9685669V713.7984619z"
					/>
				<path style="fill:#FFFFFF;" d="M805.4520874,710.048584L805.4520874,710.048584
					c-0.5349121,0-0.9685669-0.4336548-0.9685669-0.9685059v-16.2590942c0-0.5349121,0.4336548-0.9685669,0.9685669-0.9685669l0,0
					c0.5349121,0,0.9685059,0.4336548,0.9685059,0.9685669v16.2590942
					C806.4205933,709.6149292,805.9869995,710.048584,805.4520874,710.048584z"/>
				<path style="fill:#FFFFFF;" d="M808.0203247,710.048584L808.0203247,710.048584
					c-0.5349121,0-0.9685669-0.4336548-0.9685669-0.9685059v-16.2590942c0-0.5349121,0.4336548-0.9685669,0.9685669-0.9685669l0,0
					c0.5348511,0,0.9685059,0.4336548,0.9685059,0.9685669v16.2590942
					C808.9888306,709.6149292,808.5551758,710.048584,808.0203247,710.048584z"/>
				<path style="fill:#FFFFFF;" d="M810.588501,710.048584L810.588501,710.048584
					c-0.5348511,0-0.9685059-0.4336548-0.9685059-0.9685059v-16.2590942c0-0.5349121,0.4336548-0.9685669,0.9685059-0.9685669l0,0
					c0.5349121,0,0.9685669,0.4336548,0.9685669,0.9685669v16.2590942
					C811.5570679,709.6149292,811.1234131,710.048584,810.588501,710.048584z"/>
				<path style="fill:#FFFFFF;" d="M812.1882324,710.9578857L812.1882324,710.9578857v-20.1842651l0,0
					c0.7076416,0,1.281311,0.5736694,1.281311,1.281311v17.621582
					C813.4695435,710.3842163,812.895874,710.9578857,812.1882324,710.9578857z"/>
				<path style="fill:#FFFFFF;" d="M798.7159424,710.9578857h-1.2813721v-18.9029541
					c0-0.7076416,0.5737305-1.281311,1.2813721-1.281311l0,0V710.9578857z"/>
				<rect x="799.0911865" y="713.9838257" style="fill:#FFFFFF;" width="2.4488771" height="0.6867263"/>
				<polygon style="fill:#FFFFFF;" points="800.8158569,719.4415894 799.8153687,719.4415894 799.3514404,714.855957 
					801.2797852,714.855957 				"/>
				<path style="fill:#FFFFFF;" d="M823.5006714,696.036499c-0.2059937-0.026001-0.4165649-0.039917-0.6300049-0.039917
					c-0.2133789,0-0.4230957,0.013916-0.6290894,0.039917c-2.2240601,0.282959-3.9860229,2.0449829-4.269043,4.2681274h-5.6209106
					v1.2600098h5.6209106c0.28302,2.2240601,2.0449829,3.986084,4.269043,4.269043
					c0.2059937,0.026001,0.4157104,0.039917,0.6290894,0.039917c0.2134399,0,0.4240112-0.013916,0.6300049-0.039917
					c2.4300537-0.30896,4.30896-2.3845825,4.30896-4.8990479
					C827.8096313,698.4210815,825.9307251,696.345459,823.5006714,696.036499z M826.628479,700.3046265h-3.1278076v-3.1268921
					C825.1002808,697.4440308,826.3621826,698.7059326,826.628479,700.3046265z M822.2415771,697.1777344v3.1268921h-3.1278076
					C819.3800659,698.7059326,820.6419678,697.4431152,822.2415771,697.1777344z M819.1137695,701.5646362h3.1278076v3.1278076
					C820.6419678,704.427063,819.3791504,703.1642456,819.1137695,701.5646362z M823.5006714,704.6924438v-3.1278076h3.1278076
					C826.3621826,703.1642456,825.1002808,704.427063,823.5006714,704.6924438z"/>
			</g>
		</g>
		<g>
			
				<rect x="881.3341064" y="685.3180542" transform="matrix(-1 -8.646873e-11 8.646873e-11 -1 1801.4172363 1409.3848877)" style="fill:#D4145A;" width="38.7490005" height="38.7486954"/>
			<g>
				
					<rect x="887.6047974" y="700.8624268" transform="matrix(-1 -2.511559e-11 2.511559e-11 -1 1801.4276123 1409.3848877)" style="fill:#FFFFFF;" width="26.2180004" height="7.6599607"/>
				
					<rect x="887.6047974" y="700.8624268" transform="matrix(-2.525465e-11 1 -1 -2.525465e-11 1605.40625 -196.021347)" style="fill:#FFFFFF;" width="26.2180004" height="7.6599607"/>
			</g>
		</g>
		<g>
			
				<rect x="837.2908936" y="685.7332764" transform="matrix(-1 -8.642211e-11 8.642211e-11 -1 1713.3306885 1410.21521)" style="fill:#D4145A;" width="38.7490005" height="38.7486954"/>
			
				<rect x="843.5563965" y="691.9985962" transform="matrix(-8.644659e-11 1 -1 -8.644659e-11 1561.7729492 -151.5577545)" style="fill:#FFFFFF;" width="26.2180004" height="26.2180004"/>
			<circle style="fill:#D4145A;" cx="856.6653442" cy="705.107605" r="11.8004265"/>
			<circle style="fill:#FFFFFF;" cx="856.6668701" cy="705.107605" r="4.9837599"/>
		</g>
	</g>
	<g>
	</g>
	<g>
	</g>
	<g>
	</g>
	<g>
	</g>
	<g>
	</g>
	<g>
	</g>
	<g>
	</g>
	<g>
	</g>
	<g>
	</g>
	<g>
	</g>
	<g>
	</g>
	<g>
	</g>
	<g>
	</g>
	<g>
	</g>
	<g>
	</g>
</g>
</svg>
