<?xml version="1.0" encoding="UTF-8" standalone="no"?>
<!DOCTYPE svg PUBLIC "-//W3C//DTD SVG 1.1//EN" "http://www.w3.org/Graphics/SVG/1.1/DTD/svg11.dtd">
<svg width="100%" height="100%" viewBox="0 0 801 456" version="1.1" xmlns="http://www.w3.org/2000/svg" xmlns:xlink="http://www.w3.org/1999/xlink" xml:space="preserve" xmlns:serif="http://www.serif.com/" style="fill-rule:evenodd;clip-rule:evenodd;stroke-linecap:round;stroke-linejoin:round;stroke-miterlimit:1.5;">
    <g transform="matrix(1,0,0,1,-9124,-64)">
        <g id="_017" serif:id="017" transform="matrix(1,0,0,0.757523,9124.09,64.8258)">
            <rect x="0" y="0" width="800" height="600" style="fill:none;"/>
            <g transform="matrix(1,0,0,1.32009,696.777,-327.058)">
                <text x="11.943px" y="670.261px" style="font-family:'Arial-BoldMT', 'Arial', sans-serif;font-weight:700;font-size:16px;">Complexity</text>
            </g>
            <g transform="matrix(1,0,0,1.32009,13.829,-843.163)">
                <text x="11.943px" y="670.261px" style="font-family:'Arial-BoldMT', 'Arial', sans-serif;font-weight:700;font-size:16px;">Potential accuracy</text>
            </g>
            <g transform="matrix(1,0,0,2.1096,0,-110.681)">
                <g transform="matrix(1,-0,-0,0.625754,-0.0937826,51.9487)">
                    <path d="M3.991,31.885L12.991,13.885L21.991,31.885L3.991,31.885Z" style="fill:rgb(66,66,66);"/>
                    <path d="M12.991,449.673L12.991,28.285" style="fill:none;stroke:rgb(66,66,66);stroke-width:6px;"/>
                </g>
            </g>
            <g transform="matrix(3.65145e-16,1.32009,-2.91571,3.95225e-17,976.801,566.912)">
                <g transform="matrix(1.02682e-17,-0.342969,1,1.25234e-16,-430.275,335.045)">
                    <path d="M782.094,434.172L800.094,443.172L782.094,452.172L782.094,434.172Z" style="fill:rgb(66,66,66);"/>
                    <path d="M4.991,443.172L785.694,443.172" style="fill:none;stroke:rgb(66,66,66);stroke-width:6px;"/>
                </g>
            </g>
        </g>
    </g>
</svg>
