<svg id="Слой_1" data-name="Слой 1" xmlns="http://www.w3.org/2000/svg" viewBox="0 0 300 300"><defs><style>.cls-1{fill:#e55045;}.cls-2{fill:#c43730;}.cls-3{fill:#ff9a2d;}.cls-4{fill:#ff8d29;}.cls-5{fill:#fff;}.cls-6{fill:#d2b393;}.cls-7{fill:#f0dbbd;}</style></defs><title>1930639</title><path class="cls-1" d="M90.75,87h118.5V213H90.75Z"/><path class="cls-2" d="M189.32,87.8h19.93V212.2H189.32Z"/><path class="cls-3" d="M206,227.66H94a5.34,5.34,0,0,1-5.22-6.46l1.93-9h118.5l1.93,9A5.34,5.34,0,0,1,206,227.66Z"/><path class="cls-4" d="M211.18,221.2l-1.93-9H189.32l1.93,9a5.34,5.34,0,0,1-5.21,6.46H206A5.34,5.34,0,0,0,211.18,221.2Z"/><path class="cls-3" d="M209.25,87.8H90.75l-1.93-9A5.34,5.34,0,0,1,94,72.34H206a5.34,5.34,0,0,1,5.22,6.46Z"/><path class="cls-4" d="M206,72.34H186.05a5.34,5.34,0,0,1,5.22,6.46l-1.93,9h19.91l1.93-9A5.34,5.34,0,0,0,206,72.34Z"/><path class="cls-5" d="M181.86,150A31.86,31.86,0,1,1,150,118.14,31.85,31.85,0,0,1,181.86,150Z"/><path class="cls-6" d="M148.86,149.6c6.7-5.31,11.26-10.83,14.86-6.28s2.94,15.47-3.77,20.78-16.91,3-20.51-1.56S142.15,154.91,148.86,149.6Z"/><path class="cls-7" d="M142.52,137.57c6.7-5.31,11.26-10.83,14.86-6.28s2.94,15.48-3.77,20.79-16.91,3-20.51-1.56S135.81,142.88,142.52,137.57Z"/><path d="M211.6,212V88.05l1.88-8.76A7.68,7.68,0,0,0,206,70H94a7.68,7.68,0,0,0-7.52,9.29l1.88,8.76V212l-1.88,8.76A7.68,7.68,0,0,0,94,230H206a7.68,7.68,0,0,0,7.52-9.29ZM91.71,75.8A3,3,0,0,1,94,74.69H206a3,3,0,0,1,2.93,3.62l-1.53,7.15H92.64l-1.53-7.15A3,3,0,0,1,91.71,75.8ZM208.29,224.2a3,3,0,0,1-2.33,1.11H94a3,3,0,0,1-2.93-3.62l1.53-7.15h8.21a2.35,2.35,0,1,0,0-4.69H93.09V90.15H206.91v119.7H111.83a2.35,2.35,0,1,0,0,4.69h95.53l1.53,7.15A3,3,0,0,1,208.29,224.2Z"/><path d="M159.22,129.83a6.21,6.21,0,0,0-4.29-2.54c-3.41-.34-6.54,2.31-10.52,5.67-1.07.9-2.17,1.84-3.35,2.77s-2.34,1.79-3.46,2.63c-4.14,3-7.4,5.47-7.85,8.83a6.25,6.25,0,0,0,1.51,4.78,14.17,14.17,0,0,0,6.09,4.22,6,6,0,0,0,.25,7.81c2.2,2.78,6.18,4.78,10.63,5.35a21.59,21.59,0,0,0,2.52.16,17,17,0,0,0,10.66-3.57A18.84,18.84,0,0,0,168,153.75c.66-4.67-.26-9.11-2.46-11.89a6.38,6.38,0,0,0-3.68-2.45A14.89,14.89,0,0,0,159.22,129.83Zm-24.28,19.23c-.6-.76-.55-1.13-.54-1.25.19-1.39,3.27-3.67,6-5.68,1.16-.86,2.35-1.74,3.59-2.72s2.37-1.94,3.47-2.87c2.55-2.16,5.43-4.59,6.9-4.59h.12c.12,0,.5.05,1.08.79,1.43,1.8,2,5.14,1.47,8.58a2.63,2.63,0,0,0-.06.39,13.94,13.94,0,0,1-4.8,8.53,12.89,12.89,0,0,1-9.68,2.45,2.91,2.91,0,0,0-.58-.09A11.46,11.46,0,0,1,134.94,149.06Zm28.44,4a14.12,14.12,0,0,1-4.89,9.16c-5.71,4.53-14.38,2.41-17.21-1.17-.65-.82-1.17-1.47,1.31-3.7.61.06,1.22.09,1.82.09a17,17,0,0,0,10.65-3.57,18.32,18.32,0,0,0,6.14-9.79,2.66,2.66,0,0,1,.69.65C163.26,146.51,163.85,149.78,163.38,153.1Z"/><path d="M138.53,182.23a34.21,34.21,0,0,0,33.33-58.55,2.34,2.34,0,1,0-3,3.6,29.63,29.63,0,0,1,8.95,32.62,29.52,29.52,0,1,1-17.91-37.71c.5.18,1,.37,1.48.57a2.34,2.34,0,0,0,1.8-4.33q-.84-.34-1.71-.66a34.21,34.21,0,1,0-22.94,64.46Z"/></svg>