<svg id="Слой_1" data-name="Слой 1" xmlns="http://www.w3.org/2000/svg" viewBox="0 0 300 300"><defs><style>.cls-1{fill:#ff8984;}.cls-2{fill:#fff;}.cls-3{fill:#f9d889;}.cls-4{fill:#935252;}.cls-5{fill:#ed6d66;}</style></defs><title>1930639</title><path class="cls-1" d="M174.62,222.89c-1.25,0-2.59,0-4,.1a114.6,114.6,0,0,0-15.55,1.9c-3.36.75-5.25,2.14-5.63,4.14a4.59,4.59,0,0,0,2,4.38,11,11,0,0,0,4.29,1.71,58.13,58.13,0,0,0,25.76-.05c5.32-1.22,6.83-3.62,7.17-5.41a4.06,4.06,0,0,0-1.19-3.89C185.45,223.86,181.14,222.89,174.62,222.89Z"/><path class="cls-2" d="M178.34,124.39A45.71,45.71,0,0,1,161.45,128c-1,0-1.93,0-2.87-.13-7.53-.65-14.58-3.92-21.4-7.09-2-.92-3.92-1.81-5.82-2.63-7-3-13-4.51-18.41-4.51a23.62,23.62,0,0,0-9.48,1.87l-.07,0-1.3.65,0,4.2,2.47-.65a9.49,9.49,0,0,1,2.44-.31,9.93,9.93,0,0,1,8,3.9c2.08,2.85,2.43,6.61,2.5,9.57,0,.82,0,1.67,0,2.49a33.62,33.62,0,0,0,.63,8c.76,3.17,2.91,7,6.66,8.15a8,8,0,0,0,2.42.35c2.13,0,5.42-.74,9-4.28a48,48,0,0,0,3.47-4,36.44,36.44,0,0,1,4.53-4.93,11.5,11.5,0,0,1,7.09-2.88,6.45,6.45,0,0,1,3.33.88c2.05,1.22,3.12,3.42,4.27,5.77a18.32,18.32,0,0,0,3.35,5.23,8.94,8.94,0,0,0,6.24,2.41,10.16,10.16,0,0,0,1.23-.08,9.16,9.16,0,0,0,6.7-4,17.59,17.59,0,0,0,1.73-4.32l0-.14c.18-.58.36-1.18.56-1.75.59-1.67,1.7-3.82,3.64-4.54a5.86,5.86,0,0,1,2.11-.32c.51,0,1,0,1.56.07s1.11.08,1.73.08a11.91,11.91,0,0,0,10-5.86l.74-.49.07-15.13-3,1.77A125.25,125.25,0,0,1,178.34,124.39Z"/><path class="cls-2" d="M186.45,152.25a69.59,69.59,0,0,0-21.85,3.5,140.12,140.12,0,0,0-15.76,6.7l0,0c-1.4.67-3,1.44-4.6,2.16-6.43,3-13.41,5.84-20.86,6.79a37.6,37.6,0,0,1-4.81.32,29.76,29.76,0,0,1-14-3.28l-2.85-1.53-.1,12.29.58.58.58.57h.33a31.08,31.08,0,0,0,14.33,3.26h0a51.18,51.18,0,0,0,17.79-3.55,142.56,142.56,0,0,0,17.74-8.75c3.83-2.12,7.79-4.3,11.81-6.2,8.43-4,16.22-6,23.18-6a32,32,0,0,1,8,1l2.43.62,0-7.47L196.7,153A70.09,70.09,0,0,0,186.45,152.25Z"/><path class="cls-2" d="M184.38,200.84a58.5,58.5,0,0,0-16.92,2.74,161.33,161.33,0,0,0-19.71,8l-.4.18c-2.42,1.1-4.93,2.24-7.4,3.3-7.72,3.32-17.91,7.12-28.32,7.12h-.11a18,18,0,0,1-7.52-1.32l-2.74-1.26-.12,13.88,1.29.48a27.47,27.47,0,0,0,9.52,1.62c6.32,0,13.25-1.84,20.6-5.48,3.84-1.9,7.55-4.1,11.14-6.22,5.43-3.23,11.05-6.56,17.06-8.81a54.56,54.56,0,0,1,34.8-1.14l2.51.76V212c0-2.47,0-4.94,0-7.39v-1.41l-1.34-.45A38.68,38.68,0,0,0,184.38,200.84Z"/><path class="cls-3" d="M187.71,133.85h-.06c-.48,0-1,0-1.48-.07h-.08c-.54,0-1.1-.07-1.67-.07a7,7,0,0,0-2.5.39c-1.88.71-3.37,2.52-4.33,5.25-.22.61-.4,1.21-.59,1.85l0,.06a16.69,16.69,0,0,1-1.61,4.07,7.85,7.85,0,0,1-5.85,3.49,10.52,10.52,0,0,1-1.12.07A7.62,7.62,0,0,1,163,146.8a17.1,17.1,0,0,1-3.13-4.93c-1.16-2.37-2.36-4.83-4.7-6.23a7.57,7.57,0,0,0-3.93-1,12.69,12.69,0,0,0-7.86,3.14,36.65,36.65,0,0,0-4.68,5.1l0,0a49.13,49.13,0,0,1-3.36,3.86c-2.57,2.55-5.47,3.95-8.16,3.95a6.74,6.74,0,0,1-2.07-.31c-3.28-1-5.18-4.44-5.87-7.3a33.73,33.73,0,0,1-.59-7.72c0-.82,0-1.68,0-2.52-.08-3.12-.45-7.11-2.73-10.24a11.18,11.18,0,0,0-8.93-4.36,10.51,10.51,0,0,0-3.6.61l-1.28.46-.39,48.81.92.58a30.15,30.15,0,0,0,15.94,4.21,39.66,39.66,0,0,0,4.95-.32c7.61-1,14.69-3.89,21.2-6.89,1.29-.6,2.59-1.21,3.86-1.82l.77-.36A136.1,136.1,0,0,1,165,156.87a68.7,68.7,0,0,1,31.18-2.75l2.22.32.12-27.16-3.36,3.4A10.6,10.6,0,0,1,187.71,133.85Z"/><path class="cls-3" d="M179.85,210.41a55.49,55.49,0,0,0-19.51,3.52c-6.1,2.29-11.77,5.65-17.26,8.9l-.11.07c-3.55,2.1-7.21,4.27-10.94,6.11-7.2,3.56-14,5.36-20.09,5.36a26.53,26.53,0,0,1-8.25-1.26l-2.54-.83-.05,6.25c0,2.89.14,6.14,2.32,8,1.58,1.34,3.8,1.52,5.76,1.52h1.07l78.33-1.91c3.37-.08,6.71-.5,8.34-3,1-1.47,1.05-3.2,1.06-5.33,0-7,0-14.56.07-23v-2.11l-2,.14A55.52,55.52,0,0,0,179.85,210.41Zm7.62,19c-.49,2.63-3.69,3.89-6.28,4.49A57,57,0,0,1,156,234a10.1,10.1,0,0,1-3.85-1.51,3.45,3.45,0,0,1-1.5-3.22c.29-1.5,1.88-2.58,4.72-3.21a118.35,118.35,0,0,1,19.26-2c8.18,0,11,1.59,12,2.54A2.94,2.94,0,0,1,187.47,229.44Z"/><path class="cls-4" d="M195.76,52.77a9.83,9.83,0,0,0-4.41-.82c-1.29,0-2.65.13-3.85.24-1,.09-1.85.17-2.65.19l-14.23.46.48,36-.48-36L132.81,54h0l-23.58.75c-2,.06-4.25.26-5.53,1.76-1,1.23-1.14,3-1.16,4.75l-.23,29.23,30.45-.75v0h0l-30.46.75-.21,25.41,2.64-1a23.9,23.9,0,0,1,8.19-1.37c5,0,10.72,1.33,17.11,3.95l2.4,1v0l1.41.64,2.69,1.24.65.29c6.81,3.17,13.86,6.44,21.4,7.09.93.08,1.9.12,2.86.12a39.75,39.75,0,0,0,8.62-1l1.55-.34-.51-37.8-3.77.09,3.77-.09.51,37.84,2.51-.79c1.39-.44,2.81-.94,4.22-1.5,6.27-2.52,12.16-6,17.89-9.44l2.32.47.13-27.26-10.27.25,10.27-.25.07-15.63c0-1.37,0-2.76.07-4.11v-.49c.06-3,.13-6.08,0-9.09C198.7,56.52,198.24,54,195.76,52.77Zm-63,64.3,0-26.57Z"/><path class="cls-5" d="M196.59,159.07a33.19,33.19,0,0,0-8.68-1.11c-7.12,0-15.08,2.06-23.67,6.11-4,1.89-8,4.07-11.77,6.17l-.11.06A141.56,141.56,0,0,1,134.77,179a50,50,0,0,1-17.37,3.47,30.21,30.21,0,0,1-13-2.76l-2.77-1.31-.34,42.17.91.58c2.3,1.47,5.27,2.16,9.36,2.18h.09c10.65,0,21-3.86,28.8-7.22,2.62-1.13,5.27-2.33,7.82-3.49l.07,0a159.79,159.79,0,0,1,19.5-7.86,57.22,57.22,0,0,1,16.58-2.7,38.09,38.09,0,0,1,11.22,1.62l2.53.78v-3.77q.06-8.82.11-17.65l.1-22v-1.77Z"/><path d="M200.76,58.74c-.08-1.6-.29-5.85-4.15-7.73-2.79-1.36-6.24-1-9.29-.76-.91.08-1.77.16-2.53.18l-75.62,2.41c-2.43.07-5.16.33-7,2.44-1.59,1.88-1.61,4.36-1.62,6L99.15,238.51c0,2.41-.06,6.9,3,9.5,2.06,1.75,4.76,2,6.9,2l1.24,0,78.34-1.91c2.44-.06,7.51-.18,9.93-3.87,1.35-2.06,1.36-4.55,1.37-6.38,0-12.19.08-24.58.15-36.57q.06-9.12.11-18.25l.52-110.47c0-1.48,0-3,.07-4.49C200.85,65,200.91,61.84,200.76,58.74Zm-42,154.72A116.23,116.23,0,0,0,147,219.84c-2.27,1.35-4.62,2.74-7,4a90,90,0,0,1-17.07,7c-8.1,2.39-14.38,2.51-19.17.36.07-2.95-.09-6-.2-8.87a76.8,76.8,0,0,0,13.63,1.35,46.89,46.89,0,0,0,11.39-1.31c6.81-1.68,13-5.06,18.93-8.32a105,105,0,0,1,13.49-6.57,82.62,82.62,0,0,1,13.62-3.5c7.29-1.34,14.92-2.2,21.4.58l0,1.37c0,1.69-.22,3.45-.34,5.21C184.22,207.25,170.87,208.07,158.79,213.46Zm37.62-55.25c-6.78-2.55-15-2.54-23.44.08-7.74,2.4-14.78,6.55-21.57,10.57l-.73.43c-7.46,4.4-14.23,8.2-21.59,10.17a45.15,45.15,0,0,1-19.25.87,16.28,16.28,0,0,1-6.14-2.13q0-3.62,0-7.24a23.55,23.55,0,0,0,12.24,3.45h.47a39.79,39.79,0,0,0,8.94-1.45,105.09,105.09,0,0,0,16.86-5.65c2.41-1.07,4.78-2.27,7.07-3.42,2.57-1.3,5.23-2.64,7.89-3.77a65.88,65.88,0,0,1,39.29-3.73C196.41,157,196.41,157.6,196.41,158.21ZM103.5,218.33q-.16-7.11-.11-14.22c0-7.16.21-14.32.28-21.49a23.56,23.56,0,0,0,5.5,1.55,47.91,47.91,0,0,0,8.29.71,48.86,48.86,0,0,0,12.63-1.65c7.84-2.1,14.86-6,22.56-10.58l.73-.43c6.61-3.9,13.44-7.93,20.74-10.2,8.19-2.54,16.08-2.39,22.27.4q-.06,10.28-.11,20.56l-.06,11.81q0,2.81-.06,5.61c-7-2.5-14.81-1.62-22.2-.26a86.66,86.66,0,0,0-14.27,3.68,107.9,107.9,0,0,0-14,6.8c-6,3.29-11.67,6.4-18,8C120.92,220.25,113.2,220.17,103.5,218.33Zm93-79.69q0,6.88-.05,13.76a69.85,69.85,0,0,0-40.84,4.11c-2.78,1.18-5.49,2.55-8.12,3.88-2.25,1.14-4.57,2.31-6.89,3.34a101.7,101.7,0,0,1-16.24,5.43,36.69,36.69,0,0,1-8.06,1.34,19.62,19.62,0,0,1-12.38-4.09,1.17,1.17,0,0,0-.3-.19c0-3,0-5.95,0-8.92.06-8.71.27-17.43.34-26.14,0-2.37-.7-6-.54-9A1.84,1.84,0,0,0,104,122c2.13-.91,6-2.17,8.28-.36,1,.82,1.7,2.26,2.18,4.52a57.41,57.41,0,0,1,.83,6.21c.14,1.46.29,3,.52,4.47.71,4.75,2.13,8.34,4.35,11a12.09,12.09,0,0,0,9,4.43,9.45,9.45,0,0,0,2.71-.39c2.72-.83,4.77-2.77,6.57-4.75.59-.65,1.18-1.31,1.76-2,2.41-2.75,4.7-5.35,7.63-7,3.2-1.77,7.84-2,10.09.74a12.84,12.84,0,0,1,1.75,3.43,16.18,16.18,0,0,0,2.32,4.42,10.22,10.22,0,0,0,9.65,3.4,12.58,12.58,0,0,0,8.19-5.65,26.5,26.5,0,0,0,2-4c.35-.8.68-1.56,1-2.29.72-1.4,1.93-3.18,3.62-3.71a9.48,9.48,0,0,1,3.33-.16,23.79,23.79,0,0,0,2.41.06,10.36,10.36,0,0,0,4-.9C196.35,135.15,196.49,136.84,196.49,138.64Zm.12-25.6a1.93,1.93,0,0,0-1.4.22c-5.64,3.37-11.47,6.85-17.6,9.31-1.38.55-2.74,1-4.08,1.46l-.45-33.29,23.64-.58ZM179.06,126.2A127.42,127.42,0,0,0,196.59,117c0,3.54,0,7.09-.2,10.63l-.06,1a5.74,5.74,0,0,1-4.23,1.77c-.63,0-1.3,0-2-.06a12.68,12.68,0,0,0-4.73.33c-2.39.76-4.38,2.66-5.92,5.65-.43.84-.8,1.7-1.16,2.53a23.88,23.88,0,0,1-1.73,3.47,8.8,8.8,0,0,1-5.61,3.93,6.32,6.32,0,0,1-5.92-2,13.06,13.06,0,0,1-1.73-3.4,15.75,15.75,0,0,0-2.37-4.48c-3.67-4.45-10.47-4.18-15-1.67-3.53,1.95-6.15,4.93-8.68,7.81-.56.65-1.13,1.3-1.71,1.93-1.42,1.56-3,3.09-4.81,3.64-2.46.75-5.6-.41-7.63-2.82-1.77-2.09-2.87-5-3.48-9-.21-1.4-.35-2.86-.49-4.28a62.12,62.12,0,0,0-.9-6.62c-.42-2-1.25-4.9-3.55-6.76s-5.7-2.3-9.68-1.13a4.46,4.46,0,0,1,2-1.15c7.87-2.1,16.32.49,23.54,3.61,1.92.83,3.87,1.74,5.76,2.61,7,3.24,14.18,6.58,22.06,7.27,1,.08,2,.13,3,.13A47.46,47.46,0,0,0,179.06,126.2Zm5.86-71.86c.87,0,1.79-.12,2.76-.2,2.53-.24,5.41-.5,7.22.38,1.28.63,1.83,1.87,2,4.42.15,3,.08,6,0,9,0,1.5-.06,3-.07,4.57l-.07,13.73-23.7.59-.44-32.11Zm-50.16,1.59,33.93-1.08.43,32.08-34.4.85Zm-.07,61.16,0-25.4,34.45-.85.47,34.23a36.1,36.1,0,0,1-10.89.84c-7.2-.63-14.09-3.83-20.75-6.92l-3.35-1.54A2.2,2.2,0,0,0,134.69,117.09Zm-30.2-55.77c0-1.43.08-2.77.7-3.5.76-.9,2.51-1,4.1-1.08l21.56-.68,0,31.82-26.54.65Zm-.25,31.11,26.57-.65,0,24c-10.67-4.39-19.44-5.25-26.71-2.62ZM196,237.81c0,1.79-.07,3.23-.74,4.25-1.13,1.74-3.92,2-6.75,2.11l-78.34,1.91c-2.2,0-4.27,0-5.52-1.05-2.54-2.16-1.55-6.63-1.18-9.43l0-.3a23.47,23.47,0,0,0,8.11,1.33,44.42,44.42,0,0,0,12.44-2,94,94,0,0,0,17.82-7.3c2.42-1.3,4.81-2.72,7.12-4.09A110.19,110.19,0,0,1,160.38,217c11.59-5.17,24.39-5.82,35.19-1.79,0,.58.05,1.16.11,1.74C196.42,223.81,196.06,230.89,196,237.81Z"/><path d="M187.8,225.21a52.61,52.61,0,0,0-35-.42,8.09,8.09,0,0,0-3.33,1.91,4.23,4.23,0,0,0-.73,5.07,5.16,5.16,0,0,0,2.73,2,49,49,0,0,0,37.18-1,4.42,4.42,0,0,0,2.48-2.23,3.3,3.3,0,0,0,0-2.58A5.94,5.94,0,0,0,187.8,225.21Zm-.76,4a45,45,0,0,1-34.19.89,4.73,4.73,0,0,1-.76-.34.87.87,0,0,1,.19-.37,4.72,4.72,0,0,1,1.78-.9,48.63,48.63,0,0,1,32.38.38,3.81,3.81,0,0,1,.64.32Z"/></svg>