<svg id="Слой_1" data-name="Слой 1" xmlns="http://www.w3.org/2000/svg" viewBox="0 0 300 300"><defs><style>.cls-1{fill:#995023;}.cls-2{fill:#7a3e1a;}.cls-3{fill:#e8594a;}.cls-4{fill:#fdb62f;}.cls-5{fill:#bf3f3b;}.cls-6{fill:#d6d9db;}.cls-7{fill:#fd6f0a;}.cls-8{fill:#faa400;}</style></defs><title>1930639</title><g id="filled_outline" data-name="filled outline"><rect class="cls-1" x="152.18" y="85.71" width="72.13" height="52.09" transform="translate(-23.88 165.84) rotate(-45)"/><rect class="cls-2" x="196.65" y="67.29" width="20.04" height="52.09" transform="translate(-5.47 173.47) rotate(-45)"/><rect class="cls-2" x="175.5" y="99" width="5.67" height="5.67"/><rect class="cls-2" x="169.83" y="113.17" width="5.67" height="5.67"/><rect class="cls-1" x="198.16" y="84.83" width="5.67" height="5.67"/><rect class="cls-2" x="198.16" y="116" width="5.67" height="5.67"/><polygon class="cls-3" points="144.33 118.83 198.16 138.67 130.16 206.67 124.5 220.84 79.16 175.5 93.33 169.84 144.33 118.83"/><polygon class="cls-4" points="167 147.17 153.14 129.85 113.16 169.84 121.66 195.34 170.89 146.11 167 147.17"/><polygon class="cls-5" points="79.16 175.5 124.5 220.84 113.16 232.17 110.33 223.67 101.83 220.84 98.99 212.34 90.49 209.51 87.66 201 79.16 198.17 76.33 189.67 67.83 186.84 79.16 175.5"/><polygon class="cls-6" points="144.33 118.83 167 147.17 198.16 138.67 144.33 118.83"/><path class="cls-7" d="M138.66,186.84H133V171l-3.67,3.66a2.84,2.84,0,0,1-4,0,2.92,2.92,0,0,1-.81-1.62l-2.83-19.83,5.61-.81,2,14.23,4.5-4.49a2.83,2.83,0,0,1,4.84,2Z"/><rect class="cls-1" x="139.15" y="150" width="16.03" height="5.67" transform="translate(-64.97 148.82) rotate(-45)"/><polygon class="cls-5" points="167 147.17 186.83 150 198.16 138.67 167 147.17"/><polygon class="cls-8" points="167 147.17 169.48 147.52 170.89 146.11 167 147.17"/><path d="M197.33,65.83a2.82,2.82,0,0,0-4,0L179.16,80l-36.83,36.83-50.6,50.59-13.62,5.45h0l0,0a2.78,2.78,0,0,0-.82.54l-.1.07L65.83,184.83a2.83,2.83,0,0,0,1.11,4.69l7.15,2.39,2.39,7.15a2.86,2.86,0,0,0,1.79,1.8l7.16,2.38,2.39,7.16a2.82,2.82,0,0,0,1.79,1.79l7.15,2.38,2.39,7.16a2.8,2.8,0,0,0,1.79,1.79l7.15,2.39,2.39,7.15a2.83,2.83,0,0,0,3.59,1.79,2.86,2.86,0,0,0,1.1-.68l11.34-11.33.06-.1a2.81,2.81,0,0,0,.55-.82v0h0l5.45-13.63,67.6-67.6L220,120.84l14.17-14.17a2.83,2.83,0,0,0,0-4ZM168.05,144,152.9,125l36,13.26Zm29.4-8.57-48-17.68L181.16,86,214,118.84Zm-83,91.55L113,222.78a2.84,2.84,0,0,0-1.79-1.8l-7.15-2.38-2.39-7.16a2.82,2.82,0,0,0-1.79-1.79l-7.16-2.39-2.38-7.15a2.85,2.85,0,0,0-1.79-1.79l-7.16-2.39L79,188.78a2.84,2.84,0,0,0-1.79-1.8l-4.15-1.38,6.09-6.09,41.33,41.33Zm13.76-22.26a2.77,2.77,0,0,0-.63,1l-4.07,10.18L84.2,176.54l10.18-4.07a2.87,2.87,0,0,0,1-.63l48.76-48.75,5.26,6.56L131,148l4,4,17.91-17.91,11.55,14.46-22.13,22.13,4,4,26-26,16.26-4.44ZM218,114.83,185.17,82l10.16-10.16,32.83,32.83Z"/><rect x="175.5" y="99" width="5.67" height="5.67"/><rect x="169.83" y="113.17" width="5.67" height="5.67"/><rect x="198.16" y="84.83" width="5.67" height="5.67"/><rect x="198.16" y="116" width="5.67" height="5.67"/><path d="M122.9,190.09l-6.49-19.49L118,169l-4-4-2.83,2.83a2.86,2.86,0,0,0-.69,2.9l8.51,25.5a2.82,2.82,0,0,0,3.58,1.79,2.68,2.68,0,0,0,1.1-.68l5.67-5.67-4-4Z"/><path d="M136.91,161.55a2.82,2.82,0,0,0-3.08.62l-4.5,4.49-2-14.23-5.61.81,2.83,19.83a2.83,2.83,0,0,0,3.2,2.41,2.79,2.79,0,0,0,1.62-.81L133,171v15.83h5.66V164.17A2.83,2.83,0,0,0,136.91,161.55Z"/><rect x="139.15" y="150" width="16.03" height="5.67" transform="translate(-64.97 148.82) rotate(-45)"/></g></svg>