<svg id="Слой_1" data-name="Слой 1" xmlns="http://www.w3.org/2000/svg" viewBox="0 0 300 300"><defs><style>.cls-1{fill:#b49cdc;}.cls-2{fill:#908cd6;}.cls-3{fill:#f7ef87;}.cls-4{fill:#efd176;}.cls-5{fill:#8ee2cf;}.cls-6{fill:#6fce91;}</style></defs><title>1930639</title><path class="cls-1" d="M145.89,161.74c-16.21,2.42-40.27-8.56-37.36-23.46,2-10.09,15.39-11.61,19.88-9.87-1.74-4.49-.22-17.92,9.87-19.88,14.9-2.91,25.88,21.15,23.46,37.35Z"/><path class="cls-2" d="M151.13,147.05a2.5,2.5,0,0,1-2.23-1.37l-6.64-13.2a2.49,2.49,0,1,1,4.45-2.24l6.64,13.2a2.48,2.48,0,0,1-2.22,3.61Z"/><path class="cls-2" d="M144.56,153.62a2.53,2.53,0,0,1-1.12-.27l-13.2-6.64a2.49,2.49,0,0,1,2.24-4.45l13.2,6.64a2.49,2.49,0,0,1-1.12,4.72Z"/><path class="cls-1" d="M179.06,194.91c-2.42,16.21,8.56,40.27,23.46,37.36,10.08-2,11.61-15.39,9.87-19.88,4.49,1.74,17.92.21,19.88-9.87,2.91-14.9-21.15-25.88-37.36-23.46Z"/><path class="cls-2" d="M209.44,198.8a2.48,2.48,0,0,1-1.12-.26l-13.2-6.65a2.49,2.49,0,1,1,2.23-4.45l13.21,6.65a2.49,2.49,0,0,1-1.12,4.71Z"/><path class="cls-2" d="M196.31,211.93a2.48,2.48,0,0,1-2.22-1.37l-6.64-13.21a2.49,2.49,0,1,1,4.44-2.24l6.65,13.21a2.5,2.5,0,0,1-2.23,3.61Z"/><circle class="cls-1" cx="170.4" cy="170.4" r="35.19"/><path class="cls-2" d="M192.44,197.83c-35.16-5.87-45.24-38.89-27.71-62.16a35.19,35.19,0,1,0,27.71,62.16Z"/><path class="cls-3" d="M145.52,145.52a35,35,0,0,0-10,20.1c17,10,28.89,33.37,55.12,33.55a35.93,35.93,0,0,0,4.62-3.89,35.07,35.07,0,0,0,10-20.23c-22.94-5-34-28.62-52.16-35.3A34.76,34.76,0,0,0,145.52,145.52Z"/><path class="cls-4" d="M192.42,197.83c-31.45-5.26-42.83-32.25-32.31-54.55a36.68,36.68,0,0,0-7-3.53,35.19,35.19,0,0,0-17.58,25.87c17,10,28.89,33.37,55.12,33.55.6-.43,1.18-.88,1.76-1.34Z"/><path class="cls-5" d="M120.94,154.11c2.42,16.21-8.56,40.27-23.46,37.36-10.08-2-11.61-15.39-9.87-19.88-4.49,1.74-17.92.21-19.88-9.87-2.91-14.9,21.15-25.88,37.36-23.46Z"/><path class="cls-6" d="M90.56,158a2.49,2.49,0,0,1-1.12-4.71l13.21-6.64a2.49,2.49,0,0,1,2.24,4.44l-13.21,6.65a2.48,2.48,0,0,1-1.12.26Z"/><path class="cls-6" d="M103.69,171.13a2.37,2.37,0,0,1-1.12-.27,2.49,2.49,0,0,1-1.11-3.34l6.65-13.2a2.49,2.49,0,0,1,4.45,2.23l-6.65,13.21a2.47,2.47,0,0,1-2.22,1.37Z"/><path class="cls-5" d="M154.12,120.94c16.2,2.42,40.26-8.56,37.35-23.46-2-10.09-15.39-11.61-19.88-9.87,1.74-4.49.22-17.92-9.87-19.88-14.9-2.91-25.88,21.15-23.46,37.36Z"/><path class="cls-6" d="M148.87,106.25a2.48,2.48,0,0,1-2.22-3.61l6.64-13.2a2.49,2.49,0,1,1,4.45,2.24l-6.64,13.2a2.5,2.5,0,0,1-2.23,1.37Z"/><path class="cls-6" d="M155.44,112.82a2.49,2.49,0,0,1-1.12-4.72l13.2-6.64a2.49,2.49,0,1,1,2.24,4.45l-13.2,6.64A2.5,2.5,0,0,1,155.44,112.82Z"/><circle class="cls-5" cx="129.6" cy="129.6" r="35.19"/><path class="cls-6" d="M156.12,152.73c-42.16,5.51-56.05-35.46-42.88-54.29a35.19,35.19,0,1,0,41.24,56C155.05,153.91,155.6,153.33,156.12,152.73Z"/><path class="cls-3" d="M104.72,154.48a35,35,0,0,0,20.1,10c10-17,33.37-28.89,33.55-55.12a35.23,35.23,0,0,0-24.12-14.62c-5,22.94-28.62,34-35.3,52.16a34.76,34.76,0,0,0,5.77,7.6Z"/><path class="cls-4" d="M124.82,164.46a77.94,77.94,0,0,1,10.39-13.13,37.23,37.23,0,0,1-24.05-22.26c-5.16,5.61-9.79,11.25-12.21,17.81a35.19,35.19,0,0,0,25.87,17.58Z"/><path d="M232.11,191a2.49,2.49,0,1,0-4.15,2.76,10.83,10.83,0,0,1,1.87,8.29,9.26,9.26,0,0,1-5,6.44c-4.17,2.3-9.49,2.4-11.58,1.59a2.49,2.49,0,0,0-3.22,3.22c.81,2.09.71,7.41-1.59,11.58a9.24,9.24,0,0,1-6.44,5,11,11,0,0,1-8.8-2.22c-5.38-3.91-9.83-12.28-11.41-21.29a37.84,37.84,0,0,0,24.49-24.5A42.42,42.42,0,0,1,220,186.71a2.44,2.44,0,0,0,1.24.34,2.49,2.49,0,0,0,1.25-4.65,47.21,47.21,0,0,0-15-5.42,37.79,37.79,0,0,0,.57-6.58,37.69,37.69,0,0,0-40.94-37.54c.09-1.08.14-2.16.14-3.26a37.79,37.79,0,0,0-.57-6.58c10.21-1.86,19.49-6.94,24.13-13.34A16,16,0,0,0,193.92,97a14.2,14.2,0,0,0-7.44-9.85,22.77,22.77,0,0,0-11.8-2.63A22.92,22.92,0,0,0,172,72.72a14.18,14.18,0,0,0-9.85-7.44,16,16,0,0,0-12.67,3.08C143.11,73,138,82.29,136.18,92.51l-1.38-.21h0a3,3,0,0,0-.42-.05,37.65,37.65,0,0,0-41.85,43.94,47.17,47.17,0,0,0-15.07,5.48A2.49,2.49,0,1,0,80,146,42.19,42.19,0,0,1,93.7,141a37.76,37.76,0,0,0,24.47,24.5c-1.58,9-6,17.39-11.41,21.29A11,11,0,0,1,98,189a9.24,9.24,0,0,1-6.44-5c-2.3-4.17-2.4-9.49-1.59-11.58a2.49,2.49,0,0,0-3.22-3.22c-2.09.81-7.41.71-11.58-1.59a9.24,9.24,0,0,1-5-6.44,10.87,10.87,0,0,1,1.93-8.38A2.49,2.49,0,1,0,68,150.07a15.93,15.93,0,0,0-2.69,12.12A14.2,14.2,0,0,0,72.72,172a22.9,22.9,0,0,0,11.8,2.64,22.9,22.9,0,0,0,2.64,11.8A14.2,14.2,0,0,0,97,193.92a15.1,15.1,0,0,0,2.91.28,16.54,16.54,0,0,0,9.76-3.36c6.4-4.64,11.48-13.92,13.34-24.13a37.79,37.79,0,0,0,6.58.57c1.1,0,2.18-.05,3.26-.14A37.72,37.72,0,0,0,177,207.51c1.86,10.21,6.94,19.49,13.34,24.13a16.54,16.54,0,0,0,9.76,3.36,15.1,15.1,0,0,0,2.91-.28,14.2,14.2,0,0,0,9.85-7.44,22.81,22.81,0,0,0,2.63-11.81,22.81,22.81,0,0,0,11.81-2.63,14.2,14.2,0,0,0,7.44-9.85,15.87,15.87,0,0,0-2.61-12Zm-30-12.76a2,2,0,0,0-.09.35,32.53,32.53,0,0,1-8.55,14.94,33.51,33.51,0,0,1-3.62,3.14c-16.11-.42-26.59-10.28-36.72-19.83a121.54,121.54,0,0,0-12.88-11.09A37.92,37.92,0,0,0,162.49,148c3.52,2.72,6.91,5.91,10.47,9.26,8.48,8,17.24,16.25,29.49,19.64-.09.44-.18.89-.29,1.32Zm-8.64-30.95a32.45,32.45,0,0,1,9.58,23.12c0,.5,0,1,0,1.5-10.73-3.22-18.83-10.85-26.69-18.25a134.18,134.18,0,0,0-11.7-10.23,36.84,36.84,0,0,0,1.69-5.47,32.77,32.77,0,0,1,27.16,9.33ZM152.44,72.39a11,11,0,0,1,8.8-2.22,9.24,9.24,0,0,1,6.44,5c2.3,4.17,2.4,9.49,1.59,11.58a2.49,2.49,0,0,0,3.22,3.22c2.09-.81,7.41-.71,11.58,1.59A9.22,9.22,0,0,1,189,98a11,11,0,0,1-2.22,8.8c-3.9,5.38-12.28,9.83-21.29,11.41A37.7,37.7,0,0,0,141,93.7C142.61,84.69,147.05,76.3,152.44,72.39Zm-46,34.09a32.57,32.57,0,0,1,23.12-9.56q.75,0,1.5,0c-3.22,10.73-10.85,18.83-18.25,26.68C107.5,129.3,102.39,134.72,99,141A32.72,32.72,0,0,1,106.48,106.48Zm15.29,54.88a2,2,0,0,0-.35-.09,32.53,32.53,0,0,1-14.94-8.55,32.21,32.21,0,0,1-4.77-6.06c2.94-7.07,8.69-13.18,14.76-19.62,8-8.48,16.24-17.23,19.64-29.47a32.46,32.46,0,0,1,16.61,8.91,33.51,33.51,0,0,1,3.14,3.62c-.42,16.11-10.28,26.59-19.83,36.72-4.67,5-9.09,9.65-12.46,14.93-.6-.12-1.21-.25-1.8-.39Zm13.4.47a33.23,33.23,0,0,1-5.57.47h-.39a122.48,122.48,0,0,1,10.45-12.06c8.33-8.84,17.6-18.67,20.37-32.64a32.11,32.11,0,0,1,1.24,3.82,1.89,1.89,0,0,0,.09.34,33.2,33.2,0,0,1,.47,13.41,2.87,2.87,0,0,0-.05.31,32.86,32.86,0,0,1-2.36,7.6,1.77,1.77,0,0,0-.15.31,32.85,32.85,0,0,1-23.81,18.4l-.29.05Zm43.06,40.33a32.91,32.91,0,0,1-7.83.94A32.69,32.69,0,0,1,137.71,170a122.18,122.18,0,0,1,12.06,10.43c8.84,8.34,18.67,17.6,32.64,20.38a32.26,32.26,0,0,1-3.83,1.24,2.25,2.25,0,0,0-.35.09Z"/></svg>