<svg id="Слой_1" data-name="Слой 1" xmlns="http://www.w3.org/2000/svg" viewBox="0 0 300 300"><defs><style>.cls-1{fill:#8eafe2;}.cls-2{fill:#6a96d7;}.cls-3{fill:#8ee2cf;}.cls-4{fill:#a3defe;}.cls-5{fill:#6fce91;}.cls-6{fill:#f7ef87;}.cls-7{fill:#efd176;}.cls-8{fill:#e8899e;}.cls-9{fill:#de5c6e;}.cls-10{fill:#fcf2d0;}.cls-11{fill:#f6e3a3;}</style></defs><title>1930639</title><path class="cls-1" d="M63.46,101.1l51.93-18.9a24.11,24.11,0,0,1,16.54,0l38.14,13.88a24.11,24.11,0,0,0,16.54,0L219.25,84.2a21.48,21.48,0,0,1,28.82,20.19V206.11a14.48,14.48,0,0,1-9.53,13.6l-51.93,18.91a24.23,24.23,0,0,1-16.54,0l-38.14-13.89a24.23,24.23,0,0,0-16.54,0L82.75,236.61a21.47,21.47,0,0,1-28.82-20.18V114.71a14.48,14.48,0,0,1,9.53-13.61Z"/><path class="cls-2" d="M170.07,96.08,131.93,82.2a24.22,24.22,0,0,0-8.27-1.46V223.28a24.21,24.21,0,0,1,8.27,1.45l38.14,13.89a24.21,24.21,0,0,0,8.27,1.45V97.54a24.22,24.22,0,0,1-8.27-1.46Z"/><path class="cls-3" d="M75.1,112.89l45.38-16.52a9.27,9.27,0,0,1,6.36,0L175.16,114a9.27,9.27,0,0,0,6.36,0l39-14.2A9.29,9.29,0,0,1,233,108.48V199.2a9.31,9.31,0,0,1-6.12,8.73l-45.38,16.52a9.27,9.27,0,0,1-6.36,0l-48.32-17.59a9.27,9.27,0,0,0-6.36,0l-39,14.21A9.29,9.29,0,0,1,69,212.34V121.62a9.29,9.29,0,0,1,6.12-8.73Z"/><path class="cls-4" d="M220.55,99.75l-15.09,5.49v39.62L233,172.42V108.48a9.29,9.29,0,0,0-12.47-8.73Z"/><path class="cls-4" d="M81.45,221.07l39-14.21a9.39,9.39,0,0,1,3.18-.56v-66L69,160.17v52.17A9.29,9.29,0,0,0,81.45,221.07Z"/><path class="cls-5" d="M178.34,114.51a9.15,9.15,0,0,1-3.18-.56L126.84,96.37a9.15,9.15,0,0,0-3.18-.56V206.3a9.39,9.39,0,0,1,3.18.56l48.32,17.59a9.39,9.39,0,0,0,3.18.56Z"/><path class="cls-6" d="M233,160l-19.13-19.13V102.17l-17.68,6.44V142a3.3,3.3,0,0,1-2.17,3.1l-12.29,4.48a10,10,0,0,1-6.82,0l-46.3-16.86a14.49,14.49,0,0,0-9.93,0L69,150.84v17.67l45.84-16.68v57.09l5.66-2.06a9.27,9.27,0,0,1,6.36,0l5.66,2.06V151.83l40.87,14.87a14.49,14.49,0,0,0,9.93,0l22.16-8.06L233,186.2V160Z"/><path class="cls-7" d="M126.84,206.86l5.66,2.06V151.83l40.87,14.87a14.43,14.43,0,0,0,5,.88V150.2a10,10,0,0,1-3.41-.6l-46.3-16.86a14.66,14.66,0,0,0-5-.87V206.3a9.39,9.39,0,0,1,3.18.56Z"/><path class="cls-8" d="M123.66,118.39c8.06,0,26.59-24.46,26.59-45.87a26.59,26.59,0,1,0-53.18,0C97.07,93.93,115.6,118.39,123.66,118.39Z"/><path class="cls-9" d="M113.8,47.83a26.6,26.6,0,0,0-16.73,24.7c0,21.4,18.53,45.86,26.59,45.86,4.47,0,12.17-7.54,18.14-17.9-21.05-6.14-35.17-37.86-28-52.66Z"/><circle class="cls-10" cx="123.65" cy="72.53" r="12.29"/><path class="cls-11" d="M113.09,66.26a12.28,12.28,0,0,0,8.42,18.36A55.4,55.4,0,0,1,113.09,66.26Z"/><path d="M122.66,90.74a15.22,15.22,0,1,0-15.22-15.22A15.24,15.24,0,0,0,122.66,90.74Zm0-24.58a9.36,9.36,0,1,1-9.36,9.36A9.37,9.37,0,0,1,122.66,66.16ZM55.86,211.92V117.71a11.59,11.59,0,0,1,7.6-10.86L97,94.63A72.21,72.21,0,0,0,100.9,103L73.09,113.13a12.26,12.26,0,0,0-8,11.48v90.72a12.22,12.22,0,0,0,16.4,11.49l39-14.21a6.38,6.38,0,0,1,4.35,0l48.32,17.59a12.18,12.18,0,0,0,8.36,0l45.39-16.52a12.26,12.26,0,0,0,8-11.48V111.48A12.23,12.23,0,0,0,218.55,100l-39,14.21a6.38,6.38,0,0,1-4.35,0L144.42,103a72.21,72.21,0,0,0,3.86-8.38l19.79,7.2a27.17,27.17,0,0,0,18.54,0l28.1-10.22a2.93,2.93,0,0,0-2-5.51L184.6,96.33a21.34,21.34,0,0,1-14.53,0l-19.93-7.26a49.75,49.75,0,0,0,2-13.55,29.52,29.52,0,0,0-59,0,50.14,50.14,0,0,0,2,13.55L61.46,101.35A17.45,17.45,0,0,0,50,117.71v94.21a2.93,2.93,0,0,0,5.86,0Zm55-2L79.45,221.31a6.35,6.35,0,0,1-8.54-6V173.56l40-14.55v50.86Zm118.2-7.67a6.37,6.37,0,0,1-4.19,6l-45.39,16.52a6.38,6.38,0,0,1-4.35,0l-40.73-14.82V159l36.94,13.45a17.5,17.5,0,0,0,11.94,0L203.7,165l25.39,25.38Zm-13.27-95,4.73-1.72a6.36,6.36,0,0,1,8.54,6V155.9l-13.27-13.27ZM198.14,145V113.66L210,109.35v34.49a2.91,2.91,0,0,0,.85,2.07l18.28,18.28v17.94l-22.56-22.56a2.93,2.93,0,0,0-3.08-.68L181.3,167a11.59,11.59,0,0,1-7.92,0L132.5,152.07a2.94,2.94,0,0,0-3.93,2.76v52.9l-1.73-.62a12.14,12.14,0,0,0-8.36,0l-1.73.62v-52.9a2.9,2.9,0,0,0-1.25-2.4,2.94,2.94,0,0,0-2.68-.36L70.91,167.33V155.88l47.79-17.39a11.59,11.59,0,0,1,7.92,0l46.31,16.86a13,13,0,0,0,8.82,0L194,150.87a6.24,6.24,0,0,0,4.1-5.85Zm-25-25.31a12.25,12.25,0,0,0,8.36,0l10.76-3.92V145a.37.37,0,0,1-.24.34l-12.3,4.48a7,7,0,0,1-4.81,0L128.63,133a17.5,17.5,0,0,0-11.94,0L70.91,149.65v-25a6.37,6.37,0,0,1,4.19-6l28.83-10.5c5,7.84,12.59,16.18,18.73,16.18s13.69-8.34,18.73-16.18Zm-50.5-67.85a23.68,23.68,0,0,1,23.66,23.66,46.08,46.08,0,0,1-2.53,14.3s0,0,0,.05a1.54,1.54,0,0,0-.05.17,66.66,66.66,0,0,1-6,13,.41.41,0,0,1-.05.09c-.36.6-.73,1.2-1.12,1.8-5.93,9.25-11.77,13.56-13.85,13.56s-7.92-4.31-13.85-13.56c-.39-.6-.76-1.2-1.12-1.8l0-.09a66.61,66.61,0,0,1-6-13l-.06-.17a.08.08,0,0,0,0-.05A46.08,46.08,0,0,1,99,75.52a23.68,23.68,0,0,1,23.66-23.66ZM243.34,90.62A24.49,24.49,0,0,0,227.61,83a2.93,2.93,0,0,0-.48,5.84,18.66,18.66,0,0,1,12,5.77,18.4,18.4,0,0,1,5,12.73V209.1a11.59,11.59,0,0,1-7.6,10.86l-51.93,18.9a21.25,21.25,0,0,1-14.54,0L131.93,225a27.1,27.1,0,0,0-18.54,0L80.75,236.86a18.38,18.38,0,0,1-14.45-.74,18.66,18.66,0,0,1-9.54-10.94A2.93,2.93,0,0,0,51.18,227a24.56,24.56,0,0,0,12.55,14.39,24.17,24.17,0,0,0,19,1l32.64-11.87a21.22,21.22,0,0,1,14.53,0l38.14,13.88a27.17,27.17,0,0,0,18.54,0l51.94-18.91A17.46,17.46,0,0,0,250,209.1V107.38a24.25,24.25,0,0,0-6.66-16.76Z"/></svg>