<svg id="Слой_1" data-name="Слой 1" xmlns="http://www.w3.org/2000/svg" viewBox="0 0 300 300"><defs><style>.cls-1{fill:#ffe046;}.cls-2{fill:#ffd508;}.cls-3{fill:#fcb54c;}.cls-4{fill:#fba72d;}.cls-5{fill:#dce6eb;}.cls-6{fill:#c8d2dc;}.cls-7{fill:#828282;}.cls-8{fill:#5a5a5a;}.cls-9{fill:#f76c57;}.cls-10{fill:#e5554e;}</style></defs><title>1930639</title><path class="cls-1" d="M144.5,62.64s17,6.75,17,24.15c0,7.28-4.26,14.2-4.26,14.2H131.71s-4.26-6.92-4.26-14.2C127.45,69.39,144.5,62.64,144.5,62.64Z"/><path class="cls-2" d="M157.86,73.89a20.73,20.73,0,0,1,.13,2.24A19.17,19.17,0,0,1,128.11,92a33.81,33.81,0,0,0,3.6,8.95h25.57s4.26-6.92,4.26-14.2A23.76,23.76,0,0,0,157.86,73.89Z"/><path class="cls-3" d="M144.5,83.94s7.57,3,7.57,10.74a13.89,13.89,0,0,1-1.89,6.31H138.81a13.89,13.89,0,0,1-1.89-6.31C136.92,86.94,144.5,83.94,144.5,83.94Z"/><path class="cls-4" d="M151.31,90.67a19.07,19.07,0,0,1-12.5,4.64c-.63,0-1.25,0-1.87-.09a14.31,14.31,0,0,0,1.87,5.77h11.37a13.89,13.89,0,0,0,1.89-6.31A10.57,10.57,0,0,0,151.31,90.67Z"/><path class="cls-5" d="M165.8,140.06H123.19V104.54a3.55,3.55,0,0,1,3.55-3.55h35.51a3.55,3.55,0,0,1,3.55,3.55Z"/><path class="cls-6" d="M161.54,101v30.9a3.55,3.55,0,0,1-3.55,3.55h-34.8v4.62H165.8V104.54a3.55,3.55,0,0,0-3.55-3.55Z"/><path class="cls-5" d="M187.11,108.09a10.66,10.66,0,1,1-10.65-10.65A10.65,10.65,0,0,1,187.11,108.09Z"/><path class="cls-6" d="M182.22,99.14a10.65,10.65,0,0,1-14.72,14.72,10.65,10.65,0,1,0,14.72-14.72Z"/><path class="cls-7" d="M165.8,118.75h29.84V129.4h-7.11v10.66H165.8Z"/><path class="cls-8" d="M191.37,118.75V123a2.13,2.13,0,0,1-2.13,2.13h-1.42a3.55,3.55,0,0,0-3.55,3.55v5a2.13,2.13,0,0,1-2.13,2.13H165.8v4.27h22.73V129.4h7.1V118.75Z"/><path class="cls-7" d="M123.19,140.06h65.34v10.65H123.19Z"/><path class="cls-8" d="M183.21,140.06h5.32v10.65h-5.32Z"/><path class="cls-9" d="M123.19,150.71h65.34v86.65H123.19Z"/><path class="cls-10" d="M144.5,237.36v-54a11.37,11.37,0,0,1,22.73,0v54Z"/><path class="cls-10" d="M183.21,150.71h5.32v86.65h-5.32Z"/><path class="cls-7" d="M134.91,111.65a2.49,2.49,0,1,1-2.49-2.49A2.49,2.49,0,0,1,134.91,111.65Z"/><path class="cls-7" d="M147.34,111.65a2.49,2.49,0,1,1-2.49-2.49A2.49,2.49,0,0,1,147.34,111.65Z"/><path class="cls-7" d="M159.77,111.65a2.49,2.49,0,1,1-2.49-2.49A2.49,2.49,0,0,1,159.77,111.65Z"/><path class="cls-7" d="M141.12,120.52a2.49,2.49,0,1,1-2.48-2.48A2.48,2.48,0,0,1,141.12,120.52Z"/><path class="cls-7" d="M153.55,120.52a2.49,2.49,0,1,1-2.48-2.48A2.48,2.48,0,0,1,153.55,120.52Z"/><path class="cls-7" d="M134.91,129.4a2.49,2.49,0,1,1-2.49-2.48A2.49,2.49,0,0,1,134.91,129.4Z"/><path class="cls-7" d="M147.34,129.4a2.49,2.49,0,1,1-2.49-2.48A2.49,2.49,0,0,1,147.34,129.4Z"/><path class="cls-7" d="M159.77,129.4a2.49,2.49,0,1,1-2.49-2.48A2.49,2.49,0,0,1,159.77,129.4Z"/><path d="M180,108.09a3.55,3.55,0,1,1-3.55-3.55A3.55,3.55,0,0,1,180,108.09Z"/><path d="M195.64,116.11h-8.59a13.28,13.28,0,0,0-20.91-16.38,6.19,6.19,0,0,0-3.89-1.38h-.7a30.46,30.46,0,0,0,2.63-11.56,27.24,27.24,0,0,0-9.39-20.56,33.88,33.88,0,0,0-9.32-6,2.63,2.63,0,0,0-1.95,0,34,34,0,0,0-9.32,6,27.24,27.24,0,0,0-9.39,20.56,30.26,30.26,0,0,0,2.64,11.56h-.71a6.2,6.2,0,0,0-6.19,6.19v64.63a2.64,2.64,0,1,0,5.27,0V153.35H185.9v15.82a2.64,2.64,0,1,0,5.27,0V132h4.46a2.64,2.64,0,0,0,2.64-2.64V118.75A2.64,2.64,0,0,0,195.64,116.11Zm-19.18-16a8,8,0,1,1-8,8A8,8,0,0,1,176.46,100.08ZM130.09,86.79c0-13.25,11-19.6,14.4-21.26,3.37,1.66,14.42,8.11,14.42,21.26,0,4.72-2.08,9.39-3.19,11.56h-1.57a13.25,13.25,0,0,0,.56-3.67c0-9.42-8.87-13-9.24-13.19a2.7,2.7,0,0,0-1.94,0c-.38.15-9.25,3.77-9.25,13.19a13.25,13.25,0,0,0,.56,3.67h-1.57C132.16,96.19,130.09,91.53,130.09,86.79Zm10.34,11.56a9.71,9.71,0,0,1-.87-3.67c0-4.39,3.25-6.83,4.93-7.79,1.69,1,4.95,3.4,4.95,7.79a9.71,9.71,0,0,1-.88,3.67Zm-14.61,6.19a.92.92,0,0,1,.92-.91h35.51a.92.92,0,0,1,.92.91v32.88H125.82Zm0,38.15H185.9v5.38H125.82ZM193,126.77h-4.47a2.63,2.63,0,0,0-2.63,2.63v8H168.44v-16H193Z"/><path d="M188.53,178.83a2.63,2.63,0,0,0-2.63,2.63v55.9a2.64,2.64,0,1,0,5.27,0v-55.9A2.64,2.64,0,0,0,188.53,178.83Z"/><path d="M123.19,178.83a2.64,2.64,0,0,0-2.64,2.63v55.9a2.64,2.64,0,1,0,5.27,0v-55.9A2.63,2.63,0,0,0,123.19,178.83Z"/><path d="M155.86,169.38a14,14,0,0,0-14,14v54a2.64,2.64,0,1,0,5.27,0v-54a8.73,8.73,0,0,1,17.46,0v54a2.64,2.64,0,1,0,5.27,0v-54A14,14,0,0,0,155.86,169.38Z"/><path d="M175,74.51a2.64,2.64,0,0,0,2.63-2.64V69.74a2.64,2.64,0,1,0-5.27,0v2.13A2.64,2.64,0,0,0,175,74.51Z"/><path d="M176.66,76.13a2.64,2.64,0,0,0,2.64,2.64h2.13a2.64,2.64,0,1,0,0-5.27H179.3A2.64,2.64,0,0,0,176.66,76.13Z"/><path d="M175,77.76a2.64,2.64,0,0,0-2.64,2.63v2.13a2.64,2.64,0,1,0,5.27,0V80.39A2.63,2.63,0,0,0,175,77.76Z"/><path d="M168.65,78.77h2.13a2.64,2.64,0,0,0,0-5.27h-2.13a2.64,2.64,0,1,0,0,5.27Z"/><path d="M110.76,88.71a2.63,2.63,0,0,0,2.63-2.63V83.94a2.64,2.64,0,0,0-5.27,0v2.14A2.64,2.64,0,0,0,110.76,88.71Z"/><path d="M117.15,87.7H115A2.64,2.64,0,1,0,115,93h2.13a2.64,2.64,0,1,0,0-5.27Z"/><path d="M110.76,92a2.64,2.64,0,0,0-2.64,2.64v2.13a2.64,2.64,0,1,0,5.27,0V94.6A2.64,2.64,0,0,0,110.76,92Z"/><path d="M109.13,90.34a2.64,2.64,0,0,0-2.63-2.64h-2.13a2.64,2.64,0,1,0,0,5.27h2.13A2.63,2.63,0,0,0,109.13,90.34Z"/></svg>