<svg id="Слой_1" data-name="Слой 1" xmlns="http://www.w3.org/2000/svg" viewBox="0 0 300 300"><defs><style>.cls-1{fill:#e5e5e5;}.cls-2{fill:#f57b78;}.cls-3{fill:#d32144;}.cls-4{fill:#ff5750;}.cls-5{fill:#ffa4a1;}</style></defs><title>1930639</title><path class="cls-1" d="M119,70.24a7.09,7.09,0,0,1-.33,2.19L109.39,102H94.18l10.56-33.9A7.28,7.28,0,0,1,119,70.24Z"/><path class="cls-1" d="M159.6,70.27a7.21,7.21,0,0,1-.33,2.16L150,102H134.8l10.58-33.9a7.28,7.28,0,0,1,14.22,2.16Z"/><path class="cls-1" d="M203,70.24a6.81,6.81,0,0,1-.33,2.19L193.38,102H178.17l10.56-33.9A7.28,7.28,0,0,1,203,70.24Z"/><path class="cls-2" d="M152.61,102H172.5l-22.8,63.53A69.11,69.11,0,0,0,148.08,207l0,.12a35.91,35.91,0,0,0,13.14,19.32l5.31,4a32.89,32.89,0,0,0,19.8,6.6h-40.7a32.87,32.87,0,0,1-19.8-6.6l-5.31-4a35.86,35.86,0,0,1-13.14-19.32l0-.12A69,69,0,0,1,109,165.54L131.8,102Z"/><path class="cls-3" d="M197,152.34a6.32,6.32,0,0,1,.57,2.67,7,7,0,0,1-2,4.92,6.92,6.92,0,0,1-4.95,2.07H175.14a6.94,6.94,0,0,1-4.59-1.74l-1.29-1.11a7,7,0,0,1-1.95-7.59l12.6-35.09a3.71,3.71,0,0,1,7.11.39l4.8,20.19A88.55,88.55,0,0,0,197,152.34Z"/><path class="cls-3" d="M226.23,199.17v3.66a22.19,22.19,0,0,1-7.32,16.47l-.33.3a20.85,20.85,0,0,1-14,5.4H186.21a21.06,21.06,0,0,1-12.6-4.2l-5.31-4a23.62,23.62,0,0,1-8.67-12.6,58,58,0,0,1-2.13-14.7,15.57,15.57,0,0,1,8.79-13.92l.12-.06A14.68,14.68,0,0,1,173,174h19a49.77,49.77,0,0,1,14.79,2.25l3,.93a21.39,21.39,0,0,1,9.39,6l1.71,1.89A21,21,0,0,1,226.23,199.17Z"/><path class="cls-4" d="M238.35,199.17v3.69a34.16,34.16,0,0,1-11.25,25.35l-.33.27A32.86,32.86,0,0,1,204.66,237h-18.3a32.89,32.89,0,0,1-19.8-6.6l-5.31-4a35.91,35.91,0,0,1-13.14-19.32l0-.12a69.11,69.11,0,0,1,1.62-41.43L172.5,102H196l7.68,32.28a74.89,74.89,0,0,0,17.28,32.87l8.94,9.9A33.15,33.15,0,0,1,238.35,199.17Zm-12.12,3.66v-3.66a21.08,21.08,0,0,0-5.43-14.07l-1.71-1.89a21.39,21.39,0,0,0-9.39-6l-3-.93A49.77,49.77,0,0,0,191.94,174H173a14.71,14.71,0,0,0-6.54,1.53l-.12.06a15.58,15.58,0,0,0-8.79,13.92,58,58,0,0,0,2.13,14.7,23.68,23.68,0,0,0,8.67,12.6l5.31,4a21.06,21.06,0,0,0,12.6,4.2h18.36a20.83,20.83,0,0,0,14-5.4l.33-.3A22.19,22.19,0,0,0,226.23,202.83ZM197.58,155a6.32,6.32,0,0,0-.57-2.67,88.84,88.84,0,0,1-5.19-15.29L187,116.86a3.72,3.72,0,0,0-7.11-.39l-12.6,35.09a7,7,0,0,0,1.95,7.59l1.29,1.11a6.94,6.94,0,0,0,4.59,1.74h15.45a6.92,6.92,0,0,0,4.95-2.07A7,7,0,0,0,197.58,155Z"/><path class="cls-5" d="M98.38,228.81a39.14,39.14,0,0,1-14.21-20.93,70.3,70.3,0,0,1-2.5-15.52l6-.3a64.1,64.1,0,0,0,2.26,14.1A33.27,33.27,0,0,0,102,224l5.33,4a30.11,30.11,0,0,0,18,6v3h20.35a32.89,32.89,0,0,1-19.8-6.6l-5.31-4a35.86,35.86,0,0,1-13.14-19.32l0-.12A69,69,0,0,1,109,165.54L131.8,102H88.51l-22.8,63.53A69,69,0,0,0,64.09,207l0,.12a35.86,35.86,0,0,0,13.14,19.32l5.31,4a32.89,32.89,0,0,0,19.8,6.6H111a35.92,35.92,0,0,1-7.25-4.2Z"/><path class="cls-3" d="M125.32,237h0v-3a30.09,30.09,0,0,1-18-6L102,224a33.14,33.14,0,0,1-12-17.85,64,64,0,0,1-2.27-14.09l-6,.3a70.41,70.41,0,0,0,2.51,15.52,39.2,39.2,0,0,0,14.2,20.93l5.34,4A35.92,35.92,0,0,0,111,237Z"/><rect class="cls-3" x="78.15" y="147.63" width="31.67" height="6" transform="translate(-79.5 188.38) rotate(-70.31)"/><polygon class="cls-3" points="105.55 127.3 99.91 125.25 102.93 116.86 108.58 118.89 105.55 127.3"/><path class="cls-3" d="M139.75,228.81a38.56,38.56,0,0,1-8.23-8.35l4.87-3.51a32.54,32.54,0,0,0,7,7.06Z"/><path class="cls-3" d="M125.49,207.81a71.8,71.8,0,0,1,1.68-43.28l5.65,2a65.69,65.69,0,0,0-1.55,39.64l-2.86.9Z"/><path d="M223.15,165.15a72,72,0,0,1-16.6-31.56l-7.68-32.28a3,3,0,0,0-1.54-1.92l8.13-26a9.8,9.8,0,0,0,.49-3.13,10.28,10.28,0,0,0-20.08-3L176,99H154.11l8-25.74a10.53,10.53,0,0,0,.45-3,10.27,10.27,0,0,0-20.08-3.06L132.59,99H113.47l8-25.64a9.8,9.8,0,0,0,.49-3.13,10.28,10.28,0,0,0-20.09-3L92,99H88.51a3,3,0,0,0-2.83,2L62.89,164.53a71.8,71.8,0,0,0-1.67,43.35,39.1,39.1,0,0,0,14.24,20.93l5.31,4a36.08,36.08,0,0,0,21.59,7.2h102.3a35.81,35.81,0,0,0,24-9.19l.44-.37a37.25,37.25,0,0,0,12.25-27.58v-3.69a36.16,36.16,0,0,0-9.26-24.12ZM191.59,69A4.28,4.28,0,0,1,200,70.24a3.77,3.77,0,0,1-.19,1.29L191.18,99h-8.93Zm-43.35,0a4.33,4.33,0,0,1,4.07-3,4.26,4.26,0,0,1,4.29,4.26,4.47,4.47,0,0,1-.19,1.26L147.83,99h-9ZM107.6,69A4.28,4.28,0,0,1,116,70.24a4,4,0,0,1-.2,1.29L107.18,99H98.26Zm17.72,165a30.09,30.09,0,0,1-18-6L102,224a33.15,33.15,0,0,1-12-17.84,64.21,64.21,0,0,1-2.27-14.1l-6,.3a70.41,70.41,0,0,0,2.51,15.52,39.2,39.2,0,0,0,14.2,20.93l5.34,4c.57.42,1.16.81,1.75,1.2h-3.09a30,30,0,0,1-18-6l-5.31-4A33.14,33.14,0,0,1,67,206.19a65.66,65.66,0,0,1,1.55-39.63L90.62,105h36.9l-21.36,59.52a71.8,71.8,0,0,0-1.66,43.35,39.09,39.09,0,0,0,14.23,20.93l5.33,4c.56.42,1.15.81,1.74,1.2Zm20.34,0a30.09,30.09,0,0,1-18-6l-5.32-4a33.12,33.12,0,0,1-12.08-17.82,65.73,65.73,0,0,1,1.54-39.63L133.91,105h34.33l-21.36,59.52a71.79,71.79,0,0,0-1.66,43.35,39.09,39.09,0,0,0,14.23,20.93l5.31,4c.57.42,1.16.81,1.74,1.2Zm89.69-31.14a31.12,31.12,0,0,1-10.15,23l-.44.37a29.87,29.87,0,0,1-20.1,7.73h-18.3a30.11,30.11,0,0,1-18-6l-5.31-4A33.19,33.19,0,0,1,151,206.19a65.73,65.73,0,0,1,1.55-39.63L174.62,105h19l7.13,30a78.05,78.05,0,0,0,18,34.2l8.93,9.9a30.1,30.1,0,0,1,7.72,20.1v3.68Z"/><rect x="78.15" y="147.64" width="31.67" height="6" transform="translate(-79.52 188.33) rotate(-70.29)"/><polygon points="108.58 118.89 102.93 116.86 99.91 125.25 105.55 127.3 108.58 118.89"/><path d="M136.39,217l-4.87,3.51a38.34,38.34,0,0,0,8.23,8.35l3.59-4.8A32.32,32.32,0,0,1,136.39,217Z"/><path d="M132.82,166.55l-5.65-2a71.8,71.8,0,0,0-1.68,43.28l2.92-.72,2.86-.9A65.69,65.69,0,0,1,132.82,166.55Z"/><path d="M221.32,181.2a24.42,24.42,0,0,0-10.72-6.9l-3-.92A52.51,52.51,0,0,0,191.94,171H173a17.64,17.64,0,0,0-8,1.91,18.61,18.61,0,0,0-10.46,16.64A60.66,60.66,0,0,0,156.74,205a26.76,26.76,0,0,0,9.76,14.21l5.32,4a23.9,23.9,0,0,0,14.4,4.8h18.36a23.77,23.77,0,0,0,16-6.19l.32-.3a25.25,25.25,0,0,0,8.31-18.69v-3.65A24,24,0,0,0,223,183.09Zm1.91,21.64a19.22,19.22,0,0,1-6.34,14.25l-.32.3a17.81,17.81,0,0,1-12,4.62H186.21a17.93,17.93,0,0,1-10.8-3.6l-5.31-4a20.72,20.72,0,0,1-7.57-11,54.23,54.23,0,0,1-2-13.93,12.65,12.65,0,0,1,7.26-11.27A11.52,11.52,0,0,1,173,177h19a47.07,47.07,0,0,1,13.9,2.1l2.95.93a18.38,18.38,0,0,1,8.08,5.18l1.7,1.89a18,18,0,0,1,4.66,12.07v3.67Z"/><path d="M168.57,162.52a9.94,9.94,0,0,0,6.57,2.48h15.45a10,10,0,0,0,10-10,9.39,9.39,0,0,0-.83-3.9,86.51,86.51,0,0,1-5-14.77l-4.8-20.17a6.68,6.68,0,0,0-6.55-5.16,6.76,6.76,0,0,0-6.3,4.44l-12.6,35.1a10,10,0,0,0,2.82,10.87Zm1.57-9.94,12.6-35.08a.71.71,0,0,1,.65-.49.68.68,0,0,1,.71.54l4.8,20.19a91.94,91.94,0,0,0,5.37,15.83,3.45,3.45,0,0,1,.3,1.44,4,4,0,0,1-1.2,2.83,3.9,3.9,0,0,1-2.78,1.16H175.14a4,4,0,0,1-2.63-1l-1.25-1.08A4,4,0,0,1,170.14,152.58Z"/></svg>