<?xml version="1.0" encoding="utf-8"?>
<!-- Generator: Adobe Illustrator 23.0.4, SVG Export Plug-In . SVG Version: 6.00 Build 0)  -->
<svg version="1.1" id="Слой_1" xmlns="http://www.w3.org/2000/svg" xmlns:xlink="http://www.w3.org/1999/xlink" x="0px" y="0px"
	 viewBox="0 0 300 300" style="enable-background:new 0 0 300 300;" xml:space="preserve">
<style type="text/css">
	.st0{fill:#93A3AF;}
	.st1{fill:#ED7A98;}
	.st2{fill:#EB5777;}
	.st3{fill:#7FB7EA;}
	.st4{fill:#5F9EEB;}
</style>
<title>1930639</title>
<path class="st0" d="M209.4,112.9h-5.1V82h5.1c2.2,0,3.9,1.8,3.9,3.9v23C213.3,111.1,211.6,112.9,209.4,112.9
	C209.4,112.9,209.4,112.9,209.4,112.9z"/>
<path class="st0" d="M90.6,148.4h5.1v-15.2h-5.1c-2.2,0-3.9,1.8-3.9,3.9l0,0v7.4C86.7,146.7,88.5,148.4,90.6,148.4L90.6,148.4z"/>
<path class="st0" d="M90.6,120.7h5.1V82h-5.1c-2.2,0-3.9,1.8-3.9,3.9v0v30.9C86.7,119,88.5,120.7,90.6,120.7z"/>
<path class="st0" d="M90.6,172.7h5.1v-15.2h-5.1c-2.2,0-3.9,1.8-3.9,3.9l0,0v7.4C86.7,170.9,88.5,172.7,90.6,172.7L90.6,172.7z"/>
<path class="st1" d="M94.7,239.3V60.7c0-4.3,3.5-7.8,7.8-7.8h95c4.3,0,7.8,3.5,7.8,7.8v178.5c0,4.3-3.5,7.8-7.8,7.8h-95
	C98.2,247.1,94.7,243.6,94.7,239.3z"/>
<path class="st2" d="M205.3,60.7v178.5c0,4.3-3.5,7.8-7.8,7.8h-7.6c4.3,0,7.8-3.5,7.8-7.8V60.7c0-4.3-3.5-7.8-7.8-7.8h7.6
	C201.8,52.9,205.3,56.4,205.3,60.7z"/>
<path class="st3" d="M94.7,72.7h110.6v154.7H94.7V72.7z"/>
<path class="st4" d="M197.7,72.7h7.6v154.7h-7.6V72.7z"/>
<path d="M209.4,79.1h-1.1V60.7c0-5.9-4.8-10.7-10.8-10.7H184c-1.6,0-2.9,1.3-2.9,2.9s1.3,2.9,2.9,2.9h13.5c2.7,0,4.9,2.2,4.9,4.9v9
	H97.6v-9c0-2.7,2.2-4.9,4.9-4.9h68.7c1.6,0,2.9-1.3,2.9-2.9s-1.3-2.9-2.9-2.9h-68.7c-5.9,0-10.7,4.8-10.8,10.7v18.4h-1.1
	c-3.8,0-6.8,3.1-6.8,6.8v30.9c0,3.8,3.1,6.8,6.8,6.8h1.1v6.6h-1.1c-3.8,0-6.8,3.1-6.8,6.8v7.4c0,3.8,3.1,6.8,6.8,6.8h1.1v3.1h-1.1
	c-3.8,0-6.8,3.1-6.8,6.8v7.4c0,3.8,3.1,6.8,6.8,6.8h1.1v63.7c0,5.9,4.8,10.7,10.8,10.7h95c5.9,0,10.7-4.8,10.8-10.7v-32.4
	c0-1.6-1.3-2.9-2.9-2.9c-1.6,0-2.9,1.3-2.9,2.9v17.6H97.6V75.6h104.8v118.5c0,1.6,1.3,2.9,2.9,2.9c1.6,0,2.9-1.3,2.9-2.9v-78.3h1.1
	c3.8,0,6.8-3.1,6.8-6.8V86C216.2,82.2,213.2,79.1,209.4,79.1C209.4,79.1,209.4,79.1,209.4,79.1z M90.6,117.8c-0.6,0-1-0.4-1-1V85.9
	c0-0.6,0.4-1,1-1h1.1v32.8L90.6,117.8z M90.6,145.5c-0.6,0-1-0.4-1-1v-7.4c0-0.6,0.4-1,1-1h1.1v9.4L90.6,145.5z M90.6,169.7
	c-0.6,0-1-0.4-1-1v-7.4c0-0.6,0.4-1,1-1h1.1v9.4L90.6,169.7z M202.4,230.3v9c0,2.7-2.2,4.9-4.9,4.9h-95c-2.7,0-4.9-2.2-4.9-4.9v-9
	H202.4z M210.4,109c0,0.6-0.4,1-1,1h-1.1V85h1.1c0.6,0,1,0.4,1,1V109z"/>
<path d="M142.4,60.5c-1.6,0-2.9,1.3-2.9,2.9c0,1.6,1.3,2.9,2.9,2.9h15.3c1.6,0,2.9-1.3,2.9-2.9s-1.3-2.9-2.9-2.9l0,0L142.4,60.5z"/>
<path d="M160.7,200.3c0-1.6-1.3-2.9-2.9-2.9h-15.5c-1.6,0-2.9,1.3-2.9,2.9c0,1.6,1.3,2.9,2.9,2.9h15.5
	C159.4,203.2,160.7,201.9,160.7,200.3L160.7,200.3z"/>
<path d="M148.1,205.3c-1.6,0-2.9,1.3-2.9,2.9c0,1.6,1.3,2.9,2.9,2.9h3.8c1.6,0,2.9-1.3,2.9-2.9c0-1.6-1.3-2.9-2.9-2.9H148.1z"/>
<path d="M181.3,201L181.3,201c1.6,0,2.9-1.3,2.9-2.9v-1.2c0.1-1.6-1.1-3-2.7-3.1c-1.6-0.1-3,1.1-3.1,2.7c0,0.1,0,0.2,0,0.3v1.2
	C178.3,199.7,179.7,201,181.3,201C181.3,201,181.3,201,181.3,201z"/>
<path d="M181.2,212.6L181.2,212.6c1.6,0,2.9-1.3,2.9-2.9v-1.2c0-1.6-1.2-3-2.9-3c0,0,0,0,0,0l0,0c-1.6,0-2.9,1.3-2.9,2.9v1.2
	C178.2,211.2,179.5,212.5,181.2,212.6C181.2,212.6,181.2,212.6,181.2,212.6z"/>
<path d="M186.4,206.2h1.2c1.6,0,2.9-1.3,2.9-2.9c0-1.6-1.3-2.9-2.9-2.9h-1.2c-1.6,0-2.9,1.3-2.9,2.9
	C183.5,204.9,184.8,206.2,186.4,206.2L186.4,206.2z"/>
<path d="M176.1,200.3h-1.2c-1.6,0-2.9,1.3-3,2.9c0,1.6,1.3,2.9,2.9,3h1.2c1.6,0,2.9-1.3,2.9-2.9C179,201.6,177.7,200.3,176.1,200.3
	L176.1,200.3z"/>
<path d="M116.4,194c-1.6,0-3,1.2-3,2.9c0,0,0,0,0,0v1.2c0,1.6,1.3,3,2.9,3c0,0,0,0,0,0l0,0c1.6,0,2.9-1.3,2.9-2.9V197
	C119.3,195.4,118,194.1,116.4,194z"/>
<path d="M116.3,205.5L116.3,205.5c-1.6,0-2.9,1.3-2.9,2.9v1.2c0,1.6,1.2,3,2.9,3c0,0,0,0,0,0l0,0c1.6,0,2.9-1.3,2.9-2.9v-1.2
	C119.3,206.9,118,205.5,116.3,205.5C116.4,205.5,116.3,205.5,116.3,205.5z"/>
<path d="M121.5,206.3h1.2c1.6,0,2.9-1.3,2.9-2.9s-1.3-2.9-2.9-2.9h-1.2c-1.6,0-2.9,1.3-3,2.9S119.8,206.3,121.5,206.3L121.5,206.3z"
	/>
<path d="M111.2,200.3H110c-1.6,0-2.9,1.3-3,2.9c0,1.6,1.3,2.9,2.9,3h1.2c1.6,0,2.9-1.3,2.9-2.9S112.8,200.3,111.2,200.3L111.2,200.3
	z"/>
</svg>
