<svg id="Слой_1" data-name="Слой 1" xmlns="http://www.w3.org/2000/svg" viewBox="0 0 300 300"><defs><style>.cls-1{fill:#e2e8ed;}.cls-2{fill:#cfdde8;}.cls-3{fill:#e03233;}.cls-4{fill:#c31610;}.cls-5{fill:#7c5032;}.cls-6{fill:#6d4429;}</style></defs><title>1930639</title><path class="cls-1" d="M159.7,80.57V68.16H140.3V80.57a39.7,39.7,0,0,0-30,38.49V235.54a11.52,11.52,0,0,0,20.91,6.69,11.52,11.52,0,0,0,18.77,0,11.52,11.52,0,0,0,18.77,0,11.52,11.52,0,0,0,20.91-6.69V119.06A39.7,39.7,0,0,0,159.7,80.57Z"/><path class="cls-2" d="M159.7,80.57V68.16h-8v15a1.91,1.91,0,0,0,.94,1.67,39.72,39.72,0,0,1,19.55,34.2V235.54a11.5,11.5,0,0,1-2.78,7.5,11.53,11.53,0,0,0,9.07,4,11.69,11.69,0,0,0,11.21-11.77V119.06A39.71,39.71,0,0,0,159.7,80.57Z"/><path class="cls-3" d="M162.56,68.16H137.44a2,2,0,0,1-2-2V54.88a2,2,0,0,1,2-2h25.12a2,2,0,0,1,2,2V66.21A2,2,0,0,1,162.56,68.16Z"/><path class="cls-4" d="M160.61,68.16h-9V52.93h9a3.91,3.91,0,0,1,3.91,3.91v7.41A3.91,3.91,0,0,1,160.61,68.16Z"/><path id="SVGCleanerId_0" data-name="SVGCleanerId 0" class="cls-5" d="M189.68,119.06V235.54a11.52,11.52,0,0,1-20.91,6.69,11.52,11.52,0,0,1-18.77,0,11.52,11.52,0,0,1-18.77,0,11.52,11.52,0,0,1-20.91-6.69V119.06a39.51,39.51,0,0,1,1.51-10.89h76.34A39.89,39.89,0,0,1,189.68,119.06Z"/><path id="SVGCleanerId_0-2" data-name="SVGCleanerId 0" class="cls-5" d="M189.68,119.06V235.54a11.52,11.52,0,0,1-20.91,6.69,11.52,11.52,0,0,1-18.77,0,11.52,11.52,0,0,1-18.77,0,11.52,11.52,0,0,1-20.91-6.69V119.06a39.51,39.51,0,0,1,1.51-10.89h76.34A39.89,39.89,0,0,1,189.68,119.06Z"/><path class="cls-6" d="M189.68,119.06V235.54A11.52,11.52,0,0,1,169.4,243a11.5,11.5,0,0,0,2.78-7.5V119.06a39.51,39.51,0,0,0-1.52-10.89h17.51A39.89,39.89,0,0,1,189.68,119.06Z"/><rect class="cls-3" x="110.32" y="126.41" width="79.36" height="52.43"/><rect class="cls-4" x="172.18" y="126.41" width="17.51" height="52.43"/><path class="cls-1" d="M125.77,126.41s-9.77,10.66-4.3,29.42c0,0,6.26,16.72,4.3,23H150s5.08-6.86-3-23c-4.71-9.4-4.15-20.64,2.49-28.79l.52-.63Z"/><circle class="cls-1" cx="147.11" cy="208.78" r="2.93"/><circle class="cls-1" cx="151.69" cy="195.27" r="2.93"/><circle class="cls-1" cx="165.46" cy="203.11" r="2.93"/><circle class="cls-1" cx="165.46" cy="189.24" r="2.93"/><circle class="cls-1" cx="131.05" cy="192.17" r="2.93"/><circle class="cls-1" cx="131.05" cy="211.71" r="2.93"/><circle class="cls-1" cx="157.55" cy="217.57" r="2.93"/><path d="M191,107.31h0a42.54,42.54,0,0,0-28.34-28.95V71.09a4.89,4.89,0,0,0,4.82-4.88V54.88A4.89,4.89,0,0,0,162.56,50H137.44a4.89,4.89,0,0,0-4.89,4.88V66.21a4.89,4.89,0,0,0,4.82,4.88v7.26a42.52,42.52,0,0,0-28.34,29h0a42.75,42.75,0,0,0-1.64,11.75v86.79a2.93,2.93,0,0,0,5.86,0V181.77h73.5v53.77a8.59,8.59,0,0,1-15.59,5,2.94,2.94,0,0,0-4.78,0,8.59,8.59,0,0,1-14,0,2.93,2.93,0,0,0-4.77,0,8.59,8.59,0,0,1-14,0,2.93,2.93,0,0,0-4.77,0,8.59,8.59,0,0,1-15.59-5v-8.46a2.93,2.93,0,0,0-5.86,0v8.46a14.45,14.45,0,0,0,23.84,11,14.43,14.43,0,0,0,18.77,0,14.43,14.43,0,0,0,18.77,0,14.45,14.45,0,0,0,23.84-11V163.22a2.93,2.93,0,1,0-5.86,0v12.69H154.17c.8-4.15.59-11.12-4.56-21.39-4.3-8.6-3.61-18.19,1.79-25.18h35.35v12.94a2.93,2.93,0,1,0,5.86,0V119.06A42.75,42.75,0,0,0,191,107.31ZM138.41,55.86h23.18v9.37H138.41V55.86ZM141,83.42a2.93,2.93,0,0,0,2.22-2.85V71.09h13.54v9.48A2.93,2.93,0,0,0,159,83.42a36.65,36.65,0,0,1,25.08,21.82H115.93A36.65,36.65,0,0,1,141,83.42Zm-27.76,45.92h7.15c-2.66,5.26-5.45,14.58-1.74,27.31a1.18,1.18,0,0,0,.07.2s1.54,4.14,2.8,8.92a40.62,40.62,0,0,1,1.69,10.14h-10V129.34Zm31.12,27.81c4.75,9.48,4.72,15.81,3.79,18.76H129.07c.05-7.45-3.82-18.33-4.81-21-4-13.92.94-22.75,2.94-25.57h17.22A30.17,30.17,0,0,0,144.37,157.15ZM150,123.48H113.25v-4.42a36.77,36.77,0,0,1,.87-8h71.76a36.77,36.77,0,0,1,.87,8v4.42Z"/></svg>