<svg id="Слой_1" data-name="Слой 1" xmlns="http://www.w3.org/2000/svg" viewBox="0 0 300 300"><defs><style>.cls-1{fill:#fee372;}.cls-2{fill:#cce6f6;}.cls-3{fill:#fb6572;}.cls-4{fill:#9dcae0;}.cls-5{fill:#ea394e;}.cls-6{fill:#4695bc;}.cls-7{fill:#0e708e;}</style></defs><title>1930639</title><path class="cls-1" d="M162.87,106.49s-11.77-8.89-15.5-3-3.33,9.87,1.84,15"/><path class="cls-2" d="M244.4,159.4c0,10.1-13.84,17.35-30.54,17.35H124.67a89.4,89.4,0,0,1-20.22-2.17c-13.27-3.09-19.33-8.37-19.33-8.37l5.93-14.29,14.6.72Z"/><path class="cls-3" d="M244.4,159.4a122.81,122.81,0,0,1-38.23,5.93c-16,0-69.61-7.09-97.67-11-10.52-1.45-17.45-2.45-17.45-2.45-4.21-5.83,4.11-25.85,8.78-36a17,17,0,0,1,13.33-9.83,12.69,12.69,0,0,1,1.62-.1c3,0,4.84,4.92,7.68,9.67,2.65,4.46,6.14,8.78,12.09,8.78,12.3,0,28.32-18,28.32-18,31.47,21.56,55.82,31.16,55.82,31.16s20.33.11,25.27,5S248.34,156.76,244.4,159.4Z"/><path class="cls-4" d="M108.5,154.37l-4,20.21c-13.27-3.09-19.33-8.37-19.33-8.37l5.93-14.29,14.6.72Z"/><path class="cls-5" d="M122.46,115.68c-6.76-8.5-19.65,20.77-14,38.69-10.52-1.45-17.45-2.45-17.45-2.45-4.21-5.82,4.11-25.85,8.78-36a17,17,0,0,1,13.33-9.83,12.69,12.69,0,0,1,1.62-.1C117.73,106,119.62,110.93,122.46,115.68Z"/><path class="cls-6" d="M173.66,113.61l-29.85,33.21c-10.1-6-24.65-10.93-35.36-14.07-8-2.36-13.92-3.71-14.1-3.75,1-2.74,2.11-5.42,3.17-7.86l13.16,4.3,3.72,1.21a15.39,15.39,0,0,0,12.81-1.5l2.75-1.67a10.86,10.86,0,0,0,4.59,1c12.3,0,28.32-18,28.32-18Q168.44,110.3,173.66,113.61Z"/><path class="cls-6" d="M244.4,159.4a122.81,122.81,0,0,1-38.23,5.93c-4.69,0-12.64-.62-22.25-1.58h0c0-5.09,13-17.1,22.91-18,1.76,8.57,11.87,6.15,19.56,3.52S244,142.7,244,142.7C248.9,147.64,248.34,156.76,244.4,159.4Z"/><path class="cls-7" d="M110.68,125.44a55,55,0,0,0-2.23,7.31c-8-2.36-13.92-3.71-14.1-3.75,1-2.74,2.11-5.42,3.17-7.86Z"/><path class="cls-1" d="M206.83,145.77c-9.88.88-22.91,12.89-22.91,18h0c-8.5-.86-18.3-2-28.28-3.2,0-4.94-4.85-9.59-11.83-13.73h0l29.85-33.21c26.07,16.56,45,24,45,24C223.31,142.26,216.72,144.89,206.83,145.77Z"/><path d="M161.29,118.84a2.48,2.48,0,1,0-.91-3A2.5,2.5,0,0,0,161.29,118.84Z"/><path d="M245.72,140.94c-2.5-2.49-7.72-4.16-16-5.09-4.82-.55-9.15-.66-10.56-.69-2.32-.92-5.58-2.36-9.58-4.29a2.49,2.49,0,0,0-3.76-3.23l-.92.92c-1.21-.61-2.47-1.25-3.78-1.93l0,0a2.49,2.49,0,1,0-3.52-3.51l-1.12,1.11-3.68-2L193,122a2.49,2.49,0,0,0-3.52-3.52l-1.12,1.12-3.6-2.1.07-.08a2.48,2.48,0,1,0-3.51-3.51l-.95,1c-5.15-3.14-10.54-6.61-16.06-10.38-1-.75-8.75-6.41-14.52-5.35a6.65,6.65,0,0,0-4.56,3.06c-3.81,6-3.81,10.82.17,15.87-3.73,2.29-7.56,3.91-10.88,3.91-5.84,0-8.92-5.6-11.63-10.53-2.24-4.08-4.35-7.92-8.14-7.92a15.35,15.35,0,0,0-1.9.11,19.54,19.54,0,0,0-15.31,11.25,168.13,168.13,0,0,0-7.83,19.93c-2.52,8.24-3,13.8-1.44,17.26l-5.47,13.17a2.48,2.48,0,0,0,.66,2.83c.52.45,13.11,11.16,41.18,11.16h89.19c18.15,0,32-7.93,33-18.63a11.54,11.54,0,0,0,3.09-7.18A15.63,15.63,0,0,0,245.72,140.94Zm-7.82,1.46c-3.51,1.35-8.25,3.14-12.32,4.54-2.63.9-10.62,3.64-14.26,1.56a3.87,3.87,0,0,1-.83-.64c6.94-1,10.85-2.9,11.91-5.82a4.68,4.68,0,0,0,.28-1.79A73.23,73.23,0,0,1,237.9,142.4ZM175,123.81a2.5,2.5,0,0,0,3.51,0l2.67-2.67c1.22.73,2.42,1.43,3.59,2.11l-1.61,1.62a2.49,2.49,0,0,0,3.52,3.51l2.57-2.57c1.26.7,2.48,1.38,3.68,2l-1.6,1.6a2.49,2.49,0,0,0,3.52,3.52l2.65-2.66,3.77,1.95L199.48,134a2.48,2.48,0,0,0,0,3.51,2.47,2.47,0,0,0,3.51,0l2.95-2.95c5.93,2.9,9.93,4.59,11.31,5.16a2.28,2.28,0,0,1,.44.66c-.44.6-3.17,2.19-11.08,2.9-9.55.85-21.75,10.78-24.57,17.76-7.4-.77-15.69-1.72-24.16-2.75-.9-4.09-4.29-8.08-10.24-12l26.46-29.45,2.68,1.66-1.8,1.8A2.47,2.47,0,0,0,175,123.81Zm-25.51-19a1.7,1.7,0,0,1,1.24-.82c2.11-.39,5.63,1.22,8.36,2.89a85.55,85.55,0,0,1-9.53,8.35C146.64,111.81,146.73,109.21,149.47,104.85ZM102.09,117a14.49,14.49,0,0,1,11.36-8.39,10.09,10.09,0,0,1,1.33-.08c.84,0,2.76,3.47,3.78,5.34,1.7,3.1,3.76,6.84,6.78,9.53a12.88,12.88,0,0,1-10.17.92l-14.28-4.66C101.27,118.76,101.67,117.88,102.09,117Zm-6.17,15c4.19,1,14,3.61,24.4,7.23a2.67,2.67,0,0,0,.82.14,2.48,2.48,0,0,0,.82-4.83c-10.09-3.53-19.71-6.08-24.28-7.22.38-1,.79-2,1.23-3L113.63,129a17.89,17.89,0,0,0,14.88-1.75l1.68-1a13.33,13.33,0,0,0,4.36.7c11.1,0,24.28-12.63,28.69-17.2,2.24,1.52,4.45,3,6.61,4.37l-26.54,29.54a112.31,112.31,0,0,0-12-5.66,2.49,2.49,0,1,0-1.89,4.6c15.48,6.34,21.09,11.53,22.93,15-26.62-3.31-53.59-7.12-59.68-8C91.89,147.2,92.53,141.52,95.92,131.93Zm138.27,37.76c-5.33,2.95-12.54,4.58-20.33,4.58H124.67c-21,0-32.68-6.38-36.5-8.92l4.44-10.69c13.74,2,93.15,13.15,113.56,13.15h1.45a2.49,2.49,0,0,0,0-5h-1.42c-4.1,0-10.76-.48-18.87-1.26a28.84,28.84,0,0,1,6-6.49c4-3.31,8.26-5.65,11.85-6.51a8.74,8.74,0,0,0,3.74,4.23,12.13,12.13,0,0,0,6.1,1.42c4,0,8.43-1.28,12.24-2.59,5.78-2,12.85-4.72,16-6a11.28,11.28,0,0,1,1.77,7.27,6.4,6.4,0,0,1-1.75,4.23,117,117,0,0,1-25.93,5.16,2.49,2.49,0,0,0,.44,5A129,129,0,0,0,241.08,163C239.58,166.27,236.34,168.5,234.19,169.69Z"/><path class="cls-1" d="M130.24,128.25s-11.77-8.9-15.51-3-3.32,9.88,1.85,15.05"/><path class="cls-2" d="M211.76,181.15c0,10.11-13.84,17.36-30.54,17.36H92a88.68,88.68,0,0,1-20.21-2.18C58.54,193.25,52.49,188,52.49,188l5.93-14.28,14.59.71Z"/><path class="cls-3" d="M211.76,181.15a122.7,122.7,0,0,1-38.22,5.93c-16,0-69.61-7.09-97.67-11-10.53-1.45-17.45-2.45-17.45-2.45-4.21-5.83,4.11-25.85,8.77-36a17,17,0,0,1,13.34-9.83,14.61,14.61,0,0,1,1.61-.09c3,0,4.85,4.91,7.68,9.67,2.66,4.46,6.14,8.78,12.1,8.78,12.3,0,28.32-18,28.32-18,31.46,21.56,55.82,31.15,55.82,31.15s20.32.11,25.26,5.06S215.71,178.52,211.76,181.15Z"/><path class="cls-5" d="M89.82,137.44c-6.76-8.51-19.65,20.76-13.95,38.69-10.53-1.45-17.45-2.45-17.45-2.45-4.21-5.83,4.11-25.85,8.77-36a17,17,0,0,1,13.34-9.83,14.61,14.61,0,0,1,1.61-.09C85.09,127.77,87,132.68,89.82,137.44Z"/><path class="cls-6" d="M141,135.37l-29.85,33.2c-10.1-6-24.65-10.92-35.35-14.06-8-2.36-13.93-3.71-14.1-3.76,1-2.73,2.11-5.41,3.16-7.85L78,147.2l3.72,1.21a15.42,15.42,0,0,0,12.82-1.5l2.74-1.67a10.87,10.87,0,0,0,4.6,1c12.3,0,28.32-18,28.32-18Q135.79,132.06,141,135.37Z"/><path class="cls-6" d="M211.76,181.15a122.7,122.7,0,0,1-38.22,5.93c-4.7,0-12.65-.61-22.25-1.57h0c0-5.1,13-17.1,22.91-18,1.75,8.57,11.86,6.15,19.55,3.51s17.57-6.58,17.57-6.58C216.27,169.4,215.71,178.52,211.76,181.15Z"/><path class="cls-7" d="M78,147.2a53.51,53.51,0,0,0-2.22,7.31c-8-2.36-13.93-3.71-14.1-3.76,1-2.73,2.11-5.41,3.16-7.85Z"/><path class="cls-1" d="M174.2,167.53c-9.89.88-22.91,12.88-22.91,18h0c-8.51-.86-18.31-2-28.29-3.21,0-4.93-4.85-9.58-11.83-13.72h0L141,135.37c26.08,16.56,45,24,45,24C190.67,164,184.08,166.65,174.2,167.53Z"/><path d="M128.66,140.6a2.49,2.49,0,1,0-.92-3A2.5,2.5,0,0,0,128.66,140.6Z"/><path d="M213.08,162.7c-2.49-2.49-7.71-4.16-16-5.1-4.82-.54-9.15-.66-10.57-.68-2.31-.93-5.58-2.36-9.58-4.29a2.49,2.49,0,0,0-3.76-3.23l-.92.92c-1.21-.61-2.47-1.26-3.77-1.94l0,0a2.48,2.48,0,0,0-3.51-3.51l-1.12,1.11c-1.2-.65-2.43-1.32-3.69-2l.15-.15a2.49,2.49,0,1,0-3.51-3.52l-1.12,1.12c-1.19-.68-2.39-1.38-3.61-2.11l.08-.07a2.49,2.49,0,0,0-3.52-3.51l-1,.95c-5.14-3.15-10.54-6.61-16-10.38-1-.75-8.75-6.41-14.53-5.36a6.68,6.68,0,0,0-4.55,3.07c-3.81,6-3.82,10.82.16,15.86-3.73,2.29-7.55,3.92-10.87,3.92-5.85,0-8.92-5.6-11.64-10.53-2.24-4.08-4.35-7.93-8.14-7.93a15.39,15.39,0,0,0-1.9.12,19.48,19.48,0,0,0-15.3,11.25,166.82,166.82,0,0,0-7.84,19.92c-2.52,8.25-3,13.81-1.44,17.27L50.19,187a2.5,2.5,0,0,0,.66,2.83C51.37,190.29,64,201,92,201h89.2c18.14,0,32-7.92,33-18.63a11.46,11.46,0,0,0,3.09-7.17A15.56,15.56,0,0,0,213.08,162.7Zm-7.81,1.46c-3.52,1.35-8.25,3.14-12.33,4.54-2.62.9-10.61,3.64-14.26,1.55a3.79,3.79,0,0,1-.83-.63c7-1,10.86-2.9,11.92-5.82a4.93,4.93,0,0,0,.28-1.8A74.07,74.07,0,0,1,205.27,164.16Zm-62.93-18.6a2.47,2.47,0,0,0,3.51,0l2.67-2.66c1.22.72,2.42,1.43,3.6,2.11l-1.61,1.61a2.49,2.49,0,1,0,3.51,3.52l2.57-2.57,3.68,2-1.6,1.6a2.49,2.49,0,0,0,3.52,3.51l2.66-2.66c1.3.69,2.56,1.34,3.76,1.95l-1.77,1.77a2.49,2.49,0,1,0,3.52,3.52l2.94-2.95c5.94,2.89,9.94,4.59,11.31,5.16a2.66,2.66,0,0,1,.45.66c-.44.6-3.17,2.19-11.08,2.9-9.55.84-21.76,10.77-24.58,17.76-7.4-.77-15.69-1.72-24.16-2.75C124.34,176,121,172,115,168l26.46-29.45c.9.57,1.79,1.12,2.67,1.66l-1.8,1.81A2.48,2.48,0,0,0,142.34,145.56Zm-25.51-19a1.7,1.7,0,0,1,1.24-.82c2.12-.39,5.63,1.22,8.36,2.89A85.56,85.56,0,0,1,116.9,137C114,133.56,114.09,131,116.83,126.61ZM69.45,138.73a14.54,14.54,0,0,1,11.37-8.4,12,12,0,0,1,1.32-.08c.85,0,2.76,3.48,3.79,5.35,1.7,3.1,3.75,6.83,6.77,9.52a12.92,12.92,0,0,1-10.17.93l-14.28-4.66C68.64,140.52,69,139.64,69.45,138.73Zm-6.17,15c4.2,1,14,3.61,24.41,7.23a2.62,2.62,0,0,0,.82.14,2.46,2.46,0,0,0,2.34-1.67,2.49,2.49,0,0,0-1.52-3.17C79.24,152.7,69.61,150.15,65,149c.39-1,.8-2,1.23-3L81,150.77A17.82,17.82,0,0,0,95.87,149l1.68-1a13.66,13.66,0,0,0,4.37.7c11.1,0,24.28-12.64,28.68-17.2q3.36,2.27,6.62,4.37l-26.54,29.53a115.49,115.49,0,0,0-12-5.66,2.48,2.48,0,0,0-1.88,4.6c15.47,6.35,21.08,11.54,22.92,15-26.62-3.31-53.59-7.12-59.67-8C59.26,169,59.9,163.27,63.28,153.69Zm138.27,37.76c-5.32,3-12.54,4.57-20.32,4.57H92c-21,0-32.67-6.38-36.5-8.91L60,176.42c13.74,2,93.15,13.15,113.57,13.15H175a2.49,2.49,0,0,0,0-5h-1.41c-4.1,0-10.77-.48-18.87-1.26a28.74,28.74,0,0,1,6-6.49,31.07,31.07,0,0,1,11.86-6.51,8.68,8.68,0,0,0,3.74,4.23,12.21,12.21,0,0,0,6.1,1.41c4,0,8.43-1.28,12.23-2.58,5.78-2,12.85-4.73,16-6a11.27,11.27,0,0,1,1.77,7.27,6.53,6.53,0,0,1-1.75,4.23,117.92,117.92,0,0,1-25.94,5.16,2.49,2.49,0,0,0,.45,4.95,129.36,129.36,0,0,0,23.35-4.24C206.94,188,203.7,190.25,201.55,191.45Z"/></svg>