<svg id="Слой_1" data-name="Слой 1" xmlns="http://www.w3.org/2000/svg" viewBox="0 0 300 300"><defs><style>.cls-1{fill:#39aaff;}.cls-2{fill:#fff0d0;}.cls-3{fill:#4695bc;}.cls-4{fill:#236ee7;}.cls-5{fill:#fee372;}.cls-6{fill:#ead2c1;}</style></defs><title>1930639</title><path class="cls-1" d="M93.77,103.16H81.33a9.05,9.05,0,0,0-9,9V199A3.72,3.72,0,0,0,76,202.75h2.84A3.71,3.71,0,0,0,82.55,199V112.7H93.77Z"/><path class="cls-2" d="M81.25,146H73.58a3.71,3.71,0,0,1-3.71-3.71V129a3.71,3.71,0,0,1,3.71-3.71h7.67A3.71,3.71,0,0,1,85,129v13.33A3.71,3.71,0,0,1,81.25,146Z"/><path class="cls-3" d="M161,242.22H99.59a3.71,3.71,0,0,1-3.71-3.71V83.71a25.93,25.93,0,0,1,25.93-25.93h17a25.93,25.93,0,0,1,25.92,25.93v154.8A3.71,3.71,0,0,1,161,242.22Z"/><path class="cls-4" d="M164.69,83.71v154.8a3.71,3.71,0,0,1-3.71,3.71H149.14a3.71,3.71,0,0,0,3.7-3.71V83.71a25.92,25.92,0,0,0-25.92-25.93h11.85A25.93,25.93,0,0,1,164.69,83.71Z"/><path class="cls-5" d="M212.63,233.65V191a2.83,2.83,0,0,0-2.83-2.83H146.41a2.83,2.83,0,0,0-2.83,2.83v42.67a8.57,8.57,0,0,0,8.57,8.57h51.91A8.57,8.57,0,0,0,212.63,233.65Z"/><path class="cls-6" d="M200.55,188.15a4.69,4.69,0,0,1,4.7,4.7v40.8a8.57,8.57,0,0,1-8.57,8.57h7.38a8.57,8.57,0,0,0,8.57-8.57V191a2.83,2.83,0,0,0-2.83-2.83Z"/><path class="cls-2" d="M169.31,101.08V114.2a3.71,3.71,0,0,1-3.71,3.71H95a3.71,3.71,0,0,1-3.71-3.71V101.08A3.72,3.72,0,0,1,95,97.36H165.6A3.72,3.72,0,0,1,169.31,101.08Z"/><path class="cls-6" d="M169.31,101.08V114.2a3.71,3.71,0,0,1-3.71,3.71H152.84V97.36H165.6A3.72,3.72,0,0,1,169.31,101.08Z"/><path d="M219.81,193.78h-4.39V191a5.62,5.62,0,0,0-5.62-5.61H167.47V165h33.41a2.56,2.56,0,0,1,0,5.11H178.64a7.32,7.32,0,0,0-7.31,7.31,2.79,2.79,0,0,0,5.57,0,1.74,1.74,0,0,1,1.74-1.75h22.24a8.12,8.12,0,0,0,0-16.24H167.47v-7.6h20.86a2.79,2.79,0,0,0,0-5.57H167.47v-25.8a6.52,6.52,0,0,0,4.63-6.22V101.08a6.52,6.52,0,0,0-4.63-6.22V83.71A28.56,28.56,0,0,0,162.8,68a2.78,2.78,0,1,0-4.66,3,23,23,0,0,1,3.77,12.64V94.58H98.67V83.71a23.17,23.17,0,0,1,23.14-23.14h16.95a23.16,23.16,0,0,1,11,2.75,2.78,2.78,0,0,0,2.64-4.9A28.69,28.69,0,0,0,138.77,55h-17A28.74,28.74,0,0,0,93.1,83.71V94.86a6.51,6.51,0,0,0-4.58,5.52H81.33A11.85,11.85,0,0,0,69.5,112.21V124a6.48,6.48,0,0,0-2.41,5v13.33a6.48,6.48,0,0,0,2.41,5V199a6.5,6.5,0,0,0,6.5,6.49h2.84A6.5,6.5,0,0,0,85.33,199V147.37a6.49,6.49,0,0,0,2.42-5V129a6.49,6.49,0,0,0-2.42-5v-8.48h3.28a6.51,6.51,0,0,0,4.49,4.94v84.4a2.79,2.79,0,1,0,5.57,0V120.7h63.24v25.52h-5.33a9.37,9.37,0,0,0,0,18.74h5.33v20.41h-15.5A5.61,5.61,0,0,0,140.8,191v42.67a11.24,11.24,0,0,0,1.59,5.78H99.59a.92.92,0,0,1-.92-.92V217.64a2.79,2.79,0,1,0-5.57,0v20.87A6.5,6.5,0,0,0,99.59,245H174a2.79,2.79,0,1,0,0-5.57H152.15a5.79,5.79,0,0,1-5.79-5.78V191a0,0,0,0,1,0,0H209.8a0,0,0,0,1,0,0v42.67a5.79,5.79,0,0,1-5.79,5.78H186.83a2.79,2.79,0,0,0,0,5.57h17.23a11.37,11.37,0,0,0,11.36-11.35v-4.24h4.39a13.12,13.12,0,0,0,13.1-13.1v-9.43A13.12,13.12,0,0,0,219.81,193.78ZM95,115.13a.93.93,0,0,1-.93-.93V101.08a.93.93,0,0,1,.93-.93H165.6a.93.93,0,0,1,.93.93V114.2a.93.93,0,0,1-.93.93Zm-13.72,13a.93.93,0,0,1,.93.92v13.33a.93.93,0,0,1-.93.92H73.58a.92.92,0,0,1-.92-.92V129a.92.92,0,0,1,.92-.92ZM78.84,200H76a.93.93,0,0,1-.93-.93V148.82h4.7V199A.93.93,0,0,1,78.84,200Zm3.71-90.06a2.78,2.78,0,0,0-2.78,2.79v9.81h-4.7v-10.3a6.27,6.27,0,0,1,6.26-6.27h7.15v4Zm74,49.48a3.8,3.8,0,0,1,0-7.6h5.33v7.6Zm70.76,56.92a7.54,7.54,0,0,1-7.53,7.53h-4.39V199.35h4.39a7.54,7.54,0,0,1,7.53,7.53Z"/></svg>