<svg id="Слой_1" data-name="Слой 1" xmlns="http://www.w3.org/2000/svg" viewBox="0 0 300 300"><defs><style>.cls-1{fill:#ddf5ff;}.cls-2{fill:#c1e9f4;}.cls-3{fill:#81b8fd;}.cls-4{fill:#62a6fd;}</style></defs><title>1930639</title><path class="cls-1" d="M150,92.41h17.36V78.2H132.64V92.41Z"/><path class="cls-2" d="M158.28,78.2V92.41h9.08V78.2Z"/><path class="cls-3" d="M167.36,92.41,179,99.34a23.67,23.67,0,0,1,11.59,20.35v18.87a2,2,0,0,1-2,2,2,2,0,0,0-2,2v13a2,2,0,0,0,2,2,2,2,0,0,1,2,2v71.79A15.77,15.77,0,0,1,174.85,247h-49.7a15.77,15.77,0,0,1-15.78-15.78V159.47a2,2,0,0,1,2-2,2,2,0,0,0,2-2v-13a2,2,0,0,0-2-2,2,2,0,0,1-2-2V119.69A23.67,23.67,0,0,1,121,99.34l11.68-6.93Z"/><path class="cls-4" d="M188.66,140.53a2,2,0,0,0,2-2V119.69A23.67,23.67,0,0,0,179,99.34l-11.68-6.93h-9.08L170,99.34a23.66,23.66,0,0,1,11.6,20.35v18.87a2,2,0,0,1-2,2,2,2,0,0,0-2,2v13a2,2,0,0,0,2,2,2,2,0,0,1,2,2v71.79A15.78,15.78,0,0,1,165.78,247h9.07a15.77,15.77,0,0,0,15.78-15.78V159.47a2,2,0,0,0-2-2,2,2,0,0,1-2-2v-13A2,2,0,0,1,188.66,140.53Z"/><path class="cls-4" d="M188.66,140.53a2,2,0,0,0,2-2V124.75h-9.07v13.81a2,2,0,0,1-2,2,2,2,0,0,0-2,2v13a2,2,0,0,0,2,2,2,2,0,0,1,2,2v15.78h9.07V159.47a2,2,0,0,0-2-2,2,2,0,0,1-2-2v-13A2,2,0,0,1,188.66,140.53Z"/><path class="cls-1" d="M188.66,140.53a2,2,0,0,0,2-2V124.75H109.37v13.81a2,2,0,0,0,2,2,2,2,0,0,1,2,2v13a2,2,0,0,1-2,2,2,2,0,0,0-2,2v15.78h81.26V159.47a2,2,0,0,0-2-2,2,2,0,0,1-2-2v-13A2,2,0,0,1,188.66,140.53Z"/><path class="cls-2" d="M181.56,138.56a2,2,0,0,1-2,2,2,2,0,0,0-2,2v13a2,2,0,0,0,2,2,2,2,0,0,1,2,2v15.78h9.07V159.47a2,2,0,0,0-2-2,2,2,0,0,1-2-2v-13a2,2,0,0,1,2-2,2,2,0,0,0,2-2V124.75h-9.07Z"/><path class="cls-3" d="M129.49,53h41V78.2h-41Z"/><path class="cls-4" d="M164.2,53V68a3.94,3.94,0,0,1-3.94,3.94H129.49v6.32h41V53Z"/><path class="cls-3" d="M161.05,154.73a11.05,11.05,0,1,1-22.1,0c0-6.07,11.05-20.51,11.05-20.51S161.05,148.66,161.05,154.73Z"/><path d="M180.55,96.79l-10.23-6.07V81.16h.19a3,3,0,0,0,3-3V53a3,3,0,0,0-3-3h-41a3,3,0,0,0-3,3V78.2a3,3,0,0,0,3,3h.19v9.56l-10.23,6.07a26.75,26.75,0,0,0-13,22.9v18.87a4.94,4.94,0,0,0,3.94,4.83v11.25a4.94,4.94,0,0,0-3.94,4.83v30.9a3,3,0,1,0,5.92,0V178.2h75.34v12.17a3,3,0,0,0,5.92,0v-30.9a4.94,4.94,0,0,0-3.94-4.83V143.39a4.94,4.94,0,0,0,3.94-4.83V119.69A26.75,26.75,0,0,0,180.55,96.79Zm-48.1-40.87h35.1V75.25h-35.1Zm32,25.24v8.29H135.6V81.16Zm-52.07,91.13V160.35a4.93,4.93,0,0,0,3.94-4.83v-13a4.93,4.93,0,0,0-3.94-4.83v-10H129a3,3,0,1,0,0-5.91H112.33v-2.11a20.79,20.79,0,0,1,10.14-17.81l11-6.52h33.1l11,6.52a20.79,20.79,0,0,1,10.14,17.81v2.11h-45a3,3,0,0,0,0,5.91h45v10a4.93,4.93,0,0,0-3.94,4.83v13a4.93,4.93,0,0,0,3.94,4.83v11.94Z"/><path d="M190.63,201.25a3,3,0,0,0-3,2.95v27.06a12.83,12.83,0,0,1-12.82,12.82h-49.7a12.83,12.83,0,0,1-12.82-12.82V204.2a3,3,0,0,0-5.92,0v27.06A18.77,18.77,0,0,0,125.15,250h49.7a18.77,18.77,0,0,0,18.74-18.74V204.2A3,3,0,0,0,190.63,201.25Z"/><path d="M150,131.26a3,3,0,0,0-2.35,1.16C145.7,135,136,148,136,154.73a14,14,0,1,0,28,0c0-6.73-9.7-19.76-11.65-22.31A3,3,0,0,0,150,131.26Zm0,31.56a8.1,8.1,0,0,1-8.09-8.09c0-2.89,4.19-9.94,8.09-15.5,3.9,5.56,8.09,12.61,8.09,15.5A8.1,8.1,0,0,1,150,162.82Z"/></svg>