<?xml version="1.0" encoding="UTF-8" standalone="no"?>
<!DOCTYPE svg PUBLIC "-//W3C//DTD SVG 1.1//EN" "http://www.w3.org/Graphics/SVG/1.1/DTD/svg11.dtd">
<svg width="100%" height="100%" viewBox="0 0 381 361" version="1.1" xmlns="http://www.w3.org/2000/svg" xmlns:xlink="http://www.w3.org/1999/xlink" xml:space="preserve" xmlns:serif="http://www.serif.com/" style="fill-rule:evenodd;clip-rule:evenodd;stroke-linecap:round;stroke-linejoin:bevel;stroke-miterlimit:1.5;">
    <g transform="matrix(1,0,0,1,-6086,-272)">
        <g id="_010_1" serif:id="010_1" transform="matrix(0.471129,0,0,0.795894,5259.16,278.761)">
            <rect x="1755.48" y="-8.417" width="806.573" height="452.321" style="fill:none;"/>
            <g transform="matrix(-1.05879,1.08897,-1.83963,-0.626749,7935.78,-4429.92)">
                <circle cx="4528.27" cy="676.018" r="4.889" style="fill:rgb(255,241,169);"/>
                <path d="M4528.27,671.128C4530.97,671.128 4533.16,673.319 4533.16,676.018C4533.16,678.716 4530.97,680.907 4528.27,680.907C4525.57,680.907 4523.38,678.716 4523.38,676.018C4523.38,673.319 4525.57,671.128 4528.27,671.128ZM4528.27,672.128C4530.41,672.128 4532.16,673.871 4532.16,676.018C4532.16,678.164 4530.41,679.907 4528.27,679.907C4526.12,679.907 4524.38,678.164 4524.38,676.018C4524.38,673.871 4526.12,672.128 4528.27,672.128Z" style="fill:rgb(209,195,106);"/>
            </g>
            <g transform="matrix(-1.05879,1.08897,-1.83963,-0.626749,8129.77,-4395.05)">
                <circle cx="4528.27" cy="676.018" r="4.889" style="fill:rgb(255,241,169);"/>
                <path d="M4528.27,671.128C4530.97,671.128 4533.16,673.319 4533.16,676.018C4533.16,678.716 4530.97,680.907 4528.27,680.907C4525.57,680.907 4523.38,678.716 4523.38,676.018C4523.38,673.319 4525.57,671.128 4528.27,671.128ZM4528.27,672.128C4530.41,672.128 4532.16,673.871 4532.16,676.018C4532.16,678.164 4530.41,679.907 4528.27,679.907C4526.12,679.907 4524.38,678.164 4524.38,676.018C4524.38,673.871 4526.12,672.128 4528.27,672.128Z" style="fill:rgb(209,195,106);"/>
            </g>
            <g transform="matrix(-1.05879,1.08897,-1.83963,-0.626749,7990.78,-4303.85)">
                <circle cx="4528.27" cy="676.018" r="4.889" style="fill:rgb(255,241,169);"/>
                <path d="M4528.27,671.128C4530.97,671.128 4533.16,673.319 4533.16,676.018C4533.16,678.716 4530.97,680.907 4528.27,680.907C4525.57,680.907 4523.38,678.716 4523.38,676.018C4523.38,673.319 4525.57,671.128 4528.27,671.128ZM4528.27,672.128C4530.41,672.128 4532.16,673.871 4532.16,676.018C4532.16,678.164 4530.41,679.907 4528.27,679.907C4526.12,679.907 4524.38,678.164 4524.38,676.018C4524.38,673.871 4526.12,672.128 4528.27,672.128Z" style="fill:rgb(209,195,106);"/>
            </g>
            <g transform="matrix(-1.05879,1.08897,-1.83963,-0.626749,8089.41,-4238.68)">
                <circle cx="4528.27" cy="676.018" r="4.889" style="fill:rgb(255,241,169);"/>
                <path d="M4528.27,671.128C4530.97,671.128 4533.16,673.319 4533.16,676.018C4533.16,678.716 4530.97,680.907 4528.27,680.907C4525.57,680.907 4523.38,678.716 4523.38,676.018C4523.38,673.319 4525.57,671.128 4528.27,671.128ZM4528.27,672.128C4530.41,672.128 4532.16,673.871 4532.16,676.018C4532.16,678.164 4530.41,679.907 4528.27,679.907C4526.12,679.907 4524.38,678.164 4524.38,676.018C4524.38,673.871 4526.12,672.128 4528.27,672.128Z" style="fill:rgb(209,195,106);"/>
            </g>
            <g transform="matrix(-1.05879,1.08897,-1.83963,-0.626749,8028.07,-4188.9)">
                <circle cx="4528.27" cy="676.018" r="4.889" style="fill:rgb(255,241,169);"/>
                <path d="M4528.27,671.128C4530.97,671.128 4533.16,673.319 4533.16,676.018C4533.16,678.716 4530.97,680.907 4528.27,680.907C4525.57,680.907 4523.38,678.716 4523.38,676.018C4523.38,673.319 4525.57,671.128 4528.27,671.128ZM4528.27,672.128C4530.41,672.128 4532.16,673.871 4532.16,676.018C4532.16,678.164 4530.41,679.907 4528.27,679.907C4526.12,679.907 4524.38,678.164 4524.38,676.018C4524.38,673.871 4526.12,672.128 4528.27,672.128Z" style="fill:rgb(209,195,106);"/>
            </g>
            <g transform="matrix(-1.05879,1.08897,-1.83963,-0.626749,8150.25,-4340.39)">
                <circle cx="4528.27" cy="676.018" r="4.889" style="fill:rgb(255,241,169);"/>
                <path d="M4528.27,671.128C4530.97,671.128 4533.16,673.319 4533.16,676.018C4533.16,678.716 4530.97,680.907 4528.27,680.907C4525.57,680.907 4523.38,678.716 4523.38,676.018C4523.38,673.319 4525.57,671.128 4528.27,671.128ZM4528.27,672.128C4530.41,672.128 4532.16,673.871 4532.16,676.018C4532.16,678.164 4530.41,679.907 4528.27,679.907C4526.12,679.907 4524.38,678.164 4524.38,676.018C4524.38,673.871 4526.12,672.128 4528.27,672.128Z" style="fill:rgb(209,195,106);"/>
            </g>
            <g transform="matrix(-1.05879,1.08897,-1.83963,-0.626749,8109.56,-4290.32)">
                <circle cx="4528.27" cy="676.018" r="4.889" style="fill:rgb(255,241,169);"/>
                <path d="M4528.27,671.128C4530.97,671.128 4533.16,673.319 4533.16,676.018C4533.16,678.716 4530.97,680.907 4528.27,680.907C4525.57,680.907 4523.38,678.716 4523.38,676.018C4523.38,673.319 4525.57,671.128 4528.27,671.128ZM4528.27,672.128C4530.41,672.128 4532.16,673.871 4532.16,676.018C4532.16,678.164 4530.41,679.907 4528.27,679.907C4526.12,679.907 4524.38,678.164 4524.38,676.018C4524.38,673.871 4526.12,672.128 4528.27,672.128Z" style="fill:rgb(209,195,106);"/>
            </g>
            <g transform="matrix(-1.05879,1.08897,-1.83963,-0.626749,7894.86,-4146.11)">
                <circle cx="4528.27" cy="676.018" r="4.889" style="fill:rgb(255,241,169);"/>
                <path d="M4528.27,671.128C4530.97,671.128 4533.16,673.319 4533.16,676.018C4533.16,678.716 4530.97,680.907 4528.27,680.907C4525.57,680.907 4523.38,678.716 4523.38,676.018C4523.38,673.319 4525.57,671.128 4528.27,671.128ZM4528.27,672.128C4530.41,672.128 4532.16,673.871 4532.16,676.018C4532.16,678.164 4530.41,679.907 4528.27,679.907C4526.12,679.907 4524.38,678.164 4524.38,676.018C4524.38,673.871 4526.12,672.128 4528.27,672.128Z" style="fill:rgb(209,195,106);"/>
            </g>
            <g transform="matrix(-1.05879,1.08897,-1.83963,-0.626749,8001.82,-4105.63)">
                <circle cx="4528.27" cy="676.018" r="4.889" style="fill:rgb(255,241,169);"/>
                <path d="M4528.27,671.128C4530.97,671.128 4533.16,673.319 4533.16,676.018C4533.16,678.716 4530.97,680.907 4528.27,680.907C4525.57,680.907 4523.38,678.716 4523.38,676.018C4523.38,673.319 4525.57,671.128 4528.27,671.128ZM4528.27,672.128C4530.41,672.128 4532.16,673.871 4532.16,676.018C4532.16,678.164 4530.41,679.907 4528.27,679.907C4526.12,679.907 4524.38,678.164 4524.38,676.018C4524.38,673.871 4526.12,672.128 4528.27,672.128Z" style="fill:rgb(209,195,106);"/>
            </g>
            <g transform="matrix(-1.05879,1.08897,-1.83963,-0.626749,8060.29,-4150.82)">
                <circle cx="4528.27" cy="676.018" r="4.889" style="fill:rgb(255,241,169);"/>
                <path d="M4528.27,671.128C4530.97,671.128 4533.16,673.319 4533.16,676.018C4533.16,678.716 4530.97,680.907 4528.27,680.907C4525.57,680.907 4523.38,678.716 4523.38,676.018C4523.38,673.319 4525.57,671.128 4528.27,671.128ZM4528.27,672.128C4530.41,672.128 4532.16,673.871 4532.16,676.018C4532.16,678.164 4530.41,679.907 4528.27,679.907C4526.12,679.907 4524.38,678.164 4524.38,676.018C4524.38,673.871 4526.12,672.128 4528.27,672.128Z" style="fill:rgb(209,195,106);"/>
            </g>
            <g transform="matrix(-1.05879,1.08897,-1.83963,-0.626749,8149.06,-4099.17)">
                <circle cx="4528.27" cy="676.018" r="4.889" style="fill:rgb(255,241,169);"/>
                <path d="M4528.27,671.128C4530.97,671.128 4533.16,673.319 4533.16,676.018C4533.16,678.716 4530.97,680.907 4528.27,680.907C4525.57,680.907 4523.38,678.716 4523.38,676.018C4523.38,673.319 4525.57,671.128 4528.27,671.128ZM4528.27,672.128C4530.41,672.128 4532.16,673.871 4532.16,676.018C4532.16,678.164 4530.41,679.907 4528.27,679.907C4526.12,679.907 4524.38,678.164 4524.38,676.018C4524.38,673.871 4526.12,672.128 4528.27,672.128Z" style="fill:rgb(209,195,106);"/>
            </g>
            <g transform="matrix(-1.05879,1.08897,-1.83963,-0.626749,8130.17,-4185.18)">
                <circle cx="4528.27" cy="676.018" r="4.889" style="fill:rgb(255,241,169);"/>
                <path d="M4528.27,671.128C4530.97,671.128 4533.16,673.319 4533.16,676.018C4533.16,678.716 4530.97,680.907 4528.27,680.907C4525.57,680.907 4523.38,678.716 4523.38,676.018C4523.38,673.319 4525.57,671.128 4528.27,671.128ZM4528.27,672.128C4530.41,672.128 4532.16,673.871 4532.16,676.018C4532.16,678.164 4530.41,679.907 4528.27,679.907C4526.12,679.907 4524.38,678.164 4524.38,676.018C4524.38,673.871 4526.12,672.128 4528.27,672.128Z" style="fill:rgb(209,195,106);"/>
            </g>
            <g transform="matrix(-1.05879,1.08897,-1.83963,-0.626749,7850.16,-4228.86)">
                <circle cx="4528.27" cy="676.018" r="4.889" style="fill:rgb(255,241,169);"/>
                <path d="M4528.27,671.128C4530.97,671.128 4533.16,673.319 4533.16,676.018C4533.16,678.716 4530.97,680.907 4528.27,680.907C4525.57,680.907 4523.38,678.716 4523.38,676.018C4523.38,673.319 4525.57,671.128 4528.27,671.128ZM4528.27,672.128C4530.41,672.128 4532.16,673.871 4532.16,676.018C4532.16,678.164 4530.41,679.907 4528.27,679.907C4526.12,679.907 4524.38,678.164 4524.38,676.018C4524.38,673.871 4526.12,672.128 4528.27,672.128Z" style="fill:rgb(209,195,106);"/>
            </g>
            <g transform="matrix(-1.05879,1.08897,-1.83963,-0.626749,7963.68,-4248.01)">
                <circle cx="4528.27" cy="676.018" r="4.889" style="fill:rgb(255,241,169);"/>
                <path d="M4528.27,671.128C4530.97,671.128 4533.16,673.319 4533.16,676.018C4533.16,678.716 4530.97,680.907 4528.27,680.907C4525.57,680.907 4523.38,678.716 4523.38,676.018C4523.38,673.319 4525.57,671.128 4528.27,671.128ZM4528.27,672.128C4530.41,672.128 4532.16,673.871 4532.16,676.018C4532.16,678.164 4530.41,679.907 4528.27,679.907C4526.12,679.907 4524.38,678.164 4524.38,676.018C4524.38,673.871 4526.12,672.128 4528.27,672.128Z" style="fill:rgb(209,195,106);"/>
            </g>
            <g transform="matrix(-1.05879,1.08897,-1.83963,-0.626749,7874.73,-4361.58)">
                <circle cx="4528.27" cy="676.018" r="4.889" style="fill:rgb(255,241,169);"/>
                <path d="M4528.27,671.128C4530.97,671.128 4533.16,673.319 4533.16,676.018C4533.16,678.716 4530.97,680.907 4528.27,680.907C4525.57,680.907 4523.38,678.716 4523.38,676.018C4523.38,673.319 4525.57,671.128 4528.27,671.128ZM4528.27,672.128C4530.41,672.128 4532.16,673.871 4532.16,676.018C4532.16,678.164 4530.41,679.907 4528.27,679.907C4526.12,679.907 4524.38,678.164 4524.38,676.018C4524.38,673.871 4526.12,672.128 4528.27,672.128Z" style="fill:rgb(209,195,106);"/>
            </g>
            <g transform="matrix(-1.05879,1.08897,-1.83963,-0.626749,8035.26,-4360.55)">
                <circle cx="4528.27" cy="676.018" r="4.889" style="fill:rgb(255,241,169);"/>
                <path d="M4528.27,671.128C4530.97,671.128 4533.16,673.319 4533.16,676.018C4533.16,678.716 4530.97,680.907 4528.27,680.907C4525.57,680.907 4523.38,678.716 4523.38,676.018C4523.38,673.319 4525.57,671.128 4528.27,671.128ZM4528.27,672.128C4530.41,672.128 4532.16,673.871 4532.16,676.018C4532.16,678.164 4530.41,679.907 4528.27,679.907C4526.12,679.907 4524.38,678.164 4524.38,676.018C4524.38,673.871 4526.12,672.128 4528.27,672.128Z" style="fill:rgb(209,195,106);"/>
            </g>
            <g transform="matrix(-1.05879,1.08897,-1.83963,-0.626749,7987.81,-4449.31)">
                <circle cx="4528.27" cy="676.018" r="4.889" style="fill:rgb(255,241,169);"/>
                <path d="M4528.27,671.128C4530.97,671.128 4533.16,673.319 4533.16,676.018C4533.16,678.716 4530.97,680.907 4528.27,680.907C4525.57,680.907 4523.38,678.716 4523.38,676.018C4523.38,673.319 4525.57,671.128 4528.27,671.128ZM4528.27,672.128C4530.41,672.128 4532.16,673.871 4532.16,676.018C4532.16,678.164 4530.41,679.907 4528.27,679.907C4526.12,679.907 4524.38,678.164 4524.38,676.018C4524.38,673.871 4526.12,672.128 4528.27,672.128Z" style="fill:rgb(209,195,106);"/>
            </g>
            <g transform="matrix(-1.05879,1.08897,-1.83963,-0.626749,8195.27,-4287.06)">
                <circle cx="4528.27" cy="676.018" r="4.889" style="fill:rgb(209,235,206);"/>
                <path d="M4528.27,671.128C4530.97,671.128 4533.16,673.319 4533.16,676.018C4533.16,678.716 4530.97,680.907 4528.27,680.907C4525.57,680.907 4523.38,678.716 4523.38,676.018C4523.38,673.319 4525.57,671.128 4528.27,671.128ZM4528.27,672.128C4530.41,672.128 4532.16,673.871 4532.16,676.018C4532.16,678.164 4530.41,679.907 4528.27,679.907C4526.12,679.907 4524.38,678.164 4524.38,676.018C4524.38,673.871 4526.12,672.128 4528.27,672.128Z" style="fill:rgb(171,195,161);"/>
            </g>
            <g transform="matrix(-1.93522,0.516113,-0.871888,-1.14555,11421.6,-1544.73)">
                <circle cx="4528.27" cy="676.018" r="4.889" style="fill:rgb(238,212,197);"/>
                <path d="M4528.27,671.128C4530.97,671.128 4533.16,673.319 4533.16,676.018C4533.16,678.716 4530.97,680.907 4528.27,680.907C4525.57,680.907 4523.38,678.716 4523.38,676.018C4523.38,673.319 4525.57,671.128 4528.27,671.128ZM4528.27,672.128C4530.41,672.128 4532.16,673.871 4532.16,676.018C4532.16,678.164 4530.41,679.907 4528.27,679.907C4526.12,679.907 4524.38,678.164 4524.38,676.018C4524.38,673.871 4526.12,672.128 4528.27,672.128Z" style="fill:rgb(201,138,147);"/>
            </g>
            <g transform="matrix(-1.93522,0.516113,-0.871888,-1.14555,11562.5,-1544.49)">
                <circle cx="4528.27" cy="676.018" r="4.889" style="fill:rgb(238,212,197);"/>
                <path d="M4528.27,671.128C4530.97,671.128 4533.16,673.319 4533.16,676.018C4533.16,678.716 4530.97,680.907 4528.27,680.907C4525.57,680.907 4523.38,678.716 4523.38,676.018C4523.38,673.319 4525.57,671.128 4528.27,671.128ZM4528.27,672.128C4530.41,672.128 4532.16,673.871 4532.16,676.018C4532.16,678.164 4530.41,679.907 4528.27,679.907C4526.12,679.907 4524.38,678.164 4524.38,676.018C4524.38,673.871 4526.12,672.128 4528.27,672.128Z" style="fill:rgb(201,138,147);"/>
            </g>
            <g transform="matrix(-1.93522,0.516113,-0.871888,-1.14555,11513.9,-1465.23)">
                <circle cx="4528.27" cy="676.018" r="4.889" style="fill:rgb(238,212,197);"/>
                <path d="M4528.27,671.128C4530.97,671.128 4533.16,673.319 4533.16,676.018C4533.16,678.716 4530.97,680.907 4528.27,680.907C4525.57,680.907 4523.38,678.716 4523.38,676.018C4523.38,673.319 4525.57,671.128 4528.27,671.128ZM4528.27,672.128C4530.41,672.128 4532.16,673.871 4532.16,676.018C4532.16,678.164 4530.41,679.907 4528.27,679.907C4526.12,679.907 4524.38,678.164 4524.38,676.018C4524.38,673.871 4526.12,672.128 4528.27,672.128Z" style="fill:rgb(201,138,147);"/>
            </g>
            <g transform="matrix(-1.93522,0.516113,-0.871888,-1.14555,11617,-1436.59)">
                <circle cx="4528.27" cy="676.018" r="4.889" style="fill:rgb(238,212,197);"/>
                <path d="M4528.27,671.128C4530.97,671.128 4533.16,673.319 4533.16,676.018C4533.16,678.716 4530.97,680.907 4528.27,680.907C4525.57,680.907 4523.38,678.716 4523.38,676.018C4523.38,673.319 4525.57,671.128 4528.27,671.128ZM4528.27,672.128C4530.41,672.128 4532.16,673.871 4532.16,676.018C4532.16,678.164 4530.41,679.907 4528.27,679.907C4526.12,679.907 4524.38,678.164 4524.38,676.018C4524.38,673.871 4526.12,672.128 4528.27,672.128Z" style="fill:rgb(201,138,147);"/>
            </g>
            <g transform="matrix(-1.93522,0.516113,-0.871888,-1.14555,11747,-1507.98)">
                <circle cx="4528.27" cy="676.018" r="4.889" style="fill:rgb(238,212,197);"/>
                <path d="M4528.27,671.128C4530.97,671.128 4533.16,673.319 4533.16,676.018C4533.16,678.716 4530.97,680.907 4528.27,680.907C4525.57,680.907 4523.38,678.716 4523.38,676.018C4523.38,673.319 4525.57,671.128 4528.27,671.128ZM4528.27,672.128C4530.41,672.128 4532.16,673.871 4532.16,676.018C4532.16,678.164 4530.41,679.907 4528.27,679.907C4526.12,679.907 4524.38,678.164 4524.38,676.018C4524.38,673.871 4526.12,672.128 4528.27,672.128Z" style="fill:rgb(201,138,147);"/>
            </g>
            <g transform="matrix(-1.93522,0.516113,-0.871888,-1.14555,11809.9,-1437.82)">
                <circle cx="4528.27" cy="676.018" r="4.889" style="fill:rgb(238,212,197);"/>
                <path d="M4528.27,671.128C4530.97,671.128 4533.16,673.319 4533.16,676.018C4533.16,678.716 4530.97,680.907 4528.27,680.907C4525.57,680.907 4523.38,678.716 4523.38,676.018C4523.38,673.319 4525.57,671.128 4528.27,671.128ZM4528.27,672.128C4530.41,672.128 4532.16,673.871 4532.16,676.018C4532.16,678.164 4530.41,679.907 4528.27,679.907C4526.12,679.907 4524.38,678.164 4524.38,676.018C4524.38,673.871 4526.12,672.128 4528.27,672.128Z" style="fill:rgb(201,138,147);"/>
            </g>
            <g transform="matrix(-1.93522,0.516113,-0.871888,-1.14555,11686.8,-1332.69)">
                <circle cx="4528.27" cy="676.018" r="4.889" style="fill:rgb(238,212,197);"/>
                <path d="M4528.27,671.128C4530.97,671.128 4533.16,673.319 4533.16,676.018C4533.16,678.716 4530.97,680.907 4528.27,680.907C4525.57,680.907 4523.38,678.716 4523.38,676.018C4523.38,673.319 4525.57,671.128 4528.27,671.128ZM4528.27,672.128C4530.41,672.128 4532.16,673.871 4532.16,676.018C4532.16,678.164 4530.41,679.907 4528.27,679.907C4526.12,679.907 4524.38,678.164 4524.38,676.018C4524.38,673.871 4526.12,672.128 4528.27,672.128Z" style="fill:rgb(201,138,147);"/>
            </g>
            <g transform="matrix(-1.93522,0.516113,-0.871888,-1.14555,11764.2,-1189.42)">
                <circle cx="4528.27" cy="676.018" r="4.889" style="fill:rgb(238,212,197);"/>
                <path d="M4528.27,671.128C4530.97,671.128 4533.16,673.319 4533.16,676.018C4533.16,678.716 4530.97,680.907 4528.27,680.907C4525.57,680.907 4523.38,678.716 4523.38,676.018C4523.38,673.319 4525.57,671.128 4528.27,671.128ZM4528.27,672.128C4530.41,672.128 4532.16,673.871 4532.16,676.018C4532.16,678.164 4530.41,679.907 4528.27,679.907C4526.12,679.907 4524.38,678.164 4524.38,676.018C4524.38,673.871 4526.12,672.128 4528.27,672.128Z" style="fill:rgb(201,138,147);"/>
            </g>
            <g transform="matrix(-1.93522,0.516113,-0.871888,-1.14555,11588.8,-1346.74)">
                <circle cx="4528.27" cy="676.018" r="4.889" style="fill:rgb(238,212,197);"/>
                <path d="M4528.27,671.128C4530.97,671.128 4533.16,673.319 4533.16,676.018C4533.16,678.716 4530.97,680.907 4528.27,680.907C4525.57,680.907 4523.38,678.716 4523.38,676.018C4523.38,673.319 4525.57,671.128 4528.27,671.128ZM4528.27,672.128C4530.41,672.128 4532.16,673.871 4532.16,676.018C4532.16,678.164 4530.41,679.907 4528.27,679.907C4526.12,679.907 4524.38,678.164 4524.38,676.018C4524.38,673.871 4526.12,672.128 4528.27,672.128Z" style="fill:rgb(201,138,147);"/>
            </g>
            <g transform="matrix(-1.93522,0.516113,-0.871888,-1.14555,11553.4,-1312.95)">
                <circle cx="4528.27" cy="676.018" r="4.889" style="fill:rgb(238,212,197);"/>
                <path d="M4528.27,671.128C4530.97,671.128 4533.16,673.319 4533.16,676.018C4533.16,678.716 4530.97,680.907 4528.27,680.907C4525.57,680.907 4523.38,678.716 4523.38,676.018C4523.38,673.319 4525.57,671.128 4528.27,671.128ZM4528.27,672.128C4530.41,672.128 4532.16,673.871 4532.16,676.018C4532.16,678.164 4530.41,679.907 4528.27,679.907C4526.12,679.907 4524.38,678.164 4524.38,676.018C4524.38,673.871 4526.12,672.128 4528.27,672.128Z" style="fill:rgb(201,138,147);"/>
            </g>
            <g transform="matrix(-1.93522,0.516113,-0.871888,-1.14555,11618.3,-1240.65)">
                <circle cx="4528.27" cy="676.018" r="4.889" style="fill:rgb(238,212,197);"/>
                <path d="M4528.27,671.128C4530.97,671.128 4533.16,673.319 4533.16,676.018C4533.16,678.716 4530.97,680.907 4528.27,680.907C4525.57,680.907 4523.38,678.716 4523.38,676.018C4523.38,673.319 4525.57,671.128 4528.27,671.128ZM4528.27,672.128C4530.41,672.128 4532.16,673.871 4532.16,676.018C4532.16,678.164 4530.41,679.907 4528.27,679.907C4526.12,679.907 4524.38,678.164 4524.38,676.018C4524.38,673.871 4526.12,672.128 4528.27,672.128Z" style="fill:rgb(201,138,147);"/>
            </g>
            <g transform="matrix(-1.93522,0.516113,-0.871888,-1.14555,11667.8,-1261.42)">
                <circle cx="4528.27" cy="676.018" r="4.889" style="fill:rgb(238,212,197);"/>
                <path d="M4528.27,671.128C4530.97,671.128 4533.16,673.319 4533.16,676.018C4533.16,678.716 4530.97,680.907 4528.27,680.907C4525.57,680.907 4523.38,678.716 4523.38,676.018C4523.38,673.319 4525.57,671.128 4528.27,671.128ZM4528.27,672.128C4530.41,672.128 4532.16,673.871 4532.16,676.018C4532.16,678.164 4530.41,679.907 4528.27,679.907C4526.12,679.907 4524.38,678.164 4524.38,676.018C4524.38,673.871 4526.12,672.128 4528.27,672.128Z" style="fill:rgb(201,138,147);"/>
            </g>
            <g transform="matrix(-1.93522,0.516113,-0.871888,-1.14555,11842.1,-1233.8)">
                <circle cx="4528.27" cy="676.018" r="4.889" style="fill:rgb(238,212,197);"/>
                <path d="M4528.27,671.128C4530.97,671.128 4533.16,673.319 4533.16,676.018C4533.16,678.716 4530.97,680.907 4528.27,680.907C4525.57,680.907 4523.38,678.716 4523.38,676.018C4523.38,673.319 4525.57,671.128 4528.27,671.128ZM4528.27,672.128C4530.41,672.128 4532.16,673.871 4532.16,676.018C4532.16,678.164 4530.41,679.907 4528.27,679.907C4526.12,679.907 4524.38,678.164 4524.38,676.018C4524.38,673.871 4526.12,672.128 4528.27,672.128Z" style="fill:rgb(201,138,147);"/>
            </g>
            <g transform="matrix(-1.93522,0.516113,-0.871888,-1.14555,11863.6,-1326.44)">
                <circle cx="4528.27" cy="676.018" r="4.889" style="fill:rgb(238,212,197);"/>
                <path d="M4528.27,671.128C4530.97,671.128 4533.16,673.319 4533.16,676.018C4533.16,678.716 4530.97,680.907 4528.27,680.907C4525.57,680.907 4523.38,678.716 4523.38,676.018C4523.38,673.319 4525.57,671.128 4528.27,671.128ZM4528.27,672.128C4530.41,672.128 4532.16,673.871 4532.16,676.018C4532.16,678.164 4530.41,679.907 4528.27,679.907C4526.12,679.907 4524.38,678.164 4524.38,676.018C4524.38,673.871 4526.12,672.128 4528.27,672.128Z" style="fill:rgb(201,138,147);"/>
            </g>
            <g transform="matrix(-1.93522,0.516113,-0.871888,-1.14555,11752.9,-1340.91)">
                <circle cx="4528.27" cy="676.018" r="4.889" style="fill:rgb(238,212,197);"/>
                <path d="M4528.27,671.128C4530.97,671.128 4533.16,673.319 4533.16,676.018C4533.16,678.716 4530.97,680.907 4528.27,680.907C4525.57,680.907 4523.38,678.716 4523.38,676.018C4523.38,673.319 4525.57,671.128 4528.27,671.128ZM4528.27,672.128C4530.41,672.128 4532.16,673.871 4532.16,676.018C4532.16,678.164 4530.41,679.907 4528.27,679.907C4526.12,679.907 4524.38,678.164 4524.38,676.018C4524.38,673.871 4526.12,672.128 4528.27,672.128Z" style="fill:rgb(201,138,147);"/>
            </g>
            <g transform="matrix(4.68431,0,0,2.77287,-27282.1,-1041.08)">
                <path d="M6284.99,426.704C6300.05,426.704 6312.27,438.924 6312.27,453.976C6312.27,469.028 6300.05,481.248 6284.99,481.248C6269.94,481.248 6257.72,469.028 6257.72,453.976C6257.72,438.924 6269.94,426.704 6284.99,426.704ZM6284.99,427.61C6299.55,427.61 6311.36,439.424 6311.36,453.976C6311.36,468.528 6299.55,480.342 6284.99,480.342C6270.44,480.342 6258.63,468.528 6258.63,453.976C6258.63,439.424 6270.44,427.61 6284.99,427.61Z" style="fill:rgb(188,188,188);"/>
            </g>
            <g transform="matrix(11.3434,0,0,6.71474,-69134.7,-2830.59)">
                <circle cx="6284.99" cy="453.976" r="27.272" style="fill:none;stroke:rgb(188,188,188);stroke-width:0.37px;stroke-dasharray:0.75,1.5,0,0;"/>
            </g>
        </g>
    </g>
</svg>
