<?xml version="1.0" encoding="UTF-8" standalone="no"?>
<!DOCTYPE svg PUBLIC "-//W3C//DTD SVG 1.1//EN" "http://www.w3.org/Graphics/SVG/1.1/DTD/svg11.dtd">
<svg width="100%" height="100%" viewBox="0 0 161 151" version="1.1" xmlns="http://www.w3.org/2000/svg" xmlns:xlink="http://www.w3.org/1999/xlink" xml:space="preserve" xmlns:serif="http://www.serif.com/" style="fill-rule:evenodd;clip-rule:evenodd;stroke-linejoin:round;stroke-miterlimit:2;">
    <g transform="matrix(1,0,0,1,-6375,-1562)">
        <g id="_013_a03" serif:id="013_a03" transform="matrix(1.23077,0,0,1,3239.58,1108.61)">
            <rect x="2547.91" y="454.279" width="130" height="150" style="fill:none;"/>
            <clipPath id="_clip1">
                <rect x="2547.91" y="454.279" width="130" height="150"/>
            </clipPath>
            <g clip-path="url(#_clip1)">
                <g transform="matrix(1.08333,0,0,0.993377,-3966.18,-1097.23)">
                    <rect x="6013" y="1562" width="120" height="151" style="fill:rgb(209,235,206);"/>
                </g>
                <g transform="matrix(0.284375,0,0,0.378478,837.958,-136.903)">
                    <rect x="6013" y="1562" width="120" height="151" style="fill:rgb(238,212,197);"/>
                </g>
                <g transform="matrix(0.495325,0,0,0.466275,-359.926,-194.301)">
                    <path d="M6133,1549.13L6083.01,1549.13L6083.29,1593.92L6044.42,1593.92L6044.42,1628.48L6013,1626.7L6013,1670.44L6044.42,1670.44L6044.42,1713L6133,1713L6133,1549.13Z" style="fill:rgb(238,212,197);"/>
                </g>
                <g transform="matrix(0.8125,0,0,1,-2632.16,-1108.61)">
                    <path d="M6535.47,1581.57L6491.11,1581.57L6491.11,1601L6507.79,1601L6507.79,1614L6535.47,1614L6535.47,1581.57Z" style="fill:rgb(238,212,197);"/>
                </g>
                <g transform="matrix(-0.691373,1.47846,-1.20125,-0.85092,6539.1,-5632.34)">
                    <circle cx="4528.27" cy="676.018" r="4.889" style="fill:rgb(161,233,149);"/>
                    <path d="M4528.27,671.128C4530.97,671.128 4533.16,673.319 4533.16,676.018C4533.16,678.716 4530.97,680.907 4528.27,680.907C4525.57,680.907 4523.38,678.716 4523.38,676.018C4523.38,673.319 4525.57,671.128 4528.27,671.128ZM4528.27,671.715C4530.64,671.715 4532.57,673.643 4532.57,676.018C4532.57,678.393 4530.64,680.321 4528.27,680.321C4525.89,680.321 4523.96,678.393 4523.96,676.018C4523.96,673.643 4525.89,671.715 4528.27,671.715L4528.27,671.715Z" style="fill:rgb(171,195,161);"/>
                </g>
                <g transform="matrix(-0.691373,1.47846,-1.20125,-0.85092,6563.83,-5638.98)">
                    <circle cx="4528.27" cy="676.018" r="4.889" style="fill:rgb(161,233,149);"/>
                    <path d="M4528.27,671.128C4530.97,671.128 4533.16,673.319 4533.16,676.018C4533.16,678.716 4530.97,680.907 4528.27,680.907C4525.57,680.907 4523.38,678.716 4523.38,676.018C4523.38,673.319 4525.57,671.128 4528.27,671.128ZM4528.27,671.715C4530.64,671.715 4532.57,673.643 4532.57,676.018C4532.57,678.393 4530.64,680.321 4528.27,680.321C4525.89,680.321 4523.96,678.393 4523.96,676.018C4523.96,673.643 4525.89,671.715 4528.27,671.715L4528.27,671.715Z" style="fill:rgb(171,195,161);"/>
                </g>
                <g transform="matrix(-0.691373,1.47846,-1.20125,-0.85092,6551.6,-5594.02)">
                    <circle cx="4528.27" cy="676.018" r="4.889" style="fill:rgb(161,233,149);"/>
                    <path d="M4528.27,671.128C4530.97,671.128 4533.16,673.319 4533.16,676.018C4533.16,678.716 4530.97,680.907 4528.27,680.907C4525.57,680.907 4523.38,678.716 4523.38,676.018C4523.38,673.319 4525.57,671.128 4528.27,671.128ZM4528.27,671.715C4530.64,671.715 4532.57,673.643 4532.57,676.018C4532.57,678.393 4530.64,680.321 4528.27,680.321C4525.89,680.321 4523.96,678.393 4523.96,676.018C4523.96,673.643 4525.89,671.715 4528.27,671.715L4528.27,671.715Z" style="fill:rgb(171,195,161);"/>
                </g>
                <g transform="matrix(-0.691373,1.47846,-1.20125,-0.85092,6584.31,-5586.62)">
                    <circle cx="4528.27" cy="676.018" r="4.889" style="fill:rgb(161,233,149);"/>
                    <path d="M4528.27,671.128C4530.97,671.128 4533.16,673.319 4533.16,676.018C4533.16,678.716 4530.97,680.907 4528.27,680.907C4525.57,680.907 4523.38,678.716 4523.38,676.018C4523.38,673.319 4525.57,671.128 4528.27,671.128ZM4528.27,671.715C4530.64,671.715 4532.57,673.643 4532.57,676.018C4532.57,678.393 4530.64,680.321 4528.27,680.321C4525.89,680.321 4523.96,678.393 4523.96,676.018C4523.96,673.643 4525.89,671.715 4528.27,671.715Z" style="fill:rgb(171,195,161);"/>
                </g>
                <g transform="matrix(-0.691373,1.47846,-1.20125,-0.85092,6604.36,-5602.46)">
                    <circle cx="4528.27" cy="676.018" r="4.889" style="fill:rgb(161,233,149);"/>
                    <path d="M4528.27,671.128C4530.97,671.128 4533.16,673.319 4533.16,676.018C4533.16,678.716 4530.97,680.907 4528.27,680.907C4525.57,680.907 4523.38,678.716 4523.38,676.018C4523.38,673.319 4525.57,671.128 4528.27,671.128ZM4528.27,671.715C4530.64,671.715 4532.57,673.643 4532.57,676.018C4532.57,678.393 4530.64,680.321 4528.27,680.321C4525.89,680.321 4523.96,678.393 4523.96,676.018C4523.96,673.643 4525.89,671.715 4528.27,671.715L4528.27,671.715Z" style="fill:rgb(171,195,161);"/>
                </g>
                <g transform="matrix(-0.691373,1.47846,-1.20125,-0.85092,6558.46,-5562.38)">
                    <circle cx="4528.27" cy="676.018" r="4.889" style="fill:rgb(161,233,149);"/>
                    <path d="M4528.27,671.128C4530.97,671.128 4533.16,673.319 4533.16,676.018C4533.16,678.716 4530.97,680.907 4528.27,680.907C4525.57,680.907 4523.38,678.716 4523.38,676.018C4523.38,673.319 4525.57,671.128 4528.27,671.128ZM4528.27,671.715C4530.64,671.715 4532.57,673.643 4532.57,676.018C4532.57,678.393 4530.64,680.321 4528.27,680.321C4525.89,680.321 4523.96,678.393 4523.96,676.018C4523.96,673.643 4525.89,671.715 4528.27,671.715Z" style="fill:rgb(171,195,161);"/>
                </g>
                <g transform="matrix(-0.691373,1.47846,-1.20125,-0.85092,6556.66,-5528.74)">
                    <circle cx="4528.27" cy="676.018" r="4.889" style="fill:rgb(161,233,149);"/>
                    <path d="M4528.27,671.128C4530.97,671.128 4533.16,673.319 4533.16,676.018C4533.16,678.716 4530.97,680.907 4528.27,680.907C4525.57,680.907 4523.38,678.716 4523.38,676.018C4523.38,673.319 4525.57,671.128 4528.27,671.128ZM4528.27,671.715C4530.64,671.715 4532.57,673.643 4532.57,676.018C4532.57,678.393 4530.64,680.321 4528.27,680.321C4525.89,680.321 4523.96,678.393 4523.96,676.018C4523.96,673.643 4525.89,671.715 4528.27,671.715Z" style="fill:rgb(171,195,161);"/>
                </g>
                <g transform="matrix(-0.691373,1.47846,-1.20125,-0.85092,6521.29,-5548.25)">
                    <circle cx="4528.27" cy="676.018" r="4.889" style="fill:rgb(161,233,149);"/>
                    <path d="M4528.27,671.128C4530.97,671.128 4533.16,673.319 4533.16,676.018C4533.16,678.716 4530.97,680.907 4528.27,680.907C4525.57,680.907 4523.38,678.716 4523.38,676.018C4523.38,673.319 4525.57,671.128 4528.27,671.128ZM4528.27,671.715C4530.64,671.715 4532.57,673.643 4532.57,676.018C4532.57,678.393 4530.64,680.321 4528.27,680.321C4525.89,680.321 4523.96,678.393 4523.96,676.018C4523.96,673.643 4525.89,671.715 4528.27,671.715Z" style="fill:rgb(171,195,161);"/>
                </g>
                <g transform="matrix(-0.691373,1.47846,-1.20125,-0.85092,6591.43,-5655)">
                    <circle cx="4528.27" cy="676.018" r="4.889" style="fill:rgb(161,233,149);"/>
                    <path d="M4528.27,671.128C4530.97,671.128 4533.16,673.319 4533.16,676.018C4533.16,678.716 4530.97,680.907 4528.27,680.907C4525.57,680.907 4523.38,678.716 4523.38,676.018C4523.38,673.319 4525.57,671.128 4528.27,671.128ZM4528.27,671.715C4530.64,671.715 4532.57,673.643 4532.57,676.018C4532.57,678.393 4530.64,680.321 4528.27,680.321C4525.89,680.321 4523.96,678.393 4523.96,676.018C4523.96,673.643 4525.89,671.715 4528.27,671.715Z" style="fill:rgb(171,195,161);"/>
                </g>
                <g transform="matrix(-1.26367,0.700713,-0.569329,-1.55528,8668.16,-1649.25)">
                    <circle cx="4528.27" cy="676.018" r="4.889" style="fill:rgb(227,157,152);"/>
                    <path d="M4528.27,671.128C4530.97,671.128 4533.16,673.319 4533.16,676.018C4533.16,678.716 4530.97,680.907 4528.27,680.907C4525.57,680.907 4523.38,678.716 4523.38,676.018C4523.38,673.319 4525.57,671.128 4528.27,671.128ZM4528.27,671.715C4530.64,671.715 4532.57,673.643 4532.57,676.018C4532.57,678.393 4530.64,680.321 4528.27,680.321C4525.89,680.321 4523.96,678.393 4523.96,676.018C4523.96,673.643 4525.89,671.715 4528.27,671.715L4528.27,671.715Z" style="fill:rgb(201,138,147);"/>
                </g>
                <g transform="matrix(-1.26367,0.700713,-0.569329,-1.55528,8681.16,-1622.25)">
                    <circle cx="4528.27" cy="676.018" r="4.889" style="fill:rgb(227,157,152);"/>
                    <path d="M4528.27,671.128C4530.97,671.128 4533.16,673.319 4533.16,676.018C4533.16,678.716 4530.97,680.907 4528.27,680.907C4525.57,680.907 4523.38,678.716 4523.38,676.018C4523.38,673.319 4525.57,671.128 4528.27,671.128ZM4528.27,671.715C4530.64,671.715 4532.57,673.643 4532.57,676.018C4532.57,678.393 4530.64,680.321 4528.27,680.321C4525.89,680.321 4523.96,678.393 4523.96,676.018C4523.96,673.643 4525.89,671.715 4528.27,671.715L4528.27,671.715Z" style="fill:rgb(201,138,147);"/>
                </g>
                <g transform="matrix(-1.26367,0.700713,-0.569329,-1.55528,8760.79,-1641.25)">
                    <circle cx="4528.27" cy="676.018" r="4.889" style="fill:rgb(227,157,152);"/>
                    <path d="M4528.27,671.128C4530.97,671.128 4533.16,673.319 4533.16,676.018C4533.16,678.716 4530.97,680.907 4528.27,680.907C4525.57,680.907 4523.38,678.716 4523.38,676.018C4523.38,673.319 4525.57,671.128 4528.27,671.128ZM4528.27,671.715C4530.64,671.715 4532.57,673.643 4532.57,676.018C4532.57,678.393 4530.64,680.321 4528.27,680.321C4525.89,680.321 4523.96,678.393 4523.96,676.018C4523.96,673.643 4525.89,671.715 4528.27,671.715L4528.27,671.715Z" style="fill:rgb(201,138,147);"/>
                </g>
                <g transform="matrix(-1.26367,0.700713,-0.569329,-1.55528,8773.79,-1627.25)">
                    <circle cx="4528.27" cy="676.018" r="4.889" style="fill:rgb(227,157,152);"/>
                    <path d="M4528.27,671.128C4530.97,671.128 4533.16,673.319 4533.16,676.018C4533.16,678.716 4530.97,680.907 4528.27,680.907C4525.57,680.907 4523.38,678.716 4523.38,676.018C4523.38,673.319 4525.57,671.128 4528.27,671.128ZM4528.27,671.715C4530.64,671.715 4532.57,673.643 4532.57,676.018C4532.57,678.393 4530.64,680.321 4528.27,680.321C4525.89,680.321 4523.96,678.393 4523.96,676.018C4523.96,673.643 4525.89,671.715 4528.27,671.715L4528.27,671.715Z" style="fill:rgb(201,138,147);"/>
                </g>
                <g transform="matrix(-1.26367,0.700713,-0.569329,-1.55528,8770.54,-1579.25)">
                    <circle cx="4528.27" cy="676.018" r="4.889" style="fill:rgb(227,157,152);"/>
                    <path d="M4528.27,671.128C4530.97,671.128 4533.16,673.319 4533.16,676.018C4533.16,678.716 4530.97,680.907 4528.27,680.907C4525.57,680.907 4523.38,678.716 4523.38,676.018C4523.38,673.319 4525.57,671.128 4528.27,671.128ZM4528.27,671.715C4530.64,671.715 4532.57,673.643 4532.57,676.018C4532.57,678.393 4530.64,680.321 4528.27,680.321C4525.89,680.321 4523.96,678.393 4523.96,676.018C4523.96,673.643 4525.89,671.715 4528.27,671.715Z" style="fill:rgb(201,138,147);"/>
                </g>
                <g transform="matrix(-1.26367,0.700713,-0.569329,-1.55528,8757.54,-1548.25)">
                    <circle cx="4528.27" cy="676.018" r="4.889" style="fill:rgb(227,157,152);"/>
                    <path d="M4528.27,671.128C4530.97,671.128 4533.16,673.319 4533.16,676.018C4533.16,678.716 4530.97,680.907 4528.27,680.907C4525.57,680.907 4523.38,678.716 4523.38,676.018C4523.38,673.319 4525.57,671.128 4528.27,671.128ZM4528.27,671.715C4530.64,671.715 4532.57,673.643 4532.57,676.018C4532.57,678.393 4530.64,680.321 4528.27,680.321C4525.89,680.321 4523.96,678.393 4523.96,676.018C4523.96,673.643 4525.89,671.715 4528.27,671.715L4528.27,671.715Z" style="fill:rgb(201,138,147);"/>
                </g>
                <g transform="matrix(-1.26367,0.700713,-0.569329,-1.55528,8770.54,-1529.25)">
                    <circle cx="4528.27" cy="676.018" r="4.889" style="fill:rgb(227,157,152);"/>
                    <path d="M4528.27,671.128C4530.97,671.128 4533.16,673.319 4533.16,676.018C4533.16,678.716 4530.97,680.907 4528.27,680.907C4525.57,680.907 4523.38,678.716 4523.38,676.018C4523.38,673.319 4525.57,671.128 4528.27,671.128ZM4528.27,671.715C4530.64,671.715 4532.57,673.643 4532.57,676.018C4532.57,678.393 4530.64,680.321 4528.27,680.321C4525.89,680.321 4523.96,678.393 4523.96,676.018C4523.96,673.643 4525.89,671.715 4528.27,671.715L4528.27,671.715Z" style="fill:rgb(201,138,147);"/>
                </g>
                <g transform="matrix(-1.26367,0.700713,-0.569329,-1.55528,8733.16,-1547.25)">
                    <circle cx="4528.27" cy="676.018" r="4.889" style="fill:rgb(227,157,152);"/>
                    <path d="M4528.27,671.128C4530.97,671.128 4533.16,673.319 4533.16,676.018C4533.16,678.716 4530.97,680.907 4528.27,680.907C4525.57,680.907 4523.38,678.716 4523.38,676.018C4523.38,673.319 4525.57,671.128 4528.27,671.128ZM4528.27,671.715C4530.64,671.715 4532.57,673.643 4532.57,676.018C4532.57,678.393 4530.64,680.321 4528.27,680.321C4525.89,680.321 4523.96,678.393 4523.96,676.018C4523.96,673.643 4525.89,671.715 4528.27,671.715L4528.27,671.715Z" style="fill:rgb(201,138,147);"/>
                </g>
            </g>
        </g>
    </g>
</svg>
