<?xml version="1.0" encoding="UTF-8" standalone="no"?>
<!DOCTYPE svg PUBLIC "-//W3C//DTD SVG 1.1//EN" "http://www.w3.org/Graphics/SVG/1.1/DTD/svg11.dtd">
<svg width="100%" height="100%" viewBox="0 0 381 256" version="1.1" xmlns="http://www.w3.org/2000/svg" xmlns:xlink="http://www.w3.org/1999/xlink" xml:space="preserve" xmlns:serif="http://www.serif.com/" style="fill-rule:evenodd;clip-rule:evenodd;stroke-linecap:round;stroke-linejoin:round;stroke-miterlimit:1.5;">
    <g transform="matrix(1,0,0,1,-10719,-1589)">
        <g id="_021_1" serif:id="021_1" transform="matrix(0.471129,0,0,0.563759,9892.42,1594.54)">
            <rect x="1755.48" y="-8.417" width="806.573" height="452.321" style="fill:none;"/>
            <g transform="matrix(2.12256,0,0,1.77381,-20995.9,-2935.7)">
                <path d="M10971.8,1778.75L10845.9,1720.03" style="fill:none;stroke:black;stroke-width:1px;"/>
            </g>
            <g transform="matrix(2.12256,0,0,1.77381,-20995.9,-2935.7)">
                <path d="M10845.9,1840.24L10971.8,1778.75" style="fill:none;stroke:black;stroke-width:1px;"/>
            </g>
            <g transform="matrix(-6.39486,2.40773,-2.88112,-5.34414,32930.5,-7174.81)">
                <circle cx="4528.27" cy="676.018" r="4.889" style="fill:rgb(255,241,169);"/>
                <path d="M4528.27,671.128C4530.97,671.128 4533.16,673.319 4533.16,676.018C4533.16,678.716 4530.97,680.907 4528.27,680.907C4525.57,680.907 4523.38,678.716 4523.38,676.018C4523.38,673.319 4525.57,671.128 4528.27,671.128ZM4528.27,671.431C4530.8,671.431 4532.85,673.486 4532.85,676.018C4532.85,678.549 4530.8,680.604 4528.27,680.604C4525.73,680.604 4523.68,678.549 4523.68,676.018C4523.68,673.486 4525.73,671.431 4528.27,671.431L4528.27,671.431Z" style="fill:rgb(209,195,106);"/>
            </g>
            <g transform="matrix(-6.39486,2.40773,-2.88112,-5.34414,32930.5,-6961.57)">
                <circle cx="4528.27" cy="676.018" r="4.889" style="fill:rgb(255,241,169);"/>
                <path d="M4528.27,671.128C4530.97,671.128 4533.16,673.319 4533.16,676.018C4533.16,678.716 4530.97,680.907 4528.27,680.907C4525.57,680.907 4523.38,678.716 4523.38,676.018C4523.38,673.319 4525.57,671.128 4528.27,671.128ZM4528.27,671.431C4530.8,671.431 4532.85,673.486 4532.85,676.018C4532.85,678.549 4530.8,680.604 4528.27,680.604C4525.73,680.604 4523.68,678.549 4523.68,676.018C4523.68,673.486 4525.73,671.431 4528.27,671.431Z" style="fill:rgb(209,195,106);"/>
            </g>
            <g transform="matrix(-6.39486,2.40773,-2.88112,-5.34414,33197.6,-7070.64)">
                <circle cx="4528.27" cy="676.018" r="4.889" style="fill:rgb(231,173,173);"/>
                <path d="M4528.27,671.128C4530.97,671.128 4533.16,673.319 4533.16,676.018C4533.16,678.716 4530.97,680.907 4528.27,680.907C4525.57,680.907 4523.38,678.716 4523.38,676.018C4523.38,673.319 4525.57,671.128 4528.27,671.128ZM4528.27,671.431C4530.8,671.431 4532.85,673.486 4532.85,676.018C4532.85,678.549 4530.8,680.604 4528.27,680.604C4525.73,680.604 4523.68,678.549 4523.68,676.018C4523.68,673.486 4525.73,671.431 4528.27,671.431Z" style="fill:rgb(201,138,138);"/>
            </g>
        </g>
    </g>
</svg>
