<?xml version="1.0" encoding="UTF-8" standalone="no"?>
<!DOCTYPE svg PUBLIC "-//W3C//DTD SVG 1.1//EN" "http://www.w3.org/Graphics/SVG/1.1/DTD/svg11.dtd">
<svg width="100%" height="100%" viewBox="0 0 381 256" version="1.1" xmlns="http://www.w3.org/2000/svg" xmlns:xlink="http://www.w3.org/1999/xlink" xml:space="preserve" xmlns:serif="http://www.serif.com/" style="fill-rule:evenodd;clip-rule:evenodd;stroke-linecap:round;stroke-linejoin:round;stroke-miterlimit:1.5;">
    <g transform="matrix(1,0,0,1,-11128,-1589)">
        <g id="_021_2" serif:id="021_2" transform="matrix(0.471129,0,0,0.563759,10301.3,1594.54)">
            <rect x="1755.48" y="-8.417" width="806.573" height="452.321" style="fill:none;"/>
            <g transform="matrix(2.12256,0,0,1.77381,-21865.2,-2828.41)">
                <path d="M11276.1,1617.99L11191.4,1651.09L11276.1,1816.6" style="fill:none;stroke:black;stroke-width:1px;"/>
            </g>
            <g transform="matrix(2.12256,0,0,1.77381,-21865.2,-2828.41)">
                <path d="M11276.1,1750.4L11191.4,1651.09L11276.1,1684.19" style="fill:none;stroke:black;stroke-width:1px;"/>
            </g>
            <g transform="matrix(2.12256,0,0,-1.77381,-21865.2,3263.89)">
                <path d="M11276.1,1617.99L11191.4,1651.09L11276.1,1816.6" style="fill:none;stroke:black;stroke-width:1px;"/>
            </g>
            <g transform="matrix(2.12256,0,0,-1.77381,-21865.2,3263.89)">
                <path d="M11276.1,1750.4L11191.4,1651.09L11276.1,1684.19" style="fill:none;stroke:black;stroke-width:1px;"/>
            </g>
            <g transform="matrix(2.12256,0,0,-1.77381,-21865.2,3263.89)">
                <path d="M11276.1,1617.99L11191.4,1717.29L11276.1,1816.6" style="fill:none;stroke:black;stroke-width:1px;"/>
            </g>
            <g transform="matrix(2.12256,0,0,-1.77381,-21865.2,3263.89)">
                <path d="M11276.1,1750.4L11191.4,1717.29L11276.1,1684.19" style="fill:none;stroke:black;stroke-width:1px;"/>
            </g>
            <g transform="matrix(-2.12256,0,0,-1.77381,26182.8,3263.89)">
                <path d="M11276.1,1617.99L11191.4,1750.4L11276.1,1816.6" style="fill:none;stroke:black;stroke-width:1px;"/>
            </g>
            <g transform="matrix(-2.12256,0,0,-1.77381,26182.8,3263.89)">
                <path d="M11276.1,1750.4L11191.4,1750.4L11276.1,1684.19" style="fill:none;stroke:black;stroke-width:1px;"/>
            </g>
            <g transform="matrix(-2.12256,0,0,1.77381,26182.8,-2828.41)">
                <path d="M11276.1,1617.99L11191.4,1750.4L11276.1,1816.6" style="fill:none;stroke:black;stroke-width:1px;"/>
            </g>
            <g transform="matrix(-2.12256,0,0,1.77381,26182.8,-2828.41)">
                <path d="M11276.1,1750.4L11191.4,1750.4L11276.1,1684.19" style="fill:none;stroke:black;stroke-width:1px;"/>
            </g>
            <g transform="matrix(2.12256,0,0,1.77381,-21865.2,-2828.41)">
                <path d="M11360.7,1816.6L11276.1,1816.6L11360.7,1750.4" style="fill:none;stroke:black;stroke-width:1px;"/>
            </g>
            <g transform="matrix(2.12256,0,0,1.77381,-21865.2,-2828.41)">
                <path d="M11360.7,1684.19L11276.1,1816.6L11360.7,1617.99" style="fill:none;stroke:black;stroke-width:1px;"/>
            </g>
            <g transform="matrix(2.12256,0,0,-1.77381,-21865.2,3263.89)">
                <path d="M11360.7,1816.6L11276.1,1816.6L11360.7,1750.4" style="fill:none;stroke:black;stroke-width:1px;"/>
            </g>
            <g transform="matrix(2.12256,0,0,-1.77381,-21865.2,3263.89)">
                <path d="M11360.7,1684.19L11276.1,1816.6L11360.7,1617.99" style="fill:none;stroke:black;stroke-width:1px;"/>
            </g>
            <g transform="matrix(2.12256,0,0,-1.77381,-21865.2,3263.89)">
                <path d="M11360.7,1816.6L11276.1,1750.4L11360.7,1750.4" style="fill:none;stroke:black;stroke-width:1px;"/>
            </g>
            <g transform="matrix(2.12256,0,0,-1.77381,-21865.2,3263.89)">
                <path d="M11360.7,1684.19L11276.1,1750.4L11360.7,1617.99" style="fill:none;stroke:black;stroke-width:1px;"/>
            </g>
            <g transform="matrix(2.12256,0,0,1.77381,-21865.2,-2828.41)">
                <path d="M11360.7,1816.6L11276.1,1750.4L11360.7,1750.4" style="fill:none;stroke:black;stroke-width:1px;"/>
            </g>
            <g transform="matrix(2.12256,0,0,1.77381,-21865.2,-2828.41)">
                <path d="M11360.7,1684.19L11276.1,1750.4L11360.7,1617.99" style="fill:none;stroke:black;stroke-width:1px;"/>
            </g>
            <g transform="matrix(7.01392,-4.88498e-15,5.19584e-14,5.86148,-29871.7,-3862.15)">
                <circle cx="4528.27" cy="676.018" r="4.889" style="fill:rgb(255,241,169);"/>
                <path d="M4528.27,671.128C4530.97,671.128 4533.16,673.319 4533.16,676.018C4533.16,678.716 4530.97,680.907 4528.27,680.907C4525.57,680.907 4523.38,678.716 4523.38,676.018C4523.38,673.319 4525.57,671.128 4528.27,671.128ZM4528.27,671.431C4530.8,671.431 4532.85,673.486 4532.85,676.018C4532.85,678.549 4530.8,680.604 4528.27,680.604C4525.73,680.604 4523.68,678.549 4523.68,676.018C4523.68,673.486 4525.73,671.431 4528.27,671.431Z" style="fill:rgb(209,195,106);"/>
            </g>
            <g transform="matrix(7.01392,-3.9968e-15,5.24025e-14,5.86148,-29871.7,-3744.72)">
                <circle cx="4528.27" cy="676.018" r="4.889" style="fill:rgb(255,241,169);"/>
                <path d="M4528.27,671.128C4530.97,671.128 4533.16,673.319 4533.16,676.018C4533.16,678.716 4530.97,680.907 4528.27,680.907C4525.57,680.907 4523.38,678.716 4523.38,676.018C4523.38,673.319 4525.57,671.128 4528.27,671.128ZM4528.27,671.431C4530.8,671.431 4532.85,673.486 4532.85,676.018C4532.85,678.549 4530.8,680.604 4528.27,680.604C4525.73,680.604 4523.68,678.549 4523.68,676.018C4523.68,673.486 4525.73,671.431 4528.27,671.431Z" style="fill:rgb(209,195,106);"/>
            </g>
            <g transform="matrix(7.01392,-2.66454e-15,5.32907e-14,5.86148,-29871.7,-3627.29)">
                <circle cx="4528.27" cy="676.018" r="4.889" style="fill:rgb(255,241,169);"/>
                <path d="M4528.27,671.128C4530.97,671.128 4533.16,673.319 4533.16,676.018C4533.16,678.716 4530.97,680.907 4528.27,680.907C4525.57,680.907 4523.38,678.716 4523.38,676.018C4523.38,673.319 4525.57,671.128 4528.27,671.128ZM4528.27,671.431C4530.8,671.431 4532.85,673.486 4532.85,676.018C4532.85,678.549 4530.8,680.604 4528.27,680.604C4525.73,680.604 4523.68,678.549 4523.68,676.018C4523.68,673.486 4525.73,671.431 4528.27,671.431Z" style="fill:rgb(209,195,106);"/>
            </g>
            <g transform="matrix(7.01392,-3.9968e-15,5.24025e-14,5.86148,-29692,-3920.87)">
                <circle cx="4528.27" cy="676.018" r="4.889" style="fill:rgb(209,235,206);"/>
                <path d="M4528.27,671.128C4530.97,671.128 4533.16,673.319 4533.16,676.018C4533.16,678.716 4530.97,680.907 4528.27,680.907C4525.57,680.907 4523.38,678.716 4523.38,676.018C4523.38,673.319 4525.57,671.128 4528.27,671.128ZM4528.27,671.431C4530.8,671.431 4532.85,673.486 4532.85,676.018C4532.85,678.549 4530.8,680.604 4528.27,680.604C4525.73,680.604 4523.68,678.549 4523.68,676.018C4523.68,673.486 4525.73,671.431 4528.27,671.431Z" style="fill:rgb(171,195,161);"/>
            </g>
            <g transform="matrix(7.01392,-2.66454e-15,5.32907e-14,5.86148,-29692,-3803.44)">
                <circle cx="4528.27" cy="676.018" r="4.889" style="fill:rgb(209,235,206);"/>
                <path d="M4528.27,671.128C4530.97,671.128 4533.16,673.319 4533.16,676.018C4533.16,678.716 4530.97,680.907 4528.27,680.907C4525.57,680.907 4523.38,678.716 4523.38,676.018C4523.38,673.319 4525.57,671.128 4528.27,671.128ZM4528.27,671.431C4530.8,671.431 4532.85,673.486 4532.85,676.018C4532.85,678.549 4530.8,680.604 4528.27,680.604C4525.73,680.604 4523.68,678.549 4523.68,676.018C4523.68,673.486 4525.73,671.431 4528.27,671.431Z" style="fill:rgb(171,195,161);"/>
            </g>
            <g transform="matrix(7.01392,-1.33227e-15,5.41789e-14,5.86148,-29692,-3686)">
                <circle cx="4528.27" cy="676.018" r="4.889" style="fill:rgb(209,235,206);"/>
                <path d="M4528.27,671.128C4530.97,671.128 4533.16,673.319 4533.16,676.018C4533.16,678.716 4530.97,680.907 4528.27,680.907C4525.57,680.907 4523.38,678.716 4523.38,676.018C4523.38,673.319 4525.57,671.128 4528.27,671.128ZM4528.27,671.431C4530.8,671.431 4532.85,673.486 4532.85,676.018C4532.85,678.549 4530.8,680.604 4528.27,680.604C4525.73,680.604 4523.68,678.549 4523.68,676.018C4523.68,673.486 4525.73,671.431 4528.27,671.431Z" style="fill:rgb(171,195,161);"/>
            </g>
            <g transform="matrix(7.01392,0,5.50671e-14,5.86148,-29692,-3568.57)">
                <circle cx="4528.27" cy="676.018" r="4.889" style="fill:rgb(209,235,206);"/>
                <path d="M4528.27,671.128C4530.97,671.128 4533.16,673.319 4533.16,676.018C4533.16,678.716 4530.97,680.907 4528.27,680.907C4525.57,680.907 4523.38,678.716 4523.38,676.018C4523.38,673.319 4525.57,671.128 4528.27,671.128ZM4528.27,671.431C4530.8,671.431 4532.85,673.486 4532.85,676.018C4532.85,678.549 4530.8,680.604 4528.27,680.604C4525.73,680.604 4523.68,678.549 4523.68,676.018C4523.68,673.486 4525.73,671.431 4528.27,671.431Z" style="fill:rgb(171,195,161);"/>
            </g>
            <g transform="matrix(7.01392,-2.66454e-15,5.32907e-14,5.86148,-29512.3,-3920.87)">
                <circle cx="4528.27" cy="676.018" r="4.889" style="fill:rgb(209,235,206);"/>
                <path d="M4528.27,671.128C4530.97,671.128 4533.16,673.319 4533.16,676.018C4533.16,678.716 4530.97,680.907 4528.27,680.907C4525.57,680.907 4523.38,678.716 4523.38,676.018C4523.38,673.319 4525.57,671.128 4528.27,671.128ZM4528.27,671.431C4530.8,671.431 4532.85,673.486 4532.85,676.018C4532.85,678.549 4530.8,680.604 4528.27,680.604C4525.73,680.604 4523.68,678.549 4523.68,676.018C4523.68,673.486 4525.73,671.431 4528.27,671.431Z" style="fill:rgb(171,195,161);"/>
            </g>
            <g transform="matrix(7.01392,-1.33227e-15,5.41789e-14,5.86148,-29512.3,-3803.44)">
                <circle cx="4528.27" cy="676.018" r="4.889" style="fill:rgb(209,235,206);"/>
                <path d="M4528.27,671.128C4530.97,671.128 4533.16,673.319 4533.16,676.018C4533.16,678.716 4530.97,680.907 4528.27,680.907C4525.57,680.907 4523.38,678.716 4523.38,676.018C4523.38,673.319 4525.57,671.128 4528.27,671.128ZM4528.27,671.431C4530.8,671.431 4532.85,673.486 4532.85,676.018C4532.85,678.549 4530.8,680.604 4528.27,680.604C4525.73,680.604 4523.68,678.549 4523.68,676.018C4523.68,673.486 4525.73,671.431 4528.27,671.431Z" style="fill:rgb(171,195,161);"/>
            </g>
            <g transform="matrix(7.01392,0,5.50671e-14,5.86148,-29512.3,-3686)">
                <circle cx="4528.27" cy="676.018" r="4.889" style="fill:rgb(209,235,206);"/>
                <path d="M4528.27,671.128C4530.97,671.128 4533.16,673.319 4533.16,676.018C4533.16,678.716 4530.97,680.907 4528.27,680.907C4525.57,680.907 4523.38,678.716 4523.38,676.018C4523.38,673.319 4525.57,671.128 4528.27,671.128ZM4528.27,671.431C4530.8,671.431 4532.85,673.486 4532.85,676.018C4532.85,678.549 4530.8,680.604 4528.27,680.604C4525.73,680.604 4523.68,678.549 4523.68,676.018C4523.68,673.486 4525.73,671.431 4528.27,671.431Z" style="fill:rgb(171,195,161);"/>
            </g>
            <g transform="matrix(7.01392,8.88178e-16,5.59552e-14,5.86148,-29512.3,-3568.57)">
                <circle cx="4528.27" cy="676.018" r="4.889" style="fill:rgb(209,235,206);"/>
                <path d="M4528.27,671.128C4530.97,671.128 4533.16,673.319 4533.16,676.018C4533.16,678.716 4530.97,680.907 4528.27,680.907C4525.57,680.907 4523.38,678.716 4523.38,676.018C4523.38,673.319 4525.57,671.128 4528.27,671.128ZM4528.27,671.431C4530.8,671.431 4532.85,673.486 4532.85,676.018C4532.85,678.549 4530.8,680.604 4528.27,680.604C4525.73,680.604 4523.68,678.549 4523.68,676.018C4523.68,673.486 4525.73,671.431 4528.27,671.431Z" style="fill:rgb(171,195,161);"/>
            </g>
            <g transform="matrix(7.01392,0,5.59552e-14,5.86148,-29332.6,-3803.44)">
                <circle cx="4528.27" cy="676.018" r="4.889" style="fill:rgb(231,173,173);"/>
                <path d="M4528.27,671.128C4530.97,671.128 4533.16,673.319 4533.16,676.018C4533.16,678.716 4530.97,680.907 4528.27,680.907C4525.57,680.907 4523.38,678.716 4523.38,676.018C4523.38,673.319 4525.57,671.128 4528.27,671.128ZM4528.27,671.431C4530.8,671.431 4532.85,673.486 4532.85,676.018C4532.85,678.549 4530.8,680.604 4528.27,680.604C4525.73,680.604 4523.68,678.549 4523.68,676.018C4523.68,673.486 4525.73,671.431 4528.27,671.431Z" style="fill:rgb(201,138,138);"/>
            </g>
            <g transform="matrix(7.01392,1.33227e-15,5.63993e-14,5.86148,-29332.6,-3686)">
                <circle cx="4528.27" cy="676.018" r="4.889" style="fill:rgb(231,173,173);"/>
                <path d="M4528.27,671.128C4530.97,671.128 4533.16,673.319 4533.16,676.018C4533.16,678.716 4530.97,680.907 4528.27,680.907C4525.57,680.907 4523.38,678.716 4523.38,676.018C4523.38,673.319 4525.57,671.128 4528.27,671.128ZM4528.27,671.431C4530.8,671.431 4532.85,673.486 4532.85,676.018C4532.85,678.549 4530.8,680.604 4528.27,680.604C4525.73,680.604 4523.68,678.549 4523.68,676.018C4523.68,673.486 4525.73,671.431 4528.27,671.431Z" style="fill:rgb(201,138,138);"/>
            </g>
        </g>
    </g>
</svg>
