<?xml version="1.0" encoding="utf-8"?>
<!-- Generator: Adobe Illustrator 25.0.1, SVG Export Plug-In . SVG Version: 6.00 Build 0)  -->
<svg version="1.1" id="Слой_1" xmlns:serif="http://www.serif.com/"
	 xmlns="http://www.w3.org/2000/svg" xmlns:xlink="http://www.w3.org/1999/xlink" x="0px" y="0px" viewBox="0 0 1920 1080"
	 style="enable-background:new 0 0 1920 1080;" xml:space="preserve">
<style type="text/css">
	.st0{fill:none;}
	.st1{fill-rule:evenodd;clip-rule:evenodd;fill:#FFDACC;}
	.st2{fill-rule:evenodd;clip-rule:evenodd;fill:#FFFFFF;}
	.st3{fill-rule:evenodd;clip-rule:evenodd;fill:#FFFCCC;}
	.st4{fill-rule:evenodd;clip-rule:evenodd;fill:#CCFFD6;}
	.st5{fill-rule:evenodd;clip-rule:evenodd;fill:#CEEAFF;}
</style>
<g transform="matrix(1,0,0,1,-1755,-135)">
	<g id="_003" transform="matrix(0.99185,0,0,1.00594,13.8249,144.46)" serif:id="003">
		<rect x="1768.2" y="-7.1" class="st0" width="1910.3" height="1071.3"/>
		<g>
			<g transform="matrix(1.00822,-0,-0,0.994097,1755.48,-9.40417)">
				<g transform="matrix(0.998448,0,0,0.998448,0,0)">
					
						<image style="overflow:visible;enable-background:new    ;" width="388" height="388" id="_Image1" xlink:href="9859B89B3AF19298.png"  transform="matrix(2.3648 0 0 2.3647 501.2384 146.8772)">
					</image>
				</g>
			</g>
			<g transform="matrix(1.40486,0,0,1.38518,-746.494,-339.123)">
				<circle class="st1" cx="2469.9" cy="672.7" r="318.7"/>
				<path class="st2" d="M2469.9,354c175.9,0,318.7,142.8,318.7,318.7s-142.8,318.7-318.7,318.7c-175.9,0-318.7-142.8-318.7-318.7
					S2294,354,2469.9,354z M2469.9,359.1c173.1,0,313.6,140.5,313.6,313.6S2643,986.3,2469.9,986.3
					c-173.1,0-313.6-140.5-313.6-313.6S2296.8,359.1,2469.9,359.1z"/>
			</g>
		</g>
		<g>
			<g transform="matrix(1.00822,-0,-0,0.994097,1755.48,-9.40417)">
				<g transform="matrix(0.998076,0,0,0.998076,0,0)">
					
						<image style="overflow:visible;enable-background:new    ;" width="313" height="313" id="_Image2" xlink:href="9859B89B3AF19299.png"  transform="matrix(2.3639 0 0 2.3639 590.0538 324.5074)">
					</image>
				</g>
			</g>
			<g transform="matrix(1.12389,0,0,1.10815,-165.442,-185.06)">
				<circle class="st3" cx="2570.4" cy="781.5" r="318.7"/>
				<path class="st2" d="M2570.4,462.8c175.9,0,318.7,142.8,318.7,318.7s-142.8,318.7-318.7,318.7c-175.9,0-318.7-142.8-318.7-318.7
					S2394.5,462.8,2570.4,462.8z M2570.4,469.2c172.4,0,312.3,140,312.3,312.3c0,172.4-139.9,312.3-312.3,312.3
					s-312.3-139.9-312.3-312.3C2258.1,609.1,2398,469.2,2570.4,469.2z"/>
			</g>
		</g>
		<g>
			<g transform="matrix(1.00822,-0,-0,0.994097,1755.48,-9.40417)">
				<g transform="matrix(0.99747,0,0,0.99747,0,0)">
					
						<image style="overflow:visible;enable-background:new    ;" width="238" height="238" id="_Image3" xlink:href="9859B89B3AF1929F.png"  transform="matrix(2.3624 0 0 2.3624 678.871 502.1402)">
					</image>
				</g>
			</g>
			<g transform="matrix(0.842914,0,0,0.83111,415.611,-30.9966)">
				<circle class="st4" cx="2737.8" cy="962.9" r="318.7"/>
				<path class="st2" d="M2737.8,644.2c175.9,0,318.7,142.8,318.7,318.7s-142.8,318.7-318.7,318.7c-175.9,0-318.7-142.8-318.7-318.7
					S2561.9,644.2,2737.8,644.2z M2737.8,652.7c171.2,0,310.2,139,310.2,310.2s-139,310.2-310.2,310.2
					c-171.2,0-310.2-139-310.2-310.2S2566.6,652.7,2737.8,652.7z"/>
			</g>
		</g>
		<g>
			<g transform="matrix(1.00822,-0,-0,0.994097,1755.48,-9.40417)">
				<g transform="matrix(0.996306,0,0,0.996306,0,0)">
					
						<image style="overflow:visible;enable-background:new    ;" width="163" height="163" id="_Image4" xlink:href="9859B89B3AF1929A.png"  transform="matrix(2.3597 0 0 2.3597 767.6858 679.7735)">
					</image>
				</g>
			</g>
			<g transform="matrix(0.561943,0,0,0.554073,996.663,123.067)">
				<circle class="st5" cx="3072.7" cy="1325.6" r="318.7"/>
				<path class="st2" d="M3072.7,1006.9c175.9,0,318.7,142.8,318.7,318.7s-142.8,318.7-318.7,318.7
					c-175.9,0-318.7-142.8-318.7-318.7S2896.9,1006.9,3072.7,1006.9z M3072.7,1019.6c168.9,0,306,137.1,306,306s-137.1,306-306,306
					c-168.8,0-306-137.1-306-306S2903.9,1019.6,3072.7,1019.6z"/>
			</g>
		</g>
	</g>
</g>
</svg>
