<?xml version="1.0" encoding="UTF-8" standalone="no"?>
<!DOCTYPE svg PUBLIC "-//W3C//DTD SVG 1.1//EN" "http://www.w3.org/Graphics/SVG/1.1/DTD/svg11.dtd">
<svg width="100%" height="100%" viewBox="0 0 381 301" version="1.1" xmlns="http://www.w3.org/2000/svg" xmlns:xlink="http://www.w3.org/1999/xlink" xml:space="preserve" xmlns:serif="http://www.serif.com/" style="fill-rule:evenodd;clip-rule:evenodd;stroke-linecap:round;stroke-linejoin:round;stroke-miterlimit:1.5;">
    <g transform="matrix(1,0,0,1,-7132,-836)">
        <g id="_014_1" serif:id="014_1" transform="matrix(0.471129,0,0,0.663245,6305.16,841.613)">
            <rect x="1755.48" y="-8.417" width="806.573" height="452.321" style="fill:none;"/>
            <g transform="matrix(4.06236,0.714067,-1.00525,2.88565,-7925.83,-3189.53)">
                <path d="M2546.03,613.828L2677,454" style="fill:none;stroke:rgb(216,116,131);stroke-width:1.52px;"/>
            </g>
            <g transform="matrix(2.05024,0.390231,-0.549359,1.45636,-6852.23,-2569.45)">
                <circle cx="4528.27" cy="676.018" r="4.889" style="fill:rgb(153,184,201);"/>
                <path d="M4528.27,671.128C4530.97,671.128 4533.16,673.319 4533.16,676.018C4533.16,678.716 4530.97,680.907 4528.27,680.907C4525.57,680.907 4523.38,678.716 4523.38,676.018C4523.38,673.319 4525.57,671.128 4528.27,671.128ZM4528.27,672.128C4530.41,672.128 4532.16,673.871 4532.16,676.018C4532.16,678.164 4530.41,679.907 4528.27,679.907C4526.12,679.907 4524.38,678.164 4524.38,676.018C4524.38,673.871 4526.12,672.128 4528.27,672.128L4528.27,672.128Z" style="fill:rgb(87,137,165);"/>
            </g>
            <g transform="matrix(2.05024,0.390231,-0.549359,1.45636,-7058.37,-2350.57)">
                <circle cx="4528.27" cy="676.018" r="4.889" style="fill:rgb(153,184,201);"/>
                <path d="M4528.27,671.128C4530.97,671.128 4533.16,673.319 4533.16,676.018C4533.16,678.716 4530.97,680.907 4528.27,680.907C4525.57,680.907 4523.38,678.716 4523.38,676.018C4523.38,673.319 4525.57,671.128 4528.27,671.128ZM4528.27,672.128C4530.41,672.128 4532.16,673.871 4532.16,676.018C4532.16,678.164 4530.41,679.907 4528.27,679.907C4526.12,679.907 4524.38,678.164 4524.38,676.018C4524.38,673.871 4526.12,672.128 4528.27,672.128L4528.27,672.128Z" style="fill:rgb(87,137,165);"/>
            </g>
            <g transform="matrix(2.05024,0.390231,-0.549359,1.45636,-6841.75,-2540.28)">
                <circle cx="4528.27" cy="676.018" r="4.889" style="fill:rgb(153,184,201);"/>
                <path d="M4528.27,671.128C4530.97,671.128 4533.16,673.319 4533.16,676.018C4533.16,678.716 4530.97,680.907 4528.27,680.907C4525.57,680.907 4523.38,678.716 4523.38,676.018C4523.38,673.319 4525.57,671.128 4528.27,671.128ZM4528.27,672.128C4530.41,672.128 4532.16,673.871 4532.16,676.018C4532.16,678.164 4530.41,679.907 4528.27,679.907C4526.12,679.907 4524.38,678.164 4524.38,676.018C4524.38,673.871 4526.12,672.128 4528.27,672.128L4528.27,672.128Z" style="fill:rgb(87,137,165);"/>
            </g>
            <g transform="matrix(2.05024,0.390231,-0.549359,1.45636,-6824.58,-2597.12)">
                <circle cx="4528.27" cy="676.018" r="4.889" style="fill:rgb(153,184,201);"/>
                <path d="M4528.27,671.128C4530.97,671.128 4533.16,673.319 4533.16,676.018C4533.16,678.716 4530.97,680.907 4528.27,680.907C4525.57,680.907 4523.38,678.716 4523.38,676.018C4523.38,673.319 4525.57,671.128 4528.27,671.128ZM4528.27,672.128C4530.41,672.128 4532.16,673.871 4532.16,676.018C4532.16,678.164 4530.41,679.907 4528.27,679.907C4526.12,679.907 4524.38,678.164 4524.38,676.018C4524.38,673.871 4526.12,672.128 4528.27,672.128L4528.27,672.128Z" style="fill:rgb(87,137,165);"/>
            </g>
            <g transform="matrix(2.05024,0.390231,-0.549359,1.45636,-6820.45,-2625.23)">
                <circle cx="4528.27" cy="676.018" r="4.889" style="fill:rgb(153,184,201);"/>
                <path d="M4528.27,671.128C4530.97,671.128 4533.16,673.319 4533.16,676.018C4533.16,678.716 4530.97,680.907 4528.27,680.907C4525.57,680.907 4523.38,678.716 4523.38,676.018C4523.38,673.319 4525.57,671.128 4528.27,671.128ZM4528.27,672.128C4530.41,672.128 4532.16,673.871 4532.16,676.018C4532.16,678.164 4530.41,679.907 4528.27,679.907C4526.12,679.907 4524.38,678.164 4524.38,676.018C4524.38,673.871 4526.12,672.128 4528.27,672.128Z" style="fill:rgb(87,137,165);"/>
            </g>
            <g transform="matrix(2.05024,0.390231,-0.549359,1.45636,-6634.75,-2633.78)">
                <circle cx="4528.27" cy="676.018" r="4.889" style="fill:rgb(153,184,201);"/>
                <path d="M4528.27,671.128C4530.97,671.128 4533.16,673.319 4533.16,676.018C4533.16,678.716 4530.97,680.907 4528.27,680.907C4525.57,680.907 4523.38,678.716 4523.38,676.018C4523.38,673.319 4525.57,671.128 4528.27,671.128ZM4528.27,672.128C4530.41,672.128 4532.16,673.871 4532.16,676.018C4532.16,678.164 4530.41,679.907 4528.27,679.907C4526.12,679.907 4524.38,678.164 4524.38,676.018C4524.38,673.871 4526.12,672.128 4528.27,672.128L4528.27,672.128Z" style="fill:rgb(87,137,165);"/>
            </g>
            <g transform="matrix(2.05024,0.390231,-0.549359,1.45636,-6944.52,-2563.8)">
                <circle cx="4528.27" cy="676.018" r="4.889" style="fill:rgb(153,184,201);"/>
                <path d="M4528.27,671.128C4530.97,671.128 4533.16,673.319 4533.16,676.018C4533.16,678.716 4530.97,680.907 4528.27,680.907C4525.57,680.907 4523.38,678.716 4523.38,676.018C4523.38,673.319 4525.57,671.128 4528.27,671.128ZM4528.27,672.128C4530.41,672.128 4532.16,673.871 4532.16,676.018C4532.16,678.164 4530.41,679.907 4528.27,679.907C4526.12,679.907 4524.38,678.164 4524.38,676.018C4524.38,673.871 4526.12,672.128 4528.27,672.128Z" style="fill:rgb(87,137,165);"/>
            </g>
            <g transform="matrix(2.05024,0.390231,-0.549359,1.45636,-6594.43,-2680.64)">
                <circle cx="4528.27" cy="676.018" r="4.889" style="fill:rgb(153,184,201);"/>
                <path d="M4528.27,671.128C4530.97,671.128 4533.16,673.319 4533.16,676.018C4533.16,678.716 4530.97,680.907 4528.27,680.907C4525.57,680.907 4523.38,678.716 4523.38,676.018C4523.38,673.319 4525.57,671.128 4528.27,671.128ZM4528.27,672.128C4530.41,672.128 4532.16,673.871 4532.16,676.018C4532.16,678.164 4530.41,679.907 4528.27,679.907C4526.12,679.907 4524.38,678.164 4524.38,676.018C4524.38,673.871 4526.12,672.128 4528.27,672.128L4528.27,672.128Z" style="fill:rgb(87,137,165);"/>
            </g>
            <g transform="matrix(2.05024,0.390231,-0.549359,1.45636,-6698.91,-2618.71)">
                <circle cx="4528.27" cy="676.018" r="4.889" style="fill:rgb(153,184,201);"/>
                <path d="M4528.27,671.128C4530.97,671.128 4533.16,673.319 4533.16,676.018C4533.16,678.716 4530.97,680.907 4528.27,680.907C4525.57,680.907 4523.38,678.716 4523.38,676.018C4523.38,673.319 4525.57,671.128 4528.27,671.128ZM4528.27,672.128C4530.41,672.128 4532.16,673.871 4532.16,676.018C4532.16,678.164 4530.41,679.907 4528.27,679.907C4526.12,679.907 4524.38,678.164 4524.38,676.018C4524.38,673.871 4526.12,672.128 4528.27,672.128L4528.27,672.128Z" style="fill:rgb(87,137,165);"/>
            </g>
            <g transform="matrix(2.05024,0.390231,-0.549359,1.45636,-6913.81,-2393.87)">
                <circle cx="4528.27" cy="676.018" r="4.889" style="fill:rgb(153,184,201);"/>
                <path d="M4528.27,671.128C4530.97,671.128 4533.16,673.319 4533.16,676.018C4533.16,678.716 4530.97,680.907 4528.27,680.907C4525.57,680.907 4523.38,678.716 4523.38,676.018C4523.38,673.319 4525.57,671.128 4528.27,671.128ZM4528.27,672.128C4530.41,672.128 4532.16,673.871 4532.16,676.018C4532.16,678.164 4530.41,679.907 4528.27,679.907C4526.12,679.907 4524.38,678.164 4524.38,676.018C4524.38,673.871 4526.12,672.128 4528.27,672.128Z" style="fill:rgb(87,137,165);"/>
            </g>
            <g transform="matrix(2.05024,0.390231,-0.549359,1.45636,-6541.85,-2688.01)">
                <circle cx="4528.27" cy="676.018" r="4.889" style="fill:rgb(153,184,201);"/>
                <path d="M4528.27,671.128C4530.97,671.128 4533.16,673.319 4533.16,676.018C4533.16,678.716 4530.97,680.907 4528.27,680.907C4525.57,680.907 4523.38,678.716 4523.38,676.018C4523.38,673.319 4525.57,671.128 4528.27,671.128ZM4528.27,672.128C4530.41,672.128 4532.16,673.871 4532.16,676.018C4532.16,678.164 4530.41,679.907 4528.27,679.907C4526.12,679.907 4524.38,678.164 4524.38,676.018C4524.38,673.871 4526.12,672.128 4528.27,672.128Z" style="fill:rgb(87,137,165);"/>
            </g>
            <g transform="matrix(2.05024,0.390231,-0.549359,1.45636,-6850.64,-2436.43)">
                <circle cx="4528.27" cy="676.018" r="4.889" style="fill:rgb(153,184,201);"/>
                <path d="M4528.27,671.128C4530.97,671.128 4533.16,673.319 4533.16,676.018C4533.16,678.716 4530.97,680.907 4528.27,680.907C4525.57,680.907 4523.38,678.716 4523.38,676.018C4523.38,673.319 4525.57,671.128 4528.27,671.128ZM4528.27,672.128C4530.41,672.128 4532.16,673.871 4532.16,676.018C4532.16,678.164 4530.41,679.907 4528.27,679.907C4526.12,679.907 4524.38,678.164 4524.38,676.018C4524.38,673.871 4526.12,672.128 4528.27,672.128L4528.27,672.128Z" style="fill:rgb(87,137,165);"/>
            </g>
            <g transform="matrix(2.05024,0.390231,-0.549359,1.45636,-6552.23,-2626.4)">
                <circle cx="4528.27" cy="676.018" r="4.889" style="fill:rgb(153,184,201);"/>
                <path d="M4528.27,671.128C4530.97,671.128 4533.16,673.319 4533.16,676.018C4533.16,678.716 4530.97,680.907 4528.27,680.907C4525.57,680.907 4523.38,678.716 4523.38,676.018C4523.38,673.319 4525.57,671.128 4528.27,671.128ZM4528.27,672.128C4530.41,672.128 4532.16,673.871 4532.16,676.018C4532.16,678.164 4530.41,679.907 4528.27,679.907C4526.12,679.907 4524.38,678.164 4524.38,676.018C4524.38,673.871 4526.12,672.128 4528.27,672.128L4528.27,672.128Z" style="fill:rgb(87,137,165);"/>
            </g>
            <g transform="matrix(2.05024,0.390231,-0.549359,1.45636,-6445.86,-2611.66)">
                <circle cx="4528.27" cy="676.018" r="4.889" style="fill:rgb(153,184,201);"/>
                <path d="M4528.27,671.128C4530.97,671.128 4533.16,673.319 4533.16,676.018C4533.16,678.716 4530.97,680.907 4528.27,680.907C4525.57,680.907 4523.38,678.716 4523.38,676.018C4523.38,673.319 4525.57,671.128 4528.27,671.128ZM4528.27,672.128C4530.41,672.128 4532.16,673.871 4532.16,676.018C4532.16,678.164 4530.41,679.907 4528.27,679.907C4526.12,679.907 4524.38,678.164 4524.38,676.018C4524.38,673.871 4526.12,672.128 4528.27,672.128Z" style="fill:rgb(87,137,165);"/>
            </g>
            <g transform="matrix(2.05024,0.390231,-0.549359,1.45636,-6726.23,-2479.64)">
                <circle cx="4528.27" cy="676.018" r="4.889" style="fill:rgb(153,184,201);"/>
                <path d="M4528.27,671.128C4530.97,671.128 4533.16,673.319 4533.16,676.018C4533.16,678.716 4530.97,680.907 4528.27,680.907C4525.57,680.907 4523.38,678.716 4523.38,676.018C4523.38,673.319 4525.57,671.128 4528.27,671.128ZM4528.27,672.128C4530.41,672.128 4532.16,673.871 4532.16,676.018C4532.16,678.164 4530.41,679.907 4528.27,679.907C4526.12,679.907 4524.38,678.164 4524.38,676.018C4524.38,673.871 4526.12,672.128 4528.27,672.128L4528.27,672.128Z" style="fill:rgb(87,137,165);"/>
            </g>
            <g transform="matrix(2.05024,0.390231,-0.549359,1.45636,-6819.5,-2467.16)">
                <circle cx="4528.27" cy="676.018" r="4.889" style="fill:rgb(153,184,201);"/>
                <path d="M4528.27,671.128C4530.97,671.128 4533.16,673.319 4533.16,676.018C4533.16,678.716 4530.97,680.907 4528.27,680.907C4525.57,680.907 4523.38,678.716 4523.38,676.018C4523.38,673.319 4525.57,671.128 4528.27,671.128ZM4528.27,672.128C4530.41,672.128 4532.16,673.871 4532.16,676.018C4532.16,678.164 4530.41,679.907 4528.27,679.907C4526.12,679.907 4524.38,678.164 4524.38,676.018C4524.38,673.871 4526.12,672.128 4528.27,672.128L4528.27,672.128Z" style="fill:rgb(87,137,165);"/>
            </g>
            <g transform="matrix(2.05024,0.390231,-0.549359,1.45636,-6991.35,-2472.9)">
                <circle cx="4528.27" cy="676.018" r="4.889" style="fill:rgb(153,184,201);"/>
                <path d="M4528.27,671.128C4530.97,671.128 4533.16,673.319 4533.16,676.018C4533.16,678.716 4530.97,680.907 4528.27,680.907C4525.57,680.907 4523.38,678.716 4523.38,676.018C4523.38,673.319 4525.57,671.128 4528.27,671.128ZM4528.27,672.128C4530.41,672.128 4532.16,673.871 4532.16,676.018C4532.16,678.164 4530.41,679.907 4528.27,679.907C4526.12,679.907 4524.38,678.164 4524.38,676.018C4524.38,673.871 4526.12,672.128 4528.27,672.128L4528.27,672.128Z" style="fill:rgb(87,137,165);"/>
            </g>
            <g transform="matrix(2.05024,0.390231,-0.549359,1.45636,-7015.17,-2441.19)">
                <circle cx="4528.27" cy="676.018" r="4.889" style="fill:rgb(153,184,201);"/>
                <path d="M4528.27,671.128C4530.97,671.128 4533.16,673.319 4533.16,676.018C4533.16,678.716 4530.97,680.907 4528.27,680.907C4525.57,680.907 4523.38,678.716 4523.38,676.018C4523.38,673.319 4525.57,671.128 4528.27,671.128ZM4528.27,672.128C4530.41,672.128 4532.16,673.871 4532.16,676.018C4532.16,678.164 4530.41,679.907 4528.27,679.907C4526.12,679.907 4524.38,678.164 4524.38,676.018C4524.38,673.871 4526.12,672.128 4528.27,672.128Z" style="fill:rgb(87,137,165);"/>
            </g>
            <g transform="matrix(2.05024,0.390231,-0.549359,1.45636,-6843.63,-2506.94)">
                <circle cx="4528.27" cy="676.018" r="4.889" style="fill:rgb(153,184,201);"/>
                <path d="M4528.27,671.128C4530.97,671.128 4533.16,673.319 4533.16,676.018C4533.16,678.716 4530.97,680.907 4528.27,680.907C4525.57,680.907 4523.38,678.716 4523.38,676.018C4523.38,673.319 4525.57,671.128 4528.27,671.128ZM4528.27,672.128C4530.41,672.128 4532.16,673.871 4532.16,676.018C4532.16,678.164 4530.41,679.907 4528.27,679.907C4526.12,679.907 4524.38,678.164 4524.38,676.018C4524.38,673.871 4526.12,672.128 4528.27,672.128Z" style="fill:rgb(87,137,165);"/>
            </g>
            <g transform="matrix(2.05024,0.390231,-0.549359,1.45636,-6954.9,-2407.57)">
                <circle cx="4528.27" cy="676.018" r="4.889" style="fill:rgb(153,184,201);"/>
                <path d="M4528.27,671.128C4530.97,671.128 4533.16,673.319 4533.16,676.018C4533.16,678.716 4530.97,680.907 4528.27,680.907C4525.57,680.907 4523.38,678.716 4523.38,676.018C4523.38,673.319 4525.57,671.128 4528.27,671.128ZM4528.27,672.128C4530.41,672.128 4532.16,673.871 4532.16,676.018C4532.16,678.164 4530.41,679.907 4528.27,679.907C4526.12,679.907 4524.38,678.164 4524.38,676.018C4524.38,673.871 4526.12,672.128 4528.27,672.128L4528.27,672.128Z" style="fill:rgb(87,137,165);"/>
            </g>
            <g transform="matrix(2.05024,0.390231,-0.549359,1.45636,-7109.82,-2379.13)">
                <circle cx="4528.27" cy="676.018" r="4.889" style="fill:rgb(153,184,201);"/>
                <path d="M4528.27,671.128C4530.97,671.128 4533.16,673.319 4533.16,676.018C4533.16,678.716 4530.97,680.907 4528.27,680.907C4525.57,680.907 4523.38,678.716 4523.38,676.018C4523.38,673.319 4525.57,671.128 4528.27,671.128ZM4528.27,672.128C4530.41,672.128 4532.16,673.871 4532.16,676.018C4532.16,678.164 4530.41,679.907 4528.27,679.907C4526.12,679.907 4524.38,678.164 4524.38,676.018C4524.38,673.871 4526.12,672.128 4528.27,672.128L4528.27,672.128Z" style="fill:rgb(87,137,165);"/>
            </g>
            <g transform="matrix(2.05024,0.390231,-0.549359,1.45636,-6425.1,-2673.27)">
                <circle cx="4528.27" cy="676.018" r="4.889" style="fill:rgb(153,184,201);"/>
                <path d="M4528.27,671.128C4530.97,671.128 4533.16,673.319 4533.16,676.018C4533.16,678.716 4530.97,680.907 4528.27,680.907C4525.57,680.907 4523.38,678.716 4523.38,676.018C4523.38,673.319 4525.57,671.128 4528.27,671.128ZM4528.27,672.128C4530.41,672.128 4532.16,673.871 4532.16,676.018C4532.16,678.164 4530.41,679.907 4528.27,679.907C4526.12,679.907 4524.38,678.164 4524.38,676.018C4524.38,673.871 4526.12,672.128 4528.27,672.128L4528.27,672.128Z" style="fill:rgb(87,137,165);"/>
            </g>
            <g transform="matrix(2.05024,0.390231,-0.549359,1.45636,-6748.11,-2577.25)">
                <circle cx="4528.27" cy="676.018" r="4.889" style="fill:rgb(153,184,201);"/>
                <path d="M4528.27,671.128C4530.97,671.128 4533.16,673.319 4533.16,676.018C4533.16,678.716 4530.97,680.907 4528.27,680.907C4525.57,680.907 4523.38,678.716 4523.38,676.018C4523.38,673.319 4525.57,671.128 4528.27,671.128ZM4528.27,672.128C4530.41,672.128 4532.16,673.871 4532.16,676.018C4532.16,678.164 4530.41,679.907 4528.27,679.907C4526.12,679.907 4524.38,678.164 4524.38,676.018C4524.38,673.871 4526.12,672.128 4528.27,672.128L4528.27,672.128Z" style="fill:rgb(87,137,165);"/>
            </g>
            <g transform="matrix(2.05024,0.390231,-0.549359,1.45636,-6913.81,-2440.28)">
                <circle cx="4528.27" cy="676.018" r="4.889" style="fill:rgb(153,184,201);"/>
                <path d="M4528.27,671.128C4530.97,671.128 4533.16,673.319 4533.16,676.018C4533.16,678.716 4530.97,680.907 4528.27,680.907C4525.57,680.907 4523.38,678.716 4523.38,676.018C4523.38,673.319 4525.57,671.128 4528.27,671.128ZM4528.27,672.128C4530.41,672.128 4532.16,673.871 4532.16,676.018C4532.16,678.164 4530.41,679.907 4528.27,679.907C4526.12,679.907 4524.38,678.164 4524.38,676.018C4524.38,673.871 4526.12,672.128 4528.27,672.128Z" style="fill:rgb(87,137,165);"/>
            </g>
            <g transform="matrix(2.05024,0.390231,-0.549359,1.45636,-6688.31,-2658.52)">
                <circle cx="4528.27" cy="676.018" r="4.889" style="fill:rgb(153,184,201);"/>
                <path d="M4528.27,671.128C4530.97,671.128 4533.16,673.319 4533.16,676.018C4533.16,678.716 4530.97,680.907 4528.27,680.907C4525.57,680.907 4523.38,678.716 4523.38,676.018C4523.38,673.319 4525.57,671.128 4528.27,671.128ZM4528.27,672.128C4530.41,672.128 4532.16,673.871 4532.16,676.018C4532.16,678.164 4530.41,679.907 4528.27,679.907C4526.12,679.907 4524.38,678.164 4524.38,676.018C4524.38,673.871 4526.12,672.128 4528.27,672.128L4528.27,672.128Z" style="fill:rgb(87,137,165);"/>
            </g>
            <g transform="matrix(2.05024,0.390231,-0.549359,1.45636,-6755.98,-2603.52)">
                <circle cx="4528.27" cy="676.018" r="4.889" style="fill:rgb(153,184,201);"/>
                <path d="M4528.27,671.128C4530.97,671.128 4533.16,673.319 4533.16,676.018C4533.16,678.716 4530.97,680.907 4528.27,680.907C4525.57,680.907 4523.38,678.716 4523.38,676.018C4523.38,673.319 4525.57,671.128 4528.27,671.128ZM4528.27,672.128C4530.41,672.128 4532.16,673.871 4532.16,676.018C4532.16,678.164 4530.41,679.907 4528.27,679.907C4526.12,679.907 4524.38,678.164 4524.38,676.018C4524.38,673.871 4526.12,672.128 4528.27,672.128L4528.27,672.128Z" style="fill:rgb(87,137,165);"/>
            </g>
            <g transform="matrix(2.05024,0.390231,-0.549359,1.45636,-6621.07,-2551.93)">
                <circle cx="4528.27" cy="676.018" r="4.889" style="fill:rgb(153,184,201);"/>
                <path d="M4528.27,671.128C4530.97,671.128 4533.16,673.319 4533.16,676.018C4533.16,678.716 4530.97,680.907 4528.27,680.907C4525.57,680.907 4523.38,678.716 4523.38,676.018C4523.38,673.319 4525.57,671.128 4528.27,671.128ZM4528.27,672.128C4530.41,672.128 4532.16,673.871 4532.16,676.018C4532.16,678.164 4530.41,679.907 4528.27,679.907C4526.12,679.907 4524.38,678.164 4524.38,676.018C4524.38,673.871 4526.12,672.128 4528.27,672.128L4528.27,672.128Z" style="fill:rgb(87,137,165);"/>
            </g>
            <g transform="matrix(2.05024,0.390231,-0.549359,1.45636,-6603.56,-2576.79)">
                <circle cx="4528.27" cy="676.018" r="4.889" style="fill:rgb(153,184,201);"/>
                <path d="M4528.27,671.128C4530.97,671.128 4533.16,673.319 4533.16,676.018C4533.16,678.716 4530.97,680.907 4528.27,680.907C4525.57,680.907 4523.38,678.716 4523.38,676.018C4523.38,673.319 4525.57,671.128 4528.27,671.128ZM4528.27,672.128C4530.41,672.128 4532.16,673.871 4532.16,676.018C4532.16,678.164 4530.41,679.907 4528.27,679.907C4526.12,679.907 4524.38,678.164 4524.38,676.018C4524.38,673.871 4526.12,672.128 4528.27,672.128Z" style="fill:rgb(87,137,165);"/>
            </g>
            <g transform="matrix(2.05024,0.390231,-0.549359,1.45636,-6485.11,-2641.15)">
                <circle cx="4528.27" cy="676.018" r="4.889" style="fill:rgb(153,184,201);"/>
                <path d="M4528.27,671.128C4530.97,671.128 4533.16,673.319 4533.16,676.018C4533.16,678.716 4530.97,680.907 4528.27,680.907C4525.57,680.907 4523.38,678.716 4523.38,676.018C4523.38,673.319 4525.57,671.128 4528.27,671.128ZM4528.27,672.128C4530.41,672.128 4532.16,673.871 4532.16,676.018C4532.16,678.164 4530.41,679.907 4528.27,679.907C4526.12,679.907 4524.38,678.164 4524.38,676.018C4524.38,673.871 4526.12,672.128 4528.27,672.128L4528.27,672.128Z" style="fill:rgb(87,137,165);"/>
            </g>
            <g transform="matrix(2.05024,0.390231,-0.549359,1.45636,-6640.9,-2502.39)">
                <circle cx="4528.27" cy="676.018" r="4.889" style="fill:rgb(153,184,201);"/>
                <path d="M4528.27,671.128C4530.97,671.128 4533.16,673.319 4533.16,676.018C4533.16,678.716 4530.97,680.907 4528.27,680.907C4525.57,680.907 4523.38,678.716 4523.38,676.018C4523.38,673.319 4525.57,671.128 4528.27,671.128ZM4528.27,672.128C4530.41,672.128 4532.16,673.871 4532.16,676.018C4532.16,678.164 4530.41,679.907 4528.27,679.907C4526.12,679.907 4524.38,678.164 4524.38,676.018C4524.38,673.871 4526.12,672.128 4528.27,672.128L4528.27,672.128Z" style="fill:rgb(87,137,165);"/>
            </g>
            <g transform="matrix(2.05024,0.390231,-0.549359,1.45636,-6764.25,-2487.65)">
                <circle cx="4528.27" cy="676.018" r="4.889" style="fill:rgb(153,184,201);"/>
                <path d="M4528.27,671.128C4530.97,671.128 4533.16,673.319 4533.16,676.018C4533.16,678.716 4530.97,680.907 4528.27,680.907C4525.57,680.907 4523.38,678.716 4523.38,676.018C4523.38,673.319 4525.57,671.128 4528.27,671.128ZM4528.27,672.128C4530.41,672.128 4532.16,673.871 4532.16,676.018C4532.16,678.164 4530.41,679.907 4528.27,679.907C4526.12,679.907 4524.38,678.164 4524.38,676.018C4524.38,673.871 4526.12,672.128 4528.27,672.128L4528.27,672.128Z" style="fill:rgb(87,137,165);"/>
            </g>
            <g transform="matrix(2.05024,0.390231,-0.549359,1.45636,-6531.47,-2589.34)">
                <circle cx="4528.27" cy="676.018" r="4.889" style="fill:rgb(153,184,201);"/>
                <path d="M4528.27,671.128C4530.97,671.128 4533.16,673.319 4533.16,676.018C4533.16,678.716 4530.97,680.907 4528.27,680.907C4525.57,680.907 4523.38,678.716 4523.38,676.018C4523.38,673.319 4525.57,671.128 4528.27,671.128ZM4528.27,672.128C4530.41,672.128 4532.16,673.871 4532.16,676.018C4532.16,678.164 4530.41,679.907 4528.27,679.907C4526.12,679.907 4524.38,678.164 4524.38,676.018C4524.38,673.871 4526.12,672.128 4528.27,672.128L4528.27,672.128Z" style="fill:rgb(87,137,165);"/>
            </g>
            <g transform="matrix(2.05024,0.390231,-0.549359,1.45636,-6764.25,-2459.78)">
                <circle cx="4528.27" cy="676.018" r="4.889" style="fill:rgb(153,184,201);"/>
                <path d="M4528.27,671.128C4530.97,671.128 4533.16,673.319 4533.16,676.018C4533.16,678.716 4530.97,680.907 4528.27,680.907C4525.57,680.907 4523.38,678.716 4523.38,676.018C4523.38,673.319 4525.57,671.128 4528.27,671.128ZM4528.27,672.128C4530.41,672.128 4532.16,673.871 4532.16,676.018C4532.16,678.164 4530.41,679.907 4528.27,679.907C4526.12,679.907 4524.38,678.164 4524.38,676.018C4524.38,673.871 4526.12,672.128 4528.27,672.128Z" style="fill:rgb(87,137,165);"/>
            </g>
            <g transform="matrix(2.05024,0.390231,-0.549359,1.45636,-6684.93,-2519.27)">
                <circle cx="4528.27" cy="676.018" r="4.889" style="fill:rgb(153,184,201);"/>
                <path d="M4528.27,671.128C4530.97,671.128 4533.16,673.319 4533.16,676.018C4533.16,678.716 4530.97,680.907 4528.27,680.907C4525.57,680.907 4523.38,678.716 4523.38,676.018C4523.38,673.319 4525.57,671.128 4528.27,671.128ZM4528.27,672.128C4530.41,672.128 4532.16,673.871 4532.16,676.018C4532.16,678.164 4530.41,679.907 4528.27,679.907C4526.12,679.907 4524.38,678.164 4524.38,676.018C4524.38,673.871 4526.12,672.128 4528.27,672.128L4528.27,672.128Z" style="fill:rgb(87,137,165);"/>
            </g>
            <g transform="matrix(2.05024,0.390231,-0.549359,1.45636,-6695.85,-2596.64)">
                <circle cx="4528.27" cy="676.018" r="4.889" style="fill:rgb(153,184,201);"/>
                <path d="M4528.27,671.128C4530.97,671.128 4533.16,673.319 4533.16,676.018C4533.16,678.716 4530.97,680.907 4528.27,680.907C4525.57,680.907 4523.38,678.716 4523.38,676.018C4523.38,673.319 4525.57,671.128 4528.27,671.128ZM4528.27,672.128C4530.41,672.128 4532.16,673.871 4532.16,676.018C4532.16,678.164 4530.41,679.907 4528.27,679.907C4526.12,679.907 4524.38,678.164 4524.38,676.018C4524.38,673.871 4526.12,672.128 4528.27,672.128L4528.27,672.128Z" style="fill:rgb(87,137,165);"/>
            </g>
            <g transform="matrix(2.05024,0.390231,-0.549359,1.45636,-6584.05,-2526.48)">
                <circle cx="4528.27" cy="676.018" r="4.889" style="fill:rgb(153,184,201);"/>
                <path d="M4528.27,671.128C4530.97,671.128 4533.16,673.319 4533.16,676.018C4533.16,678.716 4530.97,680.907 4528.27,680.907C4525.57,680.907 4523.38,678.716 4523.38,676.018C4523.38,673.319 4525.57,671.128 4528.27,671.128ZM4528.27,672.128C4530.41,672.128 4532.16,673.871 4532.16,676.018C4532.16,678.164 4530.41,679.907 4528.27,679.907C4526.12,679.907 4524.38,678.164 4524.38,676.018C4524.38,673.871 4526.12,672.128 4528.27,672.128L4528.27,672.128Z" style="fill:rgb(87,137,165);"/>
            </g>
            <g transform="matrix(2.05024,0.390231,-0.549359,1.45636,-6656.53,-2607.49)">
                <circle cx="4528.27" cy="676.018" r="4.889" style="fill:rgb(153,184,201);"/>
                <path d="M4528.27,671.128C4530.97,671.128 4533.16,673.319 4533.16,676.018C4533.16,678.716 4530.97,680.907 4528.27,680.907C4525.57,680.907 4523.38,678.716 4523.38,676.018C4523.38,673.319 4525.57,671.128 4528.27,671.128ZM4528.27,672.128C4530.41,672.128 4532.16,673.871 4532.16,676.018C4532.16,678.164 4530.41,679.907 4528.27,679.907C4526.12,679.907 4524.38,678.164 4524.38,676.018C4524.38,673.871 4526.12,672.128 4528.27,672.128L4528.27,672.128Z" style="fill:rgb(87,137,165);"/>
            </g>
            <g transform="matrix(2.05024,0.390231,-0.549359,1.45636,-6685.82,-2545.4)">
                <circle cx="4528.27" cy="676.018" r="4.889" style="fill:rgb(153,184,201);"/>
                <path d="M4528.27,671.128C4530.97,671.128 4533.16,673.319 4533.16,676.018C4533.16,678.716 4530.97,680.907 4528.27,680.907C4525.57,680.907 4523.38,678.716 4523.38,676.018C4523.38,673.319 4525.57,671.128 4528.27,671.128ZM4528.27,672.128C4530.41,672.128 4532.16,673.871 4532.16,676.018C4532.16,678.164 4530.41,679.907 4528.27,679.907C4526.12,679.907 4524.38,678.164 4524.38,676.018C4524.38,673.871 4526.12,672.128 4528.27,672.128Z" style="fill:rgb(87,137,165);"/>
            </g>
            <g transform="matrix(2.05024,0.390231,-0.549359,1.45636,-6587.51,-2654.88)">
                <circle cx="4528.27" cy="676.018" r="4.889" style="fill:rgb(153,184,201);"/>
                <path d="M4528.27,671.128C4530.97,671.128 4533.16,673.319 4533.16,676.018C4533.16,678.716 4530.97,680.907 4528.27,680.907C4525.57,680.907 4523.38,678.716 4523.38,676.018C4523.38,673.319 4525.57,671.128 4528.27,671.128ZM4528.27,672.128C4530.41,672.128 4532.16,673.871 4532.16,676.018C4532.16,678.164 4530.41,679.907 4528.27,679.907C4526.12,679.907 4524.38,678.164 4524.38,676.018C4524.38,673.871 4526.12,672.128 4528.27,672.128L4528.27,672.128Z" style="fill:rgb(87,137,165);"/>
            </g>
            <g transform="matrix(2.05024,0.390231,-0.549359,1.45636,-6729.21,-2538.4)">
                <circle cx="4528.27" cy="676.018" r="4.889" style="fill:rgb(153,184,201);"/>
                <path d="M4528.27,671.128C4530.97,671.128 4533.16,673.319 4533.16,676.018C4533.16,678.716 4530.97,680.907 4528.27,680.907C4525.57,680.907 4523.38,678.716 4523.38,676.018C4523.38,673.319 4525.57,671.128 4528.27,671.128ZM4528.27,672.128C4530.41,672.128 4532.16,673.871 4532.16,676.018C4532.16,678.164 4530.41,679.907 4528.27,679.907C4526.12,679.907 4524.38,678.164 4524.38,676.018C4524.38,673.871 4526.12,672.128 4528.27,672.128L4528.27,672.128Z" style="fill:rgb(87,137,165);"/>
            </g>
            <g transform="matrix(2.05024,0.390231,-0.549359,1.45636,-6898.05,-2497.35)">
                <circle cx="4528.27" cy="676.018" r="4.889" style="fill:rgb(153,184,201);"/>
                <path d="M4528.27,671.128C4530.97,671.128 4533.16,673.319 4533.16,676.018C4533.16,678.716 4530.97,680.907 4528.27,680.907C4525.57,680.907 4523.38,678.716 4523.38,676.018C4523.38,673.319 4525.57,671.128 4528.27,671.128ZM4528.27,672.128C4530.41,672.128 4532.16,673.871 4532.16,676.018C4532.16,678.164 4530.41,679.907 4528.27,679.907C4526.12,679.907 4524.38,678.164 4524.38,676.018C4524.38,673.871 4526.12,672.128 4528.27,672.128L4528.27,672.128Z" style="fill:rgb(87,137,165);"/>
            </g>
            <g transform="matrix(2.05024,0.390231,-0.549359,1.45636,-6782.7,-2548.58)">
                <circle cx="4528.27" cy="676.018" r="4.889" style="fill:rgb(153,184,201);"/>
                <path d="M4528.27,671.128C4530.97,671.128 4533.16,673.319 4533.16,676.018C4533.16,678.716 4530.97,680.907 4528.27,680.907C4525.57,680.907 4523.38,678.716 4523.38,676.018C4523.38,673.319 4525.57,671.128 4528.27,671.128ZM4528.27,672.128C4530.41,672.128 4532.16,673.871 4532.16,676.018C4532.16,678.164 4530.41,679.907 4528.27,679.907C4526.12,679.907 4524.38,678.164 4524.38,676.018C4524.38,673.871 4526.12,672.128 4528.27,672.128L4528.27,672.128Z" style="fill:rgb(87,137,165);"/>
            </g>
            <g transform="matrix(2.05024,0.390231,-0.549359,1.45636,-6640.95,-2562.37)">
                <circle cx="4528.27" cy="676.018" r="4.889" style="fill:rgb(153,184,201);"/>
                <path d="M4528.27,671.128C4530.97,671.128 4533.16,673.319 4533.16,676.018C4533.16,678.716 4530.97,680.907 4528.27,680.907C4525.57,680.907 4523.38,678.716 4523.38,676.018C4523.38,673.319 4525.57,671.128 4528.27,671.128ZM4528.27,672.128C4530.41,672.128 4532.16,673.871 4532.16,676.018C4532.16,678.164 4530.41,679.907 4528.27,679.907C4526.12,679.907 4524.38,678.164 4524.38,676.018C4524.38,673.871 4526.12,672.128 4528.27,672.128Z" style="fill:rgb(87,137,165);"/>
            </g>
            <g transform="matrix(2.05024,0.390231,-0.549359,1.45636,-6954.9,-2497.35)">
                <circle cx="4528.27" cy="676.018" r="4.889" style="fill:rgb(153,184,201);"/>
                <path d="M4528.27,671.128C4530.97,671.128 4533.16,673.319 4533.16,676.018C4533.16,678.716 4530.97,680.907 4528.27,680.907C4525.57,680.907 4523.38,678.716 4523.38,676.018C4523.38,673.319 4525.57,671.128 4528.27,671.128ZM4528.27,672.128C4530.41,672.128 4532.16,673.871 4532.16,676.018C4532.16,678.164 4530.41,679.907 4528.27,679.907C4526.12,679.907 4524.38,678.164 4524.38,676.018C4524.38,673.871 4526.12,672.128 4528.27,672.128L4528.27,672.128Z" style="fill:rgb(87,137,165);"/>
            </g>
        </g>
    </g>
</svg>
