<?xml version="1.0" encoding="UTF-8" standalone="no"?>
<!DOCTYPE svg PUBLIC "-//W3C//DTD SVG 1.1//EN" "http://www.w3.org/Graphics/SVG/1.1/DTD/svg11.dtd">
<svg width="100%" height="100%" viewBox="0 0 161 151" version="1.1" xmlns="http://www.w3.org/2000/svg" xmlns:xlink="http://www.w3.org/1999/xlink" xml:space="preserve" xmlns:serif="http://www.serif.com/" style="fill-rule:evenodd;clip-rule:evenodd;stroke-linecap:round;stroke-linejoin:round;stroke-miterlimit:1.5;">
    <g transform="matrix(1,0,0,1,-4911,-1383)">
        <g id="_011_a03" serif:id="011_a03" transform="matrix(1.23077,0,0,1,1775.58,929.608)">
            <rect x="2547.91" y="454.279" width="130" height="150" style="fill:none;"/>
            <g transform="matrix(0.556329,-0.0131607,0.0102532,0.65655,1152.91,212.402)">
                <path d="M2716.98,615.96C2680.38,607.869 2651.06,613.889 2631.83,590.327C2616.69,571.764 2585.62,573.096 2568.81,568.938C2556.24,565.829 2552.62,576.462 2541.55,579.722C2523.98,584.899 2518.74,553.985 2537.84,557.635C2567.21,563.246 2569.54,562.468 2589.48,561.905C2607.62,561.393 2624.61,563.563 2626.57,549.197C2627.76,540.448 2609.99,522.983 2562.9,511.26C2544.76,506.744 2536.07,490.813 2542.8,482.986C2554.7,469.155 2564.01,494.668 2566.81,498.061C2578.18,511.857 2590.82,517.626 2609.78,517.644C2632.05,517.666 2636.6,523.937 2654.28,550.098C2667.37,569.461 2688.83,547.648 2674.17,536.244C2659.73,525.006 2649.34,529.727 2629.73,507.854C2607.9,483.512 2586.43,440.282 2598.51,430.553C2621.25,412.235 2624.19,501.92 2645.76,509.511C2667.7,517.227 2680.91,455.368 2713.93,451.702" style="fill:none;stroke:rgb(31,69,109);stroke-width:2.98px;"/>
            </g>
            <g transform="matrix(0.8125,-2.77556e-17,8.32667e-17,1,-1106.63,-152.839)">
                <circle cx="4528.27" cy="676.018" r="4.889" style="fill:rgb(153,184,201);"/>
                <path d="M4528.27,671.128C4530.97,671.128 4533.16,673.319 4533.16,676.018C4533.16,678.716 4530.97,680.907 4528.27,680.907C4525.57,680.907 4523.38,678.716 4523.38,676.018C4523.38,673.319 4525.57,671.128 4528.27,671.128ZM4528.27,672.128C4530.41,672.128 4532.16,673.871 4532.16,676.018C4532.16,678.164 4530.41,679.907 4528.27,679.907C4526.12,679.907 4524.38,678.164 4524.38,676.018C4524.38,673.871 4526.12,672.128 4528.27,672.128Z" style="fill:rgb(87,137,165);"/>
            </g>
            <g transform="matrix(0.8125,-2.77556e-17,8.32667e-17,1,-1089.2,-141.849)">
                <circle cx="4528.27" cy="676.018" r="4.889" style="fill:rgb(153,184,201);"/>
                <path d="M4528.27,671.128C4530.97,671.128 4533.16,673.319 4533.16,676.018C4533.16,678.716 4530.97,680.907 4528.27,680.907C4525.57,680.907 4523.38,678.716 4523.38,676.018C4523.38,673.319 4525.57,671.128 4528.27,671.128ZM4528.27,672.128C4530.41,672.128 4532.16,673.871 4532.16,676.018C4532.16,678.164 4530.41,679.907 4528.27,679.907C4526.12,679.907 4524.38,678.164 4524.38,676.018C4524.38,673.871 4526.12,672.128 4528.27,672.128Z" style="fill:rgb(87,137,165);"/>
            </g>
            <g transform="matrix(0.8125,-2.77556e-17,8.32667e-17,1,-1098.69,-135.432)">
                <circle cx="4528.27" cy="676.018" r="4.889" style="fill:rgb(153,184,201);"/>
                <path d="M4528.27,671.128C4530.97,671.128 4533.16,673.319 4533.16,676.018C4533.16,678.716 4530.97,680.907 4528.27,680.907C4525.57,680.907 4523.38,678.716 4523.38,676.018C4523.38,673.319 4525.57,671.128 4528.27,671.128ZM4528.27,672.128C4530.41,672.128 4532.16,673.871 4532.16,676.018C4532.16,678.164 4530.41,679.907 4528.27,679.907C4526.12,679.907 4524.38,678.164 4524.38,676.018C4524.38,673.871 4526.12,672.128 4528.27,672.128Z" style="fill:rgb(87,137,165);"/>
            </g>
            <g transform="matrix(0.8125,-2.77556e-17,8.32667e-17,1,-1093.21,-153.39)">
                <circle cx="4528.27" cy="676.018" r="4.889" style="fill:rgb(153,184,201);"/>
                <path d="M4528.27,671.128C4530.97,671.128 4533.16,673.319 4533.16,676.018C4533.16,678.716 4530.97,680.907 4528.27,680.907C4525.57,680.907 4523.38,678.716 4523.38,676.018C4523.38,673.319 4525.57,671.128 4528.27,671.128ZM4528.27,672.128C4530.41,672.128 4532.16,673.871 4532.16,676.018C4532.16,678.164 4530.41,679.907 4528.27,679.907C4526.12,679.907 4524.38,678.164 4524.38,676.018C4524.38,673.871 4526.12,672.128 4528.27,672.128Z" style="fill:rgb(87,137,165);"/>
            </g>
            <g transform="matrix(0.8125,-2.77556e-17,8.32667e-17,1,-1100.27,-173.941)">
                <circle cx="4528.27" cy="676.018" r="4.889" style="fill:rgb(244,195,194);"/>
                <path d="M4528.27,671.128C4530.97,671.128 4533.16,673.319 4533.16,676.018C4533.16,678.716 4530.97,680.907 4528.27,680.907C4525.57,680.907 4523.38,678.716 4523.38,676.018C4523.38,673.319 4525.57,671.128 4528.27,671.128ZM4528.27,672.128C4530.41,672.128 4532.16,673.871 4532.16,676.018C4532.16,678.164 4530.41,679.907 4528.27,679.907C4526.12,679.907 4524.38,678.164 4524.38,676.018C4524.38,673.871 4526.12,672.128 4528.27,672.128Z" style="fill:rgb(236,158,162);"/>
            </g>
            <g transform="matrix(0.8125,-2.77556e-17,8.32667e-17,1,-1102.66,-192.457)">
                <circle cx="4528.27" cy="676.018" r="4.889" style="fill:rgb(153,184,201);"/>
                <path d="M4528.27,671.128C4530.97,671.128 4533.16,673.319 4533.16,676.018C4533.16,678.716 4530.97,680.907 4528.27,680.907C4525.57,680.907 4523.38,678.716 4523.38,676.018C4523.38,673.319 4525.57,671.128 4528.27,671.128ZM4528.27,672.128C4530.41,672.128 4532.16,673.871 4532.16,676.018C4532.16,678.164 4530.41,679.907 4528.27,679.907C4526.12,679.907 4524.38,678.164 4524.38,676.018C4524.38,673.871 4526.12,672.128 4528.27,672.128Z" style="fill:rgb(87,137,165);"/>
            </g>
            <g transform="matrix(0.8125,-2.77556e-17,8.32667e-17,1,-1088.35,-178.831)">
                <circle cx="4528.27" cy="676.018" r="4.889" style="fill:rgb(153,184,201);"/>
                <path d="M4528.27,671.128C4530.97,671.128 4533.16,673.319 4533.16,676.018C4533.16,678.716 4530.97,680.907 4528.27,680.907C4525.57,680.907 4523.38,678.716 4523.38,676.018C4523.38,673.319 4525.57,671.128 4528.27,671.128ZM4528.27,672.128C4530.41,672.128 4532.16,673.871 4532.16,676.018C4532.16,678.164 4530.41,679.907 4528.27,679.907C4526.12,679.907 4524.38,678.164 4524.38,676.018C4524.38,673.871 4526.12,672.128 4528.27,672.128Z" style="fill:rgb(87,137,165);"/>
            </g>
            <g transform="matrix(0.8125,-2.77556e-17,8.32667e-17,1,-1117.21,-141.849)">
                <circle cx="4528.27" cy="676.018" r="4.889" style="fill:rgb(153,184,201);"/>
                <path d="M4528.27,671.128C4530.97,671.128 4533.16,673.319 4533.16,676.018C4533.16,678.716 4530.97,680.907 4528.27,680.907C4525.57,680.907 4523.38,678.716 4523.38,676.018C4523.38,673.319 4525.57,671.128 4528.27,671.128ZM4528.27,672.128C4530.41,672.128 4532.16,673.871 4532.16,676.018C4532.16,678.164 4530.41,679.907 4528.27,679.907C4526.12,679.907 4524.38,678.164 4524.38,676.018C4524.38,673.871 4526.12,672.128 4528.27,672.128Z" style="fill:rgb(87,137,165);"/>
            </g>
            <g transform="matrix(0.8125,-2.77556e-17,8.32667e-17,1,-1080.41,-197.346)">
                <circle cx="4528.27" cy="676.018" r="4.889" style="fill:rgb(153,184,201);"/>
                <path d="M4528.27,671.128C4530.97,671.128 4533.16,673.319 4533.16,676.018C4533.16,678.716 4530.97,680.907 4528.27,680.907C4525.57,680.907 4523.38,678.716 4523.38,676.018C4523.38,673.319 4525.57,671.128 4528.27,671.128ZM4528.27,672.128C4530.41,672.128 4532.16,673.871 4532.16,676.018C4532.16,678.164 4530.41,679.907 4528.27,679.907C4526.12,679.907 4524.38,678.164 4524.38,676.018C4524.38,673.871 4526.12,672.128 4528.27,672.128Z" style="fill:rgb(87,137,165);"/>
            </g>
            <g transform="matrix(0.8125,-2.77556e-17,8.32667e-17,1,-1056.81,-203.096)">
                <circle cx="4528.27" cy="676.018" r="4.889" style="fill:rgb(153,184,201);"/>
                <path d="M4528.27,671.128C4530.97,671.128 4533.16,673.319 4533.16,676.018C4533.16,678.716 4530.97,680.907 4528.27,680.907C4525.57,680.907 4523.38,678.716 4523.38,676.018C4523.38,673.319 4525.57,671.128 4528.27,671.128ZM4528.27,672.128C4530.41,672.128 4532.16,673.871 4532.16,676.018C4532.16,678.164 4530.41,679.907 4528.27,679.907C4526.12,679.907 4524.38,678.164 4524.38,676.018C4524.38,673.871 4526.12,672.128 4528.27,672.128Z" style="fill:rgb(87,137,165);"/>
            </g>
            <g transform="matrix(0.8125,-2.77556e-17,8.32667e-17,1,-1064.17,-123.887)">
                <circle cx="4528.27" cy="676.018" r="4.889" style="fill:rgb(244,195,194);"/>
                <path d="M4528.27,671.128C4530.97,671.128 4533.16,673.319 4533.16,676.018C4533.16,678.716 4530.97,680.907 4528.27,680.907C4525.57,680.907 4523.38,678.716 4523.38,676.018C4523.38,673.319 4525.57,671.128 4528.27,671.128ZM4528.27,672.128C4530.41,672.128 4532.16,673.871 4532.16,676.018C4532.16,678.164 4530.41,679.907 4528.27,679.907C4526.12,679.907 4524.38,678.164 4524.38,676.018C4524.38,673.871 4526.12,672.128 4528.27,672.128Z" style="fill:rgb(236,158,162);"/>
            </g>
            <g transform="matrix(0.8125,-2.77556e-17,8.32667e-17,1,-1081.25,-167.229)">
                <circle cx="4528.27" cy="676.018" r="4.889" style="fill:rgb(153,184,201);"/>
                <path d="M4528.27,671.128C4530.97,671.128 4533.16,673.319 4533.16,676.018C4533.16,678.716 4530.97,680.907 4528.27,680.907C4525.57,680.907 4523.38,678.716 4523.38,676.018C4523.38,673.319 4525.57,671.128 4528.27,671.128ZM4528.27,672.128C4530.41,672.128 4532.16,673.871 4532.16,676.018C4532.16,678.164 4530.41,679.907 4528.27,679.907C4526.12,679.907 4524.38,678.164 4524.38,676.018C4524.38,673.871 4526.12,672.128 4528.27,672.128Z" style="fill:rgb(87,137,165);"/>
            </g>
            <g transform="matrix(0.8125,-2.77556e-17,8.32667e-17,1,-1071.88,-94.7047)">
                <circle cx="4528.27" cy="676.018" r="4.889" style="fill:rgb(153,184,201);"/>
                <path d="M4528.27,671.128C4530.97,671.128 4533.16,673.319 4533.16,676.018C4533.16,678.716 4530.97,680.907 4528.27,680.907C4525.57,680.907 4523.38,678.716 4523.38,676.018C4523.38,673.319 4525.57,671.128 4528.27,671.128ZM4528.27,672.128C4530.41,672.128 4532.16,673.871 4532.16,676.018C4532.16,678.164 4530.41,679.907 4528.27,679.907C4526.12,679.907 4524.38,678.164 4524.38,676.018C4524.38,673.871 4526.12,672.128 4528.27,672.128Z" style="fill:rgb(87,137,165);"/>
            </g>
            <g transform="matrix(0.8125,-2.77556e-17,8.32667e-17,1,-1023.2,-135.293)">
                <circle cx="4528.27" cy="676.018" r="4.889" style="fill:rgb(244,195,194);"/>
                <path d="M4528.27,671.128C4530.97,671.128 4533.16,673.319 4533.16,676.018C4533.16,678.716 4530.97,680.907 4528.27,680.907C4525.57,680.907 4523.38,678.716 4523.38,676.018C4523.38,673.319 4525.57,671.128 4528.27,671.128ZM4528.27,672.128C4530.41,672.128 4532.16,673.871 4532.16,676.018C4532.16,678.164 4530.41,679.907 4528.27,679.907C4526.12,679.907 4524.38,678.164 4524.38,676.018C4524.38,673.871 4526.12,672.128 4528.27,672.128Z" style="fill:rgb(236,158,162);"/>
            </g>
            <g transform="matrix(0.8125,-2.77556e-17,8.32667e-17,1,-1023.55,-105.249)">
                <circle cx="4528.27" cy="676.018" r="4.889" style="fill:rgb(244,195,194);"/>
                <path d="M4528.27,671.128C4530.97,671.128 4533.16,673.319 4533.16,676.018C4533.16,678.716 4530.97,680.907 4528.27,680.907C4525.57,680.907 4523.38,678.716 4523.38,676.018C4523.38,673.319 4525.57,671.128 4528.27,671.128ZM4528.27,672.128C4530.41,672.128 4532.16,673.871 4532.16,676.018C4532.16,678.164 4530.41,679.907 4528.27,679.907C4526.12,679.907 4524.38,678.164 4524.38,676.018C4524.38,673.871 4526.12,672.128 4528.27,672.128Z" style="fill:rgb(236,158,162);"/>
            </g>
            <g transform="matrix(0.8125,-2.77556e-17,8.32667e-17,1,-1047.52,-110.673)">
                <circle cx="4528.27" cy="676.018" r="4.889" style="fill:rgb(244,195,194);"/>
                <path d="M4528.27,671.128C4530.97,671.128 4533.16,673.319 4533.16,676.018C4533.16,678.716 4530.97,680.907 4528.27,680.907C4525.57,680.907 4523.38,678.716 4523.38,676.018C4523.38,673.319 4525.57,671.128 4528.27,671.128ZM4528.27,672.128C4530.41,672.128 4532.16,673.871 4532.16,676.018C4532.16,678.164 4530.41,679.907 4528.27,679.907C4526.12,679.907 4524.38,678.164 4524.38,676.018C4524.38,673.871 4526.12,672.128 4528.27,672.128Z" style="fill:rgb(236,158,162);"/>
            </g>
            <g transform="matrix(0.8125,-2.77556e-17,8.32667e-17,1,-1052.61,-92.1401)">
                <circle cx="4528.27" cy="676.018" r="4.889" style="fill:rgb(153,184,201);"/>
                <path d="M4528.27,671.128C4530.97,671.128 4533.16,673.319 4533.16,676.018C4533.16,678.716 4530.97,680.907 4528.27,680.907C4525.57,680.907 4523.38,678.716 4523.38,676.018C4523.38,673.319 4525.57,671.128 4528.27,671.128ZM4528.27,672.128C4530.41,672.128 4532.16,673.871 4532.16,676.018C4532.16,678.164 4530.41,679.907 4528.27,679.907C4526.12,679.907 4524.38,678.164 4524.38,676.018C4524.38,673.871 4526.12,672.128 4528.27,672.128Z" style="fill:rgb(87,137,165);"/>
            </g>
            <g transform="matrix(0.8125,-2.77556e-17,8.32667e-17,1,-1119.11,-115.562)">
                <circle cx="4528.27" cy="676.018" r="4.889" style="fill:rgb(153,184,201);"/>
                <path d="M4528.27,671.128C4530.97,671.128 4533.16,673.319 4533.16,676.018C4533.16,678.716 4530.97,680.907 4528.27,680.907C4525.57,680.907 4523.38,678.716 4523.38,676.018C4523.38,673.319 4525.57,671.128 4528.27,671.128ZM4528.27,672.128C4530.41,672.128 4532.16,673.871 4532.16,676.018C4532.16,678.164 4530.41,679.907 4528.27,679.907C4526.12,679.907 4524.38,678.164 4524.38,676.018C4524.38,673.871 4526.12,672.128 4528.27,672.128Z" style="fill:rgb(87,137,165);"/>
            </g>
            <g transform="matrix(0.8125,-2.77556e-17,8.32667e-17,1,-1111.16,-195.44)">
                <circle cx="4528.27" cy="676.018" r="4.889" style="fill:rgb(153,184,201);"/>
                <path d="M4528.27,671.128C4530.97,671.128 4533.16,673.319 4533.16,676.018C4533.16,678.716 4530.97,680.907 4528.27,680.907C4525.57,680.907 4523.38,678.716 4523.38,676.018C4523.38,673.319 4525.57,671.128 4528.27,671.128ZM4528.27,672.128C4530.41,672.128 4532.16,673.871 4532.16,676.018C4532.16,678.164 4530.41,679.907 4528.27,679.907C4526.12,679.907 4524.38,678.164 4524.38,676.018C4524.38,673.871 4526.12,672.128 4528.27,672.128Z" style="fill:rgb(87,137,165);"/>
            </g>
            <g transform="matrix(0.8125,-2.77556e-17,8.32667e-17,1,-1054.39,-122.298)">
                <circle cx="4528.27" cy="676.018" r="4.889" style="fill:rgb(244,195,194);"/>
                <path d="M4528.27,671.128C4530.97,671.128 4533.16,673.319 4533.16,676.018C4533.16,678.716 4530.97,680.907 4528.27,680.907C4525.57,680.907 4523.38,678.716 4523.38,676.018C4523.38,673.319 4525.57,671.128 4528.27,671.128ZM4528.27,672.128C4530.41,672.128 4532.16,673.871 4532.16,676.018C4532.16,678.164 4530.41,679.907 4528.27,679.907C4526.12,679.907 4524.38,678.164 4524.38,676.018C4524.38,673.871 4526.12,672.128 4528.27,672.128Z" style="fill:rgb(236,158,162);"/>
            </g>
            <g transform="matrix(0.8125,-2.77556e-17,8.32667e-17,1,-1069.22,-170.535)">
                <circle cx="4528.27" cy="676.018" r="4.889" style="fill:rgb(153,184,201);"/>
                <path d="M4528.27,671.128C4530.97,671.128 4533.16,673.319 4533.16,676.018C4533.16,678.716 4530.97,680.907 4528.27,680.907C4525.57,680.907 4523.38,678.716 4523.38,676.018C4523.38,673.319 4525.57,671.128 4528.27,671.128ZM4528.27,672.128C4530.41,672.128 4532.16,673.871 4532.16,676.018C4532.16,678.164 4530.41,679.907 4528.27,679.907C4526.12,679.907 4524.38,678.164 4524.38,676.018C4524.38,673.871 4526.12,672.128 4528.27,672.128Z" style="fill:rgb(87,137,165);"/>
            </g>
            <g transform="matrix(0.8125,-2.77556e-17,8.32667e-17,1,-1066.4,-137.608)">
                <circle cx="4528.27" cy="676.018" r="4.889" style="fill:rgb(153,184,201);"/>
                <path d="M4528.27,671.128C4530.97,671.128 4533.16,673.319 4533.16,676.018C4533.16,678.716 4530.97,680.907 4528.27,680.907C4525.57,680.907 4523.38,678.716 4523.38,676.018C4523.38,673.319 4525.57,671.128 4528.27,671.128ZM4528.27,672.128C4530.41,672.128 4532.16,673.871 4532.16,676.018C4532.16,678.164 4530.41,679.907 4528.27,679.907C4526.12,679.907 4524.38,678.164 4524.38,676.018C4524.38,673.871 4526.12,672.128 4528.27,672.128Z" style="fill:rgb(87,137,165);"/>
            </g>
            <g transform="matrix(0.8125,-2.77556e-17,8.32667e-17,1,-1093.16,-196.187)">
                <circle cx="4528.27" cy="676.018" r="4.889" style="fill:rgb(153,184,201);"/>
                <path d="M4528.27,671.128C4530.97,671.128 4533.16,673.319 4533.16,676.018C4533.16,678.716 4530.97,680.907 4528.27,680.907C4525.57,680.907 4523.38,678.716 4523.38,676.018C4523.38,673.319 4525.57,671.128 4528.27,671.128ZM4528.27,672.128C4530.41,672.128 4532.16,673.871 4532.16,676.018C4532.16,678.164 4530.41,679.907 4528.27,679.907C4526.12,679.907 4524.38,678.164 4524.38,676.018C4524.38,673.871 4526.12,672.128 4528.27,672.128Z" style="fill:rgb(87,137,165);"/>
            </g>
            <g transform="matrix(0.8125,-2.77556e-17,8.32667e-17,1,-1053.02,-135.635)">
                <circle cx="4528.27" cy="676.018" r="4.889" style="fill:rgb(244,195,194);"/>
                <path d="M4528.27,671.128C4530.97,671.128 4533.16,673.319 4533.16,676.018C4533.16,678.716 4530.97,680.907 4528.27,680.907C4525.57,680.907 4523.38,678.716 4523.38,676.018C4523.38,673.319 4525.57,671.128 4528.27,671.128ZM4528.27,672.128C4530.41,672.128 4532.16,673.871 4532.16,676.018C4532.16,678.164 4530.41,679.907 4528.27,679.907C4526.12,679.907 4524.38,678.164 4524.38,676.018C4524.38,673.871 4526.12,672.128 4528.27,672.128Z" style="fill:rgb(236,158,162);"/>
            </g>
            <g transform="matrix(0.8125,-2.77556e-17,8.32667e-17,1,-1075.8,-186.408)">
                <circle cx="4528.27" cy="676.018" r="4.889" style="fill:rgb(153,184,201);"/>
                <path d="M4528.27,671.128C4530.97,671.128 4533.16,673.319 4533.16,676.018C4533.16,678.716 4530.97,680.907 4528.27,680.907C4525.57,680.907 4523.38,678.716 4523.38,676.018C4523.38,673.319 4525.57,671.128 4528.27,671.128ZM4528.27,672.128C4530.41,672.128 4532.16,673.871 4532.16,676.018C4532.16,678.164 4530.41,679.907 4528.27,679.907C4526.12,679.907 4524.38,678.164 4524.38,676.018C4524.38,673.871 4526.12,672.128 4528.27,672.128Z" style="fill:rgb(87,137,165);"/>
            </g>
            <g transform="matrix(0.8125,-2.77556e-17,8.32667e-17,1,-1037.78,-122.298)">
                <circle cx="4528.27" cy="676.018" r="4.889" style="fill:rgb(244,195,194);"/>
                <path d="M4528.27,671.128C4530.97,671.128 4533.16,673.319 4533.16,676.018C4533.16,678.716 4530.97,680.907 4528.27,680.907C4525.57,680.907 4523.38,678.716 4523.38,676.018C4523.38,673.319 4525.57,671.128 4528.27,671.128ZM4528.27,672.128C4530.41,672.128 4532.16,673.871 4532.16,676.018C4532.16,678.164 4530.41,679.907 4528.27,679.907C4526.12,679.907 4524.38,678.164 4524.38,676.018C4524.38,673.871 4526.12,672.128 4528.27,672.128Z" style="fill:rgb(236,158,162);"/>
            </g>
            <g transform="matrix(0.8125,-2.77556e-17,8.32667e-17,1,-1018.72,-169.806)">
                <circle cx="4528.27" cy="676.018" r="4.889" style="fill:rgb(244,195,194);"/>
                <path d="M4528.27,671.128C4530.97,671.128 4533.16,673.319 4533.16,676.018C4533.16,678.716 4530.97,680.907 4528.27,680.907C4525.57,680.907 4523.38,678.716 4523.38,676.018C4523.38,673.319 4525.57,671.128 4528.27,671.128ZM4528.27,672.128C4530.41,672.128 4532.16,673.871 4532.16,676.018C4532.16,678.164 4530.41,679.907 4528.27,679.907C4526.12,679.907 4524.38,678.164 4524.38,676.018C4524.38,673.871 4526.12,672.128 4528.27,672.128Z" style="fill:rgb(236,158,162);"/>
            </g>
            <g transform="matrix(0.8125,-2.77556e-17,8.32667e-17,1,-1015.71,-187.869)">
                <circle cx="4528.27" cy="676.018" r="4.889" style="fill:rgb(244,195,194);"/>
                <path d="M4528.27,671.128C4530.97,671.128 4533.16,673.319 4533.16,676.018C4533.16,678.716 4530.97,680.907 4528.27,680.907C4525.57,680.907 4523.38,678.716 4523.38,676.018C4523.38,673.319 4525.57,671.128 4528.27,671.128ZM4528.27,672.128C4530.41,672.128 4532.16,673.871 4532.16,676.018C4532.16,678.164 4530.41,679.907 4528.27,679.907C4526.12,679.907 4524.38,678.164 4524.38,676.018C4524.38,673.871 4526.12,672.128 4528.27,672.128Z" style="fill:rgb(236,158,162);"/>
            </g>
            <g transform="matrix(0.8125,-2.77556e-17,8.32667e-17,1,-1015.81,-145.063)">
                <circle cx="4528.27" cy="676.018" r="4.889" style="fill:rgb(244,195,194);"/>
                <path d="M4528.27,671.128C4530.97,671.128 4533.16,673.319 4533.16,676.018C4533.16,678.716 4530.97,680.907 4528.27,680.907C4525.57,680.907 4523.38,678.716 4523.38,676.018C4523.38,673.319 4525.57,671.128 4528.27,671.128ZM4528.27,672.128C4530.41,672.128 4532.16,673.871 4532.16,676.018C4532.16,678.164 4530.41,679.907 4528.27,679.907C4526.12,679.907 4524.38,678.164 4524.38,676.018C4524.38,673.871 4526.12,672.128 4528.27,672.128Z" style="fill:rgb(236,158,162);"/>
            </g>
            <g transform="matrix(0.8125,-2.77556e-17,8.32667e-17,1,-1020.11,-120.768)">
                <circle cx="4528.27" cy="676.018" r="4.889" style="fill:rgb(244,195,194);"/>
                <path d="M4528.27,671.128C4530.97,671.128 4533.16,673.319 4533.16,676.018C4533.16,678.716 4530.97,680.907 4528.27,680.907C4525.57,680.907 4523.38,678.716 4523.38,676.018C4523.38,673.319 4525.57,671.128 4528.27,671.128ZM4528.27,672.128C4530.41,672.128 4532.16,673.871 4532.16,676.018C4532.16,678.164 4530.41,679.907 4528.27,679.907C4526.12,679.907 4524.38,678.164 4524.38,676.018C4524.38,673.871 4526.12,672.128 4528.27,672.128Z" style="fill:rgb(236,158,162);"/>
            </g>
            <g transform="matrix(0.8125,-2.77556e-17,8.32667e-17,1,-1036.89,-108.65)">
                <circle cx="4528.27" cy="676.018" r="4.889" style="fill:rgb(244,195,194);"/>
                <path d="M4528.27,671.128C4530.97,671.128 4533.16,673.319 4533.16,676.018C4533.16,678.716 4530.97,680.907 4528.27,680.907C4525.57,680.907 4523.38,678.716 4523.38,676.018C4523.38,673.319 4525.57,671.128 4528.27,671.128ZM4528.27,672.128C4530.41,672.128 4532.16,673.871 4532.16,676.018C4532.16,678.164 4530.41,679.907 4528.27,679.907C4526.12,679.907 4524.38,678.164 4524.38,676.018C4524.38,673.871 4526.12,672.128 4528.27,672.128Z" style="fill:rgb(236,158,162);"/>
            </g>
            <g transform="matrix(0.8125,-2.77556e-17,8.32667e-17,1,-1022.51,-87.6104)">
                <circle cx="4528.27" cy="676.018" r="4.889" style="fill:rgb(153,184,201);"/>
                <path d="M4528.27,671.128C4530.97,671.128 4533.16,673.319 4533.16,676.018C4533.16,678.716 4530.97,680.907 4528.27,680.907C4525.57,680.907 4523.38,678.716 4523.38,676.018C4523.38,673.319 4525.57,671.128 4528.27,671.128ZM4528.27,672.128C4530.41,672.128 4532.16,673.871 4532.16,676.018C4532.16,678.164 4530.41,679.907 4528.27,679.907C4526.12,679.907 4524.38,678.164 4524.38,676.018C4524.38,673.871 4526.12,672.128 4528.27,672.128Z" style="fill:rgb(87,137,165);"/>
            </g>
            <g transform="matrix(0.8125,-2.77556e-17,8.32667e-17,1,-1038.8,-84.009)">
                <circle cx="4528.27" cy="676.018" r="4.889" style="fill:rgb(153,184,201);"/>
                <path d="M4528.27,671.128C4530.97,671.128 4533.16,673.319 4533.16,676.018C4533.16,678.716 4530.97,680.907 4528.27,680.907C4525.57,680.907 4523.38,678.716 4523.38,676.018C4523.38,673.319 4525.57,671.128 4528.27,671.128ZM4528.27,672.128C4530.41,672.128 4532.16,673.871 4532.16,676.018C4532.16,678.164 4530.41,679.907 4528.27,679.907C4526.12,679.907 4524.38,678.164 4524.38,676.018C4524.38,673.871 4526.12,672.128 4528.27,672.128Z" style="fill:rgb(87,137,165);"/>
            </g>
            <g transform="matrix(0.8125,-2.77556e-17,8.32667e-17,1,-1037.78,-141.095)">
                <circle cx="4528.27" cy="676.018" r="4.889" style="fill:rgb(153,184,201);"/>
                <path d="M4528.27,671.128C4530.97,671.128 4533.16,673.319 4533.16,676.018C4533.16,678.716 4530.97,680.907 4528.27,680.907C4525.57,680.907 4523.38,678.716 4523.38,676.018C4523.38,673.319 4525.57,671.128 4528.27,671.128ZM4528.27,672.128C4530.41,672.128 4532.16,673.871 4532.16,676.018C4532.16,678.164 4530.41,679.907 4528.27,679.907C4526.12,679.907 4524.38,678.164 4524.38,676.018C4524.38,673.871 4526.12,672.128 4528.27,672.128Z" style="fill:rgb(87,137,165);"/>
            </g>
            <g transform="matrix(0.8125,-2.77556e-17,8.32667e-17,1,-1052.61,-189.332)">
                <circle cx="4528.27" cy="676.018" r="4.889" style="fill:rgb(153,184,201);"/>
                <path d="M4528.27,671.128C4530.97,671.128 4533.16,673.319 4533.16,676.018C4533.16,678.716 4530.97,680.907 4528.27,680.907C4525.57,680.907 4523.38,678.716 4523.38,676.018C4523.38,673.319 4525.57,671.128 4528.27,671.128ZM4528.27,672.128C4530.41,672.128 4532.16,673.871 4532.16,676.018C4532.16,678.164 4530.41,679.907 4528.27,679.907C4526.12,679.907 4524.38,678.164 4524.38,676.018C4524.38,673.871 4526.12,672.128 4528.27,672.128Z" style="fill:rgb(87,137,165);"/>
            </g>
            <g transform="matrix(0.8125,-2.77556e-17,8.32667e-17,1,-1024.75,-152.839)">
                <circle cx="4528.27" cy="676.018" r="4.889" style="fill:rgb(244,195,194);"/>
                <path d="M4528.27,671.128C4530.97,671.128 4533.16,673.319 4533.16,676.018C4533.16,678.716 4530.97,680.907 4528.27,680.907C4525.57,680.907 4523.38,678.716 4523.38,676.018C4523.38,673.319 4525.57,671.128 4528.27,671.128ZM4528.27,672.128C4530.41,672.128 4532.16,673.871 4532.16,676.018C4532.16,678.164 4530.41,679.907 4528.27,679.907C4526.12,679.907 4524.38,678.164 4524.38,676.018C4524.38,673.871 4526.12,672.128 4528.27,672.128Z" style="fill:rgb(236,158,162);"/>
            </g>
            <g transform="matrix(0.8125,-2.77556e-17,8.32667e-17,1,-1039.58,-201.076)">
                <circle cx="4528.27" cy="676.018" r="4.889" style="fill:rgb(153,184,201);"/>
                <path d="M4528.27,671.128C4530.97,671.128 4533.16,673.319 4533.16,676.018C4533.16,678.716 4530.97,680.907 4528.27,680.907C4525.57,680.907 4523.38,678.716 4523.38,676.018C4523.38,673.319 4525.57,671.128 4528.27,671.128ZM4528.27,672.128C4530.41,672.128 4532.16,673.871 4532.16,676.018C4532.16,678.164 4530.41,679.907 4528.27,679.907C4526.12,679.907 4524.38,678.164 4524.38,676.018C4524.38,673.871 4526.12,672.128 4528.27,672.128Z" style="fill:rgb(87,137,165);"/>
            </g>
            <g transform="matrix(0.8125,-2.77556e-17,8.32667e-17,1,-1041.75,-157.728)">
                <circle cx="4528.27" cy="676.018" r="4.889" style="fill:rgb(244,195,194);"/>
                <path d="M4528.27,671.128C4530.97,671.128 4533.16,673.319 4533.16,676.018C4533.16,678.716 4530.97,680.907 4528.27,680.907C4525.57,680.907 4523.38,678.716 4523.38,676.018C4523.38,673.319 4525.57,671.128 4528.27,671.128ZM4528.27,672.128C4530.41,672.128 4532.16,673.871 4532.16,676.018C4532.16,678.164 4530.41,679.907 4528.27,679.907C4526.12,679.907 4524.38,678.164 4524.38,676.018C4524.38,673.871 4526.12,672.128 4528.27,672.128Z" style="fill:rgb(236,158,162);"/>
            </g>
            <g transform="matrix(0.8125,-2.77556e-17,8.32667e-17,1,-1071.82,-208.232)">
                <circle cx="4528.27" cy="676.018" r="4.889" style="fill:rgb(244,195,194);"/>
                <path d="M4528.27,671.128C4530.97,671.128 4533.16,673.319 4533.16,676.018C4533.16,678.716 4530.97,680.907 4528.27,680.907C4525.57,680.907 4523.38,678.716 4523.38,676.018C4523.38,673.319 4525.57,671.128 4528.27,671.128ZM4528.27,672.128C4530.41,672.128 4532.16,673.871 4532.16,676.018C4532.16,678.164 4530.41,679.907 4528.27,679.907C4526.12,679.907 4524.38,678.164 4524.38,676.018C4524.38,673.871 4526.12,672.128 4528.27,672.128Z" style="fill:rgb(236,158,162);"/>
            </g>
            <g transform="matrix(0.8125,-2.77556e-17,8.32667e-17,1,-1056.81,-147.95)">
                <circle cx="4528.27" cy="676.018" r="4.889" style="fill:rgb(244,195,194);"/>
                <path d="M4528.27,671.128C4530.97,671.128 4533.16,673.319 4533.16,676.018C4533.16,678.716 4530.97,680.907 4528.27,680.907C4525.57,680.907 4523.38,678.716 4523.38,676.018C4523.38,673.319 4525.57,671.128 4528.27,671.128ZM4528.27,672.128C4530.41,672.128 4532.16,673.871 4532.16,676.018C4532.16,678.164 4530.41,679.907 4528.27,679.907C4526.12,679.907 4524.38,678.164 4524.38,676.018C4524.38,673.871 4526.12,672.128 4528.27,672.128Z" style="fill:rgb(236,158,162);"/>
            </g>
            <g transform="matrix(0.8125,-2.77556e-17,8.32667e-17,1,-1117.21,-172.118)">
                <circle cx="4528.27" cy="676.018" r="4.889" style="fill:rgb(153,184,201);"/>
                <path d="M4528.27,671.128C4530.97,671.128 4533.16,673.319 4533.16,676.018C4533.16,678.716 4530.97,680.907 4528.27,680.907C4525.57,680.907 4523.38,678.716 4523.38,676.018C4523.38,673.319 4525.57,671.128 4528.27,671.128ZM4528.27,672.128C4530.41,672.128 4532.16,673.871 4532.16,676.018C4532.16,678.164 4530.41,679.907 4528.27,679.907C4526.12,679.907 4524.38,678.164 4524.38,676.018C4524.38,673.871 4526.12,672.128 4528.27,672.128Z" style="fill:rgb(87,137,165);"/>
            </g>
            <g transform="matrix(0.8125,-2.77556e-17,8.32667e-17,1,-1078.01,-147.95)">
                <circle cx="4528.27" cy="676.018" r="4.889" style="fill:rgb(153,184,201);"/>
                <path d="M4528.27,671.128C4530.97,671.128 4533.16,673.319 4533.16,676.018C4533.16,678.716 4530.97,680.907 4528.27,680.907C4525.57,680.907 4523.38,678.716 4523.38,676.018C4523.38,673.319 4525.57,671.128 4528.27,671.128ZM4528.27,672.128C4530.41,672.128 4532.16,673.871 4532.16,676.018C4532.16,678.164 4530.41,679.907 4528.27,679.907C4526.12,679.907 4524.38,678.164 4524.38,676.018C4524.38,673.871 4526.12,672.128 4528.27,672.128Z" style="fill:rgb(87,137,165);"/>
            </g>
            <g transform="matrix(0.8125,-2.77556e-17,8.32667e-17,1,-1027.52,-174.07)">
                <circle cx="4528.27" cy="676.018" r="4.889" style="fill:rgb(244,195,194);"/>
                <path d="M4528.27,671.128C4530.97,671.128 4533.16,673.319 4533.16,676.018C4533.16,678.716 4530.97,680.907 4528.27,680.907C4525.57,680.907 4523.38,678.716 4523.38,676.018C4523.38,673.319 4525.57,671.128 4528.27,671.128ZM4528.27,672.128C4530.41,672.128 4532.16,673.871 4532.16,676.018C4532.16,678.164 4530.41,679.907 4528.27,679.907C4526.12,679.907 4524.38,678.164 4524.38,676.018C4524.38,673.871 4526.12,672.128 4528.27,672.128Z" style="fill:rgb(236,158,162);"/>
            </g>
            <g transform="matrix(0.8125,-2.77556e-17,8.32667e-17,1,-1108.21,-123.887)">
                <circle cx="4528.27" cy="676.018" r="4.889" style="fill:rgb(244,195,194);"/>
                <path d="M4528.27,671.128C4530.97,671.128 4533.16,673.319 4533.16,676.018C4533.16,678.716 4530.97,680.907 4528.27,680.907C4525.57,680.907 4523.38,678.716 4523.38,676.018C4523.38,673.319 4525.57,671.128 4528.27,671.128ZM4528.27,672.128C4530.41,672.128 4532.16,673.871 4532.16,676.018C4532.16,678.164 4530.41,679.907 4528.27,679.907C4526.12,679.907 4524.38,678.164 4524.38,676.018C4524.38,673.871 4526.12,672.128 4528.27,672.128Z" style="fill:rgb(236,158,162);"/>
            </g>
            <g transform="matrix(0.8125,-2.77556e-17,8.32667e-17,1,-1114.18,-99.5576)">
                <circle cx="4528.27" cy="676.018" r="4.889" style="fill:rgb(153,184,201);"/>
                <path d="M4528.27,671.128C4530.97,671.128 4533.16,673.319 4533.16,676.018C4533.16,678.716 4530.97,680.907 4528.27,680.907C4525.57,680.907 4523.38,678.716 4523.38,676.018C4523.38,673.319 4525.57,671.128 4528.27,671.128ZM4528.27,672.128C4530.41,672.128 4532.16,673.871 4532.16,676.018C4532.16,678.164 4530.41,679.907 4528.27,679.907C4526.12,679.907 4524.38,678.164 4524.38,676.018C4524.38,673.871 4526.12,672.128 4528.27,672.128Z" style="fill:rgb(87,137,165);"/>
            </g>
            <g transform="matrix(0.8125,-2.77556e-17,8.32667e-17,1,-1094.74,-113.848)">
                <circle cx="4528.27" cy="676.018" r="4.889" style="fill:rgb(153,184,201);"/>
                <path d="M4528.27,671.128C4530.97,671.128 4533.16,673.319 4533.16,676.018C4533.16,678.716 4530.97,680.907 4528.27,680.907C4525.57,680.907 4523.38,678.716 4523.38,676.018C4523.38,673.319 4525.57,671.128 4528.27,671.128ZM4528.27,672.128C4530.41,672.128 4532.16,673.871 4532.16,676.018C4532.16,678.164 4530.41,679.907 4528.27,679.907C4526.12,679.907 4524.38,678.164 4524.38,676.018C4524.38,673.871 4526.12,672.128 4528.27,672.128Z" style="fill:rgb(87,137,165);"/>
            </g>
            <g transform="matrix(0.8125,-2.77556e-17,8.32667e-17,1,-1088.84,-85.8654)">
                <circle cx="4528.27" cy="676.018" r="4.889" style="fill:rgb(153,184,201);"/>
                <path d="M4528.27,671.128C4530.97,671.128 4533.16,673.319 4533.16,676.018C4533.16,678.716 4530.97,680.907 4528.27,680.907C4525.57,680.907 4523.38,678.716 4523.38,676.018C4523.38,673.319 4525.57,671.128 4528.27,671.128ZM4528.27,672.128C4530.41,672.128 4532.16,673.871 4532.16,676.018C4532.16,678.164 4530.41,679.907 4528.27,679.907C4526.12,679.907 4524.38,678.164 4524.38,676.018C4524.38,673.871 4526.12,672.128 4528.27,672.128Z" style="fill:rgb(87,137,165);"/>
            </g>
        </g>
    </g>
</svg>
