<svg xmlns="http://www.w3.org/2000/svg" width="198" height="82" viewBox="0 0 198 82">
  <defs>
    <style>
      .cls-1 {
        fill: #1d1d1b;
      }

      .cls-2 {
        fill: #5fb34a;
      }
    </style>
  </defs>
  <g id="Слой_2" data-name="Слой 2">
    <path class="cls-1" d="M196.00084-161V-1h-194V-161h194m2-2h-198V1h198V-163Z"/>
    <g>
      <rect class="cls-2" x="1" width="196" height="82"/>
      <path class="cls-1" d="M196,1V81H2V1H196m2-2H0V83H198V-1Z"/>
    </g>
    <path class="cls-1" d="M196.00085,83V315h-194V83h194m2-2h-198V317h198V81Z"/>
    <g>
      <path class="cls-1" d="M30.60938,28.709a5.40964,5.40964,0,0,1,2.40478.48145,4.38816,4.38816,0,0,1,1.57324,1.26074,4.94074,4.94074,0,0,1,.85791,1.78125,8.10592,8.10592,0,0,1,.26026,2.041,6.6592,6.6592,0,0,1-.4292,2.49609,4.52763,4.52763,0,0,1-1.1958,1.74121,5.01087,5.01087,0,0,1-1.85938,1.01465,8.14282,8.14282,0,0,1-2.418.33789h-2.002v7.41016H24.05713V28.709Zm-1.144,8.39844a2.47206,2.47206,0,0,0,1.80713-.67578,2.84271,2.84271,0,0,0,.689-2.10644,3.292,3.292,0,0,0-.59815-2.13184,2.45432,2.45432,0,0,0-2.002-.72852H27.80127v5.64258Z"/>
      <path class="cls-1" d="M40.87939,33.28516v1.87207h.05225a5.08767,5.08767,0,0,1,1.32568-1.625,2.98491,2.98491,0,0,1,1.898-.61133c.104,0,.21241.00488.3252.01367.1123.00879.22119.02148.32519.03906v3.43164q-.28637-.02635-.55908-.03906c-.18213-.00879-.36865-.01269-.55908-.01269a3.47346,3.47346,0,0,0-.936.12988,2.49945,2.49945,0,0,0-.85791.42871,2.14471,2.14471,0,0,0-.624.78027,2.68431,2.68431,0,0,0-.23389,1.18262v8.39844H37.44727V33.28516Z"/>
      <path class="cls-1" d="M49.82324,28.501v3.06836H46.23535V28.501Zm0,4.78418V47.27344H46.23535V33.28516Z"/>
      <path class="cls-1" d="M52.16309,37.10742a6.09871,6.09871,0,0,1,.936-2.30078,4.15019,4.15019,0,0,1,1.70264-1.4043,6.21777,6.21777,0,0,1,2.5874-.48144,6.58177,6.58177,0,0,1,2.67773.42969,3.7502,3.7502,0,0,1,1.68995,1.39062,6.215,6.215,0,0,1,.88427,2.31445,17.6233,17.6233,0,0,1,.25977,3.22364,15.703,15.703,0,0,1-.28613,3.17187,6.11434,6.11434,0,0,1-.936,2.30078,3.87731,3.87731,0,0,1-1.70264,1.36524,6.68768,6.68768,0,0,1-2.58691.44238,6.92823,6.92823,0,0,1-2.67822-.40332A3.61606,3.61606,0,0,1,53.021,45.80371a6.079,6.079,0,0,1-.88428-2.31348A17.62906,17.62906,0,0,1,51.877,40.2793,15.70241,15.70241,0,0,1,52.16309,37.10742Zm3.354,5.14746a6.7956,6.7956,0,0,0,.24707,1.56055,2.21924,2.21924,0,0,0,.585,1.01367,1.46019,1.46019,0,0,0,1.04.36426A1.52,1.52,0,0,0,58.897,44.04883a12.12775,12.12775,0,0,0,.416-3.76953,12.14342,12.14342,0,0,0-.416-3.77051,1.5212,1.5212,0,0,0-1.50781-1.14356,1.46024,1.46024,0,0,0-1.04.36426,2.22442,2.22442,0,0,0-.585,1.01367,6.79545,6.79545,0,0,0-.24707,1.55957q-.05274.91115-.05225,1.97657Q55.46484,41.34569,55.51709,42.25488Z"/>
      <path class="cls-1" d="M68.25684,33.28516v1.87207h.05224a5.08769,5.08769,0,0,1,1.32569-1.625,2.98488,2.98488,0,0,1,1.89794-.61133c.104,0,.21241.00488.3252.01367.1123.00879.22119.02148.3252.03906v3.43164q-.28638-.02635-.55909-.03906c-.18213-.00879-.36865-.01269-.55908-.01269a3.47333,3.47333,0,0,0-.936.12988,2.49927,2.49927,0,0,0-.85791.42871,2.14464,2.14464,0,0,0-.624.78027,2.68432,2.68432,0,0,0-.23388,1.18262v8.39844H64.82471V33.28516Z"/>
      <path class="cls-1" d="M77.20068,28.501v3.06836H73.61279V28.501Zm0,4.78418V47.27344H73.61279V33.28516Z"/>
      <path class="cls-1" d="M84.09033,29.28125v4.00391h2.08008v2.44433H84.09033v7.56543a2.12494,2.12494,0,0,0,.24707,1.1836,1.19787,1.19787,0,0,0,1.02686.35058c.13867,0,.27734-.0039.416-.01269s.26856-.02149.39014-.03907v2.4961q-.5984,0-1.15723.03906-.55884.03809-1.18261.03906a8.28408,8.28408,0,0,1-1.70313-.14355,1.72625,1.72625,0,0,1-1.01416-.57227,2.45343,2.45343,0,0,1-.481-1.13086,9.9401,9.9401,0,0,1-.12988-1.76758V35.72949H78.68213V33.28516h1.82031V29.28125Z"/>
      <path class="cls-1" d="M88.354,49.1709a1.738,1.738,0,0,0,1.417-.51953,2.46469,2.46469,0,0,0,.50732-1.37793L86.35205,33.28516h3.74414L92.17627,42.957H92.228l1.82031-9.67187h3.58789L94.25635,46.33691a26.601,26.601,0,0,1-.897,2.82129,4.87977,4.87977,0,0,1-1.01417,1.66407,2.806,2.806,0,0,1-1.4038.7666,9.78241,9.78241,0,0,1-2.06739.18261H87.418V49.09277A5.60531,5.60531,0,0,0,88.354,49.1709Z"/>
      <path class="cls-1" d="M109.56934,29.28125v4.00391h2.08007v2.44433h-2.08007v7.56543a2.12494,2.12494,0,0,0,.24707,1.1836,1.19785,1.19785,0,0,0,1.02685.35058c.13867,0,.27735-.0039.416-.01269s.26855-.02149.39013-.03907v2.4961q-.59838,0-1.15722.03906-.55884.03809-1.18262.03906a8.28391,8.28391,0,0,1-1.70312-.14355,1.72619,1.72619,0,0,1-1.01416-.57227,2.45333,2.45333,0,0,1-.481-1.13086,9.93915,9.93915,0,0,1-.12988-1.76758V35.72949h-1.82032V33.28516h1.82032V29.28125Z"/>
      <path class="cls-1" d="M112.87109,37.2373a4.73275,4.73275,0,0,1,.39014-2.041,3.56319,3.56319,0,0,1,1.05273-1.32617,4.18828,4.18828,0,0,1,1.56006-.72754,7.9636,7.9636,0,0,1,1.91114-.22168,8.86525,8.86525,0,0,1,2.60009.3125,3.5546,3.5546,0,0,1,1.5337.88379,2.96758,2.96758,0,0,1,.74121,1.36523,7.23292,7.23292,0,0,1,.19482,1.72852v7.3584a9.84905,9.84905,0,0,0,.09131,1.53418,5.33224,5.33224,0,0,0,.35107,1.16992h-3.43213a2.96584,2.96584,0,0,1-.27294-.71485q-.09156-.37645-.169-.74121h-.05225a3.05151,3.05151,0,0,1-1.44287,1.417,5.81974,5.81974,0,0,1-2.11914.32519,3.51661,3.51661,0,0,1-1.58594-.32519,2.6851,2.6851,0,0,1-1.04-.89747,4.01339,4.01339,0,0,1-.57178-1.28711,5.71044,5.71044,0,0,1-.18213-1.417,6.119,6.119,0,0,1,.208-1.70215,3.28552,3.28552,0,0,1,.6372-1.22265,3.47575,3.47575,0,0,1,1.0918-.84473,8.56924,8.56924,0,0,1,1.59912-.59766l2.02783-.54687a2.16567,2.16567,0,0,0,1.11817-.57129,1.59915,1.59915,0,0,0,.312-1.06641,1.92261,1.92261,0,0,0-.37695-1.26074,1.59147,1.59147,0,0,0-1.28711-.45508,1.53918,1.53918,0,0,0-1.24805.49415,1.99172,1.99172,0,0,0-.416,1.32617v.38965h-3.22412Zm5.772,3.49708a5.18874,5.18874,0,0,1-.75391.24707,2.75747,2.75747,0,0,0-1.56006.77929,2.2032,2.2032,0,0,0-.46777,1.48242,2.83871,2.83871,0,0,0,.312,1.37793,1.08932,1.08932,0,0,0,1.04.57227,2.61881,2.61881,0,0,0,.75391-.11719,2.09881,2.09881,0,0,0,.71484-.377,1.98722,1.98722,0,0,0,.5332-.67578,2.19209,2.19209,0,0,0,.208-.98828V40.2793A3.22663,3.22663,0,0,1,118.64307,40.73438Z"/>
      <path class="cls-1" d="M135.88037,46.57129A5.54113,5.54113,0,0,1,134.5415,50.627q-1.33959,1.35206-4.48486,1.35254a5.5675,5.5675,0,0,1-3.52295-.97558,3.32021,3.32021,0,0,1-1.23535-2.76856h3.43213a1.24047,1.24047,0,0,0,.5459,1.06543,2.28262,2.28262,0,0,0,.55908.28613,1.925,1.925,0,0,0,.63721.1045,1.669,1.669,0,0,0,1.53369-.70215,3.20765,3.20765,0,0,0,.44238-1.74219v-1.8457h-.05225a4.28491,4.28491,0,0,1-1.33886,1.248,3.20844,3.20844,0,0,1-1.65088.46778,3.60227,3.60227,0,0,1-3.21143-1.625q-1.07886-1.62452-1.07861-5.44727a22.2894,22.2894,0,0,1,.14307-2.49609,7.79463,7.79463,0,0,1,.59765-2.30078,4.14738,4.14738,0,0,1,1.32617-1.67676,3.79828,3.79828,0,0,1,2.32715-.65039,3.40556,3.40556,0,0,1,1.55957.416,3.117,3.117,0,0,1,1.32617,1.50782h.05225V33.28516h3.43164Zm-7.11084-4.47168a4.42436,4.42436,0,0,0,.26026,1.15625,1.95247,1.95247,0,0,0,.54589.80664,1.37435,1.37435,0,0,0,.92286.29883,1.482,1.482,0,0,0,.94921-.29883,2.03875,2.03875,0,0,0,.59766-.81934,4.72984,4.72984,0,0,0,.312-1.26074,13.41422,13.41422,0,0,0,.09131-1.625,11.3338,11.3338,0,0,0-.40332-3.61426,1.47158,1.47158,0,0,0-1.46875-1.0664,1.61535,1.61535,0,0,0-.96191.26074,1.69393,1.69393,0,0,0-.57227.84473,5.95871,5.95871,0,0,0-.273,1.55957q-.06519.97559-.06494,2.37988Q128.70459,41.44971,128.76953,42.09961Z"/>
      <path class="cls-1" d="M148.88037,46.57129A5.54113,5.54113,0,0,1,147.5415,50.627q-1.33959,1.35206-4.48486,1.35254a5.5675,5.5675,0,0,1-3.52295-.97558,3.32021,3.32021,0,0,1-1.23535-2.76856h3.43213a1.24047,1.24047,0,0,0,.5459,1.06543,2.28262,2.28262,0,0,0,.55908.28613,1.925,1.925,0,0,0,.63721.1045,1.669,1.669,0,0,0,1.53369-.70215,3.20765,3.20765,0,0,0,.44238-1.74219v-1.8457h-.05225a4.28491,4.28491,0,0,1-1.33886,1.248,3.20844,3.20844,0,0,1-1.65088.46778,3.60227,3.60227,0,0,1-3.21143-1.625q-1.07886-1.62452-1.07861-5.44727a22.2894,22.2894,0,0,1,.14307-2.49609,7.79463,7.79463,0,0,1,.59765-2.30078,4.14738,4.14738,0,0,1,1.32617-1.67676,3.79828,3.79828,0,0,1,2.32715-.65039,3.40556,3.40556,0,0,1,1.55957.416,3.117,3.117,0,0,1,1.32617,1.50782h.05225V33.28516h3.43164Zm-7.11084-4.47168a4.42436,4.42436,0,0,0,.26026,1.15625,1.95247,1.95247,0,0,0,.54589.80664,1.37435,1.37435,0,0,0,.92286.29883,1.482,1.482,0,0,0,.94921-.29883,2.03875,2.03875,0,0,0,.59766-.81934,4.72984,4.72984,0,0,0,.312-1.26074,13.41422,13.41422,0,0,0,.09131-1.625,11.3338,11.3338,0,0,0-.40332-3.61426,1.47158,1.47158,0,0,0-1.46875-1.0664,1.61535,1.61535,0,0,0-.96191.26074,1.69393,1.69393,0,0,0-.57227.84473,5.95871,5.95871,0,0,0-.273,1.55957q-.06519.97559-.06494,2.37988Q141.70459,41.44971,141.76953,42.09961Z"/>
      <path class="cls-1" d="M154.4707,41.94336a7.81722,7.81722,0,0,0,.09082,1.209,3.96162,3.96162,0,0,0,.29883,1.04,1.95648,1.95648,0,0,0,.54639.72754,1.2776,1.2776,0,0,0,.832.27344,1.45737,1.45737,0,0,0,1.32568-.65039,4.79056,4.79056,0,0,0,.57227-1.97559h3.22363a5.60672,5.60672,0,0,1-1.2998,3.71778,4.95369,4.95369,0,0,1-3.77,1.27441,5.973,5.973,0,0,1-3.042-.65039,4.02663,4.02663,0,0,1-1.61182-1.71582,6.7575,6.7575,0,0,1-.63721-2.39258q-.11718-1.32569-.11719-2.65137a18.23024,18.23024,0,0,1,.19532-2.7041,6.53541,6.53541,0,0,1,.77978-2.31445,4.23425,4.23425,0,0,1,1.67725-1.61133,6.06928,6.06928,0,0,1,2.91211-.59863,5.66078,5.66078,0,0,1,2.56054.50683,3.87114,3.87114,0,0,1,1.57325,1.43067,5.98835,5.98835,0,0,1,.77978,2.23535,18.79661,18.79661,0,0,1,.208,2.92578v.80567H154.4707Zm3.562-4.667a3.64461,3.64461,0,0,0-.27294-1.04,1.45471,1.45471,0,0,0-.54639-.65039,1.66412,1.66412,0,0,0-.897-.22071,1.52061,1.52061,0,0,0-.897.24707,1.786,1.786,0,0,0-.55908.64942,3.22446,3.22446,0,0,0-.29883.89746,5.41354,5.41354,0,0,0-.09082.98828v.5459h3.666Q158.11035,37.8877,158.03271,37.27637Z"/>
      <path class="cls-1" d="M170.56445,45.791a3.58941,3.58941,0,0,1-1.33886,1.37793,3.9051,3.9051,0,0,1-1.833.39062,3.54055,3.54055,0,0,1-3.25-1.69043q-1.04-1.69043-1.04-5.58984,0-3.90088,1.04-5.62891a3.52122,3.52122,0,0,1,3.25-1.72949,3.393,3.393,0,0,1,1.729.416,4.07629,4.07629,0,0,1,1.28711,1.248h.05176V28.709h3.58838V47.27344H170.6167V45.791Zm-3.52295-2.06641a1.46518,1.46518,0,0,0,1.521,1.15625,1.4814,1.4814,0,0,0,1.54736-1.15625,12.67783,12.67783,0,0,0,.35059-3.44531,12.67792,12.67792,0,0,0-.35059-3.44532,1.48311,1.48311,0,0,0-1.54736-1.15722,1.46691,1.46691,0,0,0-1.521,1.15722,12.67465,12.67465,0,0,0-.35107,3.44532A12.67457,12.67457,0,0,0,167.0415,43.72461Z"/>
    </g>
  </g>
</svg>
