<svg xmlns="http://www.w3.org/2000/svg" width="198" height="234" viewBox="0 0 198 234">
  <defs>
    <style>
      .cls-1 {
        fill: #1d1d1b;
      }

      .cls-2 {
        fill: #808181;
      }
    </style>
  </defs>
  <g id="Слой_2" data-name="Слой 2">
    <path class="cls-1" d="M196-81V-1H2V-81H196m2-2H0V1H198V-83Z"/>
    <g>
      <rect class="cls-2" x="1.00012" width="196" height="234"/>
      <path class="cls-1" d="M196,1V233H2V1H196m2-2H0V235H198V-1Z"/>
    </g>
    <path class="cls-1" d="M196,235v52H2V235H196m2-2H0v56H198V233Z"/>
    <g>
      <path class="cls-1" d="M37.26428,108.27734H30.6344v4.36719h6.24023v3.06836H30.6344v4.99219h6.89014v3.06836H26.89026V105.209h10.374Z"/>
      <path class="cls-1" d="M43.66028,105.78125v4.00391h2.08008v2.44336H43.66028v7.5664a2.12716,2.12716,0,0,0,.24707,1.1836,1.195,1.195,0,0,0,1.02685.3496q.208,0,.416-.01171c.13867-.00977.26855-.02149.39014-.03907v2.4961c-.39893,0-.78467.01172-1.15723.03906q-.55884.03808-1.18262.03906a8.275,8.275,0,0,1-1.70312-.14453,1.72415,1.72415,0,0,1-1.01416-.57031,2.47177,2.47177,0,0,1-.481-1.13086,9.97154,9.97154,0,0,1-.12988-1.76953v-8.00781H38.25208v-2.44336h1.82031v-4.00391Z"/>
      <path class="cls-1" d="M50.57629,105.209v6.00586h.05176a3.63085,3.63085,0,0,1,3.40625-1.793,3.5364,3.5364,0,0,1,2.63867.93554,4.21156,4.21156,0,0,1,.92334,3.041v10.375H54.00793V114.127a2.39935,2.39935,0,0,0-.36376-1.52148,1.45718,1.45718,0,0,0-1.16993-.42774q-1.89843,0-1.898,2.3125v9.28321H46.98792V105.209Z"/>
      <path class="cls-1" d="M63.05627,118.44336a7.81722,7.81722,0,0,0,.09082,1.209,3.95422,3.95422,0,0,0,.29883,1.03907,1.95233,1.95233,0,0,0,.54639.72851,1.283,1.283,0,0,0,.832.27344A1.45736,1.45736,0,0,0,66.15,121.043a4.79557,4.79557,0,0,0,.57227-1.97656h3.22363a5.6075,5.6075,0,0,1-1.2998,3.71875,4.95346,4.95346,0,0,1-3.77,1.27343,5.96289,5.96289,0,0,1-3.042-.65039,4.01891,4.01891,0,0,1-1.61182-1.71484,6.7575,6.7575,0,0,1-.63721-2.39258q-.11718-1.32714-.11718-2.65234a18.228,18.228,0,0,1,.19531-2.70313,6.52212,6.52212,0,0,1,.77978-2.31445,4.23425,4.23425,0,0,1,1.67725-1.61133,6.07,6.07,0,0,1,2.91211-.59765,5.66147,5.66147,0,0,1,2.56055.50585,3.86214,3.86214,0,0,1,1.57324,1.42969,5.99347,5.99347,0,0,1,.77978,2.23633,18.79652,18.79652,0,0,1,.208,2.92578v.80469H63.05627Zm3.562-4.668a3.63775,3.63775,0,0,0-.273-1.03906,1.45459,1.45459,0,0,0-.54639-.65039,1.66409,1.66409,0,0,0-.897-.22071,1.52737,1.52737,0,0,0-.897.2461,1.79714,1.79714,0,0,0-.55908.65039,3.22856,3.22856,0,0,0-.29883.89648,5.42942,5.42942,0,0,0-.09082.98828v.54688h3.666Q66.69592,114.3877,66.61829,113.77539Z"/>
      <path class="cls-1" d="M75.45764,109.78516v1.87109h.05225a5.0984,5.0984,0,0,1,1.32568-1.625,2.98937,2.98937,0,0,1,1.89795-.60937q.156,0,.3252.01171c.1123.00977.22119.02149.32519.03907v3.43164c-.19092-.01563-.37695-.0293-.55908-.03907q-.2732-.01171-.55908-.01171a3.51117,3.51117,0,0,0-.936.1289,2.51928,2.51928,0,0,0-.85791.42969,2.1412,2.1412,0,0,0-.624.7793,2.69167,2.69167,0,0,0-.23389,1.18359v8.39844H72.02551V109.78516Z"/>
      <path class="cls-1" d="M85.05139,105.78125v4.00391h2.08008v2.44336H85.05139v7.5664a2.12716,2.12716,0,0,0,.24707,1.1836,1.195,1.195,0,0,0,1.02686.3496q.208,0,.416-.01171c.13867-.00977.26856-.02149.39014-.03907v2.4961c-.39893,0-.78467.01172-1.15723.03906q-.55884.03808-1.18261.03906a8.27513,8.27513,0,0,1-1.70313-.14453,1.72421,1.72421,0,0,1-1.01416-.57031,2.47177,2.47177,0,0,1-.481-1.13086,9.97154,9.97154,0,0,1-.12988-1.76953v-8.00781H79.64319v-2.44336H81.4635v-4.00391Z"/>
      <path class="cls-1" d="M89.31506,125.67188a1.73551,1.73551,0,0,0,1.417-.52149,2.45583,2.45583,0,0,0,.50732-1.377l-3.92627-13.98828h3.74414l2.08008,9.67187h.05176l1.82031-9.67187h3.58789l-3.37988,13.05273a26.57174,26.57174,0,0,1-.897,2.82031,4.88927,4.88927,0,0,1-1.01416,1.66407,2.81491,2.81491,0,0,1-1.4038.76757,9.78941,9.78941,0,0,1-2.06739.18164H88.379v-2.67773A5.82093,5.82093,0,0,0,89.31506,125.67188Z"/>
      <path class="cls-1" d="M103.3551,109.78516v1.48242h.05225a3.946,3.946,0,0,1,1.33887-1.418,3.617,3.617,0,0,1,1.833-.42773,3.52149,3.52149,0,0,1,3.25,1.72851q1.0393,1.72851,1.04,5.62891,0,3.89942-1.04,5.58984a3.54085,3.54085,0,0,1-3.25,1.68945,3.317,3.317,0,0,1-3.01611-1.58593h-.05176v5.79882H99.923V109.78516Zm.50684,10.43945a1.4814,1.4814,0,0,0,1.54736,1.15625,1.46518,1.46518,0,0,0,1.521-1.15625,17.08127,17.08127,0,0,0,0-6.89063,1.46518,1.46518,0,0,0-1.521-1.15625,1.4814,1.4814,0,0,0-1.54736,1.15625,17.10418,17.10418,0,0,0,0,6.89063Z"/>
      <path class="cls-1" d="M115.99133,118.44336a7.81722,7.81722,0,0,0,.09082,1.209,3.95422,3.95422,0,0,0,.29883,1.03907,1.95233,1.95233,0,0,0,.54639.72851,1.283,1.283,0,0,0,.832.27344,1.45737,1.45737,0,0,0,1.32568-.65039,4.79572,4.79572,0,0,0,.57227-1.97656H122.881a5.6075,5.6075,0,0,1-1.2998,3.71875,4.95346,4.95346,0,0,1-3.77,1.27343,5.96289,5.96289,0,0,1-3.042-.65039,4.01891,4.01891,0,0,1-1.61182-1.71484,6.7575,6.7575,0,0,1-.63721-2.39258q-.11718-1.32714-.11719-2.65234a18.22664,18.22664,0,0,1,.19532-2.70313,6.52212,6.52212,0,0,1,.77978-2.31445,4.23425,4.23425,0,0,1,1.67725-1.61133,6.07,6.07,0,0,1,2.91211-.59765,5.66143,5.66143,0,0,1,2.56054.50585,3.86217,3.86217,0,0,1,1.57325,1.42969,5.99347,5.99347,0,0,1,.77978,2.23633,18.79652,18.79652,0,0,1,.208,2.92578v.80469h-7.09766Zm3.562-4.668a3.63743,3.63743,0,0,0-.27294-1.03906,1.45471,1.45471,0,0,0-.54639-.65039,1.66412,1.66412,0,0,0-.897-.22071,1.52737,1.52737,0,0,0-.897.2461,1.79714,1.79714,0,0,0-.55908.65039,3.22856,3.22856,0,0,0-.29883.89648,5.42942,5.42942,0,0,0-.09082.98828v.54688h3.666Q119.631,114.3877,119.55334,113.77539Z"/>
      <path class="cls-1" d="M137.85657,105.209a5.41006,5.41006,0,0,1,2.40478.48047,4.41132,4.41132,0,0,1,1.57324,1.26172,4.92509,4.92509,0,0,1,.85791,1.78125,8.11117,8.11117,0,0,1,.26026,2.041,6.6592,6.6592,0,0,1-.4292,2.49609,4.53867,4.53867,0,0,1-1.1958,1.74219,5.023,5.023,0,0,1-1.85938,1.01367,8.17474,8.17474,0,0,1-2.418.33789h-2.002v7.41016h-3.74414V105.209Zm-1.144,8.39844a2.46813,2.46813,0,0,0,1.80713-.67578,2.84216,2.84216,0,0,0,.689-2.10742,3.2872,3.2872,0,0,0-.59815-2.13086,2.45119,2.45119,0,0,0-2.00195-.72852h-1.56006v5.64258Z"/>
      <path class="cls-1" d="M151.11682,105.209a6.70653,6.70653,0,0,1,3.146.63672,4.53747,4.53747,0,0,1,1.85888,1.82032,8.104,8.104,0,0,1,.897,2.84765,26.87959,26.87959,0,0,1,.23388,3.7168,26.40068,26.40068,0,0,1-.29882,4.252,8.12507,8.12507,0,0,1-1.02686,2.97656,4.51364,4.51364,0,0,1-1.9502,1.74219,7.31526,7.31526,0,0,1-3.09423.57227h-5.90186V105.209Zm-.728,15.8086a3.22511,3.22511,0,0,0,1.58594-.33789,2.3294,2.3294,0,0,0,.94873-1.11914,6.53346,6.53346,0,0,0,.46826-2.05274q.1172-1.27442.1167-3.17383,0-1.585-.10351-2.78125a6.89621,6.89621,0,0,0-.4292-1.98828,2.48111,2.48111,0,0,0-.96192-1.19726,3.167,3.167,0,0,0-1.70312-.40235h-1.58594v13.05274Z"/>
      <path class="cls-1" d="M163.23254,118.15625a8.33988,8.33988,0,0,0,.09082,1.28711,2.90119,2.90119,0,0,0,.33789,1.01367,1.813,1.813,0,0,0,.67627.67774,2.51681,2.51681,0,0,0,2.1709,0,1.84749,1.84749,0,0,0,.66309-.67774,2.91123,2.91123,0,0,0,.33789-1.01367,8.397,8.397,0,0,0,.09131-1.28711V105.209h3.74365v12.94727a7.50408,7.50408,0,0,1-.49365,2.92578,4.65346,4.65346,0,0,1-1.32617,1.832,4.47362,4.47362,0,0,1-1.898.91016,10.26784,10.26784,0,0,1-2.21.23437,11.51027,11.51027,0,0,1-2.21-.207,4.47464,4.47464,0,0,1-1.898-.8457,4.32745,4.32745,0,0,1-1.32618-1.80664,7.90863,7.90863,0,0,1-.49414-3.043V105.209h3.74414Z"/>
    </g>
  </g>
</svg>
