<svg xmlns="http://www.w3.org/2000/svg" width="197.99997" height="90" viewBox="0 0 197.99997 90">
  <defs>
    <style>
      .cls-1 {
        fill: #1d1d1b;
      }

      .cls-2 {
        fill: #ce6926;
      }
    </style>
  </defs>
  <g id="Слой_2" data-name="Слой 2">
    <path class="cls-1" d="M196.00085,91v34h-194V91h194m2-2h-198v38h198V89Z"/>
    <g>
      <rect class="cls-2" x="1" y="1" width="196" height="89"/>
      <path class="cls-1" d="M196,2V89H2V2H196m2-2H0V91H198V0Z"/>
    </g>
    <g>
      <path class="cls-1" d="M58.01172,33.709a5.40964,5.40964,0,0,1,2.40478.48145,4.38828,4.38828,0,0,1,1.57325,1.26074,4.94091,4.94091,0,0,1,.85791,1.78125,8.10591,8.10591,0,0,1,.26025,2.041,6.6592,6.6592,0,0,1-.4292,2.49609,4.52752,4.52752,0,0,1-1.1958,1.74121,5.01091,5.01091,0,0,1-1.85937,1.01465,8.14287,8.14287,0,0,1-2.418.33789h-2.002v7.41016H51.45947V33.709Zm-1.144,8.39844a2.472,2.472,0,0,0,1.80712-.67578,2.84271,2.84271,0,0,0,.689-2.10644,3.292,3.292,0,0,0-.59815-2.13184,2.4543,2.4543,0,0,0-2.002-.72852H55.20361v5.64258Z"/>
      <path class="cls-1" d="M68.28174,38.28516v1.87207H68.334a5.08769,5.08769,0,0,1,1.32569-1.625,2.98489,2.98489,0,0,1,1.89795-.61133c.104,0,.2124.00488.32519.01367.11231.00879.22119.02148.3252.03906v3.43164q-.28638-.02635-.55908-.03906c-.18213-.00879-.36866-.01269-.55909-.01269a3.47333,3.47333,0,0,0-.936.12988,2.49936,2.49936,0,0,0-.85791.42871,2.14461,2.14461,0,0,0-.624.78027A2.68417,2.68417,0,0,0,68.438,43.875v8.39844H64.84961V38.28516Z"/>
      <path class="cls-1" d="M76.57568,46.94336a7.81722,7.81722,0,0,0,.09082,1.209,3.96162,3.96162,0,0,0,.29883,1.04,1.95648,1.95648,0,0,0,.54639.72754,1.2776,1.2776,0,0,0,.832.27344,1.45736,1.45736,0,0,0,1.32568-.65039,4.7904,4.7904,0,0,0,.57227-1.97559h3.22363a5.60672,5.60672,0,0,1-1.2998,3.71778,4.95369,4.95369,0,0,1-3.77,1.27441,5.973,5.973,0,0,1-3.042-.65039,4.02663,4.02663,0,0,1-1.61182-1.71582,6.7575,6.7575,0,0,1-.63721-2.39258q-.11718-1.32569-.11719-2.65137a18.23024,18.23024,0,0,1,.19532-2.7041,6.53541,6.53541,0,0,1,.77978-2.31445,4.23425,4.23425,0,0,1,1.67725-1.61133,6.06928,6.06928,0,0,1,2.91211-.59863,5.66078,5.66078,0,0,1,2.56054.50683,3.87108,3.87108,0,0,1,1.57325,1.43067,5.98835,5.98835,0,0,1,.77978,2.23535,18.79661,18.79661,0,0,1,.208,2.92578v.80567H76.57568Zm3.562-4.667a3.64492,3.64492,0,0,0-.27295-1.04,1.45465,1.45465,0,0,0-.54639-.65039,1.66412,1.66412,0,0,0-.897-.22071,1.52061,1.52061,0,0,0-.897.24707,1.786,1.786,0,0,0-.55908.64942,3.22446,3.22446,0,0,0-.29883.89746,5.41354,5.41354,0,0,0-.09082.98828v.5459h3.666Q80.21533,42.8877,80.1377,42.27637Z"/>
      <path class="cls-1" d="M85.519,42.2373a4.73275,4.73275,0,0,1,.39014-2.041,3.56319,3.56319,0,0,1,1.05273-1.32617,4.18828,4.18828,0,0,1,1.56006-.72754,7.96354,7.96354,0,0,1,1.91114-.22168,8.86525,8.86525,0,0,1,2.60009.3125,3.55462,3.55462,0,0,1,1.53369.88379,2.96751,2.96751,0,0,1,.74122,1.36523,7.23292,7.23292,0,0,1,.19482,1.72852v7.3584a9.84905,9.84905,0,0,0,.09131,1.53418,5.33169,5.33169,0,0,0,.35107,1.16992H92.51318a2.96629,2.96629,0,0,1-.273-.71485q-.09154-.37645-.16894-.74121H92.019a3.05151,3.05151,0,0,1-1.44287,1.417,5.81974,5.81974,0,0,1-2.11914.32519,3.51661,3.51661,0,0,1-1.58594-.32519,2.6852,2.6852,0,0,1-1.04-.89747,4.01359,4.01359,0,0,1-.57177-1.28711,5.71044,5.71044,0,0,1-.18213-1.417,6.119,6.119,0,0,1,.208-1.70215,3.28552,3.28552,0,0,1,.6372-1.22265,3.47575,3.47575,0,0,1,1.0918-.84473,8.569,8.569,0,0,1,1.59912-.59766l2.02783-.54687a2.16567,2.16567,0,0,0,1.11817-.57129,1.59915,1.59915,0,0,0,.312-1.06641,1.92261,1.92261,0,0,0-.377-1.26074,1.59147,1.59147,0,0,0-1.28711-.45508,1.53918,1.53918,0,0,0-1.248.49415,1.99172,1.99172,0,0,0-.416,1.32617v.38965H85.519Zm5.772,3.49708a5.18874,5.18874,0,0,1-.75391.24707,2.75747,2.75747,0,0,0-1.56006.77929,2.2032,2.2032,0,0,0-.46777,1.48242,2.83871,2.83871,0,0,0,.312,1.37793,1.08932,1.08932,0,0,0,1.04.57227,2.61869,2.61869,0,0,0,.7539-.11719,2.09877,2.09877,0,0,0,.71485-.377,1.98722,1.98722,0,0,0,.5332-.67578,2.19222,2.19222,0,0,0,.208-.98828V45.2793A3.22682,3.22682,0,0,1,91.291,45.73438Z"/>
      <path class="cls-1" d="M101.48291,38.28516v1.42968h.05225a4.11771,4.11771,0,0,1,1.521-1.37793,4.53019,4.53019,0,0,1,2.01465-.416,3.65413,3.65413,0,0,1,2.09326.57226,2.77686,2.77686,0,0,1,1.13086,1.66407h.05225a3.179,3.179,0,0,1,1.33887-1.67676,4.15671,4.15671,0,0,1,2.19677-.55957A3.14649,3.14649,0,0,1,114.522,39a4.95268,4.95268,0,0,1,.84522,3.10742v10.166h-3.58838V42.49707a2.36131,2.36131,0,0,0-.32471-1.35156,1.22012,1.22012,0,0,0-1.0791-.46875,1.73553,1.73553,0,0,0-1.36523.57226,2.7042,2.7042,0,0,0-.50684,1.82032v9.2041H104.915V42.49707a2.35724,2.35724,0,0,0-.3252-1.35156,1.219,1.219,0,0,0-1.0791-.46875,1.73381,1.73381,0,0,0-1.36474.57226,2.7042,2.7042,0,0,0-.50684,1.82032v9.2041H98.05078V38.28516Z"/>
      <path class="cls-1" d="M121.34717,33.709v5.876h.05176a4.071,4.071,0,0,1,1.28711-1.248,3.39173,3.39173,0,0,1,1.729-.416,3.52225,3.52225,0,0,1,3.25,1.72949q1.0393,1.72851,1.04,5.62891,0,3.89941-1.04,5.58984a3.54159,3.54159,0,0,1-3.25,1.69043,3.9051,3.9051,0,0,1-1.833-.39062,3.58607,3.58607,0,0,1-1.33887-1.37793h-.05224v1.48242h-3.43213V33.709Zm.35058,15.01563a1.48141,1.48141,0,0,0,1.54737,1.15625,1.46517,1.46517,0,0,0,1.521-1.15625,12.67409,12.67409,0,0,0,.35108-3.44531,12.67417,12.67417,0,0,0-.35108-3.44532,1.4669,1.4669,0,0,0-1.521-1.15722,1.48312,1.48312,0,0,0-1.54737,1.15722,12.67839,12.67839,0,0,0-.35058,3.44532A12.67831,12.67831,0,0,0,121.69775,48.72461Z"/>
      <path class="cls-1" d="M134.47705,33.709V52.27344h-3.58789V33.709Z"/>
      <path class="cls-1" d="M140.06689,46.94336a7.81722,7.81722,0,0,0,.09082,1.209,3.96162,3.96162,0,0,0,.29883,1.04,1.95648,1.95648,0,0,0,.54639.72754,1.2776,1.2776,0,0,0,.832.27344,1.45736,1.45736,0,0,0,1.32568-.65039,4.7904,4.7904,0,0,0,.57227-1.97559h3.22363a5.60672,5.60672,0,0,1-1.2998,3.71778,4.95367,4.95367,0,0,1-3.77,1.27441,5.973,5.973,0,0,1-3.042-.65039,4.02663,4.02663,0,0,1-1.61182-1.71582,6.7575,6.7575,0,0,1-.63721-2.39258q-.11718-1.32569-.11718-2.65137a18.2316,18.2316,0,0,1,.19531-2.7041,6.53541,6.53541,0,0,1,.77978-2.31445,4.23425,4.23425,0,0,1,1.67725-1.61133,6.06928,6.06928,0,0,1,2.91211-.59863,5.66083,5.66083,0,0,1,2.56055.50683,3.87111,3.87111,0,0,1,1.57324,1.43067,5.98835,5.98835,0,0,1,.77978,2.23535,18.79661,18.79661,0,0,1,.208,2.92578v.80567h-7.09766Zm3.562-4.667a3.64492,3.64492,0,0,0-.27295-1.04,1.45459,1.45459,0,0,0-.54639-.65039,1.66409,1.66409,0,0,0-.897-.22071,1.52061,1.52061,0,0,0-.897.24707,1.786,1.786,0,0,0-.55908.64942,3.22446,3.22446,0,0,0-.29883.89746,5.41354,5.41354,0,0,0-.09082.98828v.5459h3.666Q143.70654,42.8877,143.62891,42.27637Z"/>
    </g>
  </g>
</svg>
