<svg xmlns="http://www.w3.org/2000/svg" width="197.99997" height="36" viewBox="0 0 197.99997 36">
  <defs>
    <style>
      .cls-1 {
        fill: #9898cb;
      }

      .cls-2 {
        fill: #1d1d1b;
      }
    </style>
  </defs>
  <g id="Слой_2" data-name="Слой 2">
    <g>
      <rect class="cls-1" x="1.00012" width="196" height="36"/>
      <path class="cls-2" d="M196,1V35H2V1H196m2-2H0V37H198V-1Z"/>
    </g>
    <path class="cls-2" d="M196,37V197H2V37H196m2-2H0V199H198V35Z"/>
    <path class="cls-2" d="M195.99915-88V-1h-194V-88h194m2-2h-198V1h198V-90Z"/>
    <g>
      <path class="cls-2" d="M31.66223,19.52051a6.2004,6.2004,0,0,0,.104,1.18359,2.0593,2.0593,0,0,0,.39013.89649,1.91294,1.91294,0,0,0,.76709.57226,3.05439,3.05439,0,0,0,1.209.208,2.39141,2.39141,0,0,0,1.54687-.55957,2.094,2.094,0,0,0,.689-1.72852,3.11027,3.11027,0,0,0-.169-1.0791,2.13845,2.13845,0,0,0-.55908-.81933,4.00262,4.00262,0,0,0-1.02686-.66309,14.98452,14.98452,0,0,0-1.57324-.61035,13.48188,13.48188,0,0,1-2.15771-.91016,5.7925,5.7925,0,0,1-1.521-1.15722,4.1279,4.1279,0,0,1-.897-1.53418,6.44842,6.44842,0,0,1-.28614-2.01465,5.19357,5.19357,0,0,1,1.53418-4.1084,6.15269,6.15269,0,0,1,4.21192-1.35156,9.12235,9.12235,0,0,1,2.30078.27343,4.82087,4.82087,0,0,1,1.82031.88379,4.13857,4.13857,0,0,1,1.1958,1.55957,5.49425,5.49425,0,0,1,.4292,2.27539v.51954H36.08215a3.7267,3.7267,0,0,0-.46777-2.041,1.72341,1.72341,0,0,0-1.56006-.71484,2.62085,2.62085,0,0,0-1.04.18164,1.76025,1.76025,0,0,0-.66308.48144,1.64774,1.64774,0,0,0-.33789.68945,3.51035,3.51035,0,0,0-.09082.80567,2.68412,2.68412,0,0,0,.36376,1.44336,3.26359,3.26359,0,0,0,1.56006,1.07812l2.88623,1.24805a8.88029,8.88029,0,0,1,1.7417.97559,4.76567,4.76567,0,0,1,1.0791,1.09179,3.63976,3.63976,0,0,1,.55909,1.28711,7.20447,7.20447,0,0,1,.15576,1.55957,5.1106,5.1106,0,0,1-1.70264,4.27735,7.5031,7.5031,0,0,1-4.74512,1.33886q-3.17285,0-4.5371-1.37793a5.3792,5.3792,0,0,1-1.36524-3.95214v-.75391h3.74414Z"/>
      <path class="cls-2" d="M46.40442,6.78027v4.00489H48.4845v2.44336H46.40442v7.5664a2.12114,2.12114,0,0,0,.24707,1.18262,1.19507,1.19507,0,0,0,1.02685.35156c.13868,0,.27735-.00488.416-.01367.13867-.00781.26856-.02148.39014-.03906v2.49609q-.59839,0-1.15723.03906-.55884.03956-1.18262.03907a8.36259,8.36259,0,0,1-1.70312-.14258,1.73131,1.73131,0,0,1-1.01416-.57227,2.46254,2.46254,0,0,1-.481-1.13086,9.95193,9.95193,0,0,1-.12988-1.76855V13.22852H40.99622V10.78516h1.82031V6.78027Z"/>
      <path class="cls-2" d="M49.70569,14.73633a4.73567,4.73567,0,0,1,.39014-2.041,3.55968,3.55968,0,0,1,1.05273-1.32519,4.17442,4.17442,0,0,1,1.56006-.72852,8.01389,8.01389,0,0,1,1.91113-.2207,8.86937,8.86937,0,0,1,2.6001.31152,3.546,3.546,0,0,1,1.53369.88477,2.95929,2.95929,0,0,1,.74121,1.36426,7.247,7.247,0,0,1,.19483,1.72949v7.35742a9.85053,9.85053,0,0,0,.0913,1.53418,5.316,5.316,0,0,0,.35108,1.16992H56.69983a2.93554,2.93554,0,0,1-.273-.71484q-.09156-.37647-.16895-.74121h-.05224a3.04248,3.04248,0,0,1-1.44287,1.417,5.81952,5.81952,0,0,1-2.11914.32519,3.51642,3.51642,0,0,1-1.58594-.32519,2.6828,2.6828,0,0,1-1.04-.89649,4.02306,4.02306,0,0,1-.57178-1.28711,5.71624,5.71624,0,0,1-.18213-1.417,6.12625,6.12625,0,0,1,.208-1.70312A3.28112,3.28112,0,0,1,50.109,18.208a3.478,3.478,0,0,1,1.0918-.84571,8.70828,8.70828,0,0,1,1.59912-.59765l2.02783-.5459a2.16566,2.16566,0,0,0,1.11816-.57227,1.59453,1.59453,0,0,0,.312-1.06543,1.92538,1.92538,0,0,0-.377-1.26171,1.59141,1.59141,0,0,0-1.28711-.45508,1.53919,1.53919,0,0,0-1.248.49414,1.99344,1.99344,0,0,0-.416,1.32617v.38965H49.70569Zm5.772,3.49707a4.95963,4.95963,0,0,1-.75391.24707,2.7579,2.7579,0,0,0-1.56005.78027,2.20315,2.20315,0,0,0-.46778,1.48242,2.84146,2.84146,0,0,0,.312,1.37793,1.09025,1.09025,0,0,0,1.04.57129,2.65057,2.65057,0,0,0,.75391-.11621,2.10112,2.10112,0,0,0,.71484-.37793,1.98724,1.98724,0,0,0,.53321-.67578,2.18788,2.18788,0,0,0,.208-.9873V17.77832A3.195,3.195,0,0,1,55.47766,18.2334Z"/>
      <path class="cls-2" d="M65.66956,10.78516v1.87109h.05224a5.09842,5.09842,0,0,1,1.32569-1.625,2.99,2.99,0,0,1,1.89794-.61035c.104,0,.21241.0039.3252.01269.1123.00879.22119.02246.3252.03907V13.9043q-.28638-.0249-.55909-.03907c-.18213-.00781-.36865-.01269-.55908-.01269a3.51258,3.51258,0,0,0-.936.12988,2.50178,2.50178,0,0,0-.85791.42969,2.14112,2.14112,0,0,0-.624.7793,2.68874,2.68874,0,0,0-.23388,1.18359v8.39746H62.23743V10.78516Z"/>
      <path class="cls-2" d="M75.26331,6.78027v4.00489h2.08007v2.44336H75.26331v7.5664a2.12114,2.12114,0,0,0,.24707,1.18262,1.19505,1.19505,0,0,0,1.02685.35156c.13867,0,.27735-.00488.416-.01367.13867-.00781.26855-.02148.39013-.03906v2.49609q-.59838,0-1.15722.03906-.55884.03956-1.18262.03907a8.36252,8.36252,0,0,1-1.70312-.14258,1.73137,1.73137,0,0,1-1.01417-.57227,2.46254,2.46254,0,0,1-.48095-1.13086,9.951,9.951,0,0,1-.12988-1.76855V13.22852H69.8551V10.78516h1.82032V6.78027Z"/>
      <path class="cls-2" d="M84.64905,14.60645a6.10537,6.10537,0,0,1,.936-2.30079,4.15769,4.15769,0,0,1,1.70264-1.40429,6.21826,6.21826,0,0,1,2.5874-.48047,6.583,6.583,0,0,1,2.67774.42871,3.76267,3.76267,0,0,1,1.68994,1.39062,6.21518,6.21518,0,0,1,.88428,2.31446,17.62318,17.62318,0,0,1,.25976,3.22363,15.71244,15.71244,0,0,1-.28613,3.17285,6.11434,6.11434,0,0,1-.936,2.30078A3.87728,3.87728,0,0,1,92.462,24.61719a6.70715,6.70715,0,0,1-2.58692.4414,6.90955,6.90955,0,0,1-2.67822-.40332A3.61406,3.61406,0,0,1,85.507,23.30371a6.09029,6.09029,0,0,1-.88428-2.31445,17.62173,17.62173,0,0,1-.25976-3.21094A15.70912,15.70912,0,0,1,84.64905,14.60645Zm3.354,5.14843a6.78633,6.78633,0,0,0,.24707,1.55957,2.22792,2.22792,0,0,0,.585,1.01465,1.464,1.464,0,0,0,1.04.36328,1.52013,1.52013,0,0,0,1.50781-1.14355,12.13921,12.13921,0,0,0,.416-3.77051,12.13617,12.13617,0,0,0-.416-3.76953,1.521,1.521,0,0,0-1.50781-1.14453,1.46453,1.46453,0,0,0-1.04.36426,2.22793,2.22793,0,0,0-.585,1.01464,6.78652,6.78652,0,0,0-.24707,1.55957q-.05273.90967-.05224,1.97559Q87.95081,18.84473,88.00305,19.75488Z"/>
      <path class="cls-2" d="M96.27063,13.22852V10.78516h1.82031V9.19824a4.27975,4.27975,0,0,1,.25977-1.58594,2.512,2.512,0,0,1,.74121-1.04,2.94853,2.94853,0,0,1,1.1831-.5586,6.68892,6.68892,0,0,1,1.56006-.16894q.96095,0,1.92383.07812V8.4707a2.02605,2.02605,0,0,0-.36426-.02636h-.33789a1.68011,1.68011,0,0,0-1.06592.26074,1.05677,1.05677,0,0,0-.312.85742v1.22266h2.08008v2.44336h-2.08008V24.77246H98.09094V13.22852Z"/>
      <path class="cls-2" d="M110.20618,13.22852V10.78516h1.82031V9.19824a4.28,4.28,0,0,1,.25976-1.58594,2.512,2.512,0,0,1,.74122-1.04,2.94853,2.94853,0,0,1,1.1831-.5586,6.68879,6.68879,0,0,1,1.56006-.16894q.96093,0,1.92383.07812V8.4707a2.02613,2.02613,0,0,0-.36426-.02636h-.33789a1.68011,1.68011,0,0,0-1.06592.26074,1.05674,1.05674,0,0,0-.312.85742v1.22266h2.08008v2.44336h-2.08008V24.77246h-3.58789V13.22852Z"/>
      <path class="cls-2" d="M122.37415,10.78516v1.87109h.05224a5.09842,5.09842,0,0,1,1.32569-1.625A2.99,2.99,0,0,1,125.65,10.4209c.104,0,.21241.0039.3252.01269.1123.00879.22119.02246.3252.03907V13.9043q-.28638-.0249-.55909-.03907c-.18213-.00781-.36865-.01269-.55908-.01269a3.51258,3.51258,0,0,0-.936.12988,2.50178,2.50178,0,0,0-.85791.42969,2.14112,2.14112,0,0,0-.624.7793,2.68874,2.68874,0,0,0-.23388,1.18359v8.39746H118.942V10.78516Z"/>
      <path class="cls-2" d="M127.57385,14.73633a4.73582,4.73582,0,0,1,.39014-2.041,3.55968,3.55968,0,0,1,1.05273-1.32519,4.17457,4.17457,0,0,1,1.56006-.72852,8.014,8.014,0,0,1,1.91114-.2207,8.86934,8.86934,0,0,1,2.60009.31152,3.546,3.546,0,0,1,1.53369.88477,2.9594,2.9594,0,0,1,.74122,1.36426,7.247,7.247,0,0,1,.19482,1.72949v7.35742a9.84905,9.84905,0,0,0,.09131,1.53418,5.31536,5.31536,0,0,0,.35107,1.16992H134.568a2.93554,2.93554,0,0,1-.273-.71484q-.09154-.37647-.16894-.74121h-.05225a3.04244,3.04244,0,0,1-1.44287,1.417,5.81952,5.81952,0,0,1-2.11914.32519,3.51648,3.51648,0,0,1-1.58594-.32519,2.68287,2.68287,0,0,1-1.04-.89649,4.023,4.023,0,0,1-.57177-1.28711,5.71577,5.71577,0,0,1-.18213-1.417,6.12625,6.12625,0,0,1,.208-1.70312,3.2811,3.2811,0,0,1,.6372-1.22168,3.47819,3.47819,0,0,1,1.0918-.84571,8.70856,8.70856,0,0,1,1.59912-.59765l2.02783-.5459a2.16574,2.16574,0,0,0,1.11817-.57227,1.59458,1.59458,0,0,0,.312-1.06543,1.92544,1.92544,0,0,0-.377-1.26171,1.59144,1.59144,0,0,0-1.28711-.45508,1.53919,1.53919,0,0,0-1.24805.49414,1.9935,1.9935,0,0,0-.416,1.32617v.38965h-3.22412Zm5.772,3.49707a4.96,4.96,0,0,1-.75391.24707,2.7579,2.7579,0,0,0-1.56006.78027,2.2032,2.2032,0,0,0-.46777,1.48242,2.84134,2.84134,0,0,0,.312,1.37793,1.09025,1.09025,0,0,0,1.04.57129,2.6505,2.6505,0,0,0,.7539-.11621,2.10126,2.10126,0,0,0,.71485-.37793,1.98734,1.98734,0,0,0,.5332-.67578,2.18788,2.18788,0,0,0,.208-.9873V17.77832A3.19518,3.19518,0,0,1,133.34583,18.2334Z"/>
      <path class="cls-2" d="M143.53772,10.78516v1.42968H143.59a4.10922,4.10922,0,0,1,1.521-1.37793,4.5168,4.5168,0,0,1,2.01465-.416,3.64673,3.64673,0,0,1,2.09326.57226,2.7746,2.7746,0,0,1,1.13086,1.66309h.05225a3.18277,3.18277,0,0,1,1.33886-1.67676,4.16547,4.16547,0,0,1,2.19678-.55859A3.14373,3.14373,0,0,1,156.57678,11.5a4.94961,4.94961,0,0,1,.84522,3.10645v10.166h-3.58838V14.99707a2.36482,2.36482,0,0,0-.32471-1.35254,1.222,1.222,0,0,0-1.0791-.46777,1.73237,1.73237,0,0,0-1.36523.57226,2.6995,2.6995,0,0,0-.50684,1.81934v9.2041h-3.58789V14.99707a2.36075,2.36075,0,0,0-.3252-1.35254,1.22082,1.22082,0,0,0-1.0791-.46777,1.73066,1.73066,0,0,0-1.36474.57226,2.69956,2.69956,0,0,0-.50684,1.81934v9.2041h-3.58838V10.78516Z"/>
      <path class="cls-2" d="M162.88147,19.44238a7.807,7.807,0,0,0,.09082,1.209,3.94,3.94,0,0,0,.29883,1.04,1.96822,1.96822,0,0,0,.54638.72851,1.28244,1.28244,0,0,0,.832.27246,1.4567,1.4567,0,0,0,1.32568-.64941,4.79587,4.79587,0,0,0,.57227-1.97656h3.22363a5.60947,5.60947,0,0,1-1.29981,3.71875,4.95722,4.95722,0,0,1-3.77,1.27343,5.97374,5.97374,0,0,1-3.042-.64941,4.0343,4.0343,0,0,1-1.61181-1.7168,6.75194,6.75194,0,0,1-.63721-2.3916q-.11719-1.32569-.11719-2.65234a18.24111,18.24111,0,0,1,.19531-2.7041,6.52377,6.52377,0,0,1,.77979-2.31348,4.24318,4.24318,0,0,1,1.67724-1.61231,6.07012,6.07012,0,0,1,2.91211-.59765,5.66083,5.66083,0,0,1,2.56055.50683,3.86208,3.86208,0,0,1,1.57324,1.42969,5.99963,5.99963,0,0,1,.77979,2.23633,18.78352,18.78352,0,0,1,.208,2.9248v.80567h-7.09766Zm3.562-4.667a3.64427,3.64427,0,0,0-.27295-1.04,1.45189,1.45189,0,0,0-.54638-.64941,1.65554,1.65554,0,0,0-.897-.22168,1.52757,1.52757,0,0,0-.897.24707,1.7811,1.7811,0,0,0-.55908.65039,3.21375,3.21375,0,0,0-.29883.89746,5.40208,5.40208,0,0,0-.09082.9873v.5459h3.666Q166.52112,15.38671,166.44348,14.77539Z"/>
    </g>
  </g>
</svg>
