<svg xmlns="http://www.w3.org/2000/svg" width="198" height="81" viewBox="0 0 198 81">
  <defs>
    <style>
      .cls-1 {
        fill: #1d1d1b;
      }

      .cls-2 {
        fill: #999b35;
      }
    </style>
  </defs>
  <g id="Слой_2" data-name="Слой 2">
    <path class="cls-1" d="M196-53V-1H2V-53H196m2-2H0V1H198V-55Z"/>
    <g>
      <rect class="cls-2" x="1.00012" width="196" height="80"/>
      <path class="cls-1" d="M196,1V79H2V1H196m2-2H0V81H198V-1Z"/>
    </g>
    <g>
      <path class="cls-1" d="M44.21838,15.209v3.06836H37.5885v4.36719h6.24024v3.06836H37.5885v8.06055H33.84436V15.209Z"/>
      <path class="cls-1" d="M48.69055,19.78516v1.87109h.05225a5.0984,5.0984,0,0,1,1.32568-1.625,2.98937,2.98937,0,0,1,1.898-.60937q.156,0,.3252.01171c.1123.00977.22119.02149.32519.03907V22.9043c-.19092-.01563-.37695-.0293-.55908-.03907q-.2732-.01171-.55908-.01171a3.51117,3.51117,0,0,0-.936.1289,2.51928,2.51928,0,0,0-.85791.42969,2.1412,2.1412,0,0,0-.624.7793A2.69167,2.69167,0,0,0,48.8468,25.375v8.39844H45.25842V19.78516Z"/>
      <path class="cls-1" d="M53.89026,23.73633a4.73567,4.73567,0,0,1,.39014-2.041,3.57091,3.57091,0,0,1,1.05273-1.32617,4.17148,4.17148,0,0,1,1.56006-.72656,7.91486,7.91486,0,0,1,1.91113-.2207,8.9069,8.9069,0,0,1,2.6001.31054,3.56542,3.56542,0,0,1,1.53369.88477,2.95773,2.95773,0,0,1,.74121,1.36523,7.24461,7.24461,0,0,1,.19483,1.72852v7.35742a9.86469,9.86469,0,0,0,.0913,1.53516,5.33175,5.33175,0,0,0,.35108,1.16992H60.8844a2.96629,2.96629,0,0,1-.273-.71485c-.061-.252-.11719-.498-.16895-.74218h-.05224a3.0496,3.0496,0,0,1-1.44287,1.418,5.82168,5.82168,0,0,1-2.11914.32421,3.51687,3.51687,0,0,1-1.58594-.32421,2.69089,2.69089,0,0,1-1.04-.89649,4.04231,4.04231,0,0,1-.57178-1.28711,5.71809,5.71809,0,0,1-.18213-1.418,6.12625,6.12625,0,0,1,.208-1.70312,3.30069,3.30069,0,0,1,.63721-1.22266,3.4589,3.4589,0,0,1,1.0918-.84375,8.568,8.568,0,0,1,1.59912-.59766l2.02783-.54687a2.15849,2.15849,0,0,0,1.11816-.57227,1.59561,1.59561,0,0,0,.312-1.0664,1.91792,1.91792,0,0,0-.377-1.25977,1.59144,1.59144,0,0,0-1.28711-.45508,1.53615,1.53615,0,0,0-1.248.49415,1.98989,1.98989,0,0,0-.416,1.32617v.38867H53.89026Zm5.772,3.49805a4.84016,4.84016,0,0,1-.7539.24609,2.75231,2.75231,0,0,0-1.56006.78125,2.19771,2.19771,0,0,0-.46778,1.48047,2.83746,2.83746,0,0,0,.312,1.3789,1.091,1.091,0,0,0,1.04.57227,2.61876,2.61876,0,0,0,.75391-.11719,2.09863,2.09863,0,0,0,.71484-.377,1.99673,1.99673,0,0,0,.53321-.67578,2.19511,2.19511,0,0,0,.208-.98828V26.7793A3.22677,3.22677,0,0,1,59.66223,27.23438Z"/>
      <path class="cls-1" d="M69.85413,19.78516v1.42968h.05224a4.1144,4.1144,0,0,1,1.521-1.37695,4.51677,4.51677,0,0,1,2.01465-.416,3.6535,3.6535,0,0,1,2.09326.57031,2.78548,2.78548,0,0,1,1.13086,1.66406h.05224a3.1805,3.1805,0,0,1,1.33887-1.67578,4.15642,4.15642,0,0,1,2.19678-.55859A3.146,3.146,0,0,1,82.89319,20.5a4.95269,4.95269,0,0,1,.84521,3.10742v10.166H80.15V23.99609a2.36562,2.36562,0,0,0-.3247-1.35156,1.21911,1.21911,0,0,0-1.0791-.4668,1.73416,1.73416,0,0,0-1.36524.57032,2.70592,2.70592,0,0,0-.50683,1.82031v9.20508h-3.5879V23.99609a2.36154,2.36154,0,0,0-.32519-1.35156,1.218,1.218,0,0,0-1.0791-.4668,1.73242,1.73242,0,0,0-1.36475.57032,2.70592,2.70592,0,0,0-.50683,1.82031v9.20508H66.422V19.78516Z"/>
      <path class="cls-1" d="M89.19836,28.44336a7.81722,7.81722,0,0,0,.09082,1.209,3.95422,3.95422,0,0,0,.29883,1.03907,1.95233,1.95233,0,0,0,.54639.72851,1.283,1.283,0,0,0,.832.27344,1.45736,1.45736,0,0,0,1.32568-.65039,4.79557,4.79557,0,0,0,.57227-1.97656H96.088a5.6075,5.6075,0,0,1-1.2998,3.71875,4.95346,4.95346,0,0,1-3.77,1.27343,5.96289,5.96289,0,0,1-3.042-.65039,4.01891,4.01891,0,0,1-1.61182-1.71484,6.7575,6.7575,0,0,1-.63721-2.39258Q85.61,27.97364,85.61,26.64844a18.228,18.228,0,0,1,.19531-2.70313,6.52212,6.52212,0,0,1,.77978-2.31445,4.23425,4.23425,0,0,1,1.67725-1.61133,6.07,6.07,0,0,1,2.91211-.59765,5.6615,5.6615,0,0,1,2.56055.50585,3.86214,3.86214,0,0,1,1.57324,1.42969,5.99347,5.99347,0,0,1,.77978,2.23633,18.79652,18.79652,0,0,1,.208,2.92578v.80469H89.19836Zm3.562-4.668a3.63775,3.63775,0,0,0-.27295-1.03906,1.45459,1.45459,0,0,0-.54639-.65039,1.66409,1.66409,0,0,0-.897-.22071,1.52737,1.52737,0,0,0-.897.2461,1.79714,1.79714,0,0,0-.55908.65039,3.22856,3.22856,0,0,0-.29883.89648,5.42942,5.42942,0,0,0-.09082.98828v.54688h3.666Q92.838,24.3877,92.76038,23.77539Z"/>
      <path class="cls-1" d="M111.07727,23.81445a3.50662,3.50662,0,0,0-.23437-.89648,1.61754,1.61754,0,0,0-.481-.65039,1.30623,1.30623,0,0,0-.832-.2461A1.63537,1.63537,0,0,0,107.84,23.20312a6.09356,6.09356,0,0,0-.28614,1.48243q-.07762.89648-.07763,2.11914,0,1.30079.07763,2.22265a6.35653,6.35653,0,0,0,.28614,1.52149,1.73964,1.73964,0,0,0,.585.87109,1.62425,1.62425,0,0,0,.97509.27344,1.3972,1.3972,0,0,0,1.32618-.78125,5.59135,5.59135,0,0,0,.416-2.49609h3.43164a6.28854,6.28854,0,0,1-1.23486,4.19921,5.12651,5.12651,0,0,1-4.09473,1.44336,7.63472,7.63472,0,0,1-2.353-.32421,3.42061,3.42061,0,0,1-1.66407-1.16993,5.83054,5.83054,0,0,1-1.001-2.26172,15.477,15.477,0,0,1-.33838-3.52343,12.93634,12.93634,0,0,1,.416-3.57618,5.81627,5.81627,0,0,1,1.17041-2.26171,4.04216,4.04216,0,0,1,1.794-1.18164,7.33157,7.33157,0,0,1,2.28808-.33789,4.70085,4.70085,0,0,1,3.75684,1.45507,5.83069,5.83069,0,0,1,1.26074,3.95117h-3.43164A7.845,7.845,0,0,0,111.07727,23.81445Z"/>
      <path class="cls-1" d="M120.03381,15.209v6.00586h.05176a3.63084,3.63084,0,0,1,3.40625-1.793,3.5364,3.5364,0,0,1,2.63867.93554,4.21156,4.21156,0,0,1,.92334,3.041v10.375h-3.58838V24.127a2.39928,2.39928,0,0,0-.36377-1.52148,1.45715,1.45715,0,0,0-1.16992-.42774q-1.89843,0-1.89795,2.3125v9.28321h-3.58838V15.209Z"/>
      <path class="cls-1" d="M132.51379,28.44336a7.81722,7.81722,0,0,0,.09082,1.209,3.95422,3.95422,0,0,0,.29883,1.03907,1.95233,1.95233,0,0,0,.54639.72851,1.283,1.283,0,0,0,.832.27344,1.45736,1.45736,0,0,0,1.32568-.65039,4.79557,4.79557,0,0,0,.57227-1.97656h3.22363a5.6075,5.6075,0,0,1-1.2998,3.71875,4.95346,4.95346,0,0,1-3.77,1.27343,5.96289,5.96289,0,0,1-3.042-.65039,4.01891,4.01891,0,0,1-1.61182-1.71484,6.7575,6.7575,0,0,1-.63721-2.39258q-.11718-1.32714-.11718-2.65234a18.22666,18.22666,0,0,1,.19531-2.70313,6.52212,6.52212,0,0,1,.77978-2.31445,4.23425,4.23425,0,0,1,1.67725-1.61133,6.07,6.07,0,0,1,2.91211-.59765,5.6615,5.6615,0,0,1,2.56055.50585,3.86214,3.86214,0,0,1,1.57324,1.42969,5.99347,5.99347,0,0,1,.77978,2.23633,18.79652,18.79652,0,0,1,.208,2.92578v.80469h-7.09766Zm3.562-4.668a3.63775,3.63775,0,0,0-.27295-1.03906,1.45465,1.45465,0,0,0-.54639-.65039,1.66412,1.66412,0,0,0-.897-.22071,1.52737,1.52737,0,0,0-.897.2461,1.79714,1.79714,0,0,0-.55908.65039,3.22856,3.22856,0,0,0-.29883.89648,5.42942,5.42942,0,0,0-.09082.98828v.54688h3.666Q136.15344,24.3877,136.07581,23.77539Z"/>
      <path class="cls-1" d="M148.153,23.81445a3.50621,3.50621,0,0,0-.23437-.89648,1.61745,1.61745,0,0,0-.481-.65039,1.30623,1.30623,0,0,0-.832-.2461,1.63537,1.63537,0,0,0-1.68994,1.18164,6.0936,6.0936,0,0,0-.28613,1.48243q-.07764.89648-.07764,2.11914,0,1.30079.07764,2.22265a6.35658,6.35658,0,0,0,.28613,1.52149,1.7397,1.7397,0,0,0,.585.87109,1.62428,1.62428,0,0,0,.9751.27344,1.39718,1.39718,0,0,0,1.32617-.78125,5.59119,5.59119,0,0,0,.416-2.49609h3.43164a6.28849,6.28849,0,0,1-1.23487,4.19921A5.12649,5.12649,0,0,1,146.32,34.05859a7.63475,7.63475,0,0,1-2.353-.32421,3.42058,3.42058,0,0,1-1.66406-1.16993,5.83055,5.83055,0,0,1-1.001-2.26172,15.477,15.477,0,0,1-.33838-3.52343,12.93592,12.93592,0,0,1,.416-3.57618,5.81614,5.81614,0,0,1,1.17041-2.26171,4.04213,4.04213,0,0,1,1.79394-1.18164,7.33163,7.33163,0,0,1,2.28809-.33789,4.70084,4.70084,0,0,1,3.75683,1.45507,5.83064,5.83064,0,0,1,1.26075,3.95117H148.2179A7.845,7.845,0,0,0,148.153,23.81445Z"/>
      <path class="cls-1" d="M157.23987,25.01172h.05176l3.61425-5.22656H164.858l-4.03027,5.51172,4.62793,8.47656H161.504l-2.99024-5.7461-1.27392,1.66407v4.082H153.652V15.209h3.58789Z"/>
      <path class="cls-1" d="M53.4093,55.66406a2.17428,2.17428,0,0,0,.48145,1.47071,1.73153,1.73153,0,0,0,1.39062.55859,1.99255,1.99255,0,0,0,1.32617-.416,1.54048,1.54048,0,0,0,.49414-1.248,1.3122,1.3122,0,0,0-.39013-1.02735,3.02165,3.02165,0,0,0-.91016-.55859l-2.522-.91016a4.79776,4.79776,0,0,1-2.23584-1.46875,3.78785,3.78785,0,0,1-.75391-2.43164,4.60747,4.60747,0,0,1,.28565-1.625,3.409,3.409,0,0,1,.91015-1.33789,4.49354,4.49354,0,0,1,1.59912-.91015,7.18613,7.18613,0,0,1,2.353-.33789,5.32376,5.32376,0,0,1,3.61377,1.03906,3.72564,3.72564,0,0,1,1.16992,2.9375v.57226H56.99768a2.859,2.859,0,0,0-.35107-1.59961,1.39631,1.39631,0,0,0-1.23487-.50586,1.92339,1.92339,0,0,0-1.1831.377,1.32081,1.32081,0,0,0-.50733,1.13086,1.47775,1.47775,0,0,0,.3252.93554,2.50289,2.50289,0,0,0,1.23486.70313l2.15821.72656a4.89935,4.89935,0,0,1,2.39209,1.4961,4.04877,4.04877,0,0,1,.70166,2.50781,4.46533,4.46533,0,0,1-.38965,1.9375,3.79248,3.79248,0,0,1-1.0791,1.36523,4.21456,4.21456,0,0,1-1.63819.7793,8.72993,8.72993,0,0,1-2.09277.23437,9.35193,9.35193,0,0,1-2.50928-.28515,3.65242,3.65242,0,0,1-1.58594-.85938,3.0909,3.0909,0,0,1-.81884-1.39062,6.64641,6.64641,0,0,1-.23389-1.832v-.49414H53.4093Z"/>
      <path class="cls-1" d="M65.39514,54.44336a7.81722,7.81722,0,0,0,.09082,1.209,3.95422,3.95422,0,0,0,.29883,1.03907,1.95233,1.95233,0,0,0,.54639.72851,1.283,1.283,0,0,0,.832.27344,1.45737,1.45737,0,0,0,1.32568-.65039,4.79572,4.79572,0,0,0,.57227-1.97656h3.22363a5.60756,5.60756,0,0,1-1.2998,3.71875,4.95346,4.95346,0,0,1-3.77,1.27343,5.963,5.963,0,0,1-3.042-.65039,4.01894,4.01894,0,0,1-1.61181-1.71484,6.7575,6.7575,0,0,1-.63721-2.39258q-.11718-1.32714-.11719-2.65234a18.22664,18.22664,0,0,1,.19532-2.70313,6.52212,6.52212,0,0,1,.77978-2.31445,4.23425,4.23425,0,0,1,1.67725-1.61133,6.07,6.07,0,0,1,2.91211-.59765,5.66143,5.66143,0,0,1,2.56054.50585A3.86208,3.86208,0,0,1,71.505,47.35742a5.99348,5.99348,0,0,1,.77979,2.23633,18.79652,18.79652,0,0,1,.208,2.92578v.80469H65.39514Zm3.562-4.668a3.63709,3.63709,0,0,0-.27295-1.03906,1.45463,1.45463,0,0,0-.54638-.65039,1.66413,1.66413,0,0,0-.897-.22071,1.52735,1.52735,0,0,0-.897.2461,1.79714,1.79714,0,0,0-.55908.65039,3.22856,3.22856,0,0,0-.29883.89648,5.42942,5.42942,0,0,0-.09082.98828v.54688h3.666Q69.03479,50.3877,68.95715,49.77539Z"/>
      <path class="cls-1" d="M81.33313,58.47266A3.317,3.317,0,0,1,78.317,60.05859a3.53981,3.53981,0,0,1-3.25-1.68945q-1.04-1.69043-1.04-5.58984t1.04-5.62891a3.52046,3.52046,0,0,1,3.25-1.72851,3.617,3.617,0,0,1,1.833.42773,3.95,3.95,0,0,1,1.33887,1.418h.05225V45.78516h3.43213V64.27148H81.38489V58.47266ZM81.0343,49.334a1.4814,1.4814,0,0,0-1.54736-1.15625,1.46518,1.46518,0,0,0-1.521,1.15625,12.67465,12.67465,0,0,0-.35107,3.44532,12.67457,12.67457,0,0,0,.35107,3.44531,1.46518,1.46518,0,0,0,1.521,1.15625,1.4814,1.4814,0,0,0,1.54736-1.15625,12.67783,12.67783,0,0,0,.35059-3.44531A12.67792,12.67792,0,0,0,81.0343,49.334Z"/>
      <path class="cls-1" d="M94.48889,58.13477A3.39852,3.39852,0,0,1,93.007,59.61719a4.69923,4.69923,0,0,1-2.08008.4414,3.63213,3.63213,0,0,1-2.63867-.89648,4.0694,4.0694,0,0,1-.92334-3.00391v-10.373h3.58838v9.64648a2.39275,2.39275,0,0,0,.36377,1.51953,1.45075,1.45075,0,0,0,1.16992.42969q1.89771,0,1.89795-2.31445V45.78516h3.58838V59.77344H94.54114V58.13477Z"/>
      <path class="cls-1" d="M103.43323,54.44336a7.816,7.816,0,0,0,.09082,1.209,3.95346,3.95346,0,0,0,.29883,1.03907,1.95241,1.95241,0,0,0,.54638.72851,1.283,1.283,0,0,0,.832.27344A1.45739,1.45739,0,0,0,106.527,57.043a4.79574,4.79574,0,0,0,.57226-1.97656h3.22364a5.60751,5.60751,0,0,1-1.29981,3.71875,4.95344,4.95344,0,0,1-3.77,1.27343,5.96294,5.96294,0,0,1-3.042-.65039,4.01891,4.01891,0,0,1-1.61182-1.71484,6.75749,6.75749,0,0,1-.6372-2.39258q-.1172-1.32714-.11719-2.65234a18.228,18.228,0,0,1,.19531-2.70313,6.52213,6.52213,0,0,1,.77979-2.31445,4.23422,4.23422,0,0,1,1.67724-1.61133,6.07,6.07,0,0,1,2.91211-.59765,5.66147,5.66147,0,0,1,2.56055.50585,3.86214,3.86214,0,0,1,1.57324,1.42969,5.99365,5.99365,0,0,1,.77979,2.23633,18.79658,18.79658,0,0,1,.208,2.92578v.80469h-7.09765Zm3.562-4.668a3.63775,3.63775,0,0,0-.27295-1.03906,1.45459,1.45459,0,0,0-.54639-.65039,1.66407,1.66407,0,0,0-.897-.22071,1.52731,1.52731,0,0,0-.897.2461,1.797,1.797,0,0,0-.55908.65039,3.22791,3.22791,0,0,0-.29883.89648,5.42853,5.42853,0,0,0-.09082.98828v.54688h3.666Q107.07289,50.3877,106.99524,49.77539Z"/>
      <path class="cls-1" d="M115.83508,45.78516v1.63867h.05225a3.63537,3.63537,0,0,1,1.48193-1.52149,4.38652,4.38652,0,0,1,2.08008-.48046,3.5364,3.5364,0,0,1,2.63867.93554,4.21156,4.21156,0,0,1,.92334,3.041v10.375H119.423V50.127a2.39928,2.39928,0,0,0-.36377-1.52148,1.45715,1.45715,0,0,0-1.16992-.42774q-1.89843,0-1.89795,2.3125v9.28321H112.403V45.78516Z"/>
      <path class="cls-1" d="M132.07239,49.81445a3.50621,3.50621,0,0,0-.23438-.89648,1.61752,1.61752,0,0,0-.481-.65039,1.30626,1.30626,0,0,0-.832-.2461,1.63539,1.63539,0,0,0-1.68994,1.18164,6.09408,6.09408,0,0,0-.28613,1.48243q-.07764.89648-.07764,2.11914,0,1.30078.07764,2.22265a6.35707,6.35707,0,0,0,.28613,1.52149,1.7397,1.7397,0,0,0,.585.87109,1.6243,1.6243,0,0,0,.9751.27344,1.39717,1.39717,0,0,0,1.32617-.78125,5.59119,5.59119,0,0,0,.416-2.49609H135.569a6.28854,6.28854,0,0,1-1.23486,4.19921,5.12653,5.12653,0,0,1-4.09473,1.44336,7.63475,7.63475,0,0,1-2.353-.32421,3.42058,3.42058,0,0,1-1.66406-1.16993,5.83069,5.83069,0,0,1-1.001-2.26172,15.47761,15.47761,0,0,1-.33838-3.52343,12.9363,12.9363,0,0,1,.416-3.57618,5.81614,5.81614,0,0,1,1.17041-2.26171,4.04216,4.04216,0,0,1,1.79395-1.18164,7.33157,7.33157,0,0,1,2.28808-.33789,4.70085,4.70085,0,0,1,3.75684,1.45507,5.83069,5.83069,0,0,1,1.26074,3.95117h-3.43164A7.845,7.845,0,0,0,132.07239,49.81445Z"/>
      <path class="cls-1" d="M140.50891,54.44336a7.81722,7.81722,0,0,0,.09082,1.209,3.95422,3.95422,0,0,0,.29883,1.03907,1.95233,1.95233,0,0,0,.54639.72851,1.283,1.283,0,0,0,.832.27344,1.45737,1.45737,0,0,0,1.32568-.65039,4.79587,4.79587,0,0,0,.57227-1.97656h3.22363a5.60751,5.60751,0,0,1-1.29981,3.71875,4.95342,4.95342,0,0,1-3.77,1.27343,5.963,5.963,0,0,1-3.042-.65039,4.01894,4.01894,0,0,1-1.61181-1.71484,6.75729,6.75729,0,0,1-.63721-2.39258q-.1172-1.32714-.11719-2.65234a18.228,18.228,0,0,1,.19531-2.70313,6.52232,6.52232,0,0,1,.77979-2.31445,4.23425,4.23425,0,0,1,1.67725-1.61133,6.07,6.07,0,0,1,2.91211-.59765,5.66143,5.66143,0,0,1,2.56054.50585,3.86208,3.86208,0,0,1,1.57324,1.42969,5.99348,5.99348,0,0,1,.77979,2.23633,18.79652,18.79652,0,0,1,.208,2.92578v.80469h-7.09766Zm3.562-4.668a3.63709,3.63709,0,0,0-.273-1.03906,1.45463,1.45463,0,0,0-.54638-.65039,1.66413,1.66413,0,0,0-.897-.22071,1.52733,1.52733,0,0,0-.897.2461,1.797,1.797,0,0,0-.55908.65039,3.22856,3.22856,0,0,0-.29883.89648,5.42942,5.42942,0,0,0-.09082.98828v.54688h3.666Q144.14856,50.3877,144.07092,49.77539Z"/>
    </g>
  </g>
</svg>
