<svg xmlns="http://www.w3.org/2000/svg" width="197.99997" height="162" viewBox="0 0 197.99997 162">
  <defs>
    <style>
      .cls-1 {
        fill: #1d1d1b;
      }

      .cls-2 {
        fill: #dcb3d4;
      }
    </style>
  </defs>
  <g id="Слой_2" data-name="Слой 2">
    <path class="cls-1" d="M196-35V-1H2V-35H196m2-2H0V1H198V-37Z"/>
    <g>
      <rect class="cls-2" x="1.00012" width="196" height="162"/>
      <path class="cls-1" d="M196,1V161H2V1H196m2-2H0V163H198V-1Z"/>
    </g>
    <path class="cls-1" d="M196,163v80H2V163H196m2-2H0v84H198V161Z"/>
    <g>
      <path class="cls-1" d="M40.74768,69.209v7.09766h4.36816V69.209H48.86V87.77246H45.11584V79.53027H40.74768v8.24219H37.00354V69.209Z"/>
      <path class="cls-1" d="M54.424,82.44238a7.80821,7.80821,0,0,0,.09082,1.209,3.94,3.94,0,0,0,.29883,1.04,1.96813,1.96813,0,0,0,.54639.72851,1.28239,1.28239,0,0,0,.832.27246A1.4567,1.4567,0,0,0,57.5177,85.043,4.79587,4.79587,0,0,0,58.09,83.06641H61.3136a5.60947,5.60947,0,0,1-1.29981,3.71875,4.95722,4.95722,0,0,1-3.77,1.27343,5.97374,5.97374,0,0,1-3.042-.64941A4.0343,4.0343,0,0,1,51.59,85.69238a6.75194,6.75194,0,0,1-.63721-2.3916q-.11719-1.32569-.11719-2.65234a18.24111,18.24111,0,0,1,.19531-2.7041,6.52377,6.52377,0,0,1,.77979-2.31348,4.24315,4.24315,0,0,1,1.67725-1.61231A6.07005,6.07005,0,0,1,56.4,73.4209a5.6608,5.6608,0,0,1,2.56055.50683,3.86208,3.86208,0,0,1,1.57324,1.42969,5.99963,5.99963,0,0,1,.77979,2.23633,18.78352,18.78352,0,0,1,.208,2.9248v.80567H54.424Zm3.562-4.667a3.64427,3.64427,0,0,0-.273-1.04,1.45189,1.45189,0,0,0-.54638-.64941,1.65554,1.65554,0,0,0-.897-.22168,1.52757,1.52757,0,0,0-.897.24707,1.7811,1.7811,0,0,0-.55908.65039,3.21375,3.21375,0,0,0-.29883.89746,5.403,5.403,0,0,0-.09082.9873v.5459H58.09Q58.0636,78.38672,57.986,77.77539Z"/>
      <path class="cls-1" d="M63.3678,77.73633a4.73583,4.73583,0,0,1,.39013-2.041,3.55971,3.55971,0,0,1,1.05274-1.32519,4.17442,4.17442,0,0,1,1.56006-.72852,8.01389,8.01389,0,0,1,1.91113-.2207,8.86937,8.86937,0,0,1,2.6001.31152,3.546,3.546,0,0,1,1.53369.88477,2.95929,2.95929,0,0,1,.74121,1.36426,7.247,7.247,0,0,1,.19482,1.72949v7.35742a9.8503,9.8503,0,0,0,.09131,1.53418,5.316,5.316,0,0,0,.35108,1.16992H70.36194a2.93554,2.93554,0,0,1-.273-.71484q-.09156-.37647-.16895-.74121H69.8678a3.04248,3.04248,0,0,1-1.44287,1.417,5.81952,5.81952,0,0,1-2.11914.32519,3.51642,3.51642,0,0,1-1.58594-.32519,2.68273,2.68273,0,0,1-1.04-.89649A4.02306,4.02306,0,0,1,63.108,85.5498a5.71624,5.71624,0,0,1-.18213-1.417,6.12625,6.12625,0,0,1,.208-1.70312,3.28112,3.28112,0,0,1,.63721-1.22168,3.478,3.478,0,0,1,1.0918-.84571,8.70828,8.70828,0,0,1,1.59912-.59765l2.02783-.5459a2.1657,2.1657,0,0,0,1.11816-.57227,1.59453,1.59453,0,0,0,.312-1.06543,1.92538,1.92538,0,0,0-.37695-1.26171,1.59141,1.59141,0,0,0-1.28711-.45508,1.53922,1.53922,0,0,0-1.248.49414,1.99349,1.99349,0,0,0-.416,1.32617v.38965H63.3678Zm5.772,3.49707a4.95963,4.95963,0,0,1-.75391.24707,2.7579,2.7579,0,0,0-1.56.78027,2.20315,2.20315,0,0,0-.46778,1.48242,2.84146,2.84146,0,0,0,.312,1.37793,1.09025,1.09025,0,0,0,1.04.57129,2.65057,2.65057,0,0,0,.75391-.11621,2.10121,2.10121,0,0,0,.71484-.37793,1.98724,1.98724,0,0,0,.53321-.67578,2.18788,2.18788,0,0,0,.208-.9873V80.77832A3.195,3.195,0,0,1,69.13977,81.2334Z"/>
      <path class="cls-1" d="M83.02307,86.291A3.59641,3.59641,0,0,1,81.6842,87.669a3.90533,3.90533,0,0,1-1.833.38964,3.53981,3.53981,0,0,1-3.25-1.68945q-1.04-1.69043-1.04-5.59082,0-3.89941,1.04-5.62891a3.52046,3.52046,0,0,1,3.25-1.72851,3.38316,3.38316,0,0,1,1.729.416,4.07629,4.07629,0,0,1,1.28711,1.248h.05176V69.209h3.58838V87.77246H83.07532V86.291Zm-3.523-2.06739a1.466,1.466,0,0,0,1.521,1.15723,1.48218,1.48218,0,0,0,1.54736-1.15723,12.673,12.673,0,0,0,.35059-3.44531,12.67468,12.67468,0,0,0-.35059-3.44434,1.48219,1.48219,0,0,0-1.54736-1.15722,1.466,1.466,0,0,0-1.521,1.15722,12.67142,12.67142,0,0,0-.35107,3.44434A12.66968,12.66968,0,0,0,79.50012,84.22363Z"/>
      <path class="cls-1" d="M91.96741,82.44238a7.807,7.807,0,0,0,.09082,1.209,3.93927,3.93927,0,0,0,.29883,1.04,1.96822,1.96822,0,0,0,.54638.72851,1.28241,1.28241,0,0,0,.832.27246,1.45672,1.45672,0,0,0,1.32569-.64941,4.79574,4.79574,0,0,0,.57226-1.97656h3.22364a5.60947,5.60947,0,0,1-1.29981,3.71875,4.95722,4.95722,0,0,1-3.77,1.27343,5.97374,5.97374,0,0,1-3.042-.64941,4.03433,4.03433,0,0,1-1.61182-1.7168,6.75194,6.75194,0,0,1-.6372-2.3916Q88.379,81.9751,88.379,80.64844a18.24111,18.24111,0,0,1,.19531-2.7041,6.52357,6.52357,0,0,1,.77979-2.31348,4.24305,4.24305,0,0,1,1.67724-1.61231,6.07009,6.07009,0,0,1,2.91211-.59765,5.66083,5.66083,0,0,1,2.56055.50683,3.86214,3.86214,0,0,1,1.57324,1.42969,5.99981,5.99981,0,0,1,.77979,2.23633,18.78359,18.78359,0,0,1,.208,2.9248v.80567H91.96741Zm3.562-4.667a3.64492,3.64492,0,0,0-.273-1.04,1.45184,1.45184,0,0,0-.54639-.64941,1.65548,1.65548,0,0,0-.897-.22168,1.52755,1.52755,0,0,0-.897.24707,1.7811,1.7811,0,0,0-.55908.65039,3.2131,3.2131,0,0,0-.29883.89746,5.40208,5.40208,0,0,0-.09082.9873v.5459h3.666Q95.60705,78.38672,95.52942,77.77539Z"/>
      <path class="cls-1" d="M104.36926,73.78516v1.87109h.05225a5.0984,5.0984,0,0,1,1.32568-1.625,2.99,2.99,0,0,1,1.89795-.61035c.104,0,.2124.0039.3252.01269.1123.00879.22119.02246.32519.03907V76.9043q-.28638-.0249-.55908-.03907c-.18213-.00781-.36865-.01269-.55908-.01269a3.51265,3.51265,0,0,0-.936.12988,2.502,2.502,0,0,0-.85791.42969,2.1412,2.1412,0,0,0-.624.7793,2.68874,2.68874,0,0,0-.23389,1.18359v8.39746h-3.58838V73.78516Z"/>
      <path class="cls-1" d="M121.58069,69.209,124.233,82.3125h.05176L126.963,69.209h5.5376V87.77246H129.069V72.95312h-.05225L125.715,87.77246h-2.91211l-3.30225-14.81934h-.05176V87.77246h-3.43213V69.209Z"/>
      <path class="cls-1" d="M143.42053,69.209l4.91406,18.56348h-3.8999l-.85791-3.92578h-4.94043l-.85791,3.92578h-3.8999L138.7926,69.209Zm-.49414,11.56934-1.79394-8.3457h-.05176l-1.79395,8.3457Z"/>
      <path class="cls-1" d="M157.08362,72.52344a1.79954,1.79954,0,0,0-1.75488-.92285,1.75456,1.75456,0,0,0-1.15723.377,2.50254,2.50254,0,0,0-.71484,1.22168,10.433,10.433,0,0,0-.36426,2.21094q-.104,1.36377-.104,3.34082a32.4737,32.4737,0,0,0,.14307,3.40527,7.56758,7.56758,0,0,0,.44189,2.01563,1.84533,1.84533,0,0,0,.7544.96191,2.165,2.165,0,0,0,1.05273.24707,2.506,2.506,0,0,0,.92334-.16895,1.56413,1.56413,0,0,0,.74073-.67578,4.41627,4.41627,0,0,0,.49414-1.43066,13.0634,13.0634,0,0,0,.18213-2.43067h3.74365a16.745,16.745,0,0,1-.23389,2.86036,6.46319,6.46319,0,0,1-.87109,2.36523,4.32069,4.32069,0,0,1-1.79395,1.58594,6.78645,6.78645,0,0,1-3.00293.57226,7.07084,7.07084,0,0,1-3.354-.67578,4.55675,4.55675,0,0,1-1.91113-1.95019,8.58789,8.58789,0,0,1-.85791-3.042,39.00232,39.00232,0,0,1,0-7.7871,8.61778,8.61778,0,0,1,.85791-3.05469,4.80609,4.80609,0,0,1,1.91113-1.98926,6.742,6.742,0,0,1,3.354-.71484,6.4714,6.4714,0,0,1,3.15918.65039,4.42184,4.42184,0,0,1,1.729,1.65039,5.73852,5.73852,0,0,1,.71484,2.1582,17.78038,17.78038,0,0,1,.14307,2.1709h-3.74414A6.75024,6.75024,0,0,0,157.08362,72.52344Z"/>
    </g>
  </g>
</svg>
