<svg xmlns="http://www.w3.org/2000/svg" width="198" height="54" viewBox="0 0 198 54">
  <defs>
    <style>
      .cls-1 {
        fill: #1d1d1b;
      }

      .cls-2 {
        fill: #edcf8d;
      }
    </style>
  </defs>
  <g id="Слой_2" data-name="Слой 2">
    <path class="cls-1" d="M196-233V-1H2V-233H196m2-2H0V1H198V-235Z"/>
    <g>
      <rect class="cls-2" x="1.00012" width="196" height="54"/>
      <path class="cls-1" d="M196,1V53H2V1H196m2-2H0V55H198V-1Z"/>
    </g>
    <path class="cls-1" d="M196,55v78H2V55H196m2-2H0v82H198V53Z"/>
    <g>
      <path class="cls-1" d="M56.55579,15.209a5.41006,5.41006,0,0,1,2.40478.48047,4.41132,4.41132,0,0,1,1.57324,1.26172,4.92525,4.92525,0,0,1,.85791,1.78125,8.11117,8.11117,0,0,1,.26026,2.041,6.6592,6.6592,0,0,1-.4292,2.49609,4.53867,4.53867,0,0,1-1.1958,1.74219,5.023,5.023,0,0,1-1.85938,1.01367,8.17476,8.17476,0,0,1-2.418.33789h-2.002v7.41016H50.00354V15.209Zm-1.144,8.39844a2.46813,2.46813,0,0,0,1.80713-.67578,2.84216,2.84216,0,0,0,.689-2.10742,3.2872,3.2872,0,0,0-.59815-2.13086,2.4512,2.4512,0,0,0-2.002-.72852H53.74768v5.64258Z"/>
      <path class="cls-1" d="M62.9,23.73633a4.73582,4.73582,0,0,1,.39014-2.041,3.57093,3.57093,0,0,1,1.05274-1.32617,4.1715,4.1715,0,0,1,1.56005-.72656,7.915,7.915,0,0,1,1.91114-.2207,8.90687,8.90687,0,0,1,2.60009.31054,3.5654,3.5654,0,0,1,1.5337.88477,2.95792,2.95792,0,0,1,.74121,1.36523,7.24463,7.24463,0,0,1,.19482,1.72852v7.35742a9.86321,9.86321,0,0,0,.09131,1.53516,5.33224,5.33224,0,0,0,.35107,1.16992H69.89417a2.96546,2.96546,0,0,1-.273-.71485c-.061-.252-.11719-.498-.16895-.74218H69.4a3.04956,3.04956,0,0,1-1.44287,1.418,5.82168,5.82168,0,0,1-2.11914.32421,3.51682,3.51682,0,0,1-1.58593-.32421,2.69081,2.69081,0,0,1-1.04-.89649,4.04209,4.04209,0,0,1-.57178-1.28711,5.71809,5.71809,0,0,1-.18213-1.418,6.12625,6.12625,0,0,1,.208-1.70312,3.30067,3.30067,0,0,1,.6372-1.22266,3.45913,3.45913,0,0,1,1.0918-.84375,8.56853,8.56853,0,0,1,1.59912-.59766l2.02783-.54687a2.15857,2.15857,0,0,0,1.11817-.57227,1.59561,1.59561,0,0,0,.312-1.0664,1.918,1.918,0,0,0-.37695-1.25977,1.59147,1.59147,0,0,0-1.28711-.45508,1.53617,1.53617,0,0,0-1.24805.49415,1.98994,1.98994,0,0,0-.416,1.32617v.38867H62.9Zm5.772,3.49805a4.84025,4.84025,0,0,1-.75391.24609,2.75231,2.75231,0,0,0-1.56006.78125,2.19776,2.19776,0,0,0-.46777,1.48047,2.83735,2.83735,0,0,0,.312,1.3789,1.091,1.091,0,0,0,1.04.57227,2.61881,2.61881,0,0,0,.75391-.11719,2.09881,2.09881,0,0,0,.71484-.377,1.99671,1.99671,0,0,0,.5332-.67578,2.195,2.195,0,0,0,.208-.98828V26.7793A3.227,3.227,0,0,1,68.672,27.23438Z"/>
      <path class="cls-1" d="M82.5553,32.291a3.6138,3.6138,0,0,1-1.33887,1.3789,3.90547,3.90547,0,0,1-1.833.38867,3.53982,3.53982,0,0,1-3.25-1.68945q-1.04-1.69043-1.04-5.58984t1.04-5.62891a3.52047,3.52047,0,0,1,3.25-1.72851,3.3832,3.3832,0,0,1,1.729.416A4.09,4.09,0,0,1,82.39954,21.084h.05175V15.209h3.58838V33.77344H82.60754V32.291Zm-3.523-2.06641a1.46518,1.46518,0,0,0,1.521,1.15625,1.48141,1.48141,0,0,0,1.54737-1.15625,12.67831,12.67831,0,0,0,.35058-3.44531,12.67839,12.67839,0,0,0-.35058-3.44532,1.48141,1.48141,0,0,0-1.54737-1.15625,1.46518,1.46518,0,0,0-1.521,1.15625,12.67417,12.67417,0,0,0-.35108,3.44532A12.67409,12.67409,0,0,0,79.03235,30.22461Z"/>
      <path class="cls-1" d="M98.2594,15.209v5.875h.05176a4.08482,4.08482,0,0,1,1.28711-1.24609,3.38191,3.38191,0,0,1,1.729-.416,3.52149,3.52149,0,0,1,3.25,1.72851q1.0393,1.72851,1.04,5.62891,0,3.89942-1.04,5.58984a3.54085,3.54085,0,0,1-3.25,1.68945,3.90547,3.90547,0,0,1-1.833-.38867A3.61024,3.61024,0,0,1,98.1554,32.291h-.05225v1.48242H94.671V15.209ZM98.61,30.22461a1.4814,1.4814,0,0,0,1.54736,1.15625,1.46517,1.46517,0,0,0,1.521-1.15625,12.67409,12.67409,0,0,0,.35108-3.44531,12.67417,12.67417,0,0,0-.35108-3.44532,1.46517,1.46517,0,0,0-1.521-1.15625A1.4814,1.4814,0,0,0,98.61,23.334a12.67792,12.67792,0,0,0-.35059,3.44532A12.67783,12.67783,0,0,0,98.61,30.22461Z"/>
      <path class="cls-1" d="M108.60706,35.67188a1.73548,1.73548,0,0,0,1.417-.52149,2.45576,2.45576,0,0,0,.50732-1.377L106.6051,19.78516h3.74414l2.08008,9.67187h.05176l1.82031-9.67187h3.58789L114.5094,32.83789a26.57434,26.57434,0,0,1-.897,2.82031,4.88958,4.88958,0,0,1-1.01416,1.66407,2.81494,2.81494,0,0,1-1.40381.76757,9.78931,9.78931,0,0,1-2.06738.18164H107.671V35.59375A5.821,5.821,0,0,0,108.60706,35.67188Z"/>
      <path class="cls-1" d="M123.58313,15.78125v4.00391h2.08008v2.44336h-2.08008v7.5664a2.12716,2.12716,0,0,0,.24707,1.1836,1.195,1.195,0,0,0,1.02686.3496q.208,0,.416-.01171c.13867-.00977.26856-.02149.39014-.03907v2.4961c-.39893,0-.78467.01172-1.15723.03906q-.55884.03809-1.18262.03906a8.275,8.275,0,0,1-1.70312-.14453,1.72418,1.72418,0,0,1-1.01416-.57031,2.47177,2.47177,0,0,1-.481-1.13086,9.97154,9.97154,0,0,1-.12988-1.76953V22.22852h-1.82031V19.78516h1.82031V15.78125Z"/>
      <path class="cls-1" d="M129.97864,28.44336a7.816,7.816,0,0,0,.09082,1.209,3.95346,3.95346,0,0,0,.29883,1.03907,1.95241,1.95241,0,0,0,.54638.72851,1.283,1.283,0,0,0,.832.27344,1.45739,1.45739,0,0,0,1.32569-.65039,4.79574,4.79574,0,0,0,.57226-1.97656h3.22364a5.60751,5.60751,0,0,1-1.29981,3.71875,4.95344,4.95344,0,0,1-3.77,1.27343,5.96294,5.96294,0,0,1-3.042-.65039,4.01891,4.01891,0,0,1-1.61182-1.71484,6.75749,6.75749,0,0,1-.6372-2.39258q-.1172-1.32714-.11719-2.65234a18.228,18.228,0,0,1,.19531-2.70313,6.52213,6.52213,0,0,1,.77979-2.31445,4.23422,4.23422,0,0,1,1.67724-1.61133,6.07,6.07,0,0,1,2.91211-.59765,5.66147,5.66147,0,0,1,2.56055.50585,3.86214,3.86214,0,0,1,1.57324,1.42969,5.99365,5.99365,0,0,1,.77979,2.23633,18.79658,18.79658,0,0,1,.208,2.92578v.80469h-7.09765Zm3.562-4.668a3.63775,3.63775,0,0,0-.273-1.03906,1.45459,1.45459,0,0,0-.54639-.65039,1.66407,1.66407,0,0,0-.897-.22071,1.52731,1.52731,0,0,0-.897.2461,1.797,1.797,0,0,0-.55908.65039,3.22791,3.22791,0,0,0-.29883.89648,5.42853,5.42853,0,0,0-.09082.98828v.54688h3.666Q133.61829,24.3877,133.54065,23.77539Z"/>
      <path class="cls-1" d="M141.57434,29.66406a2.17428,2.17428,0,0,0,.48145,1.47071,1.73153,1.73153,0,0,0,1.39062.55859,1.99255,1.99255,0,0,0,1.32617-.416,1.54051,1.54051,0,0,0,.49414-1.248,1.3122,1.3122,0,0,0-.39013-1.02735,3.02165,3.02165,0,0,0-.91016-.55859l-2.522-.91016a4.79776,4.79776,0,0,1-2.23584-1.46875,3.78785,3.78785,0,0,1-.75391-2.43164,4.60747,4.60747,0,0,1,.28565-1.625,3.40888,3.40888,0,0,1,.91015-1.33789,4.49354,4.49354,0,0,1,1.59912-.91015,7.18613,7.18613,0,0,1,2.353-.33789,5.32376,5.32376,0,0,1,3.61377,1.03906,3.72567,3.72567,0,0,1,1.16992,2.9375v.57226h-3.22363a2.859,2.859,0,0,0-.35107-1.59961,1.39631,1.39631,0,0,0-1.23487-.50586,1.92339,1.92339,0,0,0-1.1831.377,1.32081,1.32081,0,0,0-.50733,1.13086,1.47775,1.47775,0,0,0,.3252.93554,2.50289,2.50289,0,0,0,1.23486.70313l2.1582.72656a4.89925,4.89925,0,0,1,2.39209,1.4961,4.0487,4.0487,0,0,1,.70166,2.50781,4.46533,4.46533,0,0,1-.38964,1.9375,3.7924,3.7924,0,0,1-1.07911,1.36523,4.21445,4.21445,0,0,1-1.63818.7793,8.73,8.73,0,0,1-2.09277.23437,9.35193,9.35193,0,0,1-2.50928-.28515,3.65242,3.65242,0,0,1-1.58594-.85938,3.091,3.091,0,0,1-.81885-1.39062,6.64642,6.64642,0,0,1-.23388-1.832v-.49414h3.22363Z"/>
    </g>
  </g>
</svg>
