<?xml version="1.0" encoding="UTF-8" standalone="no"?>
<!DOCTYPE svg PUBLIC "-//W3C//DTD SVG 1.1//EN" "http://www.w3.org/Graphics/SVG/1.1/DTD/svg11.dtd">
<svg width="100%" height="100%" viewBox="0 0 161 151" version="1.1" xmlns="http://www.w3.org/2000/svg" xmlns:xlink="http://www.w3.org/1999/xlink" xml:space="preserve" xmlns:serif="http://www.serif.com/" style="fill-rule:evenodd;clip-rule:evenodd;stroke-linejoin:round;stroke-miterlimit:2;">
    <g transform="matrix(1,0,0,1,-9802,-1856)">
        <g id="_019_a04" serif:id="019_a04" transform="matrix(1.23077,0,0,1,6666.78,1402.19)">
            <rect x="2547.91" y="454.279" width="130" height="150" style="fill:none;"/>
            <clipPath id="_clip1">
                <rect x="2547.91" y="454.279" width="130" height="150"/>
            </clipPath>
            <g clip-path="url(#_clip1)">
                <g transform="matrix(-0.405296,0.866702,-0.704195,-0.498826,4888.88,-3128.27)">
                    <circle cx="4528.27" cy="676.018" r="4.889" style="fill:rgb(238,212,197);"/>
                    <path d="M4528.27,671.128C4530.97,671.128 4533.16,673.319 4533.16,676.018C4533.16,678.716 4530.97,680.907 4528.27,680.907C4525.57,680.907 4523.38,678.716 4523.38,676.018C4523.38,673.319 4525.57,671.128 4528.27,671.128ZM4528.27,672.128C4530.41,672.128 4532.16,673.871 4532.16,676.018C4532.16,678.164 4530.41,679.907 4528.27,679.907C4526.12,679.907 4524.38,678.164 4524.38,676.018C4524.38,673.871 4526.12,672.128 4528.27,672.128Z" style="fill:rgb(201,138,147);"/>
                </g>
                <g transform="matrix(-0.405296,0.866702,-0.704195,-0.498826,4893.36,-3121.46)">
                    <circle cx="4528.27" cy="676.018" r="4.889" style="fill:rgb(238,212,197);"/>
                    <path d="M4528.27,671.128C4530.97,671.128 4533.16,673.319 4533.16,676.018C4533.16,678.716 4530.97,680.907 4528.27,680.907C4525.57,680.907 4523.38,678.716 4523.38,676.018C4523.38,673.319 4525.57,671.128 4528.27,671.128ZM4528.27,672.128C4530.41,672.128 4532.16,673.871 4532.16,676.018C4532.16,678.164 4530.41,679.907 4528.27,679.907C4526.12,679.907 4524.38,678.164 4524.38,676.018C4524.38,673.871 4526.12,672.128 4528.27,672.128Z" style="fill:rgb(201,138,147);"/>
                </g>
                <g transform="matrix(-0.405296,0.866702,-0.704195,-0.498826,4894.99,-3122.74)">
                    <circle cx="4528.27" cy="676.018" r="4.889" style="fill:rgb(238,212,197);"/>
                    <path d="M4528.27,671.128C4530.97,671.128 4533.16,673.319 4533.16,676.018C4533.16,678.716 4530.97,680.907 4528.27,680.907C4525.57,680.907 4523.38,678.716 4523.38,676.018C4523.38,673.319 4525.57,671.128 4528.27,671.128ZM4528.27,672.128C4530.41,672.128 4532.16,673.871 4532.16,676.018C4532.16,678.164 4530.41,679.907 4528.27,679.907C4526.12,679.907 4524.38,678.164 4524.38,676.018C4524.38,673.871 4526.12,672.128 4528.27,672.128Z" style="fill:rgb(201,138,147);"/>
                </g>
                <g transform="matrix(-0.405296,0.866702,-0.704195,-0.498826,4931.86,-3039.1)">
                    <circle cx="4528.27" cy="676.018" r="4.889" style="fill:rgb(209,235,206);"/>
                    <path d="M4528.27,671.128C4530.97,671.128 4533.16,673.319 4533.16,676.018C4533.16,678.716 4530.97,680.907 4528.27,680.907C4525.57,680.907 4523.38,678.716 4523.38,676.018C4523.38,673.319 4525.57,671.128 4528.27,671.128ZM4528.27,672.128C4530.41,672.128 4532.16,673.871 4532.16,676.018C4532.16,678.164 4530.41,679.907 4528.27,679.907C4526.12,679.907 4524.38,678.164 4524.38,676.018C4524.38,673.871 4526.12,672.128 4528.27,672.128Z" style="fill:rgb(171,195,161);"/>
                </g>
                <g transform="matrix(-0.405296,0.866702,-0.704195,-0.498826,4894.78,-3114.62)">
                    <circle cx="4528.27" cy="676.018" r="4.889" style="fill:rgb(238,212,197);"/>
                    <path d="M4528.27,671.128C4530.97,671.128 4533.16,673.319 4533.16,676.018C4533.16,678.716 4530.97,680.907 4528.27,680.907C4525.57,680.907 4523.38,678.716 4523.38,676.018C4523.38,673.319 4525.57,671.128 4528.27,671.128ZM4528.27,672.128C4530.41,672.128 4532.16,673.871 4532.16,676.018C4532.16,678.164 4530.41,679.907 4528.27,679.907C4526.12,679.907 4524.38,678.164 4524.38,676.018C4524.38,673.871 4526.12,672.128 4528.27,672.128Z" style="fill:rgb(201,138,147);"/>
                </g>
                <g transform="matrix(-0.405296,0.866702,-0.704195,-0.498826,4922.14,-3057.24)">
                    <circle cx="4528.27" cy="676.018" r="4.889" style="fill:rgb(209,235,206);"/>
                    <path d="M4528.27,671.128C4530.97,671.128 4533.16,673.319 4533.16,676.018C4533.16,678.716 4530.97,680.907 4528.27,680.907C4525.57,680.907 4523.38,678.716 4523.38,676.018C4523.38,673.319 4525.57,671.128 4528.27,671.128ZM4528.27,672.128C4530.41,672.128 4532.16,673.871 4532.16,676.018C4532.16,678.164 4530.41,679.907 4528.27,679.907C4526.12,679.907 4524.38,678.164 4524.38,676.018C4524.38,673.871 4526.12,672.128 4528.27,672.128Z" style="fill:rgb(171,195,161);"/>
                </g>
                <g transform="matrix(-0.405296,0.866702,-0.704195,-0.498826,4903.81,-3095.34)">
                    <circle cx="4528.27" cy="676.018" r="4.889" style="fill:rgb(238,212,197);"/>
                    <path d="M4528.27,671.128C4530.97,671.128 4533.16,673.319 4533.16,676.018C4533.16,678.716 4530.97,680.907 4528.27,680.907C4525.57,680.907 4523.38,678.716 4523.38,676.018C4523.38,673.319 4525.57,671.128 4528.27,671.128ZM4528.27,672.128C4530.41,672.128 4532.16,673.871 4532.16,676.018C4532.16,678.164 4530.41,679.907 4528.27,679.907C4526.12,679.907 4524.38,678.164 4524.38,676.018C4524.38,673.871 4526.12,672.128 4528.27,672.128Z" style="fill:rgb(201,138,147);"/>
                </g>
                <g transform="matrix(-0.405296,0.866702,-0.704195,-0.498826,4914.08,-3076.4)">
                    <circle cx="4528.27" cy="676.018" r="4.889" style="fill:rgb(238,212,197);"/>
                    <path d="M4528.27,671.128C4530.97,671.128 4533.16,673.319 4533.16,676.018C4533.16,678.716 4530.97,680.907 4528.27,680.907C4525.57,680.907 4523.38,678.716 4523.38,676.018C4523.38,673.319 4525.57,671.128 4528.27,671.128ZM4528.27,672.128C4530.41,672.128 4532.16,673.871 4532.16,676.018C4532.16,678.164 4530.41,679.907 4528.27,679.907C4526.12,679.907 4524.38,678.164 4524.38,676.018C4524.38,673.871 4526.12,672.128 4528.27,672.128Z" style="fill:rgb(201,138,147);"/>
                </g>
                <g transform="matrix(-0.405296,0.866702,-0.704195,-0.498826,4899.33,-3090.73)">
                    <circle cx="4528.27" cy="676.018" r="4.889" style="fill:rgb(238,212,197);"/>
                    <path d="M4528.27,671.128C4530.97,671.128 4533.16,673.319 4533.16,676.018C4533.16,678.716 4530.97,680.907 4528.27,680.907C4525.57,680.907 4523.38,678.716 4523.38,676.018C4523.38,673.319 4525.57,671.128 4528.27,671.128ZM4528.27,672.128C4530.41,672.128 4532.16,673.871 4532.16,676.018C4532.16,678.164 4530.41,679.907 4528.27,679.907C4526.12,679.907 4524.38,678.164 4524.38,676.018C4524.38,673.871 4526.12,672.128 4528.27,672.128Z" style="fill:rgb(201,138,147);"/>
                </g>
                <g transform="matrix(-0.405296,0.866702,-0.704195,-0.498826,4910.72,-3068.69)">
                    <circle cx="4528.27" cy="676.018" r="4.889" style="fill:rgb(209,235,206);"/>
                    <path d="M4528.27,671.128C4530.97,671.128 4533.16,673.319 4533.16,676.018C4533.16,678.716 4530.97,680.907 4528.27,680.907C4525.57,680.907 4523.38,678.716 4523.38,676.018C4523.38,673.319 4525.57,671.128 4528.27,671.128ZM4528.27,672.128C4530.41,672.128 4532.16,673.871 4532.16,676.018C4532.16,678.164 4530.41,679.907 4528.27,679.907C4526.12,679.907 4524.38,678.164 4524.38,676.018C4524.38,673.871 4526.12,672.128 4528.27,672.128Z" style="fill:rgb(171,195,161);"/>
                </g>
                <g transform="matrix(-0.405296,0.866702,-0.704195,-0.498826,4911.37,-3094.21)">
                    <circle cx="4528.27" cy="676.018" r="4.889" style="fill:rgb(238,212,197);"/>
                    <path d="M4528.27,671.128C4530.97,671.128 4533.16,673.319 4533.16,676.018C4533.16,678.716 4530.97,680.907 4528.27,680.907C4525.57,680.907 4523.38,678.716 4523.38,676.018C4523.38,673.319 4525.57,671.128 4528.27,671.128ZM4528.27,672.128C4530.41,672.128 4532.16,673.871 4532.16,676.018C4532.16,678.164 4530.41,679.907 4528.27,679.907C4526.12,679.907 4524.38,678.164 4524.38,676.018C4524.38,673.871 4526.12,672.128 4528.27,672.128Z" style="fill:rgb(201,138,147);"/>
                </g>
                <g transform="matrix(-0.405296,0.866702,-0.704195,-0.498826,4925.2,-3068.76)">
                    <circle cx="4528.27" cy="676.018" r="4.889" style="fill:rgb(209,235,206);"/>
                    <path d="M4528.27,671.128C4530.97,671.128 4533.16,673.319 4533.16,676.018C4533.16,678.716 4530.97,680.907 4528.27,680.907C4525.57,680.907 4523.38,678.716 4523.38,676.018C4523.38,673.319 4525.57,671.128 4528.27,671.128ZM4528.27,672.128C4530.41,672.128 4532.16,673.871 4532.16,676.018C4532.16,678.164 4530.41,679.907 4528.27,679.907C4526.12,679.907 4524.38,678.164 4524.38,676.018C4524.38,673.871 4526.12,672.128 4528.27,672.128Z" style="fill:rgb(171,195,161);"/>
                </g>
                <g transform="matrix(-0.405296,0.866702,-0.704195,-0.498826,4895.26,-3103.59)">
                    <circle cx="4528.27" cy="676.018" r="4.889" style="fill:rgb(238,212,197);"/>
                    <path d="M4528.27,671.128C4530.97,671.128 4533.16,673.319 4533.16,676.018C4533.16,678.716 4530.97,680.907 4528.27,680.907C4525.57,680.907 4523.38,678.716 4523.38,676.018C4523.38,673.319 4525.57,671.128 4528.27,671.128ZM4528.27,672.128C4530.41,672.128 4532.16,673.871 4532.16,676.018C4532.16,678.164 4530.41,679.907 4528.27,679.907C4526.12,679.907 4524.38,678.164 4524.38,676.018C4524.38,673.871 4526.12,672.128 4528.27,672.128Z" style="fill:rgb(201,138,147);"/>
                </g>
                <g transform="matrix(-0.405296,0.866702,-0.704195,-0.498826,4924.76,-3046.43)">
                    <circle cx="4528.27" cy="676.018" r="4.889" style="fill:rgb(209,235,206);"/>
                    <path d="M4528.27,671.128C4530.97,671.128 4533.16,673.319 4533.16,676.018C4533.16,678.716 4530.97,680.907 4528.27,680.907C4525.57,680.907 4523.38,678.716 4523.38,676.018C4523.38,673.319 4525.57,671.128 4528.27,671.128ZM4528.27,672.128C4530.41,672.128 4532.16,673.871 4532.16,676.018C4532.16,678.164 4530.41,679.907 4528.27,679.907C4526.12,679.907 4524.38,678.164 4524.38,676.018C4524.38,673.871 4526.12,672.128 4528.27,672.128Z" style="fill:rgb(171,195,161);"/>
                </g>
                <g transform="matrix(-0.405296,0.866702,-0.704195,-0.498826,4913.76,-3065.53)">
                    <circle cx="4528.27" cy="676.018" r="4.889" style="fill:rgb(209,235,206);"/>
                    <path d="M4528.27,671.128C4530.97,671.128 4533.16,673.319 4533.16,676.018C4533.16,678.716 4530.97,680.907 4528.27,680.907C4525.57,680.907 4523.38,678.716 4523.38,676.018C4523.38,673.319 4525.57,671.128 4528.27,671.128ZM4528.27,672.128C4530.41,672.128 4532.16,673.871 4532.16,676.018C4532.16,678.164 4530.41,679.907 4528.27,679.907C4526.12,679.907 4524.38,678.164 4524.38,676.018C4524.38,673.871 4526.12,672.128 4528.27,672.128Z" style="fill:rgb(171,195,161);"/>
                </g>
                <g transform="matrix(-0.405296,0.866702,-0.704195,-0.498826,4930.31,-3049.31)">
                    <circle cx="4528.27" cy="676.018" r="4.889" style="fill:rgb(209,235,206);"/>
                    <path d="M4528.27,671.128C4530.97,671.128 4533.16,673.319 4533.16,676.018C4533.16,678.716 4530.97,680.907 4528.27,680.907C4525.57,680.907 4523.38,678.716 4523.38,676.018C4523.38,673.319 4525.57,671.128 4528.27,671.128ZM4528.27,672.128C4530.41,672.128 4532.16,673.871 4532.16,676.018C4532.16,678.164 4530.41,679.907 4528.27,679.907C4526.12,679.907 4524.38,678.164 4524.38,676.018C4524.38,673.871 4526.12,672.128 4528.27,672.128Z" style="fill:rgb(171,195,161);"/>
                </g>
                <g transform="matrix(-0.405296,0.866702,-0.704195,-0.498826,4907.37,-3083.89)">
                    <circle cx="4528.27" cy="676.018" r="4.889" style="fill:rgb(238,212,197);"/>
                    <path d="M4528.27,671.128C4530.97,671.128 4533.16,673.319 4533.16,676.018C4533.16,678.716 4530.97,680.907 4528.27,680.907C4525.57,680.907 4523.38,678.716 4523.38,676.018C4523.38,673.319 4525.57,671.128 4528.27,671.128ZM4528.27,672.128C4530.41,672.128 4532.16,673.871 4532.16,676.018C4532.16,678.164 4530.41,679.907 4528.27,679.907C4526.12,679.907 4524.38,678.164 4524.38,676.018C4524.38,673.871 4526.12,672.128 4528.27,672.128Z" style="fill:rgb(201,138,147);"/>
                </g>
                <g transform="matrix(-0.405296,0.866702,-0.704195,-0.498826,4914.26,-3079.68)">
                    <circle cx="4528.27" cy="676.018" r="4.889" style="fill:rgb(238,212,197);"/>
                    <path d="M4528.27,671.128C4530.97,671.128 4533.16,673.319 4533.16,676.018C4533.16,678.716 4530.97,680.907 4528.27,680.907C4525.57,680.907 4523.38,678.716 4523.38,676.018C4523.38,673.319 4525.57,671.128 4528.27,671.128ZM4528.27,672.128C4530.41,672.128 4532.16,673.871 4532.16,676.018C4532.16,678.164 4530.41,679.907 4528.27,679.907C4526.12,679.907 4524.38,678.164 4524.38,676.018C4524.38,673.871 4526.12,672.128 4528.27,672.128Z" style="fill:rgb(201,138,147);"/>
                </g>
                <g transform="matrix(-0.405296,0.866702,-0.704195,-0.498826,4901.65,-3084.71)">
                    <circle cx="4528.27" cy="676.018" r="4.889" style="fill:rgb(238,212,197);"/>
                    <path d="M4528.27,671.128C4530.97,671.128 4533.16,673.319 4533.16,676.018C4533.16,678.716 4530.97,680.907 4528.27,680.907C4525.57,680.907 4523.38,678.716 4523.38,676.018C4523.38,673.319 4525.57,671.128 4528.27,671.128ZM4528.27,672.128C4530.41,672.128 4532.16,673.871 4532.16,676.018C4532.16,678.164 4530.41,679.907 4528.27,679.907C4526.12,679.907 4524.38,678.164 4524.38,676.018C4524.38,673.871 4526.12,672.128 4528.27,672.128Z" style="fill:rgb(201,138,147);"/>
                </g>
                <g transform="matrix(-0.405296,0.866702,-0.704195,-0.498826,4900.99,-3099.24)">
                    <circle cx="4528.27" cy="676.018" r="4.889" style="fill:rgb(238,212,197);"/>
                    <path d="M4528.27,671.128C4530.97,671.128 4533.16,673.319 4533.16,676.018C4533.16,678.716 4530.97,680.907 4528.27,680.907C4525.57,680.907 4523.38,678.716 4523.38,676.018C4523.38,673.319 4525.57,671.128 4528.27,671.128ZM4528.27,672.128C4530.41,672.128 4532.16,673.871 4532.16,676.018C4532.16,678.164 4530.41,679.907 4528.27,679.907C4526.12,679.907 4524.38,678.164 4524.38,676.018C4524.38,673.871 4526.12,672.128 4528.27,672.128Z" style="fill:rgb(201,138,147);"/>
                </g>
                <g transform="matrix(-0.405296,0.866702,-0.704195,-0.498826,4905.91,-3104.26)">
                    <circle cx="4528.27" cy="676.018" r="4.889" style="fill:rgb(238,212,197);"/>
                    <path d="M4528.27,671.128C4530.97,671.128 4533.16,673.319 4533.16,676.018C4533.16,678.716 4530.97,680.907 4528.27,680.907C4525.57,680.907 4523.38,678.716 4523.38,676.018C4523.38,673.319 4525.57,671.128 4528.27,671.128ZM4528.27,672.128C4530.41,672.128 4532.16,673.871 4532.16,676.018C4532.16,678.164 4530.41,679.907 4528.27,679.907C4526.12,679.907 4524.38,678.164 4524.38,676.018C4524.38,673.871 4526.12,672.128 4528.27,672.128Z" style="fill:rgb(201,138,147);"/>
                </g>
                <g transform="matrix(-0.405296,0.866702,-0.704195,-0.498826,4909.58,-3090.57)">
                    <circle cx="4528.27" cy="676.018" r="4.889" style="fill:rgb(238,212,197);"/>
                    <path d="M4528.27,671.128C4530.97,671.128 4533.16,673.319 4533.16,676.018C4533.16,678.716 4530.97,680.907 4528.27,680.907C4525.57,680.907 4523.38,678.716 4523.38,676.018C4523.38,673.319 4525.57,671.128 4528.27,671.128ZM4528.27,672.128C4530.41,672.128 4532.16,673.871 4532.16,676.018C4532.16,678.164 4530.41,679.907 4528.27,679.907C4526.12,679.907 4524.38,678.164 4524.38,676.018C4524.38,673.871 4526.12,672.128 4528.27,672.128Z" style="fill:rgb(201,138,147);"/>
                </g>
                <g transform="matrix(-0.405296,0.866702,-0.704195,-0.498826,4915.6,-3089.53)">
                    <circle cx="4528.27" cy="676.018" r="4.889" style="fill:rgb(238,212,197);"/>
                    <path d="M4528.27,671.128C4530.97,671.128 4533.16,673.319 4533.16,676.018C4533.16,678.716 4530.97,680.907 4528.27,680.907C4525.57,680.907 4523.38,678.716 4523.38,676.018C4523.38,673.319 4525.57,671.128 4528.27,671.128ZM4528.27,672.128C4530.41,672.128 4532.16,673.871 4532.16,676.018C4532.16,678.164 4530.41,679.907 4528.27,679.907C4526.12,679.907 4524.38,678.164 4524.38,676.018C4524.38,673.871 4526.12,672.128 4528.27,672.128Z" style="fill:rgb(201,138,147);"/>
                </g>
                <g transform="matrix(-0.405296,0.866702,-0.704195,-0.498826,4920.08,-3078.61)">
                    <circle cx="4528.27" cy="676.018" r="4.889" style="fill:rgb(238,212,197);"/>
                    <path d="M4528.27,671.128C4530.97,671.128 4533.16,673.319 4533.16,676.018C4533.16,678.716 4530.97,680.907 4528.27,680.907C4525.57,680.907 4523.38,678.716 4523.38,676.018C4523.38,673.319 4525.57,671.128 4528.27,671.128ZM4528.27,672.128C4530.41,672.128 4532.16,673.871 4532.16,676.018C4532.16,678.164 4530.41,679.907 4528.27,679.907C4526.12,679.907 4524.38,678.164 4524.38,676.018C4524.38,673.871 4526.12,672.128 4528.27,672.128Z" style="fill:rgb(201,138,147);"/>
                </g>
                <g transform="matrix(-0.405296,0.866702,-0.704195,-0.498826,4920.09,-3070.25)">
                    <circle cx="4528.27" cy="676.018" r="4.889" style="fill:rgb(209,235,206);"/>
                    <path d="M4528.27,671.128C4530.97,671.128 4533.16,673.319 4533.16,676.018C4533.16,678.716 4530.97,680.907 4528.27,680.907C4525.57,680.907 4523.38,678.716 4523.38,676.018C4523.38,673.319 4525.57,671.128 4528.27,671.128ZM4528.27,672.128C4530.41,672.128 4532.16,673.871 4532.16,676.018C4532.16,678.164 4530.41,679.907 4528.27,679.907C4526.12,679.907 4524.38,678.164 4524.38,676.018C4524.38,673.871 4526.12,672.128 4528.27,672.128Z" style="fill:rgb(171,195,161);"/>
                </g>
                <g transform="matrix(-0.405296,0.866702,-0.704195,-0.498826,4907.63,-3079.21)">
                    <circle cx="4528.27" cy="676.018" r="4.889" style="fill:rgb(238,212,197);"/>
                    <path d="M4528.27,671.128C4530.97,671.128 4533.16,673.319 4533.16,676.018C4533.16,678.716 4530.97,680.907 4528.27,680.907C4525.57,680.907 4523.38,678.716 4523.38,676.018C4523.38,673.319 4525.57,671.128 4528.27,671.128ZM4528.27,672.128C4530.41,672.128 4532.16,673.871 4532.16,676.018C4532.16,678.164 4530.41,679.907 4528.27,679.907C4526.12,679.907 4524.38,678.164 4524.38,676.018C4524.38,673.871 4526.12,672.128 4528.27,672.128Z" style="fill:rgb(201,138,147);"/>
                </g>
                <g transform="matrix(-0.405296,0.866702,-0.704195,-0.498826,4919.98,-3064.31)">
                    <circle cx="4528.27" cy="676.018" r="4.889" style="fill:rgb(209,235,206);"/>
                    <path d="M4528.27,671.128C4530.97,671.128 4533.16,673.319 4533.16,676.018C4533.16,678.716 4530.97,680.907 4528.27,680.907C4525.57,680.907 4523.38,678.716 4523.38,676.018C4523.38,673.319 4525.57,671.128 4528.27,671.128ZM4528.27,672.128C4530.41,672.128 4532.16,673.871 4532.16,676.018C4532.16,678.164 4530.41,679.907 4528.27,679.907C4526.12,679.907 4524.38,678.164 4524.38,676.018C4524.38,673.871 4526.12,672.128 4528.27,672.128Z" style="fill:rgb(171,195,161);"/>
                </g>
                <g transform="matrix(-0.405296,0.866702,-0.704195,-0.498826,4916.5,-3057.77)">
                    <circle cx="4528.27" cy="676.018" r="4.889" style="fill:rgb(209,235,206);"/>
                    <path d="M4528.27,671.128C4530.97,671.128 4533.16,673.319 4533.16,676.018C4533.16,678.716 4530.97,680.907 4528.27,680.907C4525.57,680.907 4523.38,678.716 4523.38,676.018C4523.38,673.319 4525.57,671.128 4528.27,671.128ZM4528.27,672.128C4530.41,672.128 4532.16,673.871 4532.16,676.018C4532.16,678.164 4530.41,679.907 4528.27,679.907C4526.12,679.907 4524.38,678.164 4524.38,676.018C4524.38,673.871 4526.12,672.128 4528.27,672.128Z" style="fill:rgb(171,195,161);"/>
                </g>
                <g transform="matrix(-0.405296,0.866702,-0.704195,-0.498826,4921.94,-3050.88)">
                    <circle cx="4528.27" cy="676.018" r="4.889" style="fill:rgb(209,235,206);"/>
                    <path d="M4528.27,671.128C4530.97,671.128 4533.16,673.319 4533.16,676.018C4533.16,678.716 4530.97,680.907 4528.27,680.907C4525.57,680.907 4523.38,678.716 4523.38,676.018C4523.38,673.319 4525.57,671.128 4528.27,671.128ZM4528.27,672.128C4530.41,672.128 4532.16,673.871 4532.16,676.018C4532.16,678.164 4530.41,679.907 4528.27,679.907C4526.12,679.907 4524.38,678.164 4524.38,676.018C4524.38,673.871 4526.12,672.128 4528.27,672.128Z" style="fill:rgb(171,195,161);"/>
                </g>
                <g transform="matrix(-0.405296,0.866702,-0.704195,-0.498826,4927.19,-3061.55)">
                    <circle cx="4528.27" cy="676.018" r="4.889" style="fill:rgb(209,235,206);"/>
                    <path d="M4528.27,671.128C4530.97,671.128 4533.16,673.319 4533.16,676.018C4533.16,678.716 4530.97,680.907 4528.27,680.907C4525.57,680.907 4523.38,678.716 4523.38,676.018C4523.38,673.319 4525.57,671.128 4528.27,671.128ZM4528.27,672.128C4530.41,672.128 4532.16,673.871 4532.16,676.018C4532.16,678.164 4530.41,679.907 4528.27,679.907C4526.12,679.907 4524.38,678.164 4524.38,676.018C4524.38,673.871 4526.12,672.128 4528.27,672.128Z" style="fill:rgb(171,195,161);"/>
                </g>
                <g transform="matrix(-0.405296,0.866702,-0.704195,-0.498826,4927.97,-3048.36)">
                    <circle cx="4528.27" cy="676.018" r="4.889" style="fill:rgb(209,235,206);"/>
                    <path d="M4528.27,671.128C4530.97,671.128 4533.16,673.319 4533.16,676.018C4533.16,678.716 4530.97,680.907 4528.27,680.907C4525.57,680.907 4523.38,678.716 4523.38,676.018C4523.38,673.319 4525.57,671.128 4528.27,671.128ZM4528.27,672.128C4530.41,672.128 4532.16,673.871 4532.16,676.018C4532.16,678.164 4530.41,679.907 4528.27,679.907C4526.12,679.907 4524.38,678.164 4524.38,676.018C4524.38,673.871 4526.12,672.128 4528.27,672.128Z" style="fill:rgb(171,195,161);"/>
                </g>
                <g transform="matrix(-0.405296,0.866702,-0.704195,-0.498826,4888.1,-3114.99)">
                    <circle cx="4528.27" cy="676.018" r="4.889" style="fill:rgb(238,212,197);"/>
                    <path d="M4528.27,671.128C4530.97,671.128 4533.16,673.319 4533.16,676.018C4533.16,678.716 4530.97,680.907 4528.27,680.907C4525.57,680.907 4523.38,678.716 4523.38,676.018C4523.38,673.319 4525.57,671.128 4528.27,671.128ZM4528.27,672.128C4530.41,672.128 4532.16,673.871 4532.16,676.018C4532.16,678.164 4530.41,679.907 4528.27,679.907C4526.12,679.907 4524.38,678.164 4524.38,676.018C4524.38,673.871 4526.12,672.128 4528.27,672.128Z" style="fill:rgb(201,138,147);"/>
                </g>
                <g transform="matrix(-0.405296,0.866702,-0.704195,-0.498826,4902.02,-3109.15)">
                    <circle cx="4528.27" cy="676.018" r="4.889" style="fill:rgb(238,212,197);"/>
                    <path d="M4528.27,671.128C4530.97,671.128 4533.16,673.319 4533.16,676.018C4533.16,678.716 4530.97,680.907 4528.27,680.907C4525.57,680.907 4523.38,678.716 4523.38,676.018C4523.38,673.319 4525.57,671.128 4528.27,671.128ZM4528.27,672.128C4530.41,672.128 4532.16,673.871 4532.16,676.018C4532.16,678.164 4530.41,679.907 4528.27,679.907C4526.12,679.907 4524.38,678.164 4524.38,676.018C4524.38,673.871 4526.12,672.128 4528.27,672.128Z" style="fill:rgb(201,138,147);"/>
                </g>
                <g transform="matrix(-0.405296,0.866702,-0.704195,-0.498826,4890.91,-3108.93)">
                    <circle cx="4528.27" cy="676.018" r="4.889" style="fill:rgb(238,212,197);"/>
                    <path d="M4528.27,671.128C4530.97,671.128 4533.16,673.319 4533.16,676.018C4533.16,678.716 4530.97,680.907 4528.27,680.907C4525.57,680.907 4523.38,678.716 4523.38,676.018C4523.38,673.319 4525.57,671.128 4528.27,671.128ZM4528.27,672.128C4530.41,672.128 4532.16,673.871 4532.16,676.018C4532.16,678.164 4530.41,679.907 4528.27,679.907C4526.12,679.907 4524.38,678.164 4524.38,676.018C4524.38,673.871 4526.12,672.128 4528.27,672.128Z" style="fill:rgb(201,138,147);"/>
                </g>
                <g transform="matrix(-0.405296,0.866702,-0.704195,-0.498826,4894.58,-3098.24)">
                    <circle cx="4528.27" cy="676.018" r="4.889" style="fill:rgb(238,212,197);"/>
                    <path d="M4528.27,671.128C4530.97,671.128 4533.16,673.319 4533.16,676.018C4533.16,678.716 4530.97,680.907 4528.27,680.907C4525.57,680.907 4523.38,678.716 4523.38,676.018C4523.38,673.319 4525.57,671.128 4528.27,671.128ZM4528.27,672.128C4530.41,672.128 4532.16,673.871 4532.16,676.018C4532.16,678.164 4530.41,679.907 4528.27,679.907C4526.12,679.907 4524.38,678.164 4524.38,676.018C4524.38,673.871 4526.12,672.128 4528.27,672.128Z" style="fill:rgb(201,138,147);"/>
                </g>
                <g transform="matrix(-0.405296,0.866702,-0.704195,-0.498826,4898.54,-3118.75)">
                    <circle cx="4528.27" cy="676.018" r="4.889" style="fill:rgb(238,212,197);"/>
                    <path d="M4528.27,671.128C4530.97,671.128 4533.16,673.319 4533.16,676.018C4533.16,678.716 4530.97,680.907 4528.27,680.907C4525.57,680.907 4523.38,678.716 4523.38,676.018C4523.38,673.319 4525.57,671.128 4528.27,671.128ZM4528.27,672.128C4530.41,672.128 4532.16,673.871 4532.16,676.018C4532.16,678.164 4530.41,679.907 4528.27,679.907C4526.12,679.907 4524.38,678.164 4524.38,676.018C4524.38,673.871 4526.12,672.128 4528.27,672.128Z" style="fill:rgb(201,138,147);"/>
                </g>
                <g transform="matrix(-0.405296,0.866702,-0.704195,-0.498826,4886,-3123.57)">
                    <circle cx="4528.27" cy="676.018" r="4.889" style="fill:rgb(238,212,197);"/>
                    <path d="M4528.27,671.128C4530.97,671.128 4533.16,673.319 4533.16,676.018C4533.16,678.716 4530.97,680.907 4528.27,680.907C4525.57,680.907 4523.38,678.716 4523.38,676.018C4523.38,673.319 4525.57,671.128 4528.27,671.128ZM4528.27,672.128C4530.41,672.128 4532.16,673.871 4532.16,676.018C4532.16,678.164 4530.41,679.907 4528.27,679.907C4526.12,679.907 4524.38,678.164 4524.38,676.018C4524.38,673.871 4526.12,672.128 4528.27,672.128Z" style="fill:rgb(201,138,147);"/>
                </g>
                <g transform="matrix(-0.740787,0.410772,-0.333752,-0.911738,6208.75,-715.942)">
                    <circle cx="4528.27" cy="676.018" r="4.889" style="fill:rgb(209,235,206);"/>
                    <path d="M4528.27,671.128C4530.97,671.128 4533.16,673.319 4533.16,676.018C4533.16,678.716 4530.97,680.907 4528.27,680.907C4525.57,680.907 4523.38,678.716 4523.38,676.018C4523.38,673.319 4525.57,671.128 4528.27,671.128ZM4528.27,672.128C4530.41,672.128 4532.16,673.871 4532.16,676.018C4532.16,678.164 4530.41,679.907 4528.27,679.907C4526.12,679.907 4524.38,678.164 4524.38,676.018C4524.38,673.871 4526.12,672.128 4528.27,672.128Z" style="fill:rgb(171,195,161);"/>
                </g>
                <g transform="matrix(-0.740787,0.410772,-0.333752,-0.911738,6216.69,-704.943)">
                    <circle cx="4528.27" cy="676.018" r="4.889" style="fill:rgb(209,235,206);"/>
                    <path d="M4528.27,671.128C4530.97,671.128 4533.16,673.319 4533.16,676.018C4533.16,678.716 4530.97,680.907 4528.27,680.907C4525.57,680.907 4523.38,678.716 4523.38,676.018C4523.38,673.319 4525.57,671.128 4528.27,671.128ZM4528.27,672.128C4530.41,672.128 4532.16,673.871 4532.16,676.018C4532.16,678.164 4530.41,679.907 4528.27,679.907C4526.12,679.907 4524.38,678.164 4524.38,676.018C4524.38,673.871 4526.12,672.128 4528.27,672.128L4528.27,672.128Z" style="fill:rgb(171,195,161);"/>
                </g>
                <g transform="matrix(-0.740787,0.410772,-0.333752,-0.911738,6218.67,-693.296)">
                    <circle cx="4528.27" cy="676.018" r="4.889" style="fill:rgb(255,241,169);"/>
                    <path d="M4528.27,671.128C4530.97,671.128 4533.16,673.319 4533.16,676.018C4533.16,678.716 4530.97,680.907 4528.27,680.907C4525.57,680.907 4523.38,678.716 4523.38,676.018C4523.38,673.319 4525.57,671.128 4528.27,671.128ZM4528.27,672.128C4530.41,672.128 4532.16,673.871 4532.16,676.018C4532.16,678.164 4530.41,679.907 4528.27,679.907C4526.12,679.907 4524.38,678.164 4524.38,676.018C4524.38,673.871 4526.12,672.128 4528.27,672.128Z" style="fill:rgb(209,195,106);"/>
                </g>
                <g transform="matrix(-0.740787,0.410772,-0.333752,-0.911738,6208.67,-707.871)">
                    <circle cx="4528.27" cy="676.018" r="4.889" style="fill:rgb(209,235,206);"/>
                    <path d="M4528.27,671.128C4530.97,671.128 4533.16,673.319 4533.16,676.018C4533.16,678.716 4530.97,680.907 4528.27,680.907C4525.57,680.907 4523.38,678.716 4523.38,676.018C4523.38,673.319 4525.57,671.128 4528.27,671.128ZM4528.27,672.128C4530.41,672.128 4532.16,673.871 4532.16,676.018C4532.16,678.164 4530.41,679.907 4528.27,679.907C4526.12,679.907 4524.38,678.164 4524.38,676.018C4524.38,673.871 4526.12,672.128 4528.27,672.128L4528.27,672.128Z" style="fill:rgb(171,195,161);"/>
                </g>
                <g transform="matrix(-0.740787,0.410772,-0.333752,-0.911738,6210.31,-702.545)">
                    <circle cx="4528.27" cy="676.018" r="4.889" style="fill:rgb(209,235,206);"/>
                    <path d="M4528.27,671.128C4530.97,671.128 4533.16,673.319 4533.16,676.018C4533.16,678.716 4530.97,680.907 4528.27,680.907C4525.57,680.907 4523.38,678.716 4523.38,676.018C4523.38,673.319 4525.57,671.128 4528.27,671.128ZM4528.27,672.128C4530.41,672.128 4532.16,673.871 4532.16,676.018C4532.16,678.164 4530.41,679.907 4528.27,679.907C4526.12,679.907 4524.38,678.164 4524.38,676.018C4524.38,673.871 4526.12,672.128 4528.27,672.128L4528.27,672.128Z" style="fill:rgb(171,195,161);"/>
                </g>
                <g transform="matrix(-0.740787,0.410772,-0.333752,-0.911738,6221.45,-697.986)">
                    <circle cx="4528.27" cy="676.018" r="4.889" style="fill:rgb(255,241,169);"/>
                    <path d="M4528.27,671.128C4530.97,671.128 4533.16,673.319 4533.16,676.018C4533.16,678.716 4530.97,680.907 4528.27,680.907C4525.57,680.907 4523.38,678.716 4523.38,676.018C4523.38,673.319 4525.57,671.128 4528.27,671.128ZM4528.27,672.128C4530.41,672.128 4532.16,673.871 4532.16,676.018C4532.16,678.164 4530.41,679.907 4528.27,679.907C4526.12,679.907 4524.38,678.164 4524.38,676.018C4524.38,673.871 4526.12,672.128 4528.27,672.128L4528.27,672.128Z" style="fill:rgb(209,195,106);"/>
                </g>
                <g transform="matrix(-0.740787,0.410772,-0.333752,-0.911738,6216.92,-689.407)">
                    <circle cx="4528.27" cy="676.018" r="4.889" style="fill:rgb(255,241,169);"/>
                    <path d="M4528.27,671.128C4530.97,671.128 4533.16,673.319 4533.16,676.018C4533.16,678.716 4530.97,680.907 4528.27,680.907C4525.57,680.907 4523.38,678.716 4523.38,676.018C4523.38,673.319 4525.57,671.128 4528.27,671.128ZM4528.27,672.128C4530.41,672.128 4532.16,673.871 4532.16,676.018C4532.16,678.164 4530.41,679.907 4528.27,679.907C4526.12,679.907 4524.38,678.164 4524.38,676.018C4524.38,673.871 4526.12,672.128 4528.27,672.128Z" style="fill:rgb(209,195,106);"/>
                </g>
                <g transform="matrix(-0.740787,0.410772,-0.333752,-0.911738,6226.24,-681.637)">
                    <circle cx="4528.27" cy="676.018" r="4.889" style="fill:rgb(255,241,169);"/>
                    <path d="M4528.27,671.128C4530.97,671.128 4533.16,673.319 4533.16,676.018C4533.16,678.716 4530.97,680.907 4528.27,680.907C4525.57,680.907 4523.38,678.716 4523.38,676.018C4523.38,673.319 4525.57,671.128 4528.27,671.128ZM4528.27,672.128C4530.41,672.128 4532.16,673.871 4532.16,676.018C4532.16,678.164 4530.41,679.907 4528.27,679.907C4526.12,679.907 4524.38,678.164 4524.38,676.018C4524.38,673.871 4526.12,672.128 4528.27,672.128L4528.27,672.128Z" style="fill:rgb(209,195,106);"/>
                </g>
                <g transform="matrix(-0.740787,0.410772,-0.333752,-0.911738,6222.85,-679.144)">
                    <circle cx="4528.27" cy="676.018" r="4.889" style="fill:rgb(255,241,169);"/>
                    <path d="M4528.27,671.128C4530.97,671.128 4533.16,673.319 4533.16,676.018C4533.16,678.716 4530.97,680.907 4528.27,680.907C4525.57,680.907 4523.38,678.716 4523.38,676.018C4523.38,673.319 4525.57,671.128 4528.27,671.128ZM4528.27,672.128C4530.41,672.128 4532.16,673.871 4532.16,676.018C4532.16,678.164 4530.41,679.907 4528.27,679.907C4526.12,679.907 4524.38,678.164 4524.38,676.018C4524.38,673.871 4526.12,672.128 4528.27,672.128Z" style="fill:rgb(209,195,106);"/>
                </g>
                <g transform="matrix(-0.740787,0.410772,-0.333752,-0.911738,6220.8,-674.769)">
                    <circle cx="4528.27" cy="676.018" r="4.889" style="fill:rgb(255,241,169);"/>
                    <path d="M4528.27,671.128C4530.97,671.128 4533.16,673.319 4533.16,676.018C4533.16,678.716 4530.97,680.907 4528.27,680.907C4525.57,680.907 4523.38,678.716 4523.38,676.018C4523.38,673.319 4525.57,671.128 4528.27,671.128ZM4528.27,672.128C4530.41,672.128 4532.16,673.871 4532.16,676.018C4532.16,678.164 4530.41,679.907 4528.27,679.907C4526.12,679.907 4524.38,678.164 4524.38,676.018C4524.38,673.871 4526.12,672.128 4528.27,672.128L4528.27,672.128Z" style="fill:rgb(209,195,106);"/>
                </g>
                <g transform="matrix(-0.740787,0.410772,-0.333752,-0.911738,6230.95,-670.196)">
                    <circle cx="4528.27" cy="676.018" r="4.889" style="fill:rgb(255,241,169);"/>
                    <path d="M4528.27,671.128C4530.97,671.128 4533.16,673.319 4533.16,676.018C4533.16,678.716 4530.97,680.907 4528.27,680.907C4525.57,680.907 4523.38,678.716 4523.38,676.018C4523.38,673.319 4525.57,671.128 4528.27,671.128ZM4528.27,672.128C4530.41,672.128 4532.16,673.871 4532.16,676.018C4532.16,678.164 4530.41,679.907 4528.27,679.907C4526.12,679.907 4524.38,678.164 4524.38,676.018C4524.38,673.871 4526.12,672.128 4528.27,672.128L4528.27,672.128Z" style="fill:rgb(209,195,106);"/>
                </g>
                <g transform="matrix(-0.740787,0.410772,-0.333752,-0.911738,6245.81,-648.382)">
                    <circle cx="4528.27" cy="676.018" r="4.889" style="fill:rgb(255,241,169);"/>
                    <path d="M4528.27,671.128C4530.97,671.128 4533.16,673.319 4533.16,676.018C4533.16,678.716 4530.97,680.907 4528.27,680.907C4525.57,680.907 4523.38,678.716 4523.38,676.018C4523.38,673.319 4525.57,671.128 4528.27,671.128ZM4528.27,672.128C4530.41,672.128 4532.16,673.871 4532.16,676.018C4532.16,678.164 4530.41,679.907 4528.27,679.907C4526.12,679.907 4524.38,678.164 4524.38,676.018C4524.38,673.871 4526.12,672.128 4528.27,672.128Z" style="fill:rgb(209,195,106);"/>
                </g>
                <g transform="matrix(-0.740787,0.410772,-0.333752,-0.911738,6240.63,-647.118)">
                    <circle cx="4528.27" cy="676.018" r="4.889" style="fill:rgb(255,241,169);"/>
                    <path d="M4528.27,671.128C4530.97,671.128 4533.16,673.319 4533.16,676.018C4533.16,678.716 4530.97,680.907 4528.27,680.907C4525.57,680.907 4523.38,678.716 4523.38,676.018C4523.38,673.319 4525.57,671.128 4528.27,671.128ZM4528.27,672.128C4530.41,672.128 4532.16,673.871 4532.16,676.018C4532.16,678.164 4530.41,679.907 4528.27,679.907C4526.12,679.907 4524.38,678.164 4524.38,676.018C4524.38,673.871 4526.12,672.128 4528.27,672.128L4528.27,672.128Z" style="fill:rgb(209,195,106);"/>
                </g>
                <g transform="matrix(-0.740787,0.410772,-0.333752,-0.911738,6226.27,-656.011)">
                    <circle cx="4528.27" cy="676.018" r="4.889" style="fill:rgb(255,241,169);"/>
                    <path d="M4528.27,671.128C4530.97,671.128 4533.16,673.319 4533.16,676.018C4533.16,678.716 4530.97,680.907 4528.27,680.907C4525.57,680.907 4523.38,678.716 4523.38,676.018C4523.38,673.319 4525.57,671.128 4528.27,671.128ZM4528.27,672.128C4530.41,672.128 4532.16,673.871 4532.16,676.018C4532.16,678.164 4530.41,679.907 4528.27,679.907C4526.12,679.907 4524.38,678.164 4524.38,676.018C4524.38,673.871 4526.12,672.128 4528.27,672.128Z" style="fill:rgb(209,195,106);"/>
                </g>
                <g transform="matrix(-0.740787,0.410772,-0.333752,-0.911738,6234.97,-665.381)">
                    <circle cx="4528.27" cy="676.018" r="4.889" style="fill:rgb(255,241,169);"/>
                    <path d="M4528.27,671.128C4530.97,671.128 4533.16,673.319 4533.16,676.018C4533.16,678.716 4530.97,680.907 4528.27,680.907C4525.57,680.907 4523.38,678.716 4523.38,676.018C4523.38,673.319 4525.57,671.128 4528.27,671.128ZM4528.27,672.128C4530.41,672.128 4532.16,673.871 4532.16,676.018C4532.16,678.164 4530.41,679.907 4528.27,679.907C4526.12,679.907 4524.38,678.164 4524.38,676.018C4524.38,673.871 4526.12,672.128 4528.27,672.128Z" style="fill:rgb(209,195,106);"/>
                </g>
                <g transform="matrix(-0.740787,0.410772,-0.333752,-0.911738,6234.89,-644.442)">
                    <circle cx="4528.27" cy="676.018" r="4.889" style="fill:rgb(255,241,169);"/>
                    <path d="M4528.27,671.128C4530.97,671.128 4533.16,673.319 4533.16,676.018C4533.16,678.716 4530.97,680.907 4528.27,680.907C4525.57,680.907 4523.38,678.716 4523.38,676.018C4523.38,673.319 4525.57,671.128 4528.27,671.128ZM4528.27,672.128C4530.41,672.128 4532.16,673.871 4532.16,676.018C4532.16,678.164 4530.41,679.907 4528.27,679.907C4526.12,679.907 4524.38,678.164 4524.38,676.018C4524.38,673.871 4526.12,672.128 4528.27,672.128Z" style="fill:rgb(209,195,106);"/>
                </g>
                <g transform="matrix(-0.740787,0.410772,-0.333752,-0.911738,6218.33,-684.776)">
                    <circle cx="4528.27" cy="676.018" r="4.889" style="fill:rgb(255,241,169);"/>
                    <path d="M4528.27,671.128C4530.97,671.128 4533.16,673.319 4533.16,676.018C4533.16,678.716 4530.97,680.907 4528.27,680.907C4525.57,680.907 4523.38,678.716 4523.38,676.018C4523.38,673.319 4525.57,671.128 4528.27,671.128ZM4528.27,672.128C4530.41,672.128 4532.16,673.871 4532.16,676.018C4532.16,678.164 4530.41,679.907 4528.27,679.907C4526.12,679.907 4524.38,678.164 4524.38,676.018C4524.38,673.871 4526.12,672.128 4528.27,672.128Z" style="fill:rgb(209,195,106);"/>
                </g>
                <g transform="matrix(-0.740787,0.410772,-0.333752,-0.911738,6227.01,-669.069)">
                    <circle cx="4528.27" cy="676.018" r="4.889" style="fill:rgb(255,241,169);"/>
                    <path d="M4528.27,671.128C4530.97,671.128 4533.16,673.319 4533.16,676.018C4533.16,678.716 4530.97,680.907 4528.27,680.907C4525.57,680.907 4523.38,678.716 4523.38,676.018C4523.38,673.319 4525.57,671.128 4528.27,671.128ZM4528.27,672.128C4530.41,672.128 4532.16,673.871 4532.16,676.018C4532.16,678.164 4530.41,679.907 4528.27,679.907C4526.12,679.907 4524.38,678.164 4524.38,676.018C4524.38,673.871 4526.12,672.128 4528.27,672.128L4528.27,672.128Z" style="fill:rgb(209,195,106);"/>
                </g>
                <g transform="matrix(-0.740787,0.410772,-0.333752,-0.911738,6217.5,-697.872)">
                    <circle cx="4528.27" cy="676.018" r="4.889" style="fill:rgb(255,241,169);"/>
                    <path d="M4528.27,671.128C4530.97,671.128 4533.16,673.319 4533.16,676.018C4533.16,678.716 4530.97,680.907 4528.27,680.907C4525.57,680.907 4523.38,678.716 4523.38,676.018C4523.38,673.319 4525.57,671.128 4528.27,671.128ZM4528.27,672.128C4530.41,672.128 4532.16,673.871 4532.16,676.018C4532.16,678.164 4530.41,679.907 4528.27,679.907C4526.12,679.907 4524.38,678.164 4524.38,676.018C4524.38,673.871 4526.12,672.128 4528.27,672.128Z" style="fill:rgb(209,195,106);"/>
                </g>
                <g transform="matrix(-0.740787,0.410772,-0.333752,-0.911738,6239.45,-655.193)">
                    <circle cx="4528.27" cy="676.018" r="4.889" style="fill:rgb(255,241,169);"/>
                    <path d="M4528.27,671.128C4530.97,671.128 4533.16,673.319 4533.16,676.018C4533.16,678.716 4530.97,680.907 4528.27,680.907C4525.57,680.907 4523.38,678.716 4523.38,676.018C4523.38,673.319 4525.57,671.128 4528.27,671.128ZM4528.27,672.128C4530.41,672.128 4532.16,673.871 4532.16,676.018C4532.16,678.164 4530.41,679.907 4528.27,679.907C4526.12,679.907 4524.38,678.164 4524.38,676.018C4524.38,673.871 4526.12,672.128 4528.27,672.128L4528.27,672.128Z" style="fill:rgb(209,195,106);"/>
                </g>
                <g transform="matrix(-0.740787,0.410772,-0.333752,-0.911738,6215.99,-678.035)">
                    <circle cx="4528.27" cy="676.018" r="4.889" style="fill:rgb(255,241,169);"/>
                    <path d="M4528.27,671.128C4530.97,671.128 4533.16,673.319 4533.16,676.018C4533.16,678.716 4530.97,680.907 4528.27,680.907C4525.57,680.907 4523.38,678.716 4523.38,676.018C4523.38,673.319 4525.57,671.128 4528.27,671.128ZM4528.27,672.128C4530.41,672.128 4532.16,673.871 4532.16,676.018C4532.16,678.164 4530.41,679.907 4528.27,679.907C4526.12,679.907 4524.38,678.164 4524.38,676.018C4524.38,673.871 4526.12,672.128 4528.27,672.128Z" style="fill:rgb(209,195,106);"/>
                </g>
                <g transform="matrix(-0.740787,0.410772,-0.333752,-0.911738,6234.36,-660.911)">
                    <circle cx="4528.27" cy="676.018" r="4.889" style="fill:rgb(255,241,169);"/>
                    <path d="M4528.27,671.128C4530.97,671.128 4533.16,673.319 4533.16,676.018C4533.16,678.716 4530.97,680.907 4528.27,680.907C4525.57,680.907 4523.38,678.716 4523.38,676.018C4523.38,673.319 4525.57,671.128 4528.27,671.128ZM4528.27,672.128C4530.41,672.128 4532.16,673.871 4532.16,676.018C4532.16,678.164 4530.41,679.907 4528.27,679.907C4526.12,679.907 4524.38,678.164 4524.38,676.018C4524.38,673.871 4526.12,672.128 4528.27,672.128Z" style="fill:rgb(209,195,106);"/>
                </g>
                <g transform="matrix(-0.740787,0.410772,-0.333752,-0.911738,6221,-667.207)">
                    <circle cx="4528.27" cy="676.018" r="4.889" style="fill:rgb(255,241,169);"/>
                    <path d="M4528.27,671.128C4530.97,671.128 4533.16,673.319 4533.16,676.018C4533.16,678.716 4530.97,680.907 4528.27,680.907C4525.57,680.907 4523.38,678.716 4523.38,676.018C4523.38,673.319 4525.57,671.128 4528.27,671.128ZM4528.27,672.128C4530.41,672.128 4532.16,673.871 4532.16,676.018C4532.16,678.164 4530.41,679.907 4528.27,679.907C4526.12,679.907 4524.38,678.164 4524.38,676.018C4524.38,673.871 4526.12,672.128 4528.27,672.128Z" style="fill:rgb(209,195,106);"/>
                </g>
                <g transform="matrix(-0.740787,0.410772,-0.333752,-0.911738,6229.81,-660.143)">
                    <circle cx="4528.27" cy="676.018" r="4.889" style="fill:rgb(255,241,169);"/>
                    <path d="M4528.27,671.128C4530.97,671.128 4533.16,673.319 4533.16,676.018C4533.16,678.716 4530.97,680.907 4528.27,680.907C4525.57,680.907 4523.38,678.716 4523.38,676.018C4523.38,673.319 4525.57,671.128 4528.27,671.128ZM4528.27,672.128C4530.41,672.128 4532.16,673.871 4532.16,676.018C4532.16,678.164 4530.41,679.907 4528.27,679.907C4526.12,679.907 4524.38,678.164 4524.38,676.018C4524.38,673.871 4526.12,672.128 4528.27,672.128Z" style="fill:rgb(209,195,106);"/>
                </g>
                <g transform="matrix(-0.740787,0.410772,-0.333752,-0.911738,6224.84,-663.117)">
                    <circle cx="4528.27" cy="676.018" r="4.889" style="fill:rgb(255,241,169);"/>
                    <path d="M4528.27,671.128C4530.97,671.128 4533.16,673.319 4533.16,676.018C4533.16,678.716 4530.97,680.907 4528.27,680.907C4525.57,680.907 4523.38,678.716 4523.38,676.018C4523.38,673.319 4525.57,671.128 4528.27,671.128ZM4528.27,672.128C4530.41,672.128 4532.16,673.871 4532.16,676.018C4532.16,678.164 4530.41,679.907 4528.27,679.907C4526.12,679.907 4524.38,678.164 4524.38,676.018C4524.38,673.871 4526.12,672.128 4528.27,672.128Z" style="fill:rgb(209,195,106);"/>
                </g>
                <g transform="matrix(-0.740787,0.410772,-0.333752,-0.911738,6232.69,-665.6)">
                    <circle cx="4528.27" cy="676.018" r="4.889" style="fill:rgb(255,241,169);"/>
                    <path d="M4528.27,671.128C4530.97,671.128 4533.16,673.319 4533.16,676.018C4533.16,678.716 4530.97,680.907 4528.27,680.907C4525.57,680.907 4523.38,678.716 4523.38,676.018C4523.38,673.319 4525.57,671.128 4528.27,671.128ZM4528.27,672.128C4530.41,672.128 4532.16,673.871 4532.16,676.018C4532.16,678.164 4530.41,679.907 4528.27,679.907C4526.12,679.907 4524.38,678.164 4524.38,676.018C4524.38,673.871 4526.12,672.128 4528.27,672.128L4528.27,672.128Z" style="fill:rgb(209,195,106);"/>
                </g>
                <g transform="matrix(-0.740787,0.410772,-0.333752,-0.911738,6211.57,-688.591)">
                    <circle cx="4528.27" cy="676.018" r="4.889" style="fill:rgb(255,241,169);"/>
                    <path d="M4528.27,671.128C4530.97,671.128 4533.16,673.319 4533.16,676.018C4533.16,678.716 4530.97,680.907 4528.27,680.907C4525.57,680.907 4523.38,678.716 4523.38,676.018C4523.38,673.319 4525.57,671.128 4528.27,671.128ZM4528.27,672.128C4530.41,672.128 4532.16,673.871 4532.16,676.018C4532.16,678.164 4530.41,679.907 4528.27,679.907C4526.12,679.907 4524.38,678.164 4524.38,676.018C4524.38,673.871 4526.12,672.128 4528.27,672.128L4528.27,672.128Z" style="fill:rgb(209,195,106);"/>
                </g>
                <g transform="matrix(-0.740787,0.410772,-0.333752,-0.911738,6228.87,-649.486)">
                    <circle cx="4528.27" cy="676.018" r="4.889" style="fill:rgb(255,241,169);"/>
                    <path d="M4528.27,671.128C4530.97,671.128 4533.16,673.319 4533.16,676.018C4533.16,678.716 4530.97,680.907 4528.27,680.907C4525.57,680.907 4523.38,678.716 4523.38,676.018C4523.38,673.319 4525.57,671.128 4528.27,671.128ZM4528.27,672.128C4530.41,672.128 4532.16,673.871 4532.16,676.018C4532.16,678.164 4530.41,679.907 4528.27,679.907C4526.12,679.907 4524.38,678.164 4524.38,676.018C4524.38,673.871 4526.12,672.128 4528.27,672.128L4528.27,672.128Z" style="fill:rgb(209,195,106);"/>
                </g>
                <g transform="matrix(-0.740787,0.410772,-0.333752,-0.911738,6219.05,-654.523)">
                    <circle cx="4528.27" cy="676.018" r="4.889" style="fill:rgb(255,241,169);"/>
                    <path d="M4528.27,671.128C4530.97,671.128 4533.16,673.319 4533.16,676.018C4533.16,678.716 4530.97,680.907 4528.27,680.907C4525.57,680.907 4523.38,678.716 4523.38,676.018C4523.38,673.319 4525.57,671.128 4528.27,671.128ZM4528.27,672.128C4530.41,672.128 4532.16,673.871 4532.16,676.018C4532.16,678.164 4530.41,679.907 4528.27,679.907C4526.12,679.907 4524.38,678.164 4524.38,676.018C4524.38,673.871 4526.12,672.128 4528.27,672.128L4528.27,672.128Z" style="fill:rgb(209,195,106);"/>
                </g>
                <g transform="matrix(-0.740787,0.410772,-0.333752,-0.911738,6244.37,-644.169)">
                    <circle cx="4528.27" cy="676.018" r="4.889" style="fill:rgb(255,241,169);"/>
                    <path d="M4528.27,671.128C4530.97,671.128 4533.16,673.319 4533.16,676.018C4533.16,678.716 4530.97,680.907 4528.27,680.907C4525.57,680.907 4523.38,678.716 4523.38,676.018C4523.38,673.319 4525.57,671.128 4528.27,671.128ZM4528.27,672.128C4530.41,672.128 4532.16,673.871 4532.16,676.018C4532.16,678.164 4530.41,679.907 4528.27,679.907C4526.12,679.907 4524.38,678.164 4524.38,676.018C4524.38,673.871 4526.12,672.128 4528.27,672.128L4528.27,672.128Z" style="fill:rgb(209,195,106);"/>
                </g>
                <g transform="matrix(-0.740787,0.410772,-0.333752,-0.911738,6233.09,-652.703)">
                    <circle cx="4528.27" cy="676.018" r="4.889" style="fill:rgb(255,241,169);"/>
                    <path d="M4528.27,671.128C4530.97,671.128 4533.16,673.319 4533.16,676.018C4533.16,678.716 4530.97,680.907 4528.27,680.907C4525.57,680.907 4523.38,678.716 4523.38,676.018C4523.38,673.319 4525.57,671.128 4528.27,671.128ZM4528.27,672.128C4530.41,672.128 4532.16,673.871 4532.16,676.018C4532.16,678.164 4530.41,679.907 4528.27,679.907C4526.12,679.907 4524.38,678.164 4524.38,676.018C4524.38,673.871 4526.12,672.128 4528.27,672.128Z" style="fill:rgb(209,195,106);"/>
                </g>
                <g transform="matrix(-0.740787,0.410772,-0.333752,-0.911738,6211.2,-694.783)">
                    <circle cx="4528.27" cy="676.018" r="4.889" style="fill:rgb(255,241,169);"/>
                    <path d="M4528.27,671.128C4530.97,671.128 4533.16,673.319 4533.16,676.018C4533.16,678.716 4530.97,680.907 4528.27,680.907C4525.57,680.907 4523.38,678.716 4523.38,676.018C4523.38,673.319 4525.57,671.128 4528.27,671.128ZM4528.27,672.128C4530.41,672.128 4532.16,673.871 4532.16,676.018C4532.16,678.164 4530.41,679.907 4528.27,679.907C4526.12,679.907 4524.38,678.164 4524.38,676.018C4524.38,673.871 4526.12,672.128 4528.27,672.128L4528.27,672.128Z" style="fill:rgb(209,195,106);"/>
                </g>
                <g transform="matrix(-0.740787,0.410772,-0.333752,-0.911738,6228.44,-689.37)">
                    <circle cx="4528.27" cy="676.018" r="4.889" style="fill:rgb(255,241,169);"/>
                    <path d="M4528.27,671.128C4530.97,671.128 4533.16,673.319 4533.16,676.018C4533.16,678.716 4530.97,680.907 4528.27,680.907C4525.57,680.907 4523.38,678.716 4523.38,676.018C4523.38,673.319 4525.57,671.128 4528.27,671.128ZM4528.27,672.128C4530.41,672.128 4532.16,673.871 4532.16,676.018C4532.16,678.164 4530.41,679.907 4528.27,679.907C4526.12,679.907 4524.38,678.164 4524.38,676.018C4524.38,673.871 4526.12,672.128 4528.27,672.128Z" style="fill:rgb(209,195,106);"/>
                </g>
                <g transform="matrix(-0.740787,0.410772,-0.333752,-0.911738,6226.76,-675.063)">
                    <circle cx="4528.27" cy="676.018" r="4.889" style="fill:rgb(255,241,169);"/>
                    <path d="M4528.27,671.128C4530.97,671.128 4533.16,673.319 4533.16,676.018C4533.16,678.716 4530.97,680.907 4528.27,680.907C4525.57,680.907 4523.38,678.716 4523.38,676.018C4523.38,673.319 4525.57,671.128 4528.27,671.128ZM4528.27,672.128C4530.41,672.128 4532.16,673.871 4532.16,676.018C4532.16,678.164 4530.41,679.907 4528.27,679.907C4526.12,679.907 4524.38,678.164 4524.38,676.018C4524.38,673.871 4526.12,672.128 4528.27,672.128L4528.27,672.128Z" style="fill:rgb(209,195,106);"/>
                </g>
                <g transform="matrix(-0.740787,0.410772,-0.333752,-0.911738,6223.32,-686.154)">
                    <circle cx="4528.27" cy="676.018" r="4.889" style="fill:rgb(255,241,169);"/>
                    <path d="M4528.27,671.128C4530.97,671.128 4533.16,673.319 4533.16,676.018C4533.16,678.716 4530.97,680.907 4528.27,680.907C4525.57,680.907 4523.38,678.716 4523.38,676.018C4523.38,673.319 4525.57,671.128 4528.27,671.128ZM4528.27,672.128C4530.41,672.128 4532.16,673.871 4532.16,676.018C4532.16,678.164 4530.41,679.907 4528.27,679.907C4526.12,679.907 4524.38,678.164 4524.38,676.018C4524.38,673.871 4526.12,672.128 4528.27,672.128Z" style="fill:rgb(209,195,106);"/>
                </g>
                <g transform="matrix(-0.740787,0.410772,-0.333752,-0.911738,6234.59,-677.267)">
                    <circle cx="4528.27" cy="676.018" r="4.889" style="fill:rgb(255,241,169);"/>
                    <path d="M4528.27,671.128C4530.97,671.128 4533.16,673.319 4533.16,676.018C4533.16,678.716 4530.97,680.907 4528.27,680.907C4525.57,680.907 4523.38,678.716 4523.38,676.018C4523.38,673.319 4525.57,671.128 4528.27,671.128ZM4528.27,672.128C4530.41,672.128 4532.16,673.871 4532.16,676.018C4532.16,678.164 4530.41,679.907 4528.27,679.907C4526.12,679.907 4524.38,678.164 4524.38,676.018C4524.38,673.871 4526.12,672.128 4528.27,672.128L4528.27,672.128Z" style="fill:rgb(209,195,106);"/>
                </g>
                <g transform="matrix(0.8125,-2.77556e-17,8.32667e-17,1,-1085.47,-122.548)">
                    <circle cx="4528.27" cy="676.018" r="4.889" style="fill:rgb(209,235,206);"/>
                    <path d="M4528.27,671.128C4530.97,671.128 4533.16,673.319 4533.16,676.018C4533.16,678.716 4530.97,680.907 4528.27,680.907C4525.57,680.907 4523.38,678.716 4523.38,676.018C4523.38,673.319 4525.57,671.128 4528.27,671.128ZM4528.27,672.128C4530.41,672.128 4532.16,673.871 4532.16,676.018C4532.16,678.164 4530.41,679.907 4528.27,679.907C4526.12,679.907 4524.38,678.164 4524.38,676.018C4524.38,673.871 4526.12,672.128 4528.27,672.128Z" style="fill:rgb(171,195,161);"/>
                </g>
                <g transform="matrix(0.8125,-2.77556e-17,8.32667e-17,1,-1122.69,-204.547)">
                    <circle cx="4528.27" cy="676.018" r="4.889" style="fill:rgb(238,212,197);"/>
                    <path d="M4528.27,671.128C4530.97,671.128 4533.16,673.319 4533.16,676.018C4533.16,678.716 4530.97,680.907 4528.27,680.907C4525.57,680.907 4523.38,678.716 4523.38,676.018C4523.38,673.319 4525.57,671.128 4528.27,671.128ZM4528.27,672.128C4530.41,672.128 4532.16,673.871 4532.16,676.018C4532.16,678.164 4530.41,679.907 4528.27,679.907C4526.12,679.907 4524.38,678.164 4524.38,676.018C4524.38,673.871 4526.12,672.128 4528.27,672.128Z" style="fill:rgb(201,138,147);"/>
                </g>
                <g transform="matrix(0.8125,-2.77556e-17,8.32667e-17,1,-1118.72,-185.553)">
                    <circle cx="4528.27" cy="676.018" r="4.889" style="fill:rgb(238,212,197);"/>
                    <path d="M4528.27,671.128C4530.97,671.128 4533.16,673.319 4533.16,676.018C4533.16,678.716 4530.97,680.907 4528.27,680.907C4525.57,680.907 4523.38,678.716 4523.38,676.018C4523.38,673.319 4525.57,671.128 4528.27,671.128ZM4528.27,672.128C4530.41,672.128 4532.16,673.871 4532.16,676.018C4532.16,678.164 4530.41,679.907 4528.27,679.907C4526.12,679.907 4524.38,678.164 4524.38,676.018C4524.38,673.871 4526.12,672.128 4528.27,672.128Z" style="fill:rgb(201,138,147);"/>
                </g>
                <g transform="matrix(0.8125,-2.77556e-17,8.32667e-17,1,-1103.19,-155.255)">
                    <circle cx="4528.27" cy="676.018" r="4.889" style="fill:rgb(209,235,206);"/>
                    <path d="M4528.27,671.128C4530.97,671.128 4533.16,673.319 4533.16,676.018C4533.16,678.716 4530.97,680.907 4528.27,680.907C4525.57,680.907 4523.38,678.716 4523.38,676.018C4523.38,673.319 4525.57,671.128 4528.27,671.128ZM4528.27,672.128C4530.41,672.128 4532.16,673.871 4532.16,676.018C4532.16,678.164 4530.41,679.907 4528.27,679.907C4526.12,679.907 4524.38,678.164 4524.38,676.018C4524.38,673.871 4526.12,672.128 4528.27,672.128Z" style="fill:rgb(171,195,161);"/>
                </g>
                <g transform="matrix(0.8125,-2.77556e-17,8.32667e-17,1,-1101.77,-162.421)">
                    <circle cx="4528.27" cy="676.018" r="4.889" style="fill:rgb(209,235,206);"/>
                    <path d="M4528.27,671.128C4530.97,671.128 4533.16,673.319 4533.16,676.018C4533.16,678.716 4530.97,680.907 4528.27,680.907C4525.57,680.907 4523.38,678.716 4523.38,676.018C4523.38,673.319 4525.57,671.128 4528.27,671.128ZM4528.27,672.128C4530.41,672.128 4532.16,673.871 4532.16,676.018C4532.16,678.164 4530.41,679.907 4528.27,679.907C4526.12,679.907 4524.38,678.164 4524.38,676.018C4524.38,673.871 4526.12,672.128 4528.27,672.128Z" style="fill:rgb(171,195,161);"/>
                </g>
                <g transform="matrix(0.8125,-2.77556e-17,8.32667e-17,1,-1097.95,-153.355)">
                    <circle cx="4528.27" cy="676.018" r="4.889" style="fill:rgb(209,235,206);"/>
                    <path d="M4528.27,671.128C4530.97,671.128 4533.16,673.319 4533.16,676.018C4533.16,678.716 4530.97,680.907 4528.27,680.907C4525.57,680.907 4523.38,678.716 4523.38,676.018C4523.38,673.319 4525.57,671.128 4528.27,671.128ZM4528.27,672.128C4530.41,672.128 4532.16,673.871 4532.16,676.018C4532.16,678.164 4530.41,679.907 4528.27,679.907C4526.12,679.907 4524.38,678.164 4524.38,676.018C4524.38,673.871 4526.12,672.128 4528.27,672.128Z" style="fill:rgb(171,195,161);"/>
                </g>
                <g transform="matrix(0.8125,-2.77556e-17,8.32667e-17,1,-1096.07,-164.368)">
                    <circle cx="4528.27" cy="676.018" r="4.889" style="fill:rgb(238,212,197);"/>
                    <path d="M4528.27,671.128C4530.97,671.128 4533.16,673.319 4533.16,676.018C4533.16,678.716 4530.97,680.907 4528.27,680.907C4525.57,680.907 4523.38,678.716 4523.38,676.018C4523.38,673.319 4525.57,671.128 4528.27,671.128ZM4528.27,672.128C4530.41,672.128 4532.16,673.871 4532.16,676.018C4532.16,678.164 4530.41,679.907 4528.27,679.907C4526.12,679.907 4524.38,678.164 4524.38,676.018C4524.38,673.871 4526.12,672.128 4528.27,672.128Z" style="fill:rgb(201,138,147);"/>
                </g>
                <g transform="matrix(0.8125,-2.77556e-17,8.32667e-17,1,-1090.37,-137.06)">
                    <circle cx="4528.27" cy="676.018" r="4.889" style="fill:rgb(209,235,206);"/>
                    <path d="M4528.27,671.128C4530.97,671.128 4533.16,673.319 4533.16,676.018C4533.16,678.716 4530.97,680.907 4528.27,680.907C4525.57,680.907 4523.38,678.716 4523.38,676.018C4523.38,673.319 4525.57,671.128 4528.27,671.128ZM4528.27,672.128C4530.41,672.128 4532.16,673.871 4532.16,676.018C4532.16,678.164 4530.41,679.907 4528.27,679.907C4526.12,679.907 4524.38,678.164 4524.38,676.018C4524.38,673.871 4526.12,672.128 4528.27,672.128Z" style="fill:rgb(171,195,161);"/>
                </g>
                <g transform="matrix(0.8125,-2.77556e-17,8.32667e-17,1,-1082.95,-133.335)">
                    <circle cx="4528.27" cy="676.018" r="4.889" style="fill:rgb(209,235,206);"/>
                    <path d="M4528.27,671.128C4530.97,671.128 4533.16,673.319 4533.16,676.018C4533.16,678.716 4530.97,680.907 4528.27,680.907C4525.57,680.907 4523.38,678.716 4523.38,676.018C4523.38,673.319 4525.57,671.128 4528.27,671.128ZM4528.27,672.128C4530.41,672.128 4532.16,673.871 4532.16,676.018C4532.16,678.164 4530.41,679.907 4528.27,679.907C4526.12,679.907 4524.38,678.164 4524.38,676.018C4524.38,673.871 4526.12,672.128 4528.27,672.128Z" style="fill:rgb(171,195,161);"/>
                </g>
                <g transform="matrix(0.8125,-2.77556e-17,8.32667e-17,1,-1079.52,-122.638)">
                    <circle cx="4528.27" cy="676.018" r="4.889" style="fill:rgb(209,235,206);"/>
                    <path d="M4528.27,671.128C4530.97,671.128 4533.16,673.319 4533.16,676.018C4533.16,678.716 4530.97,680.907 4528.27,680.907C4525.57,680.907 4523.38,678.716 4523.38,676.018C4523.38,673.319 4525.57,671.128 4528.27,671.128ZM4528.27,672.128C4530.41,672.128 4532.16,673.871 4532.16,676.018C4532.16,678.164 4530.41,679.907 4528.27,679.907C4526.12,679.907 4524.38,678.164 4524.38,676.018C4524.38,673.871 4526.12,672.128 4528.27,672.128Z" style="fill:rgb(171,195,161);"/>
                </g>
                <g transform="matrix(0.8125,-2.77556e-17,8.32667e-17,1,-1075.78,-113.26)">
                    <circle cx="4528.27" cy="676.018" r="4.889" style="fill:rgb(209,235,206);"/>
                    <path d="M4528.27,671.128C4530.97,671.128 4533.16,673.319 4533.16,676.018C4533.16,678.716 4530.97,680.907 4528.27,680.907C4525.57,680.907 4523.38,678.716 4523.38,676.018C4523.38,673.319 4525.57,671.128 4528.27,671.128ZM4528.27,672.128C4530.41,672.128 4532.16,673.871 4532.16,676.018C4532.16,678.164 4530.41,679.907 4528.27,679.907C4526.12,679.907 4524.38,678.164 4524.38,676.018C4524.38,673.871 4526.12,672.128 4528.27,672.128Z" style="fill:rgb(171,195,161);"/>
                </g>
                <g transform="matrix(0.8125,-2.77556e-17,8.32667e-17,1,-1071.8,-108.782)">
                    <circle cx="4528.27" cy="676.018" r="4.889" style="fill:rgb(209,235,206);"/>
                    <path d="M4528.27,671.128C4530.97,671.128 4533.16,673.319 4533.16,676.018C4533.16,678.716 4530.97,680.907 4528.27,680.907C4525.57,680.907 4523.38,678.716 4523.38,676.018C4523.38,673.319 4525.57,671.128 4528.27,671.128ZM4528.27,672.128C4530.41,672.128 4532.16,673.871 4532.16,676.018C4532.16,678.164 4530.41,679.907 4528.27,679.907C4526.12,679.907 4524.38,678.164 4524.38,676.018C4524.38,673.871 4526.12,672.128 4528.27,672.128Z" style="fill:rgb(171,195,161);"/>
                </g>
                <g transform="matrix(0.8125,-2.77556e-17,8.32667e-17,1,-1072.23,-96.9056)">
                    <circle cx="4528.27" cy="676.018" r="4.889" style="fill:rgb(255,241,169);"/>
                    <path d="M4528.27,671.128C4530.97,671.128 4533.16,673.319 4533.16,676.018C4533.16,678.716 4530.97,680.907 4528.27,680.907C4525.57,680.907 4523.38,678.716 4523.38,676.018C4523.38,673.319 4525.57,671.128 4528.27,671.128ZM4528.27,672.128C4530.41,672.128 4532.16,673.871 4532.16,676.018C4532.16,678.164 4530.41,679.907 4528.27,679.907C4526.12,679.907 4524.38,678.164 4524.38,676.018C4524.38,673.871 4526.12,672.128 4528.27,672.128Z" style="fill:rgb(209,195,106);"/>
                </g>
                <g transform="matrix(0.8125,-2.77556e-17,8.32667e-17,1,-1084.35,-100.795)">
                    <circle cx="4528.27" cy="676.018" r="4.889" style="fill:rgb(255,241,169);"/>
                    <path d="M4528.27,671.128C4530.97,671.128 4533.16,673.319 4533.16,676.018C4533.16,678.716 4530.97,680.907 4528.27,680.907C4525.57,680.907 4523.38,678.716 4523.38,676.018C4523.38,673.319 4525.57,671.128 4528.27,671.128ZM4528.27,672.128C4530.41,672.128 4532.16,673.871 4532.16,676.018C4532.16,678.164 4530.41,679.907 4528.27,679.907C4526.12,679.907 4524.38,678.164 4524.38,676.018C4524.38,673.871 4526.12,672.128 4528.27,672.128Z" style="fill:rgb(209,195,106);"/>
                </g>
                <g transform="matrix(0.8125,-2.77556e-17,8.32667e-17,1,-1089.56,-115.575)">
                    <circle cx="4528.27" cy="676.018" r="4.889" style="fill:rgb(209,235,206);"/>
                    <path d="M4528.27,671.128C4530.97,671.128 4533.16,673.319 4533.16,676.018C4533.16,678.716 4530.97,680.907 4528.27,680.907C4525.57,680.907 4523.38,678.716 4523.38,676.018C4523.38,673.319 4525.57,671.128 4528.27,671.128ZM4528.27,672.128C4530.41,672.128 4532.16,673.871 4532.16,676.018C4532.16,678.164 4530.41,679.907 4528.27,679.907C4526.12,679.907 4524.38,678.164 4524.38,676.018C4524.38,673.871 4526.12,672.128 4528.27,672.128Z" style="fill:rgb(171,195,161);"/>
                </g>
                <g transform="matrix(0.8125,-2.77556e-17,8.32667e-17,1,-1086.23,-129.983)">
                    <circle cx="4528.27" cy="676.018" r="4.889" style="fill:rgb(209,235,206);"/>
                    <path d="M4528.27,671.128C4530.97,671.128 4533.16,673.319 4533.16,676.018C4533.16,678.716 4530.97,680.907 4528.27,680.907C4525.57,680.907 4523.38,678.716 4523.38,676.018C4523.38,673.319 4525.57,671.128 4528.27,671.128ZM4528.27,672.128C4530.41,672.128 4532.16,673.871 4532.16,676.018C4532.16,678.164 4530.41,679.907 4528.27,679.907C4526.12,679.907 4524.38,678.164 4524.38,676.018C4524.38,673.871 4526.12,672.128 4528.27,672.128Z" style="fill:rgb(171,195,161);"/>
                </g>
                <g transform="matrix(0.8125,-2.77556e-17,8.32667e-17,1,-1078.66,-127.97)">
                    <circle cx="4528.27" cy="676.018" r="4.889" style="fill:rgb(209,235,206);"/>
                    <path d="M4528.27,671.128C4530.97,671.128 4533.16,673.319 4533.16,676.018C4533.16,678.716 4530.97,680.907 4528.27,680.907C4525.57,680.907 4523.38,678.716 4523.38,676.018C4523.38,673.319 4525.57,671.128 4528.27,671.128ZM4528.27,672.128C4530.41,672.128 4532.16,673.871 4532.16,676.018C4532.16,678.164 4530.41,679.907 4528.27,679.907C4526.12,679.907 4524.38,678.164 4524.38,676.018C4524.38,673.871 4526.12,672.128 4528.27,672.128Z" style="fill:rgb(171,195,161);"/>
                </g>
                <g transform="matrix(0.8125,-2.77556e-17,8.32667e-17,1,-1074.25,-123.611)">
                    <circle cx="4528.27" cy="676.018" r="4.889" style="fill:rgb(209,235,206);"/>
                    <path d="M4528.27,671.128C4530.97,671.128 4533.16,673.319 4533.16,676.018C4533.16,678.716 4530.97,680.907 4528.27,680.907C4525.57,680.907 4523.38,678.716 4523.38,676.018C4523.38,673.319 4525.57,671.128 4528.27,671.128ZM4528.27,672.128C4530.41,672.128 4532.16,673.871 4532.16,676.018C4532.16,678.164 4530.41,679.907 4528.27,679.907C4526.12,679.907 4524.38,678.164 4524.38,676.018C4524.38,673.871 4526.12,672.128 4528.27,672.128Z" style="fill:rgb(171,195,161);"/>
                </g>
                <g transform="matrix(0.8125,-2.77556e-17,8.32667e-17,1,-1084.08,-118.674)">
                    <circle cx="4528.27" cy="676.018" r="4.889" style="fill:rgb(209,235,206);"/>
                    <path d="M4528.27,671.128C4530.97,671.128 4533.16,673.319 4533.16,676.018C4533.16,678.716 4530.97,680.907 4528.27,680.907C4525.57,680.907 4523.38,678.716 4523.38,676.018C4523.38,673.319 4525.57,671.128 4528.27,671.128ZM4528.27,672.128C4530.41,672.128 4532.16,673.871 4532.16,676.018C4532.16,678.164 4530.41,679.907 4528.27,679.907C4526.12,679.907 4524.38,678.164 4524.38,676.018C4524.38,673.871 4526.12,672.128 4528.27,672.128Z" style="fill:rgb(171,195,161);"/>
                </g>
                <g transform="matrix(0.8125,-2.77556e-17,8.32667e-17,1,-1074.58,-117.81)">
                    <circle cx="4528.27" cy="676.018" r="4.889" style="fill:rgb(209,235,206);"/>
                    <path d="M4528.27,671.128C4530.97,671.128 4533.16,673.319 4533.16,676.018C4533.16,678.716 4530.97,680.907 4528.27,680.907C4525.57,680.907 4523.38,678.716 4523.38,676.018C4523.38,673.319 4525.57,671.128 4528.27,671.128ZM4528.27,672.128C4530.41,672.128 4532.16,673.871 4532.16,676.018C4532.16,678.164 4530.41,679.907 4528.27,679.907C4526.12,679.907 4524.38,678.164 4524.38,676.018C4524.38,673.871 4526.12,672.128 4528.27,672.128Z" style="fill:rgb(171,195,161);"/>
                </g>
                <g transform="matrix(0.8125,-2.77556e-17,8.32667e-17,1,-1066.59,-103.601)">
                    <circle cx="4528.27" cy="676.018" r="4.889" style="fill:rgb(209,235,206);"/>
                    <path d="M4528.27,671.128C4530.97,671.128 4533.16,673.319 4533.16,676.018C4533.16,678.716 4530.97,680.907 4528.27,680.907C4525.57,680.907 4523.38,678.716 4523.38,676.018C4523.38,673.319 4525.57,671.128 4528.27,671.128ZM4528.27,672.128C4530.41,672.128 4532.16,673.871 4532.16,676.018C4532.16,678.164 4530.41,679.907 4528.27,679.907C4526.12,679.907 4524.38,678.164 4524.38,676.018C4524.38,673.871 4526.12,672.128 4528.27,672.128Z" style="fill:rgb(171,195,161);"/>
                </g>
                <g transform="matrix(0.8125,-2.77556e-17,8.32667e-17,1,-1070.7,-99.1833)">
                    <circle cx="4528.27" cy="676.018" r="4.889" style="fill:rgb(255,241,169);"/>
                    <path d="M4528.27,671.128C4530.97,671.128 4533.16,673.319 4533.16,676.018C4533.16,678.716 4530.97,680.907 4528.27,680.907C4525.57,680.907 4523.38,678.716 4523.38,676.018C4523.38,673.319 4525.57,671.128 4528.27,671.128ZM4528.27,672.128C4530.41,672.128 4532.16,673.871 4532.16,676.018C4532.16,678.164 4530.41,679.907 4528.27,679.907C4526.12,679.907 4524.38,678.164 4524.38,676.018C4524.38,673.871 4526.12,672.128 4528.27,672.128Z" style="fill:rgb(209,195,106);"/>
                </g>
                <g transform="matrix(0.8125,-2.77556e-17,8.32667e-17,1,-1073.07,-105.378)">
                    <circle cx="4528.27" cy="676.018" r="4.889" style="fill:rgb(209,235,206);"/>
                    <path d="M4528.27,671.128C4530.97,671.128 4533.16,673.319 4533.16,676.018C4533.16,678.716 4530.97,680.907 4528.27,680.907C4525.57,680.907 4523.38,678.716 4523.38,676.018C4523.38,673.319 4525.57,671.128 4528.27,671.128ZM4528.27,672.128C4530.41,672.128 4532.16,673.871 4532.16,676.018C4532.16,678.164 4530.41,679.907 4528.27,679.907C4526.12,679.907 4524.38,678.164 4524.38,676.018C4524.38,673.871 4526.12,672.128 4528.27,672.128Z" style="fill:rgb(171,195,161);"/>
                </g>
                <g transform="matrix(0.8125,-2.77556e-17,8.32667e-17,1,-1115.81,-179.306)">
                    <circle cx="4528.27" cy="676.018" r="4.889" style="fill:rgb(238,212,197);"/>
                    <path d="M4528.27,671.128C4530.97,671.128 4533.16,673.319 4533.16,676.018C4533.16,678.716 4530.97,680.907 4528.27,680.907C4525.57,680.907 4523.38,678.716 4523.38,676.018C4523.38,673.319 4525.57,671.128 4528.27,671.128ZM4528.27,672.128C4530.41,672.128 4532.16,673.871 4532.16,676.018C4532.16,678.164 4530.41,679.907 4528.27,679.907C4526.12,679.907 4524.38,678.164 4524.38,676.018C4524.38,673.871 4526.12,672.128 4528.27,672.128Z" style="fill:rgb(201,138,147);"/>
                </g>
                <g transform="matrix(0.8125,-2.77556e-17,8.32667e-17,1,-1113.87,-184.682)">
                    <circle cx="4528.27" cy="676.018" r="4.889" style="fill:rgb(238,212,197);"/>
                    <path d="M4528.27,671.128C4530.97,671.128 4533.16,673.319 4533.16,676.018C4533.16,678.716 4530.97,680.907 4528.27,680.907C4525.57,680.907 4523.38,678.716 4523.38,676.018C4523.38,673.319 4525.57,671.128 4528.27,671.128ZM4528.27,672.128C4530.41,672.128 4532.16,673.871 4532.16,676.018C4532.16,678.164 4530.41,679.907 4528.27,679.907C4526.12,679.907 4524.38,678.164 4524.38,676.018C4524.38,673.871 4526.12,672.128 4528.27,672.128Z" style="fill:rgb(201,138,147);"/>
                </g>
                <g transform="matrix(0.8125,-2.77556e-17,8.32667e-17,1,-1113.38,-173.467)">
                    <circle cx="4528.27" cy="676.018" r="4.889" style="fill:rgb(238,212,197);"/>
                    <path d="M4528.27,671.128C4530.97,671.128 4533.16,673.319 4533.16,676.018C4533.16,678.716 4530.97,680.907 4528.27,680.907C4525.57,680.907 4523.38,678.716 4523.38,676.018C4523.38,673.319 4525.57,671.128 4528.27,671.128ZM4528.27,672.128C4530.41,672.128 4532.16,673.871 4532.16,676.018C4532.16,678.164 4530.41,679.907 4528.27,679.907C4526.12,679.907 4524.38,678.164 4524.38,676.018C4524.38,673.871 4526.12,672.128 4528.27,672.128Z" style="fill:rgb(201,138,147);"/>
                </g>
                <g transform="matrix(0.8125,-2.77556e-17,8.32667e-17,1,-1109.4,-179.254)">
                    <circle cx="4528.27" cy="676.018" r="4.889" style="fill:rgb(238,212,197);"/>
                    <path d="M4528.27,671.128C4530.97,671.128 4533.16,673.319 4533.16,676.018C4533.16,678.716 4530.97,680.907 4528.27,680.907C4525.57,680.907 4523.38,678.716 4523.38,676.018C4523.38,673.319 4525.57,671.128 4528.27,671.128ZM4528.27,672.128C4530.41,672.128 4532.16,673.871 4532.16,676.018C4532.16,678.164 4530.41,679.907 4528.27,679.907C4526.12,679.907 4524.38,678.164 4524.38,676.018C4524.38,673.871 4526.12,672.128 4528.27,672.128Z" style="fill:rgb(201,138,147);"/>
                </g>
                <g transform="matrix(0.8125,-2.77556e-17,8.32667e-17,1,-1110.92,-168.483)">
                    <circle cx="4528.27" cy="676.018" r="4.889" style="fill:rgb(238,212,197);"/>
                    <path d="M4528.27,671.128C4530.97,671.128 4533.16,673.319 4533.16,676.018C4533.16,678.716 4530.97,680.907 4528.27,680.907C4525.57,680.907 4523.38,678.716 4523.38,676.018C4523.38,673.319 4525.57,671.128 4528.27,671.128ZM4528.27,672.128C4530.41,672.128 4532.16,673.871 4532.16,676.018C4532.16,678.164 4530.41,679.907 4528.27,679.907C4526.12,679.907 4524.38,678.164 4524.38,676.018C4524.38,673.871 4526.12,672.128 4528.27,672.128Z" style="fill:rgb(201,138,147);"/>
                </g>
                <g transform="matrix(0.8125,-2.77556e-17,8.32667e-17,1,-1106.37,-173.124)">
                    <circle cx="4528.27" cy="676.018" r="4.889" style="fill:rgb(238,212,197);"/>
                    <path d="M4528.27,671.128C4530.97,671.128 4533.16,673.319 4533.16,676.018C4533.16,678.716 4530.97,680.907 4528.27,680.907C4525.57,680.907 4523.38,678.716 4523.38,676.018C4523.38,673.319 4525.57,671.128 4528.27,671.128ZM4528.27,672.128C4530.41,672.128 4532.16,673.871 4532.16,676.018C4532.16,678.164 4530.41,679.907 4528.27,679.907C4526.12,679.907 4524.38,678.164 4524.38,676.018C4524.38,673.871 4526.12,672.128 4528.27,672.128Z" style="fill:rgb(201,138,147);"/>
                </g>
                <g transform="matrix(0.8125,-2.77556e-17,8.32667e-17,1,-1104.27,-177.586)">
                    <circle cx="4528.27" cy="676.018" r="4.889" style="fill:rgb(238,212,197);"/>
                    <path d="M4528.27,671.128C4530.97,671.128 4533.16,673.319 4533.16,676.018C4533.16,678.716 4530.97,680.907 4528.27,680.907C4525.57,680.907 4523.38,678.716 4523.38,676.018C4523.38,673.319 4525.57,671.128 4528.27,671.128ZM4528.27,672.128C4530.41,672.128 4532.16,673.871 4532.16,676.018C4532.16,678.164 4530.41,679.907 4528.27,679.907C4526.12,679.907 4524.38,678.164 4524.38,676.018C4524.38,673.871 4526.12,672.128 4528.27,672.128Z" style="fill:rgb(201,138,147);"/>
                </g>
                <g transform="matrix(0.8125,-2.77556e-17,8.32667e-17,1,-1100.22,-172.725)">
                    <circle cx="4528.27" cy="676.018" r="4.889" style="fill:rgb(238,212,197);"/>
                    <path d="M4528.27,671.128C4530.97,671.128 4533.16,673.319 4533.16,676.018C4533.16,678.716 4530.97,680.907 4528.27,680.907C4525.57,680.907 4523.38,678.716 4523.38,676.018C4523.38,673.319 4525.57,671.128 4528.27,671.128ZM4528.27,672.128C4530.41,672.128 4532.16,673.871 4532.16,676.018C4532.16,678.164 4530.41,679.907 4528.27,679.907C4526.12,679.907 4524.38,678.164 4524.38,676.018C4524.38,673.871 4526.12,672.128 4528.27,672.128Z" style="fill:rgb(201,138,147);"/>
                </g>
                <g transform="matrix(0.8125,-2.77556e-17,8.32667e-17,1,-1104.6,-168.697)">
                    <circle cx="4528.27" cy="676.018" r="4.889" style="fill:rgb(238,212,197);"/>
                    <path d="M4528.27,671.128C4530.97,671.128 4533.16,673.319 4533.16,676.018C4533.16,678.716 4530.97,680.907 4528.27,680.907C4525.57,680.907 4523.38,678.716 4523.38,676.018C4523.38,673.319 4525.57,671.128 4528.27,671.128ZM4528.27,672.128C4530.41,672.128 4532.16,673.871 4532.16,676.018C4532.16,678.164 4530.41,679.907 4528.27,679.907C4526.12,679.907 4524.38,678.164 4524.38,676.018C4524.38,673.871 4526.12,672.128 4528.27,672.128Z" style="fill:rgb(201,138,147);"/>
                </g>
                <g transform="matrix(0.8125,-2.77556e-17,8.32667e-17,1,-1108.32,-161.943)">
                    <circle cx="4528.27" cy="676.018" r="4.889" style="fill:rgb(209,235,206);"/>
                    <path d="M4528.27,671.128C4530.97,671.128 4533.16,673.319 4533.16,676.018C4533.16,678.716 4530.97,680.907 4528.27,680.907C4525.57,680.907 4523.38,678.716 4523.38,676.018C4523.38,673.319 4525.57,671.128 4528.27,671.128ZM4528.27,672.128C4530.41,672.128 4532.16,673.871 4532.16,676.018C4532.16,678.164 4530.41,679.907 4528.27,679.907C4526.12,679.907 4524.38,678.164 4524.38,676.018C4524.38,673.871 4526.12,672.128 4528.27,672.128Z" style="fill:rgb(171,195,161);"/>
                </g>
                <g transform="matrix(0.8125,-2.77556e-17,8.32667e-17,1,-1067.91,-89.6751)">
                    <circle cx="4528.27" cy="676.018" r="4.889" style="fill:rgb(255,241,169);"/>
                    <path d="M4528.27,671.128C4530.97,671.128 4533.16,673.319 4533.16,676.018C4533.16,678.716 4530.97,680.907 4528.27,680.907C4525.57,680.907 4523.38,678.716 4523.38,676.018C4523.38,673.319 4525.57,671.128 4528.27,671.128ZM4528.27,672.128C4530.41,672.128 4532.16,673.871 4532.16,676.018C4532.16,678.164 4530.41,679.907 4528.27,679.907C4526.12,679.907 4524.38,678.164 4524.38,676.018C4524.38,673.871 4526.12,672.128 4528.27,672.128Z" style="fill:rgb(209,195,106);"/>
                </g>
                <g transform="matrix(0.8125,-2.77556e-17,8.32667e-17,1,-1075.86,-96.9238)">
                    <circle cx="4528.27" cy="676.018" r="4.889" style="fill:rgb(255,241,169);"/>
                    <path d="M4528.27,671.128C4530.97,671.128 4533.16,673.319 4533.16,676.018C4533.16,678.716 4530.97,680.907 4528.27,680.907C4525.57,680.907 4523.38,678.716 4523.38,676.018C4523.38,673.319 4525.57,671.128 4528.27,671.128ZM4528.27,672.128C4530.41,672.128 4532.16,673.871 4532.16,676.018C4532.16,678.164 4530.41,679.907 4528.27,679.907C4526.12,679.907 4524.38,678.164 4524.38,676.018C4524.38,673.871 4526.12,672.128 4528.27,672.128Z" style="fill:rgb(209,195,106);"/>
                </g>
                <g transform="matrix(0.8125,-2.77556e-17,8.32667e-17,1,-1077.53,-106.702)">
                    <circle cx="4528.27" cy="676.018" r="4.889" style="fill:rgb(209,235,206);"/>
                    <path d="M4528.27,671.128C4530.97,671.128 4533.16,673.319 4533.16,676.018C4533.16,678.716 4530.97,680.907 4528.27,680.907C4525.57,680.907 4523.38,678.716 4523.38,676.018C4523.38,673.319 4525.57,671.128 4528.27,671.128ZM4528.27,672.128C4530.41,672.128 4532.16,673.871 4532.16,676.018C4532.16,678.164 4530.41,679.907 4528.27,679.907C4526.12,679.907 4524.38,678.164 4524.38,676.018C4524.38,673.871 4526.12,672.128 4528.27,672.128Z" style="fill:rgb(171,195,161);"/>
                </g>
                <g transform="matrix(0.8125,-2.77556e-17,8.32667e-17,1,-1090.98,-127.437)">
                    <circle cx="4528.27" cy="676.018" r="4.889" style="fill:rgb(209,235,206);"/>
                    <path d="M4528.27,671.128C4530.97,671.128 4533.16,673.319 4533.16,676.018C4533.16,678.716 4530.97,680.907 4528.27,680.907C4525.57,680.907 4523.38,678.716 4523.38,676.018C4523.38,673.319 4525.57,671.128 4528.27,671.128ZM4528.27,672.128C4530.41,672.128 4532.16,673.871 4532.16,676.018C4532.16,678.164 4530.41,679.907 4528.27,679.907C4526.12,679.907 4524.38,678.164 4524.38,676.018C4524.38,673.871 4526.12,672.128 4528.27,672.128Z" style="fill:rgb(171,195,161);"/>
                </g>
                <g transform="matrix(0.8125,-2.77556e-17,8.32667e-17,1,-1097.25,-143.883)">
                    <circle cx="4528.27" cy="676.018" r="4.889" style="fill:rgb(209,235,206);"/>
                    <path d="M4528.27,671.128C4530.97,671.128 4533.16,673.319 4533.16,676.018C4533.16,678.716 4530.97,680.907 4528.27,680.907C4525.57,680.907 4523.38,678.716 4523.38,676.018C4523.38,673.319 4525.57,671.128 4528.27,671.128ZM4528.27,672.128C4530.41,672.128 4532.16,673.871 4532.16,676.018C4532.16,678.164 4530.41,679.907 4528.27,679.907C4526.12,679.907 4524.38,678.164 4524.38,676.018C4524.38,673.871 4526.12,672.128 4528.27,672.128Z" style="fill:rgb(171,195,161);"/>
                </g>
                <g transform="matrix(0.8125,-2.77556e-17,8.32667e-17,1,-1090.23,-159.251)">
                    <circle cx="4528.27" cy="676.018" r="4.889" style="fill:rgb(209,235,206);"/>
                    <path d="M4528.27,671.128C4530.97,671.128 4533.16,673.319 4533.16,676.018C4533.16,678.716 4530.97,680.907 4528.27,680.907C4525.57,680.907 4523.38,678.716 4523.38,676.018C4523.38,673.319 4525.57,671.128 4528.27,671.128ZM4528.27,672.128C4530.41,672.128 4532.16,673.871 4532.16,676.018C4532.16,678.164 4530.41,679.907 4528.27,679.907C4526.12,679.907 4524.38,678.164 4524.38,676.018C4524.38,673.871 4526.12,672.128 4528.27,672.128Z" style="fill:rgb(171,195,161);"/>
                </g>
                <g transform="matrix(0.8125,-2.77556e-17,8.32667e-17,1,-1098.75,-158.491)">
                    <circle cx="4528.27" cy="676.018" r="4.889" style="fill:rgb(209,235,206);"/>
                    <path d="M4528.27,671.128C4530.97,671.128 4533.16,673.319 4533.16,676.018C4533.16,678.716 4530.97,680.907 4528.27,680.907C4525.57,680.907 4523.38,678.716 4523.38,676.018C4523.38,673.319 4525.57,671.128 4528.27,671.128ZM4528.27,672.128C4530.41,672.128 4532.16,673.871 4532.16,676.018C4532.16,678.164 4530.41,679.907 4528.27,679.907C4526.12,679.907 4524.38,678.164 4524.38,676.018C4524.38,673.871 4526.12,672.128 4528.27,672.128Z" style="fill:rgb(171,195,161);"/>
                </g>
                <g transform="matrix(0.8125,-2.77556e-17,8.32667e-17,1,-1099.14,-152.539)">
                    <circle cx="4528.27" cy="676.018" r="4.889" style="fill:rgb(209,235,206);"/>
                    <path d="M4528.27,671.128C4530.97,671.128 4533.16,673.319 4533.16,676.018C4533.16,678.716 4530.97,680.907 4528.27,680.907C4525.57,680.907 4523.38,678.716 4523.38,676.018C4523.38,673.319 4525.57,671.128 4528.27,671.128ZM4528.27,672.128C4530.41,672.128 4532.16,673.871 4532.16,676.018C4532.16,678.164 4530.41,679.907 4528.27,679.907C4526.12,679.907 4524.38,678.164 4524.38,676.018C4524.38,673.871 4526.12,672.128 4528.27,672.128Z" style="fill:rgb(171,195,161);"/>
                </g>
                <g transform="matrix(0.8125,-2.77556e-17,8.32667e-17,1,-1090.98,-151.099)">
                    <circle cx="4528.27" cy="676.018" r="4.889" style="fill:rgb(209,235,206);"/>
                    <path d="M4528.27,671.128C4530.97,671.128 4533.16,673.319 4533.16,676.018C4533.16,678.716 4530.97,680.907 4528.27,680.907C4525.57,680.907 4523.38,678.716 4523.38,676.018C4523.38,673.319 4525.57,671.128 4528.27,671.128ZM4528.27,672.128C4530.41,672.128 4532.16,673.871 4532.16,676.018C4532.16,678.164 4530.41,679.907 4528.27,679.907C4526.12,679.907 4524.38,678.164 4524.38,676.018C4524.38,673.871 4526.12,672.128 4528.27,672.128Z" style="fill:rgb(171,195,161);"/>
                </g>
                <g transform="matrix(0.8125,-2.77556e-17,8.32667e-17,1,-1094.95,-153.17)">
                    <circle cx="4528.27" cy="676.018" r="4.889" style="fill:rgb(209,235,206);"/>
                    <path d="M4528.27,671.128C4530.97,671.128 4533.16,673.319 4533.16,676.018C4533.16,678.716 4530.97,680.907 4528.27,680.907C4525.57,680.907 4523.38,678.716 4523.38,676.018C4523.38,673.319 4525.57,671.128 4528.27,671.128ZM4528.27,672.128C4530.41,672.128 4532.16,673.871 4532.16,676.018C4532.16,678.164 4530.41,679.907 4528.27,679.907C4526.12,679.907 4524.38,678.164 4524.38,676.018C4524.38,673.871 4526.12,672.128 4528.27,672.128Z" style="fill:rgb(171,195,161);"/>
                </g>
                <g transform="matrix(0.8125,-2.77556e-17,8.32667e-17,1,-1092.77,-143.264)">
                    <circle cx="4528.27" cy="676.018" r="4.889" style="fill:rgb(209,235,206);"/>
                    <path d="M4528.27,671.128C4530.97,671.128 4533.16,673.319 4533.16,676.018C4533.16,678.716 4530.97,680.907 4528.27,680.907C4525.57,680.907 4523.38,678.716 4523.38,676.018C4523.38,673.319 4525.57,671.128 4528.27,671.128ZM4528.27,672.128C4530.41,672.128 4532.16,673.871 4532.16,676.018C4532.16,678.164 4530.41,679.907 4528.27,679.907C4526.12,679.907 4524.38,678.164 4524.38,676.018C4524.38,673.871 4526.12,672.128 4528.27,672.128Z" style="fill:rgb(171,195,161);"/>
                </g>
                <g transform="matrix(0.8125,-2.77556e-17,8.32667e-17,1,-1088.89,-144.051)">
                    <circle cx="4528.27" cy="676.018" r="4.889" style="fill:rgb(209,235,206);"/>
                    <path d="M4528.27,671.128C4530.97,671.128 4533.16,673.319 4533.16,676.018C4533.16,678.716 4530.97,680.907 4528.27,680.907C4525.57,680.907 4523.38,678.716 4523.38,676.018C4523.38,673.319 4525.57,671.128 4528.27,671.128ZM4528.27,672.128C4530.41,672.128 4532.16,673.871 4532.16,676.018C4532.16,678.164 4530.41,679.907 4528.27,679.907C4526.12,679.907 4524.38,678.164 4524.38,676.018C4524.38,673.871 4526.12,672.128 4528.27,672.128Z" style="fill:rgb(171,195,161);"/>
                </g>
                <g transform="matrix(0.8125,-2.77556e-17,8.32667e-17,1,-1085.92,-139.847)">
                    <circle cx="4528.27" cy="676.018" r="4.889" style="fill:rgb(209,235,206);"/>
                    <path d="M4528.27,671.128C4530.97,671.128 4533.16,673.319 4533.16,676.018C4533.16,678.716 4530.97,680.907 4528.27,680.907C4525.57,680.907 4523.38,678.716 4523.38,676.018C4523.38,673.319 4525.57,671.128 4528.27,671.128ZM4528.27,672.128C4530.41,672.128 4532.16,673.871 4532.16,676.018C4532.16,678.164 4530.41,679.907 4528.27,679.907C4526.12,679.907 4524.38,678.164 4524.38,676.018C4524.38,673.871 4526.12,672.128 4528.27,672.128Z" style="fill:rgb(171,195,161);"/>
                </g>
                <g transform="matrix(0.8125,-2.77556e-17,8.32667e-17,1,-1082.73,-138.68)">
                    <circle cx="4528.27" cy="676.018" r="4.889" style="fill:rgb(209,235,206);"/>
                    <path d="M4528.27,671.128C4530.97,671.128 4533.16,673.319 4533.16,676.018C4533.16,678.716 4530.97,680.907 4528.27,680.907C4525.57,680.907 4523.38,678.716 4523.38,676.018C4523.38,673.319 4525.57,671.128 4528.27,671.128ZM4528.27,672.128C4530.41,672.128 4532.16,673.871 4532.16,676.018C4532.16,678.164 4530.41,679.907 4528.27,679.907C4526.12,679.907 4524.38,678.164 4524.38,676.018C4524.38,673.871 4526.12,672.128 4528.27,672.128Z" style="fill:rgb(171,195,161);"/>
                </g>
                <g transform="matrix(0.8125,-2.77556e-17,8.32667e-17,1,-1095.44,-138.02)">
                    <circle cx="4528.27" cy="676.018" r="4.889" style="fill:rgb(209,235,206);"/>
                    <path d="M4528.27,671.128C4530.97,671.128 4533.16,673.319 4533.16,676.018C4533.16,678.716 4530.97,680.907 4528.27,680.907C4525.57,680.907 4523.38,678.716 4523.38,676.018C4523.38,673.319 4525.57,671.128 4528.27,671.128ZM4528.27,672.128C4530.41,672.128 4532.16,673.871 4532.16,676.018C4532.16,678.164 4530.41,679.907 4528.27,679.907C4526.12,679.907 4524.38,678.164 4524.38,676.018C4524.38,673.871 4526.12,672.128 4528.27,672.128Z" style="fill:rgb(171,195,161);"/>
                </g>
            </g>
        </g>
    </g>
</svg>
