<?xml version="1.0" encoding="UTF-8" standalone="no"?>
<!DOCTYPE svg PUBLIC "-//W3C//DTD SVG 1.1//EN" "http://www.w3.org/Graphics/SVG/1.1/DTD/svg11.dtd">
<svg width="100%" height="100%" viewBox="0 0 801 373" version="1.1" xmlns="http://www.w3.org/2000/svg" xmlns:xlink="http://www.w3.org/1999/xlink" xml:space="preserve" xmlns:serif="http://www.serif.com/" style="fill-rule:evenodd;clip-rule:evenodd;stroke-linejoin:round;stroke-miterlimit:2;">
    <g transform="matrix(1,0,0,1,-5991,-1038)">
        <g id="_012" serif:id="012" transform="matrix(0.99185,0,0,0.823285,4250.25,1045.28)">
            <rect x="1755.48" y="-8.417" width="806.573" height="452.321" style="fill:none;"/>
            <g transform="matrix(1.14675,0,0,1.38154,-5139.93,-1490.37)">
                <path d="M6417.5,1197L6420.18,1205.25L6425.35,1202.7L6424.52,1208.4L6433.19,1208.4L6426.18,1213.5L6430.19,1217.62L6424.52,1218.6L6427.2,1226.85L6420.18,1221.75L6417.5,1226.85L6414.82,1221.75L6407.8,1226.85L6410.48,1218.6L6404.81,1217.62L6408.82,1213.5L6401.81,1208.4L6410.48,1208.4L6409.65,1202.7L6414.82,1205.25L6417.5,1197Z" style="fill:rgb(255,241,169);"/>
                <path d="M6417.5,1197L6420.18,1205.25L6425.35,1202.7L6424.52,1208.4L6433.19,1208.4L6426.18,1213.5L6430.19,1217.62L6424.52,1218.6L6427.2,1226.85L6420.18,1221.75L6417.5,1226.85L6414.82,1221.75L6407.8,1226.85L6410.48,1218.6L6404.81,1217.62L6408.82,1213.5L6401.81,1208.4L6410.48,1208.4L6409.65,1202.7L6414.82,1205.25L6417.5,1197ZM6417.5,1199.85L6419.34,1205.52C6419.42,1205.76 6419.6,1205.96 6419.84,1206.06C6420.07,1206.16 6420.34,1206.15 6420.57,1206.04L6424.24,1204.23C6424.24,1204.23 6423.65,1208.28 6423.65,1208.28C6423.61,1208.53 6423.69,1208.78 6423.85,1208.98C6424.02,1209.17 6424.26,1209.28 6424.52,1209.28L6430.49,1209.28C6430.49,1209.28 6425.66,1212.79 6425.66,1212.79C6425.45,1212.94 6425.32,1213.17 6425.3,1213.42C6425.28,1213.68 6425.37,1213.93 6425.55,1214.11L6428.4,1217.04C6428.4,1217.04 6424.37,1217.73 6424.37,1217.73C6424.12,1217.78 6423.9,1217.93 6423.77,1218.14C6423.63,1218.36 6423.6,1218.63 6423.68,1218.87L6425.53,1224.55C6425.53,1224.55 6420.7,1221.04 6420.7,1221.04C6420.49,1220.89 6420.23,1220.84 6419.98,1220.89C6419.73,1220.95 6419.52,1221.12 6419.4,1221.34L6417.5,1224.96C6417.5,1224.96 6415.6,1221.34 6415.6,1221.34C6415.48,1221.12 6415.27,1220.95 6415.02,1220.89C6414.77,1220.84 6414.51,1220.89 6414.3,1221.04L6409.47,1224.55C6409.47,1224.55 6411.32,1218.87 6411.32,1218.87C6411.4,1218.63 6411.37,1218.36 6411.24,1218.14C6411.1,1217.93 6410.88,1217.78 6410.63,1217.73L6406.6,1217.04C6406.6,1217.04 6409.45,1214.11 6409.45,1214.11C6409.63,1213.93 6409.72,1213.68 6409.7,1213.42C6409.68,1213.17 6409.55,1212.94 6409.34,1212.79L6404.51,1209.28C6404.51,1209.28 6410.48,1209.28 6410.48,1209.28C6410.74,1209.28 6410.98,1209.17 6411.15,1208.98C6411.31,1208.78 6411.39,1208.53 6411.35,1208.28L6410.76,1204.23C6410.76,1204.23 6414.43,1206.04 6414.43,1206.04C6414.66,1206.15 6414.93,1206.16 6415.16,1206.06C6415.4,1205.96 6415.58,1205.76 6415.66,1205.52L6417.5,1199.85Z" style="fill:rgb(209,195,106);"/>
            </g>
            <g transform="matrix(-0.857912,1.79581,-1.49061,-1.03357,6760.52,-7018.14)">
                <circle cx="4528.27" cy="676.018" r="4.889" style="fill:rgb(209,235,206);"/>
                <path d="M4528.27,671.128C4530.97,671.128 4533.16,673.319 4533.16,676.018C4533.16,678.716 4530.97,680.907 4528.27,680.907C4525.57,680.907 4523.38,678.716 4523.38,676.018C4523.38,673.319 4525.57,671.128 4528.27,671.128ZM4528.27,671.715C4530.64,671.715 4532.57,673.643 4532.57,676.018C4532.57,678.393 4530.64,680.321 4528.27,680.321C4525.89,680.321 4523.96,678.393 4523.96,676.018C4523.96,673.643 4525.89,671.715 4528.27,671.715L4528.27,671.715Z" style="fill:rgb(171,195,161);"/>
            </g>
            <g transform="matrix(-0.857912,1.79581,-1.49061,-1.03357,6753.28,-7119.52)">
                <circle cx="4528.27" cy="676.018" r="4.889" style="fill:rgb(209,235,206);"/>
                <path d="M4528.27,671.128C4530.97,671.128 4533.16,673.319 4533.16,676.018C4533.16,678.716 4530.97,680.907 4528.27,680.907C4525.57,680.907 4523.38,678.716 4523.38,676.018C4523.38,673.319 4525.57,671.128 4528.27,671.128ZM4528.27,671.715C4530.64,671.715 4532.57,673.643 4532.57,676.018C4532.57,678.393 4530.64,680.321 4528.27,680.321C4525.89,680.321 4523.96,678.393 4523.96,676.018C4523.96,673.643 4525.89,671.715 4528.27,671.715Z" style="fill:rgb(171,195,161);"/>
            </g>
            <g transform="matrix(-0.857912,1.79581,-1.49061,-1.03357,6892.69,-7075.44)">
                <circle cx="4528.27" cy="676.018" r="4.889" style="fill:rgb(209,235,206);"/>
                <path d="M4528.27,671.128C4530.97,671.128 4533.16,673.319 4533.16,676.018C4533.16,678.716 4530.97,680.907 4528.27,680.907C4525.57,680.907 4523.38,678.716 4523.38,676.018C4523.38,673.319 4525.57,671.128 4528.27,671.128ZM4528.27,671.715C4530.64,671.715 4532.57,673.643 4532.57,676.018C4532.57,678.393 4530.64,680.321 4528.27,680.321C4525.89,680.321 4523.96,678.393 4523.96,676.018C4523.96,673.643 4525.89,671.715 4528.27,671.715Z" style="fill:rgb(171,195,161);"/>
            </g>
            <g transform="matrix(-0.857912,1.79581,-1.49061,-1.03357,6984.21,-7213.39)">
                <circle cx="4528.27" cy="676.018" r="4.889" style="fill:rgb(209,235,206);"/>
                <path d="M4528.27,671.128C4530.97,671.128 4533.16,673.319 4533.16,676.018C4533.16,678.716 4530.97,680.907 4528.27,680.907C4525.57,680.907 4523.38,678.716 4523.38,676.018C4523.38,673.319 4525.57,671.128 4528.27,671.128ZM4528.27,671.715C4530.64,671.715 4532.57,673.643 4532.57,676.018C4532.57,678.393 4530.64,680.321 4528.27,680.321C4525.89,680.321 4523.96,678.393 4523.96,676.018C4523.96,673.643 4525.89,671.715 4528.27,671.715L4528.27,671.715Z" style="fill:rgb(171,195,161);"/>
            </g>
            <g transform="matrix(-0.857912,1.79581,-1.49061,-1.03357,7086.02,-7162.03)">
                <circle cx="4528.27" cy="676.018" r="4.889" style="fill:rgb(209,235,206);"/>
                <path d="M4528.27,671.128C4530.97,671.128 4533.16,673.319 4533.16,676.018C4533.16,678.716 4530.97,680.907 4528.27,680.907C4525.57,680.907 4523.38,678.716 4523.38,676.018C4523.38,673.319 4525.57,671.128 4528.27,671.128ZM4528.27,671.715C4530.64,671.715 4532.57,673.643 4532.57,676.018C4532.57,678.393 4530.64,680.321 4528.27,680.321C4525.89,680.321 4523.96,678.393 4523.96,676.018C4523.96,673.643 4525.89,671.715 4528.27,671.715Z" style="fill:rgb(171,195,161);"/>
            </g>
            <g transform="matrix(-1.56806,0.851118,-0.70647,-1.88912,9796.93,-2539.72)">
                <circle cx="4528.27" cy="676.018" r="4.889" style="fill:rgb(238,212,197);"/>
                <path d="M4528.27,671.128C4530.97,671.128 4533.16,673.319 4533.16,676.018C4533.16,678.716 4530.97,680.907 4528.27,680.907C4525.57,680.907 4523.38,678.716 4523.38,676.018C4523.38,673.319 4525.57,671.128 4528.27,671.128ZM4528.27,671.715C4530.64,671.715 4532.57,673.643 4532.57,676.018C4532.57,678.393 4530.64,680.321 4528.27,680.321C4525.89,680.321 4523.96,678.393 4523.96,676.018C4523.96,673.643 4525.89,671.715 4528.27,671.715L4528.27,671.715Z" style="fill:rgb(201,138,147);"/>
            </g>
            <g transform="matrix(-1.56806,0.851118,-0.70647,-1.88912,9599.71,-2487.7)">
                <circle cx="4528.27" cy="676.018" r="4.889" style="fill:rgb(238,212,197);"/>
                <path d="M4528.27,671.128C4530.97,671.128 4533.16,673.319 4533.16,676.018C4533.16,678.716 4530.97,680.907 4528.27,680.907C4525.57,680.907 4523.38,678.716 4523.38,676.018C4523.38,673.319 4525.57,671.128 4528.27,671.128ZM4528.27,671.715C4530.64,671.715 4532.57,673.643 4532.57,676.018C4532.57,678.393 4530.64,680.321 4528.27,680.321C4525.89,680.321 4523.96,678.393 4523.96,676.018C4523.96,673.643 4525.89,671.715 4528.27,671.715L4528.27,671.715Z" style="fill:rgb(201,138,147);"/>
            </g>
            <g transform="matrix(-1.56806,0.851118,-0.70647,-1.88912,9864.37,-2380.8)">
                <circle cx="4528.27" cy="676.018" r="4.889" style="fill:rgb(238,212,197);"/>
                <path d="M4528.27,671.128C4530.97,671.128 4533.16,673.319 4533.16,676.018C4533.16,678.716 4530.97,680.907 4528.27,680.907C4525.57,680.907 4523.38,678.716 4523.38,676.018C4523.38,673.319 4525.57,671.128 4528.27,671.128ZM4528.27,671.715C4530.64,671.715 4532.57,673.643 4532.57,676.018C4532.57,678.393 4530.64,680.321 4528.27,680.321C4525.89,680.321 4523.96,678.393 4523.96,676.018C4523.96,673.643 4525.89,671.715 4528.27,671.715L4528.27,671.715Z" style="fill:rgb(201,138,147);"/>
            </g>
            <g transform="matrix(-1.56806,0.851118,-0.70647,-1.88912,9916.73,-2517.44)">
                <circle cx="4528.27" cy="676.018" r="4.889" style="fill:rgb(238,212,197);"/>
                <path d="M4528.27,671.128C4530.97,671.128 4533.16,673.319 4533.16,676.018C4533.16,678.716 4530.97,680.907 4528.27,680.907C4525.57,680.907 4523.38,678.716 4523.38,676.018C4523.38,673.319 4525.57,671.128 4528.27,671.128ZM4528.27,671.715C4530.64,671.715 4532.57,673.643 4532.57,676.018C4532.57,678.393 4530.64,680.321 4528.27,680.321C4525.89,680.321 4523.96,678.393 4523.96,676.018C4523.96,673.643 4525.89,671.715 4528.27,671.715L4528.27,671.715Z" style="fill:rgb(201,138,147);"/>
            </g>
            <g transform="matrix(-1.56806,0.851118,-0.70647,-1.88912,10023,-2414.93)">
                <circle cx="4528.27" cy="676.018" r="4.889" style="fill:rgb(238,212,197);"/>
                <path d="M4528.27,671.128C4530.97,671.128 4533.16,673.319 4533.16,676.018C4533.16,678.716 4530.97,680.907 4528.27,680.907C4525.57,680.907 4523.38,678.716 4523.38,676.018C4523.38,673.319 4525.57,671.128 4528.27,671.128ZM4528.27,671.715C4530.64,671.715 4532.57,673.643 4532.57,676.018C4532.57,678.393 4530.64,680.321 4528.27,680.321C4525.89,680.321 4523.96,678.393 4523.96,676.018C4523.96,673.643 4525.89,671.715 4528.27,671.715L4528.27,671.715Z" style="fill:rgb(201,138,147);"/>
            </g>
        </g>
    </g>
</svg>
