<?xml version="1.0" encoding="UTF-8" standalone="no"?>
<!DOCTYPE svg PUBLIC "-//W3C//DTD SVG 1.1//EN" "http://www.w3.org/Graphics/SVG/1.1/DTD/svg11.dtd">
<svg width="100%" height="100%" viewBox="0 0 350 141" version="1.1" xmlns="http://www.w3.org/2000/svg" xmlns:xlink="http://www.w3.org/1999/xlink" xml:space="preserve" xmlns:serif="http://www.serif.com/" style="fill-rule:evenodd;clip-rule:evenodd;stroke-linecap:round;stroke-linejoin:round;stroke-miterlimit:1.5;">
    <g transform="matrix(1,0,0,1,0,-590)">
        <g id="_001" serif:id="001" transform="matrix(0.4375,0,0,0.233333,0,590.945)">
            <rect x="0" y="0" width="800" height="600" style="fill:none;"/>
            <clipPath id="_clip1">
                <rect x="0" y="0" width="800" height="600"/>
            </clipPath>
            <g clip-path="url(#_clip1)">
                <g transform="matrix(0.50174,0,0,1.12543,190.856,535.409)">
                    <rect x="32.133" y="12.572" width="134.692" height="96.439" style="stroke:black;stroke-width:49.58px;"/>
                </g>
                <g transform="matrix(0.638043,0,0,1.12543,453.228,454.713)">
                    <rect x="32.133" y="12.572" width="134.692" height="96.439" style="stroke:black;stroke-width:44.28px;"/>
                </g>
                <g transform="matrix(0.435982,0,0,0.263815,197.004,482.416)">
                    <path d="M166.825,60.787C166.825,34.159 159.858,12.572 151.265,12.572C125.343,12.572 73.614,12.572 47.693,12.572C39.099,12.572 32.133,34.159 32.133,60.787C32.133,60.79 32.133,60.793 32.133,60.795C32.133,87.424 39.099,109.011 47.693,109.011C73.614,109.011 125.343,109.011 151.265,109.011C159.858,109.011 166.825,87.424 166.825,60.795C166.825,60.793 166.825,60.79 166.825,60.787Z"/>
                </g>
                <g transform="matrix(0.435982,0,0,0.263815,197.004,443.928)">
                    <path d="M166.825,60.787C166.825,34.159 159.858,12.572 151.265,12.572C125.343,12.572 73.614,12.572 47.693,12.572C39.099,12.572 32.133,34.159 32.133,60.787C32.133,60.79 32.133,60.793 32.133,60.795C32.133,87.424 39.099,109.011 47.693,109.011C73.614,109.011 125.343,109.011 151.265,109.011C159.858,109.011 166.825,87.424 166.825,60.795C166.825,60.793 166.825,60.79 166.825,60.787Z"/>
                </g>
                <g transform="matrix(0.435982,0,0,0.263815,197.004,405.441)">
                    <path d="M166.825,60.787C166.825,34.159 159.858,12.572 151.265,12.572C125.343,12.572 73.614,12.572 47.693,12.572C39.099,12.572 32.133,34.159 32.133,60.787C32.133,60.79 32.133,60.793 32.133,60.795C32.133,87.424 39.099,109.011 47.693,109.011C73.614,109.011 125.343,109.011 151.265,109.011C159.858,109.011 166.825,87.424 166.825,60.795C166.825,60.793 166.825,60.79 166.825,60.787Z"/>
                </g>
                <g transform="matrix(0.435982,0,0,0.263815,197.004,366.953)">
                    <path d="M166.825,60.787C166.825,34.159 159.858,12.572 151.265,12.572C125.343,12.572 73.614,12.572 47.693,12.572C39.099,12.572 32.133,34.159 32.133,60.787C32.133,60.79 32.133,60.793 32.133,60.795C32.133,87.424 39.099,109.011 47.693,109.011C73.614,109.011 125.343,109.011 151.265,109.011C159.858,109.011 166.825,87.424 166.825,60.795C166.825,60.793 166.825,60.79 166.825,60.787Z"/>
                </g>
                <g transform="matrix(0.435982,0,0,0.263815,197.004,328.466)">
                    <path d="M166.825,60.787C166.825,34.159 159.858,12.572 151.265,12.572C125.343,12.572 73.614,12.572 47.693,12.572C39.099,12.572 32.133,34.159 32.133,60.787C32.133,60.79 32.133,60.793 32.133,60.795C32.133,87.424 39.099,109.011 47.693,109.011C73.614,109.011 125.343,109.011 151.265,109.011C159.858,109.011 166.825,87.424 166.825,60.795C166.825,60.793 166.825,60.79 166.825,60.787Z"/>
                </g>
                <g transform="matrix(0.435982,0,0,0.263815,197.004,289.979)">
                    <path d="M166.825,60.787C166.825,34.159 159.858,12.572 151.265,12.572C125.343,12.572 73.614,12.572 47.693,12.572C39.099,12.572 32.133,34.159 32.133,60.787C32.133,60.79 32.133,60.793 32.133,60.795C32.133,87.424 39.099,109.011 47.693,109.011C73.614,109.011 125.343,109.011 151.265,109.011C159.858,109.011 166.825,87.424 166.825,60.795C166.825,60.793 166.825,60.79 166.825,60.787Z"/>
                </g>
                <g transform="matrix(0.435982,0,0,0.263815,197.213,251.491)">
                    <path d="M166.825,60.787C166.825,34.159 159.858,12.572 151.265,12.572C125.343,12.572 73.614,12.572 47.693,12.572C39.099,12.572 32.133,34.159 32.133,60.787C32.133,60.79 32.133,60.793 32.133,60.795C32.133,87.424 39.099,109.011 47.693,109.011C73.614,109.011 125.343,109.011 151.265,109.011C159.858,109.011 166.825,87.424 166.825,60.795C166.825,60.793 166.825,60.79 166.825,60.787Z"/>
                </g>
                <g transform="matrix(2.28571,0,0,4.28571,139.945,-2528.79)">
                    <path d="M33.955,630.305L38.911,646.168L49.079,646.168L54.036,630.305L54.036,621.939L33.955,621.939L33.955,630.305Z"/>
                </g>
                <g transform="matrix(2.00826,0,0,3.76549,119.583,-2221.47)">
                    <path d="M72.325,615.839C79.003,615.839 84.424,621.26 84.424,627.938C84.424,634.615 79.003,640.036 72.325,640.036C65.648,640.036 60.227,634.615 60.227,627.938C60.227,621.26 65.648,615.839 72.325,615.839ZM72.325,619.527C76.968,619.527 80.736,623.296 80.736,627.938C80.736,632.58 76.968,636.349 72.325,636.349C67.683,636.349 63.915,632.58 63.915,627.938C63.915,623.296 67.683,619.527 72.325,619.527Z" style="fill:white;stroke:black;stroke-width:1.14px;"/>
                </g>
                <g transform="matrix(0.435982,0,0,0.263815,472.016,400.229)">
                    <path d="M166.825,60.787C166.825,34.159 159.858,12.572 151.265,12.572C125.343,12.572 73.614,12.572 47.693,12.572C39.099,12.572 32.133,34.159 32.133,60.787C32.133,60.79 32.133,60.793 32.133,60.795C32.133,87.424 39.099,109.011 47.693,109.011C73.614,109.011 125.343,109.011 151.265,109.011C159.858,109.011 166.825,87.424 166.825,60.795C166.825,60.793 166.825,60.79 166.825,60.787Z"/>
                </g>
                <g transform="matrix(0.435982,0,0,0.263815,472.016,361.742)">
                    <path d="M166.825,60.787C166.825,34.159 159.858,12.572 151.265,12.572C125.343,12.572 73.614,12.572 47.693,12.572C39.099,12.572 32.133,34.159 32.133,60.787C32.133,60.79 32.133,60.793 32.133,60.795C32.133,87.424 39.099,109.011 47.693,109.011C73.614,109.011 125.343,109.011 151.265,109.011C159.858,109.011 166.825,87.424 166.825,60.795C166.825,60.793 166.825,60.79 166.825,60.787Z"/>
                </g>
                <g transform="matrix(0.435982,0,0,0.263815,472.016,323.255)">
                    <path d="M166.825,60.787C166.825,34.159 159.858,12.572 151.265,12.572C125.343,12.572 73.614,12.572 47.693,12.572C39.099,12.572 32.133,34.159 32.133,60.787C32.133,60.79 32.133,60.793 32.133,60.795C32.133,87.424 39.099,109.011 47.693,109.011C73.614,109.011 125.343,109.011 151.265,109.011C159.858,109.011 166.825,87.424 166.825,60.795C166.825,60.793 166.825,60.79 166.825,60.787Z"/>
                </g>
                <g transform="matrix(0.435982,0,0,0.263815,472.016,284.767)">
                    <path d="M166.825,60.787C166.825,34.159 159.858,12.572 151.265,12.572C125.343,12.572 73.614,12.572 47.693,12.572C39.099,12.572 32.133,34.159 32.133,60.787C32.133,60.79 32.133,60.793 32.133,60.795C32.133,87.424 39.099,109.011 47.693,109.011C73.614,109.011 125.343,109.011 151.265,109.011C159.858,109.011 166.825,87.424 166.825,60.795C166.825,60.793 166.825,60.79 166.825,60.787Z"/>
                </g>
                <g transform="matrix(0.435982,0,0,0.263815,472.016,246.28)">
                    <path d="M166.825,60.787C166.825,34.159 159.858,12.572 151.265,12.572C125.343,12.572 73.614,12.572 47.693,12.572C39.099,12.572 32.133,34.159 32.133,60.787C32.133,60.79 32.133,60.793 32.133,60.795C32.133,87.424 39.099,109.011 47.693,109.011C73.614,109.011 125.343,109.011 151.265,109.011C159.858,109.011 166.825,87.424 166.825,60.795C166.825,60.793 166.825,60.79 166.825,60.787Z"/>
                </g>
                <g transform="matrix(1.94743e-17,-0.596323,0.140701,1.6154e-17,461.323,151.598)">
                    <path d="M166.825,60.787C166.825,48 164.578,35.736 160.577,26.694C156.577,17.652 151.151,12.572 145.494,12.572C120.304,12.572 78.654,12.572 53.463,12.572C47.806,12.572 42.381,17.652 38.38,26.694C34.38,35.736 32.133,48 32.133,60.787C32.133,60.79 32.133,60.793 32.133,60.795C32.133,73.583 34.38,85.847 38.38,94.889C42.381,103.931 47.806,109.011 53.463,109.011C78.654,109.011 120.304,109.011 145.494,109.011C151.151,109.011 156.577,103.931 160.577,94.889C164.578,85.847 166.825,73.583 166.825,60.795C166.825,60.793 166.825,60.79 166.825,60.787Z"/>
                </g>
                <g transform="matrix(1.94743e-17,-0.596323,0.140701,1.6154e-17,440.796,151.598)">
                    <path d="M166.825,60.787C166.825,48 164.578,35.736 160.577,26.694C156.577,17.652 151.151,12.572 145.494,12.572C120.304,12.572 78.654,12.572 53.463,12.572C47.806,12.572 42.381,17.652 38.38,26.694C34.38,35.736 32.133,48 32.133,60.787C32.133,60.79 32.133,60.793 32.133,60.795C32.133,73.583 34.38,85.847 38.38,94.889C42.381,103.931 47.806,109.011 53.463,109.011C78.654,109.011 120.304,109.011 145.494,109.011C151.151,109.011 156.577,103.931 160.577,94.889C164.578,85.847 166.825,73.583 166.825,60.795C166.825,60.793 166.825,60.79 166.825,60.787Z"/>
                </g>
                <g transform="matrix(1.94743e-17,-0.596323,0.140701,1.6154e-17,420.27,151.598)">
                    <path d="M166.825,60.787C166.825,48 164.578,35.736 160.577,26.694C156.577,17.652 151.151,12.572 145.494,12.572C120.304,12.572 78.654,12.572 53.463,12.572C47.806,12.572 42.381,17.652 38.38,26.694C34.38,35.736 32.133,48 32.133,60.787C32.133,60.79 32.133,60.793 32.133,60.795C32.133,73.583 34.38,85.847 38.38,94.889C42.381,103.931 47.806,109.011 53.463,109.011C78.654,109.011 120.304,109.011 145.494,109.011C151.151,109.011 156.577,103.931 160.577,94.889C164.578,85.847 166.825,73.583 166.825,60.795C166.825,60.793 166.825,60.79 166.825,60.787Z"/>
                </g>
                <g transform="matrix(2.66962e-17,-0.817465,0.140701,1.6154e-17,399.743,173.597)">
                    <path d="M166.825,60.787C166.825,34.159 159.858,12.572 151.265,12.572C125.343,12.572 73.614,12.572 47.693,12.572C39.099,12.572 32.133,34.159 32.133,60.787C32.133,60.79 32.133,60.793 32.133,60.795C32.133,87.424 39.099,109.011 47.693,109.011C73.614,109.011 125.343,109.011 151.265,109.011C159.858,109.011 166.825,87.424 166.825,60.795C166.825,60.793 166.825,60.79 166.825,60.787Z"/>
                </g>
                <g transform="matrix(2.66962e-17,0.817465,-0.140701,1.6154e-17,627.574,10.9561)">
                    <path d="M166.825,60.787C166.825,34.159 159.858,12.572 151.265,12.572C125.343,12.572 73.614,12.572 47.693,12.572C39.099,12.572 32.133,34.159 32.133,60.787C32.133,60.79 32.133,60.793 32.133,60.795C32.133,87.424 39.099,109.011 47.693,109.011C73.614,109.011 125.343,109.011 151.265,109.011C159.858,109.011 166.825,87.424 166.825,60.795C166.825,60.793 166.825,60.79 166.825,60.787Z"/>
                </g>
                <g transform="matrix(0.435982,0,0,0.263815,472.016,207.792)">
                    <path d="M166.825,60.787C166.825,34.159 159.858,12.572 151.265,12.572C125.343,12.572 73.614,12.572 47.693,12.572C39.099,12.572 32.133,34.159 32.133,60.787C32.133,60.79 32.133,60.793 32.133,60.795C32.133,87.424 39.099,109.011 47.693,109.011C73.614,109.011 125.343,109.011 151.265,109.011C159.858,109.011 166.825,87.424 166.825,60.795C166.825,60.793 166.825,60.79 166.825,60.787Z"/>
                </g>
                <g transform="matrix(0.435982,0,0,0.263815,472.225,169.305)">
                    <path d="M166.825,60.787C166.825,34.159 159.858,12.572 151.265,12.572C125.343,12.572 73.614,12.572 47.693,12.572C39.099,12.572 32.133,34.159 32.133,60.787C32.133,60.79 32.133,60.793 32.133,60.795C32.133,87.424 39.099,109.011 47.693,109.011C73.614,109.011 125.343,109.011 151.265,109.011C159.858,109.011 166.825,87.424 166.825,60.795C166.825,60.793 166.825,60.79 166.825,60.787Z"/>
                </g>
                <g transform="matrix(2.28571,0,0,4.28571,414.956,-2610.98)">
                    <path d="M33.955,630.305L38.911,646.168L49.079,646.168L54.036,630.305L54.036,621.939L33.955,621.939L33.955,630.305Z"/>
                </g>
                <g transform="matrix(0.638043,0,0,1.12543,453.228,454.713)">
                    <rect x="32.133" y="12.572" width="134.692" height="96.439" style="stroke:white;stroke-width:5.54px;"/>
                </g>
                <g transform="matrix(2.28571,0,0,4.28571,157.714,-2532.62)">
                    <circle cx="169.651" cy="713.52" r="1.868" style="stroke:white;stroke-width:1.5px;"/>
                </g>
                <g transform="matrix(1.94743e-17,0.596323,-0.140701,1.6154e-17,565.994,32.9551)">
                    <path d="M166.825,60.787C166.825,48 164.578,35.736 160.577,26.694C156.577,17.652 151.151,12.572 145.494,12.572C120.304,12.572 78.654,12.572 53.463,12.572C47.806,12.572 42.381,17.652 38.38,26.694C34.38,35.736 32.133,48 32.133,60.787C32.133,60.79 32.133,60.793 32.133,60.795C32.133,73.583 34.38,85.847 38.38,94.889C42.381,103.931 47.806,109.011 53.463,109.011C78.654,109.011 120.304,109.011 145.494,109.011C151.151,109.011 156.577,103.931 160.577,94.889C164.578,85.847 166.825,73.583 166.825,60.795C166.825,60.793 166.825,60.79 166.825,60.787Z"/>
                </g>
                <g transform="matrix(1.94743e-17,0.596323,-0.140701,1.6154e-17,586.521,32.9551)">
                    <path d="M166.825,60.787C166.825,48 164.578,35.736 160.577,26.694C156.577,17.652 151.151,12.572 145.494,12.572C120.304,12.572 78.654,12.572 53.463,12.572C47.806,12.572 42.381,17.652 38.38,26.694C34.38,35.736 32.133,48 32.133,60.787C32.133,60.79 32.133,60.793 32.133,60.795C32.133,73.583 34.38,85.847 38.38,94.889C42.381,103.931 47.806,109.011 53.463,109.011C78.654,109.011 120.304,109.011 145.494,109.011C151.151,109.011 156.577,103.931 160.577,94.889C164.578,85.847 166.825,73.583 166.825,60.795C166.825,60.793 166.825,60.79 166.825,60.787Z"/>
                </g>
                <g transform="matrix(1.94743e-17,0.596323,-0.140701,1.6154e-17,607.047,32.9551)">
                    <path d="M166.825,60.787C166.825,48 164.578,35.736 160.577,26.694C156.577,17.652 151.151,12.572 145.494,12.572C120.304,12.572 78.654,12.572 53.463,12.572C47.806,12.572 42.381,17.652 38.38,26.694C34.38,35.736 32.133,48 32.133,60.787C32.133,60.79 32.133,60.793 32.133,60.795C32.133,73.583 34.38,85.847 38.38,94.889C42.381,103.931 47.806,109.011 53.463,109.011C78.654,109.011 120.304,109.011 145.494,109.011C151.151,109.011 156.577,103.931 160.577,94.889C164.578,85.847 166.825,73.583 166.825,60.795C166.825,60.793 166.825,60.79 166.825,60.787Z"/>
                </g>
                <g transform="matrix(1.64025e-16,-5.02264,1.6565,1.90184e-16,-1428.06,96.5335)">
                    <g transform="matrix(12.9288,0,0,20.9073,-98.5281,891.191)">
                        <path d="M0.486,-0.487L0.486,-0.523C0.486,-0.656 0.41,-0.735 0.27,-0.735C0.121,-0.735 0.045,-0.656 0.045,-0.487L0.045,-0.224C0.045,-0.096 0.088,0.017 0.268,0.017C0.439,0.017 0.486,-0.095 0.486,-0.226L0.486,-0.257L0.349,-0.257L0.349,-0.218C0.349,-0.125 0.322,-0.093 0.267,-0.093C0.209,-0.093 0.185,-0.124 0.185,-0.218L0.185,-0.503C0.185,-0.594 0.21,-0.625 0.268,-0.625C0.326,-0.625 0.349,-0.594 0.349,-0.503L0.349,-0.487L0.486,-0.487Z" style="fill-rule:nonzero;"/>
                    </g>
                    <g transform="matrix(12.9288,0,0,20.9073,-91.6629,891.191)">
                        <path d="M0.239,-0.56C0.093,-0.56 0.045,-0.477 0.045,-0.382L0.045,-0.162C0.045,-0.067 0.093,0.016 0.239,0.016C0.382,0.016 0.432,-0.067 0.432,-0.162L0.432,-0.382C0.432,-0.477 0.382,-0.56 0.239,-0.56ZM0.239,-0.463C0.279,-0.463 0.304,-0.449 0.304,-0.398L0.304,-0.146C0.304,-0.095 0.279,-0.081 0.239,-0.081C0.201,-0.081 0.173,-0.097 0.173,-0.146L0.173,-0.398C0.173,-0.448 0.201,-0.463 0.239,-0.463Z" style="fill-rule:nonzero;"/>
                    </g>
                    <g transform="matrix(12.9288,0,0,20.9073,-85.4958,891.191)">
                        <path d="M0.173,-0.456L0.207,-0.456C0.253,-0.456 0.28,-0.438 0.28,-0.393C0.28,-0.349 0.253,-0.33 0.207,-0.33L0.173,-0.33L0.173,-0.456ZM0.173,-0.245L0.214,-0.245C0.255,-0.245 0.29,-0.221 0.29,-0.165C0.29,-0.104 0.255,-0.09 0.214,-0.09L0.173,-0.09L0.173,-0.245ZM0.05,-0L0.258,-0C0.336,-0 0.418,-0.041 0.418,-0.155C0.418,-0.244 0.372,-0.274 0.326,-0.292C0.365,-0.307 0.408,-0.347 0.408,-0.418C0.408,-0.505 0.329,-0.546 0.253,-0.546L0.05,-0.546L0.05,-0Z" style="fill-rule:nonzero;"/>
                    </g>
                    <g transform="matrix(12.9288,0,0,20.9073,-79.5098,891.191)">
                        <path d="M0.05,-0.546L0.05,-0L0.17,-0L0.17,-0.387L0.171,-0.387L0.258,-0L0.336,-0L0.423,-0.387L0.424,-0.387L0.424,-0L0.544,-0L0.544,-0.546L0.378,-0.546L0.297,-0.181L0.216,-0.546L0.05,-0.546Z" style="fill-rule:nonzero;"/>
                    </g>
                    <g transform="matrix(12.9288,0,0,20.9073,-71.8301,891.191)">
                        <path d="M0.421,-0.26L0.421,-0.387C0.421,-0.51 0.342,-0.56 0.233,-0.56C0.124,-0.56 0.045,-0.511 0.045,-0.387L0.045,-0.157C0.045,-0.033 0.124,0.016 0.233,0.016C0.342,0.016 0.421,-0.034 0.421,-0.157L0.421,-0.172L0.298,-0.172L0.298,-0.141C0.298,-0.103 0.273,-0.081 0.233,-0.081C0.193,-0.081 0.168,-0.101 0.168,-0.141L0.168,-0.26L0.421,-0.26ZM0.168,-0.35L0.168,-0.403C0.168,-0.443 0.193,-0.463 0.233,-0.463C0.273,-0.463 0.298,-0.441 0.298,-0.403L0.298,-0.35L0.168,-0.35Z" style="fill-rule:nonzero;"/>
                    </g>
                    <g transform="matrix(12.9288,0,0,20.9073,-65.8053,891.191)">
                        <path d="M0.17,-0.546L0.05,-0.546L0.05,-0L0.573,-0L0.573,0.133L0.687,0.133L0.687,-0.097L0.646,-0.097L0.646,-0.546L0.526,-0.546L0.526,-0.097L0.408,-0.097L0.408,-0.546L0.288,-0.546L0.288,-0.097L0.17,-0.097L0.17,-0.546Z" style="fill-rule:nonzero;"/>
                    </g>
                    <g transform="matrix(12.9288,0,0,20.9073,-56.6,891.191)">
                        <path d="M0.421,-0.26L0.421,-0.387C0.421,-0.51 0.342,-0.56 0.233,-0.56C0.124,-0.56 0.045,-0.511 0.045,-0.387L0.045,-0.157C0.045,-0.033 0.124,0.016 0.233,0.016C0.342,0.016 0.421,-0.034 0.421,-0.157L0.421,-0.172L0.298,-0.172L0.298,-0.141C0.298,-0.103 0.273,-0.081 0.233,-0.081C0.193,-0.081 0.168,-0.101 0.168,-0.141L0.168,-0.26L0.421,-0.26ZM0.168,-0.35L0.168,-0.403C0.168,-0.443 0.193,-0.463 0.233,-0.463C0.273,-0.463 0.298,-0.441 0.298,-0.403L0.298,-0.35L0.168,-0.35Z" style="fill-rule:nonzero;"/>
                    </g>
                    <g transform="matrix(12.9288,0,0,20.9073,-50.5751,891.191)">
                        <path d="M0.173,-0.546L0.05,-0.546L0.05,-0L0.173,-0L0.173,-0.241L0.291,-0.241L0.291,-0L0.414,-0L0.414,-0.546L0.291,-0.546L0.291,-0.338L0.173,-0.338L0.173,-0.546Z" style="fill-rule:nonzero;"/>
                    </g>
                    <g transform="matrix(12.9288,0,0,20.9073,-44.5762,891.191)">
                        <path d="M0.173,-0.546L0.05,-0.546L0.05,-0L0.173,-0L0.173,-0.241L0.291,-0.241L0.291,-0L0.414,-0L0.414,-0.546L0.291,-0.546L0.291,-0.338L0.173,-0.338L0.173,-0.546Z" style="fill-rule:nonzero;"/>
                    </g>
                    <g transform="matrix(12.9288,0,0,20.9073,-38.5772,891.191)">
                        <path d="M0.173,-0.241L0.213,-0.241C0.254,-0.241 0.289,-0.224 0.289,-0.17C0.289,-0.109 0.253,-0.097 0.213,-0.097L0.173,-0.097L0.173,-0.241ZM0.173,-0.546L0.05,-0.546L0.05,-0L0.252,-0C0.33,-0 0.417,-0.055 0.417,-0.17C0.417,-0.284 0.332,-0.338 0.252,-0.338L0.173,-0.338L0.173,-0.546ZM0.619,-0.546L0.496,-0.546L0.496,-0L0.619,-0L0.619,-0.546Z" style="fill-rule:nonzero;"/>
                    </g>
                    <g transform="matrix(12.9288,0,0,20.9073,-29.9278,891.191)">
                        <path d="M0.05,-0.546L0.05,-0L0.17,-0L0.301,-0.322L0.301,-0L0.421,-0L0.421,-0.546L0.302,-0.546L0.17,-0.22L0.17,-0.546L0.05,-0.546ZM0.107,-0.722C0.107,-0.656 0.145,-0.599 0.236,-0.599C0.326,-0.599 0.367,-0.642 0.367,-0.722L0.301,-0.722C0.301,-0.677 0.273,-0.671 0.234,-0.671C0.198,-0.671 0.17,-0.675 0.17,-0.722L0.107,-0.722Z" style="fill-rule:nonzero;"/>
                    </g>
                    <g transform="matrix(12.9288,0,0,20.9073,-98.5281,910.356)">
                        <path d="M0.239,-0.56C0.093,-0.56 0.045,-0.477 0.045,-0.382L0.045,-0.162C0.045,-0.067 0.093,0.016 0.239,0.016C0.382,0.016 0.432,-0.067 0.432,-0.162L0.432,-0.382C0.432,-0.477 0.382,-0.56 0.239,-0.56ZM0.239,-0.463C0.279,-0.463 0.304,-0.449 0.304,-0.398L0.304,-0.146C0.304,-0.095 0.279,-0.081 0.239,-0.081C0.201,-0.081 0.173,-0.097 0.173,-0.146L0.173,-0.398C0.173,-0.448 0.201,-0.463 0.239,-0.463Z" style="fill-rule:nonzero;"/>
                    </g>
                    <g transform="matrix(12.9288,0,0,20.9073,-92.361,910.356)">
                        <path d="M0.05,-0.546L0.05,-0L0.173,-0L0.173,-0.449L0.291,-0.449L0.291,-0L0.414,-0L0.414,-0.546L0.05,-0.546Z" style="fill-rule:nonzero;"/>
                    </g>
                    <g transform="matrix(12.9288,0,0,20.9073,-86.3621,910.356)">
                        <path d="M0.01,-0.546L0.01,-0.449L0.136,-0.449L0.136,-0L0.259,-0L0.259,-0.449L0.385,-0.449L0.385,-0.546L0.01,-0.546Z" style="fill-rule:nonzero;"/>
                    </g>
                    <g transform="matrix(12.9288,0,0,20.9073,-81.2164,910.356)">
                        <path d="M0.05,-0.546L0.05,-0L0.17,-0L0.301,-0.322L0.301,-0L0.421,-0L0.421,-0.546L0.302,-0.546L0.17,-0.22L0.17,-0.546L0.05,-0.546Z" style="fill-rule:nonzero;"/>
                    </g>
                    <g transform="matrix(12.9288,0,0,20.9073,-75.1269,910.356)">
                        <path d="M0.045,-0.546L0.045,-0.379C0.045,-0.269 0.106,-0.223 0.181,-0.223C0.229,-0.223 0.259,-0.229 0.286,-0.24L0.286,-0L0.409,-0L0.409,-0.546L0.286,-0.546L0.286,-0.333C0.276,-0.326 0.254,-0.324 0.227,-0.324C0.189,-0.324 0.168,-0.348 0.168,-0.391L0.168,-0.546L0.045,-0.546Z" style="fill-rule:nonzero;"/>
                    </g>
                    <g transform="matrix(12.9288,0,0,20.9073,-69.1926,910.356)">
                        <path d="M0.421,-0.26L0.421,-0.387C0.421,-0.51 0.342,-0.56 0.233,-0.56C0.124,-0.56 0.045,-0.511 0.045,-0.387L0.045,-0.157C0.045,-0.033 0.124,0.016 0.233,0.016C0.342,0.016 0.421,-0.034 0.421,-0.157L0.421,-0.172L0.298,-0.172L0.298,-0.141C0.298,-0.103 0.273,-0.081 0.233,-0.081C0.193,-0.081 0.168,-0.101 0.168,-0.141L0.168,-0.26L0.421,-0.26ZM0.168,-0.35L0.168,-0.403C0.168,-0.443 0.193,-0.463 0.233,-0.463C0.273,-0.463 0.298,-0.441 0.298,-0.403L0.298,-0.35L0.168,-0.35Z" style="fill-rule:nonzero;"/>
                    </g>
                    <g transform="matrix(12.9288,0,0,20.9073,-63.1678,910.356)">
                        <path d="M0.396,-0.348L0.396,-0.416C0.396,-0.513 0.305,-0.56 0.225,-0.56C0.118,-0.56 0.045,-0.498 0.045,-0.406L0.045,-0.138C0.045,-0.046 0.118,0.016 0.225,0.016C0.305,0.016 0.396,-0.031 0.396,-0.128L0.396,-0.211L0.273,-0.211L0.273,-0.134C0.273,-0.101 0.251,-0.085 0.225,-0.085C0.195,-0.085 0.173,-0.102 0.173,-0.141L0.173,-0.403C0.173,-0.442 0.195,-0.459 0.225,-0.459C0.251,-0.459 0.273,-0.443 0.273,-0.41L0.273,-0.348L0.396,-0.348Z" style="fill-rule:nonzero;"/>
                    </g>
                    <g transform="matrix(12.9288,0,0,20.9073,-57.5179,910.356)">
                        <path d="M0.173,-0.546L0.05,-0.546L0.05,-0L0.173,-0L0.173,-0.156L0.202,-0.212L0.278,-0L0.415,-0L0.286,-0.326L0.415,-0.546L0.286,-0.546L0.173,-0.343L0.173,-0.546Z" style="fill-rule:nonzero;"/>
                    </g>
                    <g transform="matrix(12.9288,0,0,20.9073,-52.0232,910.356)">
                        <path d="M0.05,-0.546L0.05,-0L0.17,-0L0.301,-0.322L0.301,-0L0.421,-0L0.421,-0.546L0.302,-0.546L0.17,-0.22L0.17,-0.546L0.05,-0.546Z" style="fill-rule:nonzero;"/>
                    </g>
                    <g transform="matrix(12.9288,0,0,20.9073,-45.9337,910.356)">
                        <path d="M0.05,-0.546L0.05,-0L0.17,-0L0.301,-0.322L0.301,-0L0.421,-0L0.421,-0.546L0.302,-0.546L0.17,-0.22L0.17,-0.546L0.05,-0.546ZM0.107,-0.722C0.107,-0.656 0.145,-0.599 0.236,-0.599C0.326,-0.599 0.367,-0.642 0.367,-0.722L0.301,-0.722C0.301,-0.677 0.273,-0.671 0.234,-0.671C0.198,-0.671 0.17,-0.675 0.17,-0.722L0.107,-0.722Z" style="fill-rule:nonzero;"/>
                    </g>
                    <g transform="matrix(12.9288,0,0,20.9073,-98.5281,929.521)">
                        <path d="M0.05,-0.546L0.05,-0L0.17,-0L0.301,-0.322L0.301,-0L0.421,-0L0.421,-0.546L0.302,-0.546L0.17,-0.22L0.17,-0.546L0.05,-0.546Z" style="fill-rule:nonzero;"/>
                    </g>
                    <g transform="matrix(12.9288,0,0,20.9073,-92.4386,929.521)">
                        <path d="M0.167,-0.379C0.171,-0.429 0.183,-0.463 0.228,-0.463C0.271,-0.463 0.285,-0.44 0.285,-0.4C0.285,-0.357 0.27,-0.331 0.221,-0.331L0.195,-0.331L0.195,-0.241L0.224,-0.241C0.266,-0.241 0.293,-0.215 0.293,-0.165C0.293,-0.111 0.276,-0.081 0.224,-0.081C0.173,-0.081 0.16,-0.126 0.16,-0.173L0.04,-0.173C0.04,-0.03 0.134,0.016 0.232,0.016C0.347,0.016 0.421,-0.037 0.421,-0.145C0.421,-0.225 0.383,-0.273 0.322,-0.291C0.372,-0.31 0.409,-0.347 0.409,-0.411C0.409,-0.501 0.334,-0.56 0.228,-0.56C0.134,-0.56 0.052,-0.502 0.046,-0.379L0.167,-0.379Z" style="fill-rule:nonzero;"/>
                    </g>
                    <g transform="matrix(12.9288,0,0,20.9073,-86.4138,929.521)">
                        <path d="M0.05,-0.546L0.05,-0L0.17,-0L0.17,-0.387L0.171,-0.387L0.258,-0L0.336,-0L0.423,-0.387L0.424,-0.387L0.424,-0L0.544,-0L0.544,-0.546L0.378,-0.546L0.297,-0.181L0.216,-0.546L0.05,-0.546Z" style="fill-rule:nonzero;"/>
                    </g>
                    <g transform="matrix(12.9288,0,0,20.9073,-78.7341,929.521)">
                        <path d="M0.421,-0.26L0.421,-0.387C0.421,-0.51 0.342,-0.56 0.233,-0.56C0.124,-0.56 0.045,-0.511 0.045,-0.387L0.045,-0.157C0.045,-0.033 0.124,0.016 0.233,0.016C0.342,0.016 0.421,-0.034 0.421,-0.157L0.421,-0.172L0.298,-0.172L0.298,-0.141C0.298,-0.103 0.273,-0.081 0.233,-0.081C0.193,-0.081 0.168,-0.101 0.168,-0.141L0.168,-0.26L0.421,-0.26ZM0.168,-0.35L0.168,-0.403C0.168,-0.443 0.193,-0.463 0.233,-0.463C0.273,-0.463 0.298,-0.441 0.298,-0.403L0.298,-0.35L0.168,-0.35Z" style="fill-rule:nonzero;"/>
                    </g>
                    <g transform="matrix(12.9288,0,0,20.9073,-72.7092,929.521)">
                        <path d="M0.234,-0.459C0.266,-0.459 0.293,-0.438 0.293,-0.395L0.293,-0.145C0.293,-0.102 0.266,-0.081 0.234,-0.081C0.203,-0.081 0.173,-0.102 0.173,-0.147L0.173,-0.393C0.173,-0.438 0.203,-0.459 0.234,-0.459ZM0.05,-0.546L0.05,0.182L0.173,0.182L0.173,-0.058C0.194,-0.009 0.231,0.016 0.278,0.016C0.353,0.016 0.421,-0.033 0.421,-0.138L0.421,-0.407C0.421,-0.517 0.353,-0.56 0.278,-0.56C0.235,-0.56 0.192,-0.535 0.173,-0.485L0.173,-0.546L0.05,-0.546Z" style="fill-rule:nonzero;"/>
                    </g>
                    <g transform="matrix(12.9288,0,0,20.9073,-66.6844,929.521)">
                        <path d="M0.05,-0.546L0.05,-0L0.17,-0L0.301,-0.322L0.301,-0L0.421,-0L0.421,-0.546L0.302,-0.546L0.17,-0.22L0.17,-0.546L0.05,-0.546Z" style="fill-rule:nonzero;"/>
                    </g>
                    <g transform="matrix(12.9288,0,0,20.9073,-60.595,929.521)">
                        <path d="M0.01,-0.546L0.01,-0.449L0.136,-0.449L0.136,-0L0.259,-0L0.259,-0.449L0.385,-0.449L0.385,-0.546L0.01,-0.546Z" style="fill-rule:nonzero;"/>
                    </g>
                    <g transform="matrix(12.9288,0,0,20.9073,-55.4493,929.521)">
                        <path d="M0.421,-0.26L0.421,-0.387C0.421,-0.51 0.342,-0.56 0.233,-0.56C0.124,-0.56 0.045,-0.511 0.045,-0.387L0.045,-0.157C0.045,-0.033 0.124,0.016 0.233,0.016C0.342,0.016 0.421,-0.034 0.421,-0.157L0.421,-0.172L0.298,-0.172L0.298,-0.141C0.298,-0.103 0.273,-0.081 0.233,-0.081C0.193,-0.081 0.168,-0.101 0.168,-0.141L0.168,-0.26L0.421,-0.26ZM0.168,-0.35L0.168,-0.403C0.168,-0.443 0.193,-0.463 0.233,-0.463C0.273,-0.463 0.298,-0.441 0.298,-0.403L0.298,-0.35L0.168,-0.35Z" style="fill-rule:nonzero;"/>
                    </g>
                    <g transform="matrix(12.9288,0,0,20.9073,-49.4245,929.521)">
                        <path d="M0.095,-0.546L0.095,-0.338C0.095,-0.106 0.09,-0.087 0.044,-0.087C0.036,-0.087 0.028,-0.088 0.017,-0.09L0.017,-0C0.042,0.007 0.061,0.01 0.088,0.01C0.161,0.01 0.215,-0.037 0.215,-0.23L0.215,-0.449L0.316,-0.449L0.316,-0L0.439,-0L0.439,-0.546L0.095,-0.546Z" style="fill-rule:nonzero;"/>
                    </g>
                    <g transform="matrix(12.9288,0,0,20.9073,-43.1023,929.521)">
                        <path d="M0.173,-0.241L0.213,-0.241C0.254,-0.241 0.289,-0.224 0.289,-0.17C0.289,-0.109 0.253,-0.097 0.213,-0.097L0.173,-0.097L0.173,-0.241ZM0.173,-0.546L0.05,-0.546L0.05,-0L0.252,-0C0.33,-0 0.417,-0.055 0.417,-0.17C0.417,-0.284 0.332,-0.338 0.252,-0.338L0.173,-0.338L0.173,-0.546Z" style="fill-rule:nonzero;"/>
                    </g>
                    <g transform="matrix(12.9288,0,0,20.9073,-37.1292,929.521)">
                        <path d="M0.173,-0.546L0.05,-0.546L0.05,-0L0.173,-0L0.173,-0.241L0.291,-0.241L0.291,-0L0.414,-0L0.414,-0.546L0.291,-0.546L0.291,-0.338L0.173,-0.338L0.173,-0.546Z" style="fill-rule:nonzero;"/>
                    </g>
                    <g transform="matrix(12.9288,0,0,20.9073,-31.1302,929.521)">
                        <path d="M0.173,-0.241L0.213,-0.241C0.254,-0.241 0.289,-0.224 0.289,-0.17C0.289,-0.109 0.253,-0.097 0.213,-0.097L0.173,-0.097L0.173,-0.241ZM0.173,-0.546L0.05,-0.546L0.05,-0L0.252,-0C0.33,-0 0.417,-0.055 0.417,-0.17C0.417,-0.284 0.332,-0.338 0.252,-0.338L0.173,-0.338L0.173,-0.546ZM0.619,-0.546L0.496,-0.546L0.496,-0L0.619,-0L0.619,-0.546Z" style="fill-rule:nonzero;"/>
                    </g>
                    <g transform="matrix(12.9288,0,0,20.9073,-22.4808,929.521)">
                        <path d="M0.05,-0.546L0.05,-0L0.17,-0L0.301,-0.322L0.301,-0L0.421,-0L0.421,-0.546L0.302,-0.546L0.17,-0.22L0.17,-0.546L0.05,-0.546ZM0.107,-0.722C0.107,-0.656 0.145,-0.599 0.236,-0.599C0.326,-0.599 0.367,-0.642 0.367,-0.722L0.301,-0.722C0.301,-0.677 0.273,-0.671 0.234,-0.671C0.198,-0.671 0.17,-0.675 0.17,-0.722L0.107,-0.722Z" style="fill-rule:nonzero;"/>
                    </g>
                    <g transform="matrix(12.9288,0,0,20.9073,-98.5281,948.686)">
                        <path d="M0.01,-0.546L0.01,-0.449L0.136,-0.449L0.136,-0L0.259,-0L0.259,-0.449L0.385,-0.449L0.385,-0.546L0.01,-0.546Z" style="fill-rule:nonzero;"/>
                    </g>
                    <g transform="matrix(12.9288,0,0,20.9073,-93.3824,948.686)">
                        <path d="M0.234,-0.459C0.266,-0.459 0.293,-0.438 0.293,-0.395L0.293,-0.145C0.293,-0.102 0.266,-0.081 0.234,-0.081C0.203,-0.081 0.173,-0.102 0.173,-0.147L0.173,-0.393C0.173,-0.438 0.203,-0.459 0.234,-0.459ZM0.05,-0.546L0.05,0.182L0.173,0.182L0.173,-0.058C0.194,-0.009 0.231,0.016 0.278,0.016C0.353,0.016 0.421,-0.033 0.421,-0.138L0.421,-0.407C0.421,-0.517 0.353,-0.56 0.278,-0.56C0.235,-0.56 0.192,-0.535 0.173,-0.485L0.173,-0.546L0.05,-0.546Z" style="fill-rule:nonzero;"/>
                    </g>
                    <g transform="matrix(12.9288,0,0,20.9073,-87.3576,948.686)">
                        <path d="M0.298,-0.282L0.298,-0.149C0.298,-0.1 0.267,-0.077 0.229,-0.077C0.19,-0.077 0.175,-0.111 0.175,-0.152C0.175,-0.177 0.186,-0.21 0.217,-0.23L0.298,-0.282ZM0.175,-0.378L0.175,-0.389C0.175,-0.438 0.204,-0.459 0.239,-0.459C0.277,-0.459 0.298,-0.444 0.298,-0.411C0.298,-0.365 0.244,-0.341 0.184,-0.316C0.089,-0.276 0.045,-0.23 0.045,-0.135C0.045,-0.032 0.104,0.016 0.185,0.016C0.251,0.016 0.28,-0.01 0.304,-0.052C0.304,-0.038 0.306,-0.012 0.314,-0L0.443,-0C0.429,-0.019 0.427,-0.043 0.427,-0.08L0.427,-0.42C0.427,-0.519 0.344,-0.56 0.238,-0.56C0.131,-0.56 0.055,-0.492 0.055,-0.405L0.055,-0.378L0.175,-0.378Z" style="fill-rule:nonzero;"/>
                    </g>
                    <g transform="matrix(12.9288,0,0,20.9073,-81.1905,948.686)">
                        <path d="M0.173,-0.546L0.05,-0.546L0.05,-0L0.173,-0L0.173,-0.241L0.291,-0.241L0.291,-0L0.414,-0L0.414,-0.546L0.291,-0.546L0.291,-0.338L0.173,-0.338L0.173,-0.546Z" style="fill-rule:nonzero;"/>
                    </g>
                    <g transform="matrix(12.9288,0,0,20.9073,-75.1916,948.686)">
                        <path d="M0.396,-0.348L0.396,-0.416C0.396,-0.513 0.305,-0.56 0.225,-0.56C0.118,-0.56 0.045,-0.498 0.045,-0.406L0.045,-0.138C0.045,-0.046 0.118,0.016 0.225,0.016C0.305,0.016 0.396,-0.031 0.396,-0.128L0.396,-0.211L0.273,-0.211L0.273,-0.134C0.273,-0.101 0.251,-0.085 0.225,-0.085C0.195,-0.085 0.173,-0.102 0.173,-0.141L0.173,-0.403C0.173,-0.442 0.195,-0.459 0.225,-0.459C0.251,-0.459 0.273,-0.443 0.273,-0.41L0.273,-0.348L0.396,-0.348Z" style="fill-rule:nonzero;"/>
                    </g>
                    <g transform="matrix(12.9288,0,0,20.9073,-69.5417,948.686)">
                        <path d="M0.416,-0.722L0.293,-0.722L0.293,-0.485C0.274,-0.535 0.231,-0.56 0.188,-0.56C0.113,-0.56 0.045,-0.517 0.045,-0.407L0.045,-0.138C0.045,-0.033 0.113,0.016 0.188,0.016C0.235,0.016 0.272,-0.009 0.293,-0.058L0.293,0.182L0.416,0.182L0.416,-0.058C0.437,-0.009 0.474,0.016 0.521,0.016C0.596,0.016 0.664,-0.033 0.664,-0.138L0.664,-0.407C0.664,-0.517 0.596,-0.56 0.521,-0.56C0.478,-0.56 0.435,-0.535 0.416,-0.485L0.416,-0.722ZM0.477,-0.459C0.509,-0.459 0.536,-0.438 0.536,-0.395L0.536,-0.145C0.536,-0.102 0.509,-0.081 0.477,-0.081C0.446,-0.081 0.416,-0.102 0.416,-0.147L0.416,-0.393C0.416,-0.438 0.446,-0.459 0.477,-0.459ZM0.234,-0.459C0.266,-0.459 0.293,-0.438 0.293,-0.395L0.293,-0.145C0.293,-0.102 0.266,-0.081 0.234,-0.081C0.203,-0.081 0.173,-0.102 0.173,-0.147L0.173,-0.393C0.173,-0.438 0.203,-0.459 0.234,-0.459Z" style="fill-rule:nonzero;"/>
                    </g>
                    <g transform="matrix(12.9288,0,0,20.9073,-60.3752,948.686)">
                        <path d="M0.239,-0.56C0.093,-0.56 0.045,-0.477 0.045,-0.382L0.045,-0.162C0.045,-0.067 0.093,0.016 0.239,0.016C0.382,0.016 0.432,-0.067 0.432,-0.162L0.432,-0.382C0.432,-0.477 0.382,-0.56 0.239,-0.56ZM0.239,-0.463C0.279,-0.463 0.304,-0.449 0.304,-0.398L0.304,-0.146C0.304,-0.095 0.279,-0.081 0.239,-0.081C0.201,-0.081 0.173,-0.097 0.173,-0.146L0.173,-0.398C0.173,-0.448 0.201,-0.463 0.239,-0.463Z" style="fill-rule:nonzero;"/>
                    </g>
                    <g transform="matrix(12.9288,0,0,20.9073,-54.2081,948.686)">
                        <path d="M0.234,-0.459C0.266,-0.459 0.293,-0.438 0.293,-0.395L0.293,-0.145C0.293,-0.102 0.266,-0.081 0.234,-0.081C0.203,-0.081 0.173,-0.102 0.173,-0.147L0.173,-0.393C0.173,-0.438 0.203,-0.459 0.234,-0.459ZM0.05,-0.546L0.05,0.182L0.173,0.182L0.173,-0.058C0.194,-0.009 0.231,0.016 0.278,0.016C0.353,0.016 0.421,-0.033 0.421,-0.138L0.421,-0.407C0.421,-0.517 0.353,-0.56 0.278,-0.56C0.235,-0.56 0.192,-0.535 0.173,-0.485L0.173,-0.546L0.05,-0.546Z" style="fill-rule:nonzero;"/>
                    </g>
                    <g transform="matrix(12.9288,0,0,20.9073,-48.1833,948.686)">
                        <path d="M0.05,-0.546L0.05,-0L0.17,-0L0.17,-0.387L0.171,-0.387L0.258,-0L0.336,-0L0.423,-0.387L0.424,-0.387L0.424,-0L0.544,-0L0.544,-0.546L0.378,-0.546L0.297,-0.181L0.216,-0.546L0.05,-0.546Z" style="fill-rule:nonzero;"/>
                    </g>
                    <g transform="matrix(12.9288,0,0,20.9073,-40.5036,948.686)">
                        <path d="M0.298,-0.282L0.298,-0.149C0.298,-0.1 0.267,-0.077 0.229,-0.077C0.19,-0.077 0.175,-0.111 0.175,-0.152C0.175,-0.177 0.186,-0.21 0.217,-0.23L0.298,-0.282ZM0.175,-0.378L0.175,-0.389C0.175,-0.438 0.204,-0.459 0.239,-0.459C0.277,-0.459 0.298,-0.444 0.298,-0.411C0.298,-0.365 0.244,-0.341 0.184,-0.316C0.089,-0.276 0.045,-0.23 0.045,-0.135C0.045,-0.032 0.104,0.016 0.185,0.016C0.251,0.016 0.28,-0.01 0.304,-0.052C0.304,-0.038 0.306,-0.012 0.314,-0L0.443,-0C0.429,-0.019 0.427,-0.043 0.427,-0.08L0.427,-0.42C0.427,-0.519 0.344,-0.56 0.238,-0.56C0.131,-0.56 0.055,-0.492 0.055,-0.405L0.055,-0.378L0.175,-0.378Z" style="fill-rule:nonzero;"/>
                    </g>
                    <g transform="matrix(12.9288,0,0,20.9073,-34.3365,948.686)">
                        <path d="M0.01,-0.546L0.01,-0.449L0.136,-0.449L0.136,-0L0.259,-0L0.259,-0.449L0.385,-0.449L0.385,-0.546L0.01,-0.546Z" style="fill-rule:nonzero;"/>
                    </g>
                    <g transform="matrix(12.9288,0,0,20.9073,-29.1909,948.686)">
                        <path d="M0.239,-0.56C0.093,-0.56 0.045,-0.477 0.045,-0.382L0.045,-0.162C0.045,-0.067 0.093,0.016 0.239,0.016C0.382,0.016 0.432,-0.067 0.432,-0.162L0.432,-0.382C0.432,-0.477 0.382,-0.56 0.239,-0.56ZM0.239,-0.463C0.279,-0.463 0.304,-0.449 0.304,-0.398L0.304,-0.146C0.304,-0.095 0.279,-0.081 0.239,-0.081C0.201,-0.081 0.173,-0.097 0.173,-0.146L0.173,-0.398C0.173,-0.448 0.201,-0.463 0.239,-0.463Z" style="fill-rule:nonzero;"/>
                    </g>
                    <g transform="matrix(12.9288,0,0,20.9073,-23.0238,948.686)">
                        <path d="M0.234,-0.459C0.266,-0.459 0.293,-0.438 0.293,-0.395L0.293,-0.145C0.293,-0.102 0.266,-0.081 0.234,-0.081C0.203,-0.081 0.173,-0.102 0.173,-0.147L0.173,-0.393C0.173,-0.438 0.203,-0.459 0.234,-0.459ZM0.05,-0.546L0.05,0.182L0.173,0.182L0.173,-0.058C0.194,-0.009 0.231,0.016 0.278,0.016C0.353,0.016 0.421,-0.033 0.421,-0.138L0.421,-0.407C0.421,-0.517 0.353,-0.56 0.278,-0.56C0.235,-0.56 0.192,-0.535 0.173,-0.485L0.173,-0.546L0.05,-0.546Z" style="fill-rule:nonzero;"/>
                    </g>
                    <g transform="matrix(12.9288,0,0,20.9073,-13.8961,948.686)">
                        <path d="M0.01,-0.546L0.01,-0.449L0.136,-0.449L0.136,-0L0.259,-0L0.259,-0.449L0.385,-0.449L0.385,-0.546L0.01,-0.546Z" style="fill-rule:nonzero;"/>
                    </g>
                    <g transform="matrix(12.9288,0,0,20.9073,-8.75043,948.686)">
                        <path d="M0.239,-0.56C0.093,-0.56 0.045,-0.477 0.045,-0.382L0.045,-0.162C0.045,-0.067 0.093,0.016 0.239,0.016C0.382,0.016 0.432,-0.067 0.432,-0.162L0.432,-0.382C0.432,-0.477 0.382,-0.56 0.239,-0.56ZM0.239,-0.463C0.279,-0.463 0.304,-0.449 0.304,-0.398L0.304,-0.146C0.304,-0.095 0.279,-0.081 0.239,-0.081C0.201,-0.081 0.173,-0.097 0.173,-0.146L0.173,-0.398C0.173,-0.448 0.201,-0.463 0.239,-0.463Z" style="fill-rule:nonzero;"/>
                    </g>
                    <g transform="matrix(12.9288,0,0,20.9073,-2.58338,948.686)">
                        <path d="M0.173,-0.546L0.05,-0.546L0.05,-0L0.173,-0L0.173,-0.156L0.202,-0.212L0.278,-0L0.415,-0L0.286,-0.326L0.415,-0.546L0.286,-0.546L0.173,-0.343L0.173,-0.546Z" style="fill-rule:nonzero;"/>
                    </g>
                    <g transform="matrix(12.9288,0,0,20.9073,2.91136,948.686)">
                        <path d="M0.298,-0.282L0.298,-0.149C0.298,-0.1 0.267,-0.077 0.229,-0.077C0.19,-0.077 0.175,-0.111 0.175,-0.152C0.175,-0.177 0.186,-0.21 0.217,-0.23L0.298,-0.282ZM0.175,-0.378L0.175,-0.389C0.175,-0.438 0.204,-0.459 0.239,-0.459C0.277,-0.459 0.298,-0.444 0.298,-0.411C0.298,-0.365 0.244,-0.341 0.184,-0.316C0.089,-0.276 0.045,-0.23 0.045,-0.135C0.045,-0.032 0.104,0.016 0.185,0.016C0.251,0.016 0.28,-0.01 0.304,-0.052C0.304,-0.038 0.306,-0.012 0.314,-0L0.443,-0C0.429,-0.019 0.427,-0.043 0.427,-0.08L0.427,-0.42C0.427,-0.519 0.344,-0.56 0.238,-0.56C0.131,-0.56 0.055,-0.492 0.055,-0.405L0.055,-0.378L0.175,-0.378Z" style="fill-rule:nonzero;"/>
                    </g>
                    <g transform="matrix(12.9288,0,0,20.9073,-98.5281,967.851)">
                        <path d="M0.05,-0.546L0.05,-0L0.17,-0L0.301,-0.322L0.301,-0L0.421,-0L0.421,-0.546L0.302,-0.546L0.17,-0.22L0.17,-0.546L0.05,-0.546Z" style="fill-rule:nonzero;"/>
                    </g>
                    <g transform="matrix(12.9288,0,0,20.9073,-89.3357,967.851)">
                        <path d="M0.173,-0.546L0.05,-0.546L0.05,-0L0.173,-0L0.173,-0.241L0.291,-0.241L0.291,-0L0.414,-0L0.414,-0.546L0.291,-0.546L0.291,-0.338L0.173,-0.338L0.173,-0.546Z" style="fill-rule:nonzero;"/>
                    </g>
                    <g transform="matrix(12.9288,0,0,20.9073,-83.3367,967.851)">
                        <path d="M0.298,-0.282L0.298,-0.149C0.298,-0.1 0.267,-0.077 0.229,-0.077C0.19,-0.077 0.175,-0.111 0.175,-0.152C0.175,-0.177 0.186,-0.21 0.217,-0.23L0.298,-0.282ZM0.175,-0.378L0.175,-0.389C0.175,-0.438 0.204,-0.459 0.239,-0.459C0.277,-0.459 0.298,-0.444 0.298,-0.411C0.298,-0.365 0.244,-0.341 0.184,-0.316C0.089,-0.276 0.045,-0.23 0.045,-0.135C0.045,-0.032 0.104,0.016 0.185,0.016C0.251,0.016 0.28,-0.01 0.304,-0.052C0.304,-0.038 0.306,-0.012 0.314,-0L0.443,-0C0.429,-0.019 0.427,-0.043 0.427,-0.08L0.427,-0.42C0.427,-0.519 0.344,-0.56 0.238,-0.56C0.131,-0.56 0.055,-0.492 0.055,-0.405L0.055,-0.378L0.175,-0.378Z" style="fill-rule:nonzero;"/>
                    </g>
                    <g transform="matrix(12.9288,0,0,20.9073,-77.1697,967.851)">
                        <path d="M0.05,-0.546L0.05,-0L0.173,-0L0.173,-0.449L0.291,-0.449L0.291,-0L0.414,-0L0.414,-0.546L0.05,-0.546Z" style="fill-rule:nonzero;"/>
                    </g>
                    <g transform="matrix(12.9288,0,0,20.9073,-71.1707,967.851)">
                        <path d="M0.234,-0.459C0.266,-0.459 0.293,-0.438 0.293,-0.395L0.293,-0.145C0.293,-0.102 0.266,-0.081 0.234,-0.081C0.203,-0.081 0.173,-0.102 0.173,-0.147L0.173,-0.393C0.173,-0.438 0.203,-0.459 0.234,-0.459ZM0.05,-0.546L0.05,0.182L0.173,0.182L0.173,-0.058C0.194,-0.009 0.231,0.016 0.278,0.016C0.353,0.016 0.421,-0.033 0.421,-0.138L0.421,-0.407C0.421,-0.517 0.353,-0.56 0.278,-0.56C0.235,-0.56 0.192,-0.535 0.173,-0.485L0.173,-0.546L0.05,-0.546Z" style="fill-rule:nonzero;"/>
                    </g>
                    <g transform="matrix(12.9288,0,0,20.9073,-65.1459,967.851)">
                        <path d="M0.289,-0.301L0.236,-0.301C0.195,-0.301 0.173,-0.328 0.173,-0.376C0.173,-0.427 0.202,-0.452 0.241,-0.452L0.289,-0.452L0.289,-0.301ZM0.289,-0.207L0.289,-0L0.412,-0L0.412,-0.546L0.21,-0.546C0.132,-0.546 0.045,-0.491 0.045,-0.376C0.045,-0.305 0.075,-0.257 0.127,-0.228L0.027,-0L0.16,-0L0.241,-0.207L0.289,-0.207Z" style="fill-rule:nonzero;"/>
                    </g>
                    <g transform="matrix(12.9288,0,0,20.9073,-59.1728,967.851)">
                        <path d="M0.246,-0.546L0.246,-0.343L0.133,-0.546L0.004,-0.546L0.133,-0.326L0.004,-0L0.141,-0L0.217,-0.212L0.246,-0.156L0.246,-0L0.364,-0L0.364,-0.156L0.393,-0.212L0.469,-0L0.606,-0L0.477,-0.326L0.606,-0.546L0.477,-0.546L0.364,-0.343L0.364,-0.546L0.246,-0.546Z" style="fill-rule:nonzero;"/>
                    </g>
                    <g transform="matrix(12.9288,0,0,20.9073,-51.2086,967.851)">
                        <path d="M0.421,-0.26L0.421,-0.387C0.421,-0.51 0.342,-0.56 0.233,-0.56C0.124,-0.56 0.045,-0.511 0.045,-0.387L0.045,-0.157C0.045,-0.033 0.124,0.016 0.233,0.016C0.342,0.016 0.421,-0.034 0.421,-0.157L0.421,-0.172L0.298,-0.172L0.298,-0.141C0.298,-0.103 0.273,-0.081 0.233,-0.081C0.193,-0.081 0.168,-0.101 0.168,-0.141L0.168,-0.26L0.421,-0.26ZM0.168,-0.35L0.168,-0.403C0.168,-0.443 0.193,-0.463 0.233,-0.463C0.273,-0.463 0.298,-0.441 0.298,-0.403L0.298,-0.35L0.168,-0.35Z" style="fill-rule:nonzero;"/>
                    </g>
                    <g transform="matrix(12.9288,0,0,20.9073,-45.1838,967.851)">
                        <path d="M0.173,-0.546L0.05,-0.546L0.05,-0L0.173,-0L0.173,-0.241L0.291,-0.241L0.291,-0L0.414,-0L0.414,-0.546L0.291,-0.546L0.291,-0.338L0.173,-0.338L0.173,-0.546Z" style="fill-rule:nonzero;"/>
                    </g>
                    <g transform="matrix(12.9288,0,0,20.9073,-39.1848,967.851)">
                        <path d="M0.05,-0.546L0.05,-0L0.17,-0L0.301,-0.322L0.301,-0L0.421,-0L0.421,-0.546L0.302,-0.546L0.17,-0.22L0.17,-0.546L0.05,-0.546Z" style="fill-rule:nonzero;"/>
                    </g>
                    <g transform="matrix(12.9288,0,0,20.9073,-33.0954,967.851)">
                        <path d="M0.289,-0.301L0.236,-0.301C0.195,-0.301 0.173,-0.328 0.173,-0.376C0.173,-0.427 0.202,-0.452 0.241,-0.452L0.289,-0.452L0.289,-0.301ZM0.289,-0.207L0.289,-0L0.412,-0L0.412,-0.546L0.21,-0.546C0.132,-0.546 0.045,-0.491 0.045,-0.376C0.045,-0.305 0.075,-0.257 0.127,-0.228L0.027,-0L0.16,-0L0.241,-0.207L0.289,-0.207Z" style="fill-rule:nonzero;"/>
                    </g>
                </g>
                <g transform="matrix(1.64025e-16,-5.02264,1.6565,1.90184e-16,-839.252,87.9375)">
                    <g transform="matrix(12.9288,0,0,20.9073,-98.5281,891.191)">
                        <path d="M0.187,-0.722L0.05,-0.722L0.05,-0L0.421,-0L0.421,0.146L0.549,0.146L0.549,-0.11L0.505,-0.11L0.505,-0.722L0.368,-0.722L0.368,-0.11L0.187,-0.11L0.187,-0.722Z" style="fill-rule:nonzero;"/>
                    </g>
                    <g transform="matrix(12.9288,0,0,20.9073,-91.0682,891.191)">
                        <path d="M0.05,-0.546L0.05,-0L0.17,-0L0.301,-0.322L0.301,-0L0.421,-0L0.421,-0.546L0.302,-0.546L0.17,-0.22L0.17,-0.546L0.05,-0.546Z" style="fill-rule:nonzero;"/>
                    </g>
                    <g transform="matrix(12.9288,0,0,20.9073,-84.9787,891.191)">
                        <path d="M0.416,-0.722L0.293,-0.722L0.293,-0.485C0.274,-0.535 0.231,-0.56 0.188,-0.56C0.113,-0.56 0.045,-0.517 0.045,-0.407L0.045,-0.138C0.045,-0.033 0.113,0.016 0.188,0.016C0.235,0.016 0.272,-0.009 0.293,-0.058L0.293,0.182L0.416,0.182L0.416,-0.058C0.437,-0.009 0.474,0.016 0.521,0.016C0.596,0.016 0.664,-0.033 0.664,-0.138L0.664,-0.407C0.664,-0.517 0.596,-0.56 0.521,-0.56C0.478,-0.56 0.435,-0.535 0.416,-0.485L0.416,-0.722ZM0.477,-0.459C0.509,-0.459 0.536,-0.438 0.536,-0.395L0.536,-0.145C0.536,-0.102 0.509,-0.081 0.477,-0.081C0.446,-0.081 0.416,-0.102 0.416,-0.147L0.416,-0.393C0.416,-0.438 0.446,-0.459 0.477,-0.459ZM0.234,-0.459C0.266,-0.459 0.293,-0.438 0.293,-0.395L0.293,-0.145C0.293,-0.102 0.266,-0.081 0.234,-0.081C0.203,-0.081 0.173,-0.102 0.173,-0.147L0.173,-0.393C0.173,-0.438 0.203,-0.459 0.234,-0.459Z" style="fill-rule:nonzero;"/>
                    </g>
                    <g transform="matrix(12.9288,0,0,20.9073,-75.8122,891.191)">
                        <path d="M0.234,-0.459C0.266,-0.459 0.293,-0.438 0.293,-0.395L0.293,-0.145C0.293,-0.102 0.266,-0.081 0.234,-0.081C0.203,-0.081 0.173,-0.102 0.173,-0.147L0.173,-0.393C0.173,-0.438 0.203,-0.459 0.234,-0.459ZM0.05,-0.546L0.05,0.182L0.173,0.182L0.173,-0.058C0.194,-0.009 0.231,0.016 0.278,0.016C0.353,0.016 0.421,-0.033 0.421,-0.138L0.421,-0.407C0.421,-0.517 0.353,-0.56 0.278,-0.56C0.235,-0.56 0.192,-0.535 0.173,-0.485L0.173,-0.546L0.05,-0.546Z" style="fill-rule:nonzero;"/>
                    </g>
                    <g transform="matrix(12.9288,0,0,20.9073,-69.7873,891.191)">
                        <path d="M0.239,-0.56C0.093,-0.56 0.045,-0.477 0.045,-0.382L0.045,-0.162C0.045,-0.067 0.093,0.016 0.239,0.016C0.382,0.016 0.432,-0.067 0.432,-0.162L0.432,-0.382C0.432,-0.477 0.382,-0.56 0.239,-0.56ZM0.239,-0.463C0.279,-0.463 0.304,-0.449 0.304,-0.398L0.304,-0.146C0.304,-0.095 0.279,-0.081 0.239,-0.081C0.201,-0.081 0.173,-0.097 0.173,-0.146L0.173,-0.398C0.173,-0.448 0.201,-0.463 0.239,-0.463Z" style="fill-rule:nonzero;"/>
                    </g>
                    <g transform="matrix(12.9288,0,0,20.9073,-63.6203,891.191)">
                        <path d="M0.173,-0.456L0.207,-0.456C0.253,-0.456 0.28,-0.438 0.28,-0.393C0.28,-0.349 0.253,-0.33 0.207,-0.33L0.173,-0.33L0.173,-0.456ZM0.173,-0.245L0.214,-0.245C0.255,-0.245 0.29,-0.221 0.29,-0.165C0.29,-0.104 0.255,-0.09 0.214,-0.09L0.173,-0.09L0.173,-0.245ZM0.05,-0L0.258,-0C0.336,-0 0.418,-0.041 0.418,-0.155C0.418,-0.244 0.372,-0.274 0.326,-0.292C0.365,-0.307 0.408,-0.347 0.408,-0.418C0.408,-0.505 0.329,-0.546 0.253,-0.546L0.05,-0.546L0.05,-0Z" style="fill-rule:nonzero;"/>
                    </g>
                    <g transform="matrix(12.9288,0,0,20.9073,-57.6343,891.191)">
                        <path d="M0.239,-0.56C0.093,-0.56 0.045,-0.477 0.045,-0.382L0.045,-0.162C0.045,-0.067 0.093,0.016 0.239,0.016C0.382,0.016 0.432,-0.067 0.432,-0.162L0.432,-0.382C0.432,-0.477 0.382,-0.56 0.239,-0.56ZM0.239,-0.463C0.279,-0.463 0.304,-0.449 0.304,-0.398L0.304,-0.146C0.304,-0.095 0.279,-0.081 0.239,-0.081C0.201,-0.081 0.173,-0.097 0.173,-0.146L0.173,-0.398C0.173,-0.448 0.201,-0.463 0.239,-0.463Z" style="fill-rule:nonzero;"/>
                    </g>
                    <g transform="matrix(12.9288,0,0,20.9073,-51.4672,891.191)">
                        <path d="M0.05,-0.546L0.05,-0L0.17,-0L0.301,-0.322L0.301,-0L0.421,-0L0.421,-0.546L0.302,-0.546L0.17,-0.22L0.17,-0.546L0.05,-0.546ZM0.107,-0.722C0.107,-0.656 0.145,-0.599 0.236,-0.599C0.326,-0.599 0.367,-0.642 0.367,-0.722L0.301,-0.722C0.301,-0.677 0.273,-0.671 0.234,-0.671C0.198,-0.671 0.17,-0.675 0.17,-0.722L0.107,-0.722Z" style="fill-rule:nonzero;"/>
                    </g>
                    <g transform="matrix(12.9288,0,0,20.9073,-98.5281,910.356)">
                        <path d="M0.173,-0.546L0.05,-0.546L0.05,-0L0.173,-0L0.173,-0.156L0.202,-0.212L0.278,-0L0.415,-0L0.286,-0.326L0.415,-0.546L0.286,-0.546L0.173,-0.343L0.173,-0.546Z" style="fill-rule:nonzero;"/>
                    </g>
                    <g transform="matrix(12.9288,0,0,20.9073,-93.0333,910.356)">
                        <path d="M0.239,-0.56C0.093,-0.56 0.045,-0.477 0.045,-0.382L0.045,-0.162C0.045,-0.067 0.093,0.016 0.239,0.016C0.382,0.016 0.432,-0.067 0.432,-0.162L0.432,-0.382C0.432,-0.477 0.382,-0.56 0.239,-0.56ZM0.239,-0.463C0.279,-0.463 0.304,-0.449 0.304,-0.398L0.304,-0.146C0.304,-0.095 0.279,-0.081 0.239,-0.081C0.201,-0.081 0.173,-0.097 0.173,-0.146L0.173,-0.398C0.173,-0.448 0.201,-0.463 0.239,-0.463Z" style="fill-rule:nonzero;"/>
                    </g>
                    <g transform="matrix(12.9288,0,0,20.9073,-86.8663,910.356)">
                        <path d="M0.05,-0.546L0.05,-0L0.17,-0L0.17,-0.387L0.171,-0.387L0.258,-0L0.336,-0L0.423,-0.387L0.424,-0.387L0.424,-0L0.544,-0L0.544,-0.546L0.378,-0.546L0.297,-0.181L0.216,-0.546L0.05,-0.546Z" style="fill-rule:nonzero;"/>
                    </g>
                    <g transform="matrix(12.9288,0,0,20.9073,-79.1866,910.356)">
                        <path d="M0.05,-0.546L0.05,-0L0.17,-0L0.17,-0.387L0.171,-0.387L0.258,-0L0.336,-0L0.423,-0.387L0.424,-0.387L0.424,-0L0.544,-0L0.544,-0.546L0.378,-0.546L0.297,-0.181L0.216,-0.546L0.05,-0.546Z" style="fill-rule:nonzero;"/>
                    </g>
                    <g transform="matrix(12.9288,0,0,20.9073,-71.5069,910.356)">
                        <path d="M0.008,-0.546C0.122,-0.077 0.151,0.04 0.151,0.049C0.151,0.069 0.142,0.085 0.124,0.085L0.079,0.085L0.079,0.178C0.102,0.181 0.12,0.182 0.144,0.182C0.218,0.182 0.253,0.16 0.274,0.069L0.419,-0.546L0.29,-0.546L0.22,-0.127L0.218,-0.127L0.145,-0.546L0.008,-0.546Z" style="fill-rule:nonzero;"/>
                    </g>
                    <g transform="matrix(12.9288,0,0,20.9073,-65.8958,910.356)">
                        <path d="M0.01,-0.546L0.01,-0.449L0.136,-0.449L0.136,-0L0.259,-0L0.259,-0.449L0.385,-0.449L0.385,-0.546L0.01,-0.546Z" style="fill-rule:nonzero;"/>
                    </g>
                    <g transform="matrix(12.9288,0,0,20.9073,-60.7501,910.356)">
                        <path d="M0.298,-0.282L0.298,-0.149C0.298,-0.1 0.267,-0.077 0.229,-0.077C0.19,-0.077 0.175,-0.111 0.175,-0.152C0.175,-0.177 0.186,-0.21 0.217,-0.23L0.298,-0.282ZM0.175,-0.378L0.175,-0.389C0.175,-0.438 0.204,-0.459 0.239,-0.459C0.277,-0.459 0.298,-0.444 0.298,-0.411C0.298,-0.365 0.244,-0.341 0.184,-0.316C0.089,-0.276 0.045,-0.23 0.045,-0.135C0.045,-0.032 0.104,0.016 0.185,0.016C0.251,0.016 0.28,-0.01 0.304,-0.052C0.304,-0.038 0.306,-0.012 0.314,-0L0.443,-0C0.429,-0.019 0.427,-0.043 0.427,-0.08L0.427,-0.42C0.427,-0.519 0.344,-0.56 0.238,-0.56C0.131,-0.56 0.055,-0.492 0.055,-0.405L0.055,-0.378L0.175,-0.378Z" style="fill-rule:nonzero;"/>
                    </g>
                    <g transform="matrix(12.9288,0,0,20.9073,-54.5831,910.356)">
                        <path d="M0.173,-0.546L0.05,-0.546L0.05,-0L0.342,-0L0.342,0.132L0.458,0.132L0.458,-0.097L0.414,-0.097L0.414,-0.546L0.291,-0.546L0.291,-0.097L0.173,-0.097L0.173,-0.546Z" style="fill-rule:nonzero;"/>
                    </g>
                    <g transform="matrix(12.9288,0,0,20.9073,-48.3384,910.356)">
                        <path d="M0.05,-0.546L0.05,-0L0.17,-0L0.301,-0.322L0.301,-0L0.421,-0L0.421,-0.546L0.302,-0.546L0.17,-0.22L0.17,-0.546L0.05,-0.546Z" style="fill-rule:nonzero;"/>
                    </g>
                    <g transform="matrix(12.9288,0,0,20.9073,-42.249,910.356)">
                        <path d="M0.239,-0.56C0.093,-0.56 0.045,-0.477 0.045,-0.382L0.045,-0.162C0.045,-0.067 0.093,0.016 0.239,0.016C0.382,0.016 0.432,-0.067 0.432,-0.162L0.432,-0.382C0.432,-0.477 0.382,-0.56 0.239,-0.56ZM0.239,-0.463C0.279,-0.463 0.304,-0.449 0.304,-0.398L0.304,-0.146C0.304,-0.095 0.279,-0.081 0.239,-0.081C0.201,-0.081 0.173,-0.097 0.173,-0.146L0.173,-0.398C0.173,-0.448 0.201,-0.463 0.239,-0.463Z" style="fill-rule:nonzero;"/>
                    </g>
                    <g transform="matrix(12.9288,0,0,20.9073,-36.0819,910.356)">
                        <path d="M0.173,-0.546L0.05,-0.546L0.05,-0L0.173,-0L0.173,-0.241L0.291,-0.241L0.291,-0L0.414,-0L0.414,-0.546L0.291,-0.546L0.291,-0.338L0.173,-0.338L0.173,-0.546Z" style="fill-rule:nonzero;"/>
                    </g>
                    <g transform="matrix(12.9288,0,0,20.9073,-30.083,910.356)">
                        <path d="M0.173,-0.546L0.05,-0.546L0.05,-0L0.173,-0L0.173,-0.241L0.291,-0.241L0.291,-0L0.414,-0L0.414,-0.546L0.291,-0.546L0.291,-0.338L0.173,-0.338L0.173,-0.546Z" style="fill-rule:nonzero;"/>
                    </g>
                    <g transform="matrix(12.9288,0,0,20.9073,-24.084,910.356)">
                        <path d="M0.173,-0.241L0.213,-0.241C0.254,-0.241 0.289,-0.224 0.289,-0.17C0.289,-0.109 0.253,-0.097 0.213,-0.097L0.173,-0.097L0.173,-0.241ZM0.173,-0.546L0.05,-0.546L0.05,-0L0.252,-0C0.33,-0 0.417,-0.055 0.417,-0.17C0.417,-0.284 0.332,-0.338 0.252,-0.338L0.173,-0.338L0.173,-0.546ZM0.619,-0.546L0.496,-0.546L0.496,-0L0.619,-0L0.619,-0.546Z" style="fill-rule:nonzero;"/>
                    </g>
                    <g transform="matrix(12.9288,0,0,20.9073,-15.4346,910.356)">
                        <path d="M0.05,-0.546L0.05,-0L0.17,-0L0.301,-0.322L0.301,-0L0.421,-0L0.421,-0.546L0.302,-0.546L0.17,-0.22L0.17,-0.546L0.05,-0.546ZM0.107,-0.722C0.107,-0.656 0.145,-0.599 0.236,-0.599C0.326,-0.599 0.367,-0.642 0.367,-0.722L0.301,-0.722C0.301,-0.677 0.273,-0.671 0.234,-0.671C0.198,-0.671 0.17,-0.675 0.17,-0.722L0.107,-0.722Z" style="fill-rule:nonzero;"/>
                    </g>
                    <g transform="matrix(12.9288,0,0,20.9073,-98.5281,929.521)">
                        <path d="M0.298,-0.282L0.298,-0.149C0.298,-0.1 0.267,-0.077 0.229,-0.077C0.19,-0.077 0.175,-0.111 0.175,-0.152C0.175,-0.177 0.186,-0.21 0.217,-0.23L0.298,-0.282ZM0.175,-0.378L0.175,-0.389C0.175,-0.438 0.204,-0.459 0.239,-0.459C0.277,-0.459 0.298,-0.444 0.298,-0.411C0.298,-0.365 0.244,-0.341 0.184,-0.316C0.089,-0.276 0.045,-0.23 0.045,-0.135C0.045,-0.032 0.104,0.016 0.185,0.016C0.251,0.016 0.28,-0.01 0.304,-0.052C0.304,-0.038 0.306,-0.012 0.314,-0L0.443,-0C0.429,-0.019 0.427,-0.043 0.427,-0.08L0.427,-0.42C0.427,-0.519 0.344,-0.56 0.238,-0.56C0.131,-0.56 0.055,-0.492 0.055,-0.405L0.055,-0.378L0.175,-0.378Z" style="fill-rule:nonzero;"/>
                    </g>
                    <g transform="matrix(12.9288,0,0,20.9073,-92.361,929.521)">
                        <path d="M0.05,-0.546L0.05,-0L0.173,-0L0.173,-0.449L0.291,-0.449L0.291,-0L0.414,-0L0.414,-0.546L0.05,-0.546Z" style="fill-rule:nonzero;"/>
                    </g>
                    <g transform="matrix(12.9288,0,0,20.9073,-86.3621,929.521)">
                        <path d="M0.05,-0.546L0.05,-0L0.173,-0L0.173,-0.449L0.291,-0.449L0.291,-0L0.414,-0L0.414,-0.546L0.05,-0.546Z" style="fill-rule:nonzero;"/>
                    </g>
                    <g transform="matrix(12.9288,0,0,20.9073,-80.3631,929.521)">
                        <path d="M0.298,-0.282L0.298,-0.149C0.298,-0.1 0.267,-0.077 0.229,-0.077C0.19,-0.077 0.175,-0.111 0.175,-0.152C0.175,-0.177 0.186,-0.21 0.217,-0.23L0.298,-0.282ZM0.175,-0.378L0.175,-0.389C0.175,-0.438 0.204,-0.459 0.239,-0.459C0.277,-0.459 0.298,-0.444 0.298,-0.411C0.298,-0.365 0.244,-0.341 0.184,-0.316C0.089,-0.276 0.045,-0.23 0.045,-0.135C0.045,-0.032 0.104,0.016 0.185,0.016C0.251,0.016 0.28,-0.01 0.304,-0.052C0.304,-0.038 0.306,-0.012 0.314,-0L0.443,-0C0.429,-0.019 0.427,-0.043 0.427,-0.08L0.427,-0.42C0.427,-0.519 0.344,-0.56 0.238,-0.56C0.131,-0.56 0.055,-0.492 0.055,-0.405L0.055,-0.378L0.175,-0.378Z" style="fill-rule:nonzero;"/>
                    </g>
                    <g transform="matrix(12.9288,0,0,20.9073,-74.1961,929.521)">
                        <path d="M0.234,-0.459C0.266,-0.459 0.293,-0.438 0.293,-0.395L0.293,-0.145C0.293,-0.102 0.266,-0.081 0.234,-0.081C0.203,-0.081 0.173,-0.102 0.173,-0.147L0.173,-0.393C0.173,-0.438 0.203,-0.459 0.234,-0.459ZM0.05,-0.546L0.05,0.182L0.173,0.182L0.173,-0.058C0.194,-0.009 0.231,0.016 0.278,0.016C0.353,0.016 0.421,-0.033 0.421,-0.138L0.421,-0.407C0.421,-0.517 0.353,-0.56 0.278,-0.56C0.235,-0.56 0.192,-0.535 0.173,-0.485L0.173,-0.546L0.05,-0.546Z" style="fill-rule:nonzero;"/>
                    </g>
                    <g transform="matrix(12.9288,0,0,20.9073,-68.1712,929.521)">
                        <path d="M0.298,-0.282L0.298,-0.149C0.298,-0.1 0.267,-0.077 0.229,-0.077C0.19,-0.077 0.175,-0.111 0.175,-0.152C0.175,-0.177 0.186,-0.21 0.217,-0.23L0.298,-0.282ZM0.175,-0.378L0.175,-0.389C0.175,-0.438 0.204,-0.459 0.239,-0.459C0.277,-0.459 0.298,-0.444 0.298,-0.411C0.298,-0.365 0.244,-0.341 0.184,-0.316C0.089,-0.276 0.045,-0.23 0.045,-0.135C0.045,-0.032 0.104,0.016 0.185,0.016C0.251,0.016 0.28,-0.01 0.304,-0.052C0.304,-0.038 0.306,-0.012 0.314,-0L0.443,-0C0.429,-0.019 0.427,-0.043 0.427,-0.08L0.427,-0.42C0.427,-0.519 0.344,-0.56 0.238,-0.56C0.131,-0.56 0.055,-0.492 0.055,-0.405L0.055,-0.378L0.175,-0.378Z" style="fill-rule:nonzero;"/>
                    </g>
                    <g transform="matrix(12.9288,0,0,20.9073,-62.0042,929.521)">
                        <path d="M0.01,-0.546L0.01,-0.449L0.136,-0.449L0.136,-0L0.259,-0L0.259,-0.449L0.385,-0.449L0.385,-0.546L0.01,-0.546Z" style="fill-rule:nonzero;"/>
                    </g>
                </g>
            </g>
        </g>
    </g>
</svg>
