<?xml version="1.0" encoding="UTF-8" standalone="no"?>
<!DOCTYPE svg PUBLIC "-//W3C//DTD SVG 1.1//EN" "http://www.w3.org/Graphics/SVG/1.1/DTD/svg11.dtd">
<svg width="100%" height="100%" viewBox="0 0 200 141" version="1.1" xmlns="http://www.w3.org/2000/svg" xmlns:xlink="http://www.w3.org/1999/xlink" xml:space="preserve" xmlns:serif="http://www.serif.com/" style="fill-rule:evenodd;clip-rule:evenodd;stroke-linecap:round;stroke-linejoin:round;stroke-miterlimit:1.5;">
    <g transform="matrix(1,0,0,1,-75,-296)">
        <g id="_003" serif:id="003" transform="matrix(0.25,0,0,0.233333,75,296.422)">
            <rect x="0" y="0" width="800" height="600" style="fill:none;"/>
            <g transform="matrix(4.24037,0,0,3.44881,-21.8264,11.3348)">
                <rect x="32.133" y="12.572" width="134.692" height="96.439" style="stroke:black;stroke-width:12.75px;"/>
            </g>
            <g transform="matrix(1.91084,0,0,2.92379,83.9802,47.0574)">
                <rect x="32.133" y="12.572" width="134.692" height="96.439" style="fill:white;"/>
            </g>
            <g transform="matrix(0.732777,0,0,0.732777,116.681,4.46161)">
                <g transform="matrix(0.504854,0,0,0.755474,429.284,98.7932)">
                    <path d="M166.825,60.787C166.825,47.999 159.73,35.736 147.102,26.694C134.473,17.652 117.345,12.572 99.485,12.572L99.472,12.572C81.613,12.572 64.485,17.652 51.856,26.694C39.227,35.736 32.133,47.999 32.133,60.787C32.133,60.79 32.133,60.793 32.133,60.796C32.133,73.583 39.227,85.847 51.856,94.889C64.485,103.931 81.613,109.011 99.472,109.011L99.485,109.011C117.345,109.011 134.473,103.931 147.102,94.889C159.73,85.847 166.825,73.583 166.825,60.796L166.825,60.787Z" style="fill:white;"/>
                </g>
                <g transform="matrix(1.38414,0,0,0.444841,499.156,117.677)">
                    <rect x="32.133" y="12.572" width="134.692" height="96.439" style="fill:white;"/>
                </g>
            </g>
            <g transform="matrix(0.732777,0,0,0.732777,116.681,-8.10028)">
                <g>
                    <g transform="matrix(0.504854,0,0,0.755474,429.284,210.269)">
                        <path d="M166.825,60.787C166.825,47.999 159.73,35.736 147.102,26.694C134.473,17.652 117.345,12.572 99.485,12.572C99.481,12.572 99.477,12.572 99.472,12.572C81.613,12.572 64.485,17.652 51.856,26.694C39.227,35.736 32.133,47.999 32.133,60.787C32.133,60.79 32.133,60.793 32.133,60.796C32.133,73.583 39.227,85.847 51.856,94.889C64.485,103.931 81.613,109.011 99.472,109.011L99.485,109.011C117.345,109.011 134.473,103.931 147.102,94.889C159.73,85.847 166.825,73.583 166.825,60.796L166.825,60.787Z" style="fill:white;"/>
                    </g>
                    <g transform="matrix(1.38414,0,0,0.444841,499.156,229.153)">
                        <rect x="32.133" y="12.572" width="134.692" height="96.439" style="fill:white;"/>
                    </g>
                </g>
            </g>
            <g transform="matrix(0.732777,0,0,0.732777,116.681,-23.8026)">
                <g transform="matrix(0.504854,0,0,0.755474,429.284,322.954)">
                    <path d="M166.825,60.787C166.825,47.999 159.73,35.736 147.102,26.694C134.473,17.652 117.345,12.572 99.485,12.572C99.481,12.572 99.477,12.572 99.472,12.572C81.613,12.572 64.485,17.652 51.856,26.694C39.227,35.736 32.133,47.999 32.133,60.787C32.133,60.79 32.133,60.793 32.133,60.796C32.133,73.583 39.227,85.847 51.856,94.889C64.485,103.931 81.613,109.011 99.472,109.011C99.477,109.011 99.481,109.011 99.485,109.011C117.345,109.011 134.473,103.931 147.102,94.889C159.73,85.847 166.825,73.583 166.825,60.796L166.825,60.787Z" style="fill:white;"/>
                </g>
                <g transform="matrix(1.38414,0,0,0.444841,499.156,341.838)">
                    <rect x="32.133" y="12.572" width="134.692" height="96.439" style="fill:white;"/>
                </g>
            </g>
            <g transform="matrix(0.612399,0,0,0.519117,423.46,309.192)">
                <rect x="32.133" y="12.572" width="134.692" height="96.439" style="stroke:white;stroke-width:21.73px;"/>
            </g>
            <g transform="matrix(0.631318,0,0,0.519117,546.337,309.192)">
                <rect x="32.133" y="12.572" width="134.692" height="96.439" style="stroke:white;stroke-width:21.32px;"/>
            </g>
            <g transform="matrix(4.68779,2.29715e-31,0,1.44711,576.307,-831.05)">
                <g transform="matrix(12.9288,0,0,44.8735,-91.9019,908.494)">
                    <path d="M0.325,-0.612L0.495,-0.612L0.495,-0.722L0.018,-0.722L0.018,-0.612L0.188,-0.612L0.188,-0L0.325,-0L0.325,-0.612Z" style="fill-rule:nonzero;"/>
                </g>
                <g transform="matrix(12.9288,0,0,44.8735,-85.2695,908.494)">
                    <path d="M0.421,-0.26L0.421,-0.387C0.421,-0.51 0.342,-0.56 0.233,-0.56C0.124,-0.56 0.045,-0.511 0.045,-0.387L0.045,-0.157C0.045,-0.033 0.124,0.016 0.233,0.016C0.342,0.016 0.421,-0.034 0.421,-0.157L0.421,-0.172L0.298,-0.172L0.298,-0.141C0.298,-0.103 0.273,-0.081 0.233,-0.081C0.193,-0.081 0.168,-0.101 0.168,-0.141L0.168,-0.26L0.421,-0.26ZM0.168,-0.35L0.168,-0.403C0.168,-0.443 0.193,-0.463 0.233,-0.463C0.273,-0.463 0.298,-0.441 0.298,-0.403L0.298,-0.35L0.168,-0.35Z" style="fill-rule:nonzero;"/>
                </g>
                <g transform="matrix(12.9288,0,0,44.8735,-79.2446,908.494)">
                    <path d="M0.234,-0.459C0.266,-0.459 0.293,-0.438 0.293,-0.395L0.293,-0.145C0.293,-0.102 0.266,-0.081 0.234,-0.081C0.203,-0.081 0.173,-0.102 0.173,-0.147L0.173,-0.393C0.173,-0.438 0.203,-0.459 0.234,-0.459ZM0.05,-0.546L0.05,0.182L0.173,0.182L0.173,-0.058C0.194,-0.009 0.231,0.016 0.278,0.016C0.353,0.016 0.421,-0.033 0.421,-0.138L0.421,-0.407C0.421,-0.517 0.353,-0.56 0.278,-0.56C0.235,-0.56 0.192,-0.535 0.173,-0.485L0.173,-0.546L0.05,-0.546Z" style="fill-rule:nonzero;"/>
                </g>
                <g transform="matrix(12.9288,0,0,44.8735,-73.2198,908.494)">
                    <path d="M0.05,-0.546L0.05,-0L0.17,-0L0.17,-0.387L0.171,-0.387L0.258,-0L0.336,-0L0.423,-0.387L0.424,-0.387L0.424,-0L0.544,-0L0.544,-0.546L0.378,-0.546L0.297,-0.181L0.216,-0.546L0.05,-0.546Z" style="fill-rule:nonzero;"/>
                </g>
                <g transform="matrix(12.9288,0,0,44.8735,-65.5401,908.494)">
                    <path d="M0.05,-0.546L0.05,-0L0.17,-0L0.301,-0.322L0.301,-0L0.421,-0L0.421,-0.546L0.302,-0.546L0.17,-0.22L0.17,-0.546L0.05,-0.546Z" style="fill-rule:nonzero;"/>
                </g>
                <g transform="matrix(12.9288,0,0,44.8735,-59.4506,908.494)">
                    <path d="M0.173,-0.546L0.05,-0.546L0.05,-0L0.173,-0L0.173,-0.241L0.291,-0.241L0.291,-0L0.414,-0L0.414,-0.546L0.291,-0.546L0.291,-0.338L0.173,-0.338L0.173,-0.546Z" style="fill-rule:nonzero;"/>
                </g>
                <g transform="matrix(12.9288,0,0,44.8735,-53.4517,908.494)">
                    <path d="M0.298,-0.282L0.298,-0.149C0.298,-0.1 0.267,-0.077 0.229,-0.077C0.19,-0.077 0.175,-0.111 0.175,-0.152C0.175,-0.177 0.186,-0.21 0.217,-0.23L0.298,-0.282ZM0.175,-0.378L0.175,-0.389C0.175,-0.438 0.204,-0.459 0.239,-0.459C0.277,-0.459 0.298,-0.444 0.298,-0.411C0.298,-0.365 0.244,-0.341 0.184,-0.316C0.089,-0.276 0.045,-0.23 0.045,-0.135C0.045,-0.032 0.104,0.016 0.185,0.016C0.251,0.016 0.28,-0.01 0.304,-0.052C0.304,-0.038 0.306,-0.012 0.314,-0L0.443,-0C0.429,-0.019 0.427,-0.043 0.427,-0.08L0.427,-0.42C0.427,-0.519 0.344,-0.56 0.238,-0.56C0.131,-0.56 0.055,-0.492 0.055,-0.405L0.055,-0.378L0.175,-0.378Z" style="fill-rule:nonzero;"/>
                </g>
                <g transform="matrix(12.9288,0,0,44.8735,-47.2846,908.494)">
                    <path d="M0.095,-0.546L0.095,-0.338C0.095,-0.106 0.09,-0.087 0.044,-0.087C0.036,-0.087 0.028,-0.088 0.017,-0.09L0.017,-0C0.042,0.007 0.061,0.01 0.088,0.01C0.161,0.01 0.215,-0.037 0.215,-0.23L0.215,-0.449L0.316,-0.449L0.316,-0L0.439,-0L0.439,-0.546L0.095,-0.546Z" style="fill-rule:nonzero;"/>
                </g>
                <g transform="matrix(12.9288,0,0,44.8735,-37.8595,908.494)">
                    <path d="M0.234,-0.459C0.266,-0.459 0.293,-0.438 0.293,-0.395L0.293,-0.145C0.293,-0.102 0.266,-0.081 0.234,-0.081C0.203,-0.081 0.173,-0.102 0.173,-0.147L0.173,-0.393C0.173,-0.438 0.203,-0.459 0.234,-0.459ZM0.05,-0.546L0.05,0.182L0.173,0.182L0.173,-0.058C0.194,-0.009 0.231,0.016 0.278,0.016C0.353,0.016 0.421,-0.033 0.421,-0.138L0.421,-0.407C0.421,-0.517 0.353,-0.56 0.278,-0.56C0.235,-0.56 0.192,-0.535 0.173,-0.485L0.173,-0.546L0.05,-0.546Z" style="fill-rule:nonzero;"/>
                </g>
                <g transform="matrix(12.9288,0,0,44.8735,-31.8347,908.494)">
                    <path d="M0.421,-0.26L0.421,-0.387C0.421,-0.51 0.342,-0.56 0.233,-0.56C0.124,-0.56 0.045,-0.511 0.045,-0.387L0.045,-0.157C0.045,-0.033 0.124,0.016 0.233,0.016C0.342,0.016 0.421,-0.034 0.421,-0.157L0.421,-0.172L0.298,-0.172L0.298,-0.141C0.298,-0.103 0.273,-0.081 0.233,-0.081C0.193,-0.081 0.168,-0.101 0.168,-0.141L0.168,-0.26L0.421,-0.26ZM0.168,-0.35L0.168,-0.403C0.168,-0.443 0.193,-0.463 0.233,-0.463C0.273,-0.463 0.298,-0.441 0.298,-0.403L0.298,-0.35L0.168,-0.35Z" style="fill-rule:nonzero;"/>
                </g>
                <g transform="matrix(12.9288,0,0,44.8735,-25.8099,908.494)">
                    <path d="M0.095,-0.546L0.095,-0.338C0.095,-0.106 0.09,-0.087 0.044,-0.087C0.036,-0.087 0.028,-0.088 0.017,-0.09L0.017,-0C0.042,0.007 0.061,0.01 0.088,0.01C0.161,0.01 0.215,-0.037 0.215,-0.23L0.215,-0.449L0.316,-0.449L0.316,-0L0.439,-0L0.439,-0.546L0.095,-0.546Z" style="fill-rule:nonzero;"/>
                </g>
                <g transform="matrix(12.9288,0,0,44.8735,-19.4877,908.494)">
                    <path d="M0.421,-0.26L0.421,-0.387C0.421,-0.51 0.342,-0.56 0.233,-0.56C0.124,-0.56 0.045,-0.511 0.045,-0.387L0.045,-0.157C0.045,-0.033 0.124,0.016 0.233,0.016C0.342,0.016 0.421,-0.034 0.421,-0.157L0.421,-0.172L0.298,-0.172L0.298,-0.141C0.298,-0.103 0.273,-0.081 0.233,-0.081C0.193,-0.081 0.168,-0.101 0.168,-0.141L0.168,-0.26L0.421,-0.26ZM0.168,-0.35L0.168,-0.403C0.168,-0.443 0.193,-0.463 0.233,-0.463C0.273,-0.463 0.298,-0.441 0.298,-0.403L0.298,-0.35L0.168,-0.35Z" style="fill-rule:nonzero;"/>
                </g>
                <g transform="matrix(12.9288,0,0,44.8735,-13.4628,908.494)">
                    <path d="M0.05,-0.546L0.05,-0L0.17,-0L0.301,-0.322L0.301,-0L0.421,-0L0.421,-0.546L0.302,-0.546L0.17,-0.22L0.17,-0.546L0.05,-0.546ZM0.107,-0.722C0.107,-0.656 0.145,-0.599 0.236,-0.599C0.326,-0.599 0.367,-0.642 0.367,-0.722L0.301,-0.722C0.301,-0.677 0.273,-0.671 0.234,-0.671C0.198,-0.671 0.17,-0.675 0.17,-0.722L0.107,-0.722Z" style="fill-rule:nonzero;"/>
                </g>
                <g transform="matrix(12.9288,0,0,44.8735,-7.37338,908.494)">
                    <path d="M0.173,-0.546L0.05,-0.546L0.05,-0L0.173,-0L0.173,-0.241L0.291,-0.241L0.291,-0L0.414,-0L0.414,-0.546L0.291,-0.546L0.291,-0.338L0.173,-0.338L0.173,-0.546Z" style="fill-rule:nonzero;"/>
                </g>
                <g transform="matrix(12.9288,0,0,44.8735,-1.37441,908.494)">
                    <path d="M0.239,-0.56C0.093,-0.56 0.045,-0.477 0.045,-0.382L0.045,-0.162C0.045,-0.067 0.093,0.016 0.239,0.016C0.382,0.016 0.432,-0.067 0.432,-0.162L0.432,-0.382C0.432,-0.477 0.382,-0.56 0.239,-0.56ZM0.239,-0.463C0.279,-0.463 0.304,-0.449 0.304,-0.398L0.304,-0.146C0.304,-0.095 0.279,-0.081 0.239,-0.081C0.201,-0.081 0.173,-0.097 0.173,-0.146L0.173,-0.398C0.173,-0.448 0.201,-0.463 0.239,-0.463Z" style="fill-rule:nonzero;"/>
                </g>
                <g transform="matrix(12.9288,0,0,44.8735,4.79263,908.494)">
                    <path d="M0.05,-0.546L0.05,-0L0.17,-0L0.301,-0.322L0.301,-0L0.421,-0L0.421,-0.546L0.302,-0.546L0.17,-0.22L0.17,-0.546L0.05,-0.546ZM0.107,-0.722C0.107,-0.656 0.145,-0.599 0.236,-0.599C0.326,-0.599 0.367,-0.642 0.367,-0.722L0.301,-0.722C0.301,-0.677 0.273,-0.671 0.234,-0.671C0.198,-0.671 0.17,-0.675 0.17,-0.722L0.107,-0.722Z" style="fill-rule:nonzero;"/>
                </g>
                <g transform="matrix(12.9288,0,0,44.8735,-61.1508,949.628)">
                    <path d="M0.167,-0.379C0.171,-0.429 0.183,-0.463 0.228,-0.463C0.271,-0.463 0.285,-0.44 0.285,-0.4C0.285,-0.357 0.27,-0.331 0.221,-0.331L0.195,-0.331L0.195,-0.241L0.224,-0.241C0.266,-0.241 0.293,-0.215 0.293,-0.165C0.293,-0.111 0.276,-0.081 0.224,-0.081C0.173,-0.081 0.16,-0.126 0.16,-0.173L0.04,-0.173C0.04,-0.03 0.134,0.016 0.232,0.016C0.347,0.016 0.421,-0.037 0.421,-0.145C0.421,-0.225 0.383,-0.273 0.322,-0.291C0.372,-0.31 0.409,-0.347 0.409,-0.411C0.409,-0.501 0.334,-0.56 0.228,-0.56C0.134,-0.56 0.052,-0.502 0.046,-0.379L0.167,-0.379Z" style="fill-rule:nonzero;"/>
                </g>
                <g transform="matrix(12.9288,0,0,44.8735,-55.1259,949.628)">
                    <path d="M0.298,-0.282L0.298,-0.149C0.298,-0.1 0.267,-0.077 0.229,-0.077C0.19,-0.077 0.175,-0.111 0.175,-0.152C0.175,-0.177 0.186,-0.21 0.217,-0.23L0.298,-0.282ZM0.175,-0.378L0.175,-0.389C0.175,-0.438 0.204,-0.459 0.239,-0.459C0.277,-0.459 0.298,-0.444 0.298,-0.411C0.298,-0.365 0.244,-0.341 0.184,-0.316C0.089,-0.276 0.045,-0.23 0.045,-0.135C0.045,-0.032 0.104,0.016 0.185,0.016C0.251,0.016 0.28,-0.01 0.304,-0.052C0.304,-0.038 0.306,-0.012 0.314,-0L0.443,-0C0.429,-0.019 0.427,-0.043 0.427,-0.08L0.427,-0.42C0.427,-0.519 0.344,-0.56 0.238,-0.56C0.131,-0.56 0.055,-0.492 0.055,-0.405L0.055,-0.378L0.175,-0.378Z" style="fill-rule:nonzero;"/>
                </g>
                <g transform="matrix(12.9288,0,0,44.8735,-48.9589,949.628)">
                    <path d="M0.17,-0.546L0.05,-0.546L0.05,-0L0.573,-0L0.573,0.133L0.687,0.133L0.687,-0.097L0.646,-0.097L0.646,-0.546L0.526,-0.546L0.526,-0.097L0.408,-0.097L0.408,-0.546L0.288,-0.546L0.288,-0.097L0.17,-0.097L0.17,-0.546Z" style="fill-rule:nonzero;"/>
                </g>
                <g transform="matrix(12.9288,0,0,44.8735,-39.7536,949.628)">
                    <path d="M0.05,-0.546L0.05,-0L0.17,-0L0.301,-0.322L0.301,-0L0.421,-0L0.421,-0.546L0.302,-0.546L0.17,-0.22L0.17,-0.546L0.05,-0.546Z" style="fill-rule:nonzero;"/>
                </g>
                <g transform="matrix(12.9288,0,0,44.8735,-33.6641,949.628)">
                    <path d="M0.01,-0.546L0.01,-0.449L0.136,-0.449L0.136,-0L0.259,-0L0.259,-0.449L0.385,-0.449L0.385,-0.546L0.01,-0.546Z" style="fill-rule:nonzero;"/>
                </g>
                <g transform="matrix(12.9288,0,0,44.8735,-28.5184,949.628)">
                    <path d="M0.173,-0.241L0.213,-0.241C0.254,-0.241 0.289,-0.224 0.289,-0.17C0.289,-0.109 0.253,-0.097 0.213,-0.097L0.173,-0.097L0.173,-0.241ZM0.173,-0.546L0.05,-0.546L0.05,-0L0.252,-0C0.33,-0 0.417,-0.055 0.417,-0.17C0.417,-0.284 0.332,-0.338 0.252,-0.338L0.173,-0.338L0.173,-0.546ZM0.619,-0.546L0.496,-0.546L0.496,-0L0.619,-0L0.619,-0.546Z" style="fill-rule:nonzero;"/>
                </g>
            </g>
        </g>
    </g>
</svg>
